<svg xmlns="http://www.w3.org/2000/svg" version="1.1" xmlns:xlink="http://www.w3.org/1999/xlink" width="512" height="512" x="0" y="0" viewBox="0 0 60 60" style="enable-background:new 0 0 512 512" xml:space="preserve" class=""><g><g fill="none" fill-rule="nonzero"><rect width="58" height="9" x="1" y="50" fill="#607d8b" rx="1" opacity="1" data-original="#607d8b"></rect><path fill="#ff5722" d="M4 44h16v6H2v-4a2 2 0 0 1 2-2z" opacity="1" data-original="#ff5722"></path><path fill="#d84315" d="M17 44h3v6h-3z" opacity="1" data-original="#d84315"></path><path fill="#7f8e94" d="M26 37v13h-6V37a3 3 0 0 1 6 0z" opacity="1" data-original="#7f8e94"></path><path fill="#545c60" d="M25.12 34.88a2.956 2.956 0 0 0-3.62-.462A2.919 2.919 0 0 1 23 37v13h3V37c0-.796-.317-1.558-.88-2.12z" opacity="1" data-original="#545c60"></path><path fill="#f5f5f5" d="M38 17.76v8.48l-6 6v-8.48z" opacity="1" data-original="#f5f5f5"></path><path fill="#f44335" d="M20.88 34.88 32 23.76v8.48l-6 6V37a3 3 0 0 0-5.12-2.12zM44 11.76v8.48l-6 6v-8.48z" opacity="1" data-original="#f44335"></path><path fill="#f5f5f5" d="M50 5.76v8.48l-6 6v-8.48z" opacity="1" data-original="#f5f5f5"></path><path fill="#f44335" d="M59 4a3 3 0 0 1-.88 2.12L50 14.24V5.76l3.88-3.88A3 3 0 0 1 59 4z" opacity="1" data-original="#f44335"></path><path fill="#c81e1e" d="M58.12 1.88a2.992 2.992 0 0 0-3.62-.463 2.982 2.982 0 0 1 .62 4.7L50 11.24v3l8.12-8.12a2.994 2.994 0 0 0 0-4.24z" opacity="1" data-original="#c81e1e"></path><path fill="#ff3a3a" d="M4 18h16v26H4z" opacity="1" data-original="#ffeb3a" class=""></path><path fill="#fd3434" d="M17 18h3v26h-3z" opacity="1" data-original="#fdd834" class=""></path><rect width="20" height="4" x="2" y="14" fill="#ff0101" rx="2" opacity="1" data-original="#ff9801" class=""></rect><path fill="#f50000" d="M20 14h-3a2 2 0 1 1 0 4h3a2 2 0 1 0 0-4z" opacity="1" data-original="#f57c00" class=""></path><rect width="8" height="8" x="8" y="22" fill="#02a9f4" rx="1" opacity="1" data-original="#02a9f4"></rect><path fill="#7f8e94" d="M59 42v2a2.006 2.006 0 0 1-2 2H35a2.006 2.006 0 0 1-2-2v-2z" opacity="1" data-original="#7f8e94"></path><path fill="#545c60" d="M56 42v2a2.006 2.006 0 0 1-2 2h3a2.006 2.006 0 0 0 2-2v-2z" opacity="1" data-original="#545c60"></path><path fill="#ffdc00" d="M59 38v4h-4v-2a2.006 2.006 0 0 1 2-2z" opacity="1" data-original="#ffdc00"></path><path fill="#f44335" d="M59 36v2h-2a2.006 2.006 0 0 0-2 2v2H37v-2a2.006 2.006 0 0 0-2-2h-2v-2l2.72-7.48L39.24 25H53.6c.841.003 1.592.53 1.88 1.32z" opacity="1" data-original="#f44335"></path><path fill="#c81e1e" d="M55.48 26.32A2.008 2.008 0 0 0 53.6 25h-3c.841.003 1.592.53 1.88 1.32L56 36v2h-2a2.006 2.006 0 0 0-2 2v2h3v-2a2.006 2.006 0 0 1 2-2h2v-2z" opacity="1" data-original="#c81e1e"></path><path fill="#02a9f4" d="M52.124 34H39.876a.84.84 0 0 1-.83-1.1l1.166-3.333a.873.873 0 0 1 .83-.57h9.916a.873.873 0 0 1 .83.57l1.166 3.333a.84.84 0 0 1-.83 1.1z" opacity="1" data-original="#02a9f4"></path><path fill="#0377bc" d="m52.954 32.9-1.166-3.33a.872.872 0 0 0-.83-.57h-3a.872.872 0 0 1 .83.57l1.166 3.33a.84.84 0 0 1-.83 1.1h3a.84.84 0 0 0 .83-1.1z" opacity="1" data-original="#0377bc" class=""></path><path fill="#ffdc00" d="M37 40v2h-4v-4h2a2.006 2.006 0 0 1 2 2z" opacity="1" data-original="#ffdc00"></path><path fill="#3f51b5" d="M36 46h6v2a2 2 0 0 1-2 2h-2a2 2 0 0 1-2-2zM50 46h6v2a2 2 0 0 1-2 2h-2a2 2 0 0 1-2-2z" opacity="1" data-original="#3f51b5" class=""></path><path fill="#283593" d="M53 46v2a2 2 0 0 1-1.5 1.929c.163.045.331.069.5.071h2a2 2 0 0 0 2-2v-2z" opacity="1" data-original="#283593" class=""></path><path fill="#f5f5f5" d="M47 39h-2a1 1 0 0 1 0-2h2a1 1 0 0 1 0 2z" opacity="1" data-original="#f5f5f5"></path><g fill="#000"><path d="M60 4a4 4 0 0 0-6.827-2.83L21 33.346v-14.53A2.993 2.993 0 0 0 20 13H4a2.993 2.993 0 0 0-1 5.816v24.368A3 3 0 0 0 1 46v3.278A1.993 1.993 0 0 0 0 51v7a2 2 0 0 0 2 2h56a2 2 0 0 0 2-2v-7a2 2 0 0 0-2-2h-1.184c.118-.32.18-.659.184-1v-1a3 3 0 0 0 3-3v-8a1 1 0 0 0-.061-.342l-3.52-9.683A3.017 3.017 0 0 0 53.6 24H41.653L58.827 6.825A3.972 3.972 0 0 0 60 4zM36 41h-2v-2h1a1 1 0 0 1 1 1zm-3.939-5.342A1 1 0 0 0 32 36v8a3 3 0 0 0 3 3v1c.003.341.066.68.184 1H27V38.654l6.24-6.241zM49 47v1c.003.341.066.68.184 1h-6.368c.118-.32.18-.659.184-1v-1zm-8 1a1 1 0 0 1-1 1h-2a1 1 0 0 1-1-1v-1h4zM26.85 35.976a3.992 3.992 0 0 0-2.826-2.826L31 26.173v5.653zM19 37v6H5V19h14zm2 7v-7a2 2 0 1 1 4 0v12h-4zm12-14.174v-5.653l4-4v5.652zm6-11.653 4-4v5.653l-4 4zm6-6 4-4v5.652l-4 4zM4 15h16a1 1 0 0 1 0 2H4a1 1 0 0 1 0-2zM3 46a1 1 0 0 1 1-1h15v4H3zm55 12H2v-7h56zm-3-10a1 1 0 0 1-1 1h-2a1 1 0 0 1-1-1v-1h4zm2-3H35a1 1 0 0 1-1-1v-1h24v1a1 1 0 0 1-1 1zm-1-4v-1a1 1 0 0 1 1-1h1v2zm-2.4-15c.421.003.796.267.941.662L58 36.176V37h-1a3 3 0 0 0-3 3v1H38v-1a3 3 0 0 0-3-3h-1v-.824l2.583-7.106 3.07-3.07zm3.813-20.589L51 11.824V6.172l3.587-3.588a2 2 0 1 1 2.826 2.827z" fill="#000000" opacity="1" data-original="#000000" class=""></path><path d="M9 31h6a2 2 0 0 0 2-2v-6a2 2 0 0 0-2-2H9a2 2 0 0 0-2 2v6a2 2 0 0 0 2 2zm0-8h6v6h-2v-2a1 1 0 0 0-2 0v2H9zM14 33h-4a1 1 0 0 0 0 2h4a1 1 0 0 0 0-2zM14 37h-4a1 1 0 0 0 0 2h4a1 1 0 0 0 0-2zM39.876 35h12.248a1.891 1.891 0 0 0 1.542-.789 1.8 1.8 0 0 0 .232-1.638l-1.167-3.334A1.869 1.869 0 0 0 50.958 28h-9.916a1.871 1.871 0 0 0-1.774 1.24L38.1 32.572a1.8 1.8 0 0 0 .231 1.639c.357.498.933.792 1.545.789zm1.245-5h9.758l1.05 3H40.071z" fill="#000000" opacity="1" data-original="#000000" class=""></path></g></g></g></svg>