<svg id="Layer_1" enable-background="new 0 0 512 512" viewBox="0 0 512 512" xmlns="http://www.w3.org/2000/svg"><g><path d="m496.7 349.4c-.1-4.3-1.5-8.1-3.7-11.5v-219.5-25.6c0-11.6-9.4-21.1-21.1-21.1h-150.2v-45c0-10.6-8.7-19.4-19.4-19.4h-269.9c-10.6 0-19.4 8.7-19.4 19.4v458.6c0 10.7 8.7 19.4 19.4 19.4h269.9c10.7 0 19.4-8.7 19.4-19.4v-80.4h12l13.8 18.4 5.7 25.2c.1.4.2.8.4 1.2 6.6 13.2 20.5 21.3 35.2 20.9 0 0 70.1-2.2 70.1-2.2 14.5-.5 27.4-9 33.5-22.2 4.1-7.7 7.1-16.2 6.6-25.1-.1.1-2.3-71.7-2.3-71.7zm-24.8-267.3c5.9 0 10.7 4.8 10.7 10.7v20.4h-389.9v-20.4c0-5.9 4.8-10.7 10.7-10.7zm-368.5 322.8h190.8v49.2c.2 3-251.4 0-252.5 1-3.4.2.2-419.2-1.1-420.2h69.5c5.2 6.8 10.6 15.7 20.4 15.3h73.7c9.8.6 15.2-8.6 20.4-15.3h69.5v36.8h-190.7c-11.6 0-21.1 9.5-21.1 21.1v25.6 265.3c0 11.7 9.4 21.2 21.1 21.2zm207.9 80.4c0 5-4 9-9 9h-269.9c-4.9 0-9-4-9-9v-458.6c0-4.9 4-9 9-9h269.9c5 0 9 4 9 9v45h-6.8v-42c0-2.9-2.3-5.2-5.2-5.2h-77.2c-1.6 0-3.1.7-4.1 2l-8.2 10.5c-1.3 1.7-3.3 2.7-5.6 2.7h-73.7c-2.2 0-4.3-1-5.7-2.8l-8.1-10.4c-1-1.2-2.5-2-4.1-2h-77.2c-2.9 0-5.2 2.3-5.2 5.2v424.4c0 6.3 5.1 11.4 11.5 11.4h251.3c6.3 0 11.5-5.1 11.5-11.4v-49.2h6.8zm-207.9-90.8c-5.9 0-10.7-4.8-10.7-10.7v-260.2h389.9v205.9c-6-2.2-12.9-1.3-18.3 2 .9-17.2-18-29.3-32.5-19.9-1-15.6-18.9-25.8-32.4-17.1 0 0-1-33.9-1-34-.8-26.8-43-25.9-42.2 1.3.7 22.8 2.5 83.4 3.3 106.9-2.4-2.9-22.3-30.7-24.9-32-12-10.6-32.3-3.2-34.4 12.7-.8 5.6.6 11.4 4 16 0 0 21.8 29.1 21.8 29.1zm380.9 44.2c-4 11-13.8 19.1-25.8 19.3 0 0-70.1 2.2-70.1 2.2-10.6.2-20.4-5.4-25.4-14.7l-5.7-25.6c-.2-2-44.8-60.1-45-60.7-8.2-12.1 8.7-23.9 17.5-12.4 0 0 31 41.4 31 41.4 2.9 4 9.7 1.6 9.3-3.3 0 0-2.4-77.5-2.4-77.5l-1.4-45.8c0-14 20.5-14.7 21.4-.7.9 35.6 2.2 71.3 3.3 106.9 1.2 5.7-2.8 17.7 5.8 18.3 2.9-.1 5.1-2.5 5-5.3-.5-16.9-1.1-33.8-1.6-50.8.3-9.9-4.7-27.5 10.2-28.3 5.8-.1 10.5 5.3 10.7 11.1 0-.9.5 17.3.6 17.4 0 0 1.5 49.9 1.5 49.9.1 2.9 2.6 5.1 5.4 5 2.9-.1 5.1-2.5 5-5.3l-1.5-49.9c-.3-5.8 4.9-11.1 10.7-11.1s10.6 5 10.7 11.1l.6 19.8v.5s.9 29 .9 29c.3 6.8 10.4 6.5 10.4-.3 0 0-.9-29-.9-29.1.5-14.5 20.7-14.5 21.5 0 0 0 2.2 71.7 2.2 71.7.5 5.9-.9 11.7-3.9 17.2z" fill="#231f20"/><path d="m488.5 421.5c.5 7.1-2.4 14-5.7 20.4-4.4 9.6-13.8 15.8-24.3 16.1 0 0-70.1 2.2-70.1 2.2-10.6.2-20.4-5.4-25.4-14.7-.3-.1-5.9-28.9-6.6-27.6 0 0-41.8-55.7-41.8-55.7s-2.3-3-2.3-3c-4.7-5.9-1.2-15.5 6.2-16.9 4.1-.8 8.8 1.1 11.3 4.5 0 0 31 41.4 31 41.4 1.3 1.8 3.7 2.5 5.9 1.8 2.1-.7 3.5-2.8 3.5-5.1 0 0-2.4-77.5-2.4-77.5l-1.4-45.8c-.2-5.1 3.5-9.7 8.5-10.7 6.4-1.3 12.7 3.5 12.9 10.1.3 8 .5 16 .7 24 .6 32 2.3 64.1 3 96.2.1 2.9 2.5 5.1 5.3 5 2.9-.1 5.1-2.5 5-5.3-.5-16.9-1.1-33.8-1.6-50.8.5-7.9-2.6-16.8 1.6-24 6.2-8.4 19.1-3.4 19.3 6.7.4 11.7 1.7 54.9 2.1 67.4.4 6.8 10.5 6.5 10.4-.3 0 0-1.5-49.9-1.5-49.9-.3-5.8 4.9-11.1 10.7-11.1s10.6 5 10.7 11.1l.6 19.8v.5l.9 29c.3 6.8 10.4 6.5 10.4-.3 0 0-.9-29-.9-29.1-.2-6.7 6.5-12.3 13.1-10.7 4.9 1.1 8.3 5.9 8.4 10.7.3-.2 2.5 71.6 2.5 71.6z" fill="#f6c9af"/><path d="m471.9 82.1h-368.5c-5.9 0-10.7 4.8-10.7 10.7v20.4h389.9v-20.4c0-5.9-4.8-10.7-10.7-10.7zm-89.7 21.8c-8.1-.1-8.1-12.2 0-12.4 8.1.1 8.1 12.2 0 12.4zm34.1 0c-8.1-.1-8.1-12.2 0-12.4 8.1.1 8.1 12.2 0 12.4zm34.1 0c-8.1-.1-8.1-12.2 0-12.4 8.1.1 8.1 12.2 0 12.4z" fill="#78e7dc"/><path d="m304.5 71.7v-42c0-2.9-2.3-5.2-5.2-5.2h-77.2c-1.6 0-3.1.7-4.1 2l-8.2 10.5c-1.3 1.7-3.3 2.7-5.6 2.7h-73.7c-2.2 0-4.3-1-5.7-2.8l-8.1-10.4c-1-1.2-2.5-2-4.1-2h-77.2c-2.9 0-5.2 2.3-5.2 5.2v424.4c0 6.3 5.1 11.4 11.5 11.4h251.3c6.3 0 11.5-5.1 11.5-11.4v-49.2h6.8v80.4c0 5-4 9-9 9h-269.9c-4.9 0-9-4-9-9v-458.6c0-4.9 4-9 9-9h269.9c5 0 9 4 9 9v45z" fill="#66aff1"/><path d="m82.3 118.5v265.3c0 11.6 9.4 21.1 21.1 21.1h190.8v49.2c.2 3-251.4 0-252.5 1-3.4.2.2-419.2-1.1-420.2h69.5c5.2 6.8 10.6 15.7 20.4 15.3h73.7c9.8.6 15.2-8.6 20.4-15.3h69.5v36.8h-190.7c-11.6 0-21.1 9.5-21.1 21.1v25.7c0-.1 0-.1 0 0z" fill="#eaeffe"/><path d="m92.7 123.6v260.1c0 5.9 4.8 10.7 10.7 10.7h222.5l-21.8-29.1c-7.1-9.2-4.9-23.4 4.7-29.9 9.2-6.6 22.7-3.9 29.4 5.1 0 0 21.2 28.2 21.2 28.2-.7-23.8-2.6-83.9-3.3-106.9-.8-27.2 41.4-28.1 42.2-1.3 0 .1 1 34 1 34 13.5-8.7 31.3 1.6 32.4 17.1 14.5-9.5 33.4 2.7 32.5 19.9 5.4-3.3 12.3-4.3 18.3-2v-205.9zm144.9 30.1h81.8c6.8.1 6.8 10.3 0 10.4h-81.8c-6.8-.1-6.9-10.3 0-10.4zm-23.4 190.2c0 11.9-9.8 21.7-21.7 21.7h-59.7c-11.9 0-21.7-9.8-21.7-21.7v-59.7c0-12 9.8-21.7 21.7-21.7h59.7c11.9 0 21.7 9.7 21.7 21.7zm0-123c0 12-9.8 21.7-21.7 21.7h-59.7c-11.9 0-21.7-9.7-21.7-21.7v-59.7c0-11.9 9.8-21.7 21.7-21.7h59.7c11.9 0 21.7 9.8 21.7 21.7zm64.2 134.2s-9.8 0-19.8 0c-10.4 0-21.1 0-21.1 0-6.8-.1-6.8-10.3 0-10.4h40.9c6.8 0 6.9 10.4 0 10.4zm66.9-37h-107.7c-6.8-.1-6.8-10.3 0-10.4h107.7c6.7 0 6.8 10.4 0 10.4zm-112.9-37.2c0-2.9 2.3-5.2 5.2-5.2h81.8c2.9 0 5.2 2.3 5.2 5.2s-2.3 5.2-5.2 5.2h-81.8c-2.9 0-5.2-2.3-5.2-5.2zm211.8-52.5h-206.6c-6.7-.1-6.9-10.2 0-10.4h206.6c6.7.1 6.9 10.2 0 10.4zm0-32.2h-206.6c-6.7-.1-6.9-10.2 0-10.4h206.6c6.7.2 6.9 10.3 0 10.4z" fill="#eaeffe"/><path d="m456.5 97.6c-.1 8.2-12.2 8.2-12.4 0 .2-8.1 12.3-8.1 12.4 0z" fill="#231f20"/><path d="m422.5 97.6c-.1 8.2-12.2 8.2-12.4 0 .1-8.1 12.2-8.1 12.4 0z" fill="#231f20"/><path d="m388.4 97.6c-.1 8.2-12.2 8.2-12.4 0 .2-8.1 12.2-8.1 12.4 0z" fill="#231f20"/><path d="m188.6 166.9c-6.4-6.9-17.2-7.3-24.1-.9l-26.9 25c-16.2 15.7 6.3 40 23.2 25 0 0 26.8-24.9 26.8-24.9 7-6.1 7.4-17.5 1-24.2zm-34.8 41.5c-6.7 5.8-15.5-3.7-9.1-9.9 0 0 9.7-8.9 9.7-8.9l9.1 9.9zm26.9-24.9-9.7 8.9-9.1-9.9 9.7-8.9c6.5-5.9 15.4 3.9 9.1 9.9z" fill="#231f20"/><path d="m192.5 139.5h-59.7c-11.9 0-21.7 9.8-21.7 21.7v59.7c0 12 9.8 21.7 21.7 21.7h59.7c11.9 0 21.7-9.7 21.7-21.7v-59.7c0-12-9.8-21.7-21.7-21.7zm11.3 81.4c0 6.2-5.1 11.3-11.3 11.3h-59.7c-6.2 0-11.3-5.1-11.3-11.3v-59.7c0-6.2 5.1-11.3 11.3-11.3h59.7c6.2 0 11.3 5.1 11.3 11.3z" fill="#231f20"/><path d="m192.5 149.9h-59.7c-6.2 0-11.3 5.1-11.3 11.3v59.7c0 6.2 5.1 11.3 11.3 11.3h59.7c6.2 0 11.3-5.1 11.3-11.3v-59.7c0-6.3-5.1-11.3-11.3-11.3zm-4.8 41.2-26.8 24.9c-3.3 3.1-7.5 4.6-11.6 4.6-15.1.5-23.1-19.6-11.6-29.6 0 0 26.9-25 26.9-25 16.9-14.9 39.3 9.5 23.1 25.1z" fill="#78e7dc"/><path d="m163.4 199.5-9.6 8.9c-2.8 2.5-7 2.3-9.5-.4-2.6-2.6-2.3-7.1.4-9.5 0 0 9.7-8.9 9.7-8.9z" fill="#d5dcf8"/><path d="m182.8 178.8c-.1 1.8-.8 3.5-2.1 4.7l-9.7 8.9-9.1-9.9 9.7-8.9c4.1-4 11.6-.5 11.2 5.2z" fill="#f44a7e"/><path d="m188.6 290c-6.4-6.9-17.2-7.3-24.1-.9l-26.9 24.9c-16.2 15.7 6.3 40 23.2 25.1 0 0 26.8-24.9 26.8-24.9 7-6.2 7.4-17.6 1-24.2zm-34.8 41.4c-6.5 6-15.6-3.9-9.1-9.8 0 0 9.7-8.9 9.7-8.9l9.1 9.8zm26.9-24.9-9.7 8.9-9.1-9.8 9.7-8.9c6.5-5.9 15.4 3.8 9.1 9.8z" fill="#231f20"/><path d="m192.5 262.5h-59.7c-11.9 0-21.7 9.7-21.7 21.7v59.7c0 11.9 9.8 21.7 21.7 21.7h59.7c11.9 0 21.7-9.8 21.7-21.7v-59.7c0-12-9.8-21.7-21.7-21.7zm11.3 81.4c0 6.2-5.1 11.3-11.3 11.3h-59.7c-6.2 0-11.3-5.1-11.3-11.3v-59.7c0-6.2 5.1-11.3 11.3-11.3h59.7c6.2 0 11.3 5.1 11.3 11.3z" fill="#231f20"/><path d="m192.5 272.9h-59.7c-6.2 0-11.3 5.1-11.3 11.3v59.7c0 6.2 5.1 11.3 11.3 11.3h59.7c6.2 0 11.3-5.1 11.3-11.3v-59.7c0-6.2-5.1-11.3-11.3-11.3zm-4.8 41.2-26.8 24.9c-10.5 10.4-29.7 1.6-28.7-13.2.3-4.6 2.2-8.8 5.5-11.9l26.9-24.9c16.8-14.9 39.3 9.5 23.1 25.1z" fill="#78e7dc"/><path d="m163.4 322.5-9.6 8.9c-2.8 2.5-7 2.4-9.5-.4-2.6-2.6-2.3-7.1.4-9.4 0 0 9.7-8.9 9.7-8.9z" fill="#d5dcf8"/><path d="m182.8 301.8c-.1 1.8-.8 3.5-2.1 4.7l-9.7 8.9-9.1-9.8 9.7-8.9c4.1-4.1 11.6-.6 11.2 5.1z" fill="#f44a7e"/><g fill="#231f20"><path d="m324.6 158.9c0 2.9-2.3 5.2-5.2 5.2h-81.8c-2.9 0-5.2-2.3-5.2-5.2s2.3-5.2 5.2-5.2h81.8c2.8 0 5.2 2.3 5.2 5.2z"/><path d="m324.6 280.9c0 2.9-2.3 5.2-5.2 5.2h-81.8c-2.9 0-5.2-2.3-5.2-5.2s2.3-5.2 5.2-5.2h81.8c2.8 0 5.2 2.3 5.2 5.2z"/><path d="m449.4 191.1c0 2.9-2.3 5.2-5.2 5.2h-206.6c-6.7-.1-6.9-10.2 0-10.4h206.6c2.8 0 5.2 2.3 5.2 5.2z"/><path d="m449.4 223.2c0 2.9-2.3 5.2-5.2 5.2h-206.6c-6.7-.1-6.9-10.2 0-10.4h206.6c2.8 0 5.2 2.3 5.2 5.2z"/><path d="m350.5 313c0 2.9-2.3 5.2-5.2 5.2h-107.7c-2.9 0-5.2-2.3-5.2-5.2s2.3-5.2 5.2-5.2h107.7c2.9 0 5.2 2.2 5.2 5.2z"/><path d="m283.6 350c0 2.9-2.3 5.2-5.2 5.2h-40.9c-2.9 0-5.2-2.3-5.2-5.2s2.3-5.2 5.2-5.2h40.9c3 0 5.2 2.2 5.2 5.2z"/></g></g></svg>