<svg xmlns="http://www.w3.org/2000/svg" version="1.1" xmlns:xlink="http://www.w3.org/1999/xlink" width="512" height="512" x="0" y="0" viewBox="0 0 64 64" style="enable-background:new 0 0 512 512" xml:space="preserve" class=""><g><path fill="#21723d" d="M53.38 54c.96 0 1.78-.67 1.97-1.61 2.13-10.55 1.12-26.78-1.51-37.36A4 4 0 0 0 49.96 12H16.99c.12 19.07-1.16 30.54-4 42z" opacity="1" data-original="#e89236"></path><path fill="#58d382" d="M47.4 58c.93 0 1.74-.63 1.94-1.53C51.83 45.6 53 31.33 52.98 14.01c0-1.1-.9-2-2-2H12.99c-1.11 0-2 .91-2 2.01.02 16.86-1.09 30.82-3.45 41.58-.27 1.24.68 2.41 1.95 2.41H47.4z" opacity="1" data-original="#fcbf49" class=""></path><path fill="#81ffac" d="M28.99 6h6v10h-6z" opacity="1" data-original="#ffcc73" class=""></path><path fill="#050819" d="M54.56 14.85c-.19-.75-.57-1.45-1.1-2.03a2.748 2.748 0 0 0-2.47-1.57H35.74V6c0-.41-.34-.75-.75-.75h-6c-.41 0-.75.34-.75.75v5.25H12.99c-1.51 0-2.74 1.24-2.74 2.76.02 17.01-1.13 30.94-3.43 41.42-.18.81.02 1.65.54 2.3s1.3 1.02 2.14 1.02h37.9c1.29 0 2.39-.87 2.68-2.11.14-.62.28-1.25.41-1.89h2.89c1.3 0 2.44-.93 2.7-2.21 2.29-11.33.92-27.88-1.52-37.69zm-24.82-8.1h4.5v8.5h-4.5zm17.66 50.5H9.5c-.38 0-.73-.17-.97-.46s-.33-.67-.25-1.04c2.32-10.58 3.49-24.62 3.47-41.74 0-.69.56-1.26 1.24-1.26h15.25V16c0 .41.34.75.75.75h6c.41 0 .75-.34.75-.75v-3.25h15.25c.69 0 1.25.56 1.25 1.25.02 17.48-1.2 31.72-3.62 42.3-.13.56-.63.95-1.22.95zm7.2-5.01a1.26 1.26 0 0 1-1.22 1.01h-2.59c1.81-9.39 2.79-21.22 2.93-35.26 1.99 9.78 2.92 24.14.88 34.25z" opacity="1" data-original="#050819"></path></g></svg>