<svg width="512" height="512" viewBox="0 0 512 512" fill="none" xmlns="http://www.w3.org/2000/svg">
<path d="M341.5 504.5H43V109.7H341.5V504.5Z" fill="#D2F5DF"/>
<path d="M319.4 504.5H341.5V109.7H319.4V504.5Z" fill="#C0EDD0"/>
<path d="M252.8 504.5H124.9V385.4C124.9 379.5 129.7 374.8 135.5 374.8H242.2C248.1 374.8 252.8 379.6 252.8 385.4V504.5Z" fill="#81C298"/>
<path d="M242.1 374.8H220C225.9 374.8 230.6 379.6 230.6 385.4V504.5H252.7V385.4C252.7 379.5 247.9 374.8 242.1 374.8Z" fill="#4EA46C"/>
<path d="M341.5 504.5H469.8V208.3C469.8 201.7 464.4 196.3 457.8 196.3H341.6V504.6L341.5 504.5Z" fill="#D2F5DF"/>
<path d="M457.7 196.2H435.6C442.2 196.2 447.6 201.6 447.6 208.2V504.4H469.7V208.3C469.7 201.7 464.3 196.3 457.7 196.3" fill="#C0EDD0"/>
<path d="M252.8 504.5H491C495.2 504.5 498.6 501.1 498.6 496.9V471.5H252.8V504.4V504.5Z" fill="#B6C4CF"/>
<path d="M476.5 471.6V497C476.5 501.2 473.1 504.6 468.9 504.6H491C495.2 504.6 498.6 501.2 498.6 497V471.6H476.5Z" fill="#9FACBA"/>
<path d="M252.8 504.5H367.5V471.6H252.8V504.5Z" fill="#B6C4CF"/>
<path d="M252.8 504.5H367.5V471.6H252.8V504.5Z" fill="#B6C4CF"/>
<path d="M252.8 504.5H367.5V471.6H252.8V504.5Z" fill="#9FACBA"/>
<path d="M345.4 504.5H367.5V471.6H345.4V504.5Z" fill="#8D9CA8"/>
<path d="M341.5 425.6H455.8C479.4 425.6 498.6 444.8 498.6 468.4V471.6H341.5V425.6Z" fill="#BBEC6C"/>
<path d="M455.8 425.6H433.7C457.3 425.6 476.5 444.8 476.5 468.4V471.6H498.6V468.4C498.6 444.8 479.4 425.6 455.8 425.6Z" fill="#A2E62E"/>
<path d="M295.5 425.6H324.6C348.2 425.6 367.4 444.8 367.4 468.4V471.6H252.7V468.4C252.7 444.8 271.9 425.6 295.5 425.6Z" fill="#BBEC6C"/>
<path d="M324.7 425.6H302.6C326.2 425.6 345.4 444.8 345.4 468.4V471.6H367.5V468.4C367.5 444.8 348.3 425.6 324.7 425.6Z" fill="#A2E62E"/>
<path d="M13.4 504.5H124.8V471.6H13.4V504.5Z" fill="#9FACBA"/>
<path d="M102.7 504.5H124.8V471.6H102.7V504.5Z" fill="#8D9CA8"/>
<path d="M56.2 425.6H82C105.6 425.6 124.8 444.8 124.8 468.4V471.6H13.4V468.4C13.4 444.8 32.6 425.6 56.2 425.6Z" fill="#BBEC6C"/>
<path d="M82 425.6H59.9C83.5 425.6 102.7 444.8 102.7 468.4V471.6H124.8V468.4C124.8 444.8 105.6 425.6 82 425.6Z" fill="#A2E62E"/>
<path d="M350.6 140.8H32.4C22.5 140.8 14.5 132.8 14.5 122.9V25.4C14.5 15.5 22.5 7.5 32.4 7.5H350.6C360.5 7.5 368.5 15.5 368.5 25.4V122.8C368.5 132.7 360.5 140.7 350.6 140.7" fill="#F5FCFF"/>
<path d="M350.6 7.5H328.5C338.4 7.5 346.4 15.5 346.4 25.4V122.8C346.4 132.7 338.4 140.7 328.5 140.7H350.6C360.5 140.7 368.5 132.7 368.5 122.8V25.4C368.5 15.5 360.5 7.5 350.6 7.5Z" fill="#F4FFF8"/>
<path d="M295.6 337.4H89.4C86.6 337.4 84.3 335.1 84.3 332.3V310.3C84.3 307.5 86.6 305.2 89.4 305.2H295.6C298.4 305.2 300.7 307.5 300.7 310.3V332.3C300.7 335.1 298.4 337.4 295.6 337.4Z" fill="#F5FCFF"/>
<path d="M295.6 305.2H273.5C276.3 305.2 278.6 307.5 278.6 310.3V332.3C278.6 335.1 276.3 337.4 273.5 337.4H295.6C298.4 337.4 300.7 335.1 300.7 332.3V310.3C300.7 307.5 298.4 305.2 295.6 305.2Z" fill="#F4FFF8"/>
<path d="M295.6 271.2H89.4C86.6 271.2 84.3 268.9 84.3 266.1V244.1C84.3 241.3 86.6 239 89.4 239H295.6C298.4 239 300.7 241.3 300.7 244.1V266.1C300.7 268.9 298.4 271.2 295.6 271.2Z" fill="#F5FCFF"/>
<path d="M295.6 239H273.5C276.3 239 278.6 241.3 278.6 244.1V266.1C278.6 268.9 276.3 271.2 273.5 271.2H295.6C298.4 271.2 300.7 268.9 300.7 266.1V244.1C300.7 241.3 298.4 239 295.6 239Z" fill="#F4FFF8"/>
<path d="M295.6 204.9H89.4C86.6 204.9 84.3 202.6 84.3 199.8V177.8C84.3 175 86.6 172.7 89.4 172.7H295.6C298.4 172.7 300.7 175 300.7 177.8V199.8C300.7 202.6 298.4 204.9 295.6 204.9Z" fill="#F5FCFF"/>
<path d="M295.6 172.8H273.5C276.3 172.8 278.6 175.1 278.6 177.9V199.9C278.6 202.7 276.3 205 273.5 205H295.6C298.4 205 300.7 202.7 300.7 199.9V177.9C300.7 175.1 298.4 172.8 295.6 172.8Z" fill="#F4FFF8"/>
<path d="M43 427.7V140.8" stroke="black" stroke-width="15" stroke-linecap="round" stroke-linejoin="round"/>
<path d="M341.5 429V140.8" stroke="black" stroke-width="15" stroke-linecap="round" stroke-linejoin="round"/>
<path d="M252.8 504.5H124.9V385.4C124.9 379.5 129.7 374.8 135.5 374.8H242.2C248.1 374.8 252.8 379.6 252.8 385.4V504.5Z" stroke="black" stroke-width="15" stroke-linecap="round" stroke-linejoin="round"/>
<path d="M341.5 429V196.2H457.7C464.4 196.2 469.7 201.6 469.7 208.2V391.8" stroke="black" stroke-width="15" stroke-linecap="round" stroke-linejoin="round"/>
<path d="M252.8 504.5H491C495.2 504.5 498.6 501.1 498.6 496.9V471.5H252.8V504.4V504.5Z" stroke="black" stroke-width="15" stroke-linecap="round" stroke-linejoin="round"/>
<path d="M252.8 504.5H367.5V471.6H252.8V504.5Z" stroke="black" stroke-width="15" stroke-linecap="round" stroke-linejoin="round"/>
<path d="M341.5 429V425.6H455.8C460.7 425.6 465.4 426.4 469.8 427.9C486.6 433.7 498.6 449.6 498.6 468.4V471.6H341.5" stroke="black" stroke-width="15" stroke-linecap="round" stroke-linejoin="round"/>
<path d="M295.5 425.6H324.6C348.2 425.6 367.4 444.8 367.4 468.4V471.6H252.7V468.4C252.7 444.8 271.9 425.6 295.5 425.6Z" stroke="black" stroke-width="15" stroke-linecap="round" stroke-linejoin="round"/>
<path d="M13.4 504.5H124.8V471.6H13.4V504.5Z" stroke="black" stroke-width="15" stroke-linecap="round" stroke-linejoin="round"/>
<path d="M56.2 425.6H82C105.6 425.6 124.8 444.8 124.8 468.4V471.6H13.4V468.4C13.4 444.8 32.6 425.6 56.2 425.6Z" stroke="black" stroke-width="15" stroke-linecap="round" stroke-linejoin="round"/>
<path d="M350.6 140.8H32.4C22.5 140.8 14.5 132.8 14.5 122.9V25.4C14.5 15.5 22.5 7.5 32.4 7.5H350.6C360.5 7.5 368.5 15.5 368.5 25.4V122.8C368.5 132.7 360.5 140.7 350.6 140.7V140.8Z" stroke="black" stroke-width="15" stroke-linecap="round" stroke-linejoin="round"/>
<path d="M188.8 436.6V374.8" stroke="black" stroke-width="15" stroke-linecap="round" stroke-linejoin="round"/>
<path d="M188.8 504.5V472" stroke="black" stroke-width="15" stroke-linecap="round" stroke-linejoin="round"/>
<path d="M295.6 337.4H89.4C86.6 337.4 84.3 335.1 84.3 332.3V310.3C84.3 307.5 86.6 305.2 89.4 305.2H295.6C298.4 305.2 300.7 307.5 300.7 310.3V332.3C300.7 335.1 298.4 337.4 295.6 337.4Z" stroke="black" stroke-width="15" stroke-linecap="round" stroke-linejoin="round"/>
<path d="M153.6 239H295.7C298.5 239 300.8 241.3 300.8 244.1V266.1C300.8 268.9 298.5 271.2 295.7 271.2H89.4C86.6 271.2 84.3 268.9 84.3 266.1V244.1C84.3 241.3 86.6 239 89.4 239H118.5" stroke="black" stroke-width="15" stroke-linecap="round" stroke-linejoin="round"/>
<path d="M295.6 204.9H89.4C86.6 204.9 84.3 202.6 84.3 199.8V177.8C84.3 175 86.6 172.7 89.4 172.7H295.6C298.4 172.7 300.7 175 300.7 177.8V199.8C300.7 202.6 298.4 204.9 295.6 204.9Z" stroke="black" stroke-width="15" stroke-linecap="round" stroke-linejoin="round"/>
<path d="M375.7 241.1H431" stroke="black" stroke-width="15" stroke-linecap="round" stroke-linejoin="round"/>
<path d="M375.7 286.4H431" stroke="black" stroke-width="15" stroke-linecap="round" stroke-linejoin="round"/>
<path d="M375.7 331.7H431" stroke="black" stroke-width="15" stroke-linecap="round" stroke-linejoin="round"/>
<path d="M375.7 376.9H431" stroke="black" stroke-width="15" stroke-linecap="round" stroke-linejoin="round"/>
<path d="M252.8 271.2V239" stroke="black" stroke-width="15" stroke-linecap="round" stroke-linejoin="round"/>
<path d="M252.8 204.9V172.7" stroke="black" stroke-width="15" stroke-linecap="round" stroke-linejoin="round"/>
<path d="M252.8 337.4V305.2" stroke="black" stroke-width="15" stroke-linecap="round" stroke-linejoin="round"/>
<path d="M189.875 100C181.458 100 175.271 97.3125 171.312 91.9375C169.312 97.3125 164.5 100 156.875 100H97.875C93.125 100 89.2083 98.1042 86.125 94.3125C83.2083 90.7708 81.75 86.5625 81.75 81.6875V64.6875H93V80.125C93 83.2917 93.6042 85.5208 94.8125 86.8125C96.0625 88.1042 98.25 88.75 101.375 88.75H156.312C160.062 88.75 161.938 87.3958 161.938 84.6875C161.938 83.2292 161.021 81.5417 159.188 79.625L130 48.875L127.875 36.25L169.375 21.3125L170.938 32.5625L141.625 43.5L172.875 78.1875L180.938 86.3125C182.312 87.7292 185.292 88.5417 189.875 88.75V100ZM208.438 47C208.438 49.2083 207.667 51.0833 206.125 52.625C204.625 54.1667 202.792 54.9375 200.625 54.9375C194.917 54.9375 192.062 52.2917 192.062 47C192.062 42.5417 194.771 40.3125 200.188 40.3125C205.688 40.3125 208.438 42.5417 208.438 47ZM219.5 81.6875C219.5 86.5208 218 90.7292 215 94.3125C211.833 98.1042 207.896 100 203.188 100H184.75V88.75C196.542 88.75 203.104 88.5208 204.438 88.0625C206.938 87.1458 208.188 83.7708 208.188 77.9375C208.188 76.4792 208.146 74.2708 208.062 71.3125C208.021 68.3542 208 66.1458 208 64.6875H219.5V81.6875ZM255.438 100C245.938 100 239.25 98.1667 235.375 94.5C232.792 92.125 231.5 88.2292 231.5 82.8125V29.625H242.75V77.875C242.75 83.0833 243.625 86.2708 245.375 87.4375C246.458 88.1458 249.812 88.5833 255.438 88.75V100ZM285.5 81.6875C285.5 86.5208 284 90.7292 281 94.3125C277.833 98.1042 273.896 100 269.188 100H250.75V88.75C262.542 88.75 269.104 88.5208 270.438 88.0625C272.938 87.1458 274.188 83.7708 274.188 77.9375C274.188 76.4792 274.146 74.2708 274.062 71.3125C274.021 68.3542 274 66.1458 274 64.6875H285.5V81.6875ZM272.25 121C272.25 123.208 271.479 125.042 269.938 126.5C268.438 128 266.604 128.75 264.438 128.75C258.854 128.75 256.062 126.167 256.062 121C256.062 116.5 258.75 114.25 264.125 114.25C269.542 114.25 272.25 116.5 272.25 121Z" fill="black"/>
</svg>
