<?xml version="1.0" encoding="UTF-8" standalone="no"?>
<!-- Created with Inkscape (http://www.inkscape.org/) -->

<svg
   version="1.1"
   id="svg3408"
   xml:space="preserve"
   width="682.66669"
   height="682.66669"
   viewBox="0 0 682.66669 682.66669"
   xmlns="http://www.w3.org/2000/svg"
   xmlns:svg="http://www.w3.org/2000/svg"><defs
     id="defs3412"><clipPath
       clipPathUnits="userSpaceOnUse"
       id="clipPath3422"><path
         d="M 0,512 H 512 V 0 H 0 Z"
         id="path3420" /></clipPath></defs><g
     id="g3414"
     transform="matrix(1.3333333,0,0,-1.3333333,0,682.66667)"><g
       id="g3416"><g
         id="g3418"
         clip-path="url(#clipPath3422)"><g
           id="g3424"
           transform="translate(472.6348,7.5)"><path
             d="m 0,0 h -433.27 c -17.279,0 -30.986,14.56 -29.945,31.808 l 13.08,216.692 h 467 L 29.945,31.808 C 30.986,14.56 17.279,0 0,0"
             style="fill:#eaf6ff;fill-opacity:1;fill-rule:nonzero;stroke:none"
             id="path3426" /></g><g
           id="g3428"
           transform="translate(502.5801,39.3076)"><path
             d="m 0,0 -13.08,216.692 h -30 L -30,0 c 1.041,-17.248 -12.666,-31.808 -29.945,-31.808 h 30 C -12.666,-31.808 1.041,-17.248 0,0"
             style="fill:#d8ecfe;fill-opacity:1;fill-rule:nonzero;stroke:none"
             id="path3430" /></g><g
           id="g3432"
           transform="translate(472.6348,504.5)"><path
             d="m 0,0 h -433.27 c -17.279,0 -30.986,-14.56 -29.945,-31.808 l 13.08,-216.692 h 467 l 13.08,216.692 C 30.986,-14.56 17.279,0 0,0"
             style="fill:#d8ecfe;fill-opacity:1;fill-rule:nonzero;stroke:none"
             id="path3434" /></g><g
           id="g3436"
           transform="translate(472.6348,504.5)"><path
             d="M 0,0 H -30 C -12.721,0 0.986,-14.56 -0.055,-31.808 L -13.135,-248.5 h 30 l 13.08,216.692 C 30.986,-14.56 17.279,0 0,0"
             style="fill:#c4e2ff;fill-opacity:1;fill-rule:nonzero;stroke:none"
             id="path3438" /></g><g
           id="g3440"
           transform="translate(175.8525,142.8447)"><path
             d="m 0,0 h -118.38 v 47.969 c 0,14.128 11.454,25.581 25.582,25.581 h 67.217 C -11.453,73.55 0,62.097 0,47.969 Z"
             style="fill:#355f7f;fill-opacity:1;fill-rule:nonzero;stroke:none"
             id="path3442" /></g><g
           id="g3444"
           transform="translate(150.2715,216.395)"><path
             d="m 0,0 h -30 c 14.128,0 25.581,-11.453 25.581,-25.582 V -73.55 h 30 v 47.968 C 25.581,-11.453 14.128,0 0,0"
             style="fill:#305972;fill-opacity:1;fill-rule:nonzero;stroke:none"
             id="path3446" /></g><g
           id="g3448"
           transform="translate(57.4727,148.0156)"><path
             d="m 0,0 v -41.721 c 0,-32.69 26.501,-59.19 59.19,-59.19 32.69,0 59.19,26.5 59.19,59.19 V 0 L 89.634,12.483 c -8.133,3.532 -17.185,4.354 -25.821,2.348 z"
             style="fill:#ffcebf;fill-opacity:1;fill-rule:nonzero;stroke:none"
             id="path3450" /></g><g
           id="g3452"
           transform="translate(145.8525,161.0176)"><path
             d="m 0,0 v -54.723 c 0,-27.506 -18.765,-50.626 -44.189,-57.267 4.791,-1.252 9.816,-1.923 15,-1.923 32.689,0 59.189,26.5 59.189,59.19 v 41.721 z"
             style="fill:#ffb09e;fill-opacity:1;fill-rule:nonzero;stroke:none"
             id="path3454" /></g><g
           id="g3456"
           transform="translate(448.0928,349.6572)"><path
             d="m 0,0 c 4.143,0 7.5,3.358 7.5,7.5 v 38.686 h 5.305 c 4.142,0 7.5,3.357 7.5,7.5 0,4.142 -3.358,7.5 -7.5,7.5 h -25.507 c -4.143,0 -7.5,-3.358 -7.5,-7.5 0,-4.143 3.357,-7.5 7.5,-7.5 H -7.5 V 7.5 C -7.5,3.358 -4.143,0 0,0 m -337.943,26.341 3.082,8.093 3.053,-8.093 z m 28.279,-16.193 -17.186,45.537 c -0.025,0.068 -0.051,0.135 -0.079,0.202 -1.322,3.219 -4.425,5.299 -7.905,5.299 h -0.007 c -3.482,-0.003 -6.585,-2.088 -7.903,-5.312 -0.024,-0.057 -0.046,-0.113 -0.068,-0.17 l -17.342,-45.535 c -1.475,-3.871 0.468,-8.204 4.339,-9.678 3.779,-1.439 8.191,0.418 9.678,4.34 l 2.48,6.51 h 17.511 l 2.449,-6.489 c 1.462,-3.876 5.79,-5.833 9.665,-4.369 3.875,1.463 5.831,5.79 4.368,9.665 m 29.924,-168.992 v -31.364 l -18.259,7.929 c -9.54,4.143 -20.375,5.129 -30.506,2.773 l -54.615,-12.693 v 33.355 c 0,9.97 8.111,18.082 18.082,18.082 h 67.217 c 9.969,0 18.081,-8.112 18.081,-18.082 m 0,-84.518 c 0,-28.502 -23.188,-51.69 -51.69,-51.69 -28.502,0 -51.69,23.188 -51.69,51.69 v 35.763 l 58.011,13.483 c 7.019,1.632 14.525,0.949 21.135,-1.922 l 24.234,-10.524 z m -118.38,84.518 v -84.518 c 0,-36.773 29.917,-66.69 66.69,-66.69 36.773,0 66.69,29.917 66.69,66.69 v 84.518 c 0,18.241 -14.84,33.082 -33.081,33.082 h -67.217 c -18.241,0 -33.082,-14.841 -33.082,-33.082 m 227.144,205.03 c 3.138,0 5.789,-2.535 5.789,-5.534 0,-3 -2.651,-5.534 -5.789,-5.534 -1.277,0 -3.272,-0.007 -5.31,-0.016 -0.01,2.13 -0.023,8.843 -0.028,11.084 z M -176.336,7.5 v 12.601 c 2.054,0.01 4.074,0.017 5.36,0.017 11.463,0 20.789,9.212 20.789,20.534 0,11.322 -9.326,20.534 -20.789,20.534 h -12.86 c -3.69,0.076 -7.649,-3.262 -7.5,-7.5 V 7.5 c 0,-4.142 3.357,-7.5 7.5,-7.5 4.143,0 7.5,3.358 7.5,7.5 m -202.005,33.152 c 0,-3 -2.651,-5.534 -5.789,-5.534 -1.277,0 -3.272,-0.007 -5.31,-0.016 -0.01,2.13 -0.023,8.843 -0.029,11.084 h 5.339 c 3.138,0 5.789,-2.535 5.789,-5.534 m -18.649,20.534 c -3.688,0.085 -7.656,-3.279 -7.5,-7.5 V 7.5 c 0,-4.142 3.357,-7.5 7.5,-7.5 4.142,0 7.5,3.358 7.5,7.5 v 12.601 c 2.053,0.01 4.074,0.017 5.36,0.017 11.463,0 20.789,9.212 20.789,20.534 0,11.322 -9.326,20.534 -20.789,20.534 z M -48.109,37.179 c -1.148,0 -2.904,-0.006 -4.73,-0.013 -0.008,1.751 -0.017,7.175 -0.021,9.02 h 4.751 c 2.76,0 5.181,-2.104 5.181,-4.503 0,-2.399 -2.421,-4.504 -5.181,-4.504 m 20.181,4.504 c 0,10.754 -9.053,19.503 -20.181,19.503 h -12.274 c -0.003,0 -0.005,-10e-4 -0.007,-10e-4 -0.003,0 -0.006,10e-4 -0.007,10e-4 -4.143,0 -7.5,-3.358 -7.5,-7.5 V 7.5 c 0,-4.142 3.357,-7.5 7.5,-7.5 4.142,0 7.5,3.358 7.5,7.5 v 8.498 L -41.058,2.545 C -39.575,0.86 -37.505,0 -35.425,0 c 1.76,0 3.528,0.616 4.952,1.87 3.11,2.736 3.411,7.476 0.675,10.585 l -10.07,11.442 c 7.027,3.054 11.94,9.87 11.94,17.786 M -222.456,15 c -4.111,0 -8.05,1.639 -10.538,4.383 -2.78,3.069 -7.525,3.301 -10.594,0.52 -3.068,-2.781 -3.302,-7.525 -0.519,-10.593 5.362,-5.917 13.253,-9.31 21.651,-9.31 10.571,0 19.459,6.81 21.135,16.191 1.272,7.128 -1.876,16.407 -14.529,21.074 -5.365,1.979 -10.379,4.127 -12.227,4.933 -1.277,1.394 0.417,3.075 2.095,3.581 5.572,1.679 10.913,-2.46 11.123,-2.625 3.171,-2.619 7.865,-2.196 10.515,0.957 2.665,3.171 2.256,7.902 -0.915,10.568 -4.232,3.556 -14.272,8.711 -25.05,5.462 -7.026,-2.117 -12.002,-7.682 -12.983,-14.523 -0.928,-6.461 1.875,-12.678 7.314,-16.223 2.637,-1.719 5.769,-2.821 14.937,-6.203 2.48,-0.915 5.267,-2.607 4.953,-4.364 -0.276,-1.544 -2.49,-3.828 -6.368,-3.828 m 97.444,15.593 c 0,8.597 6.995,15.593 15.593,15.593 8.598,0 15.593,-6.996 15.593,-15.593 0,-8.598 -6.995,-15.593 -15.593,-15.593 -8.598,0 -15.593,6.995 -15.593,15.593 m 46.186,0 c 0,16.869 -13.724,30.593 -30.593,30.593 -16.869,0 -30.593,-13.724 -30.593,-30.593 0,-16.869 13.724,-30.593 30.593,-30.593 16.869,0 30.593,13.724 30.593,30.593 M -277.599,15 c -4.111,0 -8.049,1.638 -10.536,4.382 -2.782,3.07 -7.524,3.304 -10.594,0.522 -3.069,-2.781 -3.302,-7.524 -0.521,-10.594 5.361,-5.916 13.253,-9.31 21.651,-9.31 10.572,0 19.46,6.81 21.135,16.192 1.273,7.127 -1.876,16.406 -14.528,21.073 -5.364,1.979 -10.379,4.127 -12.227,4.933 -1.276,1.394 0.417,3.075 2.095,3.581 5.577,1.68 10.924,-2.469 11.124,-2.626 3.169,-2.618 7.864,-2.195 10.515,0.959 2.665,3.171 2.255,7.902 -0.915,10.567 -4.233,3.557 -14.273,8.709 -25.05,5.462 -7.027,-2.117 -12.002,-7.682 -12.984,-14.523 -0.927,-6.461 1.875,-12.678 7.315,-16.223 2.634,-1.717 5.769,-2.823 14.935,-6.203 2.482,-0.915 5.267,-2.607 4.954,-4.364 C -271.506,17.284 -273.721,15 -277.599,15 M 3.907,-223.262 c 0,4.142 -3.357,7.5 -7.5,7.5 h -188.674 c -4.142,0 -7.5,-3.358 -7.5,-7.5 0,-4.142 3.358,-7.5 7.5,-7.5 H -3.593 c 4.143,0 7.5,3.358 7.5,7.5 m -136.637,-39.644 c 1.836,0.484 3.828,-0.202 5.656,-1.335 2.269,-1.405 3.936,-3.516 4.349,-5.509 0.83,-4.004 -5.173,-9.464 -8.766,-12.708 -3.884,2.819 -6.572,5.883 -7.054,8.869 -0.647,4.02 2.504,9.811 5.815,10.683 m -42.423,-39.804 c 0.087,-4.142 3.549,-7.421 7.656,-7.341 10.435,0.22 24.276,2.243 36.818,9.678 5.172,-2.585 10.714,-4.644 16.058,-6.144 9.017,-2.531 16.896,-3.592 23.643,-3.592 13.539,0 22.522,4.271 26.998,9.51 2.913,3.41 4.293,7.306 5.172,10.672 1.241,-1.765 2.8,-4.245 4.695,-7.712 1.986,-3.635 6.542,-4.973 10.177,-2.986 3.635,1.986 4.972,6.542 2.987,10.177 -5.842,10.693 -13.075,21.335 -22.486,19.192 -6.835,-1.556 -8.326,-8.126 -9.313,-12.473 -0.613,-2.705 -1.249,-5.501 -2.637,-7.126 -3.758,-4.399 -17.945,-6.058 -35.182,-1.22 -2.282,0.64 -4.611,1.414 -6.901,2.295 5.103,5.165 11.489,13.136 9.431,23.073 -1.257,6.067 -5.317,11.614 -11.141,15.22 -5.519,3.418 -11.85,4.541 -17.377,3.086 -9.637,-2.54 -18.907,-14.489 -16.799,-27.574 0.893,-5.543 4.013,-10.468 8.448,-14.722 -8.003,-3.217 -16.287,-4.217 -22.907,-4.357 -4.142,-0.087 -7.428,-3.515 -7.34,-7.656 m 171.56,131.948 h -188.674 c -4.142,0 -7.5,-3.358 -7.5,-7.5 0,-4.142 3.358,-7.5 7.5,-7.5 H -3.593 c 4.143,0 7.5,3.358 7.5,7.5 0,4.142 -3.357,7.5 -7.5,7.5 m 61.521,-72.106 c -0.25,4.134 -3.789,7.294 -7.939,7.035 -4.135,-0.25 -7.284,-3.804 -7.034,-7.938 l 4.046,-67.03 c 0.378,-6.257 -1.78,-12.216 -6.077,-16.78 -4.296,-4.563 -10.114,-7.076 -16.382,-7.076 h -433.27 c -6.267,0 -12.085,2.513 -16.381,7.076 -4.297,4.564 -6.455,10.523 -6.078,16.78 l 12.655,209.644 h 90.192 c 4.143,0 7.5,3.358 7.5,7.5 0,4.142 -3.357,7.5 -7.5,7.5 h -90.192 l -12.655,209.644 c -0.377,6.257 1.781,12.216 6.078,16.779 4.296,4.564 10.114,7.077 16.381,7.077 h 433.27 c 6.268,0 12.086,-2.513 16.382,-7.077 4.297,-4.563 6.455,-10.522 6.077,-16.779 L 34.347,-86.157 H -293.34 c -4.142,0 -7.5,-3.358 -7.5,-7.5 0,-4.142 3.358,-7.5 7.5,-7.5 H 34.347 l 6.49,-107.527 c 0.24,-3.981 3.544,-7.048 7.479,-7.048 0.152,0 0.305,0.004 0.459,0.014 4.135,0.249 7.285,3.803 7.035,7.938 l -6.889,114.123 13.053,216.24 c 0.63,10.428 -2.968,20.359 -10.128,27.965 -7.161,7.606 -16.858,11.795 -27.304,11.795 h -433.27 c -10.446,0 -20.142,-4.189 -27.303,-11.795 -7.16,-7.606 -10.758,-17.537 -10.128,-27.965 l 13.053,-216.24 -13.053,-216.241 c -0.63,-10.427 2.968,-20.359 10.128,-27.965 7.161,-7.605 16.857,-11.794 27.303,-11.794 h 433.27 c 10.446,0 20.143,4.189 27.304,11.794 7.16,7.606 10.758,17.538 10.128,27.965 z m -417.915,27.539 c -4.143,0 -7.5,-3.358 -7.5,-7.5 v -11.423 c 0,-4.142 3.357,-7.5 7.5,-7.5 4.142,0 7.5,3.358 7.5,7.5 v 11.423 c 0,4.142 -3.358,7.5 -7.5,7.5 m 36.374,-45.81 c -1.706,-0.936 -4.484,-2.039 -7.988,-2.006 -3.361,0.036 -6.012,1.11 -7.644,2.006 -3.632,1.993 -8.191,0.664 -10.183,-2.968 -1.992,-3.632 -0.664,-8.191 2.968,-10.184 4.498,-2.467 9.582,-3.799 14.702,-3.853 6.537,-0.067 12.135,2.085 15.358,3.853 3.631,1.992 4.961,6.55 2.969,10.183 -1.992,3.631 -6.549,4.961 -10.182,2.969 m 320.02,135.377 h -188.674 c -4.142,0 -7.5,-3.358 -7.5,-7.5 0,-4.142 3.358,-7.5 7.5,-7.5 H -3.593 c 4.143,0 7.5,3.358 7.5,7.5 0,4.142 -3.357,7.5 -7.5,7.5 m -306.779,-97.067 v -11.423 c 0,-4.142 3.357,-7.5 7.5,-7.5 4.143,0 7.5,3.358 7.5,7.5 v 11.423 c 0,4.142 -3.357,7.5 -7.5,7.5 -4.143,0 -7.5,-3.358 -7.5,-7.5"
             style="fill:#000000;fill-opacity:1;fill-rule:nonzero;stroke:none"
             id="path3458" /></g></g></g></g></svg>
