<svg xmlns="http://www.w3.org/2000/svg" width="1028" height="1028" viewBox="0 0 1028 1028"><path fill="#4f3586" d="M800.44 341.59c-13.389.073-10.27-10.57-11.252-19.61-4.016-36.99-32.65-69.574-69.625-76.16-7.08-1.259-27.318 1.37-24.056-10.808 3.253-12.338 74.595 2.801 92.838-74.174 1.716-7.237-.559-18.907 6.27-22.797 10.854-.398 9.15 10.082 10.368 18.122 6.249 41.327 43.33 73.004 85.047 73.157 11.838.825 17.508 12.527-7.338 14.589-37.338 3.096-69.665 34.255-75.982 70.904-1.189 6.894-1.102 14.09-2.371 21.07-1.261 2.533-1.713 3.816-3.9 5.708m47.86-108.082c-21.873-11.49-42.066-28.996-50.784-52.762-14.657 24.96-28.587 46.906-59.292 55.615 19.447 8.977 31.307 16.826 45.039 34.559 3.379 4.365 7.226 12.298 11.352 15.705.745 2.915 1.608 6.887 2.901 9.475l2.924-7.833c1.803-1.869 7.107-11.613 9-14.402 11.325-16.657 21.84-24.541 38.86-34.006l6.804-3.498c-2.393-.85-4.491-1.82-6.804-2.853"/><path fill="#faddd0" d="M848.3 233.508c-2.813 1.599-4.215 5.4 0 6.351-17.02 9.465-27.535 17.35-38.86 34.006-1.893 2.79-7.197 12.533-9 14.402-3.253-.206-2.757-2.076-5.825-1.642-4.126-3.407-7.973-11.34-11.352-15.705-13.732-17.733-25.592-25.582-45.04-34.559 30.706-8.71 44.636-30.655 59.293-55.615 8.718 23.766 28.91 41.272 50.784 52.762"/><path fill="#4f3586" d="M196.573 341.59c-8.604 1.01-9.385-7.707-11.298-14.273-13.403-46.697-60.497-32.133-58.206-48.802 1.17-8.517 39.217-1.965 56.761-41.194 2.648-5.92 2.853-17.532 7.764-21.32 20.272-1.41 2.166 44.408 54.83 56.383 4.78 1.086 18.328-.049 15.744 9.806-3.078 9.87-47.447-.691-60.299 52.602-.839 3.486-2.088 5.168-5.296 6.799m2.047-35.8c10.28-13.455 13.945-18.057 29.38-25.586-17.847-8.953-24.344-15.691-33.463-33.316-8.872 15.661-17.267 25.357-33.619 33.316 16.353 9.509 19.657 12.274 30.676 28.025.396 1.162 2.3 4.736 2.943 6.02 1.206-2.73 2.762-5.753 4.083-8.46"/><path fill="#faddd0" d="M228 280.204c-15.435 7.53-19.1 12.131-29.38 25.585-1.32 2.707-2.877 5.73-4.083 8.46-.644-1.284-2.547-4.858-2.943-6.02-11.02-15.751-14.323-18.516-30.676-28.025 16.352-7.959 24.747-17.655 33.62-33.316 9.118 17.625 15.615 24.363 33.463 33.316"/><path fill="#4f3586" d="M253.099 450.757c4.798-14.394 7.4-32.351 10.908-47.312 4.618-19.696 10.655-54.305 17.315-72.082 17.282-46.121 56.763-48.804 97.313-48.792l282.463.022c87.863-3.696 87.646 62.997 104.38 129.498 3.433 13.645 5.927 28.68 10.396 41.977 2.514-11.547 6.907-31.904 21.612-32.105 13.02-.176 78.345-2.14 86.183 1.297 13.732 6.397 11.778 18.812 12.14 30.523.789 25.541.622 33.266-25.849 39.56-16.717 3.975-36.695 11.085-53.378 16.665 52.16 42.622 67.19 72.448 67.26 140.275l.038 83.116c.022 33.627.896 46.68-32.926 62.216l.066 33.982c.046 26.668-3.71 58.371-39.88 58.41-23.129.025-46.4-.063-69.54-.043-24.135 1.343-46.446-15.816-46.795-41.054-.235-17.056.624-34.257.14-51.295-8.927-.689-23.959-.02-33.512-.01l-288.065.01h-40.096l.037 30.278c.022 56.576-14.334 62.067-67.802 62.09l-40.68-.033c-41.838-.325-46.807-26.969-46.845-61.859l.04-30.476c-30.41-11.716-33.93-28.087-33.955-58.608l.004-77.333c.047-63.686 9.67-111.97 67.34-151.622-13.242-4.313-31.966-8.99-44.802-12.298-30.198-7.778-33.683-10.697-32.962-42.437.523-23.031 3-32.103 29.692-31.599 21.33.402 42.225-.554 63.507.306 15.848.847 22.098 16.452 26.253 28.733m-61.505 344.858v20.08l-.044 18.2c-.023 39.296 13.785 40.938 49.14 40.974l36.904-.004c32.352-.044 42.308-7.545 42.26-41.024l-.056-18.146v-20.08c-3.83-.34-9.748-.048-13.752-.03zm516.71 0v34.14c-.358 40.085 9.45 45.012 47.568 45.098l35.653-.01c39.568-.133 46.145-8.322 45.676-45.087.377-10.5.014-23.464 0-34.141-3.534-.336-10.584-.089-14.358-.064zM351.19 296.1c-54.843 4.734-58.855 46.655-68.882 89.578l-11.473 50.477c-3.686 15.683-7.836 31.613-11.179 47.332 8.658-.002 17.61-.127 26.242 0 9.479-35.247 16.888-70.812 25.786-106.18 12.738-50.624 9.923-54.859 63.624-54.708l294.174-.046c3.074-.026 9.463-.324 12.238.072 24.75 11.597 24.652 18.508 30.86 43.565l29.07 115.327c11.098-1.016 18.216-1.307 28.373 4.024-3.443-15.378-7.858-30.318-11.836-45.505l-13.908-54.902c-9.31-36.098-11.444-74.279-52.912-86.812-13.976-4.222-30.24-2.25-44.65-2.23zm0 39.783c-11.388 1.67-16.978 6.382-19.765 17.361-5.967 23.507-11.107 47.188-16.55 70.811l-10.497 44.06c-3.172 13.143-9.26 20.13 8.276 20.146l365.811.002 25.772.062c9.662.065 14.794 1.169 23.968-2.784-5.59-25.871-13.05-51.5-19.476-77.205l-9.082-36.257c-11.603-45.79-19.558-36.194-63.78-36.196zm-198.728 99.292c-7.431 4.953-10.607 39.993 2.496 42.84 22.13 4.805 51.15 16.505 73.043 18.964 3.425-1.365 5.764-2.307 9.007-4.032 3.869-1.903 6.584-3.166 10.595-4.684l-6.602-27.246c-7.645-31.203-9.715-25.76-39.24-25.8zm647.978 0c-9.955 3.714-19.546 44.766-20.474 54.514 6.9 3.47 13.67 6.889 20.474 10.54 15.636-5 32.016-10.388 47.86-14.688 32.29-9.644 40.013-6.08 33.179-46.262-1.058-6.22-70.75-4.54-81.04-4.104m-55.187 59.899c-21.524 3.182-21.154 7.009-46.531 6.9l-314.295-.024c-18.807.003-77.397 3.785-91.166-4.97-4.432.05-26.748-.601-29.505.23-59.345 17.892-104.778 71.346-105.785 134.537-.125 7.877-.095 15.703-.094 23.566l.028 44.102 101.886.01c38.198-.185 19.682 14.39 15.06 13.669l-116.946-.11c-.093 56.335-8.461 68.823 58.055 68.825l59.36-.022 550.615-.004c12.822-.006 25.888 1.89 35.853-8.007 12.42-12.34 8.3-43.967 8.256-60.793l-99.085-.016c-33.743.038-22.455-13.793-13.916-13.619 37.53.773 75.52-.753 113.001.067l.022-45.174c-.006-66.71-18.216-114.817-83.894-146.13-12.63-6.024-26.101-15.304-40.92-13.037"/><path fill="#dac9ff" d="M259.656 483.487c3.343-15.72 7.493-31.65 11.18-47.332l11.472-50.477c10.027-42.923 14.039-84.844 68.882-89.578l295.528-.008c14.41-.02 30.673-1.992 44.65 2.23 41.467 12.533 43.6 50.714 52.911 86.812l13.908 54.902c3.978 15.187 8.393 30.127 11.836 45.505-10.157-5.331-17.275-5.04-28.372-4.024L712.58 366.19c-6.208-25.057-6.11-31.968-30.86-43.565-2.775-.396-9.164-.098-12.238-.072l-294.174.046c-53.701-.15-50.886 4.084-63.624 54.709-8.898 35.367-16.307 70.932-25.786 106.179-8.631-.127-17.584-.002-26.242 0"/><path fill="#fff" d="m678.465 488.263-365.81-.002c-17.537-.016-11.45-7.003-8.277-20.146l10.497-44.06c5.443-23.623 10.583-47.304 16.55-70.81 2.787-10.98 8.377-15.692 19.765-17.362h284.677c44.222.002 52.177-9.594 63.78 36.196l9.082 36.257c6.427 25.704 13.886 51.334 19.476 77.205-9.174 3.953-14.306 2.849-23.968 2.784zm-86.512-127.907c-5.265 3.003-13.001 11.177-17.559 15.604l-27.908 27.47c-2.982 2.927-65.248 54.46-31.836 50.638 2.702-2.319 6.324-6.379 9.113-9.111l57.673-56.821c3.493-3.488 33.775-29.84 10.517-27.78m-77.303 1.53c-4.198 2.774-10.543 9.46-14.394 13.26l-59.026 57.963c-6.583 6.565-6.658 15.185 4.245 14.056 3.785-2.463 8.96-7.854 12.362-11.14l19.492-19c5.24-5.157 68.115-55.655 37.32-55.14"/><path fill="#4f3586" d="M514.65 454.068c-33.412 3.821 28.854-47.711 31.836-50.639l27.908-27.469c4.558-4.427 12.294-12.6 17.559-15.604 23.258-2.06-7.024 24.292-10.517 27.78l-57.673 56.82c-2.789 2.733-6.41 6.793-9.113 9.112"/><path fill="#4f3586" d="M445.475 447.165c-10.903 1.129-10.828-7.49-4.245-14.056l59.026-57.964c3.85-3.799 10.196-10.485 14.394-13.26 30.794-.515-32.08 49.983-37.321 55.14l-19.492 19c-3.401 3.286-8.577 8.677-12.362 11.14"/><path fill="#fff" d="M228 496.98c-21.892-2.46-50.912-14.16-73.042-18.965-13.103-2.847-9.927-37.887-2.496-42.84l49.299.042c29.525.04 31.595-5.403 39.24 25.8l6.602 27.246c-4.011 1.518-6.726 2.781-10.595 4.684-3.243 1.725-5.582 2.667-9.007 4.032"/><path fill="#fff" d="M779.966 489.689c.928-9.748 10.519-50.8 20.474-54.514 10.29-.436 79.98-2.116 81.039 4.104 6.834 40.182-.89 36.618-33.18 46.262-15.843 4.3-32.223 9.687-47.86 14.689-6.804-3.652-13.572-7.072-20.473-10.541"/><path fill="#dac9ff" d="M293.26 496.98c13.77 8.755 72.36 4.973 91.167 4.97l314.295.025c25.377.108 25.007-3.719 46.53-6.901 14.819-2.267 28.29 7.013 40.92 13.036 65.678 31.314 83.888 79.421 83.894 146.13l-.022 45.175c-37.481-.82-75.471.706-113.001-.067-8.54-.174-19.827 13.657 13.916 13.62l99.085.015c.044 16.826 4.165 48.453-8.256 60.793-9.965 9.896-23.031 8.001-35.853 8.007l-550.614.004-59.361.022c-66.516-.002-58.148-12.49-58.055-68.826l116.946.11c4.622.722 23.138-13.853-15.06-13.668l-101.886-.01-.028-44.102c-.001-7.863-.031-15.689.094-23.566 1.007-63.191 46.44-116.645 105.785-134.537 2.757-.831 25.073-.18 29.505-.23m-30.351 57.155c-32.238 4.394-54.814 34.087-50.424 66.324 4.387 32.238 34.076 54.818 66.315 50.435 32.246-4.385 54.83-34.08 50.44-66.326-4.388-32.246-34.088-54.826-66.331-50.433m487.189.665c-31.999 4.636-54.2 34.314-49.607 66.32 4.592 32.007 34.239 54.245 66.251 49.7 32.075-4.558 54.368-34.276 49.768-66.345s-34.35-54.319-66.412-49.675m-327.916 40.09c-33.97 4.226-31.322 52.177.884 53.765 11.713.578 23.879.32 35.658.321l123.979.006c5.814.002 20.262.486 25.19-.01 28.926-9.99 31.36-41.967 6.392-52.69-7.065-3.036-37.524-1.416-46.067-1.414l-119.555.006c-7.878-.01-18.952-.398-26.48.016m241.44 72.406c-95.022 11.113-190.706 10.56-285.927 2.264-4.985-.433-17.924-2.704-21.644.059-4.042 7.025-3.245 69.285-1.841 74.943.707 2.847 2.369 4.367 4.935 5.516l271.59.006c11.802-.002 24.104.132 35.932-.21 9.308-.268 8.41-7.542 8.409-15.008-.002-19.09.046-38.238.02-57.333 0-8.993-2.247-11.815-11.475-10.237"/><path fill="#4f3586" d="M278.8 670.894c-32.239 4.383-61.928-18.197-66.315-50.435-4.39-32.237 18.186-61.93 50.424-66.324 32.243-4.393 61.943 18.187 66.332 50.433s-18.195 61.94-50.44 66.326m-13.853-103.212c-24.652 3.213-42.064 25.756-38.942 50.42 3.124 24.664 25.606 42.158 50.282 39.124 24.8-3.051 42.4-25.671 39.262-50.462-3.14-24.788-25.824-42.308-50.602-39.082"/><path fill="#4f3586" d="M766.742 670.82c-32.012 4.545-61.66-17.693-66.251-49.7-4.592-32.006 17.608-61.684 49.607-66.32 32.062-4.644 61.812 17.607 66.412 49.675 4.6 32.069-17.693 61.787-49.768 66.344m-10.436-103.214c-24.849 1.28-43.975 22.43-42.76 47.282 1.216 24.854 22.314 44.035 47.171 42.885 24.95-1.155 44.218-22.35 42.997-47.294-1.22-24.945-22.465-44.158-47.408-42.873"/><path fill="#fff" d="M276.287 657.226c-24.676 3.034-47.158-14.46-50.282-39.124-3.122-24.664 14.29-47.207 38.942-50.42 24.778-3.226 47.462 14.294 50.602 39.082 3.139 24.79-14.462 47.41-39.262 50.462m-8.22-75.648a30.88 30.88 0 1 0 5.762 61.487c16.838-1.756 29.121-16.74 27.543-33.594-1.58-16.856-16.436-29.296-33.305-27.893"/><path fill="#fff" d="M760.717 657.773c-24.857 1.15-45.955-18.03-47.171-42.885-1.215-24.853 17.911-46.001 42.76-47.282 24.943-1.285 46.188 17.928 47.408 42.873 1.221 24.945-18.048 46.14-42.997 47.294m-5.843-78.166c-18.068 2.102-31.038 18.413-29.015 36.492s18.28 31.119 36.366 29.173c18.197-1.96 31.334-18.335 29.298-36.524-2.036-18.187-18.468-31.254-36.649-29.141"/><path fill="#dac9ff" d="M762.225 645.272c-18.086 1.946-34.344-11.095-36.366-29.173-2.023-18.079 10.947-34.39 29.015-36.492 18.181-2.113 34.613 10.954 36.649 29.14 2.036 18.19-11.101 34.565-29.298 36.525"/><path fill="#dac9ff" d="M273.83 643.065a30.88 30.88 0 1 1-5.763-61.487c16.87-1.403 31.725 11.037 33.305 27.893 1.578 16.853-10.705 31.838-27.543 33.594"/><path fill="#4f3586" d="M607.893 648.972c-4.928.496-19.376.012-25.19.01l-123.979-.006c-11.78-.002-23.945.257-35.658-.32-32.206-1.589-34.854-49.54-.884-53.766 7.53-.414 18.603-.026 26.481-.016l119.555-.006c8.543-.002 39.002-1.622 46.067 1.413 24.968 10.724 22.534 42.7-6.392 52.691m-182.161-40.224c-19.96.863-18.072 25.49-.175 26.258 7.785.333 15.218.311 22.944.313l154.972-.004c13.394-1.652 18.954-15.159 8.074-24.264-3.99-3.34-22.132-2.311-28.611-2.311z"/><path fill="#fff" d="m603.473 635.315-154.972.004c-7.726-.002-15.16.02-22.944-.313-17.897-.769-19.785-25.395.175-26.258l157.204-.008c6.479 0 24.621-1.028 28.61 2.31 10.881 9.106 5.321 22.613-8.073 24.265"/><path fill="#4f3586" d="M359.145 750.078c-2.566-1.149-4.228-2.669-4.935-5.516-1.404-5.658-2.2-67.918 1.841-74.943 3.72-2.763 16.659-.492 21.644-.059 95.22 8.297 190.905 8.849 285.926-2.264 9.228-1.578 11.475 1.244 11.475 10.237.026 19.095-.022 38.243-.02 57.333.002 7.466.9 14.74-8.409 15.009-11.828.341-24.13.207-35.932.209zm297.325-67.003c-11.672.042-24.209 1.781-35.936 2.658-89.731 6.712-165.34.61-253.22-2.658v52.938c31.53.729 65.905 0 97.719 0h196.065c.002-6.017.706-51.966-.773-53.538-1.96.014-2.038.098-3.855.6"/><path fill="#fff" d="M367.315 683.075c87.88 3.269 163.488 9.37 253.219 2.658 11.727-.877 24.264-2.616 35.936-2.658 1.817-.502 1.895-.586 3.855-.6 1.48 1.572.775 47.52.773 53.538H465.033c-31.814 0-66.19.729-97.718 0z"/><path fill="#9b90a7" d="M191.594 815.695v-20.08l114.452-.03c4.004-.018 9.921-.31 13.752.03v20.08c-42.305 0-86.013.592-128.204 0"/><path fill="#9b90a7" d="M708.303 829.756v-34.141l114.54-.064c3.774-.025 10.824-.272 14.358.064.014 10.677.377 23.642 0 34.14-.615-4.939-.267-9.135 0-14.06H708.303c.241 4.618.442 9.467 0 14.06"/><path fill="#b0abba" d="M191.594 815.695c42.191.592 85.9 0 128.204 0l.056 18.146c.048 33.479-9.908 40.98-42.26 41.024l-36.904.004c-35.355-.036-49.163-1.678-49.14-40.973z"/><path fill="#b0abba" d="M708.303 829.756c.442-4.594.241-9.443 0-14.061h128.898c-.267 4.925-.615 9.121 0 14.06.47 36.766-6.108 44.955-45.676 45.088l-35.653.01c-38.118-.086-47.926-5.013-47.569-45.097"/></svg>