<?xml version="1.0" encoding="iso-8859-1"?>
<!-- Generator: Adobe Illustrator 27.0.0, SVG Export Plug-In . SVG Version: 6.00 Build 0)  -->
<svg version="1.1" id="Layer_1" xmlns="http://www.w3.org/2000/svg" xmlns:xlink="http://www.w3.org/1999/xlink" x="0px" y="0px"
	 width="90px" height="90px" viewBox="0 0 90 90" enable-background="new 0 0 90 90" xml:space="preserve">
<g>
	<path fill="#339933" d="M25.7,43.1h5.8L37,32.8c1-1.8,2.2-3.4,5.4-3.5h9.1l2.5-4.8h-7.6h-3.6c-5.2,0-8.5,2.3-10.3,5.8l-1.3,2.5
		L25.7,43.1z"/>
	<path fill="#339933" d="M46.7,33.8c0-1.6-1.3-2.8-2.8-2.8S41,32.3,41,33.8s1.3,2.8,2.8,2.8C45.4,36.7,46.7,35.4,46.7,33.8z"/>
	<polygon fill="#339933" points="29.7,31.4 23.9,31.4 17.8,43.1 23.6,43.1 	"/>
	<polygon fill="#339933" points="63.7,36.3 69.8,24.5 64.1,24.5 58,36.3 	"/>
	<path fill="#339933" d="M59,37.5c-1.6,0-2.8,1.3-2.8,2.8s1.3,2.8,2.8,2.8s2.8-1.3,2.8-2.8S60.5,37.5,59,37.5z"/>
	<path fill="#339933" d="M43.8,67.7c9.3,0,17.8-3.8,23.9-9.9s9.9-14.6,9.9-23.9S73.9,16,67.7,9.9C61.6,3.8,53.2,0,43.8,0
		S26,3.8,19.9,9.9S10,24.5,10,33.8s3.8,17.8,9.9,23.9C26,63.9,34.5,67.7,43.8,67.7z M22.5,12.5c5.5-5.5,13-8.8,21.4-8.8
		S59.7,7,65.2,12.5s8.8,13,8.8,21.4s-3.4,15.9-8.8,21.3S52.2,64,43.8,64s-15.9-3.4-21.4-8.8s-8.8-13-8.8-21.4
		C13.6,25.5,17,18,22.5,12.5z"/>
	<path fill="#339933" d="M45.3,38.3h-9.1l-2.5,4.8h7.6h3.6c5.2,0,8.5-2.3,10.3-5.8l1.3-2.5l5.3-10.3h-5.8l-5.4,10.3
		C49.7,36.7,48.5,38.2,45.3,38.3z"/>
	<path fill="#339933" d="M28.6,30.2c1.6,0,2.8-1.3,2.8-2.8s-1.3-2.8-2.8-2.8s-2.8,1.3-2.8,2.8C25.8,28.9,27.1,30.2,28.6,30.2z"/>
	<path fill="#339933" d="M11.8,87.6l3.3-1.5c0-3.6,0-7.1,0-10.7l-3.3,1.5C11.8,80.4,11.8,84,11.8,87.6z"/>
	<path fill="#339933" d="M36,83.7l3.3-1.5c0-3.5,0-7.4,0-10.9L36,72.7C36,76.3,36,80.2,36,83.7z"/>
	<path fill="#339933" d="M61.3,86.4c-1,0-1.8,0.8-1.8,1.8s0.8,1.8,1.8,1.8s1.8-0.8,1.8-1.8S62.3,86.4,61.3,86.4z"/>
	<path fill="#339933" d="M65.2,86.3c-1,0-1.8,0.8-1.8,1.8s0.8,1.8,1.8,1.8s1.8-0.8,1.8-1.8S66.2,86.3,65.2,86.3z"/>
	<path fill="#339933" d="M29.9,80.1c0,0.8-0.5,1-1.2,1h-1.5c0-1.9,0-3.8,0-5.7c-1.7,0-3.4,0-5.1,0c-1.4,0-4.3,0.5-4.3,3.1
		c0,3,0,6.1,0,9.1l3.3-1.5c0-2.5,0-5,0-7.4c0-0.8,0.5-1,1.2-1c0.5,0,1,0,1.5,0v5.7H29c1.4,0,4.3-0.5,4.3-3.1c0-3,0-6,0-9l-3.3,1.5
		C29.9,75.2,29.9,77.6,29.9,80.1z"/>
	<path fill="#339933" d="M25.7,85.1c-1,0-1.8,0.8-1.8,1.8s0.8,1.8,1.8,1.8s1.8-0.8,1.8-1.8S26.7,85.1,25.7,85.1z"/>
	<path fill="#339933" d="M71.7,80.1c0,0.8-0.5,1-1.2,1H69v-2.7c0-1.9-1.3-3-3.1-3c-2.7,0-5.2,0-7.8,0c-1.2,0-3.5,0.8-3.5,3v2.7H54
		c-0.8,0-1.2-0.2-1.2-1v-4.7h-5.1c-1.4,0-4.3,0.5-4.3,3.1v5.2l3.3-1.5v-3.6c0-0.8,0.5-1,1.2-1c0.5,0,1,0,1.5,0c0,0.9,0,1.8,0,2.7
		c0,2.3,2.2,3,4,3c2.3,0,4.5,0,6.9,0c0.9,0,3.6-0.6,3.6-3.1v-2.6h0.5c0.8,0,1.2,0.2,1.2,1v4.7c1.7,0,3.4,0,5.1,0
		c1.4,0,4.3-0.5,4.3-3.1V75l-3.3,1.5L71.7,80.1L71.7,80.1z M60.5,80.1c0,0.8-0.4,1-1.1,1h-1.6v-2.5c0-0.7,0.4-1,1.1-1h1.6L60.5,80.1
		L60.5,80.1z"/>
	<path fill="#339933" d="M13.4,70c-1,0-1.8,0.8-1.8,1.8s0.8,1.8,1.8,1.8s1.8-0.8,1.8-1.8S14.4,70,13.4,70z"/>
	<path fill="#339933" d="M72.1,86.3c-1,0-1.8,0.8-1.8,1.8s0.8,1.8,1.8,1.8s1.8-0.8,1.8-1.8S73.1,86.3,72.1,86.3z"/>
</g>
</svg>
