<?xml version="1.0" encoding="iso-8859-1"?>
<!-- Generator: Adobe Illustrator 27.0.0, SVG Export Plug-In . SVG Version: 6.00 Build 0)  -->
<svg version="1.1" id="Layer_1" xmlns="http://www.w3.org/2000/svg" xmlns:xlink="http://www.w3.org/1999/xlink" x="0px" y="0px"
	 width="90px" height="90px" viewBox="0 0 90 90" enable-background="new 0 0 90 90" xml:space="preserve">
<g>
	<ellipse transform="matrix(0.3827 -0.9239 0.9239 0.3827 7.8816 54.8698)" fill="#EB008B" cx="45" cy="21.5" rx="4.8" ry="4.8"/>
	<path fill="#EB008B" d="M37.5,27.3c3.4,4.2,5.3,8.8,5.5,13.8c1.7,0,3.1,0,4.1,0c0.6-6.1,2.4-10.7,5.4-13.8
		C48.3,27.3,43.3,27.3,37.5,27.3z"/>
</g>
<g>
	<path fill="#632673" d="M32,37.1C24.5,13.2,45.9-2.7,67.4,11.2C61.9,3.1,49.7-1.1,40.2,1c-4.5,1-8.5,3.4-11.1,7.3
		C23.8,16.1,24.5,28.4,32,37.1z"/>
	<path fill="#632673" d="M24.9,45.6c8,5,20.3,3.9,28.7-3.9C30.1,50,13.4,29.2,26.5,7.2c-7.9,5.8-11.6,18.2-9.2,27.6
		C18.4,39.2,21,43.1,24.9,45.6z"/>
	<path fill="#632673" d="M36.3,16.3c23.6-8.4,40.3,12.4,27.2,34.5c7.9-5.8,11.6-18.2,9.2-27.6c-1.1-4.5-3.7-8.3-7.7-10.8
		C57,7.3,44.7,8.5,36.3,16.3z"/>
	<path fill="#632673" d="M51.1,56.2c4.4-1.2,8.3-3.8,10.7-7.8c4.9-8.1,3.7-20.4-4.2-28.7c8.6,23.5-12,40.4-34.2,27.5
		C29.3,55.1,41.7,58.6,51.1,56.2z"/>
	<path fill="#632673" d="M63.5,85c-0.2-0.3-0.6-0.6-1.2-1.1c-0.1-0.1-0.3-0.2-0.3-0.2c-0.1-0.1-0.2-0.1-0.3-0.2
		c-0.1,0.2-0.2,0.3-0.3,0.4c-0.3,0.5-0.5,0.9-0.8,1.4c-0.1,0.3-0.4,0.8-0.7,1.4c-0.1,0.2-0.2,0.5-0.4,0.9c0,0.1,0.1,0.3,0.3,0.4
		c0.2,0.2,0.4,0.4,0.6,0.5s0.5,0.4,0.8,0.7c0.3,0.3,0.5,0.4,0.6,0.4c0.1,0,0.3-0.1,0.6-0.3c0.4-0.3,0.7-0.7,0.9-1.2
		c0.2-0.4,0.4-0.8,0.5-1.1c0.1-0.3,0.1-0.6,0.1-0.9C63.9,85.6,63.7,85.3,63.5,85z"/>
	<path fill="#632673" d="M27.5,72c-0.1-0.1-0.3-0.2-0.4-0.2c-0.2-0.1-0.3-0.2-0.5-0.2c-0.1,0.2-0.2,0.3-0.3,0.4
		c-0.2,0.3-0.5,0.8-0.8,1.4l-1,2.3c0,0.2,0.2,0.4,0.4,0.5s0.5,0.3,0.8,0.5c0,0,0.4,0.3,1,0.8c0.2,0.1,0.3,0.2,0.4,0.2
		c0.3-0.1,0.8-0.6,1.5-1.6c0.3-0.5,0.5-1,0.5-1.5c0-0.2,0-0.4,0-0.5c0-0.3-0.2-0.6-0.4-0.9C28.6,72.8,28.2,72.4,27.5,72z"/>
	<path fill="#632673" d="M68,84.8c-0.2-0.3-0.6-0.6-1.2-1.1c-0.1-0.1-0.3-0.2-0.3-0.2c-0.1-0.1-0.2-0.1-0.3-0.2
		c-0.1,0.2-0.2,0.3-0.3,0.4c-0.3,0.5-0.5,0.9-0.8,1.4c-0.1,0.3-0.4,0.8-0.7,1.4c-0.1,0.2-0.2,0.5-0.4,0.9c0,0.1,0.1,0.3,0.3,0.4
		c0.2,0.2,0.4,0.4,0.6,0.5c0.2,0.2,0.5,0.4,0.8,0.7c0.3,0.3,0.5,0.4,0.6,0.4c0.1,0,0.3-0.1,0.6-0.3c0.4-0.3,0.7-0.7,0.9-1.2
		s0.4-0.8,0.5-1.1c0.1-0.3,0.1-0.6,0.1-0.9C68.4,85.3,68.2,85,68,84.8z"/>
	<path fill="#632673" d="M72.6,77.8c-0.2-0.3-0.6-0.6-1.2-1.1c-0.1-0.1-0.3-0.2-0.3-0.2s-0.2-0.1-0.3-0.2c-0.1,0.2-0.2,0.3-0.3,0.4
		c-0.3,0.5-0.5,0.9-0.8,1.4c-0.1,0.3-0.4,0.8-0.7,1.4c-0.1,0.2-0.2,0.5-0.4,0.9c0,0.1,0.1,0.3,0.3,0.4s0.4,0.4,0.6,0.5
		c0.2,0.2,0.5,0.4,0.8,0.7c0.3,0.3,0.5,0.4,0.6,0.4c0.1,0,0.3-0.1,0.6-0.3c0.4-0.3,0.7-0.7,0.9-1.2c0.2-0.4,0.4-0.8,0.5-1.1
		C73,79.3,73,79,73,78.7C72.9,78.4,72.8,78,72.6,77.8z"/>
	<path fill="#632673" d="M62.6,80.4c0.4-0.5,0.7-0.9,0.9-1c0.3-0.2,0.7-0.3,1.1-0.3c0.1,0,0.4,0.1,0.7,0.2c0.4,0.1,0.6,0.2,0.8,0.2
		c0.2,0,0.4,0,0.5-0.1c0.1,0,0.2-0.1,0.3-0.2c0.1-0.1,0.3-0.3,0.4-0.6c0.4-0.5,0.6-1,0.6-1.4c0-0.2-0.2-0.4-0.5-0.7
		c-0.1-0.1-0.3-0.2-0.5-0.4c-0.2-0.2-0.4-0.3-0.4-0.4c-0.1-0.2-0.2-0.4-0.2-0.6l0,0c0-0.3,0.2-0.6,0.6-0.9c0.4-0.3,0.8-0.5,1.1-0.4
		c0.2,0,0.4,0.1,0.6,0.3c0.2,0.1,0.4,0.2,0.7,0.2c0,0,0,0,0,0v0c0.5,0,1.2-0.5,1.9-1.5c0.2-0.3,0.4-0.6,0.6-1
		c0.1-0.1,0.2-0.4,0.3-0.8c0.2-0.5,0.2-0.8,0-0.9c-0.1,0-0.3,0.1-0.5,0.5c-0.2,0.4-0.4,0.7-0.6,0.9c-0.2,0.2-0.4,0.3-0.7,0.3
		c-0.1,0-0.2,0-0.4-0.1c-0.2-0.1-0.4-0.1-0.5-0.2v0c0,0,0,0,0,0l-0.4,0c-0.5,0-1.1,0.3-1.8,0.8c-0.7,0.5-1.2,1.2-1.7,1.9
		c-0.2,0.3-0.4,0.6-0.5,0.9c-0.2,0.4-0.3,0.8-0.4,1l0,0l-1,1.4c-0.6,0.7-1.1,1.2-1.5,1.5c-0.5,0.3-1,0.5-1.7,0.5
		c-0.1,0-0.3-0.1-0.7-0.2C59,79.1,58.7,79,58.3,79c-0.7,0-1.3,0.2-2,0.6c-0.4,0.2-0.8,0.6-1.4,1.1c-0.4,0.3-0.7,0.6-1,0.9
		c-0.4,0.4-0.9,1-1.5,1.7c-0.1,0.2-0.2,0.4-0.2,0.6s0,0.3,0.1,0.3c0.2,0.1,0.6-0.1,1-0.4c0.4-0.3,0.9-0.6,1.3-0.8s0.9-0.3,1.4-0.3
		c0.2,0,0.6,0.1,1.3,0.4c0.3,0.1,0.6,0.2,0.9,0.2c1.2,0,2.3-0.6,3.3-1.8C61.8,81.4,62.2,80.9,62.6,80.4z"/>
	<path fill="#632673" d="M57.6,62.5c0.6-0.7,1.1-1.4,1.5-2.1c0.4-0.7,0.6-1.4,0.8-2c0.1-0.3,0.1-0.5,0-0.6c0-0.2-0.1-0.2-0.2-0.2
		c-0.1,0-0.2,0.1-0.4,0.3c-0.1,0.1-0.3,0.3-0.4,0.5c-0.6,0.7-1.1,1.3-1.7,1.7c-0.8,0.7-1.8,1.2-3,1.5c-0.7,0.2-1.3,0.3-2,0.3
		c-1.4,0.1-2.2,0.2-2.4,0.3c-0.8,0.2-1.6,0.8-2.5,1.8c-0.8,0.9-1.4,1.8-1.9,2.9c-0.2,0.5-0.4,1-0.5,1.4c-0.1,0.4-0.1,0.7,0,0.8
		c0.2,0.1,0.4-0.1,0.6-0.3c0.2-0.3,0.4-0.6,0.6-0.8c0.3-0.4,0.7-0.7,1.2-0.9c0.5-0.3,1.1-0.5,1.6-0.6c0.6,0,1.1,0,1.6,0
		c0.5,0,1,0,1.3-0.1c1.3-0.4,2.4-0.8,3.2-1.3S56.7,63.5,57.6,62.5z"/>
	<path fill="#632673" d="M46,72.6c-0.1,0.3-0.2,0.6-0.3,0.9l-0.5,1.6c-0.3,1-0.6,1.8-0.8,2.2c-0.2,0.5-0.3,0.8-0.4,0.9
		c-0.4,0.7-0.8,1.3-1.3,1.8c-0.3,0.3-0.8,0.8-1.5,1.4c-0.6,0.4-1.2,0.9-1.8,1.4c-0.6,0.5-1,0.8-1.1,1.1c-0.1,0.1-0.1,0.3-0.1,0.4
		c0,0.1,0.1,0.2,0.3,0.2c0.1,0,0.5-0.1,1-0.2c0.5-0.1,0.9-0.2,1-0.3l1.6-0.7c0.6-0.3,0.9-0.5,1.2-0.7s0.5-0.5,0.7-0.8
		c0.2-0.3,0.5-0.8,0.7-1.4c0.2-0.4,0.4-1,0.7-1.8l0.5-2.1c0.1-0.6,0.3-1.3,0.4-2.1c0.1-0.8,0.2-1.4,0.2-1.7c0-0.1-0.1-0.2-0.2-0.4
		C46.3,72.1,46.1,72.3,46,72.6z"/>
	<path fill="#632673" d="M51.3,67.1c-0.2,0.3-0.3,0.5-0.3,0.7l-1.1,3.3l-0.4,1.4c0,0.8,0,1.8-0.1,2.8c0,1-0.1,2.2-0.3,3.6
		c-0.1,0.4-0.1,1-0.3,1.8c-0.1,0.8-0.3,1.5-0.5,2.3l0.2,0.3c0.1,0,0.3-0.2,0.5-0.4c0.2-0.3,0.4-0.8,0.8-1.6l0.8-2.2
		c0.2-0.7,0.4-1.3,0.5-1.9c0.1-0.6,0.2-1.3,0.2-2.2l0.1-3.9l0-2.5l0.1-1.5c0-0.1-0.1-0.2-0.2-0.3C51.4,67,51.4,67.1,51.3,67.1z"/>
	<path fill="#632673" d="M39.6,79.3c1.1,0,1.9-0.7,2.6-2.1c0.5-1,0.7-2.1,0.7-3.1c0-0.3-0.1-0.6-0.3-1c-0.2-0.3-0.5-0.5-0.9-0.6
		c-0.1,0.3-0.3,0.8-0.5,1.4s-0.3,0.9-0.4,0.9c-0.5,0-0.9-0.2-1.3-0.7c-0.4-0.5-0.6-1.2-0.6-2.1v-0.7l0,0c0-0.3,0-0.9,0.1-1.7
		c0.1-0.8,0.2-1.7,0.3-2.8l0.7-5.3l0.2-1.1c0.1-0.4,0.1-0.6,0-0.7c-0.1,0-0.1,0.1-0.2,0.1c-0.3,0.6-0.6,1.4-1,2.4
		c-0.4,1.1-0.7,1.7-0.7,1.8c-0.2,1.4-0.5,3.5-0.8,6.2c-0.3,2.7-0.5,4.2-0.5,4.6l0,0v0.5c0,0.1,0,0.2,0,0.3c0,0.1,0,0.5,0.1,1.1
		c0.1,0.6,0.3,1.2,0.8,1.8C38.5,78.9,39,79.3,39.6,79.3z"/>
	<path fill="#632673" d="M35.5,67.5c0,0.1-0.2,0.3-0.3,0.6l-0.9,1.7c-0.3,0.7-0.5,1.2-0.6,1.7c-0.1,0.4-0.2,0.9-0.2,1.4L33.4,76
		c0,0.8-0.1,1.4-0.3,1.9c-0.2,0.5-0.4,1.1-0.8,1.6c-0.6,0.9-1.1,1.5-1.5,2c-0.6,0.7-1.4,1.3-2.2,1.7s-1.6,0.8-2.3,0.9
		c-0.7,0.2-1.6,0.2-2.5,0.2c-1.3,0-2.4-0.3-3.3-0.9c-1.2-0.8-1.7-2-1.7-3.7c0-0.7,0.1-1.3,0.3-2c0.1-0.3,0.4-1,0.7-2l1.4-3.1
		c0.1-0.2,0.1-0.5,0.2-0.7c0-0.3,0-0.5,0-0.5c-0.1,0-0.2,0-0.2,0c0,0-0.2,0.3-0.4,0.7c-0.6,1-1.1,2-1.6,3c-0.4,0.8-0.7,1.5-1,2.2
		c-0.3,0.7-0.5,1.6-0.8,2.6c-0.2,1-0.3,2-0.3,2.9c0,1.8,0.5,3.3,1.5,4.4c1,1.1,2.4,1.7,4.2,1.7c1.6,0,3.1-0.4,4.4-1.1
		s2.6-1.8,3.7-3.2c0.8-0.9,1.4-1.9,2-3s1-2.1,1.4-3.1c0.1-0.4,0.3-0.8,0.3-1.1c0.1-0.3,0.2-0.8,0.3-1.4c0.2-1.1,0.4-1.9,0.5-2.6
		c0.1-0.6,0.2-1.4,0.2-2.2l0.2-2.2l0.2-1.5c0-0.2,0-0.4-0.2-0.6C35.6,67.3,35.5,67.4,35.5,67.5z"/>
</g>
</svg>
