<?xml version="1.0" encoding="iso-8859-1"?>
<!-- Generator: Adobe Illustrator 27.0.0, SVG Export Plug-In . SVG Version: 6.00 Build 0)  -->
<svg version="1.1" id="Layer_1" xmlns="http://www.w3.org/2000/svg" xmlns:xlink="http://www.w3.org/1999/xlink" x="0px" y="0px"
	 viewBox="0 0 90 90" enable-background="new 0 0 90 90" xml:space="preserve">
<g>
	<g>
		<path fill-rule="evenodd" clip-rule="evenodd" fill="#0033CC" d="M45,0.2c15.2,0,28,10.7,31.2,25h-10C63.3,16.3,54.9,9.9,45,9.9
			s-18.3,6.4-21.2,15.3h-10C17,10.9,29.8,0.2,45,0.2z"/>
		<rect x="53.1" y="28.3" fill-rule="evenodd" clip-rule="evenodd" fill="#0033CC" width="10" height="18.7"/>
		<rect x="40" y="28.3" fill-rule="evenodd" clip-rule="evenodd" fill="#0033CC" width="10" height="18.7"/>
		<rect x="26.9" y="28.3" fill-rule="evenodd" clip-rule="evenodd" fill="#0033CC" width="10" height="18.7"/>
		<path fill-rule="evenodd" clip-rule="evenodd" fill="#0033CC" d="M76.2,28.3h-10v19.5c0,4.6-3.6,8.3-8.1,8.6l6.2,6.2
			c6.6-0.5,11.9-6.1,11.9-12.8V28.3z"/>
		<path fill-rule="evenodd" clip-rule="evenodd" fill="#0033CC" d="M13.8,28.3h10v19.5c0,4.6,3.6,8.3,8.1,8.6l-6.2,6.2
			c-6.6-0.5-11.9-6.1-11.9-12.8V28.3z"/>
		<g>
			
				<rect x="34.3" y="52" transform="matrix(0.7071 -0.7071 0.7071 0.7071 -28.5211 43.9229)" fill-rule="evenodd" clip-rule="evenodd" fill="#0033CC" width="8.8" height="8.8"/>
			
				<rect x="46.8" y="52" transform="matrix(0.7071 -0.7071 0.7071 0.7071 -24.8653 52.7489)" fill-rule="evenodd" clip-rule="evenodd" fill="#0033CC" width="8.8" height="8.8"/>
		</g>
	</g>
	<g>
		<path fill-rule="evenodd" clip-rule="evenodd" fill="#0033CC" d="M76.2,73.5H73V80c0,0,0.2,1.5-1.6,1.5l1.6,3.3c0,0,3.2-0.4,3.2-4
			V73.5z"/>
		<path fill-rule="evenodd" clip-rule="evenodd" fill="#0033CC" d="M37.7,73.5h-3.2V80c0,0,0.2,1.5-1.6,1.5l1.6,3.3
			c0,0,3.2-0.4,3.2-4V73.5z"/>
		<path fill-rule="evenodd" clip-rule="evenodd" fill="#0033CC" d="M32.9,73.5h-3.2V80c0,0,0.2,1.5-1.6,1.5l1.6,3.3
			c0,0,3.2-0.4,3.2-4V73.5z"/>
		<path fill-rule="evenodd" clip-rule="evenodd" fill="#0033CC" d="M28.2,73.5H25V80c0,0,0.2,1.5-1.6,1.5l1.6,3.3c0,0,3.2-0.4,3.2-4
			V73.5z"/>
		<path fill-rule="evenodd" clip-rule="evenodd" fill="#0033CC" d="M71.5,73.5h-3.2V80c0,0,0.2,1.5-1.6,1.5l1.6,3.3
			c0,0,3.2-0.4,3.2-4V73.5z"/>
		<path fill-rule="evenodd" clip-rule="evenodd" fill="#0033CC" d="M55.5,80.4c0.1,0.5,0.4,1.1,1.6,1.1l-1.6,3.3c0,0-3.2-0.4-3.2-4
			l0-5.1c0-0.8-0.7-0.8-0.7-0.8c-0.8,0-0.8,0.8-0.8,0.8v9.1h-3.2l0-7.9c0-1.9,1.5-3.4,3.4-3.4h1.2c1.9,0,3.4,1.5,3.4,3.4V80.4z"/>
		<path fill-rule="evenodd" clip-rule="evenodd" fill="#0033CC" d="M61.7,74.9h0.4c0.8,0,1.4,0.6,1.4,1.4v5.8c0,0.8-0.6,1.4-1.4,1.4
			h-0.4c-0.8,0-1.4-0.6-1.4-1.4v-5.8C60.3,75.6,60.9,74.9,61.7,74.9L61.7,74.9z M60.5,73.5c-1.9,0-3.4,1.5-3.4,3.4v4.5
			c0,1.9,1.5,3.4,3.4,3.4h2.8c1.9,0,3.4-1.5,3.4-3.4v-4.5c0-1.9-1.5-3.4-3.4-3.4H60.5z"/>
		<path fill-rule="evenodd" clip-rule="evenodd" fill="#0033CC" d="M44.1,72.1h-3.2V80c0,0,0.2,1.5-1.6,1.5l1.6,3.3
			c0,0,3.2-0.4,3.2-4V72.1z"/>
		<path fill-rule="evenodd" clip-rule="evenodd" fill="#0033CC" d="M13.8,68.9v12.5c0,1.9,1.5,3.4,3.4,3.4H20c1.9,0,3.4-1.5,3.4-3.4
			l0-7.9h-3.2l0,8.6c0,0.8-0.6,1.4-1.4,1.4h-0.4c-0.8,0-1.4-0.6-1.4-1.4V68.9L13.8,68.9z"/>
		<g>
			
				<rect x="73.2" y="86.7" transform="matrix(0.7071 -0.7071 0.7071 0.7071 -40.4222 78.3916)" fill-rule="evenodd" clip-rule="evenodd" fill="#0033CC" width="2.5" height="2.5"/>
			<g>
				
					<rect x="68.4" y="86.7" transform="matrix(0.7071 -0.7071 0.7071 0.7071 -41.8108 75.0394)" fill-rule="evenodd" clip-rule="evenodd" fill="#0033CC" width="2.5" height="2.5"/>
				
					<rect x="64.8" y="86.7" transform="matrix(0.7071 -0.7071 0.7071 0.7071 -42.858 72.5104)" fill-rule="evenodd" clip-rule="evenodd" fill="#0033CC" width="2.5" height="2.5"/>
			</g>
			<g>
				
					<rect x="19.1" y="86.7" transform="matrix(0.7071 -0.7071 0.7071 0.7071 -56.25 40.1801)" fill-rule="evenodd" clip-rule="evenodd" fill="#0033CC" width="2.5" height="2.5"/>
				
					<rect x="15.5" y="86.7" transform="matrix(0.7071 -0.7071 0.7071 0.7071 -57.2971 37.6514)" fill-rule="evenodd" clip-rule="evenodd" fill="#0033CC" width="2.5" height="2.5"/>
			</g>
		</g>
		<path fill-rule="evenodd" clip-rule="evenodd" fill="#0033CC" d="M45.6,67.3v3.2h-6.4c0,0-1.5-0.2-1.5,1.6l-3.2,0
			c0-1.3,0-2.3,0.8-3.3c0.6-0.7,1.5-1.5,3.1-1.5H45.6z"/>
	</g>
</g>
</svg>
