<?xml version="1.0" encoding="iso-8859-1"?>
<!-- Generator: Adobe Illustrator 27.0.0, SVG Export Plug-In . SVG Version: 6.00 Build 0)  -->
<svg version="1.1" id="Layer_1" xmlns="http://www.w3.org/2000/svg" xmlns:xlink="http://www.w3.org/1999/xlink" x="0px" y="0px"
	 width="90px" height="90px" viewBox="0 0 90 90" enable-background="new 0 0 90 90" xml:space="preserve">
<path fill-rule="evenodd" clip-rule="evenodd" fill="#EA0707" d="M55.5,9c-2.7-2.7-5.3-5.3-8-8c-1.3,1.4-2.7,2.7-4,4
	c-4.4,4.4-8.7,8.7-13.1,13.1c-0.2,0.2,0.1,0.3,0.2,0.5c5.6,5.6,11.2,11.2,16.8,16.8c0.1,0.1,0.2,0.1,0.3,0c4.7-4.7,9.3-9.3,14-14
	c1-1,2.1-2,3.1-3.1C61.7,15.1,58.6,12.1,55.5,9z"/>
<path fill="#0000ED" d="M53.3,76.1h-3.1v2h3.1c0.5,0,1.5,0,1.5,2.5s-1,2.5-1.5,2.5h-3.1v2h3.1c1.3,0,3.5-0.6,3.5-4.5
	S54.6,76.1,53.3,76.1z"/>
<path fill="#0000ED" d="M42.4,78.5v3.1c0,0.5,0,1.5-2.5,1.5s-2.5-1-2.5-1.5v-9.5h-2v9.5c0,1.3,0.6,3.5,4.5,3.5s4.5-2.2,4.5-3.5v-3.1
	H42.4z"/>
<rect x="46" y="72.1" fill="#0000ED" width="2.5" height="13"/>
<circle fill="#0000ED" cx="43.1" cy="73.6" r="1.2"/>
<g>
	<circle fill="#0000ED" cx="79.5" cy="88.7" r="1.2"/>
</g>
<g>
	<circle fill="#0000ED" cx="81.8" cy="88.7" r="1.2"/>
</g>
<g>
	<circle fill="#0000ED" cx="85.2" cy="88.7" r="1.2"/>
</g>
<path fill="#0000ED" d="M87.1,76.7c-0.6,0-1,0.4-1,1V82c0,0.8-0.7,1.5-1.5,1.5S83,82.9,83,82v-4.3c0-0.6-0.4-1-1-1s-1,0.4-1,1v4.4
	c0,0.8-0.7,1.5-1.5,1.5s-1.5-0.7-1.5-1.5c0-0.1,0-0.1,0-0.2c0-0.2,0.1-0.4,0.1-0.7c0-2.4-2-4.4-4.4-4.4s-4.4,2-4.4,4.4
	c0,0.2,0,0.5,0.1,0.7c0,0,0,0,0,0c0,0.8-0.7,1.5-1.5,1.5s-1.5-0.7-1.5-1.5v-1.7c0,0,0,0,0-0.1c0,0,0,0,0,0c0-2-1.6-3.5-3.5-3.5
	c-2,0-3.5,1.6-3.5,3.5v5.3h4.1v-2h-2.1v-3.3c0-0.8,0.7-1.5,1.5-1.5s1.5,0.7,1.5,1.5c0,0,0,0,0,0.1c0,0,0,0,0,0v1.7
	c0,2,1.6,3.5,3.5,3.5c1.1,0,2.1-0.5,2.7-1.3c0.8,0.8,1.9,1.3,3.1,1.3c1.2,0,2.3-0.5,3.1-1.3c0.6,0.8,1.6,1.3,2.8,1.3
	c1,0,1.9-0.4,2.6-1.2c0.6,0.6,1.5,1,2.5,1c2,0,3.5-1.6,3.5-3.5v-4.3C88.1,77.1,87.7,76.7,87.1,76.7z M73.6,83.7
	c-1.3,0-2.4-1.1-2.4-2.4s1.1-2.4,2.4-2.4S76,80,76,81.3S74.9,83.7,73.6,83.7z"/>
<g>
	<path fill="#0000ED" d="M30.2,68.2c-5.9-3-12.2-8.1-12.1-16c0.2-12.9,7.6-16.7,12.1-17.8V18.1C19.6,19.4,2.6,27.6,2.1,51.9
		C1.8,72.5,20,83.1,30.2,86.8V68.2z"/>
</g>
<rect x="30.6" y="35.6" fill="#0000ED" width="16.9" height="32.4"/>
<path fill="#0000ED" d="M77.9,50.9c0-1.2,0-2.3-0.2-3.5c-0.6-4.3-2.3-8.1-4.6-11.5H48.1c6.6,3.5,12.7,8.3,13.4,13.5
	c0.3,2.7-0.6,9-12.6,18.6h19.3h3.3h2.3C73.8,68,77.5,61.3,77.9,50.9L77.9,50.9z"/>
</svg>
