<?xml version="1.0" encoding="iso-8859-1"?>
<!-- Generator: Adobe Illustrator 27.0.0, SVG Export Plug-In . SVG Version: 6.00 Build 0)  -->
<svg version="1.1" id="Layer_1" xmlns="http://www.w3.org/2000/svg" xmlns:xlink="http://www.w3.org/1999/xlink" x="0px" y="0px"
	 width="90px" height="90px" viewBox="0 0 90 90" enable-background="new 0 0 90 90" xml:space="preserve">
<path fill-rule="evenodd" clip-rule="evenodd" fill="#009999" d="M53.5,32.8h-6.3c-3.1,0-5.6,2.5-5.6,5.6l0,0c0,3.1,2.5,5.6,5.6,5.6
	h0.7l1.9-1.8c0.2-0.2,0.4-0.3,0.3-0.6c0-0.2-0.2-0.3-0.6-0.3h-2.3c-1.5,0-2.8-1.3-2.8-2.8v-0.3c0-1.4,1.1-2.5,2.5-2.5h4.4v3.8l0,1.7
	v2c0,0.5,0.2,0.8,0.6,0.8l2.1,0c2-0.1,3.8-0.8,5.4-2.3c1.7-1.5,2.3-3.1,3.7-4.7c1.3-1.4,3.6-2.2,5.1-0.6c0.8,0.8,0.9,1.9,0.5,2.9
	c-0.3,1-1.1,1.7-2.4,1.8c-0.7,0-1.5,0-2.5,0c-0.5,0.5-1.2,1.2-1.8,1.9c-0.3,0.4-0.2,0.7,0.3,0.8c2.1,0.1,3.7,0,5-0.2
	c1.2-0.3,2.2-0.9,2.9-1.7l1.7,2h3c1.5,0,2.9-0.7,3.8-1.9l1.6,1.9h3c2.7,0,4.9-2.2,4.9-4.9v-5.6c0-0.8-0.4-0.9-0.6-0.6L85.7,35v3.4
	c0,1.4-1.1,2.5-2.5,2.5h-3.5c0.2-0.6,0.4-1.2,0.4-1.8v-5.6c0-0.8-0.4-0.9-0.6-0.6L77.3,35v3.4c0,1.4-1.1,2.5-2.5,2.5h-3.6
	c1.2-2.2,0.8-4.9-1.1-6.7c-2.6-2.3-5.7-1.7-8.2,0.4c-0.9,0.7-1.7,1.7-2.5,2.9c-1.7,2.5-3.4,3.7-5.2,3.6v-7.7
	C54.1,33.1,53.9,32.8,53.5,32.8L53.5,32.8z"/>
<path fill-rule="evenodd" clip-rule="evenodd" fill="#009999" d="M37.7,30H2.8c-0.6,0-1.2,0.5-1.2,1.2v14.4c0,0.6,0.5,1.2,1.2,1.2
	h34.8c0.6,0,1.2-0.5,1.2-1.2V31.2C38.8,30.6,38.3,30,37.7,30z M16.9,39.2c-0.8,1.2-1.6,2.1-2.5,2.9c-2.4,2.1-5.6,2.6-8.2,0.4
	c-2.1-1.9-2.4-4.8-0.9-7.1c0.7-1.2,1.9-2,3.3-2.3c1.3-0.2,2.9-0.2,5-0.2c0.5,0.1,0.6,0.4,0.3,0.8c-0.6,0.7-1.3,1.4-1.8,1.9
	c-1,0-1.8,0-2.5,0c-1.2,0.1-2,0.8-2.4,1.8c-0.3,1-0.2,2.1,0.5,2.9c1.5,1.6,3.8,0.8,5.1-0.6c1.4-1.5,2.1-3.1,3.7-4.7
	c1.6-1.5,3.4-2.2,5.4-2.3l3.4,0c0.6,0.1,0.7,0.4,0.5,0.8c-0.2,0.5-1.4,1.6-1.8,2l-2.1,0.1C20.3,35.5,18.6,36.7,16.9,39.2z
	 M36.1,38.4c0,3.1-2.5,5.6-5.6,5.6h-5.8c-1.1,0-1-0.7-0.6-1l1.9-1.8h4.8c1.4,0,2.5-1.1,2.5-2.5v-0.3c0-1.5-1.3-2.8-2.8-2.8h-2
	c-0.7,0-0.8-0.7-0.6-0.9l1.9-1.8c2,0,3.6,0.4,4.9,2C35.6,35.8,36.1,37.1,36.1,38.4L36.1,38.4z"/>
<path fill-rule="evenodd" clip-rule="evenodd" fill="#009999" d="M73,46.6h1.7c0.3,0,0.6,0.3,0.6,0.6v1.8c0,0.3-0.3,0.6-0.6,0.6H73
	c-0.3,0-0.6-0.3-0.6-0.6v-1.8C72.4,46.9,72.6,46.6,73,46.6L73,46.6z"/>
<path fill-rule="evenodd" clip-rule="evenodd" fill="#009999" d="M76.3,46.6H78c0.3,0,0.6,0.3,0.6,0.6v1.8c0,0.3-0.3,0.6-0.6,0.6
	h-1.7c-0.3,0-0.6-0.3-0.6-0.6v-1.8C75.7,46.9,76,46.6,76.3,46.6z"/>
<path fill-rule="evenodd" clip-rule="evenodd" fill="#990066" d="M81.3,46.6H83c0.3,0,0.6,0.3,0.6,0.6v1.8c0,0.3-0.3,0.6-0.6,0.6
	h-1.7c-0.3,0-0.6-0.3-0.6-0.6v-1.8C80.7,46.9,81,46.6,81.3,46.6z"/>
<rect x="1.7" y="49" fill-rule="evenodd" clip-rule="evenodd" fill="#009999" width="68.2" height="0.7"/>
<path fill-rule="evenodd" clip-rule="evenodd" fill="#009999" d="M5.9,52l-0.8,0.6C5.1,52.7,5,52.8,5,52.9v1.3H3.3
	c-1,0-1.8,0.8-1.8,1.8v1.3c0,0.9,0.7,1.6,1.6,1.6H5v0h1.1V52C6.1,51.9,6.1,51.9,5.9,52L5.9,52z M85.4,53.2h1.3
	c0.9,0,1.7,0.7,1.7,1.6v0.6c-0.1,0.7-0.4,1.1-1,1.2H85v0.7c0,0.3,0.3,0.6,0.6,0.6c0.9,0,1.8,0,2.6,0c0.1,0,0.1,0.1,0.1,0.2l-0.6,0.8
	c-0.1,0.1-0.2,0.1-0.2,0.1c-0.7,0-1.4,0-2.1,0c-0.9,0-1.6-0.7-1.6-1.6v-2.4C83.7,53.9,84.4,53.2,85.4,53.2L85.4,53.2z M85.4,54.4
	c-0.3,0-0.5,0.2-0.5,0.5c0,0.4,0,0.7,0,1.1c0.2-0.2,0.3-0.4,0.5-0.4h1.2c0.3,0,0.5-0.2,0.5-0.5v-0.2c0-0.3-0.2-0.5-0.5-0.5H85.4
	L85.4,54.4z M45.1,53.1h-2.2c-0.9,0-1.7,0.8-1.7,1.7v0.1c0,0.9,0.8,1.7,1.7,1.7c0.5,0,0.9,0,1.4,0c0.2,0,0.4,0.2,0.4,0.4v0.3
	c0,0.2-0.2,0.4-0.4,0.4h-2.1l-0.5,0.8c-0.2,0.3-0.1,0.4,0.1,0.4h2.5c0.9,0,1.7-0.8,1.7-1.7v-0.1c0-0.9-0.8-1.7-1.7-1.7
	c-0.5,0-0.9,0-1.4,0c-0.2,0-0.4-0.2-0.4-0.4v-0.3c0-0.2,0.2-0.4,0.4-0.4h1.8l0.5-0.8C45.4,53.2,45.4,53.1,45.1,53.1L45.1,53.1z
	 M62.7,56.7H64l0.8-0.6l0,1.7h-2c-0.2,0-0.3-0.1-0.3-0.2l0-0.7C62.4,56.8,62.6,56.7,62.7,56.7L62.7,56.7z M61.5,54.2
	c-0.1,0.1,0,0.2,0.1,0.2h2.6c0.3,0,0.6,0.2,0.6,0.6v0.6H63c-1,0-1.7,0.6-1.7,1.3v0.9c0,0.7,0.6,1.2,1.6,1.2h3v-1h0v-3.1
	c0-0.9-0.7-1.5-1.5-1.5h-1.9c-0.1,0-0.2,0.1-0.2,0.2L61.5,54.2L61.5,54.2z M10.5,56.7h1.3l0.8-0.6l0,1.7h-2c-0.2,0-0.3-0.1-0.3-0.2
	l0-0.7C10.3,56.8,10.4,56.7,10.5,56.7L10.5,56.7z M9.4,54.2c-0.1,0.1,0,0.2,0.1,0.2H12c0.3,0,0.6,0.2,0.6,0.6v0.6h-1.7
	c-1,0-1.7,0.6-1.7,1.3v0.9c0,0.7,0.6,1.2,1.6,1.2h3v-1h0v-3.1c0-0.9-0.7-1.5-1.5-1.5h-1.9c-0.1,0-0.2,0.1-0.2,0.2L9.4,54.2L9.4,54.2
	z M30.1,53.2H31c0.1,0,0.2,0.1,0.2,0.2v5.3c0,0.1-0.1,0.2-0.2,0.2h-0.9c-0.1,0-0.2-0.1-0.2-0.2v-5.3C29.9,53.3,30,53.2,30.1,53.2
	L30.1,53.2z M57.6,53.2c-0.9,0-1.6,0.7-1.6,1.6V59h1.3c0,0,0-0.1,0-0.1v-4c0-0.3,0.3-0.6,0.6-0.6h0.9h0c0.1,0,0.2-0.1,0.2-0.2
	l0.6-0.8c0.1-0.1,0-0.2-0.1-0.2C58.9,53.2,58.2,53.2,57.6,53.2L57.6,53.2z M78.4,53.2h-0.5c-0.9,0-1.6,0.7-1.6,1.6v2.6
	c0,0.9,0.7,1.6,1.6,1.6h0.5v0h1.8c0.1,0,0.2-0.1,0.2-0.2l0.6-0.8c0.1-0.1,0-0.2-0.1-0.2h-2.6v0h-0.2c-0.3,0-0.6-0.3-0.6-0.6v-2.3
	c0-0.3,0.3-0.6,0.6-0.6h0.3h1h0.8c0.1,0,0.2-0.1,0.2-0.2l0.6-0.8c0.1-0.1,0-0.2-0.1-0.2h-1.6H78.4L78.4,53.2z M72.5,58.9l0.8,0
	c0.1,0,0.2-0.2,0.2-0.2v-3.9c0-0.8-0.7-1.5-1.5-1.5h-2.2L68.8,54v4.8c0,0.1,0,0.1,0.2,0.1l0.8,0c0.1,0,0.2-0.2,0.2-0.2v-4.3h1.8
	c0.3,0,0.6,0.2,0.6,0.6v3.9C72.3,58.9,72.4,58.9,72.5,58.9L72.5,58.9z M37.6,58.9l0.8,0c0.1,0,0.2-0.2,0.2-0.2v-3.9
	c0-0.8-0.7-1.5-1.5-1.5h-2.2L33.9,54v4.8c0,0.1,0,0.1,0.2,0.1l0.8,0c0.1,0,0.2-0.2,0.2-0.2v-4.3h1.8c0.3,0,0.6,0.2,0.6,0.6v3.9
	C37.4,58.9,37.5,58.9,37.6,58.9L37.6,58.9z M49.4,53.1l-0.8,0.6c-0.1,0.1-0.2,0.2-0.2,0.2v3.3c0,0.9,0.7,1.5,1.5,1.5h3.1v0h0v-5.6
	c0-0.1-0.1-0.1-0.2-0.1l-0.8,0.6C52.1,53.9,52,54,52,54.1v3.6h-1.8c-0.3,0-0.6-0.2-0.6-0.6v-3.9C49.6,53.1,49.6,53,49.4,53.1
	L49.4,53.1z M16.9,59.8l0.6-0.8c0.1-0.1,0.2-0.2,0.2-0.2h1.8v0c0.3,0,0.5-0.3,0.5-0.5v-0.6h-2c-0.9,0-1.5-0.7-1.5-1.5V54
	c0-0.1,0.1-0.2,0.2-0.2l0.8-0.6c0.1-0.1,0.2,0,0.2,0.1V56c0,0.3,0.2,0.6,0.6,0.6h1.8v-1.2h0v-1.2c0-0.1,0.1-0.2,0.2-0.2l0.8-0.6
	c0.1-0.1,0.2,0,0.2,0.1v4.3h0v0.8c0,0.9-0.7,1.5-1.5,1.5h-0.4c0,0,0,0,0,0h-2.3C16.9,60,16.8,59.9,16.9,59.8L16.9,59.8z M5,55v2.8
	H3.3c-0.3,0-0.5-0.2-0.5-0.5v-1.4c0-0.2,0.2-0.5,0.5-0.5h1.1L5,55z"/>
</svg>
