<?xml version="1.0" encoding="iso-8859-1"?>
<!-- Generator: Adobe Illustrator 27.0.0, SVG Export Plug-In . SVG Version: 6.00 Build 0)  -->
<svg version="1.1" id="Layer_1" xmlns="http://www.w3.org/2000/svg" xmlns:xlink="http://www.w3.org/1999/xlink" x="0px" y="0px"
	 width="90px" height="90px" viewBox="0 0 90 90" enable-background="new 0 0 90 90" xml:space="preserve">
<path fill="#2E3191" d="M31.8,64.7L31.8,64.7c6.9,3.1,14.9,3.7,22.3,1.7c3.9-1,7.5-2.8,10.8-5.2c6.5-4.7,11.2-11.7,12.9-19.5
	c1.1-4.7,1.1-9.6,0.1-14.2c-0.9-4.1-2.5-8-4.8-11.5l0,0c-1.6-2.4-3.5-4.7-5.7-6.6l0,0c-1.8-1.6-3.7-2.9-5.8-4.1l0,0
	c-2.4-1.3-4.9-2.3-7.5-3c-7-1.9-14.5-1.5-21.1,1.2l0,0c-3.6,1.4-6.9,3.5-9.7,6c-5.6,5-9.5,12-10.7,19.4c-1.1,6.5-0.2,13.3,2.6,19.3
	C18.5,55.5,24.5,61.5,31.8,64.7z M15.3,24.8c2.2-7,7-13.2,13.2-17.1C32.9,5,37.9,3.4,43,3c5.4-0.4,10.9,0.6,15.7,2.9
	c6.8,3.2,12.4,8.9,15.4,15.8c1.9,4.4,2.8,9.2,2.7,13.9c-0.2,4.3-1.2,8.5-3,12.3s-4.3,7.1-7.4,9.9c-2.9,2.6-6.2,4.6-9.8,6
	c-4.5,1.7-9.4,2.4-14.2,2c-4.3-0.4-8.5-1.7-12.3-3.7c-3.4-1.9-6.4-4.4-8.9-7.3c-2.8-3.3-4.9-7.2-6.1-11.3
	C13.3,37.4,13.4,30.8,15.3,24.8z"/>
<g>
	<path fill="#00ADEE" d="M51.4,5.6c-0.9-0.1-1.8-0.3-2.7-0.4c-2-0.2-4-0.2-6,0c-0.9,0-1.8,0.3-2.7,0.4c0.3,1.4,0.6,2.8,0.9,4.2
		c0.5,2.8,1.1,5.5,1.6,8.3c1.4-0.3,2.9-0.3,4.3-0.2c0.4,0,0.8,0.1,1.2,0.1c1-3.8,2.1-7.6,3.2-11.5C51.3,6.2,51.4,5.9,51.4,5.6z"/>
	<path fill="#00ADEE" d="M38.9,11.5c-0.1-0.9-0.4-1.8-0.5-2.7C38.2,8,38,7.1,37.8,6.1c-0.9,0.1-1.8,0.5-2.7,0.8
		c-1.8,0.7-3.6,1.6-5.3,2.6c-0.7,0.4-1.3,1-2,1.4c0.3,0.5,0.7,0.9,1,1.4c1.1,1.4,2.1,2.8,3.2,4.2c1.1,1.5,2.2,2.9,3.3,4.4
		c0.1,0.1,0.2,0.2,0.3,0.1c0.8-0.6,1.7-1.1,2.6-1.5c0.7-0.3,1.3-0.6,2-0.8c0-0.6-0.3-1.2-0.3-1.8C39.6,15.1,39.2,13.3,38.9,11.5z"/>
	<path fill="#00ADEE" d="M28.7,15.9c-0.8-1.2-1.7-2.2-2.5-3.4c-0.1-0.1-0.2-0.1-0.3,0c-0.5,0.3-1,0.8-1.5,1.1
		c-0.5,0.6-1.1,1-1.5,1.6c-1.4,1.6-2.6,3.5-3.7,5.4c0,0.2-0.2,0.4,0,0.5c2.7,1.3,5.4,2.6,8.1,4c1.1,0.5,2.1,1.1,3.2,1.6
		c0.4-0.9,1.1-1.8,1.7-2.6c0.5-0.6,1-1.1,1.5-1.6c-0.4-0.7-1-1.4-1.5-2.1C31.1,18.9,29.9,17.4,28.7,15.9z"/>
	<path fill="#00ADEE" d="M28.5,34.4c0-0.9,0.1-1.8,0.3-2.7c0.2-1,0.5-1.9,0.7-2.9c-3.8-1.8-7.6-3.8-11.4-5.7
		c-0.7,1.8-1.2,3.6-1.7,5.4c-0.1,0.9-0.3,1.7-0.4,2.5c-0.1,1.2-0.3,2.4-0.2,3.6c2.2,0,4.4,0,6.6-0.1C24.4,34.4,26.5,34.4,28.5,34.4z
		"/>
	<path fill="#00ADEE" d="M28.8,37.8c-0.1-0.4-0.1-0.7-0.2-1c-3.5,0-7,0.1-10.5,0.1c-0.8,0.1-1.5-0.1-2.2,0.2c0,1.7,0.4,3.4,0.8,5.1
		c0.3,1.1,0.5,2.2,1,3.2c0.3,0.7,0.7,1.5,1,2.2c0.5-0.1,0.9-0.4,1.3-0.6c2.1-1.1,4.1-2.1,6.2-3.1c1.3-0.7,2.6-1.4,3.9-2
		c-0.1-0.4-0.4-0.8-0.5-1.2C29.2,39.7,29.1,38.7,28.8,37.8z"/>
	<path fill="#00ADEE" d="M74.6,30.2c-0.4-2.2-0.9-4.4-1.8-6.4c-2.3,1-4.6,2.1-7,3.2c-1.5,0.7-3,1.3-4.4,2.1c0,0,0,0.1-0.1,0.1
		c0.2,0.6,0.4,1.2,0.5,1.8c0.1,0.5,0.2,0.9,0.3,1.3c0.1,0.7,0.2,1.5,0.2,2.2c0.8,0,1.6,0,2.4,0.1c2.7,0,5.3,0.1,8,0.2
		c0.8,0.1,1.5,0.1,2.3,0.1C75.1,33.3,74.8,31.8,74.6,30.2z"/>
	<path fill="#00ADEE" d="M71.4,37c-1.1-0.1-2.3-0.1-3.4-0.1c-1.9-0.1-3.9,0-5.8-0.2c-0.2,1.3-0.5,2.7-1,3.9
		c-0.2,0.6-0.4,1.2-0.7,1.8c1.8,0.9,3.6,1.8,5.4,2.7c0.8,0.3,1.5,0.8,2.3,1.1c0.6,0.2,1.1,0.6,1.7,0.8c0.7,0.3,1.4,0.7,2.1,0.9
		c0.5-1.2,1-2.4,1.4-3.6c0.2-0.7,0.4-1.3,0.6-2c0.2-0.6,0.3-1.2,0.4-1.8c0.1-0.5,0.3-1,0.3-1.5c0-0.6,0.3-1.3,0.2-1.9
		C73.8,37,72.6,37.1,71.4,37z"/>
	<path fill="#00ADEE" d="M71.7,21.7c0.1,0,0.3-0.1,0.2-0.3c-0.4-0.8-0.9-1.6-1.4-2.4c-0.9-1.2-1.7-2.5-2.7-3.6
		c-0.8-0.9-1.6-1.8-2.5-2.6c-0.2-0.2-0.4,0.1-0.5,0.2c-1.4,1.5-2.7,3.2-4.1,4.7c-0.6,0.6-1,1.3-1.6,1.8c-0.7,0.9-1.5,1.8-2.3,2.7
		c0.8,0.7,1.5,1.5,2.2,2.4c0.5,0.8,1.1,1.5,1.5,2.3C64.2,25.2,67.9,23.4,71.7,21.7z"/>
	<path fill="#00ADEE" d="M58.8,16.3c0.6-0.7,1.2-1.3,1.7-2c1-1,1.9-2.1,2.8-3.2c-1.2-0.9-2.5-1.7-3.9-2.5c-1.8-0.9-3.7-1.8-5.7-2.3
		c-0.1,0.7-0.4,1.4-0.6,2.1c-0.3,0.9-0.5,1.7-0.7,2.6c-0.4,1.2-0.6,2.4-1,3.5c-0.2,0.8-0.4,1.7-0.7,2.5c-0.1,0.5-0.4,1-0.5,1.6
		c0.6,0.1,1.1,0.4,1.7,0.6c0.7,0.2,1.4,0.6,2,1c0.3,0.2,0.6,0.5,1,0.5c0.2-0.3,0.5-0.5,0.7-0.8c0.6-0.7,1.2-1.3,1.7-2
		C57.8,17.4,58.2,16.8,58.8,16.3z"/>
</g>
<g>
	<path fill="#806B64" d="M31.6,47.9c1.1-0.4,2.1-0.9,3.2-1.3c2.2,1.4,4.3,2.9,6.5,4.3c0.5,0,1,0,1.5-0.1c1.6-0.1,3.3-0.1,4.9-0.3
		c1.2,0,2.5-0.1,3.7-0.2c0.5,0,1,0,1.5-0.1c1.3-0.1,2.7-0.2,4-0.3c1.2,0,2.3-0.2,3.5-0.2c1.3-0.1,2.6-0.2,3.9-0.2
		c0.9-0.2,1.9,0,2.9-0.2c1.1,0,2.2-0.1,3.3-0.2c-1.4-0.6-2.7-1.3-4.1-1.9c-2.2-1-4.3-2-6.5-3c-1.6-0.8-3.3-1.6-4.9-2.3
		c-0.3-0.1-0.6-0.1-0.9-0.1c-0.8-0.1-1.5,0-2.3-0.1c-0.4-0.1-0.9-0.1-1.3-0.1c0.4,0.9,0.9,1.8,1.2,2.8c0.1,0.2,0.2,0.4,0.3,0.6
		c-1.2-1.2-2.5-2.4-3.7-3.6c-0.2,1.3-0.5,2.6-0.8,3.9c-0.1,0.2,0,0.5-0.2,0.7c-0.6-1.7-1.1-3.3-1.7-5c-0.9,1.5-1.8,2.9-2.6,4.3
		c0-0.4,0-0.8-0.1-1.3c0.1-0.9,0.1-1.7,0.1-2.6c-0.5,0.3-0.9,0.7-1.4,1c-1,0.6-2,1.4-3,2c0.3-0.5,0.7-1.1,1-1.7
		c0.3-0.4,0.5-1,0.8-1.4c-2.3,0.2-4.6,0.4-6.9,0.6c-0.5,0.1-0.9,0.4-1.3,0.6c-2.2,1.1-4.5,2.1-6.6,3.2c-1.5,0.7-2.9,1.5-4.4,2.2
		c-0.8,0.4-1.6,0.9-2.4,1.2c0.1,0.1,0.1,0.2,0.2,0.3c0.8,1,1.4,2,2.2,3c0.4-0.1,0.7-0.3,1.1-0.5C25.4,50.5,28.5,49.2,31.6,47.9z"/>
	<path fill="#806B64" d="M49.6,58.5c-1.8-1.1-3.6-2.4-5.4-3.5c-1.6-1-3.2-2.1-4.8-3.1c-1.7-1.1-3.4-2.2-5.1-3.3
		c-0.2-0.2-0.4,0-0.6,0c-3.8,1.7-7.6,3.4-11.4,5.1c0,0,0,0,0,0.1c1.1,1.2,2.2,2.3,3.5,3.3c1.8,1.4,3.7,2.7,5.8,3.8
		c1.5,0.7,3.1,1.2,4.6,1.7c1,0.4,2.1,0.4,3.1,0.7c0.7,0.1,1.4,0.2,2.1,0.2c1.1,0.2,2.1,0.1,3.2,0.2c1-0.1,2,0,3-0.2
		c0.8,0,1.7-0.1,2.5-0.2c1.2-0.3,2.4-0.3,3.6-0.6c0.6-0.1,1.1-0.2,1.7-0.4c-0.9-0.5-1.8-1.2-2.7-1.8C51.6,59.9,50.6,59.1,49.6,58.5z
		"/>
	<path fill="#806B64" d="M62.8,51.4c-3.2,0.2-6.3,0.4-9.5,0.5c-1.1,0-2.2,0.2-3.3,0.2c-0.9,0-1.7,0.1-2.6,0.2c-0.5,0-1,0-1.5,0.1
		c-0.8,0.1-1.6,0.1-2.5,0.1c0.4,0.3,0.8,0.5,1.2,0.8c1,0.7,2,1.3,3,1.9c1.7,1.1,3.3,2.2,5,3.3c1.1,0.8,2.2,1.5,3.3,2.2
		c0.4,0.3,0.9,0.5,1.3,0.9c0.1,0,0.3-0.1,0.4-0.2c2-1,3.9-2.1,5.7-3.5c1-0.7,1.8-1.6,2.7-2.4c1.3-1.4,2.5-2.9,3.5-4.5
		c-1,0-2.1,0.2-3.3,0.2C65.1,51.3,63.9,51.3,62.8,51.4z"/>
</g>
<path fill-rule="evenodd" clip-rule="evenodd" fill="#F48120" d="M45.4,34.7L58.1,41c0.9-1.8,1.4-3.9,1.4-6
	c0-7.9-6.4-14.3-14.3-14.3S30.9,27.1,30.9,35c0,2.1,0.5,4.2,1.3,6L45.4,34.7z"/>
<g>
	<path fill="#2E3191" d="M36,77.2V70l-4.7-0.1l-0.1,7.2c-0.1,2.3-2.8,2.1-2.8-0.1v-7.1h-4.5L24,81.4c-0.1,2.2-1.1,2.6-2.5,2.6v4
		c3.7,0.1,6.2-0.7,6.8-4.9v-1.6h2.9C34.5,81.7,36.1,80.4,36,77.2z"/>
	<path fill="#2E3191" d="M31,85c-1,0-1.8,0.8-1.8,1.8c0,1,0.8,1.8,1.8,1.8c1,0,1.8-0.8,1.8-1.8C32.7,85.8,31.9,85,31,85z"/>
	<rect x="17.5" y="68.4" fill="#2E3191" width="5" height="13"/>
	<path fill="#2E3191" d="M11.9,81.5c0.1,5.1-5.3,5-5.1-0.1l0-4.7l-4.2,0v4.8c0.1,9.5,13.2,9.6,13.6-0.1l0.1-4.8l-4.3,0L11.9,81.5z"
		/>
	<path fill="#2E3191" d="M9.9,75.8c1,0,1.8-0.8,1.8-1.8c0-1-0.8-1.8-1.8-1.8c-1,0-1.8,0.8-1.8,1.8C8.2,75,9,75.8,9.9,75.8z"/>
	<path fill="#2E3191" d="M72.9,85c-1,0-1.8,0.8-1.8,1.8c0,1,0.8,1.8,1.8,1.8c1,0,1.8-0.8,1.8-1.8C74.7,85.8,73.9,85,72.9,85z"/>
	<path fill="#2E3191" d="M82.4,70l0,7.2c-0.2,2.1-2.3,2.1-2.5,0l0-7.2h-4.9l0,7.2c-0.5,2.4-3.1,1.7-3.1,0l0-7.2L63.9,70
		c-2.5,0.1-3.5,1.3-3.5,3.3l0,1.6c-0.2,4.8-3.9,4-3.7,2.2c0-2.4,0-4.8,0-7.1l-7.6,0.1c-2.7,0.1-3.9,1.4-4.1,3.6l-0.1,4.2
		c-0.1,2.4,0.7,3.6,2.5,3.6h3.3v-3.2c-1.3,0.2-1.7-0.4-1.6-1.7l0.1-2.8c0-2.1,4-2.4,3.8,0.2l0.1,7.6l3.3,0.1c1.9,0.2,3.1-0.7,4-2.3
		c0.3,1.3,1.2,2.2,3.1,2.3l3.2,0c1.5,0.1,2.8-0.4,3.5-1.6c1.5,1.9,3.4,2.3,5.9,0.1c1.8,2.1,4,1.8,6.4-0.1l0.1,1.6l4.3,0.1l0-11.6
		L82.4,70z M67.5,77.3c0,0.8-0.6,1.4-1.4,1.4h-0.6c-0.8,0-1.4-0.6-1.4-1.4v-3.8c0-0.8,0.6-1.4,1.4-1.4h0.6c0.8,0,1.4,0.6,1.4,1.4
		V77.3z"/>
	<path fill="#2E3191" d="M84.6,85c-1,0-1.8,0.8-1.8,1.8c0,1,0.8,1.8,1.8,1.8c1,0,1.8-0.8,1.8-1.8C86.4,85.8,85.6,85,84.6,85z"/>
	<path fill="#2E3191" d="M36.2,85c-1,0-1.8,0.8-1.8,1.8c0,1,0.8,1.8,1.8,1.8c1,0,1.8-0.8,1.8-1.8C38,85.8,37.2,85,36.2,85z"/>
	<path fill="#2E3191" d="M78.1,85c-1,0-1.8,0.8-1.8,1.8c0,1,0.8,1.8,1.8,1.8c1,0,1.8-0.8,1.8-1.8C79.9,85.8,79.1,85,78.1,85z"/>
	<rect x="37.4" y="68.4" fill="#2E3191" width="5" height="13"/>
</g>
</svg>
