<?xml version="1.0" encoding="iso-8859-1"?>
<!-- Generator: Adobe Illustrator 27.0.0, SVG Export Plug-In . SVG Version: 6.00 Build 0)  -->
<svg version="1.1" id="Layer_1" xmlns="http://www.w3.org/2000/svg" xmlns:xlink="http://www.w3.org/1999/xlink" x="0px" y="0px"
	 width="90px" height="90px" viewBox="0 0 90 90" enable-background="new 0 0 90 90" xml:space="preserve">
<circle fill="#F3C95C" cx="45.2" cy="31.2" r="4.9"/>
<g>
	<path fill="#074A27" d="M44.1,18.2c-10.6,1-16,13.9-9.7,22.6l3.5-2.7c-1.6-1.8-2.7-4.3-2.8-6.9C34.6,22,44.8,16,52.8,20.2
		C50.3,18.5,47.2,17.8,44.1,18.2z"/>
	<path fill="#074A27" d="M38.5,37.1l1.8-1.4C37,32,39.3,25.5,44.2,24.5c1.6-0.4,3.5-0.2,5,0.6C41.6,20.4,33.4,29.8,38.5,37.1z"/>
	<path fill="#074A27" d="M46.1,45.4c10.6-1,16-13.9,9.7-22.6l-3.5,2.7c1.6,1.8,2.7,4.3,2.8,6.9c0.5,9.1-9.7,15.1-17.8,10.9
		C40,45,43.1,45.8,46.1,45.4z"/>
	<path fill="#074A27" d="M46.1,39c-1.6,0.4-3.5,0.2-5-0.6c7.6,4.7,15.8-4.7,10.7-12c0,0-1.9,1.4-1.8,1.4C53.4,31.6,51.1,38,46.1,39z
		"/>
	<polygon fill="#074A27" points="76.1,32 60.7,16.5 60.7,47.3 	"/>
	<polygon fill="#074A27" points="30.7,16.5 60.7,16.5 45.7,1.6 	"/>
	<polygon fill="#074A27" points="45.7,62.4 60.7,47.4 30.7,47.4 	"/>
	<polygon fill="#074A27" points="30.7,47.3 30.7,16.5 15.3,32 	"/>
	<path fill="#074A27" d="M25.8,77.2c0.5-1.2,0.8-2.6,1-4.2c0,0,0-0.1,0-0.1c0.1-0.2,0.1-0.3,0.2-0.4c0.1-0.1,0.1-0.1,0.2-0.2
		c0.3-0.2,0.6-0.4,0.8-0.7c0.2-0.2,0.3-0.4,0.3-0.6c0.1-0.2,0.1-0.3,0.2-0.6s0.1-0.4,0.1-0.5c0-0.1,0-0.2-0.1-0.2
		c-0.1,0-0.3,0.2-0.4,0.7c-0.1,0.2-0.2,0.3-0.3,0.4C27.5,71,27.3,71,27.1,71c-0.3,0-0.4,0-0.5,0c0,0,0,0,0,0c-0.2,0-0.4,0-0.5,0.1
		c-0.1,0.1-0.2,0.3-0.2,0.6c0,0.2,0,0.5,0.1,0.7c0,0.2,0.1,0.5,0.1,0.7c0.1,1.8-0.2,3.2-0.9,4.2c-0.4,0.7-1,1.3-1.7,1.8
		c-1,0.6-2,0.8-3,0.8c-0.8,0-1.5-0.2-2-0.6c-0.5-0.4-0.8-1-0.9-1.8c0-1,0.4-2.3,1.1-3.7c0-0.1,0.1-0.3,0-0.4c0-0.1-0.2,0-0.4,0.4
		c-1.1,1.9-1.6,3.7-1.6,5.4c0,1,0.3,1.9,0.9,2.5c0.6,0.6,1.3,0.9,2.3,0.9c1.8,0,3.4-0.9,4.7-2.7C25,79,25.4,78.1,25.8,77.2z"/>
	<path fill="#074A27" d="M21.7,75c0.2,0.1,0.3,0.2,0.3,0.2c0.1,0,0.2-0.1,0.3-0.2c0.2-0.2,0.4-0.4,0.5-0.7c0.1-0.2,0.2-0.5,0.3-0.7
		s0.1-0.4,0-0.5c0-0.2-0.1-0.4-0.2-0.5c-0.1-0.1-0.3-0.3-0.5-0.5c-0.2-0.2-0.4-0.3-0.5-0.4c-0.2,0.4-0.4,0.7-0.6,0.9
		c-0.1,0.2-0.3,0.7-0.6,1.4c0,0.1,0,0.1,0.1,0.2c0.1,0.1,0.2,0.2,0.4,0.3C21.3,74.7,21.5,74.8,21.7,75z"/>
	<path fill="#074A27" d="M30.9,84.3c-0.1,0-0.2,0.2-0.4,0.5c-0.2,0.3-0.4,0.6-0.5,0.9c-0.1-0.2-0.3-0.4-0.6-0.7
		c-0.3-0.3-0.5-0.4-0.6-0.3c-0.1,0-0.3,0.4-0.6,1c-0.3,0.6-0.5,1-0.5,1.1c0,0,0.1,0.2,0.4,0.4c0.2,0.2,0.4,0.3,0.5,0.4
		c0.1,0.1,0.2,0.2,0.3,0.2c0.3,0,0.6-0.4,1-1.3c0.2,0.1,0.4,0.3,0.6,0.5c0.2,0.2,0.4,0.4,0.5,0.4c0.1,0,0.3-0.2,0.6-0.6
		c0.3-0.4,0.5-0.8,0.5-1.1c0-0.3-0.2-0.5-0.4-0.8C31.3,84.5,31.1,84.3,30.9,84.3z"/>
	<path fill="#074A27" d="M48.4,66.4c0.1,0,0.3-0.2,0.6-0.7c0.3-0.5,0.4-0.9,0.4-1.1c0-0.2-0.2-0.5-0.5-0.8c-0.3-0.3-0.6-0.5-0.7-0.4
		c-0.1,0-0.3,0.3-0.6,0.9c-0.3,0.6-0.4,0.9-0.4,1.1c0,0.1,0.1,0.2,0.2,0.3c0.1,0.1,0.3,0.3,0.6,0.4C48.2,66.3,48.4,66.4,48.4,66.4z"
		/>
	<path fill="#074A27" d="M50,69c-0.3,0-0.7,0.4-1.2,1.1c-0.4,0.7-0.7,1.2-0.7,1.5c0,0.2,0.1,0.3,0.2,0.5c0.1,0.1,0.3,0.2,0.5,0.2
		c0.1,0,0.3,0,0.4-0.1c0.2-0.1,0.3-0.1,0.4-0.1c0.1,0,0.3,0.1,0.4,0.2c0.1,0.1,0.2,0.3,0.2,0.4c0,0.4-0.6,1-1.9,1.9
		c-2,1.4-4.6,2.5-7.7,3.2c-2.2,0.5-4.5,0.7-6.8,0.8c-0.7,0-1.5-0.1-2.2-0.2c-0.8-0.2-1.7-0.4-2.6-0.6c0,0-0.1,0-0.3,0
		c-0.3,0-0.6,0.1-0.8,0.3c-0.2,0.2-0.4,0.4-0.5,0.6c-0.3,0.6-0.5,1.1-0.8,1.6c-0.2,0.3-0.4,0.7-0.6,1c-0.2,0.3-0.4,0.6-0.7,0.9
		c-0.2,0.2-0.4,0.5-0.7,0.7c-0.5,0.5-0.8,0.9-0.8,1.2c0,0.2,0.1,0.3,0.4,0.3c0.1,0,0.2,0,0.3,0c0.3-0.1,0.6-0.2,0.8-0.4
		c0.2-0.2,0.4-0.4,0.6-0.7c0.3-0.5,0.8-1.4,1.4-2.6c0.1-0.1,0.1-0.2,0.2-0.3c0.1-0.1,0.1-0.1,0.2-0.1l0.4,0.1
		c0.5,0.2,1.3,0.4,2.4,0.6c1,0.2,2,0.2,3.1,0.2c0,0,0,0,0,0c0.1,0,0.1,0,0.2,0c0.1,0,0.1,0,0.2,0c0,0,0,0,0,0c1.8,0,3.8-0.3,6.1-0.9
		c3.3-0.9,6.2-2.3,8.5-4.1c0.9-0.7,1.5-1.5,2-2.4c0.5-0.9,0.7-1.7,0.7-2.5c0-0.5-0.1-1-0.3-1.5C50.7,69.2,50.4,69,50,69z"/>
	<path fill="#074A27" d="M59.9,63.5c-0.1,0-0.1,0-0.2,0.1c-0.1,0.1-0.3,0.2-0.5,0.3c-0.3,0.2-0.5,0.3-0.8,0.5
		c-0.5,0.2-1.1,0.3-1.7,0.3c-0.4,0-0.7,0-1-0.1c-0.7-0.1-1.1-0.2-1.2-0.2c-0.4,0-0.9,0.2-1.5,0.6c-0.5,0.3-0.9,0.7-1.3,1.2
		c-0.2,0.2-0.3,0.4-0.4,0.6c-0.1,0.2-0.1,0.3-0.1,0.4c0.1,0,0.2,0,0.3-0.1c0.1-0.1,0.3-0.2,0.5-0.3c0.2-0.1,0.4-0.2,0.6-0.3
		c0.2-0.1,0.5-0.1,0.8,0c0.3,0,0.6,0.1,0.8,0.2c0.2,0.1,0.5,0.1,0.8,0.1c0.7,0,1.3,0,1.8-0.2c0.5-0.2,1-0.4,1.6-0.8
		c0.4-0.3,0.7-0.5,1-0.8c0.3-0.3,0.5-0.6,0.6-0.9c0.1-0.1,0.1-0.2,0.1-0.3C60,63.5,59.9,63.5,59.9,63.5z"/>
	<path fill="#074A27" d="M53.8,76.1c0.2-0.5,0.3-1.2,0.4-1.9c0-0.3,0.1-0.7,0.1-1.2c0-0.5,0-1,0-1.6c0-0.1,0-0.2,0-0.4
		c0-0.2,0-0.3,0-0.5c0-0.2,0-0.4,0-0.6c0-0.2,0-0.4,0-0.6c0-0.2,0-0.3,0-0.5c0-0.1,0-0.2,0-0.2c0-0.1,0-0.1-0.1-0.1
		c-0.1,0-0.1,0-0.2,0.1c-0.1,0.2-0.2,0.4-0.3,0.6c-0.1,0.2-0.2,0.5-0.3,0.7c-0.1,0.3-0.2,0.5-0.3,0.8c-0.1,0.3-0.1,0.5-0.2,0.8
		c-0.1,0.4-0.1,1.1-0.1,1.9c0,0.8,0,1.4,0,1.9c0,0.4-0.1,0.9-0.2,1.4c-0.1,0.5-0.1,0.7-0.1,0.7c0,0.1,0,0.1,0.1,0.1
		c0,0,0.1,0,0.2-0.1c0.1-0.1,0.2-0.2,0.3-0.4C53.4,77,53.6,76.7,53.8,76.1z"/>
	<path fill="#074A27" d="M58.2,75.1c-0.1,0-0.2,0.1-0.3,0.3c-0.1,0.2-0.2,0.5-0.4,1c-0.2,0.5-0.4,1-0.7,1.5
		c-0.3,0.5-0.5,0.9-0.7,1.1c-0.2,0.3-0.5,0.5-1,0.9c-0.5,0.3-0.9,0.6-1.3,0.8c-0.4,0.2-0.6,0.4-0.7,0.5c-0.1,0.1-0.1,0.2-0.1,0.2
		c0,0.1,0.1,0.1,0.1,0.1c0.1,0,0.3,0,0.6-0.1c0.3-0.1,0.7-0.2,1.2-0.3c0.5-0.1,0.9-0.3,1.1-0.5c0.2-0.2,0.4-0.5,0.6-0.8
		c0.2-0.3,0.4-0.9,0.7-1.5c0.3-0.7,0.5-1.3,0.6-1.9c0.2-0.6,0.2-1,0.3-1.2C58.4,75.2,58.3,75.1,58.2,75.1z"/>
	<path fill="#074A27" d="M64.8,75.1c-0.3-0.2-0.6-0.3-1.1-0.3c-0.1,0-0.2,0-0.4,0c5.2-4.8,7.9-7.5,8-7.9c0.6-1.3,0.7-1.8,0.4-1.7
		c-0.4,0.5-2,2.2-5,5.1c-2.8,2.7-4.4,4.3-4.9,4.7c0.1-0.5,0.1-1.1,0.2-1.8c0.2-1.4,0.3-2.3,0.3-2.8c0-0.1,0-0.1-0.1-0.1
		c0,0-0.1,0-0.1,0.1c-0.4,1-0.7,1.7-0.8,2.1c-0.3,1.4-0.4,2.6-0.6,3.8c-0.1,1.1-0.2,2-0.2,2.6c0,0,0,0,0,0c0,0,0,0,0,0
		c0,0.9,0.1,1.5,0.4,1.9c0.3,0.5,0.7,0.7,1.2,0.7c0.4,0,0.7-0.1,1-0.3c0.3-0.2,0.6-0.5,0.8-0.8c0.3-0.5,0.6-1.1,0.9-1.9
		c0.2-0.7,0.4-1.4,0.4-2.1C65.4,75.8,65.2,75.4,64.8,75.1z M64.1,78.8c-0.3,0.2-0.7,0.3-1.1,0.3c-0.4,0-0.6-0.1-0.9-0.3
		c-0.2-0.2-0.4-0.4-0.4-0.8c0-0.2,0.1-0.5,0.4-0.7c0.3-0.2,0.6-0.3,0.9-0.3c0.3,0,0.6,0.1,0.9,0.2c0.3,0.2,0.5,0.4,0.5,0.8
		C64.6,78.4,64.4,78.6,64.1,78.8z"/>
	<path fill="#074A27" d="M77.5,76.5C77.5,76.5,77.5,76.5,77.5,76.5c0.3,0.1,0.6-0.1,0.8-0.4c0.2-0.3,0.4-0.6,0.5-1
		c0.1-0.3,0.2-0.6,0.2-0.7c0-0.2,0.1-0.3,0-0.3c0-0.1,0-0.1-0.1-0.1c0,0-0.1,0.1-0.2,0.2c-0.3,0.5-0.5,0.7-0.5,0.7
		c-0.1,0.2-0.4,0.2-0.9,0c0,0,0,0,0,0c0,0,0,0,0,0c0,0,0,0,0,0c0,0,0,0,0,0c-0.5,0-0.9,0.1-1.2,0.2c-0.3,0.1-0.7,0.4-1.2,0.8
		c-0.4,0.4-0.9,0.9-1.3,1.4c0,0,0,0,0,0c-0.1,0.1-0.1,0.1-0.2,0.2c0,0.1-0.1,0.2-0.2,0.3l-0.6,0.8c-0.3,0.4-0.6,0.7-0.9,0.9
		c-0.3,0.2-0.6,0.3-1,0.3c0,0-0.2,0-0.4-0.1c-0.2-0.1-0.5-0.1-0.7-0.1c-0.3,0-0.6,0.1-0.9,0.2c0,0,0,0,0,0c0,0,0,0,0,0
		c-0.5,0.3-0.9,0.6-1.3,1.1c-0.4,0.4-0.6,0.8-0.7,1c-0.1,0.2-0.1,0.3,0,0.4c0.1,0,0.1,0,0.2,0c0.6-0.3,1.2-0.5,1.9-0.4c0,0,0,0,0,0
		c0,0,0,0,0,0l0.3,0.1c0.2,0.1,0.3,0.1,0.5,0.1c0.7,0,1.3-0.3,1.9-0.9c0.2-0.2,0.4-0.4,0.6-0.7c0.2-0.3,0.4-0.5,0.5-0.6
		c0.2-0.1,0.4-0.2,0.6-0.2c0,0,0.2,0,0.4,0.1c0.3,0.1,0.4,0.1,0.5,0.1c0.1,0,0.2,0,0.3,0c0,0,0.1,0,0.1,0c0,0,0,0,0.1-0.1
		c0,0,0.1-0.1,0.1-0.1c0-0.1,0.1-0.1,0.1-0.2c0.2-0.3,0.3-0.6,0.3-0.8c0-0.1-0.1-0.2-0.3-0.4c-0.1-0.1-0.2-0.2-0.3-0.2
		c-0.1-0.1-0.2-0.1-0.2-0.2c-0.1-0.1-0.1-0.2-0.1-0.3c0.6-0.6,1.1-0.9,1.7-0.9C76.8,76.3,77.2,76.4,77.5,76.5z"/>
	<path fill="#074A27" d="M73.8,84.4c-0.1,0-0.2,0.2-0.4,0.5c-0.2,0.3-0.4,0.6-0.5,0.9c-0.1-0.2-0.3-0.4-0.6-0.7
		c-0.3-0.3-0.5-0.4-0.6-0.3c-0.1,0-0.3,0.4-0.6,1c-0.3,0.6-0.5,1-0.5,1.1c0,0,0.1,0.2,0.4,0.4c0.2,0.2,0.4,0.3,0.5,0.4
		c0.1,0.1,0.2,0.2,0.3,0.2c0.3,0,0.6-0.4,1-1.3c0.2,0.1,0.4,0.3,0.6,0.5c0.2,0.2,0.4,0.4,0.5,0.4c0.1,0,0.3-0.2,0.6-0.6
		c0.3-0.4,0.5-0.8,0.5-1.1c0-0.3-0.2-0.5-0.4-0.8C74.3,84.6,74,84.4,73.8,84.4z"/>
	<path fill="#074A27" d="M79.2,81.1c-0.3-0.3-0.6-0.5-0.7-0.4c-0.1,0-0.3,0.3-0.6,0.9c-0.3,0.6-0.4,0.9-0.4,1.1
		c0,0.1,0.1,0.2,0.2,0.3c0.1,0.1,0.3,0.3,0.6,0.4c0.3,0.2,0.4,0.3,0.5,0.3c0.1,0,0.3-0.2,0.6-0.7c0.3-0.5,0.4-0.9,0.4-1.1
		C79.7,81.7,79.6,81.4,79.2,81.1z"/>
</g>
</svg>
