<?xml version="1.0" encoding="iso-8859-1"?>
<!-- Generator: Adobe Illustrator 27.0.0, SVG Export Plug-In . SVG Version: 6.00 Build 0)  -->
<svg version="1.1" id="Layer_1" xmlns="http://www.w3.org/2000/svg" xmlns:xlink="http://www.w3.org/1999/xlink" x="0px" y="0px"
	 width="90px" height="90px" viewBox="0 0 90 90" enable-background="new 0 0 90 90" xml:space="preserve">
<ellipse transform="matrix(0.9717 -0.2361 0.2361 0.9717 -9.3519 11.8961)" fill-rule="evenodd" clip-rule="evenodd" fill="#FED509" cx="45" cy="45" rx="44.3" ry="44.3"/>
<path fill-rule="evenodd" clip-rule="evenodd" fill="#0064B0" d="M78.9,26.9c-16.6-13.7-46.6-12.8-59.8,1.8
	c-0.4,0.8,0.7,0.4,1.9-0.7c6.3-4.7,18.4-7.6,27-6.8c2.5,0.2,5.2,0.9,7.4,1.8c4.5,2,7.8,3.6,12.6,4.2C73.1,27.7,78.2,27.7,78.9,26.9
	L78.9,26.9z M52.7,46.5c2.9,0.6,6.6-0.9,7.4-2.8c1.3-2.1,4-6.8,5.6-9.3c0.9-1.9,3.6-4.4,5.5-5c1.4-0.5,4.7-0.7,6.6-0.3
	c-1.9,0.8-4.3,3.3-5,5.1c-2.1,4.2-5.3,9.5-6.4,10.6c-2.3,4.6-9.6,6.1-14.6,3c-0.7,1.1-2.2,3.8-2.9,5.2c-1.7,0.1-5.2,0.2-7.1,0.2
	c3.1-5.8,7.8-13.9,9.4-16.3c0.2-1.4-1.3-1.7-3-0.5c-2.2,2.5-5.4,7.3-6.4,9.7c-0.4,1,0,2.1,0.8,2.3c0.1,0.7-0.5,1.3-1.4,1.1
	c-2.7,0.4-5.6-1.3-5.7-3.4c1.3-6.1,7.5-11.8,12.6-11.5c2.8,0,8.4,0,11.1,0C57.1,38.4,53.8,44.5,52.7,46.5L52.7,46.5z M27,34.8
	c-4.7,6.8-1.4,13.5,6.5,13.3c0.6,0.3,0.6,0.9-0.2,1.2c-5,0.7-11.4-0.7-12.7-2.8c-1.4,2.5-3.3,5.9-4,6.9c-2.2,0-5.9,0-7.3,0.1
	c3.2-5.6,8.8-14.9,11.1-18.8L27,34.8L27,34.8z M23.1,29.1h7.2l-1.7,3.5h-7.2L23.1,29.1L23.1,29.1z M33.5,29.1h7.2L39,32.6h-7.2
	L33.5,29.1L33.5,29.1z M45,29.1h7.2l-1.7,3.5h-7.2L45,29.1L45,29.1z M28.7,56.4c-0.1-0.1-0.1-0.1,0-0.2l1.1-1.1
	c0.1-0.1,0.1-0.1,0.2,0l1.1,1c0.1,0.1,0.1,0.2,0,0.3l-1,1c-0.1,0.1-0.2,0.1-0.3,0L28.7,56.4L28.7,56.4z M27.5,58.5l1.1,1
	c0.1,0.1,0.2,0.1,0.3,0l1-1l0,0l1.1,1c0,0,0.1,0.1,0.1,0.1c0,0,0.1,0,0.1-0.1l1-1c0.1-0.1,0.1-0.2,0-0.2l-1.1-1
	c-0.1-0.1-0.1-0.1-0.2,0l-1,1l-1-1c-0.1-0.1-0.1-0.1-0.2,0l-1.1,1C27.4,58.3,27.4,58.4,27.5,58.5L27.5,58.5z M36.5,65.2
	c0-0.2-0.1-0.3-0.3-0.4c-0.2-0.1-0.4-0.2-0.6-0.2c-0.4,0-0.7,0.2-0.7,0.5c0,0.2,0.3,0.3,0.8,0.3C36.3,65.3,36.5,65.3,36.5,65.2
	L36.5,65.2z M45,57.4l-0.3,2.4c0,0.1,0,0.2,0,0.2c0,0-0.1,0.1-0.1,0.1l-3,0.9c0.5,0.6,0.8,1.1,1,1.5c0.3,0.6,0.4,1.2,0.4,2
	c0,1.4-0.5,2.4-1.5,3c-0.5,0.3-1.2,0.4-1.9,0.4h-0.9h-0.4H38c-0.1,1.6-0.6,2.8-1.3,3.6c-0.1,0.1-0.2,0.2-0.4,0.2h-3.4
	c-0.4,0-0.6-0.2-0.6-0.5c0-0.2,0.1-0.3,0.3-0.4c0.6-0.3,1.4-0.7,2.2-1.3c1.2-0.7,1.8-1.3,1.8-1.5c-1,0-1.6-0.1-1.9-0.2
	c-0.6-0.2-1-0.8-1-1.7c0-0.8,0.1-1.6,0.4-2.3c0.4-1,0.9-1.5,1.7-1.5c1,0,1.7,0.8,2.1,2.5h0.4h0.4H39c1,0,1.6,0,2-0.1
	c0.1,0,0.2-0.1,0.2-0.2c0-0.1,0-0.1-0.1-0.2c-0.3-0.4-0.6-0.8-1.1-1.2c-0.2-0.2-0.7-0.6-1.3-1.1l0.4-2.3c0-0.1,0.1-0.2,0.1-0.2
	l5.6-1.8c0,0,0.1,0,0.1,0C45,57.3,45,57.3,45,57.4L45,57.4z M51.7,64.6l-0.4-1.5c-0.7,0.5-1,0.8-1,1C50.4,64.4,50.8,64.6,51.7,64.6
	L51.7,64.6z M68.1,65c0-0.3-0.1-0.6-0.3-1c-0.2-0.4-0.4-0.6-0.7-0.6c-0.1,0-0.3,0.1-0.4,0.2c-0.1,0.1-0.1,0.2-0.1,0.4
	c0,0.4,0.1,0.7,0.2,1.1c0.2,0.4,0.5,0.7,0.8,0.7C67.9,65.6,68.1,65.4,68.1,65L68.1,65z M73.7,70c0.1,0.1,0.1,0.1,0,0.2l-1,0.9
	c-0.1,0.1-0.1,0.1-0.2,0l-0.9-0.9l-0.9,0.9c-0.1,0.1-0.1,0.1-0.2,0l-1-0.9c-0.1-0.1-0.1-0.2,0-0.3l0.9-0.9c0.1-0.1,0.2-0.1,0.2,0
	l0.9,0.9l0.8-0.9c0.1-0.1,0.2-0.1,0.3,0L73.7,70L73.7,70z M77.1,70c0.1,0.1,0.1,0.1,0,0.2L76,71.3c-0.1,0.1-0.2,0.1-0.2,0l-1.1-1.1
	c-0.1-0.1-0.1-0.2,0-0.3l1-1c0.1-0.1,0.2-0.1,0.3,0L77.1,70L77.1,70z M77.7,64c0,1.3-0.2,2.3-0.6,2.8c-0.4,0.6-1.3,1-2.4,1h-0.1
	h-0.4H74c-0.7,0-1.2-0.3-1.6-1c-0.4,0.6-0.9,1-1.7,1h-0.3H70h0c-0.2,0-0.5-0.1-0.8-0.4c-0.2-0.2-0.4-0.5-0.5-0.7
	c-0.4,0.8-0.9,1.2-1.7,1.2c-0.8,0-1.4-0.4-1.9-1.1c-0.3,0.7-0.8,1.1-1.3,1.1v0h0h-0.5h-8.6h-0.4h-0.3c-1,0-1.7-0.6-2-1.7
	c-0.2,0.5-0.4,0.7-0.7,0.7c-0.4,0-1-0.1-1.5-0.4c-0.8-0.3-1.2-0.7-1.2-1.2c0-0.5,0.2-1.1,0.6-1.6c0,0,0.6-0.6,1.8-1.6l-0.1-0.6
	l1.7-1.7c0.1-0.1,0.1-0.1,0.2-0.1c0.1,0,0.1,0.1,0.1,0.2l0.7,3.7c0.1,0.7,0.4,1,0.8,1h0.1h0.4h8.6h0.3c0.6,0,0.9-0.2,0.9-0.6
	c0-0.5,0.2-0.9,0.4-1.3c0.4-0.6,1-0.9,1.7-0.9c0.6,0,1.1,0.2,1.5,0.7c0.1,0.1,0.3,0.6,0.8,1.3c0.3,0.5,0.5,0.7,0.9,0.7H70h0.4h0
	c0.5,0,0.9-0.2,1.1-0.5c0-0.1,0.1-0.3,0.3-0.8c0.1-0.3,0.3-0.5,0.5-0.5c0.2,0,0.4,0.2,0.4,0.5c0.1,0.5,0.2,0.7,0.2,0.8
	c0.2,0.3,0.5,0.5,1,0.5h0.1h0.4h1.2c0.3,0,0.4-0.1,0.4-0.2c0-0.1,0-0.2-0.1-0.3c-0.3-0.4-0.7-0.8-1.1-1.2c-0.1-0.1-0.1-0.2,0-0.3
	l1.3-1.9c0.1-0.1,0.1-0.2,0.2-0.2c0,0,0.1,0,0.2,0.1C77.3,61.6,77.7,62.7,77.7,64L77.7,64z M19.6,67.8h-0.4c-0.2,0-0.4-0.1-0.5-0.2
	v0.6c0,0.5-0.1,1.1-0.4,1.8c-0.3,0.6-0.5,1-0.8,1.3c-0.1,0.1-0.2,0.2-0.4,0.2h-3.4c-0.4,0-0.6-0.2-0.6-0.5c0-0.2,0.1-0.3,0.3-0.4
	c0.6-0.3,1.4-0.8,2.3-1.4c1.2-0.8,1.8-1.4,1.8-1.8c0-0.3-0.5-0.9-1.6-1.9l1.1-2.4c0.1-0.1,0.2-0.2,0.3,0c0.5,0.5,0.8,0.8,0.9,0.9
	c0.4,0.3,0.8,0.5,1.2,0.5c0,0,0,0,0,0h0.3h8.6h0.5h1.2c0.3,0,0.4-0.1,0.4-0.2c0-0.1,0-0.2-0.1-0.3c-0.3-0.4-0.7-0.8-1.1-1.2
	c-0.1-0.1-0.1-0.2,0-0.3l1.3-1.9c0.1-0.1,0.1-0.2,0.2-0.2c0,0,0.1,0,0.2,0.1c0.7,0.9,1.1,2.1,1.1,3.4c0,1.3-0.2,2.3-0.6,2.8
	c-0.4,0.6-1.3,1-2.4,1h-0.1h-0.5L19.6,67.8L19.6,67.8z"/>
</svg>
