<?xml version="1.0" encoding="iso-8859-1"?>
<!-- Generator: Adobe Illustrator 27.0.0, SVG Export Plug-In . SVG Version: 6.00 Build 0)  -->
<svg version="1.1" id="Layer_1" xmlns="http://www.w3.org/2000/svg" xmlns:xlink="http://www.w3.org/1999/xlink" x="0px" y="0px"
	 width="90px" height="90px" viewBox="0 0 90 90" enable-background="new 0 0 90 90" xml:space="preserve">
<path fill-rule="evenodd" clip-rule="evenodd" fill="#808285" d="M88.5,64.4L88.5,64.4L88.5,64.4z M1.4,61.9L1.4,61.9L1.4,61.9z
	 M9.2,78.3H6.8c-1.2,0-2,0.1-3.1-0.5C2.4,77,1.5,75.6,1.4,74h0v0v-0.5V61.9c2.6,0,4.7,2.1,4.7,4.7c0,1.1,0,4.7,0,5.8
	c0.1,1.5,0.9,2.2,2.3,2.2h0.1h0.9h0.1c1.3,0,2.1-0.6,2.3-2v-3.2c0-2.6,2.2-4.8,4.8-4.8h5.1c2.6,0,4.8,2.2,4.8,4.8v4
	c0,2.6-2.2,4.8-4.8,4.8h-3.9c-0.9,0-1.8-0.9-2.3-1.8c-0.4,0.6-0.9,1.1-1.5,1.4c-1.1,0.6-2,0.5-3.1,0.5H9.2L9.2,78.3z M41.9,64.6
	h-5.1c-2.6,0-4.8,2.2-4.8,4.8v4c0,2.6,2.2,4.8,4.8,4.8h3.9c0.9,0,1.8-0.9,2.3-1.8c0.4,0.6,0.9,1.1,1.5,1.4c1.1,0.6,2,0.5,3.1,0.5
	h1.6h1.6c1.2,0,2,0.1,3.1-0.5c0.6-0.3,1.2-0.8,1.5-1.4c0.5,0.9,1.4,1.8,2.3,1.8h3.9c1.3,0,2.5-0.5,3.4-1.4c0.8,0.9,2,1.5,3.3,1.5h3
	c1.2,0,2,0.1,3.1-0.5c0.3-0.2,0.6-0.4,0.9-0.7c0.8,0.7,1.8,1.2,3,1.2h4.6c1.2,0,2,0.1,3.1-0.5c1.3-0.7,2.2-2.1,2.2-3.7h0v0v-0.5
	v-9.1c-2.6,0-4.7,2.1-4.7,4.7c0,1.1,0,2.2,0,3.3c-0.1,1.5-0.9,2.2-2.3,2.2h-0.1h-4.6c0-0.2,0-0.4,0-0.6h0v0v-0.5v-9.1
	c-2.6,0-4.7,2.1-4.7,4.7c0,1.1,0,2.2,0,3.3c-0.1,1.5-0.9,2.2-2.3,2.2h-0.1h-3.3c0.1-0.4,0.2-0.8,0.2-1.2v-4c0-2.6-2.2-4.8-4.8-4.8
	h-5.1c-2.6,0-4.8,2.2-4.8,4.8v3.2c-0.1,1.4-1,2-2.3,2h-0.1h-0.5H49c-1.3,0-2.1-0.6-2.3-2v-3.2C46.7,66.7,44.6,64.6,41.9,64.6
	L41.9,64.6z M76.9,64.4L76.9,64.4L76.9,64.4z M57.9,68.3h3c0.7,0,1.3,0.6,1.3,1.3v3.7c0,0.7-0.6,1.3-1.3,1.3h-3
	c-0.7,0-1.3-0.6-1.3-1.3v-3.7C56.6,68.8,57.2,68.3,57.9,68.3L57.9,68.3z M40.8,68.3c0.7,0,1.3,0.6,1.3,1.3v3.7
	c0,0.7-0.6,1.3-1.3,1.3h-3c-0.7,0-1.3-0.6-1.3-1.3v-3.7c0-0.7,0.6-1.3,1.3-1.3H40.8L40.8,68.3z M17.7,68.3c-0.7,0-1.3,0.6-1.3,1.3
	v3.7c0,0.7,0.6,1.3,1.3,1.3h3c0.7,0,1.3-0.6,1.3-1.3v-3.7c0-0.7-0.6-1.3-1.3-1.3H17.7z"/>
<polygon fill-rule="evenodd" clip-rule="evenodd" fill="#808285" points="77.7,83.1 80.7,79.7 83.7,83.1 80.7,86.5 "/>
<polygon fill-rule="evenodd" clip-rule="evenodd" fill="#808285" points="64.4,83.1 67.4,79.7 70.1,82.8 72.8,79.7 75.8,83.1 
	72.8,86.5 70.1,83.4 67.4,86.5 "/>
<polygon fill-rule="evenodd" clip-rule="evenodd" fill="#D61F2A" points="46.8,28.5 22.3,42.3 22.3,42.3 46.8,56.1 46.8,28.5 "/>
<polygon fill-rule="evenodd" clip-rule="evenodd" fill="#9B1B1F" points="46.8,28.5 46.8,56.1 46.8,56.1 71,42.2 71,42.2 46.8,28.5 
	"/>
<polygon fill-rule="evenodd" clip-rule="evenodd" fill="#D61F2A" points="46.8,28.5 71,42.2 71.1,14.7 "/>
<polygon fill-rule="evenodd" clip-rule="evenodd" fill="#E36966" points="46.8,28.5 71.1,14.7 71.1,14.7 46.8,0.9 46.8,0.9 "/>
<polygon fill-rule="evenodd" clip-rule="evenodd" fill="#F69696" points="46.8,28.5 46.8,0.9 22.5,14.7 22.5,14.7 22.5,14.7 "/>
<polygon fill-rule="evenodd" clip-rule="evenodd" fill="#E36966" points="46.8,28.5 22.5,14.7 22.3,42.3 "/>
</svg>
