<?xml version="1.0" encoding="utf-8"?>
<!-- Generator: Adobe Illustrator 27.0.0, SVG Export Plug-In . SVG Version: 6.00 Build 0)  -->
<svg version="1.1" id="Layer_1" xmlns="http://www.w3.org/2000/svg" xmlns:xlink="http://www.w3.org/1999/xlink" x="0px" y="0px"
	 width="90px" height="90px" viewBox="0 0 90 90" enable-background="new 0 0 90 90" xml:space="preserve">
<g>
	<path fill-rule="evenodd" clip-rule="evenodd" fill="#666666" d="M14.5,75.3l1.3-1.2c0.2-0.2,0.4-0.2,0.6,0l1.2,1.1l1.2-1.1
		c0.2-0.2,0.4-0.2,0.6,0l1.3,1.2c0.2,0.2,0.2,0.4,0,0.6l-1.3,1.2c-0.2,0.2-0.4,0.2-0.6,0L17.6,76l-1.2,1.1c-0.2,0.2-0.4,0.2-0.6,0
		l-1.3-1.2C14.4,75.7,14.4,75.5,14.5,75.3L14.5,75.3z M69.1,87.3l1.3-1.2c0.2-0.2,0.4-0.2,0.6,0l1.2,1.1l1.2-1.1
		c0.2-0.2,0.4-0.2,0.6,0l1.3,1.2c0.2,0.2,0.2,0.4,0,0.6L73.9,89c-0.2,0.2-0.4,0.2-0.6,0l-1.2-1.1L70.9,89c-0.2,0.2-0.4,0.2-0.6,0
		l-1.3-1.2C68.9,87.7,68.9,87.4,69.1,87.3L69.1,87.3z M76.3,87.3l1.3-1.2c0.2-0.2,0.4-0.2,0.6,0l1.3,1.2c0.2,0.2,0.2,0.4,0,0.6
		L78.1,89c-0.2,0.2-0.4,0.2-0.6,0l-1.3-1.2C76.1,87.7,76.1,87.4,76.3,87.3L76.3,87.3z M29.8,72.1c-0.8,0-0.7,0.5-0.7,1.2v7.1
		c0.1,0.9-0.3,1.5-1.2,1.7c-0.6,0-1.2,0-1.9,0c-0.4-0.1-0.5-0.4-0.6-0.7c0-1.3,0-2.6,0-3.8l0-0.5c-0.1-0.3-0.3-0.4-0.5-0.4h-0.4
		l-1.6,0c-0.3,0.1-0.4,0.2-0.4,0.5c0,1.3,0,2.6,0,3.9c-0.2,0.6-0.4,0.9-1.1,0.9h-0.5h-1.7l-5.9,0c-0.5,0-0.8-0.4-0.9-0.9v-4
		c-0.1-0.3-0.2-0.4-0.5-0.5h-1.6l-0.7,0c-0.4,0.1-0.4,0.3-0.5,0.4v4.3c0,1.4,1.1,2.5,2.6,2.7H13h8.8c0.5,0,0.9,0,1.4-0.1
		c0.7-0.3,0.8-0.4,1.1-0.6c0.1,0.1,0.2,0.2,0.3,0.3c0.5,0.4,0.8,0.4,1.6,0.4H28h0.7c0.7,0,1.4-0.2,1.9-0.7c0.1,0,0.1,0.1,0.2,0.2
		c0.8,0.6,1,0.6,2.1,0.6h2.4h0.9l0.4,0c0.6-0.1,1-0.3,1.4-0.6c0.4,0.4,0.9,0.6,1.5,0.6h0.3h1.4h0.6c0.3,0,0.5,0,0.7,0
		c1.3-0.3,2.1-0.9,2.3-2.2l0-3.7c-0.1-0.9-0.9-1.5-1.8-1.6l-5.8,0c-1.3,0-1.9,1-1.9,2l0,2.7c0,0.8-0.6,0.7-1.2,0.7h-0.7
		c-1.3,0-1.3-0.8-1.3-1.7l0-7.8c-0.1-0.4-0.3-0.5-0.7-0.5H29.8L29.8,72.1z M38.3,79.5c0-0.8,0.2-0.9,1.1-0.9h1.4c0.5,0,1,0,1.1,0.5
		c0.1,0.3,0,1.8,0,2.2c0,0.7-0.3,0.8-1,0.8c-0.6,0-1.2,0-1.8,0c-0.7,0-0.9-0.4-0.9-1L38.3,79.5L38.3,79.5z M57,78.3l0.1,3.2
		c-0.1,0.8,0.7,0.7,1.3,0.7c0.4,0,1.6,0,1.8,0c0.4,0,0.4-0.5,0.4-0.8c0-0.8,0-1.7,0-2.7c0-1,0.4-1.9,1.6-1.9l6.4,0
		c0.8,0.1,1.4,0.9,1.5,1.7c0,1,0,2,0,2.9c0,0.6,0.2,0.8,0.8,0.8l1.9,0c0.7-0.3,0.9-0.5,0.9-1.2c0-1.2,0-2.3,0-3.5
		c0-0.6,0.2-0.8,0.8-0.8c0.4,0,0.9,0,1.3,0c0.6,0,0.8,0.2,0.8,0.8c0,1,0,2.1,0,3.1v0.6c0,0.7,0.1,1,0.9,1h1.5c0.4,0,0.7-0.1,0.8-0.5
		v-4.6c0.1-0.3,0.4-0.4,0.7-0.4c0.6,0,1.2,0,1.8,0c0.3,0,0.4,0.2,0.5,0.4l0,4.4c0,1.5-1.1,2.4-2.4,2.5c-0.1,0-0.2,0-0.3,0h-3.1
		c-0.6,0-1.1-0.2-1.5-0.6c-0.1-0.1-0.1,0-0.1,0c-0.2,0.3-0.6,0.5-0.9,0.6c-0.2,0.1-0.6,0.1-0.9,0.1h-2.8c-0.8-0.1-1-0.3-1.4-0.6
		c-0.6,0.5-1.5,0.7-2.3,0.7h-1.4h-1c-0.5-0.1-0.8-0.1-1.2-0.6c-0.1,0-0.1-0.1-0.1-0.1c-0.6,0.4-0.7,0.5-1.4,0.6l-0.2,0
		c0,0-5.5,0-5.6,0c-1.3,0-1.8-0.6-2-1.8l0-3.3c0-0.4-0.4-0.5-0.8-0.5c-0.7,0-1.4,0-2.1,0c-0.6,0-0.8,0.3-0.8,0.8c0,0.7,0,1.4,0,2.1
		c0,0.6,0.4,0.7,0.9,0.7c0.5,0,0.9,0,1.4,0c0.5,0,0.5,0.4,0.6,0.7v0.4c0,0.4,0,0.7-0.5,0.9c-0.8,0-1.8,0-2.6,0
		c-1.4-0.1-2.4-0.8-2.6-1.9l-0.1-3.7c0-1.1,0.7-1.8,1.7-1.9l5.2,0h0.5C56,76.7,56.8,77.2,57,78.3L57,78.3z M67.2,81.1v-1.3v-0.4
		c0-0.7-0.4-0.7-1.1-0.8h-1.5h-0.5c-0.6,0.1-0.6,0.4-0.6,0.9l0,2c0.1,0.9,0.9,0.7,1.3,0.7h1.5C67.2,82.1,67.2,81.8,67.2,81.1z"/>
	<polygon fill-rule="evenodd" clip-rule="evenodd" fill="#0066CC" points="45.8,0.7 34.6,11.4 47.6,23.8 34.6,36.2 45.8,47 
		69.9,23.8 	"/>
	<polygon fill-rule="evenodd" clip-rule="evenodd" fill="#0066CC" points="58.7,59.4 47.6,48.7 71.7,25.5 82.9,36.2 	"/>
	<path fill-rule="evenodd" clip-rule="evenodd" fill="#FF0033" d="M31.1,36.2l12.9-12.4L32.9,13.1L8.7,36.2
		C21.1,48.1,33.4,60,45.8,71.8L57,61.1L31.1,36.2z"/>
</g>
</svg>
