<?xml version="1.0" encoding="iso-8859-1"?>
<!-- Generator: Adobe Illustrator 27.0.0, SVG Export Plug-In . SVG Version: 6.00 Build 0)  -->
<svg version="1.1" id="Layer_1" xmlns="http://www.w3.org/2000/svg" xmlns:xlink="http://www.w3.org/1999/xlink" x="0px" y="0px"
	 width="90px" height="90px" viewBox="0 0 90 90" enable-background="new 0 0 90 90" xml:space="preserve">
<g>
	<path fill-rule="evenodd" clip-rule="evenodd" fill="#000066" d="M31.6,0L3.8,35l19.3,24.2l16.6,0.1l-9.3-11.9H49l10.2-12.7
		C59.2,34.8,31.9,0,31.6,0L31.6,0z M23.3,23.1h16.5v14.2H23.3V23.1z"/>
	<path fill-rule="evenodd" clip-rule="evenodd" fill="#009999" d="M43,9.8l15.9-0.2l19.6,25L51,70.1l-15.1-0.2l26.8-34.7
		C62.7,35.2,42.5,9.4,43,9.8L43,9.8z M69.8,47.2v14.2h16.5V47.2H69.8z"/>
</g>
<path fill-rule="evenodd" clip-rule="evenodd" d="M13.2,75.6l0.1,2h-2.6l-0.1-2H13.2L13.2,75.6z M82.8,79.2l0.2,4.5
	c0,0.7,0,1.2-0.1,1.4c-0.2,0.5-0.8,0.8-1.8,0.8h-2.5h-0.7h-1.1c-0.4,0-0.9-0.2-1.3-0.5c-0.1,0.4-0.4,0.5-0.8,0.5h-3.1h-0.6h-0.3
	c-0.7,0-1.2-0.2-1.5-0.5c-0.3,0.4-0.9,0.5-1.6,0.5h-3.2c-0.6,0-1.1-0.2-1.3-0.5c-0.2,0.3-0.5,0.5-0.8,0.5h-0.8h-0.9h-1.4
	c-1.8,0-2.8-0.6-3.2-1.9C56,83.7,56,83.4,56,83.2l-0.3-3.2h-0.3c-0.5,0-0.8,0.1-1,0.2c-0.2,0.1-0.2,0.5-0.2,1l0.2,2.6h1.2l0.1,2.2
	h-1.7c-0.6,0-1.1-0.1-1.4-0.2c-0.4-0.2-0.7-0.5-0.9-1.1c-0.1-0.2-0.1-0.6-0.1-0.9l-0.2-3.2c-0.1-1.4,0.4-2.1,1.5-2.1h2.5
	c0.8,0,1.4,0.1,1.8,0.2c0.6,0.2,1,0.6,1.2,1.2c0.1,0.3,0.1,0.6,0.1,0.9l0.1,2c0,0.1,0,0.2,0.1,0.3c0.1,0.4,0.5,0.7,1,0.7H60l0,0h1.5
	c0.6,0,0.8-0.3,0.8-0.9l-0.1-1.4c-0.1-1.3,0-2,0.1-2.3c0.2-0.5,0.8-0.7,1.8-0.7h2.6c0.7,0,1.2,0.1,1.6,0.2c0.5,0.2,0.8,0.6,0.9,1.1
	c0.1,0.3,0.1,0.6,0.2,0.9l0.1,2.2c0,0.1,0,0.2,0,0.2c0.1,0.3,0.3,0.5,0.7,0.5h0.7l0,0h1c0.4,0,0.7-0.1,0.7-0.2c0-0.1,0.1-0.3,0-0.7
	l-0.2-4.4l3.1,0.8l0.2,3.7c0,0.1,0,0.3,0,0.3c0.1,0.3,0.3,0.4,0.8,0.4h0.6h0.7h1.3c0.4,0,0.7-0.1,0.7-0.2c0-0.1,0.1-0.3,0-0.7
	l-0.2-4.4L82.8,79.2L82.8,79.2z M82.2,87l0.1,2h-2.6l-0.1-2H82.2L82.2,87z M76.9,87l0.1,2h-2.6l-0.1-2H76.9L76.9,87z M73.5,87l0.2,2
	h-2.6l-0.1-2H73.5L73.5,87z M66.4,79.9H66c-0.6,0-1,0.2-1,0.5c0,0.1,0,0.5,0.1,1.3l0.2,1.9h0.4c0.5,0,0.8-0.1,0.9-0.2
	c0.1-0.1,0.1-0.4,0.1-0.8L66.4,79.9L66.4,79.9z M45.7,80.7l0.2,3c0,0.7,0,1.1-0.1,1.4c-0.2,0.5-0.9,0.7-1.8,0.7h-3.2
	c-0.6,0-1.1-0.2-1.3-0.5c-0.2,0.3-0.5,0.5-0.8,0.5h-0.8h-0.9h-0.8c-0.4,0-0.9-0.2-1.3-0.5c-0.1,0.4-0.4,0.5-0.8,0.5h-3.2l0,0h-0.5
	c-0.4,0-0.7,0.1-0.9,0.4c-0.2,0.2-0.2,0.5-0.1,0.9l-2.1,1.6c-0.7,0-1.8-0.4-3.2-1.1c-1.5-0.7-2.3-1.4-2.4-1.9H20l0,0h-0.9
	c-0.4,0-0.7-0.1-0.9-0.4c0.1,1.1-0.1,1.8-0.4,2.1c-0.3,0.3-1.2,0.5-2.5,0.5H9.9c-1.3,0-2.1-0.5-2.4-1.5c-0.1-0.3-0.1-0.6-0.1-0.9
	l-0.4-7.2l3,0.8l0.4,5.9c0,0.1,0,0.2,0,0.3c0.1,0.3,0.3,0.5,0.7,0.5h2.6c0.5,0,0.8,0,0.9-0.1c0.2-0.1,0.3-0.4,0.3-0.8
	c0-0.3,0-1.1-0.1-2.2l-0.2-4.4l3,0.8l0.2,3.6c0,0.1,0,0.2,0,0.2c0.1,0.4,0.4,0.7,0.8,0.7h1l0,0H21l-0.2-2.4c-0.1-1.3-0.1-2.1,0-2.4
	c0.2-0.4,0.8-0.7,1.9-0.7h1.5c0.7,0,1.2,0.1,1.6,0.2c0.5,0.2,0.8,0.6,0.9,1.1c0.1,0.3,0.1,0.6,0.2,1l0.2,3c0,0.4-0.2,0.9-0.5,1.3
	c-0.5,0.6-1.2,0.9-2,0.9c0,0.1,0.3,0.3,0.8,0.6c0.6,0.3,1,0.5,1.3,0.5c-0.1-0.6,0-1.2,0.1-1.6c0.4-1.1,1.3-1.6,2.8-1.6h0.2l0,0h1.6
	c0.4,0,0.7-0.1,0.7-0.2c0-0.1,0.1-0.3,0-0.7l-0.2-4.4l3.1,0.8l0.2,3.7c0,0.1,0,0.3,0,0.3c0.1,0.3,0.3,0.4,0.8,0.4h0.4h0.9h0.6
	c0.6,0,0.8-0.3,0.8-0.9l-0.1-1.4c-0.1-1.3,0-2.1,0.1-2.4c0.2-0.4,0.8-0.7,1.8-0.7H43c0.7,0,1.2,0.1,1.6,0.2c0.5,0.2,0.8,0.6,1,1.1
	C45.6,80,45.6,80.3,45.7,80.7L45.7,80.7z M42.7,79.9h-0.4c-0.6,0-1,0.2-1,0.5c0,0.1,0,0.5,0.1,1.3l0.2,1.9h0.4
	c0.5,0,0.8-0.1,0.9-0.2c0.1-0.1,0.1-0.4,0.1-0.8L42.7,79.9L42.7,79.9z M36.1,87h-2.6l0.1,2h2.6L36.1,87L36.1,87z M32.8,87h-2.6
	l0.1,2h2.6L32.8,87L32.8,87z M24.5,79.8h-0.8c-0.5,0-0.8,0.3-0.8,0.9c0,0.4,0.1,1.1,0.2,2.2l0.1,0.7h0.6c0.7,0,1-0.3,1-0.9
	L24.5,79.8z"/>
</svg>
