<?xml version="1.0" encoding="iso-8859-1"?>
<!-- Generator: Adobe Illustrator 27.0.0, SVG Export Plug-In . SVG Version: 6.00 Build 0)  -->
<svg version="1.1" id="Layer_1" xmlns="http://www.w3.org/2000/svg" xmlns:xlink="http://www.w3.org/1999/xlink" x="0px" y="0px"
	 width="90px" height="90px" viewBox="0 0 90 90" enable-background="new 0 0 90 90" xml:space="preserve">
<path fill-rule="evenodd" clip-rule="evenodd" fill="#000066" d="M83.2,25.3c-6.1-11.8-23.5-15.5-41.4-9.8c0,0.7-0.2,2.1-0.5,4.3
	c-0.4,2.4-0.6,3.9-0.6,4.5L40.4,28v0c0,2.6,0.5,4.4,1.5,5.6c1,1.2,2.4,1.8,4.2,1.8c1,0,1.8-0.1,2.5-0.4c0.7-0.3,1.1-0.8,1.1-1.5
	c0-0.4-0.2-0.9-0.7-1.5c-0.4-0.6-1-0.9-1.7-0.9L46,31.2c-0.5,0.1-0.7,0-0.8-0.2c0.6-1.6,1.6-2.8,3.2-3.7c1.6-0.9,2.9-1.3,4-1.3
	c1.6,0,2.8,0.2,3.7,0.6c0.9,0.4,1.3,1.1,1.3,2.1c0,0.6-0.1,1-0.2,1.4c-0.1,0.3-0.7,1.4-1.7,3.2c0.5,0,0.8,0.1,1,0.1
	c0.6,0,1.1-0.1,1.5-0.2c0.4-0.1,0.8-0.4,1.2-0.7v0c0.7-0.5,1.3-1.2,2-2c0.2-0.3,0.7-1,1.4-2c0.3-0.6,0.6-1.1,0.9-1.5
	c0.5-1,1.1-1.8,1.7-2.6c0.3-0.4,0.8-0.8,1.2-1.2c0.5-0.4,0.9-0.8,1.2-1c0.3-0.3,0.7-0.9,1.3-1.8c0.2-0.3,0.4-0.7,0.8-1.3
	c0.8,0.8,1.5,1.6,2.1,2.5c0.9,1.2,1.3,2.1,1.3,2.8c0,1.2-0.4,2.4-1.2,3.5C71,28.9,70,29.4,69,29.4c-0.2,0-0.6-0.1-1.2-0.2
	c-0.6-0.1-1.1-0.2-1.5-0.2c-0.9,0-1.7,0.5-2.6,1.5c-0.2,0.2-0.8,1-1.8,2.4l-2.6,3c0,0,0,0,0,0c-0.7,0.7-1.3,1.2-1.8,1.4
	c-0.5,0.2-1.1,0.3-1.8,0.3c-0.3,0-0.8,0-1.5-0.1c-0.7-0.1-1.2-0.1-1.3,0c-1.4,1.5-2.8,2.9-4.3,4.3c-1.6,1.2-3.3,1.8-5,1.8
	c-2.1,0-3.7-0.9-4.9-2.6c-0.2-0.3-0.3-0.5-0.5-0.8l-3.7,6.4c0.9,0.3,1.4,0.6,1.7,0.7c0.3,0.1,1,0.5,2.2,1.2c1.2,0.7,1.8,1.5,1.8,2.5
	c0,0.3-0.1,0.6-0.3,0.9c-1.4,3.2-2.8,4.5-4.6,5.6c-0.8,0.4-2.4,2.2-5.6,3c-2.6,0.6-10.2,3.6-11.8,5.5c-1.3,1.5-4.8,5.1-3.8,2.7
	l0.8-1.8c1-2.3,2.3-4.4,3.8-6.2c2.5-3.1,5.1-4.2,8.4-6.4l5.7-9.1l0,0l3.1-5c0.7-1.4,1.1-3.2,1.1-5.4v-0.1c0,0,0,0,0,0l0.2-3.3
	c0-0.5,0.1-1.8,0.4-4c0.2-2.2,0.5-3.7,0.7-4.6c0.2-0.9,0.6-1.9,1-3.1c0.4-1,1-2.3,1.7-3.9c-3,1-6,2.3-9,3.8
	C10.8,30.4-0.4,50.7,6.8,64.7s30.3,16.6,51.3,5.7C79.2,59.6,90.4,39.3,83.2,25.3z M57.5,19.5c0,0.3-0.2,0.6-0.3,0.8
	c-0.4,0.8-0.8,1.1-1.3,1.1c-0.3,0-0.6-0.2-0.8-0.5l-0.3-0.6c-0.1,0.1-0.1,0.2-0.2,0.3c-0.1,0.1-0.1,0.1-0.2,0.2
	c-0.4,0.6-0.8,0.9-1.5,0.9c-0.4,0-0.7-0.2-1-0.5c-0.3-0.3-0.4-0.8-0.4-1.3c0-0.5,0.1-1,0.2-1.5c0.1-0.5,0.3-0.7,0.5-0.7
	c0,0,0.1,0.1,0.1,0.4c0,0.3,0,0.5,0,0.7c0,0.2,0.1,0.4,0.2,0.5c0.1,0.2,0.3,0.3,0.7,0.3c0.3,0,0.6-0.1,0.8-0.3
	c0.2-0.2,0.4-0.5,0.6-0.8c0.1-0.2,0.2-0.2,0.3-0.2c0.1,0,0.2,0.1,0.2,0.3c0,0.2,0.1,0.3,0.2,0.4c0.2,0.3,0.5,0.4,0.8,0.4
	c0.1,0,0.3,0,0.4-0.1c0.1-0.1,0.2-0.2,0.2-0.2c0.2-0.2,0.3-0.5,0.5-0.9c0-0.1,0-0.2,0.1-0.4c0.2,0,0.2,0.2,0.2,0.5
	C57.6,18.9,57.5,19.2,57.5,19.5z M39.5,66.8c-0.2,0.7-0.5,1.4-1,2.2s-1,1.6-1.8,2.3c-0.5,0.5-0.8,0.7-1.1,0.7
	c-0.2,0-0.6-0.3-1.2-0.8c-0.6-0.5-1.1-1-1.6-1.3c-0.5-0.4-0.9-0.7-1.2-1.1c-0.3-0.3-0.5-0.6-0.5-0.9c0.3-0.7,0.6-1.3,0.8-1.7
	c0.6-1.3,1-2.2,1.3-2.8c0.5-0.9,1-1.7,1.5-2.7c0.1-0.2,0.3-0.4,0.5-0.8c0.2,0.2,0.3,0.3,0.5,0.4c0.2,0.1,0.4,0.2,0.7,0.4
	c1.2,1,2,1.7,2.4,2.2c0.4,0.5,0.7,1.1,0.8,1.8C39.7,65.5,39.7,66.2,39.5,66.8z M49.5,66.8c-0.2,0.7-0.5,1.4-0.9,2.2s-1,1.6-1.8,2.3
	C46.3,71.8,46,72,45.7,72c-0.2,0-0.6-0.3-1.2-0.8c-0.6-0.5-1.1-1-1.6-1.3c-0.5-0.4-0.9-0.7-1.2-1.1c-0.4-0.3-0.5-0.6-0.5-0.9
	c0.3-0.7,0.6-1.3,0.8-1.7c0.6-1.3,1-2.2,1.3-2.8c0.5-0.9,1-1.7,1.5-2.7c0.1-0.2,0.3-0.4,0.5-0.8c0.2,0.2,0.3,0.3,0.5,0.4
	c0.2,0.1,0.4,0.2,0.7,0.4c1.2,1,2,1.7,2.4,2.2c0.4,0.5,0.7,1.1,0.8,1.8C49.7,65.5,49.7,66.2,49.5,66.8z M59.3,65.4
	c-0.2,0.7-0.5,1.4-1,2.2s-1,1.6-1.8,2.3c-0.5,0.5-0.8,0.7-1.1,0.7c-0.2,0-0.6-0.2-1.2-0.8c-0.6-0.5-1.1-1-1.6-1.3
	c-0.5-0.4-0.9-0.7-1.2-1.1c-0.3-0.3-0.5-0.6-0.5-0.9c0.3-0.7,0.6-1.3,0.8-1.7c0.6-1.3,1-2.2,1.3-2.7c0.5-0.9,1-1.8,1.5-2.7
	c0.1-0.2,0.3-0.4,0.5-0.8c0.2,0.2,0.3,0.3,0.5,0.4c0.2,0.1,0.4,0.3,0.7,0.4c1.2,1,2,1.7,2.4,2.2c0.4,0.5,0.7,1.1,0.8,1.8
	C59.6,64.1,59.5,64.7,59.3,65.4z M72.4,33.9c-0.3,0.6-0.5,1.1-0.5,1.3c-0.3,0.6-0.6,1.1-0.9,1.5c-1.2,1.6-2.2,2.3-3,2.3c0,0,0,0,0,0
	c-0.4,0-0.7-0.1-1.1-0.3c-0.3-0.2-0.7-0.4-1-0.4c-0.5-0.1-1.1,0.1-1.8,0.6c-0.6,0.5-1,1-1,1.5l0,0c0,0.3,0.1,0.6,0.3,0.9
	c0.1,0.1,0.3,0.3,0.7,0.6c0.4,0.3,0.7,0.5,0.8,0.7c0.5,0.5,0.8,0.8,0.8,1.1c0,0.6-0.3,1.3-0.9,2.2c-0.3,0.4-0.5,0.7-0.7,0.9
	c-0.1,0.1-0.3,0.2-0.4,0.2S63.2,47,62.8,47c-0.2,0-0.6-0.1-1.2-0.2c-0.6-0.2-1-0.2-1.2-0.2c-0.6,0-1.2,0.2-1.7,0.5
	c-0.3,0.2-0.8,0.7-1.4,1.6c-0.7,0.8-1.2,1.5-1.7,2c-1.7,1.9-3.4,2.8-5.3,2.8c-0.5,0-1-0.1-1.5-0.3c-1.1-0.4-1.8-0.6-2.1-0.6
	c-0.8,0-1.6,0.1-2.2,0.4c-0.6,0.3-1.3,0.7-2,1.2c-0.7,0.5-1.2,0.8-1.6,0.7c-0.1-0.1-0.2-0.2-0.2-0.5c0-0.3,0.2-0.6,0.4-0.9
	c0.9-1.2,1.7-2.1,2.4-2.8c0.4-0.5,0.9-0.9,1.6-1.4c0.9-0.8,1.6-1.4,2.2-1.8c1-0.6,2.1-1,3.1-1c0.6,0,1.2,0.1,1.8,0.4
	c0.7,0.3,1.1,0.4,1.1,0.4c1.1,0,2-0.2,2.8-0.7c0.7-0.5,1.5-1.3,2.4-2.4l1.6-2.2l0,0c0.2-0.5,0.4-1,0.7-1.6c0.2-0.4,0.4-0.8,0.8-1.4
	c0.8-1.2,1.7-2.2,2.7-3.1c1-0.8,2-1.2,2.8-1.2l0.7,0.1c0.2,0,0.5,0.1,0.8,0.3c0.4,0.1,0.6,0.2,0.7,0.2c0.4,0,0.8-0.2,1.1-0.5
	c0.3-0.3,0.6-0.8,1-1.4c0.4-0.6,0.6-0.9,0.8-0.8C72.6,32.6,72.6,33.1,72.4,33.9z"/>
<path fill-rule="evenodd" clip-rule="evenodd" fill="#000066" d="M86.7,22.9C78.6,7.6,53.3,5.1,30.3,17.2
	c-23,12.2-35.1,34.6-27,49.9c8.1,15.3,33.4,17.9,56.4,5.7C82.7,60.6,94.8,38.2,86.7,22.9z M59,71.4C37.1,83,13,80.6,5.3,66
	C-2.4,51.4,9.2,30.1,31,18.5C52.9,7,77,9.4,84.7,24C92.4,38.6,80.8,59.9,59,71.4z"/>
</svg>
