<?xml version="1.0" encoding="iso-8859-1"?>
<!-- Generator: Adobe Illustrator 27.0.0, SVG Export Plug-In . SVG Version: 6.00 Build 0)  -->
<svg version="1.1" id="Layer_1" xmlns="http://www.w3.org/2000/svg" xmlns:xlink="http://www.w3.org/1999/xlink" x="0px" y="0px"
	 width="90px" height="90px" viewBox="0 0 90 90" enable-background="new 0 0 90 90" xml:space="preserve">
<path fill-rule="evenodd" clip-rule="evenodd" fill="#F7941D" d="M44.3,73.3c0.2-0.1,0.2-0.2,0.5-0.3c0.5-0.1,2,0.1,2.3-0.1
	c0.3-0.2,0.4-0.8,0.5-1.1c0.1-0.3,0.3-0.9,0.4-1.3c-0.5,0-1.1,0-1.6,0c-0.5,0-1.1-0.1-1.4,0.3L44.3,73.3z"/>
<path fill-rule="evenodd" clip-rule="evenodd" fill="#AB2188" d="M68.9,87.2l2.5,0c0.6,0,0.6-0.6,0.8-1.1l0.4-1.4l-2.4,0
	c-0.5,0-0.6,0.2-0.7,0.6C69.3,85.9,69.1,86.5,68.9,87.2L68.9,87.2z"/>
<path fill-rule="evenodd" clip-rule="evenodd" fill="#AB2188" d="M11.6,76.3c0.5,0,1,0,1.5,0c1.6,0,1.3,0.2,1.8-1.3
	c0.1-0.3,0.3-0.9,0.3-1.2c-0.5,0-1,0-1.5,0c-1.5,0-1.3-0.2-1.8,1.3C11.8,75.5,11.6,75.9,11.6,76.3L11.6,76.3z"/>
<path fill-rule="evenodd" clip-rule="evenodd" fill="#AB2188" d="M20.8,87.2c0.4,0,1.9,0,2.4,0c0.6,0,0.6-0.5,0.8-1.1
	c0.1-0.4,0.3-1,0.4-1.4c-0.6,0-1.7,0-2.3,0c-0.5,0-0.6,0.1-0.7,0.6C21.2,85.9,21,86.5,20.8,87.2L20.8,87.2z"/>
<path fill-rule="evenodd" clip-rule="evenodd" fill="#AB2188" d="M17.3,87.2c0.1-0.3,0.6-2.2,0.7-2.3c0.2-0.3,1-0.2,1.4-0.2
	c0.5,0,1,0,1.5,0c-0.1,0.4-0.2,0.9-0.4,1.2c-0.1,0.3-0.2,1-0.4,1.1c-0.3,0.3-1,0.2-1.4,0.2C18.3,87.2,17.8,87.2,17.3,87.2L17.3,87.2
	z"/>
<path fill-rule="evenodd" clip-rule="evenodd" fill="#AB2188" d="M72.3,87.2c0.1-0.4,0.2-0.9,0.4-1.2c0.4-1.5,0.2-1.3,1.8-1.3
	c0.5,0,1.1,0,1.5,0c-0.1,0.4-0.6,2.2-0.7,2.3c-0.2,0.3-0.9,0.2-1.4,0.2C73.3,87.2,72.8,87.2,72.3,87.2L72.3,87.2z"/>
<path fill-rule="evenodd" clip-rule="evenodd" fill="#AB2188" d="M78.1,87.2c0.4,0.1,1.1,0,1.5,0c0.4,0,1.1,0.1,1.4-0.2
	c0.1-0.1,0.7-2,0.8-2.3c-0.5,0-1,0-1.5,0c-0.4,0-1.1-0.1-1.4,0.2C78.7,85,78.2,86.8,78.1,87.2L78.1,87.2z"/>
<path fill-rule="evenodd" clip-rule="evenodd" fill="#AB2188" d="M17.9,82.2c-0.4,0.9-0.2,1.8-1.5,2.8c-1,0.7-2.3,0.6-3.8,0.6H6.1
	c-0.8,0-1.3-0.1-1.6-0.5c-0.4-0.4-0.5-1-0.3-1.7L6.6,75c0.4-1.4,1.5-1.2,3.1-1.2c0,0.3-2.4,8.3-2.6,9.1c-0.1,0.5-0.5,1.4,0.5,1.4
	c1.5,0,3.1,0,4.6,0c0.8,0,1.4,0.1,2-0.4c0.4-0.4,0.5-1,0.7-1.6c0.4-1.2,0.7-2.4,1.1-3.6c0.4-1.2,0.7-2.4,1.1-3.6
	c0.1-0.4,0.2-0.6,0.4-0.8c0.1-0.2,0.4-0.4,0.7-0.5c0.4-0.1,1.7-0.1,2.2-0.1l-1.8,6.1c-0.2,0.5-0.1,0.9,0.5,1c0.5,0,2.8,0,3.1-0.1
	c0.8-0.3,0.9-1,1.2-2l1.1-3.7c0.3-0.9,0.7-1.4,1.8-1.4c0.4,0,1.2,0,1.6,0c-0.4,1.2-0.7,2.3-1.1,3.5c-0.2,0.8-0.8,2.9-1.2,3.4
	c-0.3,0.4-0.7,0.8-1.2,1.1c-0.6,0.3-1.2,0.3-2,0.3C20.9,82.2,19.4,82.1,17.9,82.2L17.9,82.2z"/>
<path fill-rule="evenodd" clip-rule="evenodd" fill="#AB2188" d="M43.9,74.5c-0.2,0.4-1.2,3.6-1.4,4.3c-0.3,1-0.4,2.1-1.7,2.1
	c-0.6,0-1.3,0-1.9,0c0-0.2,0.2-0.6,0.2-0.9c0.4-1.3,1-3.1,1.3-4.3c0.2-0.7-0.2-1.3-0.6-1.6c-0.5-0.4-1.1-0.3-1.9-0.3
	c-1.2,0-6.2-0.1-6.7,0.1c-0.5,0.2-0.9,0.6-1.1,1.1l-1,3.4c-0.4,1.3-1,2.4,0,3.3c0.5,0.4,1.1,0.4,1.9,0.4h2.2c0.7,0,1.5,0,2.2,0
	c0,0.1-0.3,1.1-0.4,1.2c-0.2,0.3-0.5,0.6-0.9,0.8c-0.5,0.2-2.5,0.1-3.2,0.1h-3.3c-0.8,0-1.9-0.2-2.1,1.2c2.7,0,5.4,0,8.1,0
	c1.5,0,2.4,0.1,3.4-0.7c1.2-1,1-1.9,1.4-2.7c0.9,0,3.5,0.1,4.1,0c1.1-0.2,2-1,2.3-1.9c0.2-0.5,0.3-1.1,0.5-1.6l1-3.2
	c0.1-0.3,0.2-0.5,0.2-0.8c0.1-0.2,0.2-0.6,0.2-0.9C45.6,73.8,44.5,73.6,43.9,74.5z M37.4,76.4c-0.5,1.5-0.9,3-1.4,4.5
	c-1,0-2,0-2.9,0c-0.5,0-1,0.1-1.3-0.2c-0.3-0.3,0-0.8,0.1-1.1c0.2-0.8,0.5-1.5,0.7-2.3c0.1-0.4,0.2-0.8,0.3-1.1
	c0.3-1.1,0.9-1.1,1.8-1.1h1.5c0.4,0,1.1-0.1,1.3,0.2C37.8,75.5,37.5,76,37.4,76.4z"/>
<path fill-rule="evenodd" clip-rule="evenodd" fill="#AB2188" d="M83.6,73.8c-0.5,0-0.8,0.1-1.2,0.3c-0.3,0.2-0.5,0.5-0.6,0.9
	c-0.1,0.4-0.2,0.7-0.4,1.2l-1.1,3.4c-0.3,0.9-0.6,1.3-1.7,1.3c-0.5,0-1,0.1-1.3-0.2c-0.3-0.3,0-0.8,0.1-1.2c0.1-0.4,0.2-0.8,0.4-1.1
	l1.1-3.4c0.1-0.3,0.3-0.8,0.3-1.1c-0.6,0-1.9-0.1-2.4,0.1c-0.7,0.3-0.8,0.7-1,1.5c-0.4,1.3-0.8,2.5-1.2,3.8
	c-0.5,1.5-0.7,1.7-2.1,1.7c-0.4,0-0.8,0-1-0.2c-0.2-0.3,0-0.7,0.1-1l0.9-2.9c0.2-0.6,0.5-1.4,0.2-2c-0.2-0.6-0.8-0.9-1.6-0.9
	c-1.7,0-3.3,0-5,0c-0.9,0-1.5,0-2.2,0.4c-0.5,0.3-1,0.7-1.3,1.3c-0.3,0.5-0.5,1.3-0.6,1.9c-0.2,0.7-0.4,1.3-0.6,1.9
	c-0.2,0.8-0.3,1.3-1,1.6c-0.4,0.2-0.7,0.1-1.1,0.1c-0.4,0-0.8,0.1-1.1-0.2c-0.2-0.3,0-0.7,0-1l0.9-2.9c0.2-0.6,0.5-1.3,0.3-2
	c-0.2-0.6-0.7-1-1.5-1c-1.7,0-3.4,0-5.1,0c-2.1,0-3-0.3-3.5,1.5c-0.4,1.3-0.8,2.6-1.2,3.8c-0.2,0.6-0.5,1.3-0.2,2
	c0.2,0.6,0.7,1,1.5,1c1.7,0,3.4,0,5.1,0c-0.4-1.5-1.3-1.2-2.9-1.2c-0.9,0-1-0.4-0.7-1.1l1-3.2c0.2-0.7,0.2-1,0.7-1.4
	C53.2,75,54,75,54.6,75c1.2,0,2.4-0.3,2,1c-0.1,0.3-0.2,0.5-0.2,0.8l-1,3.2c-0.2,0.6-0.4,1.1,0,1.6c0.3,0.5,0.8,0.5,1.6,0.5l4.2,0
	c1.1,0,1.3-0.4,1.7-0.4c0.2,0.2,0.3,0.3,0.6,0.4c0.4,0.1,2.5,0.1,3,0.1c0.8,0,2.2,0.1,3-0.1c0.3-0.1,0.6-0.3,0.7-0.3
	c0.4,0.3,0.5,0.4,1.2,0.4c0.6,0,2.9,0,3.3,0c0.8-0.1,1-0.3,1.3-0.4c0.2,0.1,0.3,0.3,0.7,0.4c0.3,0.1,2.9,0,3.3,0
	c1.3,0,2.3-0.5,2.9-1.6c0.3-0.5,1.6-4.9,1.9-5.9c0.1-0.2,0.2-0.7,0.3-0.9C84.6,73.8,84.1,73.8,83.6,73.8z M69.8,76.1l-1,3.3
	c-0.2,0.7-0.4,1.4-1.5,1.4c-0.4,0-2.6,0.1-2.9-0.1c-0.4-0.2-0.3-0.6-0.2-1l1-3.3c0.2-0.8,0.6-1.3,1.5-1.4c0.3,0,2.6,0,2.8,0
	C70,75.3,69.9,75.7,69.8,76.1z"/>
<path fill-rule="evenodd" clip-rule="evenodd" fill="#F7941D" d="M43.8,21.8c-6,0.7-10.1,5.8-9.5,11.6c0.6,5.5,5.4,10.1,11.7,9.5
	c5.4-0.5,10-5.4,9.4-11.5C54.8,26,49.9,21.2,43.8,21.8z"/>
<path fill-rule="evenodd" clip-rule="evenodd" fill="#AB2188" d="M10.1,63.2c1.6,0.1,3.8,0,5.5,0l27.6,0c7.4,0,12.1,0.7,17.1-5
	c2-2.2,2.3-4.4,3.4-7.7l4.5-14.8c0.1-0.5,0.6-1.7,0.6-2.1l-10.6,0c-0.2,1-0.3,1.7-0.5,2.6c-0.7,2.3-2,4.3-3.7,5.8
	c-5.2,4.8-13.2,4.8-18.3,0c-1.7-1.6-2.9-3.4-3.7-5.8c-0.3-0.9-0.3-1.7-0.6-2.7l-12.2,0L10.1,63.2L10.1,63.2z"/>
<path fill-rule="evenodd" clip-rule="evenodd" fill="#AB2188" d="M20,31.1l11.5,0C31.9,24.4,37.8,19,44.7,19c7.2,0,12.7,5.4,13.4,12
	c0.5,0.1,10.2,0.1,11.5,0l9-29.5c-0.8-0.1-31.1,0-33,0c-6.9,0-12.3-0.8-17.1,4.9c-1.9,2.2-2.4,4.4-3.4,7.7
	C24.9,14.7,20.1,30.5,20,31.1z"/>
</svg>
