<?xml version="1.0" encoding="iso-8859-1"?>
<!-- Generator: Adobe Illustrator 27.0.0, SVG Export Plug-In . SVG Version: 6.00 Build 0)  -->
<svg version="1.1" id="Layer_1" xmlns="http://www.w3.org/2000/svg" xmlns:xlink="http://www.w3.org/1999/xlink" x="0px" y="0px"
	 viewBox="0 0 90 90" enable-background="new 0 0 90 90" xml:space="preserve">
<g>
	<path fill="#FF9933" d="M20.6,26.4c-2.4-2.3-5.7-3.4-9-3.7c-1.3,0-2.6-0.1-3.9,0.2c-0.2,0.1-0.1,0.3-0.2,0.4
		c-0.5,3.6,0,7.5,2.1,10.6c1.6,2.6,4.3,4.3,7.1,5.6c1.5,0.7,3,1.2,4.5,1.6c0,1.1,0,2.2,0,3.2c-2.4-0.4-4.8-1-7.1-2
		c-2.6-1.1-5.1-2.7-6.8-5.1c-1.8-2.8-3-6.1-3.3-9.5c-0.3-2.8-0.1-5.7,0.8-8.4c0.1-0.2,0.1-0.5,0.4-0.5c3.9-0.1,7.8,0,11.6,1
		c2.3,0.8,4.4,2.2,6.2,3.9c2-2.2,4.4-4.2,7.3-4.9c2.5-0.6,5.1-0.7,7.6-0.4c0.4,0.1,0.8,0,1.2,0.2c0.6,2.4,1,4.9,0.7,7.3
		c0,0.6-0.1,1.1-0.1,1.7c-0.1,0.7-0.3,1.3-0.2,2c0.9-0.6,1.9-1,2.9-1.5c1.8-0.8,3.7-1.3,5.6-1.4c1.8-0.2,3.7-0.2,5.5-0.2
		c-0.5-2.9-1.6-5.6-2.9-8.1c-2.6-4.7-6.7-8.5-11.5-10.9c-5-2.5-10.9-3.3-16.4-2.3h0c-4.6,0.8-9,2.9-12.6,5.9c-1.6,1.4-3.1,3-4.4,4.7
		c-2.8,3.8-4.6,8.4-5,13.2c-0.5,5.2,0.5,10.5,3,15.1c1.6,2.9,3.7,5.6,6.2,7.7c3.4,2.9,7.4,4.9,11.7,5.8c0.8,0.2,1.6,0.3,2.5,0.4
		c-0.1-1.5-0.2-3-0.1-4.5c0.1-2.2,0.5-4.5,1-6.6c0.3-1.1,0.6-2.3,1-3.4c0.1-0.2,0.2-0.5,0.2-0.7c0.1-2.5-0.1-5.1-0.7-7.6
		C24.5,31.9,23.1,28.7,20.6,26.4z"/>
	<path fill="#FF9933" d="M53.8,29.8c-5.8-0.2-11.6,1.6-16.3,4.9c-2.8,2-5.2,4.5-6.9,7.4c-2.8,4.8-3.8,10.6-3.4,16.1
		c4.9,0.1,9.8-1.4,13.9-3.9c3.6-2.2,6.7-5.3,8.9-9C52.8,40.8,54.2,35.2,53.8,29.8z"/>
	<path fill="#FF9933" d="M28.9,36.8c0.3-0.1,0.7-0.3,1-0.5c2-1.3,3.5-3.1,4.8-5.1c1.6-2.7,2.2-6.1,1.8-9.2c-0.5-0.2-1.1-0.1-1.7-0.2
		c-1.9,0-3.9,0.5-5.5,1.5v0c-1.4,0.8-2.8,1.8-4,2.9c0,0,0,0.1,0,0.2c0.4,0.4,0.6,0.9,1,1.4c0.7,1.2,1.3,2.4,1.7,3.7
		C28.4,33.1,28.7,35,28.9,36.8z"/>
</g>
<g>
	<path fill="#006699" d="M43.4,68.1c0.5-0.1,0.8-0.5,1.1-0.9c0.3-0.4,0.6-0.8,0.9-1.3c0.2-0.3,0.5-0.8,0.9-0.5
		c0.3,0.2,0.5,0.5,0.8,0.7c0.3,0.2,0.6,0.4,1,0.5c0,0,0,0,0.1,0c0.8,0.3,1.6,0.5,2.5,0.7c1.1,0.2,2.3,0.2,3.4,0.1
		c2.6-0.2,5.2-0.4,7.7-1.1c2.4-0.6,4.7-1.6,6.8-2.8c2-1.1,3.9-2.4,5.8-3.6c0.7-0.5,1.5-1,2.3-1.3c0.5-0.3,1.1-0.4,1.6-0.8
		c0.5-0.4,0.9-0.8,1.2-1.3c0.1-0.2,0.3-0.5,0.3-0.8c-1,0.1-1.8,0.7-2.7,1.2c-3.9,2.3-7.7,4.7-12,6c-2,0.6-4.1,1-6.2,1.3
		c-1.7,0.2-3.4,0.3-5.1,0.3c-1.7-0.1-3.3-0.3-5-0.6c-0.2,0-0.4-0.1-0.7-0.2c-0.2-0.1-0.4-0.2-0.6-0.2c-0.4-0.1-0.8,0.1-1.1,0.4
		c-0.5,0.5-1,1.2-1.7,1.5c-0.5,0.2-1.1,0.2-1.6,0c-0.2-0.1-0.3-0.3-0.5-0.5c-0.2-0.3-0.3-0.5-0.4-0.9c-0.1-0.3,0-0.6,0-1
		c0-0.7,0.1-1.5,0.4-2.2c0.1-0.2,0.1-0.4,0.1-0.7c0-0.1,0-0.1,0-0.2c-0.1-0.1-0.3,0.1-0.4,0.2c-0.1,0.1-0.2,0.3-0.3,0.5
		c-0.2,0.4-0.3,0.8-0.4,1.1c-0.1,0.4-0.2,0.8-0.3,1.2c-0.2,1-0.3,1.9-0.3,2.9c0,0.4,0.1,0.8,0.2,1.2C41.6,67.9,42.5,68.4,43.4,68.1z
		"/>
	<path fill="#006699" d="M44.5,74.3c-0.1,0-0.4-0.3-0.5-0.2c-0.3,0.5-0.6,0.9-0.9,1.3c-0.4-0.3-0.8-0.6-1.3-0.6
		c-0.2-0.1-0.3,0.2-0.4,0.3c-0.4,0.6-0.8,1.2-1.2,1.8c0.4,0.1,0.7,0.2,1.1,0.4c0.1,0.1,0.3,0.1,0.4,0c0.4-0.3,0.7-0.7,1-1.1
		c0.3,0.2,0.6,0.3,0.9,0.5c0.3,0.1,0.5,0,0.7-0.3c0.3-0.3,0.5-0.6,0.7-0.9c0.1-0.1,0.1-0.2,0.2-0.3C45.2,74.8,44.8,74.5,44.5,74.3z"
		/>
	<path fill="#006699" d="M46.2,57.3c1.4,1.4,3.5,2,5.4,2.3c2.6,0.4,5.3,0.3,7.9-0.1c4.2-0.7,8.3-2.3,11.9-4.6c2-1.3,3.8-2.8,5.3-4.6
		c1.1-1.3,2.2-2.6,2.7-4.2c0.4-1.2,0.5-2.5,0.6-3.8c0-0.4,0.1-0.9,0-1.3c-0.5,0.8-0.8,1.7-1.1,2.6c-0.3,0.8-0.3,1.7-0.4,2.5
		c0,0.7-0.6,1.3-1,1.8c-1.4,1.5-3.1,2.7-4.7,3.9c-2,1.3-4.1,2.3-6.4,3.1c-4.5,1.6-9.4,2.2-14.1,1.6c-2.2-0.3-4.3-0.8-6.3-1.7
		c-0.2-0.1-0.5-0.2-0.7,0c-0.1,0.3-0.1,0.6-0.1,0.9C45.3,56.3,45.8,56.8,46.2,57.3z"/>
	<path fill="#006699" d="M78.5,61c-0.1,0.1-0.2,0.3-0.2,0.5c0,0.1-0.1,0.3,0,0.5c0.1,0.1,0.2,0.1,0.2,0.1c0.7,0.1,1.4-0.3,1.9-0.8
		c1.2-1,1.7-2.4,2.3-3.8c0.1-0.2,0.2-0.5,0.3-0.7c0.1-0.2,0.2-0.5,0.2-0.7c0-0.1,0-0.2,0.1-0.3c0-0.1,0-0.2,0-0.3c0,0,0-0.2-0.1-0.1
		c0,0-0.1,0-0.1,0.1c0,0-0.1,0.1-0.1,0.1c-0.1,0.2-0.2,0.3-0.2,0.5c-0.1,0.2-0.2,0.5-0.3,0.7c-0.2,0.5-0.4,0.9-0.7,1.3
		c0,0.1-0.1,0.1-0.1,0.2c0,0,0,0.1-0.1,0.1c0,0-0.1,0.1-0.1,0.1c-0.6,0.8-1.4,1.4-2.3,1.9C79,60.6,78.7,60.8,78.5,61z"/>
	<path fill="#006699" d="M66.2,48c-0.4-0.5-0.9-0.8-1.5-0.9h0c-0.5,0.8-1,1.6-1.4,2.4c0.5,0.1,0.9,0.3,1.4,0.5
		C65.4,49.5,65.9,48.8,66.2,48z"/>
	<path fill="#006699" d="M85.7,58.2c0.2,0.1,0.3,0.1,0.5,0.1c0.4,0,0.8-0.4,1.1-0.7c0.3-0.4,0.6-0.9,0.8-1.3
		c0.1-0.2,0.2-0.4,0.3-0.7c0.1-0.2,0.2-0.5,0.1-0.7c-0.1-0.3-0.4,0.1-0.6,0.2c-0.4,0.3-1,0.4-1.4,0c-0.2-0.2-0.3-0.5-0.3-0.8
		c-0.1-0.8,0-1.6,0.1-2.4c0.1-0.5,0.3-1,0.4-1.5c0.1-0.3-0.2-0.2-0.4-0.1c-0.2,0.2-0.3,0.5-0.4,0.7c0,0.1,0,0.1-0.1,0.2
		c-0.6,1.6-1,3.2-1,4.9C84.8,56.9,85.1,57.8,85.7,58.2z"/>
	<path fill="#006699" d="M89.1,60.7c-0.2-0.2-0.4-0.3-0.7-0.3c-0.3,0.4-0.7,0.9-1,1.3C87,61.3,86.5,61,86,61c-0.5,0.7-1,1.4-1.5,2.1
		c0.5,0.1,1,0.4,1.5,0.5c0.4-0.4,0.7-0.8,1.1-1.2c0.3,0.2,0.9,0.6,1.2,0.4c0.6-0.4,1-1,1.3-1.6C89.6,61.2,89.2,60.7,89.1,60.7z"/>
	<path fill="#006699" d="M88.1,64.2c-0.3-0.2-0.7-0.4-1.1-0.5c0,0,0,0-0.1,0c-0.1,0-0.1,0.2-0.2,0.2c-0.1,0.1-0.1,0.2-0.2,0.3
		c-0.2,0.3-0.4,0.6-0.6,0.9c-0.1,0.1-0.2,0.3-0.3,0.4c-0.1,0.1-0.1,0.2-0.2,0.3c0,0,0,0.1-0.1,0.1c0,0,0,0.1,0,0.1c0,0,0,0,0.1,0
		c0.2,0.1,0.4,0.1,0.5,0.2c0.2,0.1,0.3,0.2,0.5,0.2c0.4,0.2,0.7-0.2,0.9-0.5c0.1-0.2,0.3-0.3,0.4-0.5c0.1-0.2,0.3-0.4,0.4-0.6
		c0-0.1,0.1-0.1,0.1-0.2C88.5,64.4,88.3,64.3,88.1,64.2z"/>
	<path fill="#006699" d="M81.9,76.1c-0.1,0-0.2-0.1-0.3,0c-0.3,0.1-0.6,0.9-0.7,1.1c-0.1,0.1-0.6,1.3-0.7,1.3c0.7,0,1.1,0.8,1.8,0.2
		c0.5-0.4,0.8-1.1,1.1-1.7c0,0,0-0.1,0-0.1c0,0,0-0.1,0-0.1C82.7,76.6,82.3,76.3,81.9,76.1z"/>
	<path fill="#006699" d="M82.9,63.9c-0.1,0-0.3,0-0.4-0.1c-0.2-0.1-0.4-0.2-0.5-0.3c-0.6-0.3-1.2,0.1-1.7,0.5
		c-0.7,0.7-1.1,1.6-1.5,2.5c-1.4,0.6-2.4,1.8-3.6,2.6c-1.3,0.9-2.7,1.7-4,2.4c-2.4,1.2-4.9,2.2-7.6,2.7c-2.2,0.4-4.4,0.6-6.6,0.5
		c-2-0.1-4-0.4-5.8-1.2c-0.3-0.1-0.6-0.4-0.9-0.3c-0.3,0.1-0.6,0.3-0.9,0.5c-1.1,0.9-2.1,2.1-2.9,3.3c-0.2,0.3-0.4,0.6-0.7,0.9
		c-0.2,0.3-0.4,0.5-0.4,0.9c0.4-0.3,0.8-0.7,1.1-1.1c0.4-0.4,0.8-0.8,1.2-1.2c0.3-0.3,0.5-0.8,1-0.9c0.3,0,0.6,0.2,0.8,0.4
		c0.3,0.2,0.6,0.3,0.8,0.4c0.6,0.3,1.2,0.5,1.8,0.7c1.2,0.4,2.4,0.6,3.7,0.7c2.6,0.3,5.2-0.1,7.7-0.8c1.6-0.5,3.2-1,4.7-1.7
		c0.3-0.1,0.6-0.3,0.9-0.4c0.3-0.1,0.6-0.3,0.9-0.4c2.5-1.2,4.7-2.7,6.6-4.8c0.4-0.4,0.9-0.8,1.4-0.8c0.7,0,1.2,0.4,1.8,0.5
		c0.4-0.2,0.7-0.6,1-1c0.2-0.3,0.5-0.7,0.3-1.1c-0.4-0.5-0.9-0.8-1.1-1.4c0.1-0.4,0.4-0.7,0.8-0.8c0.5-0.1,0.9,0.1,1.4,0.3
		c0.1,0.1,0.3,0.1,0.4,0.1c0.5,0,0.9-0.6,1.2-0.9c0.1-0.2,0.2-0.5,0.3-0.7c0-0.1,0-0.6,0.1-0.7C83.7,63.3,83.3,63.8,82.9,63.9z"/>
	<path fill="#006699" d="M75.6,78.8c0,0-0.1,0.1-0.1,0.1c-0.3,0.3-0.5,0.7-0.8,1c-0.4-0.3-0.9-0.6-1.4-0.6c-0.5,0.7-1,1.4-1.5,2.1
		c0.5,0.1,0.9,0.3,1.4,0.5c0.4-0.3,0.8-0.8,1.1-1.2c0.4,0.2,0.7,0.4,1.1,0.5c0.4-0.2,0.6-0.4,0.9-0.7c0.2-0.3,0.6-0.7,0.5-1.1
		C76.6,79.1,76,78.5,75.6,78.8z"/>
</g>
</svg>
