<?xml version="1.0" encoding="iso-8859-1"?>
<!-- Generator: Adobe Illustrator 27.0.0, SVG Export Plug-In . SVG Version: 6.00 Build 0)  -->
<svg version="1.1" id="Layer_1" xmlns="http://www.w3.org/2000/svg" xmlns:xlink="http://www.w3.org/1999/xlink" x="0px" y="0px"
	 width="90px" height="90px" viewBox="0 0 90 90" enable-background="new 0 0 90 90" xml:space="preserve">
<g>
	<path fill="#003366" d="M21.3,79.3c1.3-1,2.6-2.1,3.8-3.2c-1.1,0-2.2,0-3.3,0c-1.3,1-3.9,3.2-3.9,3.2l3.4,3.3l-3.5,0l-0.1-7.9
		L15.2,76v9.7c1.7,0,3.6,0,5.3,0c0.6,0,1.3,0,1.8-0.4c1.2-0.7,1.8-2.3,1.2-3.6C23,80.7,22,80.1,21.3,79.3z"/>
	<path fill="#003366" d="M57.3,77.9l-2.2,1.3v3.3l-2.7,0l0-8L49.9,76v9.6c0,0,3.7,0,5.6,0c1,0,1.8-0.9,1.8-1.9c0,0,0-0.1,0-0.1V77.9
		z"/>
	<path fill="#003366" d="M22.4,75c0,0-2.8,2.3-4.2,3.5c0-0.4,0-1.3,0-1.3l2.7-2.2L22.4,75z"/>
	<path fill="#003366" d="M14.1,82.2c-0.1-1-0.9-1.8-1.6-2.4c-1.2-1-2.9-2.5-4.2-3.7v3.4l3.2,3l-3.2,0v3.3c0,0,2.9,0.1,4.1-0.4
		C13.6,85,14.3,83.5,14.1,82.2z"/>
	<path fill="#003366" d="M28.8,79.2l2.3-1.3c0,0,0,3.8,0,5.7c0,1-0.8,2-1.8,2c-1.4,0-2.9,0-4.3,0c0-1,0-2,0-3.1c1.3,0,2.5,0,3.8,0
		C28.8,81.4,28.8,80.3,28.8,79.2L28.8,79.2z"/>
	<path fill="#003366" d="M79.7,79.2c0,1.1,0,3.4,0,3.4l-2.3,0c0,0,0-3.1,0-4.7c-0.8,0.4-1.5,0.9-2.3,1.3c0,1.1,0,2.2-0.1,3.3
		c-0.9,0-1.9-0.1-2.8-0.1c0-1.5,0-4.6,0-4.6s-3.1,1.7-4.6,2.7c-0.8,0.6-0.7,1.2-0.8,1.9v0.1h-1.7c0,0-0.1,0-0.1,0l0-4.7L59.8,81
		c0,0,0,3.1-0.1,4.6c0.7,0,1.4,0,2,0c0.1-1.2,0.1-2.4,0.1-3.6c0.4-0.2,0.7-0.4,1.1-0.7c0,1.4,0,2.9,0,4.3c0.6,0,1.2,0,1.8-0.1
		c0.6-0.2,0.9-0.7,1.3-1.1c0,0.4,0,0.8-0.1,1.2c1.5,0,3,0,4.5,0c1.1,0,1.8-1.4,1.8-1.4l-0.1,1.4c0,0,2.6,0.1,3.9-0.1
		c0.8-0.2,1.3-1.2,1.3-1.2s-0.1,0.9-0.1,1.3c1.1,0,2.3,0.1,3.4-0.1c0.8-0.2,1.3-1,1.3-1.8c0-2,0-3.9,0-5.9
		C81.2,78.3,80.5,78.8,79.7,79.2z M70.1,83.3l-1,0c0,0,0-0.7,0-1c0-0.1,0.1-0.3,0.1-0.4c0.2-0.3,0.9-0.6,0.9-0.6L70.1,83.3z"/>
	<path fill="#003366" d="M48.3,88c0.5-0.6,1.2-1.1,1.7-1.7c0.6,0.6,1.1,1.2,1.7,1.7c-0.6,0.6-1.1,1.2-1.7,1.7
		C49.4,89.1,48.8,88.5,48.3,88L48.3,88z"/>
	<path fill="#003366" d="M51.7,88c0.5-0.6,1.2-1.1,1.7-1.7c0.6,0.6,1.1,1.2,1.7,1.7c-0.6,0.6-1.1,1.2-1.7,1.7
		C52.8,89.1,52.2,88.5,51.7,88L51.7,88z"/>
	<path fill="#003366" d="M55,88c0.5-0.6,1.2-1.1,1.7-1.7c0.6,0.6,1.1,1.2,1.7,1.7c-0.6,0.6-1.1,1.2-1.7,1.7
		C56.2,89.1,55.6,88.5,55,88L55,88z"/>
	<path fill="#003366" d="M56.8,89.7"/>
	<path fill="#003366" d="M56.8,86.2"/>
	<path fill="#003366" d="M71,88c0.6-0.6,1.1-1.2,1.7-1.7c0.5,0.6,1.2,1.1,1.6,1.7c-0.5,0.6-1.1,1.1-1.7,1.7
		C72.2,89.1,71.6,88.5,71,88L71,88z"/>
	<path fill="#003366" d="M74.4,87.9c0.6-0.6,1.2-1.2,1.8-1.7c0.5,0.6,1.1,1.1,1.7,1.7c-0.6,0.6-1.1,1.2-1.7,1.7
		C75.6,89.1,75,88.5,74.4,87.9L74.4,87.9z"/>
	<path fill="#003366" d="M78.4,87.9c0.6-0.6,1.1-1.1,1.7-1.7c0.6,0.6,1.2,1.1,1.7,1.7c-0.6,0.6-1.1,1.1-1.7,1.7
		C79.5,89.1,79,88.5,78.4,87.9L78.4,87.9z"/>
	<g>
		<path fill="#003366" d="M75,36c0,0.3,0,0.7,0,1v26.5H15.3V37.1c0-0.3,0-0.7,0-1H8v34h74V36H75z"/>
		<path fill="#003366" d="M15.4,35.1c1-15.5,14-27.8,29.8-27.8h0c15.8,0,28.7,12.3,29.8,27.8H82V0.3H8v34.7H15.4z"/>
	</g>
	<circle fill="#FFCC00" cx="45.2" cy="35.5" r="4.8"/>
	<g>
		<path fill="#FFCC00" d="M45.2,44.1c-4.7,0-8.6-3.8-8.6-8.6s3.8-8.6,8.6-8.6c4.7,0,8.6,3.8,8.6,8.6S50,44.1,45.2,44.1z M45.2,29.4
			c-3.4,0-6.2,2.8-6.2,6.2s2.8,6.2,6.2,6.2s6.2-2.8,6.2-6.2S48.6,29.4,45.2,29.4z"/>
	</g>
	<g>
		<path fill="#FFCC00" d="M39.4,26c-1.5,0.9-2.7,2.2-3.6,3.6l-6.5-3.8c-1.6-0.9-2-3.1-0.8-4.6c0.8-1,1.7-1.9,2.7-2.7
			c1.4-1.2,3.6-0.8,4.6,0.8L39.4,26z"/>
		<path fill="#FFCC00" d="M35.4,30.2c-0.8,1.5-1.3,3.2-1.3,5h-7.6c-1.9,0-3.3-1.7-3-3.5c0.2-1.3,0.6-2.5,1-3.7
			c0.6-1.8,2.7-2.5,4.3-1.6L35.4,30.2z"/>
		<path fill="#FFCC00" d="M35.4,40.8l-6.5,3.8c-1.6,0.9-3.7,0.2-4.3-1.6c-0.4-1.2-0.8-2.4-1-3.7c-0.3-1.8,1.1-3.5,3-3.5h7.6
			C34.1,37.7,34.6,39.3,35.4,40.8z"/>
		<path fill="#FFCC00" d="M39.4,45l-3.8,6.5c-0.9,1.6-3.1,2-4.6,0.8c-1-0.8-1.9-1.7-2.7-2.7c-1.2-1.4-0.8-3.6,0.8-4.6l6.5-3.8
			C36.6,42.9,37.9,44.1,39.4,45z"/>
		<path fill="#FFCC00" d="M44.9,46.7v7.6c0,1.9-1.7,3.3-3.5,3c-1.3-0.2-2.5-0.6-3.7-1c-1.8-0.6-2.5-2.7-1.6-4.3l3.8-6.5
			C41.4,46.2,43.1,46.6,44.9,46.7z"/>
		<path fill="#FFCC00" d="M52.8,56.3c-1.2,0.4-2.4,0.8-3.7,1c-1.8,0.3-3.5-1.1-3.5-3v-7.6c1.8-0.1,3.5-0.5,5-1.3l3.8,6.5
			C55.3,53.5,54.5,55.6,52.8,56.3z"/>
		<path fill="#FFCC00" d="M62.1,49.7c-0.8,1-1.7,1.9-2.7,2.7c-1.4,1.2-3.6,0.8-4.6-0.8L51.1,45c1.5-0.9,2.7-2.2,3.6-3.6l6.5,3.8
			C62.9,46.1,63.3,48.3,62.1,49.7z"/>
		<path fill="#FFCC00" d="M66.9,39.4c-0.2,1.3-0.6,2.5-1,3.7c-0.6,1.8-2.7,2.5-4.3,1.6l-6.5-3.8c0.8-1.5,1.3-3.2,1.3-5H64
			C65.8,35.9,67.3,37.5,66.9,39.4z"/>
		<path fill="#FFCC00" d="M64,35.2h-7.6c-0.1-1.8-0.5-3.5-1.3-5l6.5-3.8c1.6-0.9,3.7-0.2,4.3,1.6c0.4,1.2,0.8,2.4,1,3.7
			C67.3,33.5,65.8,35.2,64,35.2z"/>
		<path fill="#FFCC00" d="M61.3,25.9l-6.5,3.8c-0.9-1.5-2.2-2.7-3.6-3.6l3.8-6.5c0.9-1.6,3.1-2,4.6-0.8c1,0.8,1.9,1.7,2.7,2.7
			C63.3,22.8,62.9,25,61.3,25.9z"/>
		<path fill="#FFCC00" d="M54.3,19.2l-3.8,6.5c-1.5-0.8-3.2-1.3-5-1.3v-7.6c0-1.9,1.7-3.3,3.5-3c1.3,0.2,2.5,0.6,3.7,1
			C54.5,15.4,55.3,17.5,54.3,19.2z"/>
		<path fill="#FFCC00" d="M44.9,16.8v7.6c-1.8,0.1-3.5,0.5-5,1.3l-3.8-6.5c-0.9-1.6-0.2-3.7,1.6-4.3c1.2-0.4,2.4-0.8,3.7-1
			C43.2,13.5,44.9,14.9,44.9,16.8z"/>
	</g>
	<path fill="#003366" d="M46.1,79.3l0,3.3l-2.2,0l0-4.6l-2.4,1.3l0,3.3h-2.2v0l0,0l0-4.6L37,79.2l0,3.3c0,0-1.4,0-2.1,0
		c0-2.6,0-7.9,0-7.9l-2.5,1.5v9.5c1.5,0,3,0,4.5,0c0.4,0,0.7,0,1.1-0.1c0.6-0.2,0.9-0.7,1.2-1.2c0,0.4-0.1,1.3-0.1,1.3
		s2.2,0.1,3.3-0.1c0.6-0.2,0.9-0.7,1.3-1.2c0,0.4-0.1,1.2-0.1,1.2s1.9,0,2.9,0c1,0,1.9-0.9,1.9-1.9c0-1.9,0-5.7,0-5.7L46.1,79.3z"/>
</g>
</svg>
