<?xml version="1.0" encoding="iso-8859-1"?>
<!-- Generator: Adobe Illustrator 27.0.0, SVG Export Plug-In . SVG Version: 6.00 Build 0)  -->
<svg version="1.1" id="Layer_1" xmlns="http://www.w3.org/2000/svg" xmlns:xlink="http://www.w3.org/1999/xlink" x="0px" y="0px"
	 width="90px" height="90px" viewBox="0 0 90 90" enable-background="new 0 0 90 90" xml:space="preserve">
<path fill-rule="evenodd" clip-rule="evenodd" fill="#006699" d="M18.7,0.6c0.6-0.1,34.7-0.1,51.1-0.1c2.6-0.1,5.2,1.1,6.8,3.1
	c1.1,1.4,1.8,3.3,1.8,5.1c0,16,0.1,50.7-0.2,52.1c-0.5,2.1-1.8,4-3.7,5.1c-1.2,0.8-2.7,1.2-4.2,1.2c-16.8,0-33.6,0-50.4,0
	c-1.7,0-3.4-0.6-4.8-1.6c-1.7-1.3-2.9-3.2-3.3-5.3c-0.1-0.8-0.1-35.1-0.1-51.5c0-1.6,0.5-3.2,1.4-4.6C14.3,2.3,16.4,0.9,18.7,0.6
	L18.7,0.6z M20.2,9.7c0,16.6,0,33.1,0,49.7c16.5,0,33.1,0,49.6,0c0-16.5,0-33.1,0-49.6C53.3,9.7,36.8,9.7,20.2,9.7z"/>
<path fill-rule="evenodd" clip-rule="evenodd" fill="#CC0000" d="M57.9,14l7.3,0l-30,40.1l-6.4,0l-3.7-10.5l7,0l1.1,3.1
	C33.2,46.8,51,23.1,57.9,14L57.9,14z"/>
<g>
	<path fill-rule="evenodd" clip-rule="evenodd" fill="#006699" d="M32.2,72.4L32.2,72.4c0,3.7,0,7.5,0,11.2
		c-0.1,0.7,0.5,1.4,1.2,1.7c0.7,0.1,1.4,0.1,2.2,0.1c0-0.1,0.1-0.2,0.1-0.3c0-4.2,0-8.4,0-12.6C34.5,72.4,33.3,72.5,32.2,72.4z"/>
	<path fill-rule="evenodd" clip-rule="evenodd" fill="#006699" d="M24,81.3c0-0.8,0-1.6,0-2.4c-1.6,0-3.3,0-4.9,0
		c-0.3,0-0.7,0-1,0.2c-0.5,0.3-0.9,0.9-0.9,1.5c0,1.6,0,3.2,0,4.8c1.1,0,2.3,0,3.4,0c0,0.6,0,1.2,0,1.7c-1.7,0-3.4,0-5.1,0
		c0-1.9,0-3.9,0-5.8c-1.1,0-2.3,0-3.4,0c0,2.2,0,4.4,0,6.5c0,0.9,0.8,1.7,1.7,1.7c2.8,0,5.7,0,8.5,0c0.9,0,1.7-0.8,1.7-1.7
		c0-1.6,0-3.2,0-4.8c-1.1,0-2.3,0-3.4,0c0-0.6,0-1.2,0-1.7C21.7,81.3,22.8,81.3,24,81.3z"/>
	<path fill-rule="evenodd" clip-rule="evenodd" fill="#006699" d="M27.2,87.1c-0.6,0-1.2,0-1.7,0c0,0.8,0,1.6,0,2.4
		c1.1,0,2.2,0,3.3,0c0.9,0,1.8-0.7,1.8-1.7c0-3,0-5.9,0-8.9c-1.1,0-2.3,0-3.4,0C27.2,81.6,27.2,84.4,27.2,87.1z"/>
	<path fill-rule="evenodd" clip-rule="evenodd" fill="#006699" d="M38.8,78.9c0,2.7,0,5.4,0,8.2c-0.6,0-1.1,0-1.7,0
		c0,0.8,0,1.6,0,2.4c1.1,0,2.3,0,3.4,0c0.9,0,1.7-0.8,1.7-1.8c0-2.9,0-5.9,0-8.8C41.1,78.9,40,78.9,38.8,78.9L38.8,78.9z"/>
	<path fill-rule="evenodd" clip-rule="evenodd" fill="#006699" d="M74.4,78.9c0,1.4,0,2.7,0,4.1c-0.6,0-1.1,0-1.7,0
		c0-0.2-0.1-0.3-0.1-0.5c0-1.2,0-2.4,0-3.6h-3.4c0,1.4,0,2.7,0,4.1c-1.1,0-2.3,0-3.4,0c0-0.9,0-1.7,0-2.6c0-0.8-0.8-1.5-1.6-1.5
		c-1.8,0-3.5,0-5.3,0c-0.8,0-1.5,0.7-1.6,1.5c0,0.9,0,1.7,0,2.6c-0.6,0-1.1,0-1.7,0c0-0.9,0-1.7,0-2.6c0-0.8-0.8-1.5-1.6-1.5
		c-1.8,0-3.5,0-5.3,0c-0.9,0-1.6,0.8-1.6,1.6c0,1.1,0,2.2,0,3.3c0.1,0.8,0.8,1.6,1.6,1.5c0.9,0,1.9,0,2.8,0c0-0.8,0-1.6,0-2.4
		c-0.3,0-0.7,0-1,0c0-0.6,0-1.2,0-1.7c0.6,0,1.1,0,1.7,0c0,0.8,0,1.6,0,2.5c0,0.8,0.8,1.7,1.7,1.6c1.5,0,3.1,0,4.6,0
		c0.4,0,0.7,0,1.1-0.1c0.6-0.2,1-0.7,1.2-1.3c0,0.5,0,0.9,0,1.4c1.2,0,2.3,0,3.5,0c0.6,0,1.1-0.3,1.4-0.8v0.8c1.8,0,3.6,0,5.5,0
		c0.6,0,1.1-0.3,1.4-0.8c0,0.2,0,0.5,0,0.8c1.2,0,2.4,0,3.7,0c0.9,0.1,1.7-0.7,1.7-1.6c0-1.6,0-3.2,0-4.8
		C76.7,78.9,75.5,78.9,74.4,78.9z M60.7,83c0-0.6,0-1.2,0-1.7c0.6,0,1.1,0,1.7,0c0,0.6,0,1.2,0,1.7C61.8,83,61.3,83,60.7,83z"/>
	<path fill-rule="evenodd" clip-rule="evenodd" fill="#006699" d="M75.7,86.4c-0.8,0-1.4,0.6-1.4,1.4c0,0.8,0.6,1.4,1.4,1.4
		c0.8,0,1.4-0.6,1.4-1.4C77.1,87,76.5,86.4,75.7,86.4z"/>
	<path fill-rule="evenodd" clip-rule="evenodd" fill="#006699" d="M71.3,86.4c-0.8,0-1.4,0.6-1.4,1.4c0,0.8,0.6,1.4,1.4,1.4
		c0.8,0,1.4-0.6,1.4-1.4C72.6,87,72,86.4,71.3,86.4z"/>
	<path fill-rule="evenodd" clip-rule="evenodd" fill="#006699" d="M68.5,86.4c-0.8,0-1.4,0.6-1.4,1.4c0,0.8,0.6,1.4,1.4,1.4
		s1.4-0.6,1.4-1.4C69.9,87,69.3,86.4,68.5,86.4z"/>
	<circle fill-rule="evenodd" clip-rule="evenodd" fill="#006699" cx="28.9" cy="75.8" r="1.4"/>
</g>
</svg>
