<?xml version="1.0" encoding="iso-8859-1"?>
<!-- Generator: Adobe Illustrator 27.0.0, SVG Export Plug-In . SVG Version: 6.00 Build 0)  -->
<svg version="1.1" id="Layer_1" xmlns="http://www.w3.org/2000/svg" xmlns:xlink="http://www.w3.org/1999/xlink" x="0px" y="0px"
	 width="90px" height="90px" viewBox="0 0 90 90" enable-background="new 0 0 90 90" xml:space="preserve">
<g>
	<path fill="#003399" d="M53,0.7H23.7v10.9H12.6v42.5v11.2h11.2h42.5V54.3h11.1V25C77.4,11.6,66.5,0.7,53,0.7z M66.2,54.1H23.8V11.9
		h27.7c8.1,0,14.7,6.6,14.7,14.7V54.1z"/>
	<path fill="#003399" d="M35.9,69.1c-0.1,0-0.3,0.2-0.5,0.6c-0.2,0.4-0.4,1-0.7,1.9c-0.3,0.9-0.5,1.7-0.5,2.4c0,0.2,0,0.7,0,1.2
		c0,0.6,0,1.1,0,1.4c0,1-0.1,1.8-0.4,2.4c-0.6,1.7-1.7,3.1-3.2,4.1c-1.6,0.9-3.2,1.3-4.9,1.3c-1.4-0.1-2.5-0.4-3.3-1.1
		c-0.8-0.7-1.3-1.6-1.3-2.9c0-1.7,0.6-3.6,1.8-5.9c0.1-0.2,0.1-0.5,0-0.7c-0.1-0.2-0.3,0-0.6,0.6c-1.8,3.1-2.6,6-2.6,8.7
		c0.1,1.7,0.5,3,1.4,3.9c0.9,0.9,2.1,1.4,3.7,1.5c3,0,5.5-1.5,7.6-4.3c2.1-2.9,3.3-6.5,3.6-10.6c0-1.6,0.1-2.6,0.1-3.2
		c0-0.6,0-1,0.1-1.2C36,69.2,36,69.1,35.9,69.1z"/>
	<path fill="#003399" d="M27.6,78.6c0.3,0.2,0.5,0.3,0.5,0.3c0.1,0,0.3-0.1,0.5-0.3c0.3-0.3,0.6-0.7,0.8-1.1c0.2-0.4,0.4-0.7,0.4-1
		c0.1-0.3,0.1-0.6,0.1-0.9c-0.1-0.3-0.2-0.6-0.4-0.8c-0.2-0.2-0.5-0.5-0.8-0.8c-0.3-0.3-0.6-0.5-0.9-0.7c-0.4,0.7-0.7,1.2-0.9,1.5
		c-0.2,0.3-0.4,0.8-0.7,1.4c-0.1,0.2-0.2,0.4-0.4,0.8c0,0.1,0.1,0.2,0.2,0.4c0.2,0.2,0.4,0.3,0.6,0.5C27,78.2,27.3,78.4,27.6,78.6z"
		/>
	<path fill="#003399" d="M40.6,79.2c-0.1,0.1-0.3,0.5-0.5,1.1c-0.2,0.6-0.3,1-0.4,1c-0.4,0-0.8-0.2-1.2-0.7
		c-0.3-0.4-0.5-1.1-0.5-1.9V78c0,0,0,0,0,0c0,0,0,0,0,0c0-0.1,0-0.5,0.1-1.4c0.1-0.8,0.2-2.4,0.5-4.6c0.3-2.2,0.4-3.8,0.5-4.6
		c0-0.1,0-0.2-0.1-0.2c-0.1,0-0.1,0-0.2,0.2c-0.6,1.6-1.1,2.7-1.3,3.4c-0.4,2.2-0.7,4.2-0.9,6c-0.2,1.8-0.3,3.2-0.3,4.3c0,0,0,0,0,0
		c0,0.6,0.1,1.2,0.2,1.9c0.1,0.7,0.4,1.2,0.8,1.7c0.4,0.4,0.8,0.7,1.4,0.7c1,0,1.8-0.6,2.4-1.9c0.4-0.9,0.6-1.9,0.6-2.9
		c0-0.4-0.1-0.8-0.3-1.1C41.2,79.2,40.9,79.1,40.6,79.2z"/>
	<path fill="#003399" d="M50.9,81.1c0.1-0.1,0.3-0.3,0.6-0.8c0.5,0,1.1-0.4,1.6-1.3c0.5-0.8,0.8-1.7,0.8-2.6c0-0.2-0.1-0.4-0.2-0.4
		c-0.1,0-0.2,0.2-0.3,0.6c-0.2,0.4-0.3,0.7-0.3,0.8c-0.2,0.3-0.4,0.5-0.6,0.5c-0.1,0-0.3-0.1-0.6-0.2c-0.1,0-0.2,0-0.3,0
		c-0.1,0-0.2,0.3-0.4,0.9c-0.2,0.5-0.4,0.8-0.7,0.8c-0.2,0-0.4,0-0.6,0c-0.2,0-0.4,0-0.5,0c-0.2,0.1-0.6,0.4-1.3,1
		c-0.5,0.4-1.1,0.7-1.9,0.7c-0.6,0-1.1-0.1-1.4-0.4c-0.4-0.3-0.6-0.6-0.8-1c-0.1-0.5-0.2-0.9-0.2-1.3c0-0.2,0-0.6,0-1c0,0,0,0,0,0
		c0,0,0,0,0,0c0-0.1,0-0.5,0.1-1.4c0.1-0.8,0.2-2.4,0.5-4.6c0.3-2.2,0.4-3.8,0.5-4.6c0-0.1,0-0.2-0.1-0.2c-0.1,0-0.1,0-0.2,0.2
		c-0.6,1.6-1.1,2.7-1.3,3.4c-0.4,2.2-0.7,4.2-0.9,6c-0.2,1.8-0.3,3.2-0.3,4.3c0,0,0,0,0,0c0,0,0,0,0,0c0,1.2,0.2,2.2,0.6,3
		c0.4,0.8,1.1,1.2,2,1.2c0.9,0,1.6-0.5,2.4-1.4c0.7-1,1.2-1.5,1.5-1.6c0.2-0.1,0.4-0.2,0.6-0.2c0.2,0,0.4,0,0.7,0.1
		C50.2,81.7,50.5,81.5,50.9,81.1z"/>
	<path fill="#003399" d="M59.3,80.7c0.3-0.2,0.6-0.3,1-0.3c0.1,0,0.3,0.1,0.7,0.2c0.4,0.1,0.7,0.1,0.7,0.1c0.2,0,0.3,0,0.4-0.1
		c0,0,0.1,0,0.1-0.1s0.1-0.1,0.1-0.1c0,0,0.1-0.1,0.2-0.2c0.1-0.1,0.1-0.2,0.2-0.3c0.4-0.5,0.5-0.9,0.5-1.3c0-0.1-0.2-0.3-0.5-0.6
		c-0.1-0.1-0.3-0.3-0.4-0.4c-0.2-0.1-0.3-0.2-0.4-0.3c-0.1-0.2-0.2-0.4-0.2-0.5c0.9-1,1.8-1.5,2.7-1.6c0.9-0.1,1.6,0,2.2,0.2
		c0.5,0.1,0.9-0.1,1.3-0.6c0.4-0.5,0.6-1,0.8-1.5c0.2-0.6,0.3-0.9,0.4-1.2c0.1-0.2,0.1-0.4,0.1-0.5c0-0.1,0-0.1-0.1-0.1
		c-0.1,0-0.1,0.1-0.3,0.3c-0.5,0.7-0.7,1.1-0.8,1.1c-0.2,0.3-0.7,0.3-1.4,0c-0.8,0-1.5,0.1-2,0.4c-0.6,0.2-1.2,0.6-1.9,1.2
		c-0.7,0.6-1.4,1.4-2,2.3c0,0,0,0,0,0c-0.2,0.1-0.3,0.3-0.4,0.4c-0.1,0.2-0.2,0.3-0.2,0.4L59.2,79c-0.5,0.6-0.9,1.1-1.4,1.4
		c-0.4,0.3-1,0.4-1.6,0.4c0,0-0.3-0.1-0.7-0.2c-0.4-0.2-0.7-0.2-1.1-0.2c-0.5,0-1,0.1-1.4,0.4c0,0,0,0,0,0c0,0,0,0,0,0
		c-0.8,0.4-1.5,1-2.1,1.7c-0.6,0.7-1,1.2-1.1,1.6c-0.1,0.3-0.2,0.5-0.1,0.6c0.1,0.1,0.2,0.1,0.3,0c0.9-0.6,1.9-0.8,3-0.7
		c0,0,0,0,0,0c0,0,0,0,0,0l0.5,0.2c0.3,0.1,0.5,0.2,0.8,0.2c1.1,0,2.1-0.5,3-1.5c0.3-0.3,0.6-0.7,1-1.2
		C58.8,81.1,59.1,80.8,59.3,80.7z"/>
	<path fill="#003399" d="M63.9,83.8c-0.1,0-0.3,0.3-0.6,0.8c-0.3,0.5-0.6,1-0.9,1.4c-0.2-0.3-0.5-0.7-1-1.1c-0.4-0.4-0.7-0.6-1-0.5
		c-0.1,0.1-0.5,0.6-1,1.6c-0.5,1-0.8,1.5-0.8,1.7c0,0.1,0.2,0.3,0.6,0.6c0.4,0.3,0.7,0.5,0.9,0.7c0.2,0.2,0.3,0.2,0.4,0.2
		c0.4,0,1-0.7,1.7-2.1c0.3,0.2,0.6,0.5,1,0.9c0.4,0.4,0.6,0.6,0.8,0.6c0.2,0,0.6-0.3,1-1c0.5-0.7,0.7-1.3,0.7-1.8
		c0-0.4-0.3-0.9-0.7-1.3C64.6,84.1,64.2,83.8,63.9,83.8z"/>
	<path fill="#003399" d="M67.9,83.7c-0.1,0.1-0.4,0.6-0.9,1.5c-0.5,0.9-0.7,1.5-0.7,1.8c0,0.1,0.1,0.3,0.3,0.5
		c0.2,0.2,0.5,0.4,1,0.7c0.4,0.3,0.7,0.4,0.8,0.4c0.2,0,0.5-0.4,0.9-1.2c0.4-0.8,0.7-1.4,0.7-1.8c0-0.3-0.3-0.7-0.8-1.3
		C68.6,83.8,68.2,83.6,67.9,83.7z"/>
</g>
<circle fill-rule="evenodd" clip-rule="evenodd" fill="#FF0000" cx="45.1" cy="33.4" r="12.3"/>
</svg>
