<?xml version="1.0" encoding="iso-8859-1"?>
<!-- Generator: Adobe Illustrator 27.0.0, SVG Export Plug-In . SVG Version: 6.00 Build 0)  -->
<svg version="1.1" id="Layer_1" xmlns="http://www.w3.org/2000/svg" xmlns:xlink="http://www.w3.org/1999/xlink" x="0px" y="0px"
	 width="90px" height="90px" viewBox="0 0 90 90" enable-background="new 0 0 90 90" xml:space="preserve">
<g>
	<path fill="#3F4192" d="M18.7,75c-0.2-0.1-0.4-0.2-0.6-0.3c-0.2,0-0.4,0.4-0.7,1.1c-0.2,0.5-0.3,0.8-0.3,0.9
		c-0.1,0.1-0.2,0.2-0.2,0.2c-0.4,0-0.7-0.2-1-0.6c-0.3-0.4-0.4-0.8-0.4-1.2c0-0.3,0.1-0.7,0.3-1.4c0-0.1,0.1-0.4,0.3-0.8
		c0.1-0.2,0-0.3-0.1-0.4c-0.1,0-0.3,0.1-0.5,0.3c-0.2,0.2-0.4,0.6-0.6,1l-0.8,1.7c-0.3,0.5-0.5,0.9-0.6,1.1
		c-0.2,0.4-0.5,0.8-0.9,1.3c-0.5,0.6-1.3,1.3-2.3,2C9.9,80,9.4,80.3,9,80.5c-0.4,0.3-0.8,0.5-1.2,0.7c-0.4,0.3-0.6,0.5-0.6,0.7
		c0.1,0.1,0.4,0,0.9,0l1.3-0.3c0.3-0.1,0.6-0.2,0.9-0.2c0.3-0.1,0.6-0.2,0.9-0.3c0.3-0.1,0.5-0.3,0.8-0.4c0.2-0.1,0.4-0.4,0.7-0.7
		c0.3-0.5,0.6-0.9,0.8-1.2c0,0,0,0,0,0.1c0,0.1,0.1,0.5,0.3,1c0.1,0.5,0.4,0.9,0.7,1.1c0.3,0.3,0.6,0.4,1.1,0.4c1.1,0,2-0.6,2.8-1.9
		c0.6-1,0.9-1.9,0.9-2.9C19.4,75.8,19.2,75.3,18.7,75z"/>
	<path fill="#3F4192" d="M75,83.1c-0.1,0-0.3,0.3-0.6,0.8c-0.3,0.5-0.6,1-0.9,1.4c-0.2-0.3-0.5-0.7-1-1.1c-0.4-0.4-0.7-0.6-1-0.5
		c-0.1,0.1-0.5,0.6-1,1.5c-0.5,1-0.8,1.5-0.8,1.7c0,0.1,0.2,0.3,0.6,0.6c0.4,0.3,0.7,0.5,0.8,0.7c0.2,0.2,0.3,0.2,0.4,0.2
		c0.4,0,1-0.7,1.7-2.1c0.3,0.2,0.6,0.5,1,0.9s0.6,0.6,0.8,0.6c0.2,0,0.6-0.3,1-1c0.5-0.7,0.7-1.3,0.7-1.7c0-0.4-0.3-0.9-0.7-1.3
		C75.7,83.3,75.3,83.1,75,83.1z"/>
	<path fill="#3F4192" d="M80.7,70.6c0.4-0.5,0.6-1,0.8-1.5c0.2-0.5,0.3-0.9,0.4-1.2c0.1-0.2,0.1-0.4,0.1-0.5c0-0.1,0-0.1-0.1-0.1
		c-0.1,0-0.1,0.1-0.3,0.3c-0.5,0.7-0.7,1.1-0.8,1.1c-0.2,0.3-0.7,0.3-1.4,0c-0.8,0-1.5,0.1-2,0.3c-0.6,0.2-1.2,0.6-1.9,1.2
		c-0.7,0.6-1.4,1.4-2,2.3c-0.2,0.1-0.3,0.3-0.4,0.4c-0.1,0.2-0.2,0.3-0.2,0.4L72,74.7c-0.5,0.6-0.9,1.1-1.4,1.4
		c-0.4,0.3-1,0.4-1.6,0.4c0,0-0.3-0.1-0.7-0.2C68,76.1,67.6,76,67.3,76c-0.5,0-1,0.1-1.4,0.3c0,0,0,0,0,0c0,0,0,0,0,0
		c-0.8,0.4-1.5,1-2.1,1.7c-0.6,0.7-1,1.2-1.1,1.6c-0.1,0.3-0.2,0.5-0.1,0.6c0.1,0.1,0.2,0.1,0.3,0c0.9-0.6,1.9-0.8,3-0.7
		c0,0,0,0,0,0c0,0,0,0,0,0l0.5,0.2c0.3,0.1,0.5,0.2,0.8,0.2c1,0,2.1-0.5,3-1.5c0.3-0.3,0.6-0.7,1-1.2c0.4-0.5,0.7-0.8,0.8-0.9
		c0.3-0.2,0.6-0.3,1-0.3c0.1,0,0.3,0.1,0.7,0.2c0.4,0.1,0.6,0.1,0.7,0.1c0.2,0,0.3,0,0.4-0.1c0,0,0.1,0,0.1-0.1c0,0,0.1-0.1,0.1-0.1
		c0,0,0.1-0.1,0.2-0.2c0.1-0.1,0.1-0.2,0.2-0.3c0.4-0.5,0.5-0.9,0.5-1.2c0-0.1-0.2-0.3-0.5-0.6c-0.1-0.1-0.3-0.3-0.4-0.4
		c-0.2-0.1-0.3-0.2-0.4-0.3c-0.1-0.2-0.2-0.4-0.2-0.5c0.9-1,1.8-1.5,2.7-1.5c0.9-0.1,1.6,0,2.1,0.2C79.9,71.3,80.4,71.1,80.7,70.6z"
		/>
	<path fill="#3F4192" d="M82,82.3c-0.5-0.5-0.9-0.8-1.2-0.6c-0.1,0.1-0.4,0.6-0.9,1.5c-0.5,0.9-0.7,1.5-0.7,1.8
		c0,0.1,0.1,0.3,0.3,0.5c0.2,0.2,0.5,0.4,1,0.7c0.4,0.3,0.7,0.4,0.8,0.4c0.2,0,0.5-0.4,0.9-1.2c0.4-0.8,0.6-1.4,0.6-1.8
		C82.7,83.3,82.5,82.9,82,82.3z"/>
	<path fill="#3F4192" d="M66.5,67.4c0.5-0.3,1.1-0.6,1.5-1c0.3-0.3,0.5-0.6,0.7-1c0.3-0.5,0.5-1,0.6-1.5c-0.1,0-0.1,0-0.2,0.1
		c-0.9,0.3-1.6,0.7-2.4,1.2c-3.4,2-6.5,4.5-9.9,6.5c-3.3,2.1-6.9,3.5-10.7,4.5c-3.5,0.9-7.2,1.4-11.1,1.4c-1.3,0-2.5-0.1-3.8-0.3
		c-1.3-0.2-2.7-0.6-4.2-1c-0.1,0-0.2,0-0.4,0c-0.5,0-0.9,0.2-1.3,0.5c-0.3,0.3-0.6,0.6-0.8,1c-0.4,0.9-0.8,1.7-1.3,2.5
		c-0.3,0.5-0.6,1.1-0.9,1.6c-0.3,0.5-0.7,1-1.1,1.4c-0.3,0.4-0.7,0.8-1.2,1.2c-0.8,0.8-1.2,1.4-1.2,1.9c0,0.3,0.2,0.5,0.6,0.5
		c0.1,0,0.2,0,0.4,0c0.5-0.1,0.9-0.3,1.2-0.6c0.4-0.3,0.7-0.7,0.9-1.1c0.5-0.8,1.3-2.2,2.3-4.1c0.1-0.2,0.2-0.4,0.3-0.5
		c0.1-0.1,0.2-0.2,0.3-0.1l0.6,0.2c0.8,0.3,2.1,0.6,3.9,0.9c1.8,0.3,3.6,0.4,5.5,0.4c5.2,0,10.4-1.3,15.1-3.4
		c4.9-2.2,8.7-5.5,13-8.6C64.1,68.8,65.3,68,66.5,67.4z"/>
</g>
<g>
	<path fill="#3F4192" d="M53.3,20c0,0,3.3,4.8,3.3,10.9v28.8h17.2V34.7c0-1.3-0.3-2.7-0.8-3.9C71.2,27.1,66.1,20.1,53.3,20z"/>
	<path fill="#3F4192" d="M15.9,43v17.2h24.9c1.3,0,2.7-0.3,3.9-0.8c3.8-1.7,10.7-6.8,10.8-19.7c0,0-4.8,3.3-10.9,3.3H15.9z"/>
	<path fill="#3F4192" d="M36.3,41.7c0,0-3.3-4.8-3.3-10.9V2H15.9V27c0,1.3,0.3,2.7,0.8,3.9C18.4,34.6,23.5,41.6,36.3,41.7z"/>
	<path fill="#3F4192" d="M48.8,1.5c-1.3,0-2.7,0.3-3.9,0.8C41.2,4,34.2,9.1,34.1,22c0,0,4.8-3.3,10.9-3.3h28.8V1.5H48.8z"/>
	<circle fill="#3F4192" cx="44.4" cy="31.3" r="9.7"/>
</g>
</svg>
