<?xml version="1.0" encoding="iso-8859-1"?>
<!-- Generator: Adobe Illustrator 27.0.0, SVG Export Plug-In . SVG Version: 6.00 Build 0)  -->
<svg version="1.1" id="Layer_1" xmlns="http://www.w3.org/2000/svg" xmlns:xlink="http://www.w3.org/1999/xlink" x="0px" y="0px"
	 width="90px" height="90px" viewBox="0 0 90 90" enable-background="new 0 0 90 90" xml:space="preserve">
<path fill="#33CCCC" d="M28,48.9H6.2V35H28c2.4,0,4.6-0.9,6.4-2.5l12-11c4.3-4,9.9-6.1,15.8-6.1h22.5v14H62.2
	c-2.4,0-4.6,0.9-6.4,2.5l-12,11C39.5,46.8,33.9,48.9,28,48.9z"/>
<g>
	<g>
		<path fill="#003366" d="M84.7,65.9v4.8h-4.9c-0.3,0-0.5-0.2-0.5-0.5v-4.2L77,66.6v3.5c0,0.2,0,0.3,0,0.5h-9.9v-2.7
			c0-1-0.8-1.9-1.9-1.9h-4.9L59,67.4v3.2h-5.1l-0.1-3c0-0.9-0.7-1.6-1.6-1.6h-4.7L46,67.5v5.6l2.3-0.6v-4.2h3.2l0.1,3.1
			c0,0.9,0.7,1.6,1.6,1.6h4.7c0.7,0,1.3-0.4,1.6-0.9c0.4,0.5,1,0.8,1.7,0.8h2.5c0.7,0,1.2-0.3,1.6-0.8c0.4,0.5,1,0.8,1.7,0.8h9.2
			c0.7,0,1.2-0.4,1.5-1c0.5,0.6,1.3,1,2.2,1h5.8l1.5-1.5v-5.6H84.7z M64.8,70.6h-1.4v0h-1.7c-0.2,0-0.4-0.2-0.4-0.4v-1.8h3.1
			c0.2,0,0.4,0.2,0.4,0.4V70.6z"/>
		<path fill="#003366" d="M21.6,70.1V66l-2.3,0.7v3.8c0,0.1,0,0.1,0,0.2h-6.6c-0.2,0-0.3-0.2-0.3-0.3v-4.4L10,66.6v3.7
			c0,0.1,0,0.2,0,0.3H6.6c-0.3,0-0.5-0.2-0.5-0.5v-8.3l-2.3,0.7v9c0,0.8,0.6,1.4,1.4,1.4l3.7,0c0.7,0,1.4-0.5,1.7-1.1
			c0.5,0.7,1.3,1.1,2.2,1.1h5.7c0.7,0,1.2-0.4,1.4-1c0.5,0.6,1.2,1,2,1h20.3l0.6-2.3H22.2C21.9,70.6,21.6,70.4,21.6,70.1z"/>
		<rect x="10.1" y="61.8" fill="#003366" width="2.4" height="2.1"/>
		<rect x="12.7" y="75" fill="#003366" width="5.1" height="2.1"/>
		<rect x="69.4" y="75" fill="#003366" width="5.1" height="2.1"/>
		<rect x="80.8" y="75" fill="#003366" width="2.4" height="2.1"/>
	</g>
</g>
</svg>
