<?xml version="1.0" encoding="iso-8859-1"?>
<!-- Generator: Adobe Illustrator 27.0.0, SVG Export Plug-In . SVG Version: 6.00 Build 0)  -->
<svg version="1.1" id="Layer_1" xmlns="http://www.w3.org/2000/svg" xmlns:xlink="http://www.w3.org/1999/xlink" x="0px" y="0px"
	 width="90px" height="90px" viewBox="0 0 90 90" enable-background="new 0 0 90 90" xml:space="preserve">
<g>
	<ellipse fill-rule="evenodd" clip-rule="evenodd" fill="#FF0000" cx="45.1" cy="34.2" rx="8.9" ry="8.9"/>
</g>
<g>
	<path fill="#000066" d="M45,66.2c17.6,0,31.9-14.3,31.9-31.9C76.9,16.7,62.6,2.4,45,2.4S13.1,16.7,13.1,34.3
		C13.1,51.9,27.4,66.2,45,66.2z M45,3.9c16.8,0,30.4,13.6,30.4,30.4S61.8,64.7,45,64.7S14.6,51.1,14.6,34.3S28.2,3.9,45,3.9z"/>
	<path fill="#000066" d="M45,7.9c0.6,0,1.1-0.5,1.1-1.1c0-0.6-0.5-1.1-1.1-1.1c-0.6,0-1.1,0.5-1.1,1.1C43.9,7.4,44.4,7.9,45,7.9z"/>
	<path fill="#000066" d="M54.4,9.6c0.6,0,1.1-0.5,1.1-1.1c0-0.6-0.5-1.1-1.1-1.1c-0.6,0-1.1,0.5-1.1,1.1C53.3,9.1,53.8,9.6,54.4,9.6
		z"/>
	<path fill="#000066" d="M62.7,14.3c0.6,0,1.1-0.5,1.1-1.1c0-0.6-0.5-1.1-1.1-1.1c-0.6,0-1.1,0.5-1.1,1.1
		C61.6,13.8,62.1,14.3,62.7,14.3z"/>
	<path fill="#000066" d="M68.8,21.7c0.6,0,1.1-0.5,1.1-1.1c0-0.6-0.5-1.1-1.1-1.1c-0.6,0-1.1,0.5-1.1,1.1
		C67.7,21.2,68.2,21.7,68.8,21.7z"/>
	<path fill="#000066" d="M72.1,30.6c0.6,0,1.1-0.5,1.1-1.1c0-0.6-0.5-1.1-1.1-1.1c-0.6,0-1.1,0.5-1.1,1.1
		C71,30.1,71.5,30.6,72.1,30.6z"/>
	<path fill="#000066" d="M72.1,40.2c0.6,0,1.1-0.5,1.1-1.1c0-0.6-0.5-1.1-1.1-1.1c-0.6,0-1.1,0.5-1.1,1.1
		C71,39.7,71.5,40.2,72.1,40.2z"/>
	<path fill="#000066" d="M68.9,47c-0.6,0-1.1,0.5-1.1,1.1c0,0.6,0.5,1.1,1.1,1.1c0.6,0,1.1-0.5,1.1-1.1C70,47.5,69.5,47,68.9,47z"/>
	<path fill="#000066" d="M62.7,54.3c-0.6,0-1.1,0.5-1.1,1.1c0,0.6,0.5,1.1,1.1,1.1c0.6,0,1.1-0.5,1.1-1.1
		C63.8,54.8,63.3,54.3,62.7,54.3z"/>
	<path fill="#000066" d="M54.4,59.1c-0.6,0-1.1,0.5-1.1,1.1c0,0.6,0.5,1.1,1.1,1.1c0.6,0,1.1-0.5,1.1-1.1
		C55.5,59.6,55,59.1,54.4,59.1z"/>
	<path fill="#000066" d="M45,60.8c-0.6,0-1.1,0.5-1.1,1.1c0,0.6,0.5,1.1,1.1,1.1c0.6,0,1.1-0.5,1.1-1.1C46.1,61.3,45.6,60.8,45,60.8
		z"/>
	<path fill="#000066" d="M35.6,59.1c-0.6,0-1.1,0.5-1.1,1.1c0,0.6,0.5,1.1,1.1,1.1c0.6,0,1.1-0.5,1.1-1.1
		C36.7,59.6,36.2,59.1,35.6,59.1z"/>
	<path fill="#000066" d="M27.3,54.4c-0.6,0-1.1,0.5-1.1,1.1c0,0.6,0.5,1.1,1.1,1.1c0.6,0,1.1-0.5,1.1-1.1
		C28.4,54.9,27.9,54.4,27.3,54.4z"/>
	<path fill="#000066" d="M21.1,47c-0.6,0-1.1,0.5-1.1,1.1c0,0.6,0.5,1.1,1.1,1.1c0.6,0,1.1-0.5,1.1-1.1C22.2,47.5,21.7,47,21.1,47z"
		/>
	<path fill="#000066" d="M17.9,38.1c-0.6,0-1.1,0.5-1.1,1.1c0,0.6,0.5,1.1,1.1,1.1c0.6,0,1.1-0.5,1.1-1.1
		C19,38.6,18.5,38.1,17.9,38.1z"/>
	<path fill="#000066" d="M17.9,28.5c-0.6,0-1.1,0.5-1.1,1.1c0,0.6,0.5,1.1,1.1,1.1c0.6,0,1.1-0.5,1.1-1.1C19,29,18.5,28.5,17.9,28.5
		z"/>
	<path fill="#000066" d="M21.1,21.7c0.6,0,1.1-0.5,1.1-1.1c0-0.6-0.5-1.1-1.1-1.1c-0.6,0-1.1,0.5-1.1,1.1
		C20,21.2,20.5,21.7,21.1,21.7z"/>
	<path fill="#000066" d="M27.3,14.4c0.6,0,1.1-0.5,1.1-1.1c0-0.6-0.5-1.1-1.1-1.1c-0.6,0-1.1,0.5-1.1,1.1
		C26.2,13.9,26.7,14.4,27.3,14.4z"/>
	<circle fill="#000066" cx="35.5" cy="8.5" r="1.1"/>
	<path fill="#000066" d="M49.4,21.9c1.5-2.3,3.1-7.2,6-6l-1.5-6.1l-5.2,3.6C51.7,14.4,49.7,19.2,49.4,21.9z"/>
	<path fill="#000066" d="M53.4,24.2c2.2-1.6,5.3-5.7,7.7-3.6l0.6-6.3L55.6,16C58,18,54.6,21.7,53.4,24.2z"/>
	<path fill="#000066" d="M56.3,27.8c2.6-0.7,7-3.5,8.5-0.8l2.7-5.7l-6.3-0.5C62.8,23.5,58.3,25.8,56.3,27.8z"/>
	<path fill="#000066" d="M57.9,32c2.7,0.2,7.7-0.9,8.2,2.2l4.5-4.4l-5.7-2.7C65.5,30.2,60.4,30.8,57.9,32z"/>
	<path fill="#000066" d="M57.9,36.5c2.5,1.1,7.6,1.8,7,4.9l5.7-2.6l-4.5-4.5C65.6,37.4,60.6,36.3,57.9,36.5z"/>
	<path fill="#000066" d="M56.3,40.8c2,1.9,6.5,4.3,4.9,7l6.3-0.5l-2.7-5.7C63.3,44.4,59,41.6,56.3,40.8z"/>
	<path fill="#000066" d="M55.6,52.5l6.1,1.7l-0.6-6.3c-2.4,2.1-5.5-2-7.7-3.6C54.6,46.8,58.1,50.5,55.6,52.5z"/>
	<path fill="#000066" d="M49.5,46.6c0.3,2.7,2.2,7.5-0.7,8.5l5.1,3.6l1.6-6.1C52.6,53.7,51,48.8,49.5,46.6z"/>
	<path fill="#000066" d="M48.6,55.1c-3.2,0.1-2.9-5.1-3.6-7.7c-0.7,2.7-0.4,7.8-3.6,7.7l3.6,5.2L48.6,55.1z"/>
	<path fill="#000066" d="M40.6,46.6c-1.5,2.3-3.1,7.2-6,6l1.5,6.1l5.2-3.6C38.3,54.1,40.3,49.3,40.6,46.6z"/>
	<path fill="#000066" d="M36.6,44.3c-2.2,1.6-5.3,5.7-7.7,3.6l-0.6,6.3l6.1-1.7C32,50.5,35.4,46.8,36.6,44.3z"/>
	<path fill="#000066" d="M33.6,40.8c-2.6,0.7-7,3.5-8.5,0.8l-2.7,5.7l6.3,0.5C27.1,45.1,31.6,42.8,33.6,40.8z"/>
	<path fill="#000066" d="M32,36.6c-2.7-0.2-7.7,0.9-8.2-2.2l-4.5,4.4l5.7,2.7C24.4,38.4,29.5,37.8,32,36.6z"/>
	<path fill="#000066" d="M32,32.1c-2.5-1.1-7.6-1.8-7-4.9l-5.7,2.6l4.5,4.5C24.3,31.2,29.3,32.3,32,32.1z"/>
	<path fill="#000066" d="M33.6,27.8c-2-1.9-6.5-4.3-4.9-7l-6.3,0.5l2.7,5.7C26.6,24.2,30.9,27,33.6,27.8z"/>
	<path fill="#000066" d="M34.4,16l-6.1-1.7l0.6,6.3c2.4-2.1,5.5,2,7.7,3.6C35.4,21.7,31.9,18,34.4,16z"/>
	<path fill="#000066" d="M34.5,15.9c2.9-1.1,4.5,3.8,6,6c-0.3-2.7-2.2-7.5,0.7-8.5l-5.1-3.6L34.5,15.9z"/>
	<path fill="#000066" d="M45,21.1c0.7-2.7,0.4-7.8,3.6-7.7L45,8.2l-3.6,5.2C44.6,13.3,44.3,18.5,45,21.1z"/>
	<path fill="#000066" d="M87,74.4v0.2v6c0,0.3-0.2,0.6-0.5,0.7h-0.1c-1.2,0.5-2.6,0.4-3.8,0c-0.3-0.1-0.5-0.4-0.5-0.7v-3.3v-2.7H80
		v6c0,0.3-0.2,0.5-0.5,0.6h-0.1c-1.2,0.5-2.2,0.4-3.4,0c-0.3-0.1-0.5-0.4-0.5-0.7v-0.1c0.2-1.5,0.1-3-0.2-4.5
		c-0.2-0.8-1-1.4-1.9-1.4h-7.1c-1.2,0-2.2,1-2.2,2.1v3.8c0,0.3-0.2,0.6-0.5,0.7h-0.1c-1.2,0.4-2.3,0.4-3.5,0
		c-0.3-0.1-0.5-0.4-0.5-0.8v-3.2c0-1.6-1.1-2.7-2.4-2.7h-4.8c-2.3,0-4.2,1.9-4.2,4.2v0.6c0,2.3,1.9,4.2,4.2,4.2h4.6v-2.7h-4.8
		c-0.9,0-1.6-0.7-1.6-1.6v-0.7c0-0.9,0.7-1.6,1.6-1.6H57c0.4,0,0.7,0.3,0.7,0.7v3.8c0,0.9,0.6,1.7,1.5,1.9h0.1
		c1.9,0.4,3.7,0.4,5.7,0c0.9-0.2,1.5-1,1.5-1.9v-3.8c0-0.5,0.5-1,1-1H71c1.2,0,2.3,0.9,2.4,2.1c0.1,1.4-1,2.5-2.3,2.5H67v2h4.8
		c0,0,1.1-0.2,1.7-0.9c0,0,0.1,0,0.4-0.1c0.3,0.4,0.7,0.8,1.2,0.9h0.2c2,0.4,3.6,0.4,5.6,0c0.1,0,0.2-0.1,0.3-0.1
		c0.1,0.1,0.3,0.1,0.4,0.2h0.2c2,0.4,4,0.4,6,0c0.8-0.2,1.4-0.9,1.4-1.8v-6.9H87z"/>
	<path fill="#000066" d="M44.2,80.2c0,0.4-0.3,0.8-0.8,0.7h-4.2c-1.1,0-2-0.9-2-2v-0.3c0-1.1,0.9-2,2-2h1.2v-2.1H36h-4.6v2.1h1.4
		c1.1,0,2,0.9,2,2v0.3c0,1.1-0.9,2-2,2h-4.2c-0.4,0-0.8-0.3-0.8-0.7v-8.3h-2.1v9c0,1.4,1.1,2.5,2.5,2.5h5.3c0,0,1.9-0.1,2.5-2
		c0.6,1.9,2.5,2,2.5,2h5.3c1.4,0,2.5-1.1,2.5-2.5v-6.4h-2.1V80.2z"/>
	<path fill="#000066" d="M21.7,74.6H17c-1.9,0-3.2,1.4-3.2,3.1v2.2c0,1.7,1.4,3.1,3.1,3.1h4.8v-1.9h-4c-1,0-1.8-0.8-1.8-1.8v-1
		c0-1,0.8-1.8,1.8-1.8H21c0.9,0,1.7,0.8,1.7,1.7v7h2v-7.6C24.7,75.9,23.3,74.6,21.7,74.6z"/>
	<path fill="#000066" d="M9.9,74.4v7.7c0,0.6-0.5,1.2-1.2,1.2H4.6c-0.8,0-1.5-0.7-1.5-1.5v-3.6c0-0.8,0.7-1.5,1.5-1.5h0.6v-2.4H4.7
		c-2.2,0-3.9,1.8-3.9,3.9l0.1,3.4c0,2.3,1.9,4.1,4.1,4.1h3c2.4,0,4.4-2,4.4-4.4v-7H9.9V74.4z"/>
	<rect x="6.6" y="74.4" fill="#000066" width="2.4" height="2.1"/>
	<rect x="84.7" y="85.4" fill="#000066" width="2.4" height="2.1"/>
	<rect x="39.4" y="69.8" fill="#000066" width="4.6" height="2.1"/>
	<rect x="75.4" y="85.5" fill="#000066" width="4.6" height="2.1"/>
</g>
</svg>
