<?xml version="1.0" encoding="iso-8859-1"?>
<!-- Generator: Adobe Illustrator 27.0.0, SVG Export Plug-In . SVG Version: 6.00 Build 0)  -->
<svg version="1.1" id="Layer_1" xmlns="http://www.w3.org/2000/svg" xmlns:xlink="http://www.w3.org/1999/xlink" x="0px" y="0px"
	 width="90px" height="90px" viewBox="0 0 90 90" enable-background="new 0 0 90 90" xml:space="preserve">
<g>
	<polygon fill="#2F77B9" points="29.7,49.1 19.3,40.1 21.7,39.6 	"/>
	<polygon fill="#2F77B9" points="32,45.5 18.2,31.3 20.6,30.8 	"/>
	<polygon fill="#2F77B9" points="34.1,41.4 19.2,23.2 21.6,22.7 	"/>
	<polygon fill="#2F77B9" points="37.2,36.4 21.8,15.5 24.2,15 	"/>
	<polygon fill="#2F77B9" points="28,8.9 38.9,30.8 30,7.5 	"/>
	<polygon fill="#2F77B9" points="35.4,3.1 41.5,25.5 37.8,2.5 	"/>
	<polygon fill="#2F77B9" points="43,2 45.7,20.9 45.5,2 	"/>
	<polygon fill="#2F77B9" points="51.1,2.7 53.6,3.2 50.7,17.3 	"/>
	<polygon fill="#2F77B9" points="57.6,5.1 60.1,5.5 55.2,13.8 	"/>
	<polygon fill="#2F77B9" points="63.2,7.3 64.8,8.4 60.4,14 	"/>
	<polygon fill="#2F77B9" points="67.1,10.7 68.7,12 64.8,15.4 	"/>
	<polygon fill="#1F1F1D" points="60.7,20.1 70.7,28.4 68.3,29 	"/>
	<polygon fill="#1F1F1D" points="58.2,22.8 71.8,37.5 69.4,38 	"/>
	<polygon fill="#1F1F1D" points="56.2,26.4 70.4,45.6 68,46.1 	"/>
	<polygon fill="#1F1F1D" points="52.8,31.7 67.7,53 65.2,53.5 	"/>
	<polygon fill="#1F1F1D" points="61.6,60.3 50.6,36.9 59.2,60.9 	"/>
	<polygon fill="#1F1F1D" points="53.6,65.2 48.1,41.8 51.2,65.7 	"/>
	<polygon fill="#1F1F1D" points="46.2,65.9 43.9,46.8 43.7,65.9 	"/>
	<polygon fill="#1F1F1D" points="38.1,65.1 35.6,64.6 38.8,50.6 	"/>
	<polygon fill="#1F1F1D" points="31.7,62.8 29.2,62.4 34.1,54 	"/>
	<polygon fill="#1F1F1D" points="26.1,60.3 24.4,59.2 28.9,53.6 	"/>
	<polygon fill="#1F1F1D" points="22.2,56.9 20.7,55.7 24.6,52.3 	"/>
	<polygon fill="#2F77B9" points="30,49.6 28.3,52.5 29.7,52.3 	"/>
	<polygon fill="#2F77B9" points="32.5,46.5 32.6,51.3 34.1,50.6 	"/>
	<polygon fill="#2F77B9" points="34.7,42.5 37.4,49.1 38.8,48.4 	"/>
	<polygon fill="#2F77B9" points="37.7,37.3 42.4,45.9 43.8,44.9 	"/>
	<polygon fill="#2F77B9" points="39.5,31.7 46.6,41.6 48,40.2 	"/>
	<polygon fill="#1F1F1D" points="60.4,19.2 62.1,16.1 60.7,16.2 	"/>
	<polygon fill="#1F1F1D" points="57.8,22 57.8,17.1 56.2,17.7 	"/>
	<polygon fill="#1F1F1D" points="55.6,25.4 53,19.2 51.5,19.9 	"/>
	<polygon fill="#1F1F1D" points="52.1,30.6 47.6,22 46.2,22.9 	"/>
	<polygon fill="#1F1F1D" points="50.1,35.7 43.1,25.7 41.7,27 	"/>
</g>
<g>
	<path fill="#1F1F1D" d="M38.2,77.8v4.7c0,0.4-0.3,0.8-0.8,0.8h-4.2v1.1h4.7c1.1,0,2-0.9,2-2v-4.6H38.2z"/>
	<path fill="#1F1F1D" d="M30.3,77.8v5.5h-9.9c-0.4,0-0.8-0.3-0.8-0.8v-4.7h-1.7v4.6c0,1.1,0.9,2,2,2h12.1v-6.6H30.3z"/>
	<path fill="#1F1F1D" d="M86.9,77.8v4.7c0,0.4-0.3,0.8-0.8,0.8h-2.5v-5.5h-1.7v4.5c0,0.5-0.4,1-1,1h-2.5v-2.1c0-1.8-1.5-3.3-3.3-3.3
		h-1c-1.8,0-3.3,1.5-3.3,3.3v2.1h-3.5V79h0v-1.1h0H63c-1.3,0-2.4,1.1-2.4,2.4v0.2h1.9v-0.3c0-0.7,0.5-1.2,1.2-1.2h2v5.4l6.6,0v-3.2
		c0-1.2,0.9-2.1,2.1-2.1h0.4c1.2,0,2.1,0.9,2.1,2.1v2.1h-2.8v1.1h12.4c1.1,0,2-0.9,2-2v-4.6H86.9z"/>
	<path fill="#1F1F1D" d="M56,77.8v4.7c0,0.4-0.3,0.8-0.8,0.8h-2.5V79h0v-1.1h-4.4c-1.3,0-2.4,1.1-2.4,2.4v0.2h1.9v-0.3
		c0-0.7,0.5-1.2,1.2-1.2h2v4.3h-7.7c-0.4,0-0.8-0.3-0.8-0.8v-4.7h-1.7v4.6c0,1.1,0.9,2,2,2h12.7c1.1,0,2-0.9,2-2v-4.6H56z"/>
	<path fill="#1F1F1D" d="M13.5,77.8v4.7c0,0.4-0.3,0.8-0.8,0.8h-2.6v-5.5l-5.4,0c-1.9,0-3.4,1.5-3.4,3.4s1.5,3.4,3.4,3.4H7v-1.6H4.8
		c-1,0-1.8-0.8-1.8-1.8s0.8-1.8,1.8-1.8h3.6v7.8h1.7v-2.8h3c1.1,0,2-0.9,2-2v-4.6H13.5z"/>
	<rect x="52.3" y="74.9" fill="#1F1F1D" width="1.6" height="1.2"/>
	<rect x="54.5" y="74.9" fill="#1F1F1D" width="1.6" height="1.2"/>
	<rect x="22.9" y="74.9" fill="#1F1F1D" width="1.6" height="1.2"/>
	<rect x="25.1" y="74.9" fill="#1F1F1D" width="1.6" height="1.2"/>
	<rect x="78.5" y="86" fill="#1F1F1D" width="1.6" height="1.2"/>
	<rect x="80.6" y="86" fill="#1F1F1D" width="1.6" height="1.2"/>
	<rect x="84.5" y="86" fill="#1F1F1D" width="1.6" height="1.2"/>
	<rect x="49.4" y="86" fill="#1F1F1D" width="1.6" height="1.2"/>
	<rect x="11" y="74.9" fill="#1F1F1D" width="1.6" height="1.2"/>
</g>
</svg>
