<svg xmlns="http://www.w3.org/2000/svg" version="1.1" xmlns:xlink="http://www.w3.org/1999/xlink" width="512" height="512" x="0" y="0" viewBox="0 0 512 512" style="enable-background:new 0 0 512 512" xml:space="preserve" class=""><g><path fill="#f2f2f0" d="M303.165 27.301H103.859a20.603 20.603 0 0 0-20.009 15.69l-17.979 73.214 135.945 10.534 139.338-10.534-17.979-73.214a20.605 20.605 0 0 0-20.01-15.69z" opacity="1" data-original="#f2f2f0" class=""></path><path fill="#e4e5e1" d="m125.858 27.299-22.85 88.905-29.567 7.726-7.572-7.726 17.977-73.216a20.617 20.617 0 0 1 20.017-15.69h21.995z" opacity="1" data-original="#e4e5e1" class=""></path><path fill="#e25656" d="M65.876 123.934c-.611 0-.006-7.728-.006-7.728l-7.504-1.843 17.98-73.214a28.267 28.267 0 0 1 27.512-21.574h199.305a28.266 28.266 0 0 1 27.512 21.574l17.979 73.214-7.503 1.843s-6.486 5.986-7.503 1.842l-17.979-73.214a12.85 12.85 0 0 0-12.506-9.806H103.86a12.846 12.846 0 0 0-12.505 9.805l-17.981 73.215a7.733 7.733 0 0 1-7.498 5.886z" opacity="1" data-original="#fec165" class=""></path><path fill="#fe5c5c" d="m127.836 19.573-3.966 15.453h-20.006a12.842 12.842 0 0 0-12.506 9.807L73.37 118.049a7.722 7.722 0 0 1-7.489 5.882c-.618 0-.01-7.726-.01-7.726l-7.5-1.844 17.977-73.215a28.27 28.27 0 0 1 27.516-21.572h23.972z" opacity="1" data-original="#fea95c" class=""></path><path fill="#ff5b5b" d="M394.71 229.746v-63.452a42.845 42.845 0 0 0-27.381-39.957l-26.176-10.131-3.547-2.192-4.402 2.192H103.009l-38.755 3.338-19.801 6.794a42.846 42.846 0 0 0-27.381 39.957v63.452l182.416 14.12z" opacity="1" data-original="#ffd15b" class=""></path><path fill="#e25656" d="M103.009 116.205 59.71 143.783a32.954 32.954 0 0 0-15.257 27.805v58.154l-15.612 11.41-16.53-11.41v-63.449a42.834 42.834 0 0 1 27.382-39.951l26.177-10.137 3.839-2.991 4.273 2.991z" opacity="1" data-original="#fec165" class=""></path><path fill="#f2f2f0" d="M116.214 198.148H65.871c-11.831 0-21.423-9.591-21.423-21.423v-5.356c0-5.916 4.796-10.711 10.711-10.711h26.105c14.347 0 26.956 9.511 30.898 23.306z" opacity="1" data-original="#f2f2f0" class=""></path><path fill="#7e7d89" d="m1.742 244.254-.003 25.811c0 5.916 4.733 10.711 10.572 10.711l32.142 2.117h94.791l64.268-8.97 64.269 8.97h128.676c5.839 0 10.572-4.796 10.572-10.711v-31.725c0-5.916-4.733-10.711-10.572-10.711H267.78l-68.292 14.12-60.245-14.12h-94.79l-32.139 3.796c-5.839 0-10.572 4.796-10.572 10.712z" opacity="1" data-original="#7e7d89"></path><path fill="#717182" d="M44.453 229.742v53.148H10.57C4.729 282.89 0 278.1 0 272.186v-31.73c0-5.913 4.729-10.714 10.57-10.714z" opacity="1" data-original="#717182" class=""></path><path fill="#f2f2f0" d="M139.244 229.746h128.537v53.147H139.244z" opacity="1" data-original="#f2f2f0" class=""></path><g fill="#ffd15b"><path d="M368.397 79.613h15.639c6.479 0 11.731 5.252 11.731 11.731 0 13.73-11.131 24.861-24.861 24.861h-37.702v-1.399c0-19.436 15.757-35.193 35.193-35.193zM38.514 79.327H22.753c-6.53 0-11.823 5.293-11.823 11.823 0 13.838 11.218 25.056 25.056 25.056h37.997v-1.41c0-19.589-15.88-35.469-35.469-35.469z" fill="#ff5b5b" opacity="1" data-original="#ffd15b" class=""></path></g><path fill="#717182" d="M476.526 403.523h-64.678L400.85 381.9l10.998-19.482h74.98v30.803c0 5.689-4.612 10.302-10.302 10.302z" opacity="1" data-original="#717182" class=""></path><path fill="#f2f2f0" d="M408.136 115.796H208.831a20.603 20.603 0 0 0-20.009 15.69l-17.98 73.214 135.945 10.534L446.125 204.7l-17.979-73.214a20.604 20.604 0 0 0-20.01-15.69z" opacity="1" data-original="#f2f2f0" class=""></path><path fill="#e4e5e1" d="M230.83 115.794 207.98 204.7l-29.567 7.726-7.572-7.726 17.977-73.216a20.617 20.617 0 0 1 20.017-15.69z" opacity="1" data-original="#e4e5e1" class=""></path><path fill="#fc0505" d="M170.848 212.429c-.611 0-.006-7.728-.006-7.728l-7.504-1.843 17.98-73.214a28.267 28.267 0 0 1 27.512-21.574h199.305a28.266 28.266 0 0 1 27.512 21.574l17.979 73.214-7.503 1.843s-6.486 5.986-7.503 1.842l-17.979-73.214a12.85 12.85 0 0 0-12.506-9.806H208.831a12.846 12.846 0 0 0-12.505 9.805l-17.981 73.215a7.73 7.73 0 0 1-7.497 5.886z" opacity="1" data-original="#0593fc" class=""></path><path fill="#fc0101" d="m232.808 108.068-3.966 15.453h-20.006a12.842 12.842 0 0 0-12.506 9.807l-17.987 73.216a7.722 7.722 0 0 1-7.489 5.882c-.618 0-.01-7.726-.01-7.726l-7.5-1.844 17.977-73.215a28.27 28.27 0 0 1 27.516-21.572h23.971z" opacity="1" data-original="#0182fc" class=""></path><path fill="#fe2626" d="M499.682 318.241v-63.452a42.845 42.845 0 0 0-27.381-39.957L446.125 204.7l-3.547-2.192-4.402 2.192H207.98l-38.755 3.338-19.801 6.794a42.846 42.846 0 0 0-27.381 39.957v63.452l182.416 14.12z" opacity="1" data-original="#26a6fe" class=""></path><path fill="#fc0505" d="m207.98 204.7-43.299 27.578a32.954 32.954 0 0 0-15.257 27.805v58.154l-15.612 11.41-16.53-11.41v-63.449a42.834 42.834 0 0 1 27.382-39.951l26.177-10.137 3.839-2.991 4.273 2.991z" opacity="1" data-original="#0593fc" class=""></path><path fill="#f2f2f0" d="M395.781 286.643h50.344c11.831 0 21.423-9.591 21.423-21.423v-5.356c0-5.916-4.796-10.711-10.711-10.711h-26.105c-14.347 0-26.956 9.511-30.898 23.306z" opacity="1" data-original="#f2f2f0" class=""></path><path fill="#7e7d89" d="m106.713 332.749-.003 25.811c0 5.916 4.733 10.711 10.572 10.711l32.142 2.117h94.791l64.268-8.97 64.269 8.97h128.676c5.839 0 10.572-4.796 10.572-10.711v-31.725c0-5.916-4.733-10.711-10.572-10.711H372.752l-68.292 14.12-60.245-14.12h-94.791l-32.139 3.796c-5.838 0-10.572 4.796-10.572 10.712z" opacity="1" data-original="#7e7d89"></path><path fill="#717182" d="M149.424 318.237v53.148h-33.883c-5.841 0-10.57-4.79-10.57-10.704v-31.73c0-5.913 4.729-10.714 10.57-10.714z" opacity="1" data-original="#717182" class=""></path><g fill="#26a6fe"><path d="M473.369 168.108h15.639c6.479 0 11.731 5.252 11.731 11.731 0 13.73-11.131 24.861-24.861 24.861h-37.702v-1.399c0-19.436 15.756-35.193 35.193-35.193zM139.056 167.822h-15.761c-6.53 0-11.823 5.293-11.823 11.823v5.119c0 11.011 8.926 19.937 19.937 19.937h43.116v-1.41c0-19.589-15.88-35.469-35.469-35.469z" fill="#fe2626" opacity="1" data-original="#26a6fe" class=""></path></g><path fill="#717182" d="M388.695 492.427h-54.376c-5.69 0-10.302-4.612-10.302-10.302v-30.803h74.98v30.803c0 5.69-4.612 10.302-10.302 10.302zM106.986 492.427H52.61c-5.69 0-10.302-4.612-10.302-10.302V452.82h74.98v29.305c0 5.69-4.613 10.302-10.302 10.302z" opacity="1" data-original="#717182" class=""></path><path fill="#f2f2f0" d="M320.305 204.7H121a20.603 20.603 0 0 0-20.009 15.69l-17.979 73.214 135.945 10.534 139.338-10.534-17.979-73.214a20.607 20.607 0 0 0-20.011-15.69z" opacity="1" data-original="#f2f2f0" class=""></path><path fill="#e4e5e1" d="m142.999 204.699-22.85 88.905-29.567 7.726-7.572-7.726 17.977-73.215a20.617 20.617 0 0 1 20.017-15.69z" opacity="1" data-original="#e4e5e1" class=""></path><path fill="#d56e6e" d="M83.017 301.333c-.611 0-.006-7.728-.006-7.728l-7.504-1.843 17.98-73.214a28.267 28.267 0 0 1 27.512-21.574h199.305a28.266 28.266 0 0 1 27.512 21.574l17.979 73.214-7.503 1.843s-6.486 5.986-7.503 1.842l-17.979-73.214a12.85 12.85 0 0 0-12.506-9.806H121a12.846 12.846 0 0 0-12.505 9.805l-17.981 73.215a7.728 7.728 0 0 1-7.497 5.886z" opacity="1" data-original="#6ed5a1" class=""></path><path fill="#cc4646" d="m144.976 196.972-3.966 15.453h-20.006a12.842 12.842 0 0 0-12.506 9.807L90.51 295.448a7.722 7.722 0 0 1-7.489 5.882c-.618 0-.01-7.726-.01-7.726l-7.5-1.844 17.977-73.215a28.271 28.271 0 0 1 27.516-21.572h23.972z" opacity="1" data-original="#46cc8d" class=""></path><path fill="#de9191" d="M411.851 407.146v-63.452a42.845 42.845 0 0 0-27.381-39.957l-26.176-10.131-3.547-2.191-4.402 2.191H120.149l-38.755 3.338-19.801 6.794a42.846 42.846 0 0 0-27.381 39.957v63.452l182.416 14.12z" opacity="1" data-original="#91deb6" class=""></path><path fill="#d56e6e" d="M120.149 293.604 76.85 321.182a32.954 32.954 0 0 0-15.257 27.805v58.154l-15.612 11.41-16.53-11.41v-63.449a42.834 42.834 0 0 1 27.382-39.951l26.177-10.137 3.839-2.991 4.273 2.991zM160.731 338.057h52.197l8.596 6.758 6.857-6.758h52.194c2.71 0 4.682 2.57 3.98 5.188l-4.402 16.425a21.423 21.423 0 0 1-20.692 15.877h-31.079l-7.728-4.158-7.724 4.158h-31.083a21.421 21.421 0 0 1-20.692-15.877l-4.402-16.425c-.704-2.618 1.268-5.188 3.978-5.188z" opacity="1" data-original="#6ed5a1" class=""></path><path fill="#f2f2f0" d="M133.355 375.547H83.011c-11.831 0-21.423-9.591-21.423-21.423v-5.356c0-5.916 4.796-10.711 10.711-10.711h26.105c14.347 0 26.956 9.511 30.898 23.306zM307.95 375.547h50.344c11.831 0 21.423-9.591 21.423-21.423v-5.356c0-5.916-4.796-10.711-10.711-10.711H342.9c-14.347 0-26.956 9.511-30.898 23.306z" opacity="1" data-original="#f2f2f0" class=""></path><path fill="#cc4646" d="M212.928 338.057h15.453v37.489h-15.453z" opacity="1" data-original="#46cc8d" class=""></path><path fill="#7e7d89" d="m18.882 421.653-.003 25.811c0 5.916 4.733 10.711 10.572 10.711l32.142 2.117h94.791l64.268-8.97 64.269 8.97h128.676c5.839 0 10.572-4.796 10.572-10.711v-31.725c0-5.916-4.733-10.711-10.572-10.711H284.921l-68.292 14.12-60.245-14.12H61.593l-32.139 3.796c-5.839.001-10.572 4.797-10.572 10.712z" opacity="1" data-original="#7e7d89"></path><path fill="#717182" d="M61.593 407.141v53.148H27.71c-5.841 0-10.57-4.79-10.57-10.704v-31.73c0-5.913 4.729-10.714 10.57-10.714z" opacity="1" data-original="#717182" class=""></path><path fill="#f2f2f0" d="M156.384 407.146h128.537v53.147H156.384z" opacity="1" data-original="#f2f2f0" class=""></path><g fill="#91deb6"><path d="M385.538 257.013h15.639c6.479 0 11.731 5.252 11.731 11.731 0 13.73-11.131 24.861-24.861 24.861h-37.702v-1.399c-.001-19.437 15.756-35.193 35.193-35.193zM55.654 256.726H39.893c-6.53 0-11.823 5.293-11.823 11.823 0 13.838 11.218 25.056 25.056 25.056h37.997v-1.41c0-19.589-15.88-35.469-35.469-35.469z" fill="#de9191" opacity="1" data-original="#91deb6" class=""></path></g></g></svg>