<svg width="347" height="342" viewBox="0 0 347 342" fill="none" xmlns="http://www.w3.org/2000/svg">
<g clip-path="url(#clip0_2_38)">
<path d="M83.4234 123.475C61.5338 123.475 46.3328 129.048 46.3328 164.011H36.2494C34.8567 164.014 33.4783 163.73 32.2001 163.177C30.922 162.624 29.7715 161.814 28.8206 160.796C27.8697 159.779 27.1387 158.576 26.6732 157.264C26.2078 155.951 26.0179 154.557 26.1153 153.167C28.9361 116.14 45.636 81.5445 72.8729 56.3037C100.11 31.0628 135.874 17.0391 173.008 17.0391C210.143 17.0391 245.907 31.0628 273.144 56.3037C300.381 81.5445 317.081 116.14 319.901 153.167C319.999 154.557 319.809 155.951 319.343 157.264C318.878 158.576 318.147 159.779 317.196 160.796C316.245 161.814 315.095 162.624 313.817 163.177C312.538 163.73 311.16 164.014 309.767 164.011H299.684C299.684 129.048 289.55 123.475 262.593 123.475H83.4234Z" fill="#CCE8CB"/>
<path d="M147.927 138.929C143.169 143.63 139.848 149.588 138.35 156.106C137.836 158.345 136.581 160.345 134.787 161.78C132.993 163.215 130.766 164.001 128.469 164.011H46.3328C46.3133 147.372 49.5799 130.893 55.9448 115.52C62.3098 100.146 71.6479 86.1812 83.4234 74.4257L117.271 93.0724L147.927 138.929Z" fill="#88151D"/>
<path d="M173.008 37.3351L183.142 93.0724L173.008 129.808H163.533C157.631 131.451 152.255 134.593 147.927 138.929L83.4234 74.4257C95.1788 62.6503 109.144 53.3121 124.517 46.9472C139.891 40.5822 156.369 37.3157 173.008 37.3351Z" fill="#F4A531"/>
<path d="M262.593 74.4257L233.813 113.34L198.09 138.929C193.762 134.593 188.385 131.451 182.484 129.808H173.008V37.3351C189.647 37.3157 206.126 40.5822 221.499 46.9472C236.873 53.3121 250.838 62.6503 262.593 74.4257Z" fill="#FFCF38"/>
<path d="M188.209 164.036C188.209 168.068 186.608 171.934 183.757 174.785C180.906 177.636 177.04 179.237 173.008 179.237C168.977 179.237 165.11 177.636 162.26 174.785C159.409 171.934 157.807 168.068 157.807 164.036C157.807 158.857 163.609 129.185 168.043 107.285C168.275 106.14 168.897 105.11 169.802 104.37C170.707 103.631 171.839 103.227 173.008 103.227C174.177 103.227 175.31 103.631 176.215 104.37C177.12 105.11 177.741 106.14 177.974 107.285C182.408 129.185 188.209 158.857 188.209 164.036Z" fill="#60656D"/>
<path d="M299.684 164.011H217.547C215.25 164.001 213.024 163.215 211.23 161.78C209.436 160.345 208.18 158.345 207.667 156.106C206.169 149.588 202.847 143.63 198.09 138.929L262.593 74.4257C274.369 86.1812 283.707 100.146 290.072 115.52C296.437 130.893 299.703 147.372 299.684 164.011Z" fill="#8ABF47"/>
<path d="M173.008 12C134.617 12.0581 97.6576 26.5789 69.4941 52.669C41.3306 78.759 24.0312 114.503 21.0431 152.777C20.8863 154.848 21.1582 156.93 21.8417 158.891C22.5252 160.853 23.6056 162.653 25.0157 164.178C26.4478 165.721 28.1827 166.953 30.112 167.796C32.0412 168.639 34.1236 169.075 36.229 169.078H128.449C131.897 169.078 135.243 167.905 137.938 165.752C140.632 163.599 142.514 160.595 143.275 157.231C144.539 151.693 147.338 146.623 151.352 142.603C151.392 142.562 151.453 142.552 151.494 142.511C151.534 142.471 151.524 142.451 151.549 142.42C153.135 140.853 154.887 139.463 156.773 138.275C154.789 146.75 153.434 155.361 152.72 164.036C152.72 169.411 154.855 174.567 158.656 178.368C162.457 182.169 167.612 184.304 172.988 184.304C174.332 184.304 175.621 183.77 176.571 182.82C177.521 181.87 178.055 180.581 178.055 179.237C178.055 177.893 177.521 176.604 176.571 175.654C175.621 174.704 174.332 174.17 172.988 174.17C170.3 174.17 167.723 173.102 165.822 171.202C163.922 169.301 162.854 166.724 162.854 164.036C162.854 162.339 163.867 153.507 172.988 108.299C182.139 153.532 183.122 162.364 183.122 164.061C183.122 165.405 183.656 166.694 184.606 167.644C185.556 168.595 186.845 169.128 188.189 169.128C189.533 169.128 190.822 168.595 191.772 167.644C192.722 166.694 193.256 165.405 193.256 164.061C192.542 155.388 191.187 146.779 189.202 138.306C191.093 139.489 192.845 140.879 194.426 142.451C194.452 142.476 194.457 142.511 194.482 142.537C194.508 142.562 194.578 142.587 194.619 142.628C198.645 146.649 201.455 151.725 202.726 157.272C203.489 160.631 205.373 163.63 208.068 165.776C210.763 167.922 214.108 169.086 217.552 169.078H309.772C311.878 169.075 313.96 168.639 315.889 167.796C317.818 166.953 319.553 165.721 320.985 164.178C322.393 162.656 323.473 160.861 324.156 158.904C324.839 156.947 325.112 154.87 324.958 152.802C321.975 114.526 304.68 78.7794 276.519 52.6848C248.359 26.5901 211.4 12.0636 173.008 12ZM133.409 154.971C133.149 156.091 132.52 157.091 131.623 157.812C130.726 158.532 129.614 158.931 128.464 158.944H51.5263C52.7047 130.219 64.059 102.85 83.56 81.7273L140.974 139.142C137.316 143.796 134.733 149.201 133.409 154.971ZM148.134 131.972L90.7248 74.5625C111.848 55.0615 139.217 43.7072 167.941 42.5288V99.472C166.692 100.19 165.611 101.167 164.772 102.339C163.933 103.51 163.355 104.848 163.077 106.262C161.557 113.837 160.265 120.292 159.15 125.988C155.19 127.399 151.474 129.418 148.134 131.972ZM182.94 106.247C182.662 104.833 182.084 103.495 181.245 102.324C180.406 101.152 179.325 100.175 178.075 99.4568V42.5288C206.799 43.7072 234.169 55.0615 255.292 74.5625L197.882 131.972C194.541 129.425 190.825 127.413 186.866 126.008C185.752 120.292 184.47 113.847 182.94 106.247ZM212.612 154.971C211.285 149.197 208.701 143.787 205.042 139.127L262.456 81.7273C281.957 102.85 293.312 130.219 294.49 158.944H217.552C216.405 158.932 215.294 158.536 214.399 157.818C213.503 157.101 212.874 156.104 212.612 154.986V154.971ZM313.562 157.282C313.083 157.805 312.5 158.222 311.85 158.506C311.199 158.79 310.497 158.934 309.787 158.928H304.624C303.375 125.915 289.729 94.5841 266.409 71.1828C266.317 71.0714 266.277 70.9345 266.176 70.8281C266.074 70.7217 265.932 70.6863 265.821 70.5951C241.173 46.0401 207.8 32.253 173.008 32.253C138.217 32.253 104.843 46.0401 80.1955 70.5951C80.0841 70.6863 79.9472 70.7268 79.8408 70.8281C79.7344 70.9295 79.699 71.0714 79.6078 71.1828C56.2835 94.5879 42.638 125.924 41.3923 158.944H36.229C35.5195 158.949 34.8169 158.805 34.1667 158.521C33.5164 158.237 32.9329 157.82 32.454 157.297C31.9817 156.798 31.6198 156.206 31.3919 155.558C31.164 154.91 31.0753 154.222 31.1316 153.537C33.8696 117.789 50.0034 84.3916 76.3058 60.0268C102.608 35.6619 137.14 22.1257 172.993 22.1257C208.846 22.1257 243.378 35.6619 269.68 60.0268C295.983 84.3916 312.116 117.789 314.854 153.537C314.916 154.219 314.833 154.907 314.61 155.555C314.387 156.203 314.03 156.797 313.562 157.297V157.282Z" fill="#373737"/>
<path d="M263.319 339.527H82.6897C79.0283 339.527 76.0601 336.559 76.0601 332.897V237.231C76.0601 233.57 79.0283 230.602 82.6897 230.602H263.319C266.98 230.602 269.949 233.57 269.949 237.231V332.897C269.948 336.559 266.98 339.527 263.319 339.527Z" fill="#F1F9F2"/>
<path d="M278.858 197.896L266.201 245.617L258.75 273.712L256.274 283.055C255.356 286.506 251.63 288.506 247.952 287.523L245.175 286.784C241.493 285.802 239.253 282.209 240.167 278.763L242.613 269.531L250.068 241.437L262.755 193.6C263.669 190.15 267.394 188.15 271.072 189.132L273.849 189.875C277.531 190.854 279.776 194.446 278.858 197.896Z" fill="#A8D8AD"/>
<path d="M206.763 261.603H95.7214C93.0184 261.603 90.827 259.411 90.827 256.708V247.295C90.827 244.592 93.0184 242.401 95.7214 242.401H206.763C209.466 242.401 211.657 244.592 211.657 247.295V256.708C211.657 259.411 209.466 261.603 206.763 261.603Z" fill="#64C05E"/>
<path d="M266.201 245.617L258.75 273.712L242.613 269.531L250.068 241.437L266.201 245.617Z" fill="#64C05E"/>
<path d="M95.5664 339.527H82.691C79.03 339.527 76.0601 336.557 76.0601 332.896V237.231C76.0601 233.57 79.03 230.6 82.691 230.6H95.5664C91.9055 230.6 88.9356 233.57 88.9356 237.231V332.896C88.9356 336.557 91.9055 339.527 95.5664 339.527Z" fill="#D1F7D0"/>
<path d="M91.0008 293.865H177.88C179.658 293.865 181.099 292.424 181.099 290.646C181.099 288.868 179.658 287.427 177.88 287.427H91.0008C89.2227 287.427 87.7819 288.868 87.7819 290.646C87.7819 292.424 89.2231 293.865 91.0008 293.865Z" fill="black"/>
<path d="M169.237 323.457C170.036 326.199 170.862 329.035 173.695 329.035C175.226 329.035 176.268 329.035 188.443 314.823C192.037 318.871 198.507 325.022 204.65 325.021C204.985 325.021 205.321 325.002 205.653 324.965C209.321 324.545 212.28 322.087 214.891 319.917C219.672 315.945 220.53 315.989 222.421 317.935C229.487 325.202 238.104 322.735 241.672 320.415C243.162 319.446 243.596 317.445 242.627 315.955C241.659 314.464 239.675 314.035 238.185 315.003C237.572 315.387 232.053 318.607 227.036 313.447C223.487 309.796 219.964 309.887 217.633 310.607C215.072 311.397 212.888 313.211 210.777 314.966C208.764 316.638 206.683 318.367 204.921 318.569C201.34 318.981 194.519 312.424 191.038 307.867C190.447 307.092 189.537 306.626 188.562 306.6C187.589 306.577 186.653 306.993 186.023 307.736C182.239 312.197 177.866 317.174 175.015 320.224C173.958 316.258 172.522 309.914 171.38 304.315C171.092 302.905 169.904 301.857 168.47 301.748C167.026 301.636 165.702 302.496 165.205 303.846L157.307 325.313C156.694 326.982 157.549 328.832 159.217 329.445C159.583 329.58 159.959 329.644 160.328 329.644C161.639 329.644 162.87 328.838 163.349 327.536L167.44 316.418C168.13 319.362 168.734 321.729 169.237 323.457Z" fill="black"/>
<path d="M91.0008 279.385H177.88C179.658 279.385 181.099 277.944 181.099 276.166C181.099 274.388 179.658 272.947 177.88 272.947H91.0008C89.2227 272.947 87.7819 274.388 87.7819 276.166C87.7819 277.944 89.2231 279.385 91.0008 279.385Z" fill="black"/>
<path d="M95.8956 265.04H207.076C211.55 265.04 215.19 261.401 215.19 256.927V247.545C215.19 243.071 211.55 239.431 207.076 239.431H95.8956C91.4218 239.431 87.7823 243.071 87.7823 247.545V256.927C87.7819 261.4 91.4218 265.04 95.8956 265.04ZM94.2197 247.544C94.2197 246.62 94.9716 245.869 95.8952 245.869H207.076C208 245.869 208.751 246.62 208.751 247.544V256.927C208.751 257.851 208 258.602 207.076 258.602H95.8956C94.972 258.602 94.2201 257.851 94.2201 256.927L94.2197 247.544Z" fill="black"/>
<path d="M270.33 321.716C268.552 321.716 267.111 323.157 267.111 324.935V332.561C267.111 334.443 265.58 335.973 263.699 335.973H168.12C166.342 335.973 164.901 337.414 164.901 339.192C164.901 340.97 166.342 342.411 168.12 342.411H263.699C269.13 342.411 273.549 337.993 273.549 332.561V324.935C273.549 323.157 272.108 321.716 270.33 321.716Z" fill="black"/>
<path d="M289.74 209.83C287.789 206.714 284.8 204.394 281.253 203.211L282.361 199.043C283.036 196.507 282.622 193.856 281.197 191.579C279.815 189.373 277.637 187.781 275.063 187.096L272.283 186.357C266.887 184.922 261.384 187.947 260.014 193.099L250.938 227.222H82.845C77.4167 227.222 73 231.641 73 237.072V332.561C73 337.992 77.4167 342.411 82.845 342.411H153.527C155.305 342.411 156.746 340.97 156.746 339.192C156.746 337.414 155.305 335.973 153.527 335.973H82.845C80.9661 335.973 79.4377 334.443 79.4377 332.561V237.072C79.4377 235.191 80.9665 233.66 82.845 233.66H249.226L246.942 242.251C246.94 242.259 246.937 242.266 246.935 242.274C246.932 242.282 246.932 242.289 246.929 242.298L240.329 267.116C240.327 267.122 240.324 267.128 240.323 267.134C240.322 267.14 240.321 267.146 240.319 267.152L237.4 278.126C236.218 282.573 238.496 287.171 242.61 289.27L240.302 297.945C239.846 299.663 240.868 301.426 242.586 301.883C242.863 301.957 243.141 301.992 243.415 301.992C244.838 301.992 246.141 301.04 246.524 299.599L248.792 291.074C249.264 291.138 249.737 291.172 250.208 291.172C251.888 291.172 253.54 290.766 255.029 289.968C257.397 288.7 259.072 286.606 259.747 284.069L262.668 273.083C262.668 273.083 262.67 273.079 262.671 273.077C262.671 273.074 262.672 273.071 262.673 273.068L267.11 256.382V310.343C267.11 312.12 268.551 313.562 270.329 313.562C272.107 313.562 273.548 312.12 273.548 310.343V237.073C273.548 236.02 273.383 234.995 273.061 234.01L279.592 209.453C281.555 210.196 283.198 211.515 284.281 213.244C285.5 215.195 285.862 217.432 285.301 219.543L279.997 239.483C279.54 241.201 280.562 242.964 282.28 243.421C282.558 243.495 282.836 243.53 283.11 243.53C284.533 243.53 285.836 242.579 286.219 241.138L291.522 221.198C292.546 217.347 291.913 213.312 289.74 209.83ZM253.526 282.414C253.315 283.208 252.77 283.875 251.991 284.292C251.141 284.748 250.125 284.854 249.134 284.59L246.353 283.851C244.39 283.328 243.164 281.502 243.622 279.78L245.718 271.899L255.622 274.533L253.526 282.414ZM257.277 268.312L247.373 265.678L252.33 247.04L262.234 249.674L257.277 268.312ZM263.888 243.452L253.984 240.818L266.235 194.754C266.61 193.347 267.995 192.438 269.56 192.438C269.91 192.438 270.269 192.483 270.628 192.578L273.408 193.318C274.399 193.581 275.227 194.178 275.74 194.996C276.209 195.745 276.351 196.594 276.14 197.388L263.888 243.452Z" fill="black"/>
</g>
<defs>
<clipPath id="clip0_2_38">
<rect width="347" height="347" fill="white" transform="translate(0 -5)"/>
</clipPath>
</defs>
</svg>
