<svg xmlns="http://www.w3.org/2000/svg" version="1.1" xmlns:xlink="http://www.w3.org/1999/xlink" width="512" height="512" x="0" y="0" viewBox="0 0 512 512" style="enable-background:new 0 0 512 512" xml:space="preserve" class=""><g><path fill-rule="evenodd" d="M466.874 389.29a18.876 18.876 0 0 0 .262-3.114v-63.035a60.913 60.913 0 0 0-45.823-58.941v-7.63h28a22.792 22.792 0 0 0 0-45.584h-17.98a22.836 22.836 0 0 0-20.975 13.868l-14.817-32.4a97.733 97.733 0 1 0-153.307-56.5h-88.489c-17.276 0-24.257 15.258-29.868 27.519l-28.069 61.381a22.83 22.83 0 0 0-20.975-13.868h-17.98a22.792 22.792 0 0 0 0 45.584h28V266a60.923 60.923 0 0 0-39.989 57.142v63.035a18.876 18.876 0 0 0 .262 3.114 15.746 15.746 0 0 0-14.961 15.7v8.678a15.764 15.764 0 0 0 15.744 15.748h20.385v40.145a26.345 26.345 0 0 0 26.229 26.4h23.307a26.344 26.344 0 0 0 26.228-26.4v-40.144h227.884v40.145a26.344 26.344 0 0 0 26.229 26.4h23.306a26.346 26.346 0 0 0 26.23-26.4v-40.145h20.384a15.767 15.767 0 0 0 15.744-15.748v-8.678a15.745 15.745 0 0 0-14.961-15.702z" fill="#000000" opacity="1" data-original="#000000"></path><path fill="#999999" d="M45.909 402.022h420.182a2.97 2.97 0 0 1 2.97 2.97v8.683a2.971 2.971 0 0 1-2.971 2.971H45.909a2.971 2.971 0 0 1-2.971-2.971v-8.682a2.971 2.971 0 0 1 2.971-2.971z" opacity="1" data-original="#999999" class=""></path><g fill-rule="evenodd"><path fill="#ed8585" d="M97.633 256.571v-5L135.5 168.79c5.69-12.437 9.61-20.058 18.246-20.058h92.409a97.738 97.738 0 0 0 138.533 50.709l23.857 52.138v10.811c-.741-.028-1.477-.059-2.218-.059H105.669a60.53 60.53 0 0 0-8.036.55z" opacity="1" data-original="#85beed" class=""></path><path fill="#e6e6e6" d="M46.837 233.782a10.029 10.029 0 0 1 10.016-10.022h17.98a10.03 10.03 0 0 1 10.02 10.022V243.8h-28a10.027 10.027 0 0 1-10.016-10.018zM421.312 233.782a10.031 10.031 0 0 1 10.021-10.022h17.98a10.019 10.019 0 1 1 0 20.037h-28z" opacity="1" data-original="#e6e6e6" class=""></path><path fill="#ff5b5b" d="M337.5 198.834a85.012 85.012 0 0 0 0-170.023h-.013a85.012 85.012 0 0 0 .008 170.023zm26.632-79.215a20.848 20.848 0 1 1-20.852 20.85 20.872 20.872 0 0 1 20.852-20.85zm-74.116-32.437a20.85 20.85 0 1 1 20.85 20.844 20.876 20.876 0 0 1-20.85-20.844zm76.194-11.674-46.832 81.116a6.119 6.119 0 0 1-10.6-6.116l46.836-81.121a6.118 6.118 0 0 1 10.6 6.121zm-63.958 11.674a8.614 8.614 0 1 1 8.613 8.608 8.628 8.628 0 0 1-8.613-8.608zm61.874 61.9a8.612 8.612 0 1 1 8.613-8.609 8.617 8.617 0 0 1-8.613 8.605z" opacity="1" data-original="#41ba7d" class=""></path><path fill="#f04e5b" d="M57.637 323.142a48.091 48.091 0 0 1 48.032-48.042h300.657a48.091 48.091 0 0 1 48.036 48.038v63.035a6.254 6.254 0 0 1-.814 3.072H58.454a6.246 6.246 0 0 1-.817-3.072z" opacity="1" data-original="#f04e5b" class=""></path><path d="M120.71 372.886h17.979a22.792 22.792 0 1 0 0-45.584H104.3a6.386 6.386 0 0 0-6.389 6.383V350.1a22.815 22.815 0 0 0 22.799 22.786zM374.1 372.886h17.983a22.817 22.817 0 0 0 22.791-22.79v-16.411a6.385 6.385 0 0 0-6.385-6.383H374.1a22.792 22.792 0 1 0 0 45.584zM209.531 337.147a6.386 6.386 0 0 0 6.384 6.389h80.17a6.387 6.387 0 0 0 0-12.773h-80.17a6.384 6.384 0 0 0-6.384 6.384zM209.531 363.44a6.385 6.385 0 0 0 6.384 6.385h80.17a6.385 6.385 0 0 0 0-12.769h-80.17a6.382 6.382 0 0 0-6.384 6.384z" fill="#000000" opacity="1" data-original="#000000"></path><path fill="#ffffff" d="M110.693 340.076h28a10.019 10.019 0 1 1 0 20.037H120.71a10.028 10.028 0 0 1-10.017-10.013zM374.1 340.076h28V350.1a10.028 10.028 0 0 1-10.017 10.017H374.1a10.019 10.019 0 0 1 0-20.037z" opacity="1" data-original="#ffffff"></path></g></g></svg>