<svg xmlns="http://www.w3.org/2000/svg" version="1.1" xmlns:xlink="http://www.w3.org/1999/xlink" width="512" height="512" x="0" y="0" viewBox="0 0 60 60" style="enable-background:new 0 0 512 512" xml:space="preserve" class=""><g><g fill="none" fill-rule="nonzero"><path fill="#ffd3d3" d="M37.93 27H55a4 4 0 0 0 4-4V5a4 4 0 0 0-4-4H23a4 4 0 0 0-4 4v22z" opacity="1" data-original="#a4c400" class=""></path><path fill="#ffa2a2" d="M55 1h-3a4 4 0 0 1 4 4v18a4 4 0 0 1-4 4h3a4 4 0 0 0 4-4V5a4 4 0 0 0-4-4z" opacity="1" data-original="#90ac00" class=""></path><path fill="#607d8b" d="M4 53h8v4a2 2 0 0 1-2 2H6a2 2 0 0 1-2-2z" opacity="1" data-original="#607d8b" class=""></path><path fill="#37474f" d="M9 53v4a2 2 0 0 1-2 2h3a2 2 0 0 0 2-2v-4z" opacity="1" data-original="#37474f" class=""></path><path fill="#607d8b" d="M36 53h8v4a2 2 0 0 1-2 2h-4a2 2 0 0 1-2-2z" opacity="1" data-original="#607d8b" class=""></path><path fill="#37474f" d="M41 53v4a2 2 0 0 1-2 2h3a2 2 0 0 0 2-2v-4z" opacity="1" data-original="#37474f" class=""></path><path fill="#607d8b" d="M17 48v5H4a3 3 0 0 1-3-3v-2zM47 48v2a3 3 0 0 1-3 3H31v-5z" opacity="1" data-original="#607d8b" class=""></path><path fill="#37474f" d="M44 48v2a3 3 0 0 1-3 3h3a3 3 0 0 0 3-3v-2z" opacity="1" data-original="#37474f" class=""></path><path fill="#f44335" d="M47 40.92V48H1v-7.08a4 4 0 0 1 1.5-3.12l2.95-2.36c.354-.285.795-.44 1.25-.44h34.6c.455 0 .896.155 1.25.44l2.95 2.36a4 4 0 0 1 1.5 3.12z" opacity="1" data-original="#f44335" class=""></path><path fill="#c81e1e" d="m45.5 37.8-2.95-2.36A1.986 1.986 0 0 0 41.3 35h-3c.455 0 .896.155 1.25.44l2.95 2.36a4 4 0 0 1 1.5 3.12V48h3v-7.08a4 4 0 0 0-1.5-3.12z" opacity="1" data-original="#c81e1e" class=""></path><rect width="6" height="4" x="5" y="40" fill="#e43c3c" rx="1" opacity="1" data-original="#ffeb3a" class=""></rect><rect width="16" height="4" x="16" y="40" fill="#607d8b" rx="1" opacity="1" data-original="#607d8b" class=""></rect><path fill="#37474f" d="M31 40h-3a1 1 0 0 1 1 1v2a1 1 0 0 1-1 1h3a1 1 0 0 0 1-1v-2a1 1 0 0 0-1-1z" opacity="1" data-original="#37474f" class=""></path><rect width="6" height="4" x="37" y="40" fill="#e43c3c" rx="1" opacity="1" data-original="#ffeb3a" class=""></rect><path fill="#f5f5f5" d="M17 48h14v5H17z" opacity="1" data-original="#f5f5f5" class=""></path><path fill="#cfd8dc" d="M28 48h3v5h-3z" opacity="1" data-original="#cfd8dc" class=""></path><path fill="#37474f" d="M41 35h2a2.006 2.006 0 0 0 2-2 2.015 2.015 0 0 0-2-2h-3a.994.994 0 0 0-.49.13H8.49A.994.994 0 0 0 8 31H5a2.015 2.015 0 0 0-2 2 2.006 2.006 0 0 0 2 2z" opacity="1" data-original="#37474f" class=""></path><path fill="#d40000" d="M41 35H7l4.01-10.44A4.013 4.013 0 0 1 14.75 22h18.5a4.013 4.013 0 0 1 3.74 2.56z" opacity="1" data-original="#00bcd4" class=""></path><path fill="#8f0000" d="M36.99 24.56A4.013 4.013 0 0 0 33.25 22h-3a4.013 4.013 0 0 1 3.74 2.56L38 35h3z" opacity="1" data-original="#00838f" class=""></path><path fill="#dfc49c" d="M49.6 20.98a2.686 2.686 0 0 1-5.36 0 2.613 2.613 0 0 0 .86-3.31h3.64a2.613 2.613 0 0 0 .86 3.31z" opacity="1" data-original="#dfc49c" class=""></path><path fill="#ff0000" d="M54.919 24h-16a3.663 3.663 0 0 1 3.71-3.02h1.61a2.686 2.686 0 0 0 5.36 0h1.61a3.663 3.663 0 0 1 3.71 3.02z" opacity="1" data-original="#ffdc00" class=""></path><path fill="#ffe0b2" d="M41.561 7.918v3.573a1.5 1.5 0 1 0 .3 2.97 5.391 5.391 0 0 0 10.116 0 1.5 1.5 0 1 0 .3-2.97V7.918z" opacity="1" data-original="#ffe0b2" class=""></path><path fill="#ffe0b2" d="M41.561 7.918v3.573a1.5 1.5 0 1 0 .3 2.97 5.391 5.391 0 0 0 10.116 0 1.5 1.5 0 1 0 .3-2.97V7.918z" opacity="1" data-original="#ffe0b2" class=""></path><path fill="#e43c3c" d="M52.277 11.491S53.885 7.5 51.206 6c-2.364-1.322-8.066.466-10.479-1.153a.5.5 0 0 0-.8.416c.069 1.549.526 4.055 2.7 4.732a5.835 5.835 0 0 0 4.292.005c1.929-.88 4.669-1.207 5.358 1.491z" opacity="1" data-original="#ffeb3a" class=""></path><path fill="#691b1b" d="M51.206 6c-1.117-.624-2.98-.554-4.888-.478A4.78 4.78 0 0 1 48.206 6a3.337 3.337 0 0 1 1.534 3.375c1.246 0 2.314.89 2.537 2.116 0 0 1.608-3.991-1.071-5.491z" opacity="1" data-original="#fdd834" class=""></path><g fill="#000"><path d="M10 39H6a2 2 0 0 0-2 2v2a2 2 0 0 0 2 2h4a2 2 0 0 0 2-2v-2a2 2 0 0 0-2-2zm-4 4v-2h4v2zM31 39H17a2 2 0 0 0-2 2v2a2 2 0 0 0 2 2h14a2 2 0 0 0 2-2v-2a2 2 0 0 0-2-2zm-6 2h2v2h-2zm-2 2h-2v-2h2zm-6-2h2v2h-2zm12 2v-2h2v2zM36 41v2a2 2 0 0 0 2 2h4a2 2 0 0 0 2-2v-2a2 2 0 0 0-2-2h-4a2 2 0 0 0-2 2zm6 2h-4v-2h4z" fill="#000000" opacity="1" data-original="#000000" class=""></path><path d="M55 0H23a5.006 5.006 0 0 0-5 5v16h-3.253a5.031 5.031 0 0 0-4.667 3.2L7.851 30H5a3.015 3.015 0 0 0-3 3 2.991 2.991 0 0 0 1.6 2.638l-1.725 1.38A4.974 4.974 0 0 0 0 40.922V50a4 4 0 0 0 3 3.858V57a3 3 0 0 0 3 3h4a3 3 0 0 0 3-3v-3h22v3a3 3 0 0 0 3 3h4a3 3 0 0 0 3-3v-3.142A4 4 0 0 0 48 50v-9.078a4.978 4.978 0 0 0-1.876-3.9L44.4 35.638A2.991 2.991 0 0 0 46 33a3.015 3.015 0 0 0-3-3h-2.852l-.769-2H55a5.006 5.006 0 0 0 5-5V5a5.006 5.006 0 0 0-5-5zM11.947 24.923a3.019 3.019 0 0 1 2.8-1.923h18.506c1.24.005 2.35.768 2.8 1.923L39.544 34H8.456zm-7.641 7.365A.957.957 0 0 1 5 32h2.082l-.769 2H5a1 1 0 0 1-1-1c0-.27.11-.527.306-.712zM2 50v-1h14v3H4a2 2 0 0 1-2-2zm9 7a1 1 0 0 1-1 1H6a1 1 0 0 1-1-1v-3h6zm7-5v-3h12v3zm25 5a1 1 0 0 1-1 1h-4a1 1 0 0 1-1-1v-3h6zm3-7a2 2 0 0 1-2 2H32v-3h14zm0-9.078V47H2v-6.078a2.986 2.986 0 0 1 1.126-2.342l2.951-2.361A1 1 0 0 1 6.7 36h34.6a1 1 0 0 1 .625.219l2.951 2.361A2.983 2.983 0 0 1 46 40.922zM43 32c.27 0 .527.11.712.306.187.182.29.433.288.694a1 1 0 0 1-1 1h-1.313l-.769-2zm15-9a3 3 0 0 1-3 3H38.61l-.691-1.8a5.029 5.029 0 0 0-4.666-3.2H20V5a3 3 0 0 1 3-3h32a3 3 0 0 1 3 3z" fill="#000000" opacity="1" data-original="#000000" class=""></path><path d="M51.287 19.979h-1.264a1.466 1.466 0 0 1-.39-1.562 6.323 6.323 0 0 0 3.084-2.954 2.54 2.54 0 0 0 2.249-2.474 2.486 2.486 0 0 0-1.342-2.184c.455-1.86.4-4.422-1.849-5.68-1.373-.767-3.358-.688-5.459-.6-2.231.089-4.764.191-5.4-1a1 1 0 0 0-1.876.367c-.021.192-.39 3.926 1.6 5.974v.814a2.5 2.5 0 0 0-1.608 2.307 2.54 2.54 0 0 0 2.25 2.474 6.31 6.31 0 0 0 3.083 2.955c.193.552.04 1.165-.39 1.561h-1.262a1 1 0 0 0 0 2h.761a3.737 3.737 0 0 0 7.051 0h.762a2.675 2.675 0 0 1 2.723 2.164 1 1 0 0 0 1.98-.286 4.683 4.683 0 0 0-4.703-3.876zm-8.4-5.856a1.093 1.093 0 0 0-1.029-.658c-.072 0-.143.007-.213.022a.508.508 0 1 1 0-1 1 1 0 0 0 1-1v-.5a1 1 0 0 0 .368-1.952c-1.266-.394-1.748-1.746-1.92-2.936 1.727.47 3.527.612 5.306.419 1.73-.071 3.523-.142 4.4.349 1.874 1.048.643 4.218.632 4.248a1 1 0 0 0 .927 1.373.562.562 0 0 1 .608.5c0 .274-.282.514-.7.489-.49-.1-.978.174-1.148.644a4.392 4.392 0 0 1-8.232 0zM47 22.476a1.659 1.659 0 0 1-1.607-1.087 3.317 3.317 0 0 0 1.035-2.447c.19.017.379.04.572.04s.382-.023.572-.04a3.314 3.314 0 0 0 1.035 2.447A1.66 1.66 0 0 1 47 22.476zM24 6h-1a1 1 0 0 0 0 2h1a1 1 0 0 0 0-2zM36 6h-8a1 1 0 0 0 0 2h8a1 1 0 0 0 0-2zM24 10h-1a1 1 0 0 0 0 2h1a1 1 0 0 0 0-2zM36 10h-8a1 1 0 0 0 0 2h8a1 1 0 0 0 0-2zM24 14h-1a1 1 0 0 0 0 2h1a1 1 0 0 0 0-2zM36 14h-8a1 1 0 0 0 0 2h8a1 1 0 0 0 0-2z" fill="#000000" opacity="1" data-original="#000000" class=""></path></g></g></g></svg>