<svg width="500" height="500" viewBox="0 0 500 500" fill="none" xmlns="http://www.w3.org/2000/svg">
<path fill-rule="evenodd" clip-rule="evenodd" d="M194.357 472.781L229.425 390.268H270.681L305.75 472.781H194.357Z" fill="#FFE177"/>
<path fill-rule="evenodd" clip-rule="evenodd" d="M66.773 138.602H433.334C449.389 138.602 462.525 151.738 462.525 167.793V377.578C462.525 393.633 449.389 406.769 433.334 406.769H66.773C50.718 406.769 37.582 393.633 37.582 377.578V167.794C37.582 151.739 50.718 138.602 66.773 138.602Z" fill="#88C8FE"/>
<path fill-rule="evenodd" clip-rule="evenodd" d="M462.525 365.514V377.579C462.525 393.635 449.389 406.771 433.334 406.771H66.773C50.717 406.771 37.581 393.635 37.581 377.579V365.514H462.525Z" fill="#4187B5"/>
<path fill-rule="evenodd" clip-rule="evenodd" d="M141.041 27.21H359.065C368.316 27.21 375.886 34.779 375.886 44.031V320.132H124.22V44.03C124.22 34.779 131.79 27.21 141.041 27.21Z" fill="#E6E6E6"/>
<path fill-rule="evenodd" clip-rule="evenodd" d="M338.697 274.743C338.697 278.586 335.543 281.706 331.688 281.706H286.653C282.798 281.706 279.644 278.587 279.644 274.743C279.644 270.899 282.798 267.78 286.653 267.78H331.688C335.543 267.78 338.697 270.899 338.697 274.743ZM338.697 234.381C338.697 238.23 335.543 241.344 331.688 241.344H286.653C282.798 241.344 279.644 238.231 279.644 234.381C279.644 230.543 282.798 227.424 286.653 227.424H331.688C335.543 227.424 338.697 230.543 338.697 234.381ZM338.697 194.025C338.697 197.868 335.543 200.988 331.688 200.988H286.653C282.798 200.988 279.644 197.869 279.644 194.025C279.644 190.17 282.798 187.062 286.653 187.062H331.688C335.543 187.062 338.697 190.17 338.697 194.025ZM338.697 153.651C338.697 157.494 335.543 160.614 331.688 160.614H179.06C175.205 160.614 172.109 157.495 172.109 153.651C172.109 149.807 175.205 146.688 179.06 146.688H331.688C335.543 146.688 338.697 149.807 338.697 153.651ZM433.265 399.813H66.735C54.469 399.813 44.481 389.83 44.481 377.582V372.477H455.52V377.582C455.519 389.83 445.531 399.813 433.265 399.813ZM295.181 465.823H204.819L226.957 413.738H273.043L295.181 465.823ZM66.735 145.567C54.469 145.567 44.481 155.538 44.481 167.793V358.552H455.52V167.792C455.52 155.537 445.532 145.566 433.265 145.566H382.798V313.165H412.938C416.793 313.165 419.947 316.284 419.947 320.128C419.947 323.971 416.793 327.09 412.938 327.09H87.062C83.207 327.09 80.053 323.971 80.053 320.128C80.053 316.284 83.207 313.165 87.062 313.165H117.202V145.567H66.735ZM140.975 34.171C135.543 34.171 131.104 38.593 131.104 44.031V313.166H368.896V44.031C368.896 38.593 364.457 34.171 359.025 34.171H140.975ZM433.265 131.642H382.798V44.031C382.798 30.917 372.109 20.252 359.025 20.252H140.975C127.891 20.252 117.202 30.918 117.202 44.031V131.642H66.735C46.817 131.642 30.579 147.863 30.579 167.793V377.582C30.579 397.512 46.817 413.738 66.735 413.738H211.828L189.69 465.823H144.772C140.975 465.823 137.821 468.93 137.821 472.786C137.821 476.629 140.975 479.749 144.772 479.749H355.227C359.024 479.749 362.178 476.63 362.178 472.786C362.178 468.931 359.024 465.823 355.227 465.823H310.309L288.171 413.738H433.264C453.241 413.738 469.421 397.512 469.421 377.582V167.792C469.421 147.862 453.241 131.642 433.265 131.642Z" fill="#2B3F4F"/>
<path d="M331.688 281.706C335.543 281.706 338.697 278.586 338.697 274.743C338.697 270.899 335.543 267.78 331.688 267.78H286.653C282.798 267.78 279.644 270.899 279.644 274.743C279.644 278.587 282.798 281.706 286.653 281.706H331.688Z" fill="#2B3F4F"/>
<path d="M331.688 241.344C335.543 241.344 338.697 238.23 338.697 234.381C338.697 230.543 335.543 227.424 331.688 227.424H286.653C282.798 227.424 279.644 230.543 279.644 234.381C279.644 238.231 282.798 241.344 286.653 241.344H331.688Z" fill="#2B3F4F"/>
<path d="M331.688 200.988C335.543 200.988 338.697 197.868 338.697 194.025C338.697 190.17 335.543 187.062 331.688 187.062H286.653C282.798 187.062 279.644 190.17 279.644 194.025C279.644 197.869 282.798 200.988 286.653 200.988H331.688Z" fill="#2B3F4F"/>
<path d="M227.544 281.706C231.399 281.706 234.553 278.586 234.553 274.743C234.553 270.899 231.399 267.78 227.544 267.78H182.509C178.654 267.78 175.5 270.899 175.5 274.743C175.5 278.587 178.654 281.706 182.509 281.706H227.544Z" fill="#2B3F4F"/>
<path d="M227.544 241.344C231.399 241.344 234.553 238.23 234.553 234.381C234.553 230.543 231.399 227.424 227.544 227.424H182.509C178.654 227.424 175.5 230.543 175.5 234.381C175.5 238.231 178.654 241.344 182.509 241.344H227.544Z" fill="#2B3F4F"/>
<path d="M227.544 200.988C231.399 200.988 234.553 197.868 234.553 194.025C234.553 190.17 231.399 187.062 227.544 187.062H182.509C178.654 187.062 175.5 190.17 175.5 194.025C175.5 197.869 178.654 200.988 182.509 200.988H227.544Z" fill="#2B3F4F"/>
<path d="M202.498 108C198.926 108 196.322 107.531 194.688 106.592C193.87 106.108 191.024 103.61 186.15 99.0996C183.062 105.639 178.083 108.908 171.21 108.908C166.7 108.908 162.976 107.44 160.04 104.503C157.103 101.567 155.635 97.8433 155.635 93.3325C155.635 88.6099 158.798 83.085 165.125 76.7578L162.81 74.124L168.304 68.584L192.78 94.604C194.93 96.8745 196.307 98.1914 196.913 98.5547C198.063 99.251 199.925 99.6748 202.498 99.8262V108ZM179.112 93.8774C179.112 91.8794 178.597 90.3809 177.568 89.3818L170.983 82.8428C168.44 85.2344 166.851 86.8389 166.215 87.6562C164.611 89.7148 163.809 91.7886 163.809 93.8774C163.809 95.9966 164.52 97.7222 165.943 99.0542C167.366 100.356 169.152 101.007 171.301 101.007C173.39 101.007 175.207 100.341 176.75 99.0088C178.325 97.6465 179.112 95.936 179.112 93.8774ZM216.439 69.4922C216.439 71.0967 215.879 72.459 214.759 73.5791C213.669 74.6992 212.337 75.2593 210.763 75.2593C206.615 75.2593 204.542 73.3369 204.542 69.4922C204.542 66.2529 206.509 64.6333 210.445 64.6333C214.441 64.6333 216.439 66.2529 216.439 69.4922ZM224.477 94.6948C224.477 98.2065 223.387 101.264 221.207 103.868C218.906 106.623 216.045 108 212.625 108H199.229V99.8262C207.796 99.8262 212.564 99.6597 213.533 99.3267C215.349 98.6606 216.257 96.2085 216.257 91.9702C216.257 90.9106 216.227 89.3062 216.167 87.1567C216.136 85.0073 216.121 83.4028 216.121 82.3433H224.477V94.6948ZM244.457 108H236.51V55.5967H244.457V108ZM288.323 106.592C288.323 112.617 286.446 117.763 282.692 122.032C278.787 126.452 273.853 128.662 267.889 128.662H256.99L255.673 120.261H264.892C268.827 120.261 272.203 119.322 275.018 117.445C278.288 115.266 279.922 112.284 279.922 108.5V82.3433H288.323V106.592ZM316.25 108C309.348 108 304.489 106.668 301.674 104.004C299.797 102.278 298.858 99.4478 298.858 95.5122V56.8682H307.032V91.9248C307.032 95.709 307.668 98.0249 308.939 98.8726C309.727 99.3872 312.164 99.7051 316.25 99.8262V108ZM341.998 94.6948C341.998 98.2368 340.954 101.294 338.865 103.868C336.625 106.623 333.779 108 330.328 108H312.845V99.8262H327.785C330.055 99.8262 331.629 99.3721 332.507 98.4639C333.385 97.5254 333.824 95.8906 333.824 93.5596V82.3433H341.998V94.6948ZM340.59 123.667C340.59 125.059 340.076 126.209 339.046 127.118C338.047 128.026 336.836 128.48 335.414 128.48C333.9 128.48 332.598 128.071 331.508 127.254C330.328 126.346 329.737 125.15 329.737 123.667C329.737 120.639 331.463 119.125 334.914 119.125C338.698 119.125 340.59 120.639 340.59 123.667ZM324.924 123.667C324.924 125.059 324.409 126.209 323.38 127.118C322.381 128.026 321.17 128.48 319.747 128.48C318.233 128.48 316.932 128.071 315.842 127.254C314.661 126.346 314.071 125.15 314.071 123.667C314.071 120.639 315.796 119.125 319.248 119.125C323.032 119.125 324.924 120.639 324.924 123.667Z" fill="#2B3F4F"/>
</svg>
