<svg xmlns="http://www.w3.org/2000/svg" width="1028" height="1028" viewBox="0 0 1028 1028"><path fill="#4f3586" d="m733.981 879.852-471.207.043c-40.198.042-63.364-14.35-63.63-57.66l-.005-613.224c.04-52.75 18.154-71.727 68.958-71.797l27.324.012 438.426-.107c46.308-.066 57.359 35.81 57.349 73.183l-.02 553.08c13.938-.683 36.865-1.579 36.71 19.09-.407 53.897-41.616 94.102-93.905 97.38M370.865 777.304v18.686c-.277 31.736-2.904 50.31-30.445 69.914 31.288-.476 64.007 0 95.403 0l262.082.016c52.683.01 101.697-4.327 114.09-69.93.879-4.825 2.883-14.085-.794-17.913-3.947-1.785-119.565-.777-131.981-.777zM496.34 151.02H336.378l-.02 55.728c.053 27.108 4.907 54.72-27.213 65.87-24.907 8.648-50.131-14.727-50.509 25.198l-.054 498.465c0 7.506-.464 16.731.807 24.04 9.684 55.684 86.346 55.472 96.52-.898 2.08-12.11-2.858-43.716 5.621-51.914 6.367-6.16 23.192-4.19 31.75-4.128h336.107l-.008-431.05c0-7.116 1.932-52.579-1.05-55.69-8.537-8.912-44.547 8.49-65.326-20.495-10.864-15.155-7.822-33.715-7.786-51.3l.016-53.826c-17.348-.3-35.534.007-52.946.01zm-241.293 0c-47.746 4.688-41.744 44.52-41.684 78.926l.008 569.915c.004 20.582-3.923 43.748 13.952 58.014 14.635 11.681 29.348 6.294 45.491 8.03-7.298-6.823-12.017-10.92-17.767-19.234-14.02-23.272-10.673-44.94-10.675-70.974l-.016-468.928c-.213-85.92 63.515-18.586 77.017-64.976 1.462-4.99.962-25.692.96-32.268l-.03-58.505c-21.8.089-45.616.504-67.256 0m414.386 0-.012 54.837c-.006 15.179-3.186 32.894 7.706 45.083 22.202 24.849 66.828-15.362 67.127 40.498l-.022 471.943h32.225l.032-553.282c.029-53.214-17.77-59.13-67.892-59.116z"/><path fill="#fff" d="M336.378 151.02h159.963l105.946.01c17.412-.003 35.598-.31 52.946-.01l-.016 53.827c-.036 17.584-3.078 36.144 7.786 51.3 20.779 28.984 56.789 11.582 65.326 20.493 2.982 3.112 1.05 48.575 1.05 55.69l.008 431.051H393.28c-8.558-.062-25.383-2.031-31.75 4.128-8.479 8.198-3.541 39.803-5.622 51.914-10.173 56.37-86.835 56.582-96.519.898-1.271-7.309-.807-16.534-.807-24.04l.054-498.465c.378-39.925 25.602-16.55 50.509-25.198 32.12-11.15 27.266-38.762 27.213-65.87zm157.692 64.376c-37.675 10.334-75.193 21.865-112.753 32.635-14.77 4.234-8.115 48.474-8.3 63.947-.177 103.952 8.013 113.654 88.767 181.437 10.752 9.122 22.37 24.178 37.68 23.452 10.14-1.536 16.403-8.803 23.705-15.485l22.516-21.023c49.667-46.889 74.732-65.447 74.68-142.322v-64.581c.038-13.208 3.46-22.946-11.74-26.911-19.066-4.975-37.991-10.445-56.945-15.83l-33.968-9.673c-5.47-1.574-18.54-6.226-23.642-5.646m88.558 285.846c-6.644 1.61-9.005 10.721-2.524 13.43 5.833 2.437 83.82-.16 97.725.793 6.314-1.92 9.818-10.724 2.433-14.01-2-.892-67.603-.205-76.847-.221-6.316-.01-14.743-1.032-20.787.008m-271.484 0c-7.65 4.104-5.463 13.028-.307 13.691 8.86 1.136 20.851.554 30.1.552l70.72-.02c6.096-2.138 7.473-10.515.834-13.153-5.911-2.35-88.03-1.076-101.347-1.07m287.999 59.867-254.119.006c-10.276 0-20.554-.093-30.82.17-10.675.275-11.213 13.15-1.138 13.814 9.485.626 19.303.408 28.818.408l51.396-.016 257.921-.008c8.359 0 16.68-.105 25.017.279 10.493.48 12.198-14.039.793-14.457-9.003-.33-17.58-.225-26.396-.214zm-287.999 59.774c-8.549 3.682-5.652 13.766.797 14.37 7.072.663 17.11.2 24.54.2l252.106.009c29.407 0 62.018.755 91.173-.01 8.439-4.217 5.937-13.057-.807-14.368-3.93-.763-17.428-.195-21.853-.193zm3.813 59.749c-8.907.953-13.274 8.936-6.636 12.86 4.066 2.403 25.967 1.339 31.035 1.337l206.393-.006c8.123-.534 11.695-7.138 5.632-13.22-5.486-1.59-21.333-.982-27.993-.977z"/><path fill="#bca7e4" d="M272.815 865.904c-16.143-1.735-30.856 3.652-45.49-8.029-17.876-14.266-13.949-37.432-13.953-58.014l-.008-569.915c-.06-34.406-6.062-74.238 41.684-78.926 21.64.504 45.457.089 67.256 0l.03 58.505c.002 6.576.502 27.278-.96 32.268-13.502 46.39-77.23-20.944-77.017 64.976l.016 468.928c.002 26.034-3.345 47.702 10.675 70.974 5.75 8.315 10.469 12.41 17.767 19.233"/><path fill="#bca7e4" d="m744.233 763.381.022-471.943c-.3-55.86-44.925-15.65-67.127-40.498-10.892-12.19-7.712-29.904-7.706-45.083l.012-54.837 39.164-.037c50.121-.014 67.92 5.902 67.892 59.116l-.032 553.282z"/><path fill="#4f3586" d="M499.465 516.867c-15.312.726-26.929-14.33-37.68-23.452-80.755-67.783-88.945-77.485-88.768-181.437.185-15.473-6.47-59.713 8.3-63.947 37.56-10.77 75.078-22.301 112.753-32.635 5.102-.58 18.173 4.072 23.642 5.646l33.968 9.673c18.954 5.385 37.88 10.855 56.945 15.83 15.2 3.965 11.778 13.703 11.74 26.91v64.582c.052 76.875-25.013 95.433-74.68 142.322l-22.516 21.023c-7.302 6.682-13.565 13.949-23.704 15.485m-3.124-286.834c-33.954 6.21-75.215 21.857-109.271 31.065l-.016 60.864c.014 85.477 9.505 97.825 73.016 151.594 8.416 7.126 29.583 29.647 39.395 29.368 3.054-1.901 9.95-8.641 13.08-11.535l27.478-25.722c58.758-55.52 66.083-64.758 66.07-142.83l-.003-62.95c-7.927-1.149-18.912-4.465-26.869-6.636l-59.407-16.578c-6.38-1.763-17.685-5.488-23.473-6.64"/><path fill="#fff" d="M387.07 261.098c34.056-9.208 75.317-24.855 109.27-31.065 5.79 1.152 17.093 4.877 23.474 6.64l59.407 16.578c7.957 2.17 18.942 5.487 26.869 6.636l.004 62.95c.012 78.072-7.313 87.31-66.071 142.83l-27.477 25.722c-3.13 2.894-10.027 9.634-13.081 11.535-9.812.28-30.979-22.242-39.395-29.368-63.511-53.77-73.002-66.117-73.016-151.594zm104.19 9.66c-72.284 7.097-103.606 90.55-54.27 143.554 55.016 57.323 154.274 11.573 143.404-69.226-.908-6.742-4.642-17.964-14.161-7.73-1.731 1.861.34 10.194.447 13.384 2.562 39.227-26.483 72.964-66.012 75.35-61.727 3.726-97.17-74.006-54.276-119.244 18.205-19.2 43.568-25.606 68.798-19.713 7.557 1.765 14.456 6.074 22.03 7.3 23.481-10.703-28.015-26.422-45.96-23.676m66.546 30.401c-21.875 17.34-49.123 48.935-69.06 69.583-4.978-5.17-25.11-27.947-30.345-28.324-13.866-.998-5.21 12.872.464 18.235 26.409 25.501 23.226 36.703 48.217 11.248l43.441-43.925c3.72-3.755 30.234-28.742 7.283-26.817"/><path fill="#4f3586" d="M566.68 350.74c-.106-3.19-2.178-11.523-.447-13.384 9.519-10.234 13.253.988 14.16 7.73 10.87 80.799-88.387 126.549-143.403 69.226-49.336-53.005-18.014-136.457 54.27-143.555 17.945-2.746 69.441 12.973 45.96 23.676-7.574-1.226-14.473-5.535-22.03-7.3-25.23-5.893-50.593.514-68.798 19.713-42.894 45.238-7.45 122.97 54.276 119.243 39.53-2.385 68.574-36.122 66.012-75.349"/><path fill="#4f3586" d="M488.745 370.742c19.938-20.648 47.186-52.243 69.06-69.583 22.952-1.925-3.561 23.062-7.282 26.817l-43.44 43.925c-24.992 25.455-21.81 14.253-48.218-11.248-5.674-5.363-14.33-19.233-.464-18.235 5.234.377 25.367 23.154 30.344 28.324"/><path fill="#4f3586" d="M677.829 515.465c-13.904-.954-91.892 1.644-97.725-.793-6.48-2.709-4.12-11.82 2.524-13.43 6.044-1.04 14.47-.018 20.787-.008 9.244.016 74.847-.67 76.847.22 7.385 3.287 3.881 12.092-2.433 14.011"/><path fill="#4f3586" d="m411.657 515.465-70.72.02c-9.249.002-21.24.584-30.1-.552-5.156-.663-7.342-9.587.307-13.691 13.316-.006 95.436-1.28 101.347 1.07 6.64 2.638 5.262 11.015-.834 13.153"/><path fill="#4f3586" d="m393.28 575.49-51.396.017c-9.515 0-19.333.218-28.818-.408-10.075-.665-9.537-13.539 1.138-13.814 10.266-.263 20.544-.17 30.82-.17l254.119-.006 51.472-.018c8.816-.01 17.393-.117 26.396.214 11.405.418 9.7 14.936-.793 14.457-8.336-.384-16.658-.28-25.017-.28z"/><path fill="#4f3586" d="M679.76 635.452c-29.155.765-61.766.01-91.173.01l-252.106-.008c-7.43 0-17.468.462-24.54-.201-6.449-.604-9.346-10.688-.797-14.37l345.956.008c4.425-.002 17.924-.57 21.853.193 6.744 1.311 9.246 10.151.807 14.368"/><path fill="#4f3586" d="m545.749 694.823-206.393.006c-5.068.002-26.969 1.066-31.035-1.337-6.638-3.924-2.27-11.907 6.636-12.86l208.43-.006c6.66-.005 22.508-.613 27.994.977 6.063 6.082 2.491 12.686-5.632 13.22"/><path fill="#bca7e4" d="M370.865 795.99v-18.686l308.355-.004c12.416 0 128.034-1.008 131.981.777 3.677 3.828 1.673 13.088.794 17.913z"/><path fill="#a286d6" d="M370.865 795.99h441.13c-12.393 65.603-61.407 69.94-114.09 69.93l-262.082-.016c-31.396 0-64.115-.476-95.403 0 27.541-19.604 30.168-38.178 30.445-69.914"/></svg>