<svg xmlns="http://www.w3.org/2000/svg" version="1.1" xmlns:xlink="http://www.w3.org/1999/xlink" width="512" height="512" x="0" y="0" viewBox="0 0 682.667 682.667" style="enable-background:new 0 0 512 512" xml:space="preserve" class=""><g><defs><clipPath id="a" clipPathUnits="userSpaceOnUse"><path d="M0 512h512V0H0Z" fill="#000000" opacity="1" data-original="#000000"></path></clipPath></defs><g clip-path="url(#a)" transform="matrix(1.33333 0 0 -1.33333 0 682.667)"><path d="M0 0h-.271c-5.765 0-11.455 1.435-16.465 4.285-39.241 22.318-97.178 19.721-123.466-19.79-10.9-16.382-11.983-41.384.605-56.049 2.234-2.601 3.392-5.958 3.468-9.385l1.242-55.894H54.359l1.766 79.446C56.825-25.901 31.493 0 0 0" style="fill-opacity:1;fill-rule:nonzero;stroke:none" transform="translate(296.207 486.155)" fill="#8c818f" data-original="#8c818f" class=""></path><path d="M0 0h-.271c-5.764 0-11.455 1.435-16.465 4.285-24.457 13.909-56.176 18.136-82.97 9.784C-79.07 15.175-57.639 10.33-39.987.556c5.01-2.775 10.701-4.171 16.466-4.171h.27c31.493 0 56.825-25.217 56.126-55.871l-1.766-77.347h23.25l1.766 79.446C56.825-25.9 31.493 0 0 0" style="fill-opacity:1;fill-rule:nonzero;stroke:none" transform="translate(296.207 486.155)" fill="#766d78" data-original="#766d78" class=""></path><path d="M0 0c-9.212-5.39-17.303-12.725-23.586-22.168-10.899-16.382-11.982-41.384.606-56.049 2.233-2.601 3.391-5.958 3.467-9.386l1.242-55.893h189.247l1.765 79.446c.7 31.486-24.632 57.387-56.125 57.387h-.271c-5.765 0-11.454 1.434-16.465 4.285-19.668 11.186-44.033 16.113-66.757 13.27" style="stroke-width:15;stroke-linecap:round;stroke-linejoin:round;stroke-miterlimit:10;stroke-dasharray:none;stroke-opacity:1" transform="translate(179.59 492.818)" fill="none" stroke="#000000" stroke-width="15" stroke-linecap="round" stroke-linejoin="round" stroke-miterlimit="10" stroke-dasharray="none" stroke-opacity="" data-original="#000000" class=""></path><path d="M0 0c-3.007 19.438-19.737 33.78-39.406 33.78h-20.633c-19.669 0-36.399-14.342-39.406-33.78-2.885-18.647-14.028-34.915-30.194-44.647-23.312-14.036-38.906-39.583-38.906-68.777v-186.041H69.1v186.041c0 29.194-15.594 54.741-38.907 68.777C14.027-34.915 2.885-18.647 0 0" style="fill-opacity:1;fill-rule:nonzero;stroke:none" transform="translate(305.723 323.405)" fill="#c5bec6" data-original="#c5bec6" class=""></path><path d="M0 0c-16.166 9.732-27.309 26-30.193 44.647C-33.2 64.086-49.931 78.428-69.6 78.428h-20.632c-2.208 0-4.376-.191-6.496-.539 16.755-2.755 30.244-15.986 32.913-33.242C-60.931 26-49.788 9.732-33.622 0-10.311-14.035 5.283-39.583 5.283-68.776v-186.041h33.623v186.041C38.906-39.583 23.312-14.035 0 0" style="fill-opacity:1;fill-rule:nonzero;stroke:none" transform="translate(335.916 278.758)" fill="#a59da7" data-original="#a59da7" class=""></path><path d="M0 0c-3.007 19.438-19.737 33.78-39.406 33.78h-20.633c-19.669 0-36.399-14.342-39.406-33.78-2.885-18.647-14.028-34.915-30.194-44.647-23.312-14.036-38.906-39.583-38.906-68.777v-186.041H69.1v186.041c0 29.194-15.594 54.741-38.907 68.777C14.027-34.915 2.885-18.647 0 0Z" style="stroke-width:15;stroke-linecap:round;stroke-linejoin:round;stroke-miterlimit:10;stroke-dasharray:none;stroke-opacity:1" transform="translate(305.723 323.405)" fill="none" stroke="#000000" stroke-width="15" stroke-linecap="round" stroke-linejoin="round" stroke-miterlimit="10" stroke-dasharray="none" stroke-opacity="" data-original="#000000" class=""></path><path d="m0 0-45.79 112.725c-7.724 19.011-26.197 31.447-46.718 31.447h-117.076c-20.52 0-38.994-12.436-46.718-31.447L-302.092 0l33.82-13.738 36.11 47.129v-100.26H-69.93v100.26l36.111-47.129z" style="fill-opacity:1;fill-rule:nonzero;stroke:none" transform="translate(407.046 100.193)" fill="#dc5555" data-original="#80b6fc" class="" opacity="1"></path><path d="M0 0a50.426 50.426 0 0 1-46.718 31.447h-24.739A50.424 50.424 0 0 0-24.74 0l45.791-112.725-14.952-6.074 5.872-7.664 33.819 13.738z" style="fill-opacity:1;fill-rule:nonzero;stroke:none" transform="translate(361.256 212.918)" fill="#fb6262" data-original="#62a4fb" class="" opacity="1"></path><path d="m0 0-19.375 47.696c-7.724 19.012-26.197 31.448-46.718 31.448h-117.076c-20.52 0-38.994-12.436-46.718-31.448l-45.79-112.724 33.82-13.739 36.11 47.129v-100.259h162.232v100.259l36.111-47.129 33.819 13.739-13.057 32.143" style="stroke-width:15;stroke-linecap:round;stroke-linejoin:round;stroke-miterlimit:10;stroke-dasharray:none;stroke-opacity:1" transform="translate(380.63 165.222)" fill="none" stroke="#000000" stroke-width="15" stroke-linecap="round" stroke-linejoin="round" stroke-miterlimit="10" stroke-dasharray="none" stroke-opacity="" data-original="#000000" class=""></path><path d="m0 0 65.709-32.768c9.022-4.499 19.983-.832 24.482 8.19 4.499 9.022.832 19.983-8.189 24.482L16.293 32.672Z" style="fill-opacity:1;fill-rule:nonzero;stroke:none" transform="translate(315.995 114.197)" fill="#fb6262" data-original="#62a4fb" class="" opacity="1"></path><path d="m0 0 65.709-32.768c9.022-4.499 19.983-.832 24.482 8.19 4.499 9.022.832 19.983-8.189 24.482L16.293 32.672Z" style="stroke-width:15;stroke-linecap:round;stroke-linejoin:round;stroke-miterlimit:10;stroke-dasharray:none;stroke-opacity:1" transform="translate(315.995 114.197)" fill="none" stroke="#000000" stroke-width="15" stroke-linecap="round" stroke-linejoin="round" stroke-miterlimit="10" stroke-dasharray="none" stroke-opacity="" data-original="#000000" class=""></path><path d="m0 0-65.709-32.768c-9.022-4.499-19.983-.832-24.482 8.19-4.499 9.022-.832 19.983 8.189 24.482l65.709 32.768z" style="fill-opacity:1;fill-rule:nonzero;stroke:none" transform="translate(196.005 114.197)" fill="#fb6262" data-original="#62a4fb" class="" opacity="1"></path><path d="m0 0-65.709-32.768c-9.022-4.499-19.983-.832-24.482 8.19-4.499 9.022-.832 19.983 8.189 24.482l65.709 32.768z" style="stroke-width:15;stroke-linecap:round;stroke-linejoin:round;stroke-miterlimit:10;stroke-dasharray:none;stroke-opacity:1" transform="translate(196.005 114.197)" fill="none" stroke="#000000" stroke-width="15" stroke-linecap="round" stroke-linejoin="round" stroke-miterlimit="10" stroke-dasharray="none" stroke-opacity="" data-original="#000000" class=""></path><path d="M0 0c-48.28 0-87.424-39.143-87.424-87.424 0-18.126 5.515-34.977 14.961-48.938h41.969c-16.31 10.2-27.179 28.326-27.179 48.938C-57.673-55.622-31.801-29.75 0-29.75c31.801 0 57.673-25.872 57.673-57.674 0-20.612-10.869-38.738-27.179-48.938h41.969c9.446 13.961 14.961 30.812 14.961 48.938C87.424-39.143 48.28 0 0 0" style="fill-opacity:1;fill-rule:nonzero;stroke:none" transform="translate(256 181.37)" fill="#c77e67" data-original="#c77e67" class=""></path><path d="M0 0c-48.28 0-87.424-39.143-87.424-87.424 0-18.126 5.515-34.977 14.961-48.938h41.969c-16.31 10.2-27.179 28.326-27.179 48.938C-57.673-55.622-31.801-29.75 0-29.75c31.801 0 57.673-25.872 57.673-57.674 0-20.612-10.869-38.738-27.179-48.938h41.969c9.446 13.961 14.961 30.812 14.961 48.938C87.424-39.143 48.28 0 0 0Z" style="stroke-width:15;stroke-linecap:round;stroke-linejoin:round;stroke-miterlimit:10;stroke-dasharray:none;stroke-opacity:1" transform="translate(256 181.37)" fill="none" stroke="#000000" stroke-width="15" stroke-linecap="round" stroke-linejoin="round" stroke-miterlimit="10" stroke-dasharray="none" stroke-opacity="" data-original="#000000" class=""></path><path d="M0 0v-92.045c0-6.405 2.805-12.49 7.676-16.65l5.762-4.922c9.908-8.463 24.5-8.463 34.408 0l5.761 4.922a21.893 21.893 0 0 1 7.676 16.65V0z" style="fill-opacity:1;fill-rule:nonzero;stroke:none" transform="translate(225.358 340.299)" fill="#ffcdbe" data-original="#ffcdbe" class=""></path><path d="M0 0v79.669h-61.283V-.001C-42.129-6.443-19.153-6.442 0 0" style="fill-opacity:1;fill-rule:nonzero;stroke:none" transform="translate(286.642 260.63)" fill="#ebae9d" data-original="#ebae9d" class=""></path><path d="M0 0v-92.045c0-6.405 2.805-12.49 7.676-16.65l5.762-4.922c9.908-8.463 24.5-8.463 34.408 0l5.761 4.922a21.893 21.893 0 0 1 7.676 16.65V0z" style="stroke-width:15;stroke-linecap:round;stroke-linejoin:round;stroke-miterlimit:10;stroke-dasharray:none;stroke-opacity:1" transform="translate(225.358 340.299)" fill="none" stroke="#000000" stroke-width="15" stroke-linecap="round" stroke-linejoin="round" stroke-miterlimit="10" stroke-dasharray="none" stroke-opacity="" data-original="#000000" class=""></path><path d="M0 0h-173.536c-10.682 0-19.341 8.659-19.341 19.341 0 10.681 8.659 19.341 19.341 19.341H0c10.682 0 19.34-8.66 19.34-19.341C19.34 8.659 10.682 0 0 0" style="fill-opacity:1;fill-rule:nonzero;stroke:none" transform="translate(342.712 328.307)" fill="#ebae9d" data-original="#ebae9d" class=""></path><path d="M0 0h-173.536c-10.682 0-19.341 8.659-19.341 19.341 0 10.681 8.659 19.341 19.341 19.341H0c10.682 0 19.34-8.66 19.34-19.341C19.34 8.659 10.682 0 0 0Z" style="stroke-width:15;stroke-linecap:round;stroke-linejoin:round;stroke-miterlimit:10;stroke-dasharray:none;stroke-opacity:1" transform="translate(342.712 328.307)" fill="none" stroke="#000000" stroke-width="15" stroke-linecap="round" stroke-linejoin="round" stroke-miterlimit="10" stroke-dasharray="none" stroke-opacity="" data-original="#000000" class=""></path><path d="M0 0c-20.406-43.479-108.539-43.479-128.945 0-7.606 16.218-7.318 53.761-.779 85.107 1.387 6.647 6.81 11.735 13.558 12.485 30.496 3.386 60.063 15.164 84.492 33.74 3.518 2.675 8.39 2.647 11.82-.137.194-.157.385-.316.574-.476C3.64 111.245 12.53 26.701 0 0" style="fill-opacity:1;fill-rule:nonzero;stroke:none" transform="translate(320.416 311.187)" fill="#ffcdbe" data-original="#ffcdbe" class=""></path><path d="M0 0c-20.406-43.479-108.539-43.479-128.945 0-7.623 16.256-7.317 53.938-.732 85.329 1.376 6.563 6.847 11.523 13.511 12.263 30.497 3.386 60.063 15.164 84.492 33.74 3.518 2.675 8.39 2.647 11.82-.137.194-.157.385-.316.574-.476C3.64 111.245 12.53 26.701 0 0Z" style="stroke-width:15;stroke-linecap:round;stroke-linejoin:round;stroke-miterlimit:10;stroke-dasharray:none;stroke-opacity:1" transform="translate(320.416 311.187)" fill="none" stroke="#000000" stroke-width="15" stroke-linecap="round" stroke-linejoin="round" stroke-miterlimit="10" stroke-dasharray="none" stroke-opacity="" data-original="#000000" class=""></path><path d="M0 0v-2.028" style="stroke-width:15;stroke-linecap:round;stroke-linejoin:round;stroke-miterlimit:10;stroke-dasharray:none;stroke-opacity:1" transform="translate(226.709 359.893)" fill="none" stroke="#000000" stroke-width="15" stroke-linecap="round" stroke-linejoin="round" stroke-miterlimit="10" stroke-dasharray="none" stroke-opacity="" data-original="#000000" class=""></path><path d="M0 0v-2.028" style="stroke-width:15;stroke-linecap:round;stroke-linejoin:round;stroke-miterlimit:10;stroke-dasharray:none;stroke-opacity:1" transform="translate(285.179 359.893)" fill="none" stroke="#000000" stroke-width="15" stroke-linecap="round" stroke-linejoin="round" stroke-miterlimit="10" stroke-dasharray="none" stroke-opacity="" data-original="#000000" class=""></path><path d="M0 0c-7.674-3.972-18.64-3.972-26.313 0" style="stroke-width:15;stroke-linecap:round;stroke-linejoin:round;stroke-miterlimit:10;stroke-dasharray:none;stroke-opacity:1" transform="translate(269.1 321.37)" fill="none" stroke="#000000" stroke-width="15" stroke-linecap="round" stroke-linejoin="round" stroke-miterlimit="10" stroke-dasharray="none" stroke-opacity="" data-original="#000000" class=""></path><path d="M0 0c-8.056 0-15.953 2.429-22.506 7.113a104.895 104.895 0 0 1-61.002 19.564h-51.453a104.895 104.895 0 0 1-61.002-19.564C-202.516 2.429-210.413 0-218.469 0h-64.316c-18.963 0-34.335-15.373-34.335-34.336v-8.689a5.313 5.313 0 0 1 5.312-5.313H93.339a5.313 5.313 0 0 1 5.312 5.313v8.689C98.651-15.373 83.279 0 64.316 0Z" style="fill-opacity:1;fill-rule:nonzero;stroke:none" transform="translate(365.234 55.838)" fill="#8c818f" data-original="#8c818f" class=""></path><path d="M0 0h-405.148c-1.321 0-2.514.5-3.444 1.298a34.286 34.286 0 0 1-1.868-11.172v-8.689a5.313 5.313 0 0 1 5.313-5.313H-.001a5.313 5.313 0 0 1 5.313 5.313v8.689c0 3.912-.664 7.668-1.869 11.172C2.514.5 1.32 0 0 0" style="fill-opacity:1;fill-rule:nonzero;stroke:none" transform="translate(458.574 31.376)" fill="#766d78" data-original="#766d78" class=""></path><path d="M0 0h70.885a5.312 5.312 0 0 1 5.312 5.312v8.69c0 18.963-15.372 34.336-34.335 34.336h-64.316c-8.056 0-15.953 2.429-22.506 7.113a104.895 104.895 0 0 1-61.002 19.564h-51.453a104.895 104.895 0 0 1-61.002-19.564c-6.553-4.684-14.45-7.113-22.506-7.113h-64.316c-18.963 0-34.335-15.373-34.335-34.336v-8.69A5.312 5.312 0 0 1-334.262 0H-35" style="stroke-width:15;stroke-linecap:round;stroke-linejoin:round;stroke-miterlimit:10;stroke-dasharray:none;stroke-opacity:1" transform="translate(387.688 7.5)" fill="none" stroke="#000000" stroke-width="15" stroke-linecap="round" stroke-linejoin="round" stroke-miterlimit="10" stroke-dasharray="none" stroke-opacity="" data-original="#000000" class=""></path><path d="m0 0-27.491 31.077c-3.318 3.75-9.046 4.101-12.795.784l-4.69-4.148c-9.835-8.699-10.754-23.725-2.054-33.56l7.997-9.041c8.7-9.835 23.725-10.755 33.56-2.054l4.689 4.147A9.065 9.065 0 0 1 0 0" style="fill-opacity:1;fill-rule:nonzero;stroke:none" transform="translate(345.063 133.252)" fill="#ffcdbe" data-original="#ffcdbe" class=""></path><path d="m0 0-27.491 31.077c-3.318 3.75-9.046 4.101-12.795.784l-4.69-4.148c-9.835-8.699-10.754-23.725-2.054-33.56l7.997-9.041c8.7-9.835 23.725-10.755 33.56-2.054l4.689 4.147A9.065 9.065 0 0 1 0 0Z" style="stroke-width:15;stroke-linecap:round;stroke-linejoin:round;stroke-miterlimit:10;stroke-dasharray:none;stroke-opacity:1" transform="translate(345.063 133.252)" fill="none" stroke="#000000" stroke-width="15" stroke-linecap="round" stroke-linejoin="round" stroke-miterlimit="10" stroke-dasharray="none" stroke-opacity="" data-original="#000000" class=""></path><path d="m0 0 27.491 31.077c3.318 3.75 9.046 4.101 12.795.784l4.69-4.148c9.835-8.699 10.754-23.725 2.054-33.56l-7.997-9.041c-8.7-9.835-23.725-10.755-33.56-2.054L.784-12.795A9.065 9.065 0 0 0 0 0" style="fill-opacity:1;fill-rule:nonzero;stroke:none" transform="translate(166.936 133.252)" fill="#ffcdbe" data-original="#ffcdbe" class=""></path><path d="m0 0 27.491 31.077c3.318 3.75 9.046 4.101 12.795.784l4.69-4.148c9.835-8.699 10.754-23.725 2.054-33.56l-7.997-9.041c-8.7-9.835-23.725-10.755-33.56-2.054L.784-12.795A9.065 9.065 0 0 0 0 0Z" style="stroke-width:15;stroke-linecap:round;stroke-linejoin:round;stroke-miterlimit:10;stroke-dasharray:none;stroke-opacity:1" transform="translate(166.936 133.252)" fill="none" stroke="#000000" stroke-width="15" stroke-linecap="round" stroke-linejoin="round" stroke-miterlimit="10" stroke-dasharray="none" stroke-opacity="" data-original="#000000" class=""></path></g></g></svg>