<svg id="Layer_1" viewBox="0 0 512 512" xmlns="http://www.w3.org/2000/svg" data-name="Layer 1"><path d="m279.145 116.415c-4.538-2.349-9.684-1.889-15.293 1.368-14.089 8.128-34.483-.188-56.078-8.989-14.564-5.937-30.561-12.456-42.503-12.456-4.289 0-8.054.84-11.043 2.85-7.294 4.903-10.992 17.277-10.992 36.778v44.788c0 39.593 32.211 71.804 71.804 71.804s71.775-32.211 71.775-71.804v-44.788c0-7.426-4.015-17.659-7.67-19.551z" fill="#ffccbc"/><path d="m215.039 237.332c-12.441 0-23.974-6.232-30.849-16.672-2.126-3.229-1.232-7.57 1.997-9.696 3.229-2.127 7.569-1.232 9.696 1.997 4.276 6.494 11.438 10.371 19.155 10.371s14.85-3.877 19.126-10.371c2.127-3.229 6.468-4.124 9.696-1.997 3.229 2.126 4.123 6.467 1.997 9.696-6.875 10.439-18.396 16.672-30.819 16.672zm-35.094-78.262c-3.866 0-7 3.134-7 7v3.94c0 3.866 3.134 7 7 7s7-3.134 7-7v-3.94c0-3.866-3.134-7-7-7zm70.187 17.94c3.866 0 7-3.134 7-7v-3.94c0-3.866-3.134-7-7-7s-7 3.134-7 7v3.94c0 3.866 3.134 7 7 7zm-59.925 19.758h-20.523c-10.55 0-19.132-8.57-19.132-19.104v-24.973c0-7.377 6.001-13.378 13.378-13.378h32.004c7.377 0 13.378 6.001 13.378 13.378v4.168h11.427v-4.168c0-7.377 6.001-13.378 13.378-13.378h32.003c7.377 0 13.378 6.001 13.378 13.378v24.973c0 10.534-8.569 19.104-19.104 19.104h-20.523c-10.55 0-19.132-8.57-19.132-19.104v-6.805h-11.427v6.805c0 10.534-8.57 19.104-19.104 19.104zm44.531-19.104c0 2.767 2.35 5.104 5.132 5.104h20.523c2.814 0 5.104-2.29 5.104-5.104v-24.352h-30.759zm-65.055 5.104h20.523c2.814 0 5.104-2.29 5.104-5.104v-24.352h-30.76v24.352c0 2.767 2.35 5.104 5.132 5.104zm285.894-83.044-23.509 141.574c15.845 6.719 25.55 23.66 22.63 41.207l-24.491 147.485c-5.018 30.206-16.516 47.553-34.176 51.562-2.552.58-5.146.851-7.758.851-22.957.002-47.609-20.894-62.798-37.109v46.706c0 3.866-3.134 7-7 7h-216.313c-22.596 0-41.412-16.45-45.148-38.008-.436-.912-.687-1.93-.687-3.008v-112.564c0-21.23 13.085-39.649 37.841-53.267 20.044-11.025 47.178-18.718 78.664-22.353v-14.385c-20.321-11.534-35.491-31.109-41.154-54.38-17.798-2.251-31.612-17.486-31.612-35.9 0-9.058 3.354-17.342 8.876-23.694l-4.35-37.117c-2.506-21.333 4.498-42.51 19.722-59.626 17.653-19.848 44.098-31.698 70.74-31.698h39.94c29.275 0 47.021 11.291 54.166 34.499 21.688 16.111 42.04 43.45 36.217 73.717l-3.95 20.572c5.348 6.305 8.583 14.454 8.583 23.347 0 18.415-13.825 33.65-31.638 35.9-5.663 23.276-20.833 42.856-41.156 54.388v14.541c43.569 4.535 90.898 11.441 107.995 58.341l13.76-60.824c2.225-9.837 8.183-18.229 16.774-23.629 6.874-4.32 14.744-6.295 22.667-5.784l23.354-140.637c.633-3.815 4.251-6.39 8.052-5.759 3.814.633 6.393 4.238 5.759 8.052zm-228.901 205.467 22.459 15.381 13.982-35.897c-3.38-.375-6.788-.732-10.215-1.083l-26.226 21.598zm89.335-140.056c0-9.781-6.378-18.097-15.196-21.032v36.651c0 1.852-.08 3.684-.195 5.507 8.92-2.88 15.392-11.26 15.392-21.126zm-186.58 21.123c-.116-1.822-.195-3.653-.195-5.504v-36.648c-8.803 2.938-15.169 11.252-15.169 21.029 0 9.863 6.46 18.24 15.364 21.123zm16.986-98.688c17.502-11.767 42.484-1.585 66.641 8.26 16.709 6.81 35.649 14.531 43.78 9.836 9.72-5.643 19.934-6.245 28.742-1.684 8.351 4.323 13.115 16.074 14.666 25.567 3.066.552 5.999 1.488 8.747 2.762l2.637-13.738c4.747-24.676-13.716-47.749-32.577-61.114-1.334-.945-2.295-2.327-2.716-3.906-3.301-12.363-10.982-26.554-41.342-26.554h-39.94c-22.707 0-45.241 10.094-60.279 27.002-12.53 14.088-18.312 31.38-16.278 48.691l3.426 29.232c2.368-1.024 4.865-1.799 7.46-2.299.908-21.164 6.494-34.971 17.034-42.056zm68.622 164.988c39.577 0 71.775-32.211 71.775-71.804v-44.788c0-7.426-4.015-17.659-7.67-19.551-4.538-2.349-9.684-1.889-15.293 1.368-14.089 8.128-34.483-.188-56.078-8.989-14.564-5.937-30.561-12.456-42.503-12.456-4.289 0-8.054.84-11.043 2.85-7.294 4.903-10.992 17.277-10.992 36.778v44.788c0 39.593 32.211 71.804 71.804 71.804zm-28.207 9.214v11.659l28.206 23.209 28.179-23.207v-11.654c-8.832 3.083-18.308 4.779-28.178 4.779s-19.366-1.699-28.207-4.786zm-19.881 22.878 13.991 35.923 22.457-15.379-26.454-21.768c-3.384.364-6.724.765-9.994 1.223zm35.275 200.351c12.224 0 22.168-9.945 22.168-22.168s-9.944-22.169-22.168-22.169h-15.621v44.337zm-66.588-58.337h66.588c19.943 0 36.168 16.225 36.168 36.169 0 8.349-2.851 16.04-7.621 22.168h34.61v-91.166h-129.745zm300.033-115.049-49.732-11.487-12.454 55.053 3.987 13.122c1.124 3.699-.963 7.609-4.662 8.733-.679.206-1.363.304-2.038.304-3.001 0-5.776-1.946-6.694-4.967l-11.367-37.409c-11.337-33.796-40.793-43.574-75.269-48.495l-18.464 47.404c-.775 1.99-2.417 3.518-4.458 4.148-.676.209-1.372.312-2.064.312-1.396 0-2.777-.417-3.955-1.225l-33.462-22.916-33.463 22.916c-1.178.807-2.56 1.225-3.955 1.225-.692 0-1.389-.103-2.065-.312-2.04-.63-3.682-2.158-4.457-4.148l-18.257-46.875c-20.442 3.929-38.114 9.825-51.927 17.423-20.297 11.165-30.588 24.959-30.588 41v107.717c0 17.569 14.281 31.863 31.835 31.863h70.443v-44.337h-43.967c-3.866 0-7-3.134-7-7v-46.829c0-3.866 3.134-7 7-7h143.745c3.866 0 7 3.134 7 7v98.166h32.092v-98.166c0-3.866 3.134-7 7-7s7 3.134 7 7v36.936c13.58 18.314 46.204 48.955 67.457 44.13 11.574-2.627 19.469-16.154 23.464-40.203zm-13.063-58.728-1.238-.294c-6.226-1.432-12.695-.329-18.174 3.114-5.418 3.405-9.172 8.685-10.57 14.865l-3.597 15.902 48.941 11.304 2.918-17.567c2.077-12.481-5.952-24.482-18.279-27.323z"/><path d="m226.676 305.191 22.459 15.381 13.982-35.896c-3.38-.375-6.788-.732-10.215-1.083z" fill="#92cdf4"/><path d="m215.039 266.558c-9.88 0-19.366-1.699-28.207-4.786v11.659l28.206 23.209 28.179-23.207v-11.654c-8.832 3.083-18.308 4.779-28.178 4.779z" fill="#ffccbc"/><path d="m300.814 144.103v36.651c0 1.852-.08 3.684-.195 5.507 8.92-2.88 15.392-11.26 15.392-21.126 0-9.781-6.378-18.097-15.196-21.032z" fill="#eaaa98"/><path d="m373.485 355.179 3.987 13.122c1.124 3.699-.963 7.609-4.662 8.733-.679.206-1.363.304-2.038.304-3.001 0-5.776-1.946-6.694-4.967l-11.367-37.409c-11.337-33.796-40.793-43.574-75.269-48.496l-18.464 47.404c-.775 1.99-2.417 3.518-4.458 4.148-.676.209-1.372.312-2.064.312-1.396 0-2.777-.417-3.955-1.225l-33.462-22.917-33.463 22.917c-1.178.807-2.56 1.225-3.955 1.225-.692 0-1.389-.103-2.065-.312-2.04-.63-3.682-2.158-4.457-4.148l-18.257-46.875c-20.442 3.929-38.114 9.825-51.927 17.423-20.297 11.165-30.588 24.959-30.588 41v107.717c0 17.569 14.281 31.863 31.835 31.863h70.443v-44.337h-43.967c-3.866 0-7-3.134-7-7v-46.829c0-3.866 3.134-7 7-7h143.745c3.866 0 7 3.134 7 7v98.166h32.092v-98.166c0-3.866 3.134-7 7-7s7 3.134 7 7v36.936c13.58 18.314 46.204 48.956 67.457 44.13 11.574-2.627 19.469-16.154 23.464-40.203l19.275-116.083-49.732-11.487-12.454 55.053z" fill="#64b5f6"/><path d="m421.37 252.591c-6.226-1.432-12.695-.329-18.174 3.114-5.418 3.405-9.172 8.685-10.57 14.865l-3.597 15.902 48.941 11.304 2.918-17.567c2.077-12.481-5.952-24.482-18.279-27.323l-1.238-.294z" fill="#ffccbc"/><path d="m213.058 95.83c16.709 6.81 35.649 14.531 43.78 9.836 9.72-5.643 19.934-6.245 28.742-1.684 8.351 4.323 13.115 16.074 14.666 25.567 3.066.552 5.999 1.489 8.747 2.762l2.637-13.738c4.747-24.676-13.716-47.749-32.577-61.114-1.334-.945-2.295-2.327-2.716-3.906-3.301-12.363-10.982-26.554-41.342-26.554h-39.94c-22.707 0-45.241 10.094-60.279 27.002-12.53 14.088-18.312 31.38-16.278 48.691l3.426 29.232c2.368-1.024 4.865-1.799 7.46-2.299.908-21.164 6.494-34.97 17.034-42.056 17.502-11.767 42.484-1.585 66.641 8.26z" fill="#a1887f"/><path d="m135.639 426.663h66.588c19.943 0 36.168 16.225 36.168 36.169 0 8.349-2.851 16.04-7.621 22.168h34.61v-91.166h-129.745z" fill="#dceae9"/><path d="m202.227 440.663h-15.621v44.337h15.621c12.224 0 22.168-9.945 22.168-22.168s-9.944-22.169-22.168-22.169z" fill="#ffccbc"/><path d="m203.399 305.193-26.454-21.768c-3.384.364-6.724.766-9.994 1.224l13.991 35.923z" fill="#92cdf4"/><path d="m129.235 144.105c-8.803 2.938-15.169 11.251-15.169 21.029 0 9.863 6.46 18.24 15.364 21.123-.116-1.822-.195-3.653-.195-5.504z" fill="#eaaa98"/></svg>