<svg width="512" height="512" viewBox="0 0 512 512" fill="none" xmlns="http://www.w3.org/2000/svg">
<g clip-path="url(#clip0_4_280)">
<path d="M448.8 121.4C416.6 121.4 390.6 95.4 390.6 63.2C390.6 58 391.4 52.6 392.8 47.6H249C243.4 47.6 238.8 52.2 238.8 57.8V381.4C238.8 387 243.4 391.6 249 391.6H470C475.6 391.6 480.2 387 480.2 381.4V112.2C470.8 118.2 460 121.4 448.8 121.4Z" fill="#F4FFF8"/>
<path d="M238.8 67.8H236.6C228.8 67.8 221.2 70 214.4 74C206.6 60.8 192.4 52.8 177.2 52.8H155C111.8 53 76.8 88 76.6 131.2V166.2C83.6 160.6 92.4 158.2 101.2 159.6V156C101.2 153.8 103 152 105.2 152H106C119.8 154.8 160.6 159.8 188.4 125C189.8 123.2 192.4 123 194.2 124.4C194.4 124.4 194.4 124.6 194.6 124.6C200.2 130.2 214 140.6 238.8 143.6V67.8Z" fill="#818182"/>
<path d="M238.8 143.6C213.8 140.6 200.2 130.2 194.6 124.6C193 123 190.4 123 188.8 124.6C188.6 124.8 188.6 124.8 188.6 125C160.8 159.8 120 155 106.2 152C104 151.6 101.8 153 101.4 155.2V217C101.6 258.8 135.4 292.8 177.2 292.8C201.6 292.8 224.6 280.8 238.8 261V143.6Z" fill="#F9D0B4"/>
<path d="M101.4 217V159.6C84.2 156.8 67.8 168.6 65 185.8C62.2 203 74 219.4 91.2 222.2C94.6 222.8 98.2 222.8 101.6 222.2C101.4 220.4 101.4 218.8 101.4 217Z" fill="#F9D0B4"/>
<path d="M341.4 391.4H249C243.4 391.4 238.8 386.8 238.8 381.2V320.8L228.2 315.6C219.8 311.4 214.6 303 214.6 293.6V282.8C203.2 289.4 190.4 292.8 177.2 292.8C164 292.8 151.2 289.4 139.8 282.8V293.6C139.8 303 134.6 311.4 126.2 315.6L108.4 324.4C104 326.6 99.4 328.2 94.6 329.4L38.6 343.4C25 346.8 15.2 358.8 14.4 372.8L4.99999 492.2C4.39999 499.6 9.99999 506.2 17.4 506.8H336C343.4 506.8 349.6 500.8 349.6 493.2V492.2L341.4 391.4Z" fill="#81C298"/>
<path d="M238.8 321L228.2 315.8C219.8 311.6 214.6 303.2 214.6 293.8V283C203.2 289.6 190.4 293 177.2 293C164 293 151.2 289.6 139.8 283V293.8C139.8 303.2 134.6 311.6 126.2 315.8L113.2 322.2C127 344.2 151.2 357.6 177.2 357.6C201.6 357.6 224.6 345.6 238.8 325.8V321Z" fill="#F9D0B4"/>
<path d="M177.2 256.6C163.4 256.6 150.6 249.6 143.4 238C142 235.6 142.6 232.6 145 231C147.4 229.4 150.4 230.2 152 232.6C160.8 246.6 179.2 250.8 193.2 242C197 239.6 200.2 236.4 202.6 232.6C204 230.2 207.2 229.6 209.6 231C212 232.4 212.6 235.6 211.2 238C203.8 249.4 191 256.6 177.2 256.6Z" fill="black"/>
<path d="M144.6 203.2C149.571 203.2 153.6 199.171 153.6 194.2C153.6 189.229 149.571 185.2 144.6 185.2C139.629 185.2 135.6 189.229 135.6 194.2C135.6 199.171 139.629 203.2 144.6 203.2Z" fill="black"/>
<path d="M211.4 203.2C216.371 203.2 220.4 199.171 220.4 194.2C220.4 189.229 216.371 185.2 211.4 185.2C206.429 185.2 202.4 189.229 202.4 194.2C202.4 199.171 206.429 203.2 211.4 203.2Z" fill="black"/>
<path d="M96.4 227.6C76.2 227.6 59.6 211.4 59.6 191C59.6 170.6 75.8 154.2 96.2 154.2C98.2 154.2 100.2 154.4 102.2 154.6C104.6 155 106.4 157 106.4 159.6V217C106.4 218.4 106.4 220 106.6 221.8C106.8 224.4 105 226.6 102.4 227C100.4 227.4 98.4 227.6 96.4 227.6ZM96.4 164.2C81.6 164.2 69.8 176.2 69.8 190.8C69.8 205.6 81.8 217.4 96.4 217.4V216.8V164.2ZM336 512H18.6C8.4 512 0 503.8 0 493.4V492L9.4 372.6C10.2 356.4 21.6 342.8 37.4 338.8L93.4 324.8C97.8 323.6 102 322.2 106.2 320.2L124 311.4C130.6 308.2 135 301.4 134.8 294V283.2C134.8 280.4 137 278.2 139.8 278.2C140.6 278.2 141.6 278.4 142.2 278.8C163.8 291.2 190.4 291.2 212 278.8C214.4 277.4 217.4 278.2 218.8 280.6C219.2 281.4 219.4 282.2 219.4 283V293.8C219.4 301.2 223.6 308 230.2 311.2L240.8 316.4C242.6 317.2 243.6 319 243.6 320.8V381.2C243.6 384 245.8 386.4 248.8 386.4H341.2C343.8 386.4 346 388.4 346.2 391L354.2 492C355 502.2 347.4 511.2 337.2 512H336ZM144.8 291.2V293.8C144.8 305 138.4 315.4 128.4 320.2L110.6 329C106 331.4 101 333.2 95.8 334.4L39.8 348.4C28.2 351.2 20 361.2 19.4 373.2L10 492.8C9.6 497.4 13.2 501.6 17.8 502H336C340.8 502 344.6 498.2 344.6 493.4V492.8L337 396.4H249.2C240.8 396.4 234 389.6 234 381.2V324L226.2 320.2C216 315.2 209.8 305 209.8 293.8V291.2C189 300.2 165.4 300.2 144.8 291.2Z" fill="black"/>
<path d="M177.2 362.6C149.4 362.6 123.6 348.4 109 325C107.6 322.6 108.2 319.6 110.6 318C110.8 318 111 317.8 111 317.8L124 311.4C130.6 308.2 135 301.4 134.8 294V283.2C134.8 280.4 137 278.2 139.8 278.2C140.6 278.2 141.6 278.4 142.2 278.8C163.8 291.2 190.4 291.2 212 278.8C214.4 277.4 217.4 278.2 218.8 280.6C219.2 281.4 219.4 282.2 219.4 283V293.8C219.4 301.2 223.6 308 230.2 311.2L240.8 316.4C242.6 317.2 243.6 319 243.6 320.8V325.4C243.6 326.4 243.2 327.4 242.6 328.4C227.8 349.8 203.4 362.4 177.2 362.6ZM120.6 324C143.8 355.2 188.2 361.8 219.4 338.4C224.8 334.4 229.8 329.4 233.8 324L226 320.2C215.8 315.2 209.6 305 209.6 293.8V291.2C199.404 295.749 188.365 298.1 177.2 298.1C166.035 298.1 154.996 295.749 144.8 291.2V293.8C144.8 305 138.4 315.4 128.4 320.2L120.6 324Z" fill="black"/>
<path d="M448.8 121.4C480.943 121.4 507 95.343 507 63.2C507 31.057 480.943 5 448.8 5C416.657 5 390.6 31.057 390.6 63.2C390.6 95.343 416.657 121.4 448.8 121.4Z" fill="#87D147"/>
<path d="M436 87L418.2 69.2C414.2 65.4 414.2 59 418 55C421.8 51 428.2 51 432.2 54.8L432.4 55L443.2 65.8L465.8 43.2C469.6 39.2 476 39.2 480 43C484 46.8 484 53.2 480.2 57.2L480 57.4L450.4 87C446.2 91 440 91 436 87Z" fill="#F4FFF8"/>
<path d="M448.8 126.4C414 126.4 385.6 98.2 385.6 63.2C385.6 28.2 414 0 448.8 0C483.6 0 512 28.2 512 63.2C512 98 483.6 126.4 448.8 126.4ZM448.8 10C419.4 10 395.6 33.8 395.6 63.2C395.6 92.6 419.4 116.4 448.8 116.4C478.2 116.4 502 92.6 502 63.2C502 33.8 478.2 10 448.8 10Z" fill="black"/>
<path d="M443.2 95C439.2 95 435.4 93.4 432.6 90.6L414.8 72.8C408.8 67 408.6 57.6 414.4 51.6C420.2 45.6 429.6 45.4 435.6 51.2L436 51.6L443.2 58.8L462.2 39.8C468 33.8 477.4 33.6 483.4 39.4C489.4 45.2 489.6 54.6 483.8 60.6L483.4 61L453.8 90.6C451 93.4 447.2 95 443.2 95ZM439.6 83.6C440.6 84.6 441.8 85 443.2 85C444.6 85 445.8 84.4 446.8 83.6L476.4 54C478.4 52 478.4 48.8 476.4 47C474.4 45.2 471.4 45.2 469.4 47L446.8 69.6C444.8 71.6 441.6 71.6 439.8 69.6L429 58.8C427 57 424 57 422 58.8C420 60.8 420 64 422 65.8L439.6 83.6Z" fill="black"/>
<path d="M470 396.4H249C240.6 396.4 233.8 389.6 233.8 381.2V57.8C233.8 49.4 240.6 42.6 249 42.6H392.8C395.6 42.6 397.8 44.8 397.8 47.6C397.8 48 397.8 48.6 397.6 49C389.8 77.2 406.2 106.6 434.6 114.4C449.2 118.4 464.8 116.2 477.6 108C480 106.6 483 107.2 484.6 109.6C485.2 110.4 485.4 111.4 485.4 112.2V381.4C485.2 389.6 478.4 396.4 470 396.4ZM249 52.6C246.2 52.6 243.8 54.8 243.8 57.8V381.4C243.8 384.2 246 386.6 249 386.6H470C472.8 386.6 475.2 384.4 475.2 381.4V120.6C443.6 135.2 406 121.4 391.4 89.6C386 78 384.4 65.2 386.6 52.6H249Z" fill="black"/>
<path d="M76.6 171.2C73.8 171.2 71.6 169 71.6 166.2V131.2C71.6 85.2 109 48 155 47.8H177.2C192.6 47.8 206.8 55.2 216 67.4C223.2 64 231.2 62.4 239 62.8C241.6 63 243.8 65.2 243.8 67.8V143.4C243.8 146.2 241.6 148.4 238.8 148.4H238.2C213 145.4 198.4 135.2 191.8 128.8C162.8 164.6 120.4 160 106.4 157.2V159.6C106.4 162.4 104.2 164.6 101.4 164.6H100.6C99.2 164.4 97.8 164.2 96.4 164.2C90.4 164.2 84.4 166.2 79.8 170C79 170.8 77.8 171.2 76.6 171.2ZM155 57.8C114.6 57.8 81.8 90.6 81.6 131.2V157.4C86.2 155.4 91.2 154.2 96.4 154.4C97.4 149.4 102.2 146.4 107 147.4C122 150.2 159.2 154 184.6 122C187.8 118 193.4 117.4 197.4 120.6C197.6 120.8 197.8 121 198.2 121.2C203.2 126.2 214.2 134.4 234 137.8V73C228 73.4 222.2 75.2 217.2 78.4C214.8 79.8 211.8 79 210.4 76.6C203.4 65 191 58 177.6 57.8H155Z" fill="black"/>
<path d="M177.2 298C132.6 298 96.4 261.8 96.4 217.2V156C96.4 153.2 97.6 150.6 99.8 149C102 147.2 104.8 146.6 107.4 147.2C122 150.2 159.2 154 184.6 122C187.8 118 193.4 117.4 197.4 120.6C197.6 120.8 197.8 121 198.2 121.2C203.6 126.6 216.2 136 239.6 138.8C242.2 139.2 244 141.2 244 143.8V261.4C244 262.4 243.6 263.4 243 264.4C227.8 285.2 203.2 297.8 177.2 298ZM106.4 157.2V217C106.4 256.2 138 287.8 177.2 287.8C199.6 287.8 220.6 277.2 234 259.4V147.8C211.4 144.2 198.2 134.8 192 128.8C162.8 164.6 120.4 160 106.4 157.2ZM66 506C63.2 506 61 503.8 61 501V424C61 421.2 63.2 419 66 419C68.8 419 71 421.2 71 424V501C71 503.8 68.8 506 66 506ZM290 506C287.2 506 285 503.8 285 501V424C285 421.2 287.2 419 290 419C292.8 419 295 421.2 295 424V501C295 503.8 292.8 506 290 506Z" fill="black"/>
<path d="M275.889 223C270.248 223 266.277 221.911 263.977 219.734C262.443 218.324 261.676 216.011 261.676 212.795V181.215H268.355V209.863C268.355 212.956 268.875 214.848 269.914 215.541C270.557 215.962 272.549 216.221 275.889 216.32V223ZM287.17 191.531C287.17 192.842 286.712 193.956 285.797 194.871C284.906 195.786 283.818 196.244 282.531 196.244C279.142 196.244 277.447 194.673 277.447 191.531C277.447 188.884 279.055 187.561 282.271 187.561C285.537 187.561 287.17 188.884 287.17 191.531ZM301.717 223H299.527C295.322 223 292.229 222.134 290.25 220.402C288.023 222.134 285.883 223 283.83 223H272.846V216.32C279.748 216.32 283.632 216.16 284.498 215.838C285.982 215.318 286.725 213.339 286.725 209.9C286.725 209.035 286.712 207.723 286.688 205.967C286.663 204.21 286.65 202.899 286.65 202.033H293.404V211.199C293.404 214.49 296.175 216.197 301.717 216.32V223ZM340.051 223C334.361 223 330.34 221.38 327.99 218.139C326.679 221.38 323.611 223 318.787 223H298.971V216.32H318.898C320.655 216.32 321.533 215.17 321.533 212.869C321.533 212.077 321.286 211.422 320.791 210.902L303.387 192.645L302.162 185.148L326.729 176.279L327.656 182.959L310.252 189.453L328.695 209.863C330.773 212.189 332.406 213.735 333.594 214.502C335.35 215.64 337.503 216.246 340.051 216.32V223ZM367.029 210.457C367.029 214.292 366.077 217.434 364.172 219.883C362.094 222.579 359.187 223.928 355.451 223.928C352.606 223.928 350.095 223.087 347.918 221.404C345.766 222.344 341.993 222.876 336.6 223V216.32C340.385 216.32 342.599 215.949 343.242 215.207C343.44 214.96 343.576 213.253 343.65 210.086C343.873 200.908 347.868 196.318 355.637 196.318C359.348 196.318 362.242 197.803 364.32 200.771C366.126 203.369 367.029 206.598 367.029 210.457ZM361.203 210.086C361.203 205.262 359.286 202.85 355.451 202.85C351.542 202.85 349.588 205.348 349.588 210.346C349.588 214.972 351.542 217.285 355.451 217.285C359.286 217.285 361.203 214.885 361.203 210.086ZM432.268 223H429.225C426.701 223 423.881 221.466 420.764 218.398C418.76 221.466 415.803 223 411.895 223H391.188L390.26 216.32H411.486C413.936 216.32 415.16 215.479 415.16 213.797C415.16 212.857 414.814 212.028 414.121 211.311L399.092 195.316L403.619 190.789L423.695 212.053C425.452 213.908 426.652 215.021 427.295 215.393C428.408 216.011 430.066 216.32 432.268 216.32V223ZM460.1 213.908C460.1 219.969 456.698 223 449.895 223H429.039V216.32H449.895C451.651 216.32 452.529 215.281 452.529 213.203C452.529 212.238 452.245 211.471 451.676 210.902L434.346 192.645L433.232 185.186L457.725 176.279L458.727 182.959L441.434 189.453L455.127 204.779C456.092 205.868 457.329 207.624 458.838 210.049C459.679 211.41 460.1 212.696 460.1 213.908Z" fill="black"/>
<path d="M298.479 275.053L296.289 286.594H306.383V291.604H295.287L292.727 305H287.383L290.018 291.604H279.441L276.844 305H271.611L274.061 291.604H264.598V286.594H275.025L277.326 275.053H267.344V270.08H278.217L280.74 256.943H286.084L283.598 270.08H294.248L296.809 256.943H302.041L299.48 270.08H309.018V275.053H298.479ZM280.369 286.594H290.982L293.209 275.053H282.633L280.369 286.594ZM348.131 275.053L345.941 286.594H356.035V291.604H344.939L342.379 305H337.035L339.67 291.604H329.094L326.496 305H321.264L323.713 291.604H314.25V286.594H324.678L326.979 275.053H316.996V270.08H327.869L330.393 256.943H335.736L333.25 270.08H343.9L346.461 256.943H351.693L349.133 270.08H358.67V275.053H348.131ZM330.021 286.594H340.635L342.861 275.053H332.285L330.021 286.594ZM397.783 275.053L395.594 286.594H405.688V291.604H394.592L392.031 305H386.688L389.322 291.604H378.746L376.148 305H370.916L373.365 291.604H363.902V286.594H374.33L376.631 275.053H366.648V270.08H377.521L380.045 256.943H385.389L382.902 270.08H393.553L396.113 256.943H401.346L398.785 270.08H408.322V275.053H397.783ZM379.674 286.594H390.287L392.514 275.053H381.938L379.674 286.594ZM447.436 275.053L445.246 286.594H455.34V291.604H444.244L441.684 305H436.34L438.975 291.604H428.398L425.801 305H420.568L423.018 291.604H413.555V286.594H423.982L426.283 275.053H416.301V270.08H427.174L429.697 256.943H435.041L432.555 270.08H443.205L445.766 256.943H450.998L448.438 270.08H457.975V275.053H447.436ZM429.326 286.594H439.939L442.166 275.053H431.59L429.326 286.594Z" fill="black"/>
</g>
<defs>
<clipPath id="clip0_4_280">
<rect width="512" height="512" fill="white"/>
</clipPath>
</defs>
</svg>
