<svg clip-rule="evenodd" fill-rule="evenodd" height="1.707in" image-rendering="optimizeQuality" shape-rendering="geometricPrecision" text-rendering="geometricPrecision" viewBox="0 0 1.70666 1.70666" width="1.707in" xmlns="http://www.w3.org/2000/svg"><g id="Layer_x0020_1"><g id="_612577968"><g><g><path id="_612581592" d="m1.22546 1.55502h-.89585c-.0619921 0-.112425-.050437-.112425-.112429v-1.21796c0-.0051811.00205906-.0101496.00572047-.013815l.205028-.205035c.00366929-.00366142.0086378-.00571654.0138228-.00571654h.784441c.0615866 0 .111693.0501024.111693.111693v1.33084c-.00000394.0619921-.050437.112429-.112429.112429zm-.969197-1.3223v1.20987c0 .0404449.0329055.0733465.0733425.0733465h.89585c.0404409 0 .0733465-.0329055.0733465-.0733465v-1.33083c.00000394-.0400433-.0325709-.0726142-.0726063-.0726142h-.776346l-.193587.193583z"/></g><g><path id="_612581928" d="m1.37706 1.70661h-.89585c-.0619921 0-.112425-.0504331-.112425-.112425v-.0587087c0-.0107874.00874803-.0195394.0195394-.0195394h.837138c.0404409 0 .0733465-.0329055.0733465-.0733465v-1.2714c0-.0107874.00874803-.0195394.0195394-.0195394h.059437c.0615906 0 .111697.0501063.111697.111697v1.33084c.00000394.0619921-.0504331.112425-.112421.112425zm-.969197-.151591v.0391654c0 .0404409.0329055.0733465.0733465.0733465h.895846c.0404449 0 .0733465-.0329055.0733465-.0733465v-1.33084c0-.0400394-.0325748-.0726142-.0726142-.0726142l-.0398976.00000394v1.25186c0 .0619882-.0504331.112425-.112425.112425h-.817602z"/></g><g><path id="_612582192" d="m1.10657 1.42652h-.658059c-.0315827 0-.0572795-.0256969-.0572795-.0572835v-.525976c0-.0315827.0256969-.0572795.0572795-.0572795h.658059c.0315827 0 .0572795.0256969.0572795.0572795v.525976c0 .0315866-.0256969.0572835-.0572795.0572835zm-.658059-.601457c-.0100354 0-.0182008.00816535-.0182008.0181969v.525976c0 .0100354.00816535.0182008.0182008.0182008h.658059c.0100354 0 .0182008-.00816535.0182008-.0182008v-.525976c0-.0100315-.00816535-.0181969-.0182008-.0181969z"/></g><g><path id="_612581472" d="m.872472 1.20364h-.189878c-.0107913 0-.0195433-.00875197-.0195433-.0195394v-.155693c0-.0107874.00875197-.0195394.0195433-.0195394h.189878c.0107913 0 .0195433.00875197.0195433.0195394v.155693c0 .0107913-.00875197.0195394-.0195433.0195394zm-.170339-.0390827h.150799v-.116606h-.150799z"/></g><g><path id="_612580920" d="m.872457 1.04795c-.00405906 0-.00814961-.00125591-.0116535-.00386614-.00865748-.00644488-.0104449-.018689-.004-.0273465l.0701693-.0942441c.00368504-.00495276.0095-.00787008.0156732-.00787008h.201665c.0107913 0 .0195394.00875197.0195394.0195394 0 .0107913-.00874803.0195433-.0195394.0195433h-.19185l-.064311.0863701c-.00383858.00515748-.00972835.00787402-.0156929.00787402z"/></g><g><path id="_612580800" d="m1.14431 1.29788h-.201665c-.00617323 0-.0119843-.00291732-.0156732-.00787008l-.0701693-.0942441c-.00644488-.00865354-.00465354-.0209016.00400394-.0273465.00866142-.00644488.0209016-.00464961.0273425.00400394l.0643071.086374.19185-.00000394c.0107913 0 .0195394.00875197.0195394.0195433 0 .0107874-.00874409.0195433-.0195354.0195433z"/></g><g><path id="_612580536" d="m.682614 1.04795c-.0059685 0-.0118543-.00271654-.015689-.00787008l-.064311-.086374h-.191846c-.0107913 0-.0195394-.00874803-.0195394-.0195394 0-.0107913.00874803-.0195394.0195394-.0195394h.201657c.00617717 0 .0119882.00291732.0156772.00787008l.0701693.0942441c.00644488.00865354.00465354.0208976-.00400394.0273425-.00350394.0026063-.00759449.00386614-.0116535.00386614z"/></g><g><path id="_612580464" d="m.612425 1.29788h-.201657c-.0107913 0-.0195394-.00875197-.0195394-.0195394 0-.0107913.00874803-.0195433.0195394-.0195433h.191846l.064311-.0863701c.00644488-.00865748.018685-.0104606.0273425-.00400394.00865748.00644488.0104488.018689.00400394.0273425l-.0701693.0942441c-.00369291.00494882-.0095.00787008-.0156772.00787008z"/></g><g><path id="_612580248" d="m1.12326.669276h-.123165c-.0107874 0-.0195394-.00875197-.0195394-.0195433v-.474343c0-.0107874.00875197-.0195394.0195394-.0195394h.123165c.0107913 0 .0195394.00875197.0195394.0195394v.474343c0 .0107913-.00874803.0195433-.0195394.0195433zm-.103626-.0390827h.0840827v-.43526h-.0840827z"/></g><g><path id="_612579336" d="m.876933.669276c-.0107913 0-.0195433-.00875197-.0195433-.0195433v-.474343c0-.0107874.00875197-.0195394.0195433-.0195394.0107874 0 .0195394.00875197.0195394.0195394v.474343c0 .0107913-.00874803.0195433-.0195394.0195433z"/></g><g><path id="_612579408" d="m.753768.669276c-.0107913 0-.0195394-.00875197-.0195394-.0195433v-.474343c0-.0107874.00874803-.0195394.0195394-.0195394.0107913 0 .0195394.00875197.0195394.0195394v.474343c0 .0107913-.00874803.0195433-.0195394.0195433z"/></g><g><path id="_612579456" d="m.630598.669276c-.0107913 0-.0195394-.00875197-.0195394-.0195433v-.474343c0-.0107874.00874803-.0195394.0195394-.0195394.0107913 0 .0195394.00875197.0195394.0195394v.474343c0 .0107913-.00874409.0195433-.0195394.0195433z"/></g><g><path id="_612579720" d="m.136252 1.28c-.0107874 0-.0195394-.00874803-.0195394-.0195394v-.686886c0-.0107913.00875197-.0195433.0195394-.0195433.0107913 0 .0195433.00875197.0195433.0195433v.686886c0 .0107913-.00875197.0195394-.0195433.0195394z"/></g><g><path id="_612579744" d="m.136252.479429c-.0107874 0-.0195394-.00875197-.0195394-.0195433v-.11185c0-.0107913.00875197-.0195433.0195394-.0195433.0107913 0 .0195433.00875197.0195433.0195433v.11185c0 .0107913-.00875197.0195433-.0195433.0195433z"/></g><g><path id="_612579576" d="m1.57041 1.58318c-.0107874 0-.0195394-.00874803-.0195394-.0195394v-.686886c0-.0107913.00875197-.0195433.0195394-.0195433.0107913 0 .0195433.00875197.0195433.0195433v.686886c0 .0107913-.00875197.0195394-.0195433.0195394z"/></g><g><path id="_612579912" d="m1.57041.782606c-.0107874 0-.0195394-.00875197-.0195394-.0195433v-.111854c0-.0107874.00875197-.0195394.0195394-.0195394.0107913 0 .0195433.00875197.0195433.0195394v.111854c0 .0107913-.00875197.0195433-.0195433.0195433z"/></g><g><g><path id="_612579648" d="m1.14431 1.16134h-.271835c-.0107874 0-.0195394-.00875197-.0195394-.0195394 0-.0107913.00875197-.0195433.0195394-.0195433h.271835c.0107913 0 .0195394.00875197.0195394.0195433 0 .0107874-.00874803.0195394-.0195394.0195394z"/></g><g><path id="_612579192" d="m1.14431 1.09025h-.271835c-.0107874 0-.0195394-.00874803-.0195394-.0195394 0-.0107913.00875197-.0195433.0195394-.0195433h.271835c.0107913 0 .0195394.00875197.0195394.0195433 0 .0107913-.00874803.0195394-.0195394.0195394z"/></g></g><g><g><path id="_612579072" d="m.682598 1.16134h-.271831c-.0107913 0-.0195394-.00875197-.0195394-.0195394 0-.0107913.00874803-.0195433.0195394-.0195433h.271831c.0107874 0 .0195394.00875197.0195394.0195433 0 .0107874-.00874803.0195394-.0195394.0195394z"/></g><g><path id="_612578856" d="m.682598 1.09025h-.271831c-.0107913 0-.0195394-.00874803-.0195394-.0195394 0-.0107913.00874803-.0195433.0195394-.0195433h.271831c.0107874 0 .0195394.00875197.0195394.0195433 0 .0107913-.00874803.0195394-.0195394.0195394z"/></g></g><g><g><path id="_612578760" d="m.741992 1.04795c-.0107913 0-.0195433-.00874803-.0195433-.0195394v-.222882c0-.0107874.00875197-.0195394.0195433-.0195394.0107874 0 .0195394.00875197.0195394.0195394v.222882c0 .0107913-.00875197.0195394-.0195394.0195394z"/></g><g><path id="_612578664" d="m.813075 1.04795c-.0107874 0-.0195394-.00874803-.0195394-.0195394v-.222882c0-.0107874.00875197-.0195394.0195394-.0195394.0107913 0 .0195433.00875197.0195433.0195394v.222882c0 .0107913-.00875197.0195394-.0195433.0195394z"/></g></g><g><g><path id="_612578424" d="m.741992 1.42652c-.0107913 0-.0195433-.00875197-.0195433-.0195433v-.222882c0-.0107913.00875197-.0195433.0195433-.0195433.0107874 0 .0195394.00875197.0195394.0195433v.222882c0 .0107953-.00875197.0195433-.0195394.0195433z"/></g><g><path id="_612578328" d="m.813075 1.42652c-.0107874 0-.0195394-.00875197-.0195394-.0195433v-.222882c0-.0107913.00875197-.0195433.0195394-.0195433.0107913 0 .0195433.00875197.0195433.0195433v.222882c0 .0107953-.00875197.0195433-.0195433.0195433z"/></g></g></g></g><path d="m.430307 1.05117h.232744v-.0163l-.060437-.081165h-.172307z" fill="#fdc830"/><path d="m.663051 1.09025h-.232744v.03201h.232744z" fill="#fbb72f"/><path d="m.663051 1.16134h-.232744v.09746h.172307l.060437-.08117z" fill="#fdc830"/><path d="m.692413 1.20364-.064311.086374c-.00369291.00494882-.0095.00787008-.0156772.00787008h-.182118v.0713583c0 .0100354.00816535.0182008.0182008.0182008h.273941v-.183803h-.0300354z" fill="#fdc830"/><path d="m.761531 1.20364v.1838h.032004v-.1838z" fill="#fbb72f"/><path d="m.892016 1.17762.060437.08118h.172317v-.09746h-.232754z" fill="#fdc830"/><path d="m.942642 1.29788c-.00617323 0-.0119843-.00291732-.0156732-.00787008l-.064311-.086374h-.0300394v.183803h.273949c.0100354 0 .0182008-.00816535.0182008-.0182008v-.0713583h-.182126z" fill="#fdc830"/><path d="m.892016 1.12226h.232754v-.03201h-.232754z" fill="#fbb72f"/><path d="m.892016 1.05117h.232754v-.097465h-.172309l-.060445.081175z" fill="#fdc830"/><path d="m.852933 1.1418v-.0710866-.0227638h-.0398583-.0710827-.0398583v.0223661c.00000394.00013386.00000394.00026378.00000394.00039764s0 .00026378-.00000394.00039764v.0702913c.00000394.00013386.00000394.00026378.00000394.00039764s0 .00026378-.00000394.00039764v.0223583h.0394606c.00013386-.00000394.00026378-.00000394.00039764-.00000394s.00026378 0 .00039764.00000394h.0702874c.00013386-.00000394.00026378-.00000394.00039764-.00000394s.00026378 0 .00039764.00000394h.0394606v-.0227559z" fill="#fbb72f"/><path d="m.862661 1.00887.064311-.086374c.00368504-.00495276.0095-.00787008.0156732-.00787008h.182122v-.0713583c0-.0100315-.00816535-.0181969-.0182008-.0181969h-.273949v.183799h.0300433z" fill="#fdc830"/><path d="m.793535 1.00887v-.183803h-.032004v.183803z" fill="#fbb72f"/><path d="m.722449 1.00887v-.183799h-.273941c-.0100354 0-.0182008.00816535-.0182008.0181969v.0713622h.182118c.00617717 0 .0119882.00291732.0156772.00787008l.0643071.0863701h.0300394z" fill="#fdc830"/><path d="m.448508.785984.293484.00000394h.0710827l.293492-.00000394c.0315827 0 .0572795.0256969.0572795.0572795v.0905c.00000394.00013386.00000394.00026378.00000394.00039764s0 .00026378-.00000394.00039764v.136154.0710866l-.00000394.136539.00000394.0909016c0 .0315866-.0256969.0572835-.0572795.0572835l-.293492-.00000394h-.0710827l-.293484.00000394c-.0315827 0-.0572795-.0256969-.0572795-.0572835v-.0908976-.136543-.0710866-.136547-.0909016c0-.0315827.0256969-.0572795.0572795-.0572795zm-.060189.729949h.837138c.0404409 0 .0733465-.0329055.0733465-.0733465v-1.2714-.059437c.00000394-.0400433-.0325709-.0726142-.0726063-.0726142h-.776346l-.193587.193583v1.20987c0 .0404449.0329055.0733465.0733425.0733465l.0587126.00000394zm.24228-.846657c-.0107913 0-.0195394-.00875197-.0195394-.0195433v-.474343c0-.0107874.00874803-.0195394.0195394-.0195394.0107913 0 .0195394.00875197.0195394.0195394v.474343c0 .0107913-.00874409.0195433-.0195394.0195433zm.123169 0c-.0107913 0-.0195394-.00875197-.0195394-.0195433v-.474343c0-.0107874.00874803-.0195394.0195394-.0195394.0107913 0 .0195394.00875197.0195394.0195394v.474343c0 .0107913-.00874803.0195433-.0195394.0195433zm.123165 0c-.0107913 0-.0195433-.00875197-.0195433-.0195433v-.474343c0-.0107874.00875197-.0195394.0195433-.0195394.0107874 0 .0195394.00875197.0195394.0195394v.474343c0 .0107913-.00874803.0195433-.0195394.0195433zm.246331 0h-.123165c-.0107874 0-.0195394-.00875197-.0195394-.0195433v-.474343c0-.0107874.00875197-.0195394.0195394-.0195394h.123165c.0107913 0 .0195394.00875197.0195394.0195394v.474343c0 .0107913-.00874803.0195433-.0195394.0195433z" fill="#2ec8fd"/><path d="m1.01964.194933v.43526h.08408v-.43526z" fill="#fbb72f"/><path d="m1.33789.190732v1.25186c0 .0619882-.0504331.112425-.112425.112425h-.817602v.0391654c0 .0404409.0329055.0733465.0733465.0733465h.895846c.0404449 0 .0733465-.0329055.0733465-.0733465v-1.33084c0-.0400394-.0325748-.0726142-.0726142-.0726142l-.0398976.00000394z" fill="#40aaf2"/></g></svg>