<svg width="512" height="512" viewBox="0 0 512 512" fill="none" xmlns="http://www.w3.org/2000/svg"><path d="M164.174 511.986L157.714 511.804L150.019 511.024L138.93 509.36L128.401 506.891L117.417 503.342C114.271 502.172 108.526 499.663 104.613 497.752L92.7448 491.266L82.5405 484.207L72.0633 475.537C68.9194 472.634 65.9051 469.593 63.029 466.425L56.7114 459.015C54.628 456.308 52.6338 453.533 50.7319 450.696L44.6353 440.908L39.6046 430.898L35.0941 419.927C33.7538 416.094 32.5698 412.209 31.5452 408.28L29.2834 398.635L28.2176 392.187L15.2835 283.06L2.28441 169.709C1.85567 163.378 1.8945 161.155 2.51836 153.694L4.05228 140.227L6.11916 130.36L9.05688 120.065L12.8006 109.861L16.9344 100.736L21.1721 92.9103L26.1507 85.0198L32.3901 76.5185L39.6436 68.0171C41.7625 65.7163 45.5972 61.9465 48.171 59.6587L56.8675 52.4312L64.8358 46.7896L72.1153 42.292L78.7837 38.7302L86.0893 35.3765L95.6175 31.7888L107.057 28.435L116.676 26.3682L226.401 13.2652L338.414 0.29207C342.293 0.00105727 346.186 -0.072564 350.074 0.0715559L361.318 0.981504L372.198 2.64535L382.727 5.11516L393.712 8.66391C396.857 9.83385 402.603 12.3557 406.503 14.2665L418.371 20.74L428.588 27.8115L439.052 36.4819C442.198 39.3807 445.214 42.4224 448.1 45.5812L454.417 52.9907C455.717 54.6026 458.395 58.3593 460.397 61.3231L466.48 71.1113L471.524 81.1206L476.021 92.0918C477.087 95.0166 478.686 100.255 479.583 103.726L481.832 113.371L482.911 119.832L495.845 228.933L508.831 342.271C509.273 348.602 509.221 350.825 508.61 358.299L507.063 371.753L505.009 381.632L502.071 391.928L498.328 402.132L494.194 411.244L489.956 419.083L484.977 426.973L478.738 435.474L471.485 443.976C469.366 446.277 465.531 450.046 462.957 452.334L454.248 459.562L446.292 465.203L439.013 469.701L432.331 473.263L425.026 476.616L415.498 480.204L404.059 483.545L394.439 485.625L286.17 498.572L175.197 511.48L164.148 512L164.174 511.986Z" fill="#4B3484"/><path d="M257.442 476.083C182.256 476.124 127.374 475.992 125.437 475.77C119.675 475 113.973 473.836 108.369 472.287C105.486 471.404 102.637 470.411 99.8291 469.31C97.2033 468.27 92.9396 466.32 90.3528 464.968C87.3603 463.392 84.4372 461.688 81.5914 459.86C78.994 458.118 76.466 456.275 74.013 454.335C71.5284 452.29 69.1177 450.157 66.7856 447.939C64.3373 445.547 61.9993 443.044 59.7791 440.439C57.6247 437.815 55.5779 435.105 53.6435 432.315C52.0836 430.014 49.8738 426.465 48.7038 424.385C47.3276 421.881 46.0527 419.322 44.8821 416.716C43.6901 413.91 42.589 411.066 41.5805 408.188C40.5663 405.159 39.6772 402.088 38.9156 398.985C38.2105 395.885 37.6035 392.764 37.0957 389.626C36.3808 385.102 36.3418 377.862 36.3418 255.944L37.0827 122.262C37.603 119.129 38.2006 115.996 38.9025 112.902C39.5135 110.38 40.7224 106.208 41.6064 103.634C42.4903 101.034 44.0763 97.0434 45.1162 94.7166C46.1561 92.3898 47.8719 88.984 48.9118 87.1252C50.4067 84.5514 51.9797 82.0426 53.6435 79.5857C55.2034 77.2849 57.9592 73.6452 59.7791 71.4484C61.5989 69.2645 64.7577 65.8977 66.7985 63.9609C68.8264 62.011 71.9592 59.2292 73.753 57.7603C76.3138 55.7454 78.9526 53.8216 81.6824 52.0148C88.1383 47.8882 94.993 44.4217 102.143 41.6675C105.292 40.5575 108.489 39.586 111.723 38.7557C114.713 38.0018 119.185 37.0399 121.719 36.6108C126.1 35.87 131.885 35.8309 255.597 35.8309L389.474 36.6108C392.827 37.2088 396.155 37.9238 399.47 38.7557C402.46 39.4967 406.749 40.8096 409.037 41.6675C416.207 44.3871 423.069 47.8554 429.511 52.0148C432.228 53.8346 434.866 55.7454 437.44 57.7603C439.234 59.2292 442.367 62.024 444.395 63.9609C446.436 65.9107 449.594 69.2905 451.401 71.4484C453.221 73.6322 455.99 77.2979 457.537 79.5727C459.097 81.8735 461.306 85.4223 462.476 87.5021C463.854 89.9979 465.128 92.5587 466.298 95.1716C467.234 97.3294 468.729 101.151 469.6 103.699C470.484 106.234 471.68 110.367 472.265 112.902C472.979 115.996 473.578 119.129 474.084 122.262C474.799 126.785 474.838 134.026 474.838 255.944L474.098 389.626C473.577 392.759 472.98 395.891 472.278 398.985C471.511 402.088 470.618 405.159 469.6 408.188C468.729 410.723 467.247 414.571 466.298 416.729C465.128 419.329 463.854 421.889 462.476 424.398C461.306 426.452 459.097 430.014 457.537 432.315C455.604 435.106 453.558 437.817 451.401 440.439C449.581 442.623 446.436 445.99 444.395 447.927C442.146 450.071 439.819 452.138 437.427 454.127C434.866 456.142 432.228 458.066 429.511 459.873C423.058 463.993 416.208 467.455 409.063 470.207C406.185 471.234 403.266 472.144 400.315 472.937C397.208 473.717 394.075 474.432 390.93 475.068L386.133 475.978L257.442 476.083Z" fill="#2E1B58"/><g filter="url(#filter0_f_338_160)"><path d="M123.162 264.026C119.575 264.422 115.654 265.461 112.004 267C107.584 268.852 103.352 271.306 96.0723 276.235C94.2421 277.483 91.7878 279.126 90.6128 279.906C83.3229 284.731 78.1856 287.071 73.61 287.674C71.2286 287.986 70.0951 287.84 68.5664 287.04C66.6529 286.041 65.2906 284.284 64.7706 282.173C64.3962 280.623 64.3962 278.263 64.7706 276.797C65.3423 274.571 66.8609 272.658 68.868 271.618C70.0639 271.004 70.9374 270.765 72.2685 270.703C74.6292 270.585 76.5426 271.358 78.2272 273.105C78.7678 273.666 78.9448 273.791 79.2152 273.791C79.7247 273.791 80.0471 273.396 79.9743 272.876C79.8446 271.93 78.8096 270.214 77.5721 268.924C76.189 267.479 74.6084 266.574 72.6222 266.065C71.4366 265.763 68.7536 265.742 67.4225 266.023C62.358 267.083 58.5104 269.673 55.6714 273.926C51.4701 280.218 51.0228 288.152 54.4858 295.099C57.1375 300.434 60.8917 304.011 67.0273 307.068C73.0693 310.074 80.3904 312.06 88.533 312.882C100.97 314.15 113.824 312.413 125.762 307.848C133.468 304.895 141.413 300.33 147.85 295.14L148.661 294.485L149.046 294.797C150.907 296.347 155.077 299.321 157.532 300.85C175.085 311.779 196.341 315.762 216.027 311.8C226.853 309.616 235.391 305.342 239.769 299.893C243.273 295.536 245.145 290.523 245.145 285.469C245.145 280.02 243.044 274.831 239.321 271.087C236.961 268.706 234.694 267.344 231.616 266.46C226.79 265.066 222.818 265.856 219.865 268.789C218.679 269.974 217.286 272.252 217.275 273.042C217.275 273.386 217.722 273.791 218.097 273.791C218.357 273.791 218.575 273.635 219.23 272.98C220.686 271.514 222.277 270.796 224.243 270.692C228.61 270.484 232.188 273.552 232.78 278.003C232.937 279.178 232.845 280.935 232.562 282.11C231.907 284.856 229.838 286.977 227.144 287.674C225.095 288.204 220.78 287.362 216.807 285.657C213.178 284.097 209.788 282.027 200.793 275.923C192.619 270.38 187.752 267.728 182.386 265.888C178.278 264.494 174.93 263.912 170.832 263.912C165.342 263.912 160.132 264.91 155.899 266.772C153.632 267.77 151.396 269.257 149.545 270.983L148.64 271.836L147.673 270.921C143.888 267.292 138.855 265.18 131.762 264.213C129.953 263.974 124.712 263.849 123.162 264.026Z" fill="black"/><path d="M123.162 264.026C119.575 264.422 115.654 265.461 112.004 267C107.584 268.852 103.352 271.306 96.0723 276.235C94.2421 277.483 91.7878 279.126 90.6128 279.906C83.3229 284.731 78.1856 287.071 73.61 287.674C71.2286 287.986 70.0951 287.84 68.5664 287.04C66.6529 286.041 65.2906 284.284 64.7706 282.173C64.3962 280.623 64.3962 278.263 64.7706 276.797C65.3423 274.571 66.8609 272.658 68.868 271.618C70.0639 271.004 70.9374 270.765 72.2685 270.703C74.6292 270.585 76.5426 271.358 78.2272 273.105C78.7678 273.666 78.9448 273.791 79.2152 273.791C79.7247 273.791 80.0471 273.396 79.9743 272.876C79.8446 271.93 78.8096 270.214 77.5721 268.924C76.189 267.479 74.6084 266.574 72.6222 266.065C71.4366 265.763 68.7536 265.742 67.4225 266.023C62.358 267.083 58.5104 269.673 55.6714 273.926C51.4701 280.218 51.0228 288.152 54.4858 295.099C57.1375 300.434 60.8917 304.011 67.0273 307.068C73.0693 310.074 80.3904 312.06 88.533 312.882C100.97 314.15 113.824 312.413 125.762 307.848C133.468 304.895 141.413 300.33 147.85 295.14L148.661 294.485L149.046 294.797C150.907 296.347 155.077 299.321 157.532 300.85C175.085 311.779 196.341 315.762 216.027 311.8C226.853 309.616 235.391 305.342 239.769 299.893C243.273 295.536 245.145 290.523 245.145 285.469C245.145 280.02 243.044 274.831 239.321 271.087C236.961 268.706 234.694 267.344 231.616 266.46C226.79 265.066 222.818 265.856 219.865 268.789C218.679 269.974 217.286 272.252 217.275 273.042C217.275 273.386 217.722 273.791 218.097 273.791C218.357 273.791 218.575 273.635 219.23 272.98C220.686 271.514 222.277 270.796 224.243 270.692C228.61 270.484 232.188 273.552 232.78 278.003C232.937 279.178 232.845 280.935 232.562 282.11C231.907 284.856 229.838 286.977 227.144 287.674C225.095 288.204 220.78 287.362 216.807 285.657C213.178 284.097 209.788 282.027 200.793 275.923C192.619 270.38 187.752 267.728 182.386 265.888C178.278 264.494 174.93 263.912 170.832 263.912C165.342 263.912 160.132 264.91 155.899 266.772C153.632 267.77 151.396 269.257 149.545 270.983L148.64 271.836L147.673 270.921C143.888 267.292 138.855 265.18 131.762 264.213C129.953 263.974 124.712 263.849 123.162 264.026Z" stroke="#FDFDFD" stroke-width="0.00231243"/></g><path d="M384.144 342.608C383.535 342.457 382.966 342.173 382.481 341.775C381.995 341.377 381.604 340.875 381.337 340.307L381.012 339.657V302.311L381.337 301.661C381.757 300.765 382.486 300.049 383.39 299.646L384.209 299.256H423.336L424.155 299.646C425.057 300.047 425.785 300.757 426.209 301.648L426.534 302.311V339.657L426.131 340.437C425.683 341.317 424.937 342.009 424.025 342.387L423.323 342.712L404.007 342.735C388.967 342.735 384.573 342.724 384.131 342.605L384.144 342.608Z" fill="white"/><path d="M286.302 312.814C284.966 312.514 283.75 311.822 282.809 310.826C281.869 309.83 281.248 308.576 281.025 307.225C280.825 305.843 281.054 304.434 281.679 303.186C282.304 301.939 283.296 300.912 284.521 300.244L284.606 300.199C284.782 300.104 284.939 300.02 285.1 299.946C286.365 299.36 287.9 299.36 301.513 299.36H302.2C311.507 299.36 317.383 299.414 317.968 299.503C321.621 300.075 324.246 303.65 323.648 307.225C323.426 308.587 322.797 309.849 321.843 310.847C320.889 311.845 319.656 312.531 318.306 312.814C316.889 313.113 287.68 313.113 286.302 312.814Z" fill="white"/><path fill-rule="evenodd" clip-rule="evenodd" d="M250.047 375.067L250.016 374.987C256.514 375.077 278.297 375.079 350.588 375.048C449.056 375.023 453.839 375.01 454.619 374.763C456.115 374.337 457.463 373.503 458.512 372.355C459.561 371.208 460.27 369.791 460.56 368.263C460.859 366.599 460.859 164.126 460.56 162.462C460.014 159.381 457.739 156.886 454.619 155.95C453.839 155.718 447.327 155.706 308.991 155.664C212.56 155.642 176.425 155.657 167.017 155.751L166.996 155.695H150.006C133.953 155.695 133.004 155.721 132.913 155.955C131.326 160.164 129.735 164.371 128.142 168.577C125.042 176.801 121.931 185.021 118.809 193.236C115.514 201.994 112.208 210.746 108.89 219.494C106.849 224.887 104.812 230.282 102.781 235.678C99.9051 243.223 97.0496 250.775 94.2145 258.336C91.0421 266.741 87.8651 275.144 84.6837 283.546C80.3415 285.96 76.8361 287.249 73.61 287.674C71.2286 287.986 70.0951 287.84 68.5664 287.04C66.6529 286.041 65.2906 284.284 64.7706 282.173C64.3962 280.623 64.3962 278.263 64.7706 276.797C65.3423 274.571 66.8609 272.658 68.868 271.618C70.0639 271.004 70.9374 270.765 72.2685 270.703C74.6292 270.585 76.5426 271.358 78.2272 273.105C78.7678 273.666 78.9448 273.791 79.2152 273.791C79.7247 273.791 80.0471 273.396 79.9743 272.876C79.8446 271.93 78.8096 270.214 77.5721 268.924C76.189 267.479 74.6084 266.574 72.6222 266.065C71.4366 265.763 68.7536 265.742 67.4225 266.023C62.358 267.083 58.5104 269.673 55.6714 273.926C51.4701 280.218 51.0228 288.152 54.4858 295.099C57.1375 300.434 60.8917 304.011 67.0273 307.068C69.3792 308.238 71.9249 309.254 74.6374 310.106C73.122 314.11 71.61 318.115 70.1014 322.122C68.734 325.691 67.382 329.265 66.0456 332.846C62.7839 341.424 59.5385 350.007 56.3093 358.597L53.2286 366.787C52.21 369.519 51.1797 372.246 50.1375 374.969C50.1357 374.968 50.1349 374.968 50.1349 374.967L50.1348 374.976L50.1375 374.969C50.3101 375.022 59.0811 375.045 69.7635 375.045C80.5527 375.045 89.392 375.045 89.392 375.022C89.392 374.97 93.3568 363.583 97.1655 352.69L100.389 343.408L103.639 334.127C106.226 326.718 108.812 319.309 111.397 311.899C116.272 310.99 121.087 309.636 125.762 307.848C133.468 304.895 141.413 300.33 147.85 295.14L148.661 294.485L149.046 294.798C150.907 296.347 155.077 299.321 157.532 300.85C167.026 306.762 177.604 310.641 188.43 312.33L190.342 317.8C194.324 329.034 198.276 340.278 202.197 351.533L202.372 352.034C203.244 354.531 204.587 358.376 205.486 360.892L210.452 374.983L250.047 375.067ZM240.186 299.362C243.421 295.131 245.145 290.319 245.145 285.469C245.145 280.02 243.044 274.831 239.321 271.087C236.961 268.706 234.694 267.344 231.616 266.46C226.79 265.066 222.818 265.856 219.865 268.789C218.679 269.974 217.286 272.252 217.275 273.042C217.275 273.386 217.722 273.791 218.097 273.791C218.357 273.791 218.575 273.635 219.23 272.98C220.686 271.514 222.277 270.796 224.243 270.692C228.61 270.484 232.188 273.552 232.78 278.003C232.937 279.178 232.845 280.935 232.562 282.11C231.907 284.856 229.838 286.977 227.144 287.674C225.095 288.204 220.78 287.362 216.807 285.657C216.563 285.551 216.319 285.444 216.075 285.333C213.607 278.801 211.13 272.271 208.645 265.745C206.637 260.407 204.622 255.07 202.602 249.737C209.546 249.844 234.006 249.858 319.654 249.858C399.222 249.858 439.244 249.896 439.298 249.987C439.35 250.052 439.506 250.117 439.636 250.117C440.767 250.117 443.795 253.341 443.795 254.537C443.795 254.679 443.847 254.834 443.925 254.888C444.001 254.94 444.055 271.292 444.055 303.504C444.055 335.716 444.016 352.067 443.912 352.12C443.836 352.172 443.782 352.329 443.782 352.471C443.782 353.641 440.766 356.891 439.675 356.891C439.534 356.888 439.396 356.934 439.285 357.021C439.194 357.112 405.76 357.167 339.816 357.19L243.291 357.231C241.508 352.501 239.717 347.774 237.919 343.05L237.779 342.678C268.354 342.76 317.317 342.694 318.306 342.478C319.656 342.194 320.889 341.508 321.843 340.511C322.797 339.513 323.426 338.25 323.648 336.888C324.246 333.327 321.621 329.752 317.968 329.167C317.344 329.079 299.73 329.037 265.907 329.037C262.291 329.037 258.925 329.037 255.79 329.037H255.789C245.977 329.036 238.435 329.035 232.624 329.044C231.177 325.227 229.727 321.412 228.274 317.598C227.701 316.076 227.128 314.555 226.554 313.033C246.441 313.06 269.775 312.987 270.599 312.814C271.95 312.531 273.183 311.845 274.137 310.847C275.09 309.849 275.719 308.587 275.942 307.225C276.54 303.65 273.914 300.075 270.261 299.503C269.703 299.422 259.364 299.37 240.186 299.362ZM171.542 263.918C171.307 263.914 171.071 263.912 170.832 263.912C165.342 263.912 160.132 264.91 155.899 266.772C153.632 267.77 151.396 269.257 149.545 270.983L148.64 271.836L147.673 270.921C143.888 267.292 138.855 265.18 131.762 264.213C130.992 264.111 129.601 264.03 128.137 263.984C128.819 262.03 129.501 260.076 130.183 258.122C130.973 255.808 132.185 252.338 133.06 249.83L133.433 248.762C137.724 236.489 142.01 224.214 146.289 211.936L146.894 210.204L146.894 210.203C149.458 202.86 149.703 202.161 149.812 202.161C150.03 202.477 150.193 202.829 150.292 203.201C151.712 207.209 153.107 211.226 154.478 215.251C157.754 224.436 160.977 233.639 164.149 242.861C166.546 249.588 168.911 256.326 171.247 263.074C171.347 263.36 171.445 263.642 171.542 263.918ZM174.055 174.336L172.456 170.119H304.482C394.162 170.119 439.267 170.157 439.321 170.261C439.373 170.326 439.529 170.391 439.659 170.391C440.777 170.391 443.805 173.615 443.805 174.811C443.808 174.935 443.854 175.055 443.935 175.149C444.023 175.214 444.065 181.401 444.065 193.295C444.065 205.176 444.026 211.375 443.935 211.429C443.857 211.481 443.792 211.637 443.792 211.767C443.792 212.209 442.999 213.535 442.232 214.367C441.531 215.121 439.88 216.186 439.412 216.186C439.274 216.191 439.141 216.241 439.035 216.329C438.944 216.421 396.671 216.476 313.074 216.499L190.008 216.54C188.556 212.708 187.107 208.874 185.663 205.039L182.465 196.564C179.681 189.147 176.877 181.738 174.055 174.336Z" fill="white"/><path d="M50.1375 374.969C51.1797 372.246 52.21 369.519 53.2286 366.787L56.3093 358.597C59.5385 350.007 62.7839 341.424 66.0456 332.846C67.382 329.265 68.734 325.691 70.1014 322.122C71.61 318.115 73.122 314.11 74.6374 310.106C71.9249 309.254 69.3792 308.238 67.0273 307.068C60.8917 304.011 57.1375 300.434 54.4858 295.099C51.0228 288.152 51.4701 280.218 55.6714 273.926C58.5104 269.673 62.358 267.083 67.4225 266.023C68.7536 265.742 71.4366 265.763 72.6222 266.065C74.6084 266.574 76.189 267.479 77.5721 268.924C78.8096 270.214 79.8446 271.93 79.9743 272.876C80.0471 273.396 79.7247 273.791 79.2152 273.791C78.9448 273.791 78.7678 273.666 78.2272 273.105C76.5426 271.358 74.6292 270.585 72.2685 270.703C70.9374 270.765 70.0639 271.004 68.868 271.618C66.8609 272.658 65.3423 274.571 64.7706 276.797C64.3962 278.263 64.3962 280.623 64.7706 282.173C65.2906 284.284 66.6529 286.041 68.5664 287.04C70.0951 287.84 71.2286 287.986 73.61 287.674C76.8361 287.249 80.3415 285.96 84.6837 283.546C87.8651 275.144 91.0421 266.741 94.2145 258.336C97.0496 250.775 99.9051 243.223 102.781 235.678C104.812 230.282 106.849 224.887 108.89 219.494C112.208 210.746 115.514 201.994 118.809 193.236C121.931 185.021 125.042 176.801 128.142 168.577C129.735 164.371 131.326 160.164 132.913 155.955C133.004 155.721 133.953 155.695 150.006 155.695H166.996L167.017 155.751C176.425 155.657 212.56 155.642 308.991 155.664C447.327 155.706 453.839 155.718 454.619 155.95C457.739 156.886 460.014 159.381 460.56 162.462C460.859 164.126 460.859 366.599 460.56 368.263C460.27 369.791 459.561 371.208 458.512 372.355C457.463 373.503 456.115 374.337 454.619 374.763C453.839 375.01 449.056 375.023 350.588 375.048C278.297 375.079 256.514 375.077 250.016 374.987L250.047 375.067L210.452 374.983L205.486 360.892C204.587 358.376 203.244 354.531 202.372 352.034L202.197 351.533C198.276 340.278 194.324 329.034 190.342 317.8L188.43 312.33C177.604 310.641 167.026 306.762 157.532 300.85C155.077 299.321 150.907 296.347 149.046 294.798L148.661 294.485L147.85 295.14C141.413 300.33 133.468 304.895 125.762 307.848C121.087 309.636 116.272 310.99 111.397 311.899C108.812 319.309 106.226 326.718 103.639 334.127L100.389 343.408L97.1655 352.69C93.3568 363.583 89.392 374.97 89.392 375.022C89.392 375.045 80.5527 375.045 69.7635 375.045C59.0811 375.045 50.3101 375.022 50.1375 374.969ZM50.1375 374.969C50.1357 374.968 50.1349 374.968 50.1349 374.967L50.1348 374.976L50.1375 374.969ZM240.186 299.362C243.421 295.131 245.145 290.319 245.145 285.469C245.145 280.02 243.044 274.831 239.321 271.087C236.961 268.706 234.694 267.344 231.616 266.46C226.79 265.066 222.818 265.856 219.865 268.789C218.679 269.974 217.286 272.252 217.275 273.042C217.275 273.386 217.722 273.791 218.097 273.791C218.357 273.791 218.575 273.635 219.23 272.98C220.686 271.514 222.277 270.796 224.243 270.692C228.61 270.484 232.188 273.552 232.78 278.003C232.937 279.178 232.845 280.935 232.562 282.11C231.907 284.856 229.838 286.977 227.144 287.674C225.095 288.204 220.78 287.362 216.807 285.657C216.563 285.551 216.319 285.444 216.075 285.333C213.607 278.801 211.13 272.271 208.645 265.745C206.637 260.407 204.622 255.07 202.602 249.737C209.546 249.844 234.006 249.858 319.654 249.858C399.222 249.858 439.244 249.896 439.298 249.987C439.35 250.052 439.506 250.117 439.636 250.117C440.767 250.117 443.795 253.341 443.795 254.537C443.795 254.679 443.847 254.834 443.925 254.888C444.001 254.94 444.055 271.292 444.055 303.504C444.055 335.716 444.016 352.067 443.912 352.12C443.836 352.172 443.782 352.329 443.782 352.471C443.782 353.641 440.766 356.891 439.675 356.891C439.534 356.888 439.396 356.934 439.285 357.021C439.194 357.112 405.76 357.167 339.816 357.19L243.291 357.231C241.508 352.501 239.717 347.774 237.919 343.05L237.779 342.678C268.354 342.76 317.317 342.694 318.306 342.478C319.656 342.194 320.889 341.508 321.843 340.511C322.797 339.513 323.426 338.25 323.648 336.888C324.246 333.327 321.621 329.752 317.968 329.167C317.344 329.079 299.73 329.037 265.907 329.037C262.291 329.037 258.925 329.037 255.79 329.037H255.789C245.977 329.036 238.435 329.035 232.624 329.044C231.177 325.227 229.727 321.412 228.274 317.598C227.701 316.076 227.128 314.555 226.554 313.033C246.441 313.06 269.775 312.987 270.599 312.814C271.95 312.531 273.183 311.845 274.137 310.847C275.09 309.849 275.719 308.587 275.942 307.225C276.54 303.65 273.914 300.075 270.261 299.503C269.703 299.422 259.364 299.37 240.186 299.362ZM171.542 263.918C171.307 263.914 171.071 263.912 170.832 263.912C165.342 263.912 160.132 264.91 155.899 266.772C153.632 267.77 151.396 269.257 149.545 270.983L148.64 271.836L147.673 270.921C143.888 267.292 138.855 265.18 131.762 264.213C130.992 264.111 129.601 264.03 128.137 263.984C128.819 262.03 129.501 260.076 130.183 258.122C130.973 255.808 132.185 252.338 133.06 249.83L133.433 248.762C137.724 236.489 142.01 224.214 146.289 211.936L146.894 210.204L146.894 210.203C149.458 202.86 149.703 202.161 149.812 202.161C150.03 202.477 150.193 202.829 150.292 203.201C151.712 207.209 153.107 211.226 154.478 215.251C157.754 224.436 160.977 233.639 164.149 242.861C166.546 249.588 168.911 256.326 171.247 263.074C171.347 263.36 171.445 263.642 171.542 263.918ZM172.456 170.119L174.055 174.336C176.877 181.738 179.681 189.147 182.465 196.564L185.663 205.039C187.107 208.874 188.556 212.708 190.008 216.54L313.074 216.499C396.671 216.476 438.944 216.421 439.035 216.329C439.141 216.241 439.274 216.191 439.412 216.186C439.88 216.186 441.531 215.121 442.232 214.367C442.999 213.535 443.792 212.209 443.792 211.767C443.792 211.637 443.857 211.481 443.935 211.429C444.026 211.375 444.065 205.176 444.065 193.295C444.065 181.401 444.023 175.214 443.935 175.149C443.854 175.055 443.808 174.935 443.805 174.811C443.805 173.615 440.777 170.391 439.659 170.391C439.529 170.391 439.373 170.326 439.321 170.261C439.267 170.157 394.162 170.119 304.482 170.119H172.456ZM382.481 341.775C382.966 342.173 383.535 342.457 384.144 342.608L384.131 342.605C384.573 342.724 388.967 342.735 404.007 342.735L423.323 342.712L424.025 342.387C424.937 342.009 425.683 341.317 426.131 340.437L426.534 339.657V302.311L426.209 301.648C425.785 300.757 425.057 300.047 424.155 299.646L423.336 299.256H384.209L383.39 299.646C382.486 300.049 381.757 300.765 381.337 301.661L381.012 302.311V339.657L381.337 340.307C381.604 340.875 381.995 341.377 382.481 341.775ZM282.809 310.826C283.75 311.822 284.966 312.514 286.302 312.814C287.68 313.113 316.889 313.113 318.306 312.814C319.656 312.531 320.889 311.845 321.843 310.847C322.797 309.849 323.426 308.587 323.648 307.225C324.246 303.65 321.621 300.075 317.968 299.503C317.383 299.414 311.507 299.36 302.2 299.36H301.513C287.9 299.36 286.365 299.36 285.1 299.946C284.939 300.02 284.782 300.104 284.606 300.199L284.521 300.244C283.296 300.912 282.304 301.939 281.679 303.186C281.054 304.434 280.825 305.843 281.025 307.225C281.248 308.576 281.869 309.83 282.809 310.826Z" stroke="#FDFDFD" stroke-width="0.00231243"/><defs><filter id="filter0_f_338_160" x="50.7224" y="262.462" width="195.873" height="52.2855" filterUnits="userSpaceOnUse" color-interpolation-filters="sRGB"><feFlood flood-opacity="0" result="BackgroundImageFix"/><feBlend mode="normal" in="SourceGraphic" in2="BackgroundImageFix" result="shape"/><feGaussianBlur stdDeviation="0.724269" result="effect1_foregroundBlur_338_160"/></filter></defs></svg>