<svg xmlns="http://www.w3.org/2000/svg" viewBox="0 0 512 512"><path d="M250.7.31a4,4,0,0,1,4.46,1.06Q285.09,31.62,315,61.91c1.5,1.27,2.23,3.62,1,5.32a70,70,0,0,1-5.24,5.38q-89.82,88.72-179.65,177.46a57.35,57.35,0,0,1-4.3,4.09,3.88,3.88,0,0,1-5.15-.62q-30.06-30.39-60.08-60.82a4,4,0,0,1,0-6L246.29,4.24c1.44-1.33,2.66-3,4.41-3.93m131,129.77a3.88,3.88,0,0,1,4.79.85q30.06,30.4,60.08,60.82a4,4,0,0,1,0,6Q352.78,290.4,259,383a4,4,0,0,1-6.05.07Q223,352.85,193.12,322.57c-1.5-1.29-2.25-3.64-1-5.34a64.21,64.21,0,0,1,5-5.09L380.4,131.07a7.72,7.72,0,0,1,1.27-1M76.13,430.23c4.24-2.76,8.07-6.17,12.6-8.45.29,12.2,0,24.41.12,36.61.11,2.73-.39,5.75,1.09,8.21,1,1.64,3,2.15,4.85,2.09,19.22,0,38.46,0,57.68,0,2.55.08,4.09-2.35,4.65-4.53.8-1.94.91-4.44,2.73-5.75,1.6-.42,2.45,1.24,3,2.45,1.11,2.63,1.43,5.95,4.15,7.54,5.49-5.68,10-12.43,16.7-16.83,3.87-2.63,8.63-4.46,13.36-3.49,5,1,8.68,5.88,8.89,10.9.34,3.23-.71,6.32-1.61,9.36,2.63.64,5.35.41,8,.44s5.41.18,8.05-.47a5.29,5.29,0,0,0-.48-2.31c-2.11-3.13-5.1-5.51-7.66-8.23.16-1.68,1.56-2.91,2.39-4.31,2.42-3.38,4.59-6.95,7.19-10.2,6.59,6.74,8.57,16.65,8,25.78-.37,5.72-.89,12.41-5.61,16.36-5.21,4.1-12.27,3.62-18.52,3.54-4.52-.08-7.72-3.86-9.57-7.61-3.63,4.55-9.41,6.73-15.07,7.18-6.94.63-14.52-.5-20-5.07-1.91,2.9-4.82,5.7-8.55,5.54-19.92,0-39.84.07-59.77,0-5,0-10.71-.66-14.22-4.68-4-4.41-4-10.73-4-16.33-.25-11.22-.62-22.46-1.75-33.64-.35-2.15,2-2.95,3.37-4m107.71,32.18c-4.1,1.89-7.51,4.94-10.71,8.07,6.05.07,12.27.17,18.07-1.8,1.15-.47,2.52-.89,3.15-2A4.46,4.46,0,0,0,192,462a10,10,0,0,0-8.11.43m53-26c4.66-4.77,8.8-10.07,13.75-14.54,3,11.34,3,23.22,3,34.87-.09,5.28.33,10.61-.61,15.83a58.57,58.57,0,0,1-3.09,12.17c-.73,1.58-1.53,3.29-3,4.28-1.19.56-2.19-.44-2.66-1.45-1.36-2.7-1.75-5.76-2.37-8.69-2.4-13.12-4.34-26.31-6.36-39.49-.46-1.27.65-2.14,1.38-3m209.54-9.85c2.4-1.64,4.65-3.56,7.33-4.75.36,13.84-.07,27.69.22,41.53,0,2.65,1.9,5.33,4.73,5.34,4.17.07,8.41.44,12.53-.37.19-2.29-1.65-3.85-3-5.41-1.63-1.81-3.51-3.35-5.14-5.14.2-1.67,1.57-2.9,2.41-4.29,2.43-3.36,4.56-6.95,7.2-10.17,4.67,4.78,7.14,11.38,7.81,18a56.68,56.68,0,0,1-.75,15.33c-.75,3.82-2.53,7.72-6,9.75-5.34,3.25-11.84,2.57-17.8,2.57-4.87,0-10.23-1.4-13.19-5.55-3.39-4.57-3.21-10.55-3.21-16-.27-11-.63-22.08-1.75-33.07a2.21,2.21,0,0,1,.79-2.16c2.54-2,5.24-3.7,7.85-5.58M210.8,429.92a76.17,76.17,0,0,1,7.1-7.16,97.18,97.18,0,0,1,7.39,7.11A57.11,57.11,0,0,1,218,437c-2.48-2.3-5-4.59-7.24-7.12m202.46,0a72.26,72.26,0,0,1,6.89-7.11,92.66,92.66,0,0,1,7.59,7.11c-2.27,2.53-4.75,4.84-7.23,7.15a53.26,53.26,0,0,1-7.25-7.15m-97.52,5.4c11.57-3.82,23.12-7.72,34.73-11.43-.43,5.67-1,11.34-1.69,17-7,2.48-14,4.76-21,7.24q6.12,7.1,12.34,14.1c3.15,3.44,7.37,6.4,12.19,6.52q33.87-.09,67.75,0c1.1,0,3.21-.28,2.67-1.87-2-3.77-5.57-6.31-8.34-9.45,3.16-4.77,6.36-9.55,9.76-14.15,6,5.93,8.27,14.73,8.08,23-.11,5.65-.35,11.7-3.39,16.65-3.21,4.85-9.49,6-14.91,6.06-19.62.08-39.23,0-58.84,0-7.31.27-13.55-4.68-18.1-9.93a19,19,0,0,1-10.42,9c-7.73,2.75-16.06,2-24.1,2.13-6.08-.18-12.47-.72-17.87-3.78A16,16,0,0,1,277,475.46a31.23,31.23,0,0,1,1.54-16.9,8.17,8.17,0,0,1,2.8-4.1,2.24,2.24,0,0,1,3.26,1.11c.84,2.65.1,5.59,1.27,8.18,1,2.54,3.49,4,5.93,4.79,5.42,1.75,11.19,1.63,16.82,1.61s11.42-.06,16.93-1.48a1.15,1.15,0,0,0,.67-2.07c-4.53-5.41-9.49-10.43-14.35-15.55.74-4.34,1.5-8.69,2.22-13,.2-1.09.28-2.52,1.64-2.72m-259.4,24a25.63,25.63,0,0,1,10.43,17.52c1.37,10.7.61,22.54-6,31.54-1.24,1.49-2.43,3.65-4.64,3.59-6.92,0-13.82,0-20.73,0-1.29,0-2.84-.07-3.63-1.25-.76-1.34-.59-3.43,1-4.1A134.2,134.2,0,0,0,52,494.53c2.27-1.82,4.67-3.64,6.18-6.16.93-1.44-.07-3-.93-4.17a73.52,73.52,0,0,0-8.67-9.15c2.58-5.24,4.95-10.6,7.75-15.73m407.23,43.21c1.86-2.68,4.43-4.84,6.82-7,2.87,1.88,5.15,4.58,7.61,7-2.36,2.34-4.62,4.81-7.14,7a50.61,50.61,0,0,1-7.29-6.9Z" style="fill:#c6393b"/><path d="M123.79,61.55c19.62,0,39.25,0,58.87,0q-29.39,29.07-58.84,58.08c-.07-19.36,0-38.74,0-58.1m194.69,0c24.23,0,45.46,0,69.7,0,0,23.41,0,43.82,0,67.23-1.52-1.42-2-3-4.17-3.49-2.71-.71-6.68,3.22-8.59,5.23q-8.31,8.21-16.61,16.42c-.58.84-1.65.72-2.53.73q-58,0-115.92,0,36.15-35.75,72.33-71.45c2.11-2.19,7-6.18,7.35-9.44.52-2.69.24-3.29-1.53-5.23M131,255.61c4.95-4.77,9.69-9.79,14.77-14.41,39.18-.12,78.37,0,117.55,0q-38,37.64-76.07,75.2c-3,2.94-2.58,7.86,0,10.91-21.17,0-42.34,0-63.51,0q0-32.65,0-65.32c-.2-.95.85-1.12,1.47-1.43,2.37-1,3.9-3.2,5.76-4.89m190,71.64Q354.6,294.15,388.14,261c.08,22.09,0,44.18,0,66.26Z" style="fill:#ffcc29"/></svg>