<svg xmlns="http://www.w3.org/2000/svg" viewBox="0 0 512 512"><path d="M312.44,0c19.27,13.19,35.43,32.32,41.3,55.27,6.22,26.92-.32,56.12-16.17,78.58a115.23,115.23,0,0,1-17.79,18.68c-19.81,17-43.52,29-61.86,47.75-7.92,8.3-15.28,17.52-19.38,28.35-6.22,15.85-6.12,34.38,1.56,49.71-20.65-15-34.92-38.63-38-64a69.06,69.06,0,0,1,.15-20.2c2.81-17.76,9.77-35.06,21.24-49a111.86,111.86,0,0,1,15.9-15.78c12.09-9.73,25.93-16.89,39-25.11C293,94.24,305.61,80.89,313.62,65a74.65,74.65,0,0,0,8-39.55c-1-9.07-5.26-17.3-9.14-25.43M290.11,229.2c17.52-4.24,36.22,10.15,37.82,27.83.43,7.2-.7,14.76-4.73,20.89-6.27,10-18.37,16.42-30.23,14.75a28.93,28.93,0,0,1-15.71-5.86C267,279,261.72,264.84,265,252.26c3-11.73,13.48-20.51,25.11-23.06Z" style="fill:#be9c39"/><path d="M299.51,184.79c5-2,10.55-3.14,15.91-2,10.26,2,18.75,8.81,28.84,11.36a27.76,27.76,0,0,0,13.13.18c5.74-1.65,9.53-6.57,13.31-10.85-2.62,8.87-5.74,18.69-13.82,24.11a30.85,30.85,0,0,1-21.28,3.74c-10.45-1.94-19.52-7.86-29.53-11.11-8.11-2.26-16.27,1.22-23.56,4.53,3.1-8.31,8.62-16.33,17-20m38.37,31.09a35.07,35.07,0,0,1,24.54.28,33.68,33.68,0,0,1,18.11,17.67c3.75,8.56,4.7,18.06,4.73,27.32.28,10,3.4,20.43,10.63,27.63,4.37,3.53,9.82,5.27,14.78,7.79-12.1,4.61-27.15,3.47-36.93-5.59-4.29-4.41-8.25-9.38-10.27-15.26-4.64-13.07-2.55-27.44-7-40.55-1.52-4.26-3.58-8.5-7-11.56s-7.65-5.25-11.57-7.73M139.86,227c24-5.32,50.2,4.39,66,23,9.49,11.31,16.39,24.45,24.89,36.47,6.18,8.77,13.44,17,22.65,22.73,3.74,2.13,7.45,4.48,11.6,5.73,9.26,2.82,19.06,1.37,28.45.09-8.46,9.1-19,16.45-30.88,20.28a61.11,61.11,0,0,1-29.87,1.81c-13.08-2.55-24.85-9.84-34.21-19.15a97.69,97.69,0,0,1-16.55-22.15c-6-10.58-11.5-21.87-20.65-30.2-10.21-9.92-23.87-16.81-38.25-17.24a40.63,40.63,0,0,0-21.68,5.54c10.12-12.14,23-22.9,38.53-26.93m217.6,44.16a59.92,59.92,0,0,1,8.78,37.52,50.79,50.79,0,0,1-12.73,27.89c-11.24,12.4-27.49,18.9-43.62,22-11.33,2.48-22.41,7.12-31.21,14.79a49.41,49.41,0,0,0-12.13,16.16c-2.86,6.71-2.48,14.16-3.42,21.27-6.41-10.63-11.93-22.56-11.44-35.25,1.08-21.53,16.06-41.14,35.83-49.23,13-5.21,26.9-8.15,39.71-14,9-4.05,17.43-9.93,23.42-17.9,4.77-6.77,5.81-15.24,6.81-23.24" style="fill:#031c45"/><path d="M401.36,420.15a57.67,57.67,0,0,0,10.81,2.24c3.46.39,6.5-1.78,9.86-2.07.93.29.69,1.52.42,2.21-.88,1.72-2.71,2.68-4.38,3.49a27.55,27.55,0,0,1-8.6,2.47c-2.7.25-5.2-1.12-7.87-1.24-1.37.31-1.86,2-3.1,2.59-1.6.18-1.69-1.9-1.35-3a17.06,17.06,0,0,1,4.21-6.7M144.43,439.34a95.11,95.11,0,0,1,9.26-7.5c.21,11.56,0,23.13.09,34.7.07,2.32-.26,4.73.54,7a5.6,5.6,0,0,0,4.93,3.26H331.72a7.63,7.63,0,0,0,3.31-.66c.83-.66.51-1.88.58-2.8a12.44,12.44,0,0,1,4.19-9.61,10.38,10.38,0,0,1,13.07-.63c3.11,2.48,4.67,6.39,5.43,10.19.51,3.22.91,6.66-.21,9.79a9.54,9.54,0,0,1-9.66,6.08c-4.2.05-7.72-2.86-9.84-6.26-1.64,3.17-4.85,5.59-8.54,5.38q-85.65,0-171.32,0a10.9,10.9,0,0,1-9.77-5.13c-2.35-3.7-2.37-8.24-2.37-12.46-.28-10.47-1-20.94-2.16-31.33m201.51,27.37a3.13,3.13,0,0,0-1.85,3,14.7,14.7,0,0,0,2.36,8.72c.86,1.36,2.26,2.68,4,2.52a2.83,2.83,0,0,0,2.62-2.4c.83-3.49-.7-7-2.7-9.84-1-1.37-2.68-2.56-4.43-2m66.7-33.63a4.83,4.83,0,0,1,1.86-1c.08,15,0,29.91.05,44.88.26,4-1.54,7.73-3.1,11.32a4.67,4.67,0,0,1-1.74,2.35,57.51,57.51,0,0,1-1.11-8.87c-1.25-14.07-2.54-28.13-3.77-42.2,2.62-2.14,5.21-4.33,7.81-6.5M106.08,462.21q3-3,6.07-6.07c2,2,4,4,6,6-2,2.12-4.06,4.12-6.11,6.16-2-2-4-4.08-6-6.07m277.62,3.25a9.76,9.76,0,0,1,1,.68,26.15,26.15,0,0,1,8,19.19,29.74,29.74,0,0,1-8.48,21.28c-1.17,1-2.22,2.74-4,2.57-5.95-.1-12.12-.28-17.69-2.61a27,27,0,0,1,4.47-2.05,56.64,56.64,0,0,0,14.05-8.95,18.9,18.9,0,0,0,5.46-7.08,5.69,5.69,0,0,0-.3-4.93,30.45,30.45,0,0,0-7.14-8.4c1.51-3.25,3.05-6.47,4.58-9.7m-256.12,2a6.07,6.07,0,0,1,1.25,1.23c4.36,6.41,7.77,13.91,7.53,21.81,0,5.54-1.42,11.49-5.55,15.44s-10.26,5.22-15.88,5.77c-5.51.38-11.34.71-16.51-1.63a15.35,15.35,0,0,1-8.87-11.77c-.85-4.89.65-9.74,2.12-14.35.81-2.27,1.59-4.71,3.35-6.45a1.84,1.84,0,0,1,2.88.15c.9,1.84-.19,3.82-.7,5.61-1.33,3.65-2.46,7.82-.73,11.54,1.5,3.49,5.38,5.07,8.92,5.54a48.91,48.91,0,0,0,16.54-.7c3.11-.78,6.58-1.71,8.6-4.41,1.47-2,.83-4.6-.22-6.6a44.86,44.86,0,0,0-7.71-11.05c1.7-3.36,3.28-6.77,5-10.13Z" style="fill:#960000"/><path d="M206.46,424.19c1.33-1.13,2.67-2.23,4-3.28.08,5.62,0,11.25.06,16.88a2.43,2.43,0,0,0,2.47,2.6c2,.1,4.29.33,6.14-.7,1.54-.91,1-3.11,2.25-4.19,1.83.7.76,3.66,2.69,4.45s4.15.5,6.21.44c1.61,0,3.41-.87,3.63-2.63.25-.82.59-3,1.82-1.85.6,1.46.48,3.65,2.3,4.22,2.48.65,5.08.2,7.62.37-1-1.41-1.76-3.28-.91-5a10.39,10.39,0,0,1,5.91-5.44c3.16-.91,6.1,1.78,6.91,4.67-2.74-.66-5.68-1.46-8.45-.46-.85.28-2,.88-1.75,1.95a5.13,5.13,0,0,0,4.29,3.26,44.49,44.49,0,0,0,7.39-.29c-.79,1.49-1.58,3-2.39,4.46-5.54.09-10.92,1.88-16.46,1.72a6.48,6.48,0,0,1-5.06-2.63c-2,3.1-5.9,2.77-9.07,2.58a6.39,6.39,0,0,1-4.51-2.58,5.87,5.87,0,0,1-4.29,2.57,25.36,25.36,0,0,1-6.4-.2c-2.19-.68-3.37-3-3.42-5.22-.2-5.25-.41-10.51-1-15.74" style="fill:#031c45"/><path d="M262.1,424.25c1.36-1.15,2.7-2.34,4.16-3.35,0,6.84.07,13.69,0,20.53-.32,1.73-.81,3.66-2.17,4.88-.79-7.34-1.33-14.71-2-22.06" style="fill:#031c45"/><path d="M229,430.31c.76-.87,1.56-1.7,2.38-2.51l2.42,2.38-2.36,2.47c-.8-.8-1.61-1.58-2.44-2.34" style="fill:#031c45"/><path d="M234.23,430.16l2.39-2.35,2.4,2.37c-.79.85-1.59,1.68-2.42,2.48l-2.37-2.5" style="fill:#031c45"/><path d="M343.06,432.66c-.78,1.09-1.52,2.22-2.23,3.35a12,12,0,0,1,1.6,2.83c0,1.86-2.5,1.91-3.78,1.38-1.67-.79-1.07-3.12-2.25-4.31-1.87.41-1.14,3.06-2.55,4s-3.78.62-4.12-1.18c-.5-.92-.31-2.9-1.76-2.78-1.15,1.25-.7,3.77-2.67,4.28a21.11,21.11,0,0,1-6.59,0c-2-.56-1.27-3.26-2.7-4.4-1.69.74-1.12,3.12-2.48,4.17-1.35.89-3.77.41-4-1.4-.42-.87-.21-2.34-1.31-2.67-1.62.67-.94,3.22-2.45,4.11a3.31,3.31,0,0,1-3.36-.14c-1.14-1.12-.64-3.17-2.06-4.06-1.65.92-.86,3.64-2.77,4.35a18.39,18.39,0,0,1-5.64.18c-1.48,0-2-1.62-2.29-2.8-.68-3.15-1.16-6.35-1.94-9.48q-1.44,1.56-2.8,3.19c.15.45.46,1.32.61,1.76a18.7,18.7,0,0,0-5.74,3.52,7.53,7.53,0,0,0-1.3,4.84c1.71,2.18,4.93,1.72,7.4,1.95.51-.84,1-1.67,1.52-2.51.74,1.9,1.8,4.33,4.15,4.5,3.07.15,6.92.62,8.87-2.36,1,1.3,2.33,2.58,4.1,2.39,1.61,0,2.71-1.25,3.6-2.41.93,1.16,2.05,2.48,3.71,2.41,1.75.18,3.08-1.12,4-2.41.89,1,1.87,2.27,3.37,2.36,3.14.14,7.18.74,9.18-2.36.95,1.19,2.12,2.49,3.8,2.41,1.73.18,3-1.16,3.9-2.42.95,1.26,2.23,2.57,4,2.42,2.72.1,4.26-2.67,4.69-5A9.67,9.67,0,0,0,343.06,432.66Zm-61.8,5.65a16.09,16.09,0,0,1,4.79-2.79c.35,1.26.69,2.52,1,3.78A13.62,13.62,0,0,1,281.26,438.31Z" style="fill:#031c45"/><path d="M180.69,433.61a4.48,4.48,0,0,1,5.42-.71,5.53,5.53,0,0,1,2.23,4.23c-2.37-.77-5.23-1.19-7.38.38-.94.72-2.08,1.62-2.08,2.93,2,2.34,6.2.5,7.88,3.26a7.92,7.92,0,0,1-3.08,9.13c-3.05,1.94-6.81,2.23-10.34,2.11-2.53-.07-5.34-.8-6.87-3s-1.39-5.39-.61-8c.52-1.57.88-3.4,2.3-4.43,1.31,0,1,1.35.73,2.2-.54,1.81-1.42,3.82-.48,5.66s3.39,2.57,5.43,2.7a23.06,23.06,0,0,0,9.54-1.3c.76-.33,1.9-1.13,1.39-2.07-2.26-1.24-5.22-.43-7.35-2-1.58-1.23-1.22-3.52-.64-5.17a15.55,15.55,0,0,1,3.91-6" style="fill:#031c45"/><path d="M374.14,435a4.5,4.5,0,0,0-6.82.29c-1.26,1.3-1.2,3.16-1.44,4.83-2,.55-4,.28-6,.33-.5-2-1.07-4.27-2.75-5.7a3.39,3.39,0,0,0-4.72.22,11.38,11.38,0,0,0-2.62,6c-.22,1.4.16,3.14,1.6,3.77,2,.79,4.25.49,6.37.61a8.33,8.33,0,0,1-1.65,2.74,26.5,26.5,0,0,1-9,5.84A18.14,18.14,0,0,0,355.2,455c3.05-2.1,4.4-5.93,4.71-9.51,1.73-.57,3.87.29,5.62-.55a7.07,7.07,0,0,0,1.84-1.78c1.07,1.44,2.63,2.76,4.55,2.57A4.08,4.08,0,0,0,376,442,9.67,9.67,0,0,0,374.14,435Zm-21.84,4.83a1.5,1.5,0,0,1,1.81-1.8,4.78,4.78,0,0,1,2.91,2.4C355.48,440.42,353.47,441.18,352.3,439.84Zm21.23,1.59c-.47,1.2-2.09.84-2.63-.11-.92-1.38-1.67-3.35-.85-4.91.41-.74,1.6-.46,2.05.13A5.38,5.38,0,0,1,373.53,441.43Z" style="fill:#031c45"/><path d="M197,439.66c.66-1.4,1.31-2.79,2-4.18,5.11,4,5,12.2,1.07,17-.75.77-1.4,2-2.6,2a21.8,21.8,0,0,1-7.69-1.07c3.78-1.76,7.88-3.68,10.18-7.33,1.4-2.55-1.36-4.71-2.93-6.37" style="fill:#031c45"/><path d="M220,448.8c.9.86,1.8,1.72,2.68,2.59L220,454l-2.62-2.63,2.59-2.6Z" style="fill:#031c45"/></svg>