<svg xmlns="http://www.w3.org/2000/svg" viewBox="0 0 512 512"><path d="M109.61,0H401.68c5,2.35,10.11,4.64,14.95,7.36,7.93,4.53,13.34,12.51,16.5,20.93,3.59,9.56,2.5,20,2.65,29.94q0,129.63,0,259.26c0,15.41-7.44,32-22.09,38.59-10.24,5.37-22.08,4.24-33.22,4.32q-113.67-.12-227.3,0c-15.27.19-30.71,1.8-45.86-1-17.48-4.64-31.5-21.54-30.9-40-.17-92.11.06-184.23-.09-276.34C76.22,34.94,78.16,26.62,83,20,89.43,10.56,99.57,4.79,109.61,0m-2.33,16C93.94,22.81,85.86,37.7,86.22,52.52c.15,47.64,0,95.3,0,142.94,5.08-6.91,8.7-14.69,13.17-22,10.13-16.23,22-31.69,37.1-43.58,19.82-16.17,46.5-24.23,71.9-19.65,20.4,5.11,38.84,15.56,57.44,25,25.53,13.64,50.65,28.41,77.87,38.49,15.38,5,32.61,9.57,48.31,3.27,14.19-5.28,22.94-19.21,27.05-33.15,3.22-12,6.18-24.24,6-36.75q.09-29.19,0-58.4c.15-19.5-17.49-37.27-37-37.08q-125,.19-250,0c-10.35.13-21.55-1.31-30.86,4.29M409.36,194.13c-11.23,17.68-25.66,33.66-43.52,44.8-18.37,11.08-40.77,16.48-62,12.44C280.89,246,260.43,234,239.66,223.45c-29-15.23-57.79-32.63-90.27-39.33-15.42-3.55-33.55-.29-44.24,12.13-12.45,13.79-15.34,33-18.44,50.68-1.06,20.39-.06,40.82-.51,61.24-.81,15.8,8.47,31.81,23,38.42,9,4.49,19.29,3.16,29,3.27q118.35,0,236.7,0c8.34-.15,17,.73,25-2,15.23-5.56,26.3-21.49,25.36-37.84-.23-47.09.32-94.19-.26-141.28-5.94,8-9.88,17.22-15.6,25.36Z" style="fill:#cf9d2a"/><path d="M247.23,397.76c2.53-1,4.8-2.54,7.38-3.42-1,4.12-1.5,9.55-6,11.39-7.05,3.34-15,.69-22.39.23-1.43,2.16-2.76,4.38-4.15,6.57a16.49,16.49,0,0,1-5.12-8c.9-3.31,2.14-7.31,5.83-8.38,4.24-1,8.44.79,12.6,1.41a36.39,36.39,0,0,0,11.87.23m76.16,17c13-5.1,26.08-10.12,39.56-13.77-.49,3.92-2.91,7.16-4.62,10.61-.87,1.36-1.49,3.23-3.25,3.66-13,4.07-26.3,7.87-38.43,14.23,11.39,12.82,24.77,23.69,37.17,35.5A29.57,29.57,0,0,0,375.28,473c5,.05,9.74-1.47,14.6-2.29.63-6.75-5.59-11.88-7.08-18.17,2.6-4.31,5.05-8.8,8.53-12.5,5,8.18,9.74,17.52,8.6,27.39-.83,7.61-5,15.21-11.92,18.8-9.08,4.54-20,4.46-29.45,1-8.22-3.79-12.1-12.49-18-18.77a24.37,24.37,0,0,1-17.73,18.34,94.92,94.92,0,0,1-42.64,1.08c-7.38-1.32-14.37-6.1-17.07-13.27-3.8-9-1.33-19,1.43-28,1.29-1.18,3.12.31,4.63.31-.09,4.76-1.42,9.68.39,14.28,1.88,5.89,8,9.17,13.73,10.44,10.77,2.88,22.13,2.26,33,0a51.57,51.57,0,0,0,15.68-5c-4.9-10.95-14.67-18.51-22.69-27.05a19.4,19.4,0,0,1,.39-15.81c2.77-5.2,8.73-6.91,13.78-9M403,417.46c3.17-3.3,6-7.3,10.37-9.13,2.51,18,1.5,36.13,1.64,54.2-.08,3.58.84,8.23,4.92,9.19,8.11,1.95,16.72.9,24.74-1,2-.43.75-2.66.4-3.86-1.7-4.46-4.4-8.45-6.38-12.77-.84-1.47.38-2.92,1.07-4.15,2-3,3.83-6.12,6.05-9q1.5-1,2.19.69c4.62,8.51,8.34,18.08,7.18,27.94-.69,7.91-6,15.82-14,17.8-8.29,2.25-17.61,3.39-25.7-.15-4.67-1.87-7.24-6.61-8.55-11.2-1.38-6.08-1.24-12.35-1.42-18.54,0-13.39-1.61-26.71-2.53-40.06m-165.27-7.62c1.33-1.6,3.4-.28,2.86,1.65,1,9,1.18,18,1.49,27a210.13,210.13,0,0,1-.06,26.08c-.32,5.38,0,11.11-2.63,16a29.67,29.67,0,0,1-6.91,8.81,2.79,2.79,0,0,1-1.05-2.93c.51-7.31.84-14.63,1.06-22-.7-10.34-.38-20.73-1.63-31-.4-4.91-1.46-9.79-1.36-14.72,2.27-3.33,5.35-6.09,8.23-8.9m-100.17,16.8,2.05.22c2.82,11.33,5.15,22.77,7.12,34.28.87,3.32,2.17,6.83,4.86,9.09,6,4,14.08,3,20.23-.13,4.07-2.43,4.82-7.42,6.76-11.33,1.74-2.22,4.41-3.47,7-4.46-1,5.38-3,12.81,2.91,16.11,9,4.25,19.45,2.32,28.7-.18-.84-6.27-5.08-11.27-7.6-16.88,1.94-4.92,5.24-9.39,8.71-13.4,4.95,8.61,10,18.32,8.14,28.58-.9,7.1-4.16,14.93-11.08,18-8.86,3.51-19.08,4.57-28.08,1a19.32,19.32,0,0,1-9.11-6.88c-3.5,3.65-7.55,7-12.62,8.15-7,2.15-15.31.22-20.24-5.3-2-2.24-3.12-5.1-4.38-7.79a17.47,17.47,0,0,1-12.44,12.18c-6.3,1.81-14.22,2.76-19.36-2.23-5.6-6.06-4.58-15-4.34-22.57,1.74-.14,3.48-.32,5.22-.52.76,3.36,1.48,7.63,5.2,9,7.25,3,15.66,0,21.69-4.41.71-10.24-3.79-19.85-6.41-29.52,1.58-4.07,4.56-7.44,7.08-11m-70.19,15c3.39-3.52,1.45-8.93,3.83-12.91,4.26,2.18,7.73,5.54,11.6,8.31,6.63,5.09,13.59,11,15.67,19.48,1.21,8.27-.07,17.25-5,24.14-6.77,9.23-21.63,11.83-30.57,4.29-5.24-4.53-6.7-11.85-6.18-18.48.16-9.33,5-17.77,10.69-24.83m-2.84,20.1c-1.11,4.78,3,9,7.4,10,6.74,1.78,15.31-.14,19.27-6.26-2.32-8-10-12.6-16.83-16.51-4,3.58-8.17,7.5-9.84,12.73m87.65-7.37c1-3.93,4.5-7.11,7-10.37,3.79,2.88,8.36,5.39,10.88,9.49-1.6,3.33-3.57,6.88-6.78,8.86-4-2-7.32-5.44-11.06-8m209.15,0c1.15-4,4.45-7,6.87-10.34a69.64,69.64,0,0,1,11.14,8.76c-1.09,3.85-3.83,6.82-6.38,9.78-4.32-2-7.74-5.51-11.63-8.2m-168.84,38c2.83,2.06,5.11,4.74,7.62,7.17,2.16-2.37,4.39-4.68,6.53-7.07,3.13,1.65,5.28,4.55,7.64,7.08.8,1.06,2.15,2.15,1.67,3.66a31.58,31.58,0,0,1-7.61,7.56c-2.33-2.33-4.68-4.64-7.07-6.89-2.23,2.42-4.61,4.67-7,6.88-3.65-2.82-6.45-6.53-9.93-9.52,2.48-3.18,5.46-5.91,8.19-8.87M423,502.41a68.57,68.57,0,0,1,7.25-10.15,76.07,76.07,0,0,1,11.25,9.24,33.09,33.09,0,0,1-7.06,9.69c-3.78-3-7.71-5.76-11.44-8.78" style="fill:#522d1d"/><path d="M107.28,16c9.31-5.6,20.51-4.16,30.86-4.29q125,0,250,0c19.55-.19,37.19,17.58,37,37.08q.09,29.22,0,58.4c.15,12.51-2.81,24.76-6,36.75C415,157.82,406.25,171.75,392.06,177c-15.7,6.3-32.93,1.68-48.31-3.27-27.22-10.08-52.34-24.85-77.87-38.49-18.6-9.46-37-19.91-57.44-25-25.4-4.58-52.08,3.48-71.9,19.65-15.14,11.89-27,27.35-37.1,43.58-4.47,7.29-8.09,15.07-13.17,22,0-47.64.1-95.3,0-142.94C85.86,37.7,93.94,22.81,107.28,16" style="fill:#522d1d"/><path d="M409.36,194.13c5.72-8.14,9.66-17.38,15.6-25.36.58,47.09,0,94.19.26,141.28.94,16.35-10.13,32.28-25.36,37.84-8.06,2.72-16.68,1.84-25,2q-118.35-.06-236.7,0c-9.69-.11-20,1.22-29-3.27C94.67,340,85.39,324,86.2,308.17c.45-20.42-.55-40.85.51-61.24,3.1-17.64,6-36.89,18.44-50.68,10.69-12.42,28.82-15.68,44.24-12.13,32.48,6.7,61.24,24.1,90.27,39.33C260.43,234,280.89,246,303.81,251.37c21.26,4,43.66-1.36,62-12.44,17.86-11.14,32.29-27.12,43.52-44.8" style="fill:#522d1d"/></svg>