<svg xmlns="http://www.w3.org/2000/svg" viewBox="0 0 512 512"><path d="M327.15,71.87c21.08-11.75,45.89-19.6,70.13-15.29,0,9.82.43,71.89.43,71.89-1.83,1.39-4.34.88-6.46,1.39-16.73,3.07-32.51,9.9-47.31,18.11-29.18,16.52-54.6,38.93-77.21,63.51-27.71,31.25-57,61.82-92.25,84.7C149.9,312.12,121,323.24,91.3,321.57a110.37,110.37,0,0,1-64.49-28.81A83.89,83.89,0,0,1,.62,236a64.92,64.92,0,0,1-.13-16.76c1.65-20.79,8-42.15,22.57-57.67,19.37-21.28,49.27-29.85,77.33-29.45,39,1,75,19.46,105.51,42.56,2.39.87.55,3.3-.35,4.52-4.7,7.08-9.15,14.32-13.9,21.36-22.94-15.89-48.21-29.5-75.89-34.71-16.55-3-34.43-2.7-49.65,5.21-19.09,9.75-30.95,30.2-33.54,51.07a46.44,46.44,0,0,0,4.36,27c8.67,18.42,26,33.34,46.41,36.52,8.45,1.49,17,.26,25.35-1.49A128.61,128.61,0,0,0,154.26,267c15.15-9.35,28.18-21.76,39.79-35.18,17.67-20.64,32.22-43.73,45.75-67.24C261.82,128.05,289.75,93.48,327.15,71.87Z" style="fill:#008a9f"/><path d="M397.31,131.22c25-2,51.55.65,73.13,14.39,22.11,13.67,36.18,37.94,40.45,63.25,1.68,6.85.95,13.74.95,20.83-1.86,24.79-11.38,49.86-29.8,67.09-15.92,15.09-37.6,22.79-59.2,24.62-20.18,1.3-40.19-3.91-58.78-11.39-37.08-15.34-70.2-38.92-100.35-65.12l-.35-1.23c7.22-7.79,14.62-15.41,22.12-22.9,3.77,2.43,8.38,6.8,12.71,9.87,21.89,16.9,44.79,32.76,69.61,45.08,9.3,4.28,18.87,8.65,29.13,9.92a52,52,0,0,0,27.59-9.55c14.74-10.8,19.78-32.77,11.69-49-7.66-14.53-23.92-21.27-39-25C397.16,197.2,397.31,134.57,397.31,131.22Z" style="fill:#008a9f"/><path d="M382.82,421.3v12h37.23c5.11,0,15.18-5.66,15.18-16.91V400.64H423.87V413.8c.2,3.89-4.09,7.5-9.28,7.5Z" style="fill:#4b4b4b"/><circle cx="410.09" cy="448.16" r="8.45" style="fill:#4b4b4b"/><circle cx="345.82" cy="396.75" r="8.45" style="fill:#4b4b4b"/><rect x="382.82" y="359.12" width="13.09" height="57.27" style="fill:#4b4b4b"/><path d="M373.82,401.94v18.41c-.68,6.81-7.29,11.89-12.68,11.86H333.46L302,400.37a5.49,5.49,0,0,1-.07-6.55c.28-.34,33.68-34.7,33.68-34.7h16.3L315.39,397.3l23.52,24.61,17.39-.06c4.77,0,7.84-3.41,7.84-6.21V401.87Z" style="fill:#4b4b4b"/><path d="M314.64,421.44l10.91,11.86H244.82c-5,0-14.18-6-14.18-14.59V402.07h10.64v13.09c0,3.75,2.18,6.55,6,6.55Z" style="fill:#4b4b4b"/><path d="M169.64,421.8l-8.18,11.5h54.18s2.15-3.82,1.91-11.5Z" style="fill:#4b4b4b"/><path d="M128.91,361.8c-6.75.32-13.64,6.25-13.64,12.55V386s10.48.14,11,0c1.65-.43-2.17-13.55,6.27-13.23l14.94-.06V361.8Z" style="fill:#4b4b4b"/><path d="M146.78,392.4c5.17,0,17.45,4.22,17.45,18.4,0,24.55-16.77,23.05-16.77,23.05H93.73c-8.79,0-16-7-15.82-12.05l-.82-35.14H87.73s0,24,0,25.23c.06,4.64,1.7,9.82,7.23,9.91,1.52,0,49.35.41,51.13,0s7.51-2,7.37-8.68-3-8.72-6.68-8.87c-1.78-.06-31.73,0-31.73,0l.09-11.81Z" style="fill:#4b4b4b"/><path d="M170,375.69h9.82c11,0,37.63,5.31,37.63,31.5v10.63H204.75v-8.27c0-9.32-6.68-21.45-25.36-21.45H170Z" style="fill:#4b4b4b"/></svg>