<svg xmlns="http://www.w3.org/2000/svg" viewBox="0 0 512 512"><path d="M126.12.41a75.67,75.67,0,0,1,62.75,28.05c14.91,18,20.3,43.19,14.56,65.79A75.56,75.56,0,0,1,63.31,111.31,75.62,75.62,0,0,1,126.12.41m142,3.37A36.24,36.24,0,0,1,270.28,0Q234.9,163.71,199.42,327.42c-4.91,22.45-9.66,44.93-14.65,67.36q-62.43,0-124.88,0,104.24-195.45,208.22-391M283.77.25c14.63,0,29.27,0,43.9,0q-36,166-71.91,332c-4.45,20.84-9.1,41.66-13.47,62.53-14.66,0-29.32,0-44,0Q241.06,197.52,283.77.25m57.88,0q62.44,0,124.9,0Q361.43,197.7,256.34,395.13c1.77-9.83,4.17-19.54,6.2-29.31Q302.06,183,341.65.26m3.86,265.83a75.22,75.22,0,0,1,102.41-4.78,75.58,75.58,0,1,1-113.83,96.11,75.42,75.42,0,0,1,11.42-91.33M321,437.37a60.39,60.39,0,0,1,5.23-5.5,61,61,0,0,1,5,4.56c1.5-1.43,2.79-3.07,4.41-4.37.72-.08,1.12.69,1.65,1.07,1.44,1.39,2.91,2.74,4.22,4.25-1.79,1.81-3.61,3.6-5.48,5.32-1.69-1.41-3.19-3-4.75-4.57-1.54,1.54-3.12,3-4.67,4.57-2-1.67-3.76-3.51-5.57-5.33m-129.5-1.2a6.47,6.47,0,0,1,2.36-1.07c.08,11.46,0,22.93,0,34.4,0,1.75.29,3.78,1.81,4.9,1.1.87,2.57.84,3.89.85,15.94,0,31.87,0,47.8,0a4.62,4.62,0,0,0,3.86-1.36c1.51-1.95,1.57-4.58,2.77-6.68a1.43,1.43,0,0,1,2.34-.45c2.14,2.4,1.59,6.49,4.65,8.19,3.9-4.05,7.14-8.75,11.49-12.36,3.66-3.09,8.22-5.8,13.2-5.29a9.63,9.63,0,0,1,8.27,7,16,16,0,0,1-1,10.41,15.13,15.13,0,0,0,8.84-.14c3.07-1.17,2.89-4.9,4.17-7.4a2.36,2.36,0,0,1,4-.45c.89,1.63.94,3.57,1.58,5.3a4.7,4.7,0,0,0,4.07,3.05,71.64,71.64,0,0,0,8.42.11c4.07-.09,8.22.05,12.2-1a2.21,2.21,0,0,0,1.67-2.75c-4,.63-8.08,1.15-12,.21a6.77,6.77,0,0,1-5.25-5.46,22.14,22.14,0,0,1,3.38-14.1c1.47-2.39,3.88-4.58,6.84-4.52,3.95-.25,7.49,2.32,9.43,5.6,4,6.58,5,14.59,4.08,22.12-.59,4.55-2.32,9.18-5.8,12.32-3.77,3.44-9,4.72-14,4.91a75,75,0,0,1-9-.08,9.85,9.85,0,0,1-6.86-4.84,9.91,9.91,0,0,1-7.21,4.84,43,43,0,0,1-8.49-.05c-3.35-.61-5.59-3.52-7-6.41-3.51,4.53-9.45,6.26-15,6.36-5.3.13-11.05-.95-15.13-4.55-1.67,2.55-4.22,5-7.5,4.79q-24.66,0-49.31,0c-4.19-.09-8.76.07-12.35-2.47s-5-7.08-5.12-11.28c-.16-10.35-.39-20.71-1.37-31-.08-1.42-.75-3.36.75-4.27,3.48-2.49,7-4.92,10.5-7.41m136,25.43a12.08,12.08,0,0,0,8.48.15,5.69,5.69,0,0,0-5.1-3.33,3.12,3.12,0,0,0-3.38,3.18m-51.94,8.17c-3.55,1.65-6.49,4.33-9.28,7,5.1.07,10.34.15,15.24-1.47a5.61,5.61,0,0,0,3-1.83,4,4,0,0,0-2-4,8.39,8.39,0,0,0-7,.29m82.74-30.65a29.49,29.49,0,0,1,4.11-4.1c3.06,11.55,2.49,23.63,2.59,35.47a53.27,53.27,0,0,1-2.31,16c-.77,2.21-1.52,4.74-3.54,6.14-1.23.46-2-.76-2.46-1.72a41.83,41.83,0,0,1-2-8.27c-2-11.19-3.69-22.44-5.37-33.69q4.51-4.92,9-9.83m127.44-2.18a18.62,18.62,0,0,1,3.3-2c.42,9.39.06,18.8.18,28.2a69.58,69.58,0,0,0,.21,8.42,4.09,4.09,0,0,0,3.63,3.59c2.63.15,5.29,0,7.93.06,1-.09,2.42.12,3-1a4.9,4.9,0,0,0-1.45-2.68,66.37,66.37,0,0,0-5.8-5.82,46.13,46.13,0,0,1,3.7-5.72c1.57-2.21,3-4.56,4.75-6.63,4.29,4.38,6.44,10.54,6.81,16.59.18,5.07.13,10.32-1.66,15.14a10.41,10.41,0,0,1-6,6.11c-4.39,1.8-9.25,1.29-13.88,1.28-4.17,0-8.72-1.47-11.09-5.12-2.82-4.19-2.42-9.46-2.48-14.26-.25-9.1-.52-18.22-1.48-27.28a2.08,2.08,0,0,1,.81-2.16c3.13-2.3,6.38-4.47,9.54-6.75m-373.32-.71c.59-.65,1.32.13,1.76.54a63.19,63.19,0,0,1,5.22,5.26c-2.09,2-4,4.19-6.31,6-2.06-2-4.07-4-6.12-5.94a44.42,44.42,0,0,1,5.45-5.86m344.74,2.52c1.12-.89,1.85-2.5,3.33-2.78,1.82,1.46,3.4,3.2,5.12,4.78.39.44,1.35,1.14.58,1.73-1.82,1.92-3.77,3.73-5.68,5.56a79.83,79.83,0,0,1-6.06-5.86c.21-1.47,1.82-2.31,2.71-3.43m-31.36,5.36c7.51-2.45,15-5,22.5-7.4-.38,4.91-.84,9.81-1.48,14.69-6,2.07-12,4.08-18,6.14,3.53,4,7,8.09,10.62,12.09,2.74,3,6.41,5.53,10.6,5.57,3.34.06,6.69.05,10,0a4,4,0,0,0,2.64-.88c-1.49-3.56-4.73-6-7.42-8.58a132.21,132.21,0,0,1,8.42-12.38c4.33,4.36,6.45,10.54,6.85,16.59.17,4.79.1,9.69-1.36,14.29a10.55,10.55,0,0,1-4.91,6.28c-3.67,2.09-8,2.09-12.13,2.1-6.25.17-11.56-4.05-15.45-8.54a15.93,15.93,0,0,1-8.13,7.43c-5.48,2.24-11.52,2.19-17.34,2.15-6.08.07-12.41,0-18.07-2.5a13.69,13.69,0,0,1-7.75-9.48,26.46,26.46,0,0,1,1.54-16.05c.62-1.32,1.59-3.05,3.3-2.88,1.43.06,1.85,1.76,1.88,2.94.07,2.6.13,5.61,2.25,7.47,2.94,2.39,6.89,2.83,10.53,3.18a136.5,136.5,0,0,0,15.27-.14c2.69-.24,5.5-.34,8-1.53-1.71-3.1-4.5-5.4-6.79-8.06-2-2.2-4.13-4.37-6.19-6.55.86-4.34,1.27-8.8,2.4-13.06,2.62-1.25,5.5-1.9,8.23-2.9m-128,7c1.72-1.82,3.44-3.65,5.29-5.34,1.72,1.42,3.27,3,4.91,4.56,1.46-1.57,2.95-3.11,4.53-4.56,2,1.67,3.84,3.53,5.7,5.36a65.67,65.67,0,0,1-5.22,5.2l-.44.09c-1.63-1.33-3-2.93-4.55-4.35-1.54,1.38-2.89,3-4.48,4.29l-.47,0a51.51,51.51,0,0,1-5.27-5.28m-146,11.54c2.29-4.65,4.25-9.48,6.8-14,4,1.49,7.18,4.57,9.95,7.74a26.07,26.07,0,0,1,6.74,17.27c0,5-.85,10.49-4.45,14.25-3.36,3.54-8.49,4.62-13.2,4.52-4.15,0-8.74-.77-11.71-3.94-2.52-2.71-3.07-6.61-2.87-10.16a21,21,0,0,1,2.18-8.66c.52-1.3,2.48-1.87,3.32-.58,1.14,2,1.2,4.81,3.47,5.94,2.93,1.14,6.17.88,9.25.92,2.14-.14,4.65,0,6.26-1.65-1.81-3.22-5.09-5.19-8.05-7.22-2.48-1.6-5.08-3-7.69-4.43m-95.66-4.32c1.22-1.66,2.18-3.53,3.71-4.93a25.63,25.63,0,0,1,5.32,9.21c1.72,5.23,1.67,10.86,1.14,16.29-.49,4-1.47,8.41-4.9,10.89-3.88,2.83-8.92,2.86-13.51,2.81a4.49,4.49,0,0,1-3.29-1.48c.07,5.37-1.3,11.11-5.24,15s-9.67,5.32-15.07,5.63c-6.06.26-12.55-.14-17.77-3.55A14.25,14.25,0,0,1,.16,497.8c-.64-5.65.72-11.35,2.79-16.58.76-1.63,1.85-3.92,4-3.73,1.77.08,2,2.14,2,3.52.15,3.05-1.65,6.1-.48,9.1,1.37,3.16,5.07,4.19,8.18,4.72a37.87,37.87,0,0,0,16.27-1c1.8-.61,3.86-1.52,4.53-3.45.45-1.46-.46-2.83-1.31-3.92a45,45,0,0,0-6.25-5.94c2.19-4.14,4.18-8.4,6.51-12.47,3,2.57,5.58,6,9.52,7a108.47,108.47,0,0,0,11,0c1,.09,2.1-.86,1.42-1.88-1.86-2.9-4.52-5.18-7-7.52,1.3-2.67,3.26-4.93,4.86-7.41m51.84,7.42c2.39-4.34,5.53-8.23,8.28-12.35a14.07,14.07,0,0,1,3.55,4.51,29.12,29.12,0,0,1,3.5,14.69c0,4.4-.24,8.94-2,13.05a10.52,10.52,0,0,1-6.33,5.78c-4,1.51-8.45,1.05-12.68,1.12-.58,6.68-2.07,13.78-6.73,18.87-1,1.25-2.75.9-4.15,1-5.74-.09-11.5.1-17.24-.09-2.32-.09-2.89-3.81-.71-4.58a135.55,135.55,0,0,0,15.28-8.91c2.33-1.67,4.83-3.32,6.27-5.87-3.68-.22-7.6.22-11-1.32-3.5-1.73-4.43-6-4.25-9.58.18-5.84,1.34-12,4.92-16.79,2.74-3.76,8.67-4.1,12-1,3.12,2.81,4.32,7,5.2,11,3.88-.05,7.78.12,11.66-.08,1,.09,2.07-.88,1.39-1.88-1.86-2.9-4.5-5.2-7-7.51m-20.74,9.95c-1,.52-.9,1.7-1,2.63a12,12,0,0,0,8.39.21c-1.11-2.72-4.73-4.33-7.38-2.84m-73.11-12a56.55,56.55,0,0,1,5.92-6c2.16,1.94,4.23,4,6.32,6A55.06,55.06,0,0,1,20.1,470c-2-1.92-4.1-3.75-5.92-5.83l-.1-.47M502.15,499c.42-.38,1.11-1.19,1.67-.51,2,1.79,3.95,3.71,5.89,5.62-1.92,2.21-4.1,4.16-6.2,6.18a69.44,69.44,0,0,1-6.31-6.18c1.55-1.8,3.27-3.44,4.95-5.11M49.36,504.16q2.53-2.84,5.32-5.41c1.69,1.47,3.28,3.06,4.9,4.62,1.51-1.56,3-3.15,4.56-4.64,2,1.67,3.79,3.62,5.68,5.43a68.31,68.31,0,0,1-5.58,5.45c-1.59-1.5-3.14-3-4.68-4.58a64.53,64.53,0,0,1-4.78,4.58c-1.83-1.79-3.73-3.52-5.42-5.45Z" style="fill:#701e72"/></svg>