<svg xmlns="http://www.w3.org/2000/svg" viewBox="0 0 512 512"><path d="M511.68,472.25h-28V414.11c0-.91-14,11.94-14,11.94v48.27s1,15.58,21,15.58h9.67C502.18,489.9,514.08,472.25,511.68,472.25Z" style="fill:#b01117"/><path d="M464.7,473.35H440.57s-5.31-2.55-9.09-10.57c-2.07-4.42-1.42-9.48-8.88-20.68,0,0-3.45-3.88,2.39-5.15l23.62-6.49s14.32-20.21,10.13-18.68c-10.87,4-50.1,12.2-50.1,12.2l-12.32,19.85s21.69,5.39,23,14.41a16.88,16.88,0,0,1-6.09,15.57s-54.15-.46-55.68-.46-17.19,16.55-15.05,16.55h67c1.07,0,12.59-14.15,12.59-14.15s10.68,16.53,25.05,15.45l6.87-.52S467,473.35,464.7,473.35Z" style="fill:#b01117"/><path d="M249.34,490.67c-1.29-.09,13.31-17.12,13.31-17.12h21.8l14.8-19.86s2.33-3.24,5.84,0c0,0,3.38,18,11.68,20.12,0,0,4.67,2,20.89-.52,0,0,6.55-.13,6.55-12.2s-23.16-16.55-23.16-16.55l10.12-20.24s29-3.05,50.42-12.52c2.62,1.23-5.7,17.78-7.21,18.36a130.84,130.84,0,0,1-27.64,7.39s26,24.62-12.62,51.46c0,0-28.51,10.51-36-18.75,0,0-15.45,20.63-16.74,20.63S250.63,490.77,249.34,490.67Z" style="fill:#b01117"/><path d="M206.2,490.87c-2.59-.45,14-18.1,14-18.1h25.69s17.39-19.47-17.65-28.29c0,0,8.57-10.9,10.64-12.46s50.36,12.07,2.86,58.85C241.76,490.87,208.8,491.32,206.2,490.87Z" style="fill:#b01117"/><path d="M212.17,473c1.82,0-11.87,18-12.88,18l-58.1.09s-4.29-13-8.18-.29c0,0-31.92,6.94-38.54-17.84,0,0-1.07-3.47-3.12,0L76.07,490.87H45c-.78,0,12.71-17.71,14-17.71l21.9.09,15.87-19.56s4.47-2.14,5.06,3.12c0,0,.19,25.2,30.65,15.94,18.1-21-12.65-27.33-14.4-28.5s9.64-19.56,9.64-19.56,47.49-12.27,49.44-12.85-3.51,17.71-8,19.08-25.7,4.86-25.7,4.86-4.47.59-1.55,4.48c0,0,19.66,14.11,4.77,32.79Z" style="fill:#b01117"/><path d="M7.52,453.56s-22,23.8,9.22,36.34c9.28,3.73,20.63.78,20.63.78s14.33-13,19-20.44c5.45-8.76-.84-18.44-10.51-26,0,0,18-8.57,16.74-13,0,0-24.92-2.2-35.56,19.47a16.38,16.38,0,0,0,9,4.35c5.84.91,18.37,10.7,3.85,18.12C27.88,479.3,1,468.67,10,455.64,11.51,453.42,9.85,451.3,7.52,453.56Z" style="fill:#b01117"/><rect x="178.14" y="436.28" width="12.46" height="12.46" transform="translate(-258.9 259.98) rotate(-45)" style="fill:#b01117"/><rect x="168.89" y="450.3" width="12.46" height="12.46" transform="translate(-271.54 257.58) rotate(-45)" style="fill:#b01117"/><rect x="186.51" y="450.3" width="12.46" height="12.46" transform="translate(-266.37 270.03) rotate(-45)" style="fill:#b01117"/><rect x="446.94" y="446.94" width="12.46" height="12.46" transform="translate(-187.71 453.24) rotate(-45.01)" style="fill:#b01117"/><rect x="484.59" y="496.96" width="12.46" height="12.46" transform="translate(-212.05 494.52) rotate(-45.01)" style="fill:#b01117"/><path d="M335.71,417.23s43.48-13.47,44.77-13.57-1.37,4.38-1.37,4.38S336,420.54,335,421.25,335.71,417.23,335.71,417.23Z" style="fill:#b01117"/><path d="M133.27,418s43.47-13.46,44.77-13.56-1.37,4.38-1.37,4.38S133.59,421.29,132.52,422,133.27,418,133.27,418Z" style="fill:#b01117"/><path d="M376.06,312.58H252.91c-5.41,0-80.49-127.75-80.49-134.69S205.3,126.41,202,126c-5.1-.61-51.19,0-51.19,0s-66,108.64-66,112.62,64,117.17,66,117.17h50.05c2.85,0-64.56-111-63.7-114.9.66-3,8-15.83,11.09-19.62s78,134.52,82.74,134.52H355.86S382.88,312.58,376.06,312.58Z" style="fill:#b01117"/><path d="M308.12,8.41c3.46,5.88,59.67,101.5,62.4,106.16S301.18,248.7,295.2,252.22s-61-2.26-59.71.78c2.06,4.71,25.94,44.14,25.94,44.14s127.1,1.82,130.53-.2,68.58-114.54,67.57-116.26l-25.36-43.15c-1.44-2.45-63,111.91-66.77,113.15-2.93.95-17.68,1.16-22.54.38s76.43-135.43,74-139.51C414.57,104.2,355.62,3.91,355.62,3.91S304.66,2.52,308.12,8.41Z" style="fill:#b01117"/><path d="M79.49,216.7l62.4-106.16c2.74-4.65,150.93-4.64,156.91-1.13s27.72,54.44,29.73,51.79c3.11-4.09,25.94-44.13,25.94-44.13S294.25,5.13,290.82,3.11,157.38-1.1,156.37.62L131,43.77c-1.44,2.45,128.41.59,131.33,3.3,2.26,2.1,9.62,14.89,11.3,19.51s-155.51-.91-157.9,3.16L52.46,177.39S76,222.59,79.49,216.7Z" style="fill:#b01117"/><path d="M304.39,179.48a48.92,48.92,0,1,0-48.92,48.92A48.92,48.92,0,0,0,304.39,179.48Z" style="fill:#00aec5"/></svg>