<svg xmlns="http://www.w3.org/2000/svg" viewBox="0 0 512 512"><path d="M235.5,415.8c-.82,1-1.51,1.86-2.26,2.7-1.7,1.93-3.58,3.55-6.32,3.76a1.59,1.59,0,0,0-1.43,1.14c-5.07,13.93-14.56,24.28-26.55,32.55a112.48,112.48,0,0,1-38.33,16.61,104.69,104.69,0,0,1-28.27,2.94c-7.92-.3-15.65-1.57-22.91-5a32.5,32.5,0,0,1-5.61-3.35,13.92,13.92,0,0,1-5.66-9,2.48,2.48,0,0,1,.65-2.46c.74-.66,1.6-.28,2.34.09A78.68,78.68,0,0,0,114,461a92.86,92.86,0,0,0,31.43,3.88A113.32,113.32,0,0,0,189.1,454c7.05-3.38,13.17-8.09,19.25-12.93a51.65,51.65,0,0,0,13.4-16.59,9.07,9.07,0,0,0,1.15-6.28c-.46-2.27.58-3.32,2.92-3.39a22.49,22.49,0,0,1,3.76.37,5.36,5.36,0,0,0,4.88-1.83,18.86,18.86,0,0,0,3.31-5.19c.71-1.5,1.37-3,2.1-4.51.31-.64.68-1.5,1.54-1.33s.81,1.08.93,1.75a8.77,8.77,0,0,1-.19,2.93,9,9,0,0,0-.12,2.84,1.56,1.56,0,0,0,2.68,1.12,4,4,0,0,0,1.18-1.29c.35-.64.68-1.31,1-2,.6-1.36,1.52-1.62,2.63-.6a5.64,5.64,0,0,1,1.89,5,14.75,14.75,0,0,1-5.25,9.46c-2.63,2.28-6.43,1.74-8.76-1.08A8.44,8.44,0,0,1,235.5,415.8Z" style="fill:#030303"/><path d="M356.81,465.88a6.38,6.38,0,0,1-1.85-.24c-.59-.2-.84,0-1.11.53a79.36,79.36,0,0,1-11.46,17.11,78.13,78.13,0,0,1-30.54,21,108.26,108.26,0,0,1-25.13,6.35,152.72,152.72,0,0,1-29.92,1c-6.89-.42-13.72-1.27-20.27-3.61a23.66,23.66,0,0,1-3.53-1.56c-4.17-2.28-5.49-4.81-4.93-9.51a12.1,12.1,0,0,1,.51-2.81c.38-1,1-1.24,2-.78a3.16,3.16,0,0,1,.56.33c4.47,3.42,9.72,4.88,15.1,6,7.26,1.52,14.65,1.75,22,2.07,20.59.88,39.87-3.9,57.95-13.64a60.15,60.15,0,0,0,19.09-15.88,46.1,46.1,0,0,0,9.25-21.23,21.79,21.79,0,0,1,2-6.49,5.08,5.08,0,0,1,1.05-1.5,1.11,1.11,0,0,1,1.26-.33,1.2,1.2,0,0,1,.64,1.14,4.61,4.61,0,0,1-.43,1.87,9.34,9.34,0,0,0-.83,3.48c0,1.79.93,3,2.42,3.22a3.22,3.22,0,0,0,3.51-2.47,7.21,7.21,0,0,1,.6-1.93,1,1,0,0,1,1.82-.25,4,4,0,0,1,1.24,2.71c.22,4.9-.95,9.34-4.53,12.89A8.7,8.7,0,0,1,356.81,465.88Z" style="fill:#030303"/><path d="M294.1,464.07a3.17,3.17,0,0,1,.45-2.1,45.73,45.73,0,0,1,8.78-12A108.37,108.37,0,0,1,324,434c15.44-9.44,31.13-18.47,46.69-27.72,10.12-6,20.19-12.12,29.89-18.81a68.23,68.23,0,0,0,11.73-9.65c.43-.47.93-.86,1.55-1.42a4.86,4.86,0,0,1-.29,1.82,17,17,0,0,1-5.68,8.44,211.29,211.29,0,0,1-19,14c-15.2,10.13-30.87,19.49-46.46,29-7.3,4.45-14.52,9-21.86,13.39a111,111,0,0,0-24.06,19.25A6.32,6.32,0,0,1,294.1,464.07Z" style="fill:#030303"/><path d="M267.59,452.2a27.55,27.55,0,0,0,7.26-7.55,2.31,2.31,0,0,0-.07-2.78,2.13,2.13,0,0,0-2.46-.51c-.59.15-1.17.35-1.77.48a4.19,4.19,0,0,1-3.05-.3c-2.23-1.27-2.75-2.43-1.9-4.87a34.33,34.33,0,0,1,5.14-9.74c1.43-1.85,2.66-2.43,5.4-1a7.16,7.16,0,0,1,3.36,4,18.43,18.43,0,0,1-.11,12.66,27.71,27.71,0,0,1-7.5,11.58c-3,2.81-5.52,5.8-6.73,9.78a10.92,10.92,0,0,1-.78,1.57,15.1,15.1,0,0,1-8.93,7.9,52.41,52.41,0,0,1-7.33,2.12,2.27,2.27,0,0,1-.82,0c-.9-.21-1.1-.78-.47-1.43a3.44,3.44,0,0,1,.81-.59,74.36,74.36,0,0,0,13.08-9.72,12.54,12.54,0,0,0,2-2.39c.17-.27.48-.55.19-.9s-.66-.21-1,0a6.51,6.51,0,0,1-4.49.44,4.69,4.69,0,0,1-3.63-5.58,28,28,0,0,1,3.75-9.84c1.76-2.94,4.5-3.19,6.95-.75,1.7,1.68,2.32,3.86,2.82,6.1C267.41,451.28,267.48,451.67,267.59,452.2Z" style="fill:#030303"/><path d="M391,443.5a1.73,1.73,0,0,1,.27,1.11,26.38,26.38,0,0,1-1.94,10.16,10.18,10.18,0,0,1-2.3,3.52,4.14,4.14,0,0,1-6.68-.89,15.13,15.13,0,0,1-1.85-6.5c-.7-6.55-.2-13.08.31-19.61a23.33,23.33,0,0,1,1.06-6.44c.84-2.27,2.14-4.35,2.85-6.68.07-.21.19-.44.44-.38s.36.45.34.75c-.14,1.62-.31,3.24-.44,4.86-.42,4.9-.85,9.8-1.22,14.71a12.3,12.3,0,0,0,1.38,7.22,3.83,3.83,0,0,0,6.43.1A4.64,4.64,0,0,1,391,443.5Z" style="fill:#030303"/><path d="M229.31,467.15a5.1,5.1,0,0,1-.51,2.17,15.53,15.53,0,0,1-3.73,5.1c-.86.82-1.4.82-2.34.09-1.31-1-2.59-2.09-3.86-3.16-.45-.38-.67-.28-1,.22a22.9,22.9,0,0,1-2.49,3.76,8,8,0,0,1-1.39,1.34,1.4,1.4,0,0,1-1.86,0c-1.57-1.22-3.15-2.45-4.74-3.67a.6.6,0,0,1-.2-.86A52.66,52.66,0,0,1,212,464a1.2,1.2,0,0,1,1.75-.34,13.18,13.18,0,0,1,4.46,3.51c.51.64.69.48,1.05-.1a43.64,43.64,0,0,1,3.39-4.94,1.38,1.38,0,0,1,1.84-.46,9.11,9.11,0,0,1,4.49,4.19A2.63,2.63,0,0,1,229.31,467.15Z" style="fill:#030303"/><path d="M272.72,410.09c1.26-1.83,2.44-3.59,3.66-5.32.8-1.11,1.16-1.19,2.41-.58a9.48,9.48,0,0,1,3.85,3.47,3.6,3.6,0,0,1,.36,3.27,15.15,15.15,0,0,1-4.11,5.92,1.44,1.44,0,0,1-2.13.06c-1.3-1.08-2.62-2.13-3.92-3.21-.47-.4-.72-.32-1,.21a17.6,17.6,0,0,1-3.24,4.56c-1.24,1.12-1.74,1.16-3,.15s-2.7-2.12-4.05-3.19c-.33-.26-.53-.51-.28-1a60.18,60.18,0,0,1,4.72-8,1.13,1.13,0,0,1,1.62-.44,14.31,14.31,0,0,1,4.52,3.42Z" style="fill:#030303"/><path d="M236.56,473.45c1.79-9.56,2.11-19.25,3.11-28.87a25.54,25.54,0,0,1,2.07-7.14c.84-2,1.76-3.91,2.66-5.87a1.69,1.69,0,0,1,1.11-1.13c-.06.59-.09,1.1-.18,1.6-1.06,5.69-1.39,11.46-2,17.2-.58,5.16-.74,10.37-2.21,15.4a28,28,0,0,1-3.5,7.77C237.32,472.81,237.09,473.26,236.56,473.45Z" style="fill:#030303"/><path d="M373.07,432.22a6.67,6.67,0,0,1-.85,2.71,16.8,16.8,0,0,1-2.71,3.81c-.9.91-1.24,1-2.32.31-1.52-.92-3-1.91-4.5-2.87a1.37,1.37,0,0,1-.62-1.75,30.68,30.68,0,0,1,4.16-8,1.14,1.14,0,0,1,1-.46C369.84,426.12,373.17,429.69,373.07,432.22Z" style="fill:#030303"/><path d="M388.47,472.23a5.34,5.34,0,0,1-.76,2.52,14.3,14.3,0,0,1-3.07,4.24,1.31,1.31,0,0,1-1.75.26q-2.37-1.51-4.72-3.06a1.48,1.48,0,0,1-.64-1.91,30.21,30.21,0,0,1,4.13-7.77,1.12,1.12,0,0,1,1.12-.48C385.41,466.27,388.5,469.61,388.47,472.23Z" style="fill:#030303"/><path d="M165.07,443.74a6,6,0,0,1-.46,2,16,16,0,0,1-3.16,4.72,1.54,1.54,0,0,1-2.2.32c-1.43-1-2.88-1.88-4.32-2.81a1.63,1.63,0,0,1-.73-2.21,35.35,35.35,0,0,1,4-7.44,1.29,1.29,0,0,1,1.44-.54,7.77,7.77,0,0,1,5.39,5.54C165.05,443.43,165.06,443.58,165.07,443.74Z" style="fill:#030303"/><path d="M314.42,203.07a77.37,77.37,0,0,1-4.33,16.44c-12.67,34.22-37.09,55.14-72.52,63-25.56,5.65-51.18,5.23-76.37-2.33-29.6-8.88-50.32-28-62.83-56.1a141.23,141.23,0,0,1-12-57.75q-.14-76.56,0-153.14a26.51,26.51,0,0,1,.34-5.1C87.65,3.53,90,1.18,94.62.38A27,27,0,0,1,99.11,0Q190.85,0,282.6,0c9,0,16.52,2.83,22.83,9.25,13,13.25,26.16,26.41,39.21,39.64.95,1,2.48,2,1.89,3.57-.65,1.78-2.53,1.63-4.06,1.74-5.32.37-10.65.26-16,.26l-166.68-.08c-5.35,0-7.55,1.82-8.59,7.07a30,30,0,0,0-.49,5.91c0,37.93-.3,75.86.08,113.78.41,41.46,35.06,80.68,81.18,80.65,17,0,33.11-3.46,47.57-12.82a75.78,75.78,0,0,0,28.77-34.35c1.64-3.8,4-7.26,5.32-11.23C313.73,203.14,314,203,314.42,203.07Z" style="fill:#0a5f3c"/><path d="M320.39,361c-30.2,0-60.41-.07-90.62.05-9.43,0-17.39-2.94-23.78-9.93-.65-.71-1.36-1.35-2-2L168.2,312.9a27.7,27.7,0,0,1-2.08-2.26c-1.47-1.89-1.17-2.78,1.16-3.52a8.43,8.43,0,0,1,2-.39c1.84-.11,3.68-.23,5.52-.23q86.22,0,172.43.09c1.84,0,3.69.13,5.53,0,4.93-.23,7.3-2.42,8.06-7.3a35.06,35.06,0,0,0,.41-5.51c0-38,.15-76-.07-114-.12-19.92-7.44-37.35-20.35-52.36-13.3-15.48-30.05-25.24-50.4-27.54-26.63-3-50.84,2.77-70.5,22.24a76,76,0,0,0-16.52,24.7c-1.51,3.57-3.61,6.88-5.11,10.47-.11.26-.19.73-.67.58-.71-.22-.17-.67-.1-1,9.39-41.09,33.68-68.07,75.14-78.07a148.77,148.77,0,0,1,76,1.26c33.17,9.32,55.2,31,67.48,62.81a144.88,144.88,0,0,1,9.46,52.31q0,76.17,0,152.32a26.26,26.26,0,0,1-.37,5.31c-.9,4.45-3.23,6.79-7.7,7.64a27.83,27.83,0,0,1-5.31.41Z" style="fill:#0a5f3c"/><circle cx="255.82" cy="180.39" r="62.16" style="fill:#e4e418"/></svg>