<svg xmlns="http://www.w3.org/2000/svg" viewBox="0 0 512 512"><path d="M230.31.64c13-2,26.48.88,38,6.94C287.71,18.06,301,39.24,301,61.38c1,26-16.49,50.95-40.78,59.67a62.26,62.26,0,0,1-48.89-2.42,63.22,63.22,0,0,1-31-33.74,62.44,62.44,0,0,1,50-84.25M121.14,94.35c8.65-1.16,17.77-.88,25.87,2.7a46.94,46.94,0,0,1,28.44,34.05c4.61,19.92-6.14,41.81-24.31,50.94-16.19,8.79-37.62,6.4-51.57-5.62-15.25-12.29-21-34.56-13.72-52.72,5.62-15,19.56-26.43,35.29-29.35m219.93-.22c14-2,28.75,2.38,38.95,12.21,13.37,12.28,18.55,32.72,12.17,49.8a47.68,47.68,0,0,1-25.31,27.2A47,47,0,0,1,321.25,179c-14.38-9.94-22.52-28.31-19.49-45.63,2.72-19.76,19.58-36.44,39.31-39.2m-109.28,62.4A47,47,0,0,1,272,170.08c12.92,12.85,17,33.47,10.11,50.32a47.65,47.65,0,0,1-35,28.61c-9.53,1.15-19.65.82-28.37-3.63a47.4,47.4,0,0,1-26.15-33.56c-1.77-10-.65-20.71,4.11-29.78a47.22,47.22,0,0,1,35.08-25.51m-91.34,62.28a31.66,31.66,0,0,1,31.68,15.08c8.25,13.22,4.19,32.06-8.46,41-8.91,6.72-21.48,7.8-31.6,3.26A31.37,31.37,0,0,1,114,249.6c-.38-14.95,11.68-28.75,26.44-30.79m184,.73c15.13-4.42,32.61,4.8,37.42,19.83,5.33,13.9-1.33,30.93-14.47,37.79-11.79,6.73-27.75,4.21-37.19-5.44a31.51,31.51,0,0,1-7.89-30.08,31.13,31.13,0,0,1,22.13-22.1M229,282.41c18.05-6.52,39.59,7.63,40.59,26.8,1.93,15.54-9.84,31-25.2,33.62a31.22,31.22,0,0,1-33.3-45.44c3.89-6.91,10.22-12.7,17.91-15m-74.69,62.3c8.51-4.12,19.49,1.22,21.61,10.4,2.88,9.53-5.51,19.73-15.27,19.57-7.32-.17-14.2-5.69-15.42-13a15.78,15.78,0,0,1,9.08-17m157.56-.59c8.71-3.24,19.12,3.08,20.3,12.27,2.35,10.5-8.63,20.73-18.9,17.76A15.55,15.55,0,0,1,301.16,359a15.76,15.76,0,0,1,10.74-14.92m-77.3,31c6.93-1.86,15,1.42,18,8.1,4.11,7.93,0,18.92-8.69,21.67-9,3.67-20.1-3.15-20.82-12.82a15.48,15.48,0,0,1,11.48-16.95m-112.7,70a44,44,0,0,1,9-7.16c2.64.51,2.34,3.78,2.61,5.84.16,11.32.11,22.63.17,33.94.13,4.13-1.5,8-3.14,11.73-.53,1.87-2.54,2.44-4,3.37-2.74-9.57-2.51-19.6-3.55-29.42,0-6.13-1.33-12.19-1.11-18.3M303.5,448a241.52,241.52,0,0,1,28.11-9.78c-1.15,4.21-1.94,8.53-3.5,12.62-6.41,2.95-13.54,4.27-20.11,7,3.84,4.23,8,8.17,11.95,12.27,3.44,3.34,7.22,6.85,12,8a51,51,0,0,0,24.78-3.34c-3-1-6-2.43-9.25-2.33-3.21,1.45-5.57,5.06-9.55,4-.68-7.08,4.31-15.05,11.63-16.08,6.34.38,11.74,4.18,17.55,6.33,4.63,2,9.7,2.43,14.68,2.62-2.2,3.67-4.44,7.32-6.63,11-11.61.23-20.45,9.32-31.75,10.77a50.88,50.88,0,0,1-13.16.21c-5.61-1.41-9.94-5.62-13.94-9.55-2.56,3.9-5.8,7.82-10.56,9-5.74,1.3-12.32,1.77-17.41-1.72a12.24,12.24,0,0,1-16.47-.68,15.75,15.75,0,0,1-15.09,2.36c-2.45-.95-4.18-3.12-6.53-4.24-10.66,5.78-23.16,7.06-35,5.18-4.75-.85-9.72-3.21-11.73-7.86a18.73,18.73,0,0,1,2.42-18.4c1.21-1.93,3.73-.93,5.59-1.14.31,3.57-1.53,7.27-.28,10.71,3.44,4.31,9.67,4.18,14.69,4.29,6.7-.2,13.62-.65,19.78-3.51,3.82-1.7,6.28-5.29,9.74-7.5,4.35,1.59,2.52,6.4,2.36,9.82,2.89.22,5.8.29,8.69.27.77-4.18,1.64-8.84,5-11.78,4.45-3.6,11.89-3,15.42,1.65,2.38,3,3.26,7,5.88,9.81a38.07,38.07,0,0,0,16.48-1c-3-6.14-8.39-10.48-13.59-14.68.77-3.73,1.19-7.54,2.14-11.22a22.14,22.14,0,0,1,5.64-3m-24.66,23.64c-.57,3.75,0,7.74,3,10.41,3.46-3.18.1-8.24-3-10.41m145.91-21.35c10.45-5.19,21.62-8.9,32.84-12.06-1.16,4.37-2.39,8.72-3.57,13.09-6.8,1.8-13.44,4.1-20,6.51,6.08,6.29,11.72,13.23,19.07,18.13,4.49,3.32,10.29,2.3,15.48,2a74.4,74.4,0,0,0-5.12-7c2.34-3.82,4.71-7.6,7.34-11.21,2.57,3.92,5.47,8,5.84,12.8.49,5.12-.21,10.78-3.71,14.8-4.08,4.27-10.52,4.45-16,4-6.19-1.07-10.81-5.8-15.08-10-3.79,8-13,10.85-21.23,10.87-8.54-.1-17.86,1.25-25.62-3.15-8.08-4.64-8-16.59-2.8-23.38,1.31-2.12,4-1.47,6.05-1.57,0,3.41-1.35,6.74-.89,10.15,2.53,4.13,7.94,4.5,12.29,4.85,8.55,0,17.42.81,25.66-2-3-6.13-8.37-10.56-13.54-14.81,1-3.92.49-8.72,3.06-12M45,446.74c3-2.86,6.07-5.88,9.83-7.8A39.91,39.91,0,0,1,56,444.11c1,11.35.72,22.75,1.43,34.1,6.66.57,13.34.29,20,.37,2.67-.08,5.69.16,7.9-1.68,1.56-2.33,1.86-5.21,2.69-7.82,1.67,0,3.34.06,5,.13,1.1,2.87.82,6.85,3.69,8.7,4.42,1.25,9.14.52,13.67.35-1.62-2.42-3.36-4.76-5.16-7.05,2.47-3.57,4.76-7.25,7.12-10.89,3.9,4.47,6.79,10.17,6.22,16.25.16,5.77-2.65,12.13-8.34,14.23-6.57,2.06-14.56,2.07-19.75-3.07-3.22,2.24-6.79,4.32-10.85,4.22-7.26,0-14.56.35-21.81-.22a10.92,10.92,0,0,1-10.09-9.64c-.56-11.8-.89-23.66-2.76-35.35m134.86-.49a44,44,0,0,1,9.07-7.2c2.53.19,2.22,3.16,2.59,5,.45,10.85.16,21.73.32,32.59.23,6.45-1.7,13.39-6.57,17.86-2.82-6.06-2.73-12.82-3.41-19.31-.49-9.67-1.67-19.31-2-28.95m297.83.12c2.78-2.53,5.31-5.37,8.46-7.46,2.77.54,2.26,3.86,2.58,6,.43,11,.74,22,1.37,33a80.15,80.15,0,0,0,13.77.08c-1.59-2.45-3.29-4.81-5-7.14,2.22-3.38,4.18-6.92,6.48-10.23h1.26A22,22,0,0,1,512,474.49c.19,5.3-1.07,11.43-5.76,14.58-4.57,3-10.33,2.49-15.52,2.31s-10-4.39-10.43-9.63c-.53-11.81-1-23.65-2.63-35.38m-369.26-6.31c2.44,2.28,4.86,4.6,7.27,6.91-2.27,2.24-4.49,4.56-6.73,6.85-2.33-2.32-4.65-4.65-7-6.92,2.14-2.3,4.32-4.57,6.47-6.84m351.74,6.3c2.15-2.18,4.27-4.41,6.38-6.65,2.37,2.17,4.81,4.27,7,6.62a76.67,76.67,0,0,1-6.42,7.07c-2.34-2.34-4.69-4.67-7-7m-240.4,12.41c1.68-2.56,4-4.58,6.15-6.75,1.74,1.75,3.48,3.48,5.24,5.21,1.65-1.76,3.32-3.49,5-5.23,2.25,2.17,4.47,4.4,6.63,6.68-2.26,1.94-4.27,4.18-6.74,5.85-1.84-1.39-3.28-3.36-5.43-4.31a58.29,58.29,0,0,0-4.63,4.67c-2.1-2-4.3-3.93-6.21-6.12M12.2,465.54c2.14-2.29,4.32-4.56,6.45-6.87,2.47,2.25,4.87,4.57,7.24,6.92-2.25,2.29-4.5,4.6-6.71,7-2.36-2.31-4.67-4.66-7-7m150.65,5.4c2.34-3.74,4.69-7.49,7.23-11.11,3.76,4.74,6.52,10.61,6,16.8-.38,4.72-1.85,10.11-6.23,12.64-4.84,2.9-10.69,2.1-16.06,2.15-.79,7-3.68,14-9.11,18.63-2.22,2.09-5.44,1.18-8.15,1-4.44-.78-9.61-.55-12.94-4.09,4.18-3.22,9.52-4.35,13.76-7.48a29.41,29.41,0,0,0,8.46-8.75c-.93-4.05-4.41-6.8-7.05-9.77q2.61-6.72,5.8-13.17c2.62,3.72,4.95,8.24,9.39,10.07,4.55.82,9.23.35,13.82.08-1.55-2.4-3.21-4.73-4.94-7m-127.7-2.52c6.86,7.85,10.91,18.48,9.48,28.95a15.4,15.4,0,0,1-8.18,11.52c-6.51,3.4-14.12,3.78-21.31,3.37-6-.31-12-3.9-14-9.72C-1.61,494.72.84,485.73,6,479.45c1.33-2.19,3.77-.42,5.65-.17-.21,5.92-6,12.8-.83,17.94,5.31,3.31,12.11,2,18,1.63,3.59-.49,9.86-1.94,8.46-6.81-1.81-4.22-5-7.65-7.85-11.15,1.94-4.14,3.79-8.33,5.72-12.47m41.23,34.09,5.1-5.08q3.15,3.31,6.35,6.53c-2.16,2.14-4.35,4.25-6.6,6.29-1.61-1.64-3.21-3.26-4.83-4.88-1.55,1.69-3.11,3.37-4.68,5.07-2.24-2.13-4.44-4.3-6.64-6.45,2.19-2.12,4.37-4.27,6.57-6.38l4.73,4.9m77.46,1.24a43.62,43.62,0,0,1,6.4-6.56l4.93,5.18c1.69-1.72,3.37-3.44,5.05-5.18q3.33,3.21,6.52,6.57c-2.15,2.05-4.3,4.12-6.48,6.13l-5.2-5.12c-1.64,1.74-3.29,3.47-4.93,5.2a87.93,87.93,0,0,1-6.29-6.22m335.9.49c2.15-2.19,4.28-4.42,6.42-6.64,2.43,2.11,4.8,4.3,7.2,6.48-2.14,2.42-4.33,4.78-6.48,7.19-2.46-2.28-4.82-4.64-7.14-7" style="fill:#015baa"/></svg>