<svg xmlns="http://www.w3.org/2000/svg" viewBox="0 0 512 512"><path d="M177.25,25.78C198.15,11.3,222.83,2,248.3.35,268.23-.6,288.57.09,307.76,6.1c39.56,10.67,75.56,34.64,100,67.55-8.33-4.83-16-10.8-24.67-15-21.19-10.59-44.31-17.73-68-19.27-13.26-2.19-26.6.24-39.78,1.72-18,3.48-35.71,9.46-51.36,19.16C205.86,72.09,189.69,87.32,178.52,106,158.23,139.34,153,180.78,162,218.54c2.41,10.51,6.18,20.62,9.89,30.71a195.11,195.11,0,0,1-32.42-52.89A171.67,171.67,0,0,1,128,111.06c3-21.92,11.17-43.31,24.61-61,7.44-8.81,15.22-17.53,24.62-24.3m-58.41,30c5.46-5,10.33-10.73,16.75-14.53-3.06,5.44-7,10.35-9.87,15.89C119,70.91,112.28,84.91,108.94,100a164.26,164.26,0,0,0-5.54,35c.11,11.81-.54,23.77,2.11,35.36,5.47,32.91,22.17,64.12,47.62,85.85,23,19,51.64,31.5,81.55,33.4,7,.62,14.13,1.32,21.16.13a160.62,160.62,0,0,0,44.1-9.14c5.1-1.73,9.92-4.22,15.12-5.63-13.16,13-29.41,22.29-45.8,30.54A163.91,163.91,0,0,1,181.68,321a123.62,123.62,0,0,1-49.27-14.43c-12.7-7.6-25-16.29-34.68-27.66C88.55,267.09,79.87,254.58,75,240.31c-13.79-37.14-12.19-78.9.88-116a186.39,186.39,0,0,1,43-68.54M246,75.5c32.67-14.43,70.14-20,105-10.52C372.86,71.23,394,82,409.5,99c15.57,15.45,25.85,35.59,31.88,56.52,15.34,58.59-3.8,123.34-44.56,167.36-6.8,6.84-13.45,14.06-21.63,19.25,26.77-38.65,39.44-88,30.11-134.5-6.15-31.46-22.59-61-47.14-81.78-25.78-23-60.75-33.62-94.88-34.07-18.74,1.4-37.55,4.3-55.18,11.08-3.38,1.3-6.71,2.75-10.21,3.74A158.14,158.14,0,0,1,246,75.5M339.33,132c8.13,7.62,14.4,17,20.16,26.49,12.58,21.13,21.76,44.51,25.15,69,3.55,28.95,1.07,59.53-12.23,85.89C363.67,330.07,351.61,345.3,336,356c-14.94,11.76-33,18.83-51.31,23.23-17.37,2.54-35.12,4.88-52.61,2-31-2.39-60.53-15.05-86.25-32.19-10.88-6.92-20.19-15.95-29.18-25.15-3.59-3.87-7.56-7.53-10.19-12.18,13,7.48,25.87,15.37,40.08,20.36a167.45,167.45,0,0,0,75.93,11.65c27-2,53.06-12.07,75.11-27.62,17.79-13.6,32.94-31.07,42.51-51.43,10-20.84,14.52-44.13,14.36-67.18a173.78,173.78,0,0,0-10.55-53.26c-1.4-4.12-3.27-8.06-4.54-12.22" style="fill:#5613a2"/><path d="M244.77,120.58c32.36-5.15,68,12.9,80.28,43.78a68.11,68.11,0,0,1-1.32,55.46c-3.85,9.85-11.54,17.35-19,24.57-27,23.3-71,23.72-98,.15-7-6.71-14-13.89-18-22.87-9-18.12-9.72-40.38-1-58.74,9.93-22.76,32.83-38.44,57-42.35Z" style="fill:#ff0087"/><path d="M472,362.19c4.66-3.32,8.19-7.91,12.71-11.41a17.82,17.82,0,0,1-3.05,7.48c-9,12-20.49,21.8-32.61,30.49-8.23,6.43-16.61,12.62-25,18.82a78.72,78.72,0,0,1-10.55,6.81A27,27,0,0,1,420.47,404c8.28-7.17,16.77-14.13,25.65-20.55,9.07-6.56,17.26-14.21,25.92-21.29" style="fill:#5613a2"/><path d="M130.19,421a60.3,60.3,0,0,1,5.32-9.88c2.2,2.18,5.41,4.07,5.79,7.45-.22,3.79-2.19,7.16-4.63,10-2.38-2.18-7.46-3.49-6.48-7.52" style="fill:#5613a2"/><path d="M406.66,426.2c1.51-2.88,2.67-6,4.95-8.43-2.53,14.67-7.27,29.45-4.81,44.49a7.23,7.23,0,0,0,6.7,5c3.21-1.61,3.65-5.73,5.57-8.49a34.37,34.37,0,0,1-4,17.48c-1.58,3.38-5.7,5.92-9.36,4.18-2.9-.69-4.22-3.7-4.93-6.3-1.5-7,.17-14.15.26-21.21-4.73,4.75-8,10.85-13.56,14.79-16.94,13.38-39.66,16-60.56,15-4.34-.4-9.83-.35-12.53-4.43-2.84-4.38-2.15-9.9-1.91-14.84.21-2.14.28-5.1,2.78-5.83.88,3.06.83,7.34,4.27,8.82,6.23,2.62,13.18,2.56,19.83,2.41a109.51,109.51,0,0,0,37.31-6.3c9.26-3.09,18.48-8.55,23.16-17.43,3.3-5.95,3.62-13,6.86-19" style="fill:#5613a2"/><path d="M429.53,440A51.15,51.15,0,0,1,437,419.49c-1.17,9.66-3,19.22-3.8,28.93-.45,4.83-1.3,10.14,1,14.65,1.12,2.36,3.75,3.4,6.25,3.48,3.12-1.53,2.64-6,5.59-7.71a37.06,37.06,0,0,1-5.41,18.28c-2.23,3.71-8.4,4.52-11,.75-2.7-3-2.76-7.18-3-10.95.19-9,1.72-18,2.85-26.91" style="fill:#5613a2"/><path d="M419.56,421.62c2.27,1.87,6.05,3.52,5.69,7a9.93,9.93,0,0,1-4.76,8.1c-2.07-1.64-4.2-3.19-6.32-4.75a87,87,0,0,1,5.39-10.36" style="fill:#5613a2"/><path d="M105.68,431.31c1.79-2.89,2.82-6.73,6.34-8-.29,3.39-2.22,8.57,2.15,10.23,2-1.46,2.7-3.9,3.92-5.9,6.07,3.34,4.14,11.28,1,16.07-2.38,3.47-6.53,7.22-11.06,5.81-2.78-.44-3.86-3.32-5.24-5.37-2.15,2-4,4.37-6.64,5.8-2.17,1.22-5.89,1.07-5.94,4.34-2,15.69-7,31.37-16.72,44-7.06,8-17.07,14-28,13.64-5.16-.4-11.08-1.46-14.27-6-3.59-4.7-4.08-10.89-4-16.58.37-11.9,5.09-23.1,10.81-33.35a10,10,0,0,1,3.07-2.9c-.09,5.86-4,10.54-5.73,16-2.27,6.49-4.3,14.35-.28,20.57,2.6,4.45,8,5.75,12.71,6.38,5.86.74,11.51-1.36,17-3.21,10.5-5.45,17.36-16.45,19.34-27.94,1.64-7-.19-14.24,1.32-21.22,1.12-3.93,6.06-2.49,9.08-3.09,5.49-.05,8.76-5.05,11.14-9.32" style="fill:#5613a2"/><path d="M229.2,437.81c1.73-4.38,2.13-9.48,5.4-13.1-.77,11.75-.14,23.55-1.31,35.28-.59,5.41-2.69,10.47-4.69,15.49-1.16,2.76-2.41,5.7-5,7.34.83-5.73,2.19-11.37,2.88-17.12,1.52-9.25-.62-18.93,2.77-27.89" style="fill:#5613a2"/><path d="M290.29,440.36c1.85-5.24,2.74-11,6.06-15.56a234.68,234.68,0,0,1-.72,28.56c.13,8.56-2.75,16.74-6.2,24.45A13.87,13.87,0,0,1,286,482.3c.64-7.81,2.51-15.47,3.19-23.28.42-6.22-1.05-12.66,1.15-18.66" style="fill:#5613a2"/><path d="M209.48,447.3c1.71-4.68,3.48-9.62,7.05-13.25-2,16.33-2,33.36-8.77,48.67-5.66,11.55-14.62,22.89-27.58,26.31-7.75,1.27-17.17,2.22-23.29-3.8-5.32-4.79-5.9-12.51-5.52-19.21,1.39-12,6.35-23.34,12.52-33.67a4.78,4.78,0,0,1,3.23-2.55c-2.64,10.25-9.91,19.29-9.67,30.28.07,5.09,2.76,10.55,7.9,12.14,16.36,6,36-4.09,41.62-20.33,2.94-7.93-.33-16.63,2.51-24.59" style="fill:#5613a2"/><path d="M269.34,447.58c3.9-2.23,5.94-6.49,9.42-9.24a36.1,36.1,0,0,1-5.19,15.74c-3.4,5.13-10.82,5.31-14,10.69-4,6.48-4.27,15.83-11.52,19.93-5.34,2-11.27,4.15-17,2.59,6-7.06,15.71-9.81,21.25-17.38,3.18-5,4.55-10.91,7.78-15.88,2.21-3.22,6.07-4.47,9.26-6.45" style="fill:#5613a2"/><path d="M133.79,449.38c1-2.62.94-6.47,4.1-7.54-.44,9.29-2.78,18.42-5.66,27.23-1.43,4.13-3.35,8.6-7.47,10.7-5.06,2.57-10.54,4.89-16.29,5,2.73-5.32,8.69-7.78,12.72-12,6.79-6.09,10.43-14.73,12.6-23.41" style="fill:#5613a2"/><path d="M184.48,451.36c3.28,2.65,8,5.08,8,9.91-.78,4.25-2.53,8.89-6.25,11.4a30.6,30.6,0,0,1-8.74-7.06c1.39-5.14,4.56-9.59,7-14.25" style="fill:#5613a2"/><path d="M51.31,467.76c2.24-5,4.44-10,7.56-14.52,3.74,2.82,9.09,6.41,7.33,11.9-1.26,3.37-2.66,8.73-6.83,9.13-2.86-1.95-5.34-4.37-8.06-6.51" style="fill:#5613a2"/><path d="M98.56,486.14c2.26,1.76,4.9,3.36,6.2,6a11.53,11.53,0,0,1-5,11.42l-6-4.38c-1.61,2-2.25,5.84-5.32,5.93-2.68-.82-4.57-3.15-6.83-4.72a62.79,62.79,0,0,1,5.93-12.13,65.15,65.15,0,0,1,6.67,6c1.46-2.73,2.87-5.45,4.38-8.13" style="fill:#5613a2"/><path d="M275.6,489.73c3.35-.74,6,3,7.2,5.77a12.61,12.61,0,0,1-3.7,9.22c-2.56,2.9-5-1.93-7.4-3-2.25,1.56-2.48,5.52-5.56,5.81a15.49,15.49,0,0,1-6.71-4.86,22.77,22.77,0,0,1,5.68-11.39c3.2.47,4.82,3.76,6.67,6.07a32.27,32.27,0,0,1,3.82-7.66" style="fill:#5613a2"/><path d="M429.62,489.15c2.63,1.71,6,3.66,6.4,7.1a12,12,0,0,1-5.34,9.62c-2.28-1.79-4.54-3.57-6.79-5.38a69.69,69.69,0,0,1,5.73-11.34" style="fill:#5613a2"/></svg>