<svg xmlns="http://www.w3.org/2000/svg" viewBox="0 0 512 512"><path d="M256,0q42.24,42.26,84.5,84.5c3.37,3.46,7,6.73,10.14,10.39-23.84.44-47.71.07-71.56.19-39.07,0-78.13.06-117.21,0,1.41-2.58,3.75-4.42,5.79-6.49q40.6-40.61,81.2-81.21C251.3,4.92,253.77,2.57,256,0M160.69,95.43c.19,2.33.25,4.67.23,7-.12,60.49.15,121-.14,181.47q-47.29-47-94.31-94.3,47.3-46.91,94.22-94.18m190.05,40.82c.09-13.85-.2-27.72.16-41.58,28.86,29.36,58.2,58.26,87.23,87.46,2.46,2.65,5.49,4.84,7.35,8-3.49,2.72-6.37,6.09-9.54,9.14q-27.54,27.56-55.1,55.1c-9.83,10.05-20.11,19.68-29.63,30a28.62,28.62,0,0,1-.49-4.11q0-72,0-144M161.87,284.94c62.64-.24,125.28-.09,187.92-.08a59.85,59.85,0,0,1-5.33,5.92l-68.57,68.56c-6.31,6.45-12.93,12.61-19,19.3l-1.56.08c-31-31.42-62.52-62.33-93.48-93.78Z" style="fill:#157215"/><path d="M220.84,123.35a75.66,75.66,0,0,1,43.7-8.55,113.74,113.74,0,0,1,15.88,3.74c1.07.5,2.15,1,3.25,1.45,2.19.72,4.24,1.81,6.47,2.42l-.12.66q1.58.6,3.15,1.23c2.87,2,5.9,3.82,8.76,5.88,1.93,1.81,4,3.43,6.07,5.12l1.86,2c2.56,2.79,4.8,5.88,7.46,8.58,0,.37-.13,1.11-.17,1.49l1-.11a16.55,16.55,0,0,0,3,4.46l-.16,1.45,1.25.12c-.08.48-.23,1.44-.31,1.91l1.51-.11c-.16.49-.47,1.47-.62,2h1.46l-.48,2,1-.05c.65,2.66,2.21,5,2.33,7.83h.58c1.41,5.86,3.34,11.72,3.2,17.82,0,5.1.26,10.24-.31,15.32a92.88,92.88,0,0,1-3.38,13.35c-.49,1.55-1,3.09-1.48,4.64l-.57,0c-.26,2.56-1.75,4.72-2.91,6.94-.43,1-.84,1.94-1.26,2.93l-1.53,1.43c-.14.43-.43,1.3-.58,1.74a48.59,48.59,0,0,0-4.73,6.5l-.44-.18a44.31,44.31,0,0,1-11.06,10.92l.12.47c-2.43,1.49-4.66,3.29-7.22,4.57-.32.34-.95,1-1.27,1.35l-3.23,1.1-.12.74c-2.79,1.51-6.08,2-8.63,3.9l-2.55.37c-11.14,4.62-23.53,4.5-35.37,3.43-7.07-1.56-14.16-3.32-20.64-6.68-2.12-.83-3.8-2.65-6.17-2.82l.19-.65a56.65,56.65,0,0,1-6-3.35l.25-.49a16.43,16.43,0,0,1-3.72-2.62,21.49,21.49,0,0,1-2.6-2c-.65-.66-1.31-1.3-2-1.91s-1.24-1.35-1.83-2a3.41,3.41,0,0,1-1.77-2.38l-.51.18a18.88,18.88,0,0,0-3-3.82,3.5,3.5,0,0,0-2.38-2.52c.09-.29.26-.87.36-1.16-2.07-.82-2.55-3.26-4-4.78,0-.35.05-1,.07-1.38l-1.21-.15c.09-.47.25-1.4.33-1.86l-1.46.07.49-1.89-1.28-.17c.09-.46.25-1.38.34-1.84H187c-4.93-13-7.73-27.06-5.44-40.9,1-5.11,2-10.27,3.95-15.13a79.71,79.71,0,0,1,7.22-14.61,42.89,42.89,0,0,0,3.88-5.84l.45.13c1.39-2.48,3.6-4.32,5.55-6.34,2.37-2.28,4.49-4.89,7.39-6.53l-.17-.48c3.76-2.13,7.08-5,11-6.8" style="fill:#aa7346"/><path d="M411.39,382.65c1.86-1.38,3.48-3.13,5.66-4-.34,3-2.84,5.05-4.63,7.29-2.87,3.53-6.81,5.89-10.35,8.67-10.66,8-21.62,15.73-32.45,23.57-3.95,2.78-7.5,6.08-11.36,9,1.24-4.45,4.74-7.91,8.05-11,14.66-11.66,30.24-22.09,45.08-33.51m-182.29,13c1.43-1.13,2.64-2.76,4.59-3-1.5,4.24-4.63,7.63-7.89,10.61a28.12,28.12,0,0,1-14.38,7.22c-3.59.57-7.11-1.24-10.68-.42-2.2.36-4,1.75-5.91,2.81.92-4.55,4.5-8,8.27-10.4,3.09-2,6.82-.45,10.21-.71,5.84.13,11.4-2.42,15.79-6.14m-49.56,9.11c2.79.53,5.91,2.29,6.23,5.41.15,3.37-2.2,6.1-4.24,8.51-2.14-1.42-4.45-2.57-6.47-4.15-.06-.28-.16-.84-.21-1.12,1.27-3,3.17-5.74,4.69-8.65m81.94,17.73c5.28-5.94,10.24-12.17,15.7-17.94a25.35,25.35,0,0,1-4.4,10.58c-9.09,10.81-18.6,21.28-27.56,32.19,3.65.5,8.31,1.48,9.7,5.41,1,7.91-1.72,16.05-6.57,22.27-1.6,1.95-3.21,4.15-5.73,4.94-2.36.81-5.34,1.12-7.37-.63-1.82-1.69-2.34-4.29-2.59-6.66-.62-5.1.4-10.2,1.11-15.23,1.06-7.38,2.14-14.76,3.18-22.14.33-2.76,1.55-5.3,2.43-7.91.73-1.89,1.12-4,2.55-5.53.3,3.68-.71,7.31-1,11-.46,4.94-1.53,9.84-1.5,14.81v.14l.13-.13c7.55-8.15,14.57-16.78,21.9-25.13m-21.4,36.79c-2.74,1.58-2,5.42-.12,7.38a7.29,7.29,0,0,0,10.17-1.16,4,4,0,0,0-1.85-5.32,10.91,10.91,0,0,0-8.2-.9m136.53-32.47a7.52,7.52,0,0,1,1.48-2,26.84,26.84,0,0,1-.31,4.29c-1.51,9-3.65,17.84-4.22,26.94-.07,2.39-.21,4.92.79,7.18a4.6,4.6,0,0,0,6.37,1.79,27.8,27.8,0,0,0,2.3-2.68c0,5.1-1.33,10.42-4.55,14.48-1.68,2.32-5.32,2.07-7.21.19a9.58,9.58,0,0,1-1.91-5.58c-.85-9,1.31-17.9,2.62-26.75a69.08,69.08,0,0,1,4.64-17.84m-169.89-1a43.2,43.2,0,0,1-.58,7.18c-1,9-1.44,18.12-3.12,27a25.64,25.64,0,0,1-5,11.26c1-10.68,2.12-21.35,3.27-32a122.54,122.54,0,0,1,5.45-13.48m152.52,11c1.5-3.13,3.27-6.13,5-9.14,2.81.61,6,2.39,6.17,5.61,0,3.14-2,5.93-4.14,8.06a23,23,0,0,1-7-4.53M151.46,436c4.07-.46,4.51-5.34,6.3-8.16,1.23,4.26-.88,8.65-2.86,12.36-1.17,2.37-3.85,3.11-6.19,3.79-2.68,12.07-7,24-14.32,34.05-5,6.56-12.07,11.83-20.25,13.5-5.34,1-11.54-.09-15.26-4.33-2.24-2.43-2.95-5.77-3.61-8.9a59.67,59.67,0,0,1-.32-8.06c.13-1.41,2-13,6.14-17.47a15.43,15.43,0,0,1,2.15-2.8c-.28,2.53-1.56,4.75-2.52,7.07-1.78,4.74-3,10.31-.6,15.06,1.81,4,6,6.35,10.25,6.73,8.18.74,16.86-1.49,23.06-7,6.77-6,9.55-15.19,10.29-23.94.39-3.39,0-6.87.81-10.19,1.29-2.53,4.7-1.1,6.93-1.67m205.61-6.77a6.71,6.71,0,0,1-.12,2.14c-1.79,7.65-3.4,15.38-3.78,23.24-.14,3.32.06,6.91,2.08,9.72A3.42,3.42,0,0,0,359,466c1.9-.5,3-2.26,4.4-3.5-.45,5.32-1.41,11.23-5.28,15.2-3.09,2.9-8.07.31-8.79-3.5-1.27-6.62.22-13.37.3-20-.07-.53-.43-.54-.6-.18-3.37,4.87-6.93,10-12.37,12.77-5.94,2.82-11.79,6-18.15,7.77C306,478.15,292.85,480,280,478.15c-3.1-.72-6.73-1.55-8.74-4.22-1.42-5.91-1.59-12.41,1-18.05.59,2.21,1.19,4.53,2.74,6.3a11.48,11.48,0,0,0,7.58,3.74,97.34,97.34,0,0,0,27.59.25c6.26-.9,12.3-2.82,18.37-4.57a56.51,56.51,0,0,0,14.6-6.31c2.35-1.55,4.72-3.38,5.95-6,3.3-6.44,4-13.93,8-20m-178.8,3c2.26-.69,5.27-.75,6.64,1.56a19.62,19.62,0,0,1,.85,17.26,29.91,29.91,0,0,1-8.68,10.41c-3.85,2.78-9.17,3.8-11.74,8.15-2.4,4.09-3.7,9-7.22,12.32-4.51,4.21-10.91,5.52-16.9,5.55,1.34-2.4,3.89-3.63,6.07-5.11,4.2-2.8,8.44-5.7,11.81-9.51,3.1-3.47,3.76-8.38,6.75-11.93,3.68-5,9.73-7.17,15.31-9.24,1.72-.5,1.9-2.42,1.94-3.92-2.6-1.51-5.57.85-8.2-.61a4.06,4.06,0,0,1-2.29-5.2c1.24-3.58,3.5-6.66,5.66-9.73m-59.74,18.49c1-3.34,3.24-6.21,4.85-9.3,2.44.7,5.18,1.91,6,4.57.83,3.66-1.81,6.77-4,9.37-2.27-1.51-5.11-2.48-6.82-4.64m102.94,11.3c.6-1.62,1-3.45,2.4-4.59.14,3.67-1.69,7-2.57,10.47A36.1,36.1,0,0,1,212.74,484c-3.14,3.25-8.07,3.14-12.25,3a6.5,6.5,0,0,1,2.31-2.35c4.46-2.71,9-5.63,12.07-9.95a53.91,53.91,0,0,0,6.6-12.66m149.46,34.38c1.37-2.66,2.91-5.24,4.42-7.84,2.6.77,5.65,2.22,6.07,5.24.27,3.34-1.94,6.26-4.11,8.56a39.62,39.62,0,0,1-6-3.6c-1-.42-.78-1.61-.34-2.36M131,507.34c1.5-3.17,3.3-6.18,5-9.22a8.15,8.15,0,0,1,6.34,5l0,.28c-.27,1.31-.46,2.65-.86,3.94a18.93,18.93,0,0,1-3.43,4.52,26,26,0,0,1-7-4.52m12.12-3.17q1.82-3,3.55-6.06c2.58.61,5.61,2.08,6,5,.55,3.5-1.92,6.38-4,8.89-2.31-1.48-5.14-2.46-6.85-4.67.37-1.08.81-2.12,1.27-3.16Z" style="fill:#040605"/></svg>