<svg xmlns="http://www.w3.org/2000/svg" viewBox="0 0 512 512"><path d="M287.34,9.88c12-4,23.92-9.75,36.8-9.83,3-.52,2.93,3.24,3.71,5.09,3.7,13.83,8.95,27.23,12,41.25-1,2.81-4.61,2-6.88,2.64a222,222,0,0,0-80.44,25.1c-27.72,15.61-51.28,40-62.57,70.1-8.75,19.88-11.53,41.89-11,63.45-.69,21.19,5.18,41.92,12.7,61.53-12.82-23.23-20.71-49-24.35-75.22-.68-18.11-1.64-36.59,3.16-54.26,4-21.14,13.67-40.8,26-58.28,23-31.51,55-56.34,90.89-71.57m-5.16,87.44c6.64-.84,13.05,1.56,19.52,2.64,43.47,8.43,84.32,33.7,108.25,71.37C434,210,443,257.08,438.4,302.14c-1.37,15.53-5.9,30.56-10.59,45.35-.63,3.21-4.53,1.88-6.72,1.68-15-3.43-29.72-8-44.61-12,13.4-27.57,23.11-57.56,24-88.42.48-18.08-1-36.54-7.55-53.56-11.79-35.08-39.27-62.86-70.55-81.54-7.53-3.57-15.11-7.1-22.85-10.21-5.68-2.38-12.09-2.76-17.34-6.16M263,141c17.85-3.68,37.78-1.21,52.57,10.06,18,12.49,27.74,35,26.4,56.65-1.68,11.18-4.35,22.74-11.34,31.92-12.32,17-33.14,28.76-54.52,27.09-31.1.45-59.53-26.26-61.59-57.2a63.93,63.93,0,0,1,20-53.61c8.24-7,17.86-12.66,28.51-14.91m3.5,4c-16.79,3.69-32.45,14.36-40.26,29.92-5.08,10.07-8.37,21.43-7.31,32.78,1.89,14,7.43,27.81,17.93,37.52,16.09,16.2,42.43,21.79,63.41,12.39,14.61-5.28,26.07-17.45,32.11-31.6,12.89-27.37-.68-63.29-28.1-75.78a55.27,55.27,0,0,0-37.78-5.23M82.31,252.24c8.53-8.06,15.6-17.5,24.09-25.6,7.34,8.1,13.6,17.12,21.38,24.83,24.79,27.19,57,49.2,93.65,56.11,40.54,7.72,82.62-5.16,115.85-28.51,13.21-9.32,23.57-21.82,34.47-33.59C361.49,263,347.56,278,332.94,291.92a160.1,160.1,0,0,1-91.06,42c-16.18.16-32.63,1.5-48.54-2.14-13.58-2.59-27.07-5.9-39.85-11.31-25.82-8.85-49.25-24.05-68.84-43-4.38-4.07-8.81-8.19-12.2-13.14,2.06-4.86,6.48-8.19,9.86-12.08" style="fill:#940509"/><path d="M266.51,145.05a55.27,55.27,0,0,1,37.78,5.23c27.42,12.49,41,48.41,28.1,75.78-6,14.15-17.5,26.32-32.11,31.6-21,9.4-47.32,3.81-63.41-12.39-10.5-9.71-16-23.55-17.93-37.52-1.06-11.35,2.23-22.71,7.31-32.78,7.81-15.56,23.47-26.23,40.26-29.92" style="fill:#fecb05"/><path d="M88.42,420.1c1.53-1.94,2.3-3.57,2.33-4.89a4.37,4.37,0,0,0-.07-.61,8.07,8.07,0,0,0-3.82-4.93,5.86,5.86,0,0,0-1.68-.88.65.65,0,0,0-.54.31L78.84,418a1.08,1.08,0,0,0-.19.42,1,1,0,0,0,.19.42,33,33,0,0,1,3.63,2.73,9.83,9.83,0,0,0,2.25,1.7h.34Q86.13,423,88.42,420.1Z" style="fill:#940509"/><path d="M67.33,419.79c.26.18.55.36.86.55s.57.38.8.56l3.55,2.9a.74.74,0,0,0,.53.23c.67,0,1.67-.8,3-2.41a9.53,9.53,0,0,0,.91-1.18l1.11-1.68.23-.46a2.1,2.1,0,0,0,.34-.76,3.48,3.48,0,0,0,.2-.92q0-4.32-5-6.91a1.08,1.08,0,0,0-.5-.11.47.47,0,0,0-.42.26l-5.84,8.9a1,1,0,0,0-.2.53C66.92,419.44,67.06,419.61,67.33,419.79Z" style="fill:#940509"/><path d="M82.5,439.38c-.76.07-1.56,1.09-2.4,3.05A6.44,6.44,0,0,1,76.74,446a24.79,24.79,0,0,0-5.88,3.82,22.29,22.29,0,0,0-4,5.84l-1.7,3.59A17.62,17.62,0,0,1,62,464q-1.78,1.86-12.18,8.74c-1.6,1-2.4,1.83-2.4,2.44s.29.92.88.92a9.19,9.19,0,0,0,1.14,0l7-1.18a10.59,10.59,0,0,0,8.13-6.11c.54-1.12,1.6-3.82,3.21-8.1a9.66,9.66,0,0,1,5.76-5.72,13.33,13.33,0,0,0,8.06-9.13q1-3.56,1.26-4.35a4.56,4.56,0,0,0,.27-1.41A.56.56,0,0,0,82.5,439.38Z" style="fill:#940509"/><path d="M77.16,407.8a8.41,8.41,0,0,0,2.29,1.68,3.27,3.27,0,0,0,2-1.14c2.62-2.78,4-5.08,4-6.92a2.74,2.74,0,0,0-.08-.61,8,8,0,0,0-3.85-4.92,6.07,6.07,0,0,0-1.7-.9.73.73,0,0,0-.48.32l-5.8,8.94a.56.56,0,0,0,0,.84A31,31,0,0,1,77.16,407.8Z" style="fill:#940509"/><path d="M142.55,393.73q12.33-8.26,27.07-19.45a13.51,13.51,0,0,0,2.94-3.19,18,18,0,0,0,1.78-3.11,6,6,0,0,0,.47-1.51c0-.22-.05-.32-.15-.32a1.12,1.12,0,0,0-.5.22q-3,3.13-39.4,27.34-12.6,8.4-14.16,9.7c-1.07,1.1-2.27,2.47-3.59,4.13a12,12,0,0,0-1.87,3.12.43.43,0,0,0,.3.08c.16,0,2.66-1.45,7.51-4.37S134.33,399.24,142.55,393.73Z" style="fill:#940509"/><path d="M114.6,411.58q-1.29,3.59-4.16,13.55-.76,2.37-1.37,17.42a12.7,12.7,0,0,1-2,6.29,7.9,7.9,0,0,1-2.2,2.14,11,11,0,0,0-.22-1.5,9,9,0,0,0-1.74-3.27,4.55,4.55,0,0,0-3.78-1.76c-1.61,0-3.37,1.86-5.29,5.56S91,456.38,91,458a3.76,3.76,0,0,0,1.58,2.65q1.59,1.39,5.1,1.39a7.56,7.56,0,0,0,2.94-.8q-2,6-12.26,12.37c-2.13,1.33-3.2,2.15-3.2,2.48,0,.08.16.12.49.12a18.54,18.54,0,0,0,6.26-1.32,19.85,19.85,0,0,0,4.62-2.12q2.84-2.25,5.58-9c.66-1.62,1.21-3,1.66-4.12a9.7,9.7,0,0,0,.31-.95c.34-.3.69-.61,1-1,1.62-1.57,3.36-4.4,5.19-8.47a34.26,34.26,0,0,0,3.13-11.69q.42-4.05,1-13.53T115.1,413q0-1.56-.15-1.56A.53.53,0,0,0,114.6,411.58Z" style="fill:#940509"/><path d="M170.45,428.23a5.94,5.94,0,0,0-2.59.88q-7.06,3.54-14.59,12.17a49.48,49.48,0,0,0-6,9.45,18.91,18.91,0,0,0-2.13,7.59q0,4.6,3.39,5.84c.54.2,1.53.51,3,.91a17.45,17.45,0,0,1,3.28,1.2,2,2,0,0,1,1.11,1.91,8.47,8.47,0,0,1-1.41,3.76,18,18,0,0,1-4.24,4.78,24.74,24.74,0,0,1-16.49,6,14,14,0,0,1-8.94-2.79,9.11,9.11,0,0,1-3.54-7.58,31.37,31.37,0,0,1,1.68-9.9,155.6,155.6,0,0,1,6.64-15.73,6,6,0,0,0,.45-1.53c0-.23-.07-.34-.2-.34s-.5.47-1,1.41q-11.39,19.17-11.54,34.4a.38.38,0,0,1,0,.19,15.07,15.07,0,0,0,3,9.09c2.51,3.08,6.07,4.64,10.65,4.69a.53.53,0,0,1,.19,0,19.82,19.82,0,0,0,11.57-3.36,25.21,25.21,0,0,0,8.4-8.17,41,41,0,0,0,5.3-10.76,38.57,38.57,0,0,0,2.26-12.49c0-1.89-.34-3.18-1-3.9a9.28,9.28,0,0,0-3.53-2,12.7,12.7,0,0,1-3.45-1.68,2.18,2.18,0,0,1-.94-1.7c0-.62.56-1.7,1.68-3.25a26.68,26.68,0,0,1,4.79-4.82,18.91,18.91,0,0,1,5.77-3.4,14,14,0,0,1,4.1-.88l1.18.3h.16a1.87,1.87,0,0,0,.34-.45,32.6,32.6,0,0,0,3.82-9.09C171.43,428.49,171.09,428.23,170.45,428.23Z" style="fill:#940509"/><path d="M193.27,443.61h0c-.3,0-.65.51-1,1.51s-1,2.88-1.76,5.63-1.59,5.2-2.41,7.35a22.27,22.27,0,0,1-3.15,5.75q-1.92,2.52-9.6,8.48c-2.24,1.7-3.36,2.89-3.36,3.55,0,.15.25.25.76.3a28.31,28.31,0,0,0,7.45-1.81c3-1.08,5-2.11,5.84-3.07q4.08-4.44,7.67-26.62a4.34,4.34,0,0,0,.08-.45A.54.54,0,0,0,193.27,443.61Z" style="fill:#940509"/><path d="M207.47,498.44a7.07,7.07,0,0,0-1.68-.91.72.72,0,0,0-.5.3l-5.8,8.94a1,1,0,0,0-.2.42,1.1,1.1,0,0,0,.2.42,29.1,29.1,0,0,1,3.58,2.71,8.58,8.58,0,0,0,2.29,1.68,3.31,3.31,0,0,0,2-1.15q3.93-4.16,4-6.91a3.51,3.51,0,0,0-.08-.61A8,8,0,0,0,207.47,498.44Z" style="fill:#940509"/><path d="M221.76,417.46a18.8,18.8,0,0,1,2.68,2.12,7.93,7.93,0,0,0,2.34,1.73h.27a2.37,2.37,0,0,0,1.28-.81c.47-.5.83-.88,1.09-1.13l.57-.73a3.94,3.94,0,0,0,.59-.8c.22-.36.42-.66.6-.92a6.64,6.64,0,0,0,.49-.84l.46-1.1v-.23l.15-.73v-.5l-.11-.72s0-.14,0-.34a.84.84,0,0,0-.31-.61,8.53,8.53,0,0,0-2.9-3.1,2.61,2.61,0,0,0-1.6-.95l0,0h-.11c-.31,0-.46.1-.46.31l-5.46,8.32a1,1,0,0,0-.19.49C221.06,417,221.29,417.21,221.76,417.46Z" style="fill:#940509"/><path d="M232.17,416.51a32,32,0,0,1,3.05,2.31,8.91,8.91,0,0,0,2.6,1.77c.81,0,1.93-.93,3.34-2.81s2.12-3.41,2.12-4.63a3.57,3.57,0,0,0-.08-.69,8.51,8.51,0,0,0-4.35-5.08,1.4,1.4,0,0,0-.73-.27.68.68,0,0,0-.53.27l-5.42,8.36A.68.68,0,0,0,232.17,416.51Z" style="fill:#940509"/><path d="M252.15,441.28a.72.72,0,0,0-.62.31c-.16.2-1.15,1.76-3,4.66a4.8,4.8,0,0,1-4.28,2.33q-3.51,0-3.51-3.06a5.83,5.83,0,0,1,1.33-3.47,3.72,3.72,0,0,1,2.89-1.8,5.05,5.05,0,0,1,2.46.52,3.46,3.46,0,0,0,1.64.51c1.17,0,1.76-.74,1.76-2.21a2.61,2.61,0,0,0-1.15-2.22,4.39,4.39,0,0,0-2.63-.84,6.41,6.41,0,0,0-4.81,2.6,29.6,29.6,0,0,0-3.5,6.09q-1.58,3.62-2.1,4.68c-.34.71-.74,1.07-1.18,1.07a6,6,0,0,1-1.51-.23,3.84,3.84,0,0,1-1.68-1.74,6.33,6.33,0,0,1-.72-2.61c.23-.95.19-1.44-.12-1.5h0c-.1,0-.25.12-.46.35l-.83,1.26a15.87,15.87,0,0,0-2.41,8.13,14.26,14.26,0,0,0,.54,3.82,3.42,3.42,0,0,1-3.1,1.8,7.39,7.39,0,0,1-2.19-.92,7.88,7.88,0,0,0-2.89-1H220a4.87,4.87,0,0,0-2.71,1.07c-.43.43-1.49,1.38-3.15,2.84a8.25,8.25,0,0,1-5.6,2.2h-.11q-7.51,0-7.52-8.9v-.34h0s0,0,0,0q0-8.52,3.32-30.81c0-.41-.13-.61-.3-.61-.44,0-1.54,2.63-3.33,7.9q-1,4-2.8,16.89T196,463.81q0,7.11,3.67,10.54a6.68,6.68,0,0,0,4.77,1.87h0q4.08,0,7.37-5,3.93-6.08,6.76-6.07a7.66,7.66,0,0,1,1.48.15h0a5,5,0,0,0,1.1.11c1.73,0,3.58-.89,5.56-2.69s3.12-2.7,3.45-2.73a6.55,6.55,0,0,0,2.39.65,7.43,7.43,0,0,0,1.39-.11q6.76,0,12.18-6.69a35,35,0,0,0,4.11-6.64c1.53-3,2.31-4.77,2.31-5.23S252.42,441.28,252.15,441.28Z" style="fill:#940509"/><path d="M265.32,427.39c-.22,0-.49.38-.83,1.14l-4,9.36q-1.33,3.39-1.71,11.37-.76,15.47-3.13,22.23a5.41,5.41,0,0,0-.39,1.29q0,.27.12.27c.71-.13,1.63-1.28,2.75-3.47a55.46,55.46,0,0,0,3.17-7.85q1.49-4.56,2.33-16.21t1.41-14.33a25.35,25.35,0,0,0,.57-3.25C265.64,427.57,265.53,427.39,265.32,427.39Z" style="fill:#940509"/><path d="M283.62,444.45c-1.63,0-3.4,1.83-5.29,5.48s-2.85,6.35-2.85,8.08a3.78,3.78,0,0,0,1.59,2.65q1.57,1.39,5.09,1.39a7.56,7.56,0,0,0,2.95-.8q-2,6-12.26,12.37c-2.14,1.33-3.21,2.15-3.21,2.48,0,.08.17.12.5.12a18.54,18.54,0,0,0,6.26-1.32,20.28,20.28,0,0,0,4.62-2.12q2.64-2.13,5.57-9t2.94-10.84a10.57,10.57,0,0,0-2.13-6.68A4.5,4.5,0,0,0,283.62,444.45Z" style="fill:#940509"/><path d="M332.55,455.18a24.25,24.25,0,0,0-3.08-1.37,25.15,25.15,0,0,1-3.32-1.51.94.94,0,0,1-.47-.89s0-.05,0-.08l1.53-3q4.39-8.74,4.39-14.28l.23-10.46.46-6.64c0-.89-.1-1.34-.31-1.34s-1.64,3.81-4.31,11.42a36.13,36.13,0,0,0-.57,7.48V440a14.3,14.3,0,0,1-1,5.61q-1,2.19-3,5.65a.65.65,0,0,0-.09.08,16.85,16.85,0,0,0-2.06,7.06q0,4.55,3.4,5.77c.56.2,1.36.45,2.42.76s2,.6,2.79.88a3.59,3.59,0,0,1,1.68,1,2.64,2.64,0,0,1,.48,1.68A8.21,8.21,0,0,1,330.3,472a19.93,19.93,0,0,1-4.2,4.72,24.93,24.93,0,0,1-16.5,6,14,14,0,0,1-8.93-2.8,9.16,9.16,0,0,1-3.55-7.58,31.65,31.65,0,0,1,1.68-9.89,159,159,0,0,1,6.64-15.73q.57-1.53.42-1.68h0a.51.51,0,0,0-.25,0c-.11,0-.22.09-.32.27q-12,19.84-12.14,35.39c0,.1,0,.17,0,.19a14.94,14.94,0,0,0,3,9.09q3.81,4.69,10.65,4.73h.19a19.8,19.8,0,0,0,11.57-3.36,25,25,0,0,0,8.4-8.17,40.71,40.71,0,0,0,5.31-10.76,38.55,38.55,0,0,0,2.25-12.49C334.42,457.58,333.8,456,332.55,455.18Z" style="fill:#940509"/><path d="M348.16,458.12c-.38.84-.84,2.06-1.38,3.67s-.92,2.44-1.18,2.52a4.36,4.36,0,0,1-3.4-1.91,9,9,0,0,1-1.53-5.69v-2h0v-.05q0-8.52,3.33-30.81c0-.41-.13-.61-.31-.61q-.65,0-3.32,7.9-1,4-2.81,16.89t-1.81,15.79h0c0,4.4.73,7.58,2.18,9.51s3,2.91,4.73,2.94q4.35,0,6.95-5.5a21.13,21.13,0,0,0,1.79-8.47,4.74,4.74,0,0,0-.95-2.73A3.64,3.64,0,0,0,348.16,458.12Z" style="fill:#940509"/><path d="M424.43,435.21h-.19c-.28,0-.44.16-.5.46,0,.08-.05.16-.07.25a1.29,1.29,0,0,0-.06.25c0,.07,0,.18-.06.31s-.09.41-.19.85a7.29,7.29,0,0,1-1.09,2.08,5.12,5.12,0,0,1-1.77,1.84,1.85,1.85,0,0,1-1.38.24,3.12,3.12,0,0,0-.87-.17c-.62,0-1.76,1.05-3.44,3.13s-3.57,3.13-5.65,3.13a5.42,5.42,0,0,1-3.3-1.08,3.55,3.55,0,0,1-1.59-2.58c-.08-1-.28-1.49-.61-1.49-.15,0-.37.22-.65.65a13.49,13.49,0,0,0-2.71,7.52,9.26,9.26,0,0,0,.95,4.09,3.06,3.06,0,0,1-1.56,2.06h0a3.51,3.51,0,0,1-1.87.57,1.53,1.53,0,0,1-1.3-.46c-.21,0-.49.41-.84,1.22-.61,1.61-1.52,2.41-2.71,2.41a2.19,2.19,0,0,1-1.65-1c-.22,0-.52.27-.87.88a4.59,4.59,0,0,1-1.3,1.45L387,463a3,3,0,0,1-1.22-.38,5.6,5.6,0,0,0-2.41-.38q-.5,0-5,3.09a7.1,7.1,0,0,1-3.86,1.3h-1a6.66,6.66,0,0,1-2.67-.73,9.52,9.52,0,0,0-3.9-.76,12.09,12.09,0,0,0-5.34,1.64l0,0,0,0a25.19,25.19,0,0,0-6.59,5.63c-2.09,2.46-3.15,4.28-3.15,5.48,0,.36.13.54.37.55a.91.91,0,0,0,.63-.17,14.19,14.19,0,0,1,7.48-2.1c.56,0,1,0,1.26,0l0,0s0,0,0,0a13.61,13.61,0,0,1,2.75.92,11.29,11.29,0,0,0,4.31.84h.19q3.7,0,7.72-4.47c1-1.14,1.9-2.11,2.67-2.9a4.79,4.79,0,0,1,3.59-1.19l1.56.12a4.45,4.45,0,0,0,.76,0,5.87,5.87,0,0,0,2.49-1.38l1.45-1.14a25.83,25.83,0,0,1,3.59-1.38l3.4-2.33,2.1-.65,1.45-1.14h0q3.29-3.51,4.35-4.89a14.84,14.84,0,0,0,2.67.23q4.1,0,7.07-5.73a4.81,4.81,0,0,1,1.81-2,7.77,7.77,0,0,1,2.92-.86q2.87-.79,4.64-5.07a20,20,0,0,0,1.78-7.53C424.93,435.39,424.76,435.24,424.43,435.21Z" style="fill:#940509"/><path d="M462.6,432.73c-1.35-1.88-2.31-2.82-2.9-2.82h0c-.23.3-.78,1.1-1.66,2.38a26,26,0,0,1-1.78,2.43,26.55,26.55,0,0,0-2.69,2.69,25.23,25.23,0,0,0-2.35,2.92q-2.85,5-3.47,6.26a8.35,8.35,0,0,1-2.78,3.06.86.86,0,0,0,0-.17,8.84,8.84,0,0,0-1.73-3.27,4.55,4.55,0,0,0-3.78-1.76c-1.61,0-3.37,1.86-5.29,5.56s-2.89,6.37-2.89,8a3.78,3.78,0,0,0,1.59,2.65c1.06.93,2.75,1.39,5.1,1.39a6.49,6.49,0,0,0,2-.45l0,.65a6.21,6.21,0,0,0,.7-.31c-1.55,3.79-5.51,7.68-12,11.68-2.14,1.33-3.21,2.15-3.21,2.48,0,.08.17.12.5.12a18.54,18.54,0,0,0,6.26-1.32,20.06,20.06,0,0,0,4.62-2.12c1.89-1.5,3.74-4.51,5.58-9,.66-1.62,1.21-3,1.66-4.12a12.12,12.12,0,0,0,.38-1.22,48.09,48.09,0,0,0,3.57-6.15c1.63-3.2,3.37-5.19,5.23-5.95a6.29,6.29,0,0,1,1.8-.23l3.36.34q2.9,0,5.07-3.82a9,9,0,0,0,1.22-4.58A9.23,9.23,0,0,0,462.6,432.73Z" style="fill:#940509"/></svg>