<svg xmlns="http://www.w3.org/2000/svg" viewBox="0 0 512 512"><path d="M243.25,5c3.81-2.89,8.43-5.23,13.34-5a17.37,17.37,0,0,1,12.47,5.81c5.57,5.78,11.57,11.11,17.15,16.88,4.46,3.79,8.27,8.23,12.62,12.13A20.71,20.71,0,0,1,300.76,37c-11.62.48-23.28,0-34.92.26a104.84,104.84,0,0,1-10.64.22l-55,55c-4.89,4.8-9.56,9.81-14.66,14.39-10,10-20,20.06-30.08,30.05,0-15.29,0-30.58,0-45.87,6.7-6.32,13-13,19.61-19.42,5.88-5.23,11-11.22,17-16.38,6.91-7.1,14.25-13.76,21.15-20.88,6.65-5.94,12.68-12.54,19.12-18.71,3.84-3.33,7.18-7.19,10.93-10.61m-136,45.77c5.27,0,10.53-.06,15.78,0,4.72.48,9.47.2,14.2.27,11.55,0,23.09-.09,34.64.08-3.51,4.49-8,8-12,12.09C153.4,69.9,146.46,76.06,140,82.76c-.12,11.5.32,23-.31,34.5q0,28.44,0,56.86c-.09,5.78.24,11.56-.29,17.32-.05,10.35,0,20.71,0,31.06-11-10.9-21.85-21.86-32.79-32.77.13-8.73-.29-17.46.31-26.16v-55c.11-6.78-.26-13.58.3-20.35,0-12.48,0-25,0-37.45M256.83,59.3c2.59-2.5,5.08-5.09,7.65-7.62q70.57,0,141.15,0,0,31.91,0,63.8c-6.57-5.83-12.49-12.35-18.81-18.44-4.65-4-8.8-8.6-13.21-12.89H266.51c-11.59-.09-23.18.17-34.76-.13,3.2-3.68,6.82-7,10.22-10.45,5.22-4.47,9.68-9.75,14.86-14.28M320,98.75c15.41-.16,30.83,0,46.24-.07,5.13,5.34,10.67,10.23,15.82,15.53,4,3.89,7.73,8,11.93,11.61q13,13,26,26c7.28,6.71,14.08,13.93,21.17,20.84,4.09,3.51,7.69,7.55,11.61,11.25,4.62,4.89,7.34,12.24,5,18.82-1.64,4.88-5.78,8.19-9.47,11.52-9.17,9.13-18.29,18.31-27.46,27.43,0-11,0-21.93,0-32.89-.41-4.06-.26-8.14-.3-12.21-4.28-3.6-7.82-8-12.12-11.55-5.92-6-12.18-11.72-18.08-17.76-4.46-3.76-8.24-8.24-12.62-12.08-3-2.79-5.75-5.81-8.73-8.62-4.46-3.77-8.22-8.28-12.65-12.08-5.79-6-12-11.48-17.8-17.44-4.64-4-8.6-8.73-13.27-12.7A39.29,39.29,0,0,1,320,98.75m-74.8,14.55c23.46-2.88,48.06,3.91,66.4,18.9,17.19,13.74,28.91,34.34,31.09,56.32,2.74,23.56-5.68,47.91-21.82,65.2a88,88,0,0,1-61.12,28c-4.12-.1-8.26.19-12.36-.28A88.71,88.71,0,0,1,206.49,267c-17.32-11.65-30.56-29.61-35.42-50-2.41-9.11-2.72-18.64-2-28,2.23-23.36,15.13-45.29,34.08-59a88.43,88.43,0,0,1,42-16.65M58.18,186c11-10.93,21.89-22,32.92-32.84.22,11.34,0,22.69.11,34a107.85,107.85,0,0,1,.29,10.94c4.7,4.83,9.78,9.29,14.45,14.16,3.75,3.24,7.12,6.87,10.68,10.32,4.41,3.83,8.21,8.32,12.68,12.11,5.38,5.54,11.15,10.69,16.53,16.22,3.89,3.31,7.31,7.13,11,10.63,3.42,3,6.42,6.37,9.72,9.46,4,3.34,7.36,7.39,11.29,10.81,2.94,2.68,5.6,5.65,8.51,8.37a43,43,0,0,1,5.47,5.32l-.22.72c-15.18.15-30.36,0-45.54.07-1.94-1.92-3.85-3.89-5.92-5.68-5-4.7-9.56-9.84-14.73-14.33-6.82-6.79-13.6-13.62-20.41-20.41-9.77-9-18.64-18.9-28.46-27.82-4.76-4.74-9.41-9.6-14.39-14.11-3.77-3.41-7-7.64-8.32-12.61A16.28,16.28,0,0,1,58.18,186m311.88-15.66c8.37,8.47,17.2,16.47,25.57,24.94,2.53,2.41,5.37,4.57,7.49,7.36.68,2,.23,4.13.35,6.17.1,6.4-.27,12.82.28,19.2.08,6.16,0,12.33,0,18.5.61,7.83.15,15.68.32,23.52.59,7.61.14,15.25.3,22.88.62,7.61.15,15.25.32,22.87.69,8.55-.05,17.13.46,25.69-4,0-7.93,0-11.89,0-8.25.63-16.55.12-24.81.35-9.07.77-18.21-.3-27.27.63-.12-.22-.38-.65-.51-.87,6.94-7,14.1-13.82,20.8-21.06q5.22-5.2,10.43-10.43a83.3,83.3,0,0,0-.25-9.08c-.27-8.05.27-16.11-.37-24.14,0-6,0-11.94,0-17.92-.6-7.82-.15-15.68-.33-23.52-.75-8.86.18-17.77-.57-26.63-.08-6.37,0-12.75,0-19.14-.56-6.42-.19-12.87-.31-19.3M332.57,281.66c7.83-8.4,16.14-16.33,24.21-24.49.08,5.7-.25,11.42.28,17.11.07,9.53,0,19.08,0,28.61l-23.28,23.28c-6.13,6.24-12.61,12.1-18.68,18.4-4.73,5-9.95,9.4-14.69,14.35-7.34,7.3-14.56,14.73-22.1,21.81-4.31,3.92-7.78,8.94-13.14,11.53-4.78,2.43-10.75,2.92-15.59.39-2.69-1.06-4.51-3.38-6.69-5.17-6.16-6-12.28-12-18.56-17.85-3.92-4.12-8.31-7.74-12.14-11.94,15-1,30.11-.17,45.14-.83q37.61-37.61,75.21-75.2M105.1,276c3.68,3.6,7.19,7.38,11.06,10.78Q126.8,297.37,137.4,308q52.17,0,104.33,0c3.91,0,7.83-.16,11.72.26,8.55.19,17.11-.17,25.66.18-4.48,4.84-9.43,9.19-14.08,13.86-3.2,3.42-6.89,6.33-10.09,9.76-2.76,2.95-5.89,5.49-8.69,8.4q-28.84,0-57.67,0c-2.07,0-4.11-.34-6.17-.33q-38.65,0-77.3,0,0-32.09,0-64.17" style="fill:#2f3394"/><path d="M494.65,428.43c5.9-4.05,11.84-8,17.35-12.6-.36,2.54-2.17,4.52-3.73,6.44-1.76,1.64-3.81,2.94-5.72,4.4-8.46,6.1-17.07,12-25.95,17.49a81.35,81.35,0,0,1-7.62,4.4,17.48,17.48,0,0,1,6-6.88c6.52-4.46,13.12-8.8,19.65-13.25" style="fill:#2f3394"/><path d="M392.94,429.46c3.88-3.37,7.42-7.08,11.22-10.51-.33,2.46-1.88,4.49-3.09,6.58-1.66,2.31-3.91,4.12-5.9,6.13a235.75,235.75,0,0,1-20.32,16.74,29.32,29.32,0,0,1-4.74,3.48,13.94,13.94,0,0,1,4-6.6c6.15-5.43,12.7-10.38,18.84-15.82" style="fill:#2f3394"/><path d="M284.45,442.61c1.47-1.25,3.52-1.19,5.33-1.05a31.65,31.65,0,0,1,7.5,1.66,1.13,1.13,0,0,1,.53,1.7,9.19,9.19,0,0,1-5,4.18,49.85,49.85,0,0,0-9.78,4.8c1.26,1.42,2.81,2.66,3.65,4.4.57,1.86-.59,3.84-2,4.95-1.79,1.18-3.9-.64-5.8.08a9,9,0,0,0-4.29,3.6c-1.38,2.77-2.29,5.75-3.46,8.62-.16.67-.82.92-1.33,1.26,0-2.11.79-4.13.75-6.23a3.17,3.17,0,0,0-3.74-3c-1.72.61-2.55,2.38-3.66,3.7-.83,1.13-2,2-2.8,3.14-1.39,3.62-2.62,7.56-5.44,10.38a17.48,17.48,0,0,1-8.47,2.5c1.92-1.82,4.37-2.93,6.41-4.61a16.85,16.85,0,0,0,4.9-5.9c-2,.36-4.55.82-6.13-.87-1.24-1.2-.77-3-.19-4.45.94-2.26,2-4.62,3.81-6.3,1.1-1.1,3-.66,3.93.4a8.23,8.23,0,0,1,1.82,3.82c2.2-1.26,3.6-3.4,5.08-5.38a4.4,4.4,0,0,1,4.25-2.05c1.48.19,2.27,1.58,3,2.7,1.43-2.45,3.5-4.44,5.11-6.77a18.54,18.54,0,0,1,6.72-8,63.61,63.61,0,0,1,7.12-3.64,28.83,28.83,0,0,0-6.7-1.08c-1.87.22-2.83,2.13-4.34,3.05a8.73,8.73,0,0,1,3.21-5.55" style="fill:#2f3394"/><path d="M146.22,456.58a60.11,60.11,0,0,1,3.08-7.9A26.57,26.57,0,0,1,149,453c-.37,3-.13,6.13-.27,9.2a9.28,9.28,0,0,0,1.61,6.2c1.49,1.81,4.17,1.9,6.28,1.34s2.92-2.47,4.57-3.44c1.23-.25,2.56.22,3.72-.34a9.38,9.38,0,0,0,3.07-3.22c.69-.09,1.6.24,2.14-.37,1.1-1,1.13-2.91,2.56-3.62-.43,3.4-1.49,7.62-5,9-1.45.64-2.38,2-3.75,2.78s-3,.42-4.37,1.17c-2.43,1.91-3.42,5.26-6.27,6.68a6,6,0,0,1-6.26-.89c-1.28,3.13-2.8,6.4-5.59,8.47a5.52,5.52,0,0,1-5.11,1.11,5.27,5.27,0,0,1-2.42-4c.57-.48,1.29-.85,1.6-1.56,1.19-2.54,1.17-5.42,1.22-8.17-.06-5.64.11-11.45,2.15-16.79a12.85,12.85,0,0,1,2-4c-1.25,6.23-.88,12.61-1.17,18.93a23.18,23.18,0,0,1-3.41,11.17c2-.15,4.14-.28,5.77-1.58,2-1.61,2.66-4.32,2.95-6.77.53-5.89-.64-12,1.28-17.72" style="fill:#2f3394"/><path d="M466,454.39a31.42,31.42,0,0,1,3-6.17c-.37,3.81-1.48,7.5-2.06,11.28a80.41,80.41,0,0,0-1.35,13.4,6.33,6.33,0,0,0,1.42,4.6,2.77,2.77,0,0,0,3.54.43c1.51-1.06,1.35-3.31,2.91-4.33a23.14,23.14,0,0,1-2.08,9.32c-.92,2-2.45,4.29-4.9,4.33-2.09.05-3.5-1.91-4-3.74-1.09-4.05-.22-8.28.1-12.38-2.24,2.89-4.28,6-7.22,8.25-6.05,5.18-14,7.44-21.74,8.58a70,70,0,0,1-16.24.41c-2.76-.32-5.78-1-7.66-3.2a6,6,0,0,1-1.21-4.38,53.13,53.13,0,0,1,.92-7.23,2.06,2.06,0,0,1,.82-1.33c.57,1.72.58,4,2.41,5,3.32,1.7,7.14,2,10.8,2.36a72.51,72.51,0,0,0,16.12-.83c4.78-.72,9.62-1.67,13.94-3.93,3.36-1.66,6.75-3.82,8.44-7.31,2-4.12,2.36-8.82,4-13.09" style="fill:#2f3394"/><path d="M481,455.83a24.23,24.23,0,0,1,2.8-6.85c-.66,7.82-2.21,15.57-2.32,23.43,0,1.89.16,4.13,1.79,5.39a2.69,2.69,0,0,0,4-.75c.77-1.09.79-2.75,2.11-3.37a23.66,23.66,0,0,1-2,9.07c-.91,2-2.32,4.26-4.72,4.49-1.86.21-3.38-1.32-4-3-1.25-3.33-.74-7-.36-10.42.75-6,1.44-12.08,2.67-18" style="fill:#2f3394"/><path d="M123.37,451.74c.36-.6.86-1.44,1.67-1.32a9.09,9.09,0,0,1,5.28,2.42,2.94,2.94,0,0,1,.2,3.29,10.55,10.55,0,0,1-4.8,4.92c-4,2.13-8,4.58-10.29,8.63,1.54,1.21,3.53,1.54,5.19,2.53s1.29,3.21,1.23,4.86A30.55,30.55,0,0,1,114.27,495c-3.17,3.32-7.62,5.74-12.33,5.46-3.38,0-6.92-1.68-8.43-4.83-2-4-1.25-8.72-.24-12.92a60.44,60.44,0,0,1,5.4-13.51,19.61,19.61,0,0,1,2.88-4.61c-.44,2.38-1.82,4.43-2.73,6.63-1.84,4.18-3.59,8.59-3.57,13.22a7.21,7.21,0,0,0,5.33,6.89c6.64,1.77,14.12-1.25,18.06-6.78a5.72,5.72,0,0,0,1.24-3.76c-1.8-1.75-4.74-1.33-6.57-3.07-1.18-1.08-1.13-2.83-1-4.28.59-3.52,2.65-6.57,5-9.21,1.44-1.69,3.34-2.95,4.66-4.76l-1.65-1.32c1-2.14,2-4.3,3.05-6.39" style="fill:#2f3394"/><path d="M79.37,457.26c.86-1.75,1.24-3.81,2.66-5.23-1.13,6.15-1.36,12.41-2,18.63a31.35,31.35,0,0,1-4,12.9,7,7,0,0,1-1.55,1.67c1.84-6.58,2.33-13.43,2.73-20.23a20.12,20.12,0,0,1,2.11-7.74" style="fill:#2f3394"/><path d="M177.61,457.94c1-2,1.43-4.25,2.92-5.93-1.11,6.44-1.34,13-2,19.46a31.32,31.32,0,0,1-3.71,11.8,6.61,6.61,0,0,1-1.73,2A89.46,89.46,0,0,0,175.72,466a20.15,20.15,0,0,1,1.89-8" style="fill:#2f3394"/><path d="M44,458.38c1-2.09,1.54-4.52,3.09-6.33-1,6.28-1.33,12.64-2,19a31.3,31.3,0,0,1-3.85,12.39,4.69,4.69,0,0,1-1.67,1.73,75.5,75.5,0,0,0,2.5-15.95c.22-3.65.24-7.46,1.89-10.82" style="fill:#2f3394"/><path d="M366,461.11a31.88,31.88,0,0,1,4.09-9.26c-.89,7-.5,14.08-1.34,21.09a22.39,22.39,0,0,1-4.24,11.75c-2.58,3.46-7.91,3.68-9.77,7.83-1.35,3-2.38,6.81-5.79,8.17a30.82,30.82,0,0,1-9,1.05c.57-1.92,2.57-2.69,4.1-3.71,3.14-2,7-3.35,8.85-6.82,1.49-2.84,2.9-5.93,5.6-7.83,2-1.6,5-2.09,6.27-4.42,1.34-5.86.24-11.95,1.2-17.85" style="fill:#2f3394"/><path d="M224.16,454a6.8,6.8,0,0,1,3.68-1.17,26.73,26.73,0,0,1-2.91,7.39c-4.46-.48-8.31,2.55-11.08,5.7-.76,1.06-2.09,2.34-1.46,3.76,1.31,1.55,3.65,1.49,5.16,2.78,1.27,1.35,1,3.38.88,5.07a31.36,31.36,0,0,1-5.8,15.37,19.12,19.12,0,0,1-9.22,6.93c-3.89,1.14-8.65.92-11.7-2-2.58-2.61-3.08-6.55-2.72-10.05.83-7.63,4.1-14.72,7.8-21.34a6.46,6.46,0,0,1,1.44-1.76c-.89,3.18-2.73,6-3.88,9.1-1.34,3.54-2.68,7.27-2.44,11.12a7.13,7.13,0,0,0,5,6.34,16.46,16.46,0,0,0,12.83-1.73,14.66,14.66,0,0,0,6.54-6.8c.22-.72.65-1.77-.15-2.28-2.15-1.5-5.63-1.07-6.9-3.75-.88-2.83.28-5.79,1.52-8.33A36.1,36.1,0,0,1,224.16,454" style="fill:#2f3394"/><path d="M340.45,454.19c1.18-.64,2.45-1.59,3.87-1.19a23.56,23.56,0,0,1-2.82,7.24c-4.58-.48-8.51,2.7-11.3,6-.7,1-1.87,2.22-1.22,3.5,1.32,1.53,3.64,1.47,5.14,2.76,1.28,1.35,1,3.38.89,5.08-.74,6.55-3.26,13.09-7.94,17.85-2.82,2.75-6.51,4.89-10.53,5-3.46.25-7.34-.87-9.29-3.92-2.14-3.28-2-7.42-1.36-11.13,1.21-6.75,4.15-13,7.48-19a6.4,6.4,0,0,1,1.44-1.76c-.86,3.07-2.61,5.79-3.75,8.76-1.4,3.64-2.81,7.48-2.57,11.45a7.16,7.16,0,0,0,5.32,6.46c6,1.63,12.68-.8,16.86-5.28,1.23-1.45,2.52-3.15,2.45-5.14-1.88-2.15-5.69-1.3-7.2-4-.95-2.14-.28-4.61.52-6.7a35.37,35.37,0,0,1,14-16.06" style="fill:#2f3394"/><path d="M474.47,454.79c2.11,1.07,4.63,2.91,4.21,5.61a9.23,9.23,0,0,1-4.37,5.39c-1.73-1-3.09-2.45-4.75-3.52q2.4-3.79,4.91-7.48" style="fill:#2f3394"/><path d="M350.53,463.4c1.63-2.49,3.21-5,4.93-7.44,1.66.94,3.49,2.07,4.09,4s-.73,3.65-1.85,5c-.74.79-1.55,1.78-2.69,1.88-1.57-1.07-2.95-2.39-4.48-3.49" style="fill:#2f3394"/><path d="M34,462.71c.54-1.38.89-2.89,1.93-4-.92,7.36-1.1,14.91-3.41,22-1.89,5.9-4.82,11.68-9.48,15.88a17.47,17.47,0,0,1-13.1,4.71,10.72,10.72,0,0,1-9.15-6.82c-1.3-3.68-.73-7.69.08-11.42a47.42,47.42,0,0,1,5.57-13.47c0,2-1,3.74-1.71,5.54a29.68,29.68,0,0,0-2.14,7.89A8.13,8.13,0,0,0,6.64,491c4.49,2.56,10.11,2,14.67-.12,4-1.77,6.94-5.31,9-9.11,1.8-3.58,2-7.7,1.86-11.64-.13-2.6,1-5,1.84-7.39" style="fill:#2f3394"/><path d="M68.7,465.12c1.82-1,1.73-3.74,3.79-4.51a17.17,17.17,0,0,1-3.1,8.83c-1.79,2.43-5.32,2.54-7,5.09-1.86,3.08-2.18,7-4.71,9.68-2.19,2.26-5.57,2.18-8.45,2.8-.85.13-2.9.52-2.1-.95,3.44-3.19,8.13-5,11.17-8.67,1.85-2.83,2.73-6.27,5.08-8.77,1.46-1.59,3.51-2.37,5.3-3.5" style="fill:#2f3394"/><path d="M390.69,468.85c1.65-2.4,2.91-5.05,4.53-7.46a24.23,24.23,0,0,1,4.68,5.47c.75,1.33-.24,2.77-.76,4-.83,1.43-1.55,3.11-3,4-1.92.21-3.93-.09-5.77.67a14.58,14.58,0,0,0-6.08,4.91c-2.87,4-5.25,8.52-9.13,11.71a28.42,28.42,0,0,1-10.42,6c.72-1.72,2.37-2.7,3.79-3.78a40.08,40.08,0,0,0,7.18-6.26c3.08-3.55,5.05-7.87,7.85-11.62a50.86,50.86,0,0,1,7.16-7.58" style="fill:#2f3394"/><path d="M244.31,464.45l.92-.76a79.46,79.46,0,0,1-3.49,16.2c-.68,1.87-1.55,4-3.47,4.87a25.7,25.7,0,0,1-8.87,2.51c.89-1.9,2.8-2.93,4.33-4.25,2.41-2,5.13-4,6.57-6.88,1.75-3.74,2.45-7.88,4-11.69" style="fill:#2f3394"/><path d="M14.56,474.37c1.14-1.95,2.29-3.9,3.54-5.77C20,470,22.56,471.27,23,473.82c-.17,2.7-2.18,4.89-4.25,6.44-1.47-1.54-3.24-2.73-4.77-4.19-.13-.64.4-1.16.63-1.7" style="fill:#2f3394"/><path d="M286.36,492.17c1.53-2.55,3.23-5,4.84-7.48,2.09,1,4.44,2.7,4.31,5.27a8.82,8.82,0,0,1-4.39,5.67c-1.79-.83-3.07-2.45-4.76-3.46" style="fill:#2f3394"/><path d="M62.57,504.53c1.49-2.34,2.95-4.72,4.59-7,1.86,1.06,4.12,2.52,4,4.95-.22,1.78-1.43,3.24-2.58,4.56-.5.45-1,1.17-1.81,1-1.57-1.06-3-2.34-4.45-3.53a10.09,10.09,0,0,1-3.48,4.06c-1.83-.65-3.13-2.37-4.8-3.38,1.54-2.43,3-4.88,4.78-7.17,1.35.87,2.86,1.72,3.61,3.22.57,1,.23,2.17.12,3.24" style="fill:#2f3394"/><path d="M483.67,501c2.1,1.09,4.64,2.92,4.21,5.62a9.2,9.2,0,0,1-4.31,5.34c-1.81-.79-3.12-2.44-4.81-3.48q2.39-3.78,4.91-7.48Z" style="fill:#2f3394"/></svg>