<svg xmlns="http://www.w3.org/2000/svg" viewBox="0 0 512 512"><path d="M58.59,0H453.41V395.08q-197.42.12-394.82,0V0m56.47,56.5q0,141.23,0,282.44,140.93,0,281.84,0,0-141.2-.05-282.39-140.91-.08-281.84,0m132.82,88.14a72.34,72.34,0,0,1,8.12-3.07,76.88,76.88,0,0,1,8.53,3.21c26.37,10.52,52.7,21.17,79.11,31.62q20.25,8.34,40.64,16.34c.62.32,1.75.47,1.61,1.44.05,19.83,0,39.68,0,59.52-8.06-2.63-15.75-6.25-23.69-9.22-34.84-14-69.74-27.9-104.57-41.93-2.65-.93-5.16.84-7.55,1.74-19.65,7.93-39.37,15.71-59,23.64-21.69,8.5-43.18,17.58-65,25.8,0-20.08,0-40.15,0-60.23a105.15,105.15,0,0,1,11.17-4.45c14.1-5.84,28.29-11.5,42.5-17.08q34.07-13.68,68.15-27.33M413,441.29c3.91.07,7.82.08,11.74,0,.15,12.34,0,24.68.07,37,.13,2.07.13,5,2.52,5.77,3.17.93,6.57.53,9.82.37a3.54,3.54,0,0,0,3.66-3.45c.28-6-.06-12,.09-18,4.18,0,8.36,0,12.54,0v21c-1.22,4.2-3.11,8.68-7.26,10.76-3.27,2.11-7.28,2.26-11.06,2.12-4.86-.13-9.94.49-14.57-1.34a11.75,11.75,0,0,1-7.53-9.28c-.53-8.77-.42-17.55-.41-26.33.07-6.22-.26-12.46.39-18.66M137.68,446.1c2.18-2.07,4.32-5,7.7-4.74,4.51.09,9.1-.43,13.56.51-6.24,7-13.27,13.27-19.73,20.08a5.21,5.21,0,0,0-1.21,2c1.76,2.5,4.22,4.38,6.28,6.62,3.38,3.64,7,7.08,10.4,10.67a14.8,14.8,0,0,0,3.75,3.17,57.94,57.94,0,0,0,9.41.18,3.84,3.84,0,0,0,3.83-4.21c.09-5.77,0-11.54,0-17.32,4.08,0,8.16,0,12.24,0,.16,6.23-.12,12.47.11,18.7,0,1.71.92,3.58,2.81,3.72,1.72.1,4.82.8,4.95-1.75.31-6.88,0-13.78.11-20.67,4,.06,8,0,11.94,0,.42,6.2,0,12.41.21,18.61.09.85,0,1.89.72,2.53,1.7,2,4.53,1.18,6.79,1.26.37-7.45.16-14.92.1-22.38,4.06,0,8.13,0,12.2,0,.33,6.65-.24,13.35.27,20,.23,3.37,4.38,2.9,6.79,3,3-.27,6.72.76,9.14-1.38,1.59-4.61-.29-9.72,1.22-14.37a11,11,0,0,1,8.74-7.13c3.58-.26,7.18,0,10.76-.11,2.75,0,5.66-.29,8.23.93a10.81,10.81,0,0,1,6.46,9.53c.07,4.55,0,9.11,0,13.67a11,11,0,0,1-4,8.62c-3,2.36-7.1,2.42-10.78,2.39-3.4-.07-6.81.16-10.2-.19-2.73-.29-5.08-1.83-7.45-3.09-2.11,1.26-4.26,2.68-6.76,3-6.26.68-13.19.66-18.43-3.35-3.18,1.91-6.66,3.78-10.5,3.31-3.55.14-6.41-2.23-9.69-3.09-3.1,1.25-6,3.39-9.53,3.12-3.94.45-7.5-1.43-10.85-3.2-2.36,1.09-4.78,2.33-7.46,2.25-16.74-.05-33.49,0-50.23,0a65,65,0,0,1-8.46-.82c-2.31,7.84-8.84,15.22-17.4,15.83-5.19.21-10.39.05-15.58.08a18.14,18.14,0,0,1-12.6-5.45c-3.91-3.6-5.85-8.7-7-13.77V463.1c4.13-.07,8.27-.1,12.4,0,.14,9.57,0,19.15.09,28.72-.22,4.05,3.65,7.13,7.34,7.74,4,.31,8.06.1,12.08.14,4.64.26,9.24-3.78,9.12-8.52,0-9.39,0-18.79,0-28.2,4,.06,8,.05,12,0,.41,6.13-.22,12.28.3,18.4.46,2.94,4,3.25,6.33,3.21,7.35-.12,14.7.17,22-.2-2.21-3.07-5.11-5.51-7.74-8.21-4.08-4.16-8.27-8.23-12.36-12.39,5.61-6.1,11.77-11.7,17.49-17.71m115.93,27.12c-2.44,1.46-1.79,4.69-1.92,7.09s0,5.46,2.54,6.39c2.77.27,5.58,0,8.36.05,2.62-2.64,1.71-6.54,1.79-9.88a3.61,3.61,0,0,0-3-3.9c-2.54-.42-5.28-.68-7.73.25m101.73-30.6c1.46-1.71,3.83-1.2,5.81-1.27,3.93.07,7.88-.17,11.81.17-1.59,2.55-4,4.44-6,6.59-4.6,4.67-9.32,9.23-13.91,13.91-.5.66-1.9,1.69-.84,2.52,5.78,6.06,11.89,11.82,17.71,17.86,1,.87,1.9,2.25,3.4,2.18,3.88,0,7.76,0,11.63,0,2.19.05,3.71-2.23,3.61-4.25.1-5.78-.06-11.56,0-17.34,4.09.09,8.18,0,12.27.05.1,5.3,0,10.6.05,15.9,0,3.33.26,6.82-1.24,9.91a13,13,0,0,1-12,8h-82.1c-3.71,0-7.67.36-11.07-1.44a14.26,14.26,0,0,1-7-11.8c-.1-5-.12-10.1,0-15.15,4.08.1,8.16.08,12.24,0,.09,5-.3,10.12.18,15.15,1.11,1.14,2.83.92,4.28,1,16.62-.19,33.26.17,49.88-.18-2-2.88-4.66-5.12-7.06-7.6-4-4.11-8.2-8.09-12.18-12.23-.73-.46-.52-1.25,0-1.73,7-6.59,13.6-13.58,20.5-20.27M79.67,452.06c3.77,0,7.54,0,11.31,0,0,3.89,0,7.79,0,11.68-3.77-.07-7.54-.05-11.31,0a58.9,58.9,0,0,1,0-11.65m291.44.13c4-.19,8-.16,12.07-.09-.21,3.86-.19,7.73-.05,11.59q-6.06,0-12.1,0c.15-3.83.1-7.66.08-11.48m56.28,48.22c3.77,0,7.54,0,11.31,0,.08,3.84.18,7.7-.09,11.54-3.79,0-7.59,0-11.37,0,0-3.84-.17-7.7.15-11.54Z" style="fill:#f25920"/></svg>