<svg xmlns="http://www.w3.org/2000/svg" viewBox="0 0 512 512"><path d="M156,99.82C189.6,66.73,222.71,33.09,256.37,0c12.82,12.25,25.13,25,37.76,37.47,7.75-6.14,15.15-13,24.63-16.45-.05,13-2.76,26.74,2.53,39.17,3.55,8.92,11,15.26,17.62,21.89,29.66,29.92,59.66,59.51,89.25,89.49C416,185.07,402,196.88,390.11,210.63c7,6.83,13.31,14.6,16.5,24-17.25-1.46-37.34-3.35-50.84,9.93-33.44,32.8-66.31,66.18-99.6,99.14-12.91-12.32-26-24.59-37.76-38,31.13-32.12,63-63.54,94.49-95.3A52,52,0,0,1,361.8,196c9,1.59,16.72,6.65,24.68,10.84-30.54-32-62.74-62.41-93.67-94C281.17,100.52,276.64,82.46,280.29,66c1.55-8.06,5.82-15.13,9.15-22.53C259.06,73.43,229.21,103.89,199,134c-9.21,9.29-22.08,15.06-35.23,15-25.29.88-48.88-16.72-58.18-39.74,17,1.47,37,3.57,50.41-9.43M84,171.55c12.73-12.34,25-25.18,37.8-37.43,32.3,31.54,64,63.64,96.1,95.41,13.46,12.93,18.3,33.42,13.21,51.24-5,19.08-19.76,34.46-37.69,42.17.62-17,3.57-37-9.6-50.41-26.22-26.72-53-52.89-79.2-79.61-6.83-7.19-14.52-13.55-20.62-21.37Z" style="fill:#00a652"/><path d="M243.81,117.49c15.05-2.8,31.37.08,43.78,9.29,18.54,12.91,27.22,38.05,21.06,59.73-6.86,25.2-32.87,43.72-59.07,40.27-26.76-2.12-49.45-26.31-49.7-53.18-1.45-26.18,18.2-51.2,43.93-56.11Z" style="fill:#f7941f"/><path d="M410.48,352.76a54,54,0,0,1,14.64,1.74,6.54,6.54,0,0,1,4.77,7.64c-.87,6.35-5.7,11.2-10.39,15.16-9.87,8.16-25,7.43-33.19,18,4.6.21,11.6-1.08,13.57,4.47,1.33,6.26-1.46,13-6.39,16.93-6.59,5.43-14.61,8.9-22.83,11-5.7,1.32-10,5.48-14.85,8.47-33.14,22-70.35,39.54-110.23,44.21a361.21,361.21,0,0,1-55.91,1.22c-11.56-.93-23.35-2.19-34.1-6.81-5.64,10.35-9.48,22-17.6,30.77-2.9,2.88-6.76,6.79-11.2,4.79-.64-4.38,3-7.45,5.46-10.51,11-11.8,16.48-27.3,24.31-41.13,1.5-2.64,4.22-4.77,7.36-4.7,6.1,0,11.55,3.32,17.54,4.16,21.13,3.68,42.74,4.05,64.12,2.61a225.06,225.06,0,0,0,88.07-24.57c5.49-3.18,11.89-6,14.91-12,4.74-8.74,9-17.81,14.9-25.84,1.94-2.45,4.22-5.21,7.53-5.59s6.08,1.8,8.73,3.43c6.08-9.17,15.48-15.12,25.08-20-1.67-.2-3.35-.33-5-.49a68.2,68.2,0,0,1,10.71-23m-45.81,52.68c-5.22,5.95-9,13.08-12.08,20.35,6.31-2.51,11.93-6.46,17.36-10.46,2.59-2.26,6.32-5.45,4.68-9.27-1.87-3.95-7.45-3.87-10-.62m17.48,1.09c-5.47,4.88-9.11,11.41-12.68,17.73,8.44-2.67,17-6.55,22.7-13.56,1.49-1.57,2.28-4.61.07-5.95-3.1-2.69-7.44-.45-10.09,1.78m96.29-8.81C490,387,500.77,375.49,512,364.48c-3.51,10.6-11,19.24-18.84,27-10.52,10.15-21.52,19.77-32.54,29.37-3.9,3.27-7.55,6.91-12.07,9.35,1.26-5.17,4.79-9.33,8.57-12.9,7-6.67,14.22-13,21.32-19.55m-376.3-3.34c1.55-2.18,2.7-4.75,4.75-6.51,3,.1,5.46,3.23,6.28,6,.08,3.89-3,6.75-5.44,9.4-2.16-1.49-4.2-3.13-6.28-4.73a22.92,22.92,0,0,1-5.15,6.89c-2.19-1.77-5.37-3-6.47-5.72a37.49,37.49,0,0,1,6.28-10.37c2.09,1.6,4.08,3.32,6,5.08m-21.76,5.38a8.84,8.84,0,0,1,6.68,6.87c-.59,3.62-3,6.59-5.87,8.78-1.92-1.52-3.81-3.09-5.76-4.57-1.78,2.14-2.82,5.87-5.91,6.28-2.32-1.16-4.18-3-6.13-4.69a58.1,58.1,0,0,1,6.14-10.76,31.59,31.59,0,0,1,6.52,4.93c1.43-2.28,2.88-4.56,4.33-6.84m362,52.86c2.19-7.39,3.71-15.59,9.21-21.35C450,441.74,447,452,446.41,462.62c-.16,3.55-.6,7.34,1,10.67,1.2,2.34,4.53,3.9,6.83,2.09,1.7-1.91,2.66-4.35,4.34-6.28.24,4.87-1.26,9.66-3.24,14-1.5,3-4,6.27-7.66,6.22-3.44.12-5.7-3.14-6.35-6.16-1.37-6.6-.05-13.33.37-19.95-4,4.31-7.07,9.56-11.91,13.08-11.13,9.5-25.91,12.86-40.06,14.66-8.29.38-17,1.32-24.95-1.54-4.24-1.46-5.37-6.4-5.1-10.39s-.12-8.38,2.19-11.84c.58,4.57,2.9,9.34,8,9.92a104.63,104.63,0,0,0,46.53-3.58c10.6-3.62,22.2-9.54,25.95-20.94m32.35,13.73c1.58-11.59,2-24.09,8.67-34.16-.45,12.55-3.83,24.91-3.57,37.49-.11,3.69,3.42,7.9,7.33,6.05,2.08-1.82,3-4.61,4.94-6.56-.23,6.32-1.88,13-6,17.89-2.44,3.09-7.8,3.14-9.84-.39-3.62-6.12-1.93-13.63-1.53-20.32M112.55,442.77c1.41-3.38,2.34-7.34,5.34-9.72-.33,7.16-1,14.31-1,21.49,0,7.45-1,15.13-4.76,21.68a9.79,9.79,0,0,1-3.18,3.19c.44-4.44,1.65-8.78,1.74-13.25.35-7.8-1.07-15.91,1.83-23.39m-83.43,19c1.35-9.43,2.32-19.45,7.75-27.57-.1,12.27-3.73,24.31-3.33,36.61.11,5.48,5.74,10.22,11.17,8.33,4.24-.84,5-6.08,8.42-8a66.91,66.91,0,0,1,6.81,1.41c4-5.44,6.65-12.66,13.22-15.52,2.34-1.25,6-.42,6.7,2.41.91,4.1-1.41,7.94-2.62,11.72,4.52-2.63,7.46-7,11.31-10.4,2.61-.41,5.29,0,7.93-.11-.06-2,.64-4.92-1.63-6-2.52-.21-5.37.91-7.63-.58-2.45-2.65,0-6.06,1-8.81,1.36-2.81,3-6.94,6.84-6.57,5.15,1.37,7.75,7.36,7.48,12.33a30.92,30.92,0,0,1-6.66,15.9c-2.14,2.87-5.93.53-8.79,1.41-3,2.17-5.25,5.19-8.41,7.11a67.55,67.55,0,0,1-14.78,6.14c-4.45,1.36-9.16.28-13.27-1.61C47,483.85,44.84,490,39,491a9.05,9.05,0,0,1-10.68-6.95c-1.35-7.39,0-14.93.83-22.31M70,463.27c-3.28,2.22-5.15,5.93-7,9.32,5.42-.18,10.2-3.34,13.29-7.65-1.77-1.33-4-2.61-6.28-1.67m389.18-14.73c.76-4.25,3.18-8,5.88-11.28,2.73,1.68,5.86,3.6,6.78,6.89-.86,3.37-2.48,7.25-5.53,9.08a21.26,21.26,0,0,1-7.13-4.69M12.48,454.36C17,456.3,20.93,460,21.9,465c1.8,12.82-8.64,26.18-21.9,26.24,4.7-5.22,11.71-8.26,15.26-14.58-1.31-4.55-5.86-6.93-8.78-10.34,2-4,3.91-8,6-11.92m464.63,52.7c1.57-4.08,3.11-8.51,6.67-11.33,2.36,1.91,5.13,3.7,6.34,6.63-.51,3.73-2.89,6.83-5.2,9.64a62.37,62.37,0,0,1-7.81-4.94Z" style="fill:#231f20"/></svg>