<svg xmlns="http://www.w3.org/2000/svg" viewBox="0 0 512 512"><path d="M217.75,2.54C270.13-7,326.43,10.73,364.64,47.67a421,421,0,0,0-65.32,102.92c-3.32,7.36-5.74,15.11-9.8,22.11-11.77-22.4-27.24-43.49-48.42-57.84a107,107,0,0,0-56.18-19.22c-2.9-.1-5.68.72-8.47,1.32,4,8.17,9.13,15.72,12.32,24.27C198,145,202.09,170.32,209.3,194.71c6.64,23.33,16.15,46.19,30.78,65.7a171.08,171.08,0,0,0,45.29,41.65c2.5,1.62,7.07,4.21,8.58,0,2-9.59,2.3-19.5,4.42-29.11,10.73-55.22,34.31-107.69,66.8-153.49,26.73-37,60.36-70.5,102-90.24,4.42-1.88,8.79-4.71,13.79-4.43.05,5.58-4.26,9.91-6.21,14.9-12.69,27.55-19.16,57.35-26.64,86.6-9.61,38-18.4,76.58-35.46,112.07-17.83,37.37-48.24,68.75-85.64,86.72C290.1,343,247,348.54,207,339.17c-38.74-8.84-73.87-31.89-97.85-63.51A171.72,171.72,0,0,1,217.75,2.54Z" style="fill:#289925"/><path d="M507.09,364.24A19.3,19.3,0,0,1,512,361c-3.46,10.5-12.23,18-20.75,24.48-9.73,7.76-19.76,15.15-29.29,23.16l-3,1.28a30.46,30.46,0,0,1,8.18-12.25c12.9-11.65,27.25-21.57,40-33.4M55.46,387.53a40.92,40.92,0,0,1,6.37-12.19c-1.06,11.52-1.4,23.21-4.5,34.44-3.21,12.59-9.86,25-21,32.25-1.31,1.12-3.43,1.84-3.48,3.85-.88,7.06-1.57,14.35-4.92,20.79-2.21,4.19-3.59,9.26-7.86,11.91,2.61-10.54,4.77-21.17,6.76-31.85-6.15.88-13.08,1.73-18.59-1.82-6.07-3.8-8.49-11.36-8.27-18.2.5-9.5,4-18.51,8.25-26.93a47,47,0,0,1,6.49-10.29c-.57,7.7-5.86,13.89-7.79,21.22-1.8,6-1.73,13.56,3.19,18.09,5,4,11.87,4.07,17.88,3.17,10.71-1.56,19.77-9.4,24.19-19.06,3.25-8.1.44-17.18,3.24-25.38M439.3,397c1.2-5,4.11-9.38,6.53-13.86,3,2.27,6.86,4.51,7.47,8.57a14.9,14.9,0,0,1-5.9,11.57,27.35,27.35,0,0,1-8.1-6.28m-96.24-13c2.77,2.06,6.12,4,7,7.69.1,4.44-2.51,8.35-5.73,11.19-2.58-2.07-5.14-4.14-7.59-6.36,2-4.24,4-8.46,6.35-12.52m7.27,12a75.94,75.94,0,0,1,6.52-12.88c2.46,2.24,5.88,4.15,6.62,7.67.44,4.45-2.53,8.21-5.3,11.36-2.68-2-5.28-4-7.84-6.15m-49.17.89c1.18-4.66,3.79-8.77,6.26-12.84,2.7,2.4,6.73,4.66,6.71,8.75a14.79,14.79,0,0,1-5.34,9.86,24.87,24.87,0,0,1-7.63-5.77M103.58,413.51c1.24-9.52,4.1-19.09,9.6-27-.81,10.36-1.55,20.9-4.35,30.95-2.63,5.94-4.58,12.75-9.84,17,1.13-7.05,3.52-13.83,4.59-20.88M264.9,401.22c1.83-4.56,3.55-9.23,6.38-13.29-.17,5.12-1,10.18-1.54,15.26-1,7.62-1.33,15.58-4.73,22.62-2.07,4.16-3.57,8.92-7.51,11.75,1.19-7,3.62-13.75,4.64-20.79.92-5.19.71-10.63,2.76-15.55m-67.6.48c1.95-4.12,3.58-8.47,6.27-12.18,4.18,1.46,8.57,6.14,6.49,10.85-.85,3-2.91,5.38-5,7.6-2.65-2-5.25-4.09-7.77-6.27M24.45,403.6a73.84,73.84,0,0,1,7.22-13.89c3.2,2.31,7.59,4.29,8.42,8.57.82,4.92-3.32,8.54-6.18,11.91-3.27-2-6.39-4.27-9.46-6.59m218.66,2.17c3.83-4.71,5.31-10.88,9.51-15.33-.87,6.51-4.1,12.33-7.23,18A36.87,36.87,0,0,1,230.8,423.1c-4.9,2.65-10.79,4.84-13,10.47,6.11.32,12.14-.83,18.23-1.24-3.61,7.09-9.61,12.5-15.16,18-2.78,3.11-7.16,3.64-10.38,6.1-3.63,2.66-8,4.18-11.37,7.18-2.07,1.86-5,1.64-7.55,1.81-4.67,4.27-8,10.45-14.41,12.45-5.21,2.24-10.66-.1-16-.37-4.27-.1-7.33,3.19-10.86,5,.41-3.62,2.81-6.51,5-9.28,3.5-4.26,7.87-8.34,13.48-9.38,5-1.07,9.89,2,14.84.49,3.85-1,6.41-4.35,9.8-6.19,2.24-.74,4.67-.51,7-1a23.15,23.15,0,0,0,4-3.69l2.89.42c1.15-1.21,2.3-2.43,3.43-3.66l2.63-.08c1.24-1.62,2.54-3.35,4.72-3.66,3.84-.75,5.56-4.56,7.66-7.42-4.71-.11-9.52.38-14.15-.69-1.24-3,1.76-5.88,3.29-8.28,7.53-10.24,20.48-14.31,28.2-24.31m-81.87,1.17a15.32,15.32,0,0,1,10.81,2.52c2.14,2.39.52,6.26-1.14,8.54-3.73,4.29-8.17,7.95-11.57,12.53-5,6.13-6.34,14.31-11.23,20.48-.07-2.92,1.54-6.15.12-8.86-4.7-2.2-10.63-2.43-15.15.37-4.22,2.55-7.6,6.23-10.7,10-6,7.79-11.93,15.76-19.39,22.23-6.32,4.89-13.39,9.07-21.15,11.15,6.09-6,14.38-9,20.56-15a117.06,117.06,0,0,0,17.92-22.58c4.84-8,11.31-15.61,20.17-19.21,4.64-2,9.87-1.12,14.33.92,1.81-2.43,3.61-4.87,5.47-7.26-1.83-1-5.63-.87-5.5-3.71a30.58,30.58,0,0,1,6.45-12.18m321.24,37.15c1.71-12,2.09-24.91,9.29-35.26-.88,14.8-6,29.36-4.22,44.29a5.55,5.55,0,0,0,5.39,5.62c4.82.93,5-5.78,7-8.58.34,7.09-1.3,14.67-6.09,20.12-1.78,2-4.64,3.84-7.38,2.66-3.77-1.7-5.25-6.18-5.43-10-.25-6.3.76-12.56,1.47-18.81M457.87,411.9c.61.66,1.22,1.33,1.84,2-1.6,10.83-3.95,21.6-4.27,32.57,0,3.35,0,6.83,1.4,9.94,1.31,2.2,4.2,2.5,6.52,2.4,2.81-2,3.24-5.76,4.82-8.62.42,7.14-1.31,14.73-6.12,20.2-1.78,2-4.65,3.74-7.35,2.54-3.73-1.73-5.2-6.15-5.41-10-.26-6.58,1-13.12,1.08-19.69-4.41,4.55-6.45,10.93-11.44,15C425.49,470,407.62,475.63,390,476.69c-8.85.47-18.4,1.56-26.59-2.63-4.09-2.12-3.86-7.32-3.78-11.24a52.36,52.36,0,0,1,1.74-13.24c.86,2.8,1.2,5.81,2.67,8.39,2.22,2.62,5.82,3.3,9,4,20.62,2.82,41.92-1.12,60.63-10.07a32.46,32.46,0,0,0,18-21.18,121.5,121.5,0,0,1,6.21-18.78M344.64,425.08a40.66,40.66,0,0,1,6.94-12.25c3.06.77,6.3,2.08,7.56,5.24,3.58,7.89.3,17.09-4.59,23.66-2.81,4-7.89,5.14-11.52,8.17-4.55,4.79-5,12.76-11.08,16.23a30.25,30.25,0,0,1-14.13,2.22l-1-1c4.88-4.84,11.92-6.64,16.8-11.51,3.28-2.85,4.89-7,7.06-10.64,2.88-5.8,10.22-6.64,14-11.6-.8-1.09-1.61-2.17-2.41-3.25-2.12,0-4.4.83-6.44,0-1.79-1.08-1.92-3.47-1.27-5.26m-29.1-6c2.3-2.35,7.39-2.57,8.38,1.15,1.22,7.8-3.67,15-9.15,20-3.9,3.92-9.49,5.25-14.88,4.78-2.34,6.88-3.13,14.2-5.79,21-3.91,10.5-10.62,20.31-20.21,26.36-6.41,3.83-14.95,5.76-21.82,2-7.23-4.34-9.24-13.69-8.19-21.54a65,65,0,0,1,12.66-30.39c-.22,5.89-4.06,10.65-5.73,16.12-1.42,4.42-2.66,9.19-1.8,13.85,1,4.91,5.83,8.23,10.62,8.76,7.76.81,16.14-.71,22.21-5.9,8.69-6.7,12.27-18.19,12.24-28.81.15-3.91-.18-8.3,2.29-11.62,1.68-2,4.58-.75,6.83-.91,4.15-4.93,7.52-10.57,12.34-14.9m-8.86,14.87A23,23,0,0,0,321,426.19c-1.77-.77-3.49-2-5.5-1.9-4.27,1.64-6.51,6-8.82,9.64m-227.78.49c1.73-1.92,3.39-3.9,5.19-5.75a38.43,38.43,0,0,1-5.18,14.6c-2.6,3.81-7.59,4.49-10.92,7.43-6.28,5.79-5.5,16.34-13,21.08a23.37,23.37,0,0,1-16.26,2.53C44,469.08,51,466.12,56.54,461.2c5.11-4.71,5.79-12.16,9.82-17.57,3.25-4.28,9.1-5.17,12.54-9.21m-23.76,52.2c2.81,2.19,6.43,4.2,7.3,7.95C63,499.46,60,504,56.5,507.07c-3.39-2.5-6.89-5-9.19-8.67a13.84,13.84,0,0,1-5.7,9.49c-2.75-2.19-5.47-4.4-8.11-6.71a98.58,98.58,0,0,1,7-13.78c3.62,2.7,7.94,5.81,7.54,11l1.65-.74a56.29,56.29,0,0,1,5.44-11M477.5,505.46a41.67,41.67,0,0,1,7.07-14c3.28,2.53,8.38,4.82,8.26,9.66.18,4.55-3.57,7.79-6.39,10.86a97.49,97.49,0,0,1-8.94-6.54Z" style="fill:#1f1a17"/></svg>