<svg id="Layer_1" xmlns="http://www.w3.org/2000/svg" viewBox="0 0 512 512"><defs><style>.cls-1{fill:#2e3192;}.cls-1,.cls-2{stroke-width:0px;}.cls-2{fill:#f38220;}</style></defs><path class="cls-1" d="M222.42,239.09c.07.09.1.22.08.38-.08.56-.2,1.23-.37,2.03-.17.8-.41,1.58-.72,2.34-.31.77-.7,1.45-1.18,2.06-.48.6-1.06,1-1.74,1.19-.57.08-1.12.22-1.64.43-.52.21-.94.61-1.28,1.22-.4.81-.81,1.48-1.24,2.01-.43.53-.89.93-1.39,1.22-.49.29-1.03.46-1.6.51-.57.06-1.21.01-1.91-.13-.18.22-.38.47-.62.73s-.48.53-.73.81-.49.55-.73.81c-.24.26-.45.5-.65.71l-.91.72c-.91.29-1.35.42-1.31.41l-2.13,1.46c-.69.19-1.43.48-2.25.86l-.91.72c-.57.43-.97.67-1.17.72-.37.13-.65.17-.86.12-.67-.05-1-.07-.98-.07-1,0-1.71.22-2.1.67-.72.72-1.32,1.35-1.82,1.89-.49.54-1.17,1.14-2.04,1.79-.87.65-1.79.99-2.77,1s-1.91-.15-2.79-.51c-.88-.36-1.47-.55-1.76-.59,0,0,0-.02-.01-.02,0,0,0,.01-.01.02-1.98-.16-3.8.27-5.47,1.29-.19.14-.37.15-.54.02-.17-.13-.12-.49.13-1.1.32-.72,1.02-1.71,2.1-2.99,1.08-1.27,2.34-2.32,3.77-3.13,0,0,0,.01.01.02,0,0,0-.01.01-.02,1.16-.61,2.22-.94,3.17-1.02s1.82.07,2.62.43c.8.36,1.54.54,2.25.54.78,0,1.6-.29,2.46-.86,1.86-1.29,2.89-1.93,3.08-1.93.22,0,.53.02.91.07.38.09.67.19.86.29.62.29,1.24.07,1.86-.65.29-.21.55-.5.79-.88.24-.38.43-.57.57-.57.33.43.68.65,1.03.65.75,0,1.31-.5,1.7-1.51.21-.51.38-.77.53-.77.14.19.43.29.86.29.37,0,.74-.12,1.12-.36.19-.13.39-.31.61-.54.22-.23.34-.48.37-.75-.3-.64-.49-1.27-.55-1.9-.06-.63-.04-1.25.07-1.86.11-.61.31-1.21.59-1.79.28-.58.61-1.15.99-1.71.06-.11.14-.21.23-.29s.17-.12.24-.12.14.05.2.14c.06.1.11.26.14.5.03.67.25,1.21.67,1.61.41.41.91.69,1.48.84.57.15,1.17.17,1.79.05.62-.12,1.15-.38,1.6-.78.21-.19.47-.47.78-.84.31-.37.63-.73.97-1.09.33-.36.66-.66.98-.9.32-.24.58-.33.79-.26.37.18.72.17,1.05-.01.33-.18.64-.46.91-.84.27-.37.51-.8.71-1.28.2-.48.35-.92.44-1.34.01-.13.07-.22.15-.28.09-.06.18-.07.26-.06.09.02.17.07.24.17ZM247.37,237.34c-.86-1.19-1.48-1.78-1.86-1.74-.41.53-.69.92-.84,1.17-.72,1.05-1.16,1.66-1.31,1.84-.56.45-1.2,1.07-1.91,1.89-.59.72-1,1.26-1.24,1.63-.94,1.64-1.63,2.88-2.06,3.73-.47.88-1.1,1.58-1.89,2.12-.2-.75-.52-1.43-.98-2.01-.65-.84-1.47-1.25-2.46-1.25-.57,0-1.19.38-1.85,1.15-.66.77-1.27,1.73-1.83,2.9-.56,1.17-.92,2.03-1.1,2.57-.18.54-.29,1.01-.33,1.41-.03.8.25,1.47.85,2.02.6.55,1.35.86,2.26.92.19.03.41.04.67.02.26-.02.52-.04.8-.08.28-.04.54-.1.8-.17.02,0,.04-.01.06-.02l-.04.42c.14-.05.28-.11.42-.17-.32.81-.76,1.59-1.39,2.35-.74.89-1.58,1.71-2.52,2.46-.94.75-2.13,1.58-3.57,2.48-1.44.91-2.1,1.44-1.97,1.6,0,.02.09.02.29.02.46,0,1.17-.12,2.13-.35.96-.23,1.86-.5,2.71-.8.85-.3,1.51-.63,1.97-.99.46-.36,1.01-1.04,1.66-2.04.65-1,1.45-2.66,2.4-4.97.21-.53.4-1.1.57-1.71.02-.07.03-.12.05-.18.35-.45.72-.99,1.12-1.67.06-.13.19-.36.38-.69.19-.33.43-.79.72-1.36,1.08-2.15,2.21-3.47,3.37-3.97.34-.1.71-.14,1.12-.14.21,0,.55.02,1.03.07.29.06.65.11,1.08.14.51,0,.98-.14,1.41-.43.67-.41,1.27-1.07,1.79-1.98.49-.88.74-1.81.74-2.79,0-1.05-.41-2.17-1.24-3.37ZM191.78,282.46c-.2-.06-.51-.03-.92.08-.32.11-.65.26-1,.45-.88.45-1.77,1-2.69,1.66-.92.66-1.87,1.42-2.85,2.27-.99.85-2.18,2.08-3.58,3.69-1.59,2.04-2.84,4.01-3.73,5.91-.89,1.9-1.34,3.54-1.34,4.91-.02,1.07.2,1.87.66,2.4.45.53,1.05.94,1.78,1.21.3.13.7.26,1.19.38s.97.27,1.43.43c.46.16.86.35,1.18.57.33.22.48.49.47.81,0,.7-.31,1.56-.92,2.58s-1.48,2.01-2.62,2.96c-1.13.95-2.43,1.76-3.89,2.41-1.96.89-3.99,1.34-6.09,1.34-2.53,0-4.48-.56-5.84-1.67-1.36-1.11-2.11-2.62-2.26-4.51-.18-1.8.25-4.26,1.29-7.38.46-1.4,1.05-2.87,1.76-4.41.71-1.54,1.41-3.05,2.11-4.55.14-.37.24-.62.27-.76s.04-.24-.01-.29h-.02c-.16,0-.33.12-.5.36-.02.03-.09.17-.24.41-.89,1.56-1.76,3.19-2.61,4.9-.85,1.71-1.61,3.45-2.28,5.23s-1.22,3.59-1.65,5.42c-.43,1.83-.67,3.66-.72,5.47,0,1,.14,2.06.41,3.17.27,1.11.77,2.15,1.48,3.14,1.58,1.94,3.89,2.94,6.93,2.99,2.68,0,5.04-.71,7.1-2.13,1.07-.62,2.05-1.39,2.96-2.32s1.67-1.86,2.29-2.79c1.48-2.04,2.64-4.44,3.47-7.2.84-2.76,1.26-5.21,1.26-7.35,0-1.42-.39-2.39-1.17-2.92-.24-.19-.85-.46-1.83-.81s-1.65-.67-2.02-.96c-.41-.37-.58-.8-.5-1.31,0-.35.33-.98,1-1.9.67-.92,1.64-1.9,2.9-2.94,1.27-1.04,2.47-1.75,3.62-2.13,1.15-.38,2.02-.56,2.63-.56.24,0,.41.04.5.12.09.08.18.1.24.07.06.02.17-.08.31-.3.14-.21.3-.49.48-.84.18-.34.36-.73.55-1.17.19-.44.37-.88.55-1.33s.33-.88.48-1.29c.14-.41.26-.76.33-1.05-.03-.27-.15-.43-.35-.49ZM204.05,292.91c-.22.57-.56,1.66-1.04,3.27-.48,1.61-.97,3.15-1.47,4.62-.5,1.47-1.08,2.64-1.73,3.49-.65.85-1.64,1.84-2.95,2.95-1.31,1.12-2.45,2.05-3.42,2.8s-1.6,1.34-1.9,1.77c-.18.27-.23.44-.17.51s.21.12.45.13c.24-.02.84-.13,1.79-.33.96-.21,2.15-.57,3.57-1.09,1.43-.52,2.4-1.06,2.94-1.64.53-.57,1.02-1.4,1.47-2.5.45-1.09.94-2.67,1.49-4.74s1.17-5.21,1.85-9.41c.1-.4.02-.62-.24-.67-.22-.02-.44.26-.66.84ZM216.64,323.21c-.21-.33-.47-.63-.75-.91s-.6-.54-.93-.78c-.33-.24-.67-.45-1-.65-.13-.08-.25-.12-.36-.13-.11,0-.22.07-.33.23l-3.82,5.83c-.08.14-.12.25-.13.32,0,.07.04.15.15.23.67.41,1.28.86,1.84,1.34.56.48,1.12.95,1.7,1.41.08.09.21.12.38.06s.36-.15.55-.27c.19-.13.37-.26.55-.41.18-.14.3-.26.38-.36.27-.27.53-.55.78-.85s.48-.62.71-.99c.37-.54.62-1.06.75-1.55.14-.49.14-.97.01-1.43-.1-.4-.25-.76-.47-1.09ZM220.08,278.49c.16.09.31.2.47.31.15.11.3.22.44.33.06.03.12.07.17.12.05.05.09.09.14.12.33.27.66.53.97.79.31.26.62.52.94.79.08.08.18.12.31.12h.17l.14-.02c.13-.05.26-.14.41-.29l.12-.07.21-.24c.09-.06.16-.12.19-.17l.12-.14c.06-.05.14-.12.24-.21,0-.02.02-.04.05-.07l.36-.45s.06-.06.07-.1c.02-.03.04-.06.07-.09.03-.03.06-.07.08-.11.02-.04.05-.07.08-.11l.1-.17.26-.41s.01-.04.05-.07c.03-.05.07-.1.12-.16.05-.06.09-.12.12-.2l.09-.19s0-.03.01-.04c0,0,.01-.02.01-.04.03-.06.06-.12.08-.18.02-.06.05-.12.08-.18l.1-.26v-.14l.07-.26s0-.06.01-.1c0-.03.01-.06.01-.09v-.31s0-.07-.01-.11c0-.04-.01-.07-.01-.11-.02-.03-.02-.07-.02-.12-.02-.02-.02-.06-.02-.12-.02-.02-.02-.05-.02-.09,0-.06,0-.1-.02-.12l-.07-.19c-.03-.09-.06-.16-.09-.19-.03-.08-.07-.16-.11-.24-.04-.08-.08-.15-.13-.21l-.21-.26-.26-.33c-.24-.24-.49-.45-.74-.65l-.07-.05c-.1-.08-.19-.15-.28-.2-.09-.06-.18-.11-.27-.16-.06-.06-.12-.1-.17-.12-.03-.03-.06-.06-.1-.07-.03-.01-.06-.03-.09-.05-.05-.03-.1-.06-.17-.1l-.17-.07s-.03-.02-.05-.02l-.02-.02c-.13-.03-.24.02-.33.14-.02.02-.02.03-.02.05l-3.42,5.21c-.08.13-.12.22-.12.27s.04.12.12.2c0,.02,0,.02.02.02ZM226.78,277.84s.04.12.11.21c.61.37,1.16.77,1.66,1.2.5.43,1.01.85,1.52,1.27.11.09.27.14.47.13.2,0,.5-.22.9-.63.32-.29.61-.6.87-.94s.51-.71.75-1.09c.32-.48.54-.94.67-1.39.13-.45.13-.88,0-1.29-.08-.35-.21-.67-.41-.97s-.41-.57-.67-.81c-.26-.25-.53-.47-.82-.68-.29-.21-.59-.4-.9-.57-.13-.08-.24-.12-.33-.13-.09,0-.2.06-.31.2l-3.39,5.23c-.08.13-.12.21-.11.26ZM242.86,290.62c-.19,0-.36.09-.5.29-.29.43-.56.85-.82,1.25-.26.41-.51.8-.75,1.18-.49.8-.96,1.3-1.39,1.51-.43.22-.93.33-1.51.33-1.47,0-2.2-.64-2.2-1.91,0-.38.11-.82.33-1.31.16-.43.5-.88,1.03-1.36.43-.41,1-.62,1.72-.62.32,0,.68.11,1.08.33.38.21.73.31,1.05.31.73,0,1.1-.46,1.1-1.39,0-.6-.25-1.07-.74-1.41-.51-.34-1.05-.5-1.62-.5-1.07,0-2.07.54-3.01,1.63-.64.81-1.12,1.6-1.46,2.37-.37.73-.71,1.45-1.03,2.16-.32.71-.64,1.4-.95,2.07-.26.54-.47.81-.65.81-.38,0-.75-.05-1.1-.14-.51-.27-.89-.71-1.16-1.3s-.35-1.31-.28-2.14c0-.11-.04-.18-.13-.22-.09-.03-.19.04-.32.22l-.53.79c-1.48,2.52-1.87,5.01-1.17,7.48-.13.22-.31.44-.55.66-.24.22-.53.35-.88.42-.43.08-1.04-.09-1.83-.51s-1.41-.63-1.85-.63c-.51-.02-1.09.21-1.74.67-.46.45-1.18,1.09-2.14,1.92-.96.84-2.1,1.25-3.4,1.23-3.2,0-4.77-1.93-4.71-5.78,0,0,0,0,0,0,0,0,0-.02,0-.03,0-.56.04-1.49.12-2.8,0-.21.06-.92.18-2.15.12-1.23.35-3.26.68-6.1s.7-5.59,1.1-8.23c-.06-.46-.21-.52-.43-.17-.33.78-.66,1.57-.97,2.37-.31.8-.6,1.59-.87,2.37-.24.94-.49,2.17-.74,3.7-.26,1.53-.48,2.97-.68,4.33-.2,1.36-.49,3.62-.88,6.77s-.59,5.03-.59,5.64c0,2.12.45,3.94,1.36,5.47.91,1.51,2.25,2.28,4.01,2.29,1.66,0,3.25-1.15,4.78-3.44,1.23-1.88,2.33-3.01,3.3-3.39.37-.13.91-.13,1.62,0,1.27.27,2.6-.21,3.98-1.43,1.38-1.23,2.16-1.86,2.35-1.89.86.37,1.65.48,2.37.33,1.16,0,2.33-.27,3.51-.81,1.45-.67,2.82-1.79,4.11-3.37.75-.86,1.46-1.95,2.13-3.27.64-1.24,1.24-2.49,1.82-3.75.09-.22.12-.41.07-.57-.05-.18-.12-.26-.21-.26ZM252.32,281.92c-.13,0-.29.24-.5.72l-2.48,5.85c-.32.81-.56,1.79-.72,2.94-.16,1.15-.28,2.54-.36,4.19-.08,1.65-.18,2.89-.29,3.71-.08.88-.18,1.8-.29,2.78-.11.98-.24,1.93-.38,2.87s-.31,1.8-.49,2.62c-.18.81-.38,1.49-.59,2.03-.18.57-.21.86-.1.86.43-.06,1-.78,1.7-2.14.7-1.36,1.31-2.84,1.84-4.44s.92-3.64,1.17-6.1c.09-.81.18-1.73.26-2.75.08-1.02.16-2.07.24-3.14.08-1.08.17-2.12.26-3.14.1-1.02.19-1.94.29-2.75.06-.46.16-1.1.29-1.92s.24-1.4.33-1.73c.08-.3.02-.45-.19-.45ZM212.28,115.55c-4.2,7.65-8.47,15.26-12.55,22.97-1.56,2.94-3.39,6-3.87,9.19-2.25,14.94-4.31,29.92-5.96,44.93-1.05,9.56-6.23,14.87-15.51,14.6-9.37-.27-13.98-5.15-13.28-15.42.98-14.33,2.65-28.62,3.99-42.92.21-2.24.24-4.5.35-6.76-.51-.14-1.02-.28-1.52-.42-.94,1.48-1.97,2.9-2.8,4.44-3.53,6.57-7.45,12.99-10.36,19.83-2.29,5.38-4.37,11.24-4.7,16.99-1.01,17.52-1.01,35.1-1.61,52.64-.68,19.77-.07,39.73-2.7,59.25-5.53,41.06-33.64,65.91-75,67.97-17.94.89-34.42-3.46-47.99-16.22-6.99-6.58-10.09-14.46-8.14-23.73,1.64-7.79,4.03-15.47,6.64-23.01,2.59-7.49,5.85-14.74,8.82-22.1-20.79,23.74-30.71,50.93-24.01,82.2,3.76,17.55,14.47,30.53,32.92,34.42,22.29,4.7,43.76,1.41,62.86-11.24,26.77-17.74,41.82-44.07,51.25-74,6.97-22.11,8.85-45.01,9.67-68.01.15-4.09,1.51-5.44,5.54-5.57,12-.4,20.27-6.53,25.34-17.31,1.47-3.12,3.31-6.06,5.1-9.31,14.96,19.52,34.53,9.6,40.69-5.53,2.57-6.31,4.4-13.13,5.14-19.88.4-3.61-1.48-8.09-3.69-11.21-2.96-4.19-6.14-3.36-8.34,1.39-1.41,3.05-2.87,6.11-3.83,9.31-1.31,4.37-3.65,4.93-7.57,3.21-8.07-3.56-12.78-12.49-11.16-23.55,1.75-12,4.26-23.89,6.42-35.82.64-3.53,1.23-7.08,1.84-10.62-.66-.23-1.32-.47-1.98-.7Z"/><path class="cls-1" d="M437.38,263.98c0-27.45-22.26-49.71-49.71-49.71s-49.71,22.26-49.71,49.71,21.79,49.22,48.84,49.69c.47.02.87.02.87.02,0,0,.47,0,.85-.02,27.06-.46,48.86-22.52,48.86-49.69ZM345.42,267.39h15.21c.45,5.22,1.64,10.36,3.52,15.36h-14.48c-2.33-4.7-3.81-9.88-4.25-15.36ZM429.88,260.08h-15.8c-.28-5.11-1.29-10.17-2.96-15.11h14.43c2.33,4.62,3.84,9.72,4.33,15.11ZM406.76,260.08h-15.43v-15.11h12.01c1.93,4.93,3.09,10,3.42,15.11ZM391.32,237.66v-11.67c3.37,3.7,6.22,7.61,8.52,11.67h-8.52ZM384.01,237.66h-9.53c2.51-4.54,5.7-8.9,9.53-13.01v13.01ZM384.01,244.97v15.11h-16.19c.28-5.1,1.38-10.17,3.27-15.11h12.93ZM360.5,260.08h-15.04c.49-5.39,2-10.49,4.33-15.11h13.53c-1.63,4.95-2.58,10.01-2.82,15.11ZM367.99,267.39h16.03v15.36h-11.98c-2.17-5-3.54-10.14-4.05-15.36ZM384.01,290.06v10.78c-3.18-3.48-5.92-7.08-8.18-10.78h8.18ZM391.32,290.06h7.74c-2.15,3.6-4.73,7.11-7.74,10.51v-10.51ZM391.32,282.75v-15.36h15.32c-.47,5.21-1.78,10.35-3.89,15.36h-11.43ZM413.99,267.39h15.93c-.44,5.48-1.92,10.66-4.25,15.36h-15.05c1.83-5.01,2.97-10.15,3.37-15.36ZM420.88,237.66h-12.76c-2.5-5.12-5.76-10.06-9.72-14.7,9.01,2.36,16.85,7.61,22.48,14.7ZM375.38,223.4c-3.71,4.53-6.75,9.31-9.12,14.26h-11.8c5.3-6.68,12.56-11.72,20.92-14.26ZM354.28,290.06h13.14c2.78,5.28,6.38,10.37,10.77,15.23-9.63-2.21-18.01-7.7-23.91-15.23ZM396.85,305.36c4.31-4.89,7.85-10.01,10.58-15.3h13.63c-5.96,7.61-14.45,13.14-24.21,15.3Z"/><path class="cls-1" d="M387.66,171.58c24.16,0,46.16,9.2,62.72,24.28-3.26-31.78-30.07-56.59-62.72-56.59s-59.46,24.8-62.71,56.58c16.55-15.08,38.56-24.27,62.71-24.27Z"/><path class="cls-1" d="M294.5,264.73c0-24.54,9.5-46.84,25-63.48-31.58,3.45-56.17,30.17-56.17,62.67s23.73,58.29,54.51,62.47c-14.52-16.43-23.35-38.01-23.35-61.66Z"/><path class="cls-1" d="M455.02,200.42c15.97,16.72,25.8,39.37,25.8,64.32,0,23.25-8.53,44.49-22.61,60.81,30.43-4.49,53.8-30.69,53.8-62.37s-25.01-59.68-56.98-62.75Z"/><path class="cls-1" d="M387.66,357.89c-23.85,0-45.61-8.98-62.09-23.72,4.21,30.75,30.55,54.45,62.46,54.45s58.7-24.09,62.57-55.22c-16.58,15.21-38.68,24.49-62.95,24.49Z"/><path class="cls-2" d="M408.96,186.74l-.73.02c-5.96.16-11.15,4.09-12.92,9.78l-3.11,10c-.91,2.94.9,6.02,3.91,6.65h0c7.98,1.66,15.59,4.75,22.46,9.13l.08.05c2.52,1.61,5.88.76,7.34-1.85l5.11-9.11c3-5.35,2.15-12.04-2.11-16.47h0c-5.23-5.43-12.51-8.41-20.05-8.21Z"/><path class="cls-2" d="M457.32,224.41l-.53-.5c-4.33-4.1-10.78-4.99-16.05-2.22l-9.27,4.87c-2.72,1.43-3.62,4.9-1.93,7.47h0c4.47,6.82,7.66,14.38,9.43,22.34l.02.09c.65,2.92,3.62,4.69,6.5,3.89l10.05-2.83c5.91-1.66,10.03-7,10.15-13.14h0c.14-7.54-2.89-14.79-8.37-19.98Z"/><path class="cls-2" d="M464.87,285.24l-.02-.73c-.16-5.96-4.09-11.15-9.78-12.92l-10-3.11c-2.94-.91-6.02.9-6.65,3.91h0c-1.66,7.98-4.75,15.59-9.13,22.46l-.05.08c-1.61,2.52-.76,5.88,1.85,7.34l9.11,5.11c5.35,3,12.04,2.15,16.47-2.11h0c5.43-5.23,8.41-12.51,8.21-20.05Z"/><path class="cls-2" d="M427.19,333.6l.5-.53c4.1-4.33,4.99-10.78,2.22-16.05l-4.87-9.27c-1.43-2.72-4.9-3.62-7.47-1.93h0c-6.82,4.47-14.38,7.66-22.34,9.43l-.09.02c-2.92.65-4.69,3.62-3.89,6.5l2.83,10.05c1.66,5.91,7,10.03,13.14,10.15h0c7.54.14,14.79-2.89,19.98-8.37Z"/><path class="cls-2" d="M366.36,341.15l.73-.02c5.96-.16,11.15-4.09,12.92-9.78l3.11-10c.91-2.94-.9-6.02-3.91-6.65h0c-7.98-1.66-15.59-4.75-22.46-9.13l-.08-.05c-2.52-1.61-5.88-.76-7.34,1.85l-5.11,9.11c-3,5.35-2.15,12.04,2.11,16.47h0c5.23,5.43,12.51,8.41,20.05,8.21Z"/><path class="cls-2" d="M318.01,303.47l.53.5c4.33,4.1,10.78,4.99,16.05,2.22l9.27-4.87c2.72-1.43,3.62-4.9,1.93-7.47h0c-4.47-6.82-7.66-14.38-9.43-22.34l-.02-.09c-.65-2.92-3.62-4.69-6.5-3.89l-10.05,2.83c-5.91,1.66-10.03,7-10.15,13.14h0c-.14,7.54,2.89,14.79,8.37,19.98Z"/><path class="cls-2" d="M310.46,242.64l.02.73c.16,5.96,4.09,11.15,9.78,12.92l10,3.11c2.94.91,6.02-.9,6.65-3.91h0c1.66-7.98,4.75-15.59,9.13-22.46l.05-.08c1.61-2.52.76-5.88-1.85-7.34l-9.11-5.11c-5.35-3-12.04-2.15-16.47,2.11h0c-5.43,5.23-8.41,12.51-8.21,20.05Z"/><path class="cls-2" d="M348.13,194.29l-.5.53c-4.1,4.33-4.99,10.78-2.22,16.05l4.87,9.27c1.43,2.72,4.9,3.62,7.47,1.93h0c6.82-4.47,14.38-7.66,22.34-9.43l.09-.02c2.92-.65,4.69-3.62,3.89-6.5l-2.83-10.05c-1.66-5.91-7-10.03-13.14-10.15h0c-7.54-.14-14.79,2.89-19.98,8.37Z"/></svg>