<svg xmlns="http://www.w3.org/2000/svg" xmlns:xlink="http://www.w3.org/1999/xlink" viewBox="0 0 512 512"><defs><radialGradient id="a" cx="94.89" cy="8391.52" r="80.11" gradientTransform="matrix(1.16, 0, 0, -1.16, 278.68, 8856.11)" gradientUnits="userSpaceOnUse"><stop offset="0" stop-color="#fff"/><stop offset="0.06" stop-color="#faecef"/><stop offset="0.32" stop-color="#e8a0ad"/><stop offset="0.56" stop-color="#d96379"/><stop offset="0.76" stop-color="#ce3753"/><stop offset="0.91" stop-color="#c81c3c"/><stop offset="1" stop-color="#c61234"/></radialGradient><clipPath id="b"><path d="M202.2,216.88a53.2,53.2,0,0,0,106.4,0h0a53.2,53.2,0,1,0-106.4,0Z" style="fill:none;clip-rule:evenodd"/></clipPath></defs><path d="M242.68,9.69l-83.05,49c-21.41,8.74-17,32.34-17,32.34h0l-.37,178.34L186.73,244c-23.16-87.42,55.93-102.28,55.93-102.28h0V71.76c1.32-21.85,17-8.3,17-8.3h0L369.6,126.4,369,92.3c.61-28.41-16.17-32.78-16.17-32.78h0L268.46,9.69a21,21,0,0,0-12.69-4.47,22.53,22.53,0,0,0-13.08,4.47Z" style="fill-rule:evenodd;fill:url(#a)"/><path d="M136.91,278.47l.38-187c-1.62-9.76.56-29.39,20-37.55L239.73,5.28a26.46,26.46,0,0,1,31.72,0l83.61,49.39c4,1.43,19.87,8.95,19.26,37.74l.77,43.24L256.28,67.48c-2.09-1.76-5.26-3.22-6.25-2.82,0,0-1.66,1-2,7.42v74l-4.31.82c-.3.06-30.51,6.1-46.25,31.13-10.58,16.84-12.44,38.57-5.55,64.58l1.05,3.95ZM255.59,10.61a15.74,15.74,0,0,0-9.66,3.29l-.54.36-83.75,49.3c-17.22,7-14,25.68-13.83,26.47l.09,1-.35,169.19,33.08-18.83c-6.47-27.3-3.82-50.52,7.89-69.07,14.62-23.15,39-32,48.87-34.76V71.77c.54-9.15,3.4-14.72,8.51-16.88,7.12-3,14.82,2.55,16.87,4.19l101.38,58.08-.44-24.76c.5-23.64-11.77-27.61-12.29-27.77l-1.27-.54L265.25,13.9A15.76,15.76,0,0,0,255.59,10.61Z" style="fill:#a30c00"/><path d="M265.42,92.16l156,90.32s22.85,8.15,19.85,31l1.69,96.15a20.7,20.7,0,0,1-12.79,22.18l-85.46,47.42s-12.15,12.23-36.73-2.63L277.8,359.91l109.59-62.76s19.67-6.7,1.21-18.86L327.36,243s26.21-75.56-61.82-99.75Z" style="fill:#c61234;fill-rule:evenodd"/><path d="M330.48,389.27c-6.64,0-15.08-2-25.27-8.14L267,360l118.7-67.87c2.78-1,5.41-3,5.52-3.86,0-.37-.76-2.4-5.52-5.54l-64.75-37.31,1.42-4.14c.1-.29,9.67-29-4.1-55-9.45-17.86-27.65-30.61-54.11-37.88l-3.89-1.07-.16-64.36,163.56,94.72c9.33,3.52,25.41,15.28,22.89,36.09l1.68,95.46a25.92,25.92,0,0,1-15.78,27.38l-84.69,47C345.82,385.2,340,389.27,330.48,389.27Zm-41.87-29.44,21.91,12.11c20.5,12.4,30.07,3.85,30.46,3.47l1.13-.83,86.06-47.7a15.36,15.36,0,0,0,9.51-16.5l-.06-.67-1.7-96.55.06-.39c2.39-18.21-15.63-25-16.4-25.3l-.85-.4-148-85.7.09,37.89c27.37,8.28,46.48,22.45,56.85,42.15,12.68,24.1,8.4,49.23,5.92,59.06l57.63,33.23c7.75,5.09,11.19,10.38,10.48,15.91-1,7.64-9.64,11.44-12.08,12.36Z" style="fill:#a30c00"/><path d="M359.17,288.15,202.23,376.79s-18.6,15.55-36.78,1.42l-83.72-47.3A20.69,20.69,0,0,1,69.1,308.66L71.56,211s-4.38-16.67,20.88-30.32l29.67-17.54-1.47,126.31s-4.21,20.34,15.64,10.57l61.47-34.88s51.83,60.9,117.32-2.71Z" style="fill:#c61234;fill-rule:evenodd"/><path d="M182.07,389.41a31.78,31.78,0,0,1-19.56-6.77L79.4,335.69a25.93,25.93,0,0,1-15.6-27.48l2.44-96.82c-.7-4.2-1.84-21.63,23.68-35.42l37.61-22.23-1.7,136.74c-.57,2.88-.17,6.15.54,6.7.28.23,2.44.57,7.56-2l65-36.89,2.86,3.32c.19.23,20.05,23,49.49,24.36,20.23.88,40.41-8.31,60.1-27.43l2.89-2.8,55.55,32.44-164.58,93A38.76,38.76,0,0,1,182.07,389.41ZM116.7,172.46,95.14,185.2c-21.06,11.39-18.54,24-18.43,24.51l.15,1.38-2.52,98.36A15.35,15.35,0,0,0,83.74,326l.6.29L168.71,374c14.49,11.27,29.5-.79,30.14-1.31l.77-.54,148.91-84.1L315.83,269c-21,19.39-43,28.64-65.16,27.62-27.2-1.29-46.69-17.72-53.91-24.84L138.9,304.59c-8.31,4.11-14.63,4.38-19,1-6.09-4.71-5-14.1-4.53-16.68Z" style="fill:#a30c00"/><g style="clip-path:url(#b)"><polygon points="293.85 270.08 308.6 255.83 308.6 270.08 293.85 270.08" style="fill:#f8d790"/><polygon points="291.28 270.08 308.6 253.34 308.6 255.83 293.85 270.08 291.28 270.08" style="fill:#f8d790"/><polygon points="288.7 270.08 308.6 250.85 308.6 253.34 291.28 270.08 288.7 270.08" style="fill:#f8d78f"/><polygon points="286.12 270.08 308.6 248.36 308.6 250.85 288.7 270.08 286.12 270.08" style="fill:#f8d78e"/><polygon points="283.54 270.08 308.6 245.87 308.6 248.36 286.12 270.08 283.54 270.08" style="fill:#f8d78d"/><polygon points="280.96 270.08 308.6 243.38 308.6 245.87 283.54 270.08 280.96 270.08" style="fill:#f8d78c"/><polygon points="278.39 270.08 308.6 240.89 308.6 243.38 280.96 270.08 278.39 270.08" style="fill:#f8d68b"/><polygon points="275.81 270.08 308.6 238.4 308.6 240.89 278.39 270.08 275.81 270.08" style="fill:#f8d68a"/><polygon points="273.23 270.08 308.6 235.91 308.6 238.4 275.81 270.08 273.23 270.08" style="fill:#f8d689"/><polygon points="270.65 270.08 308.6 233.42 308.6 235.91 273.23 270.08 270.65 270.08" style="fill:#f8d688"/><polygon points="268.08 270.08 308.6 230.93 308.6 233.42 270.65 270.08 268.08 270.08" style="fill:#f8d687"/><polygon points="265.5 270.08 308.6 228.44 308.6 230.93 268.08 270.08 265.5 270.08" style="fill:#f8d686"/><polygon points="262.92 270.08 308.6 225.94 308.6 228.44 265.5 270.08 262.92 270.08" style="fill:#f8d685"/><polygon points="260.34 270.08 308.6 223.46 308.6 225.94 262.92 270.08 260.34 270.08" style="fill:#f8d684"/><polygon points="257.76 270.08 308.6 220.96 308.6 223.46 260.34 270.08 257.76 270.08" style="fill:#f8d683"/><polygon points="255.19 270.08 308.6 218.47 308.6 220.96 257.76 270.08 255.19 270.08" style="fill:#f8d582"/><polygon points="252.61 270.08 308.6 215.98 308.6 218.47 255.19 270.08 252.61 270.08" style="fill:#f8d581"/><polygon points="250.03 270.08 308.6 213.49 308.6 215.98 252.61 270.08 250.03 270.08" style="fill:#f8d580"/><polygon points="247.46 270.08 308.6 211 308.6 213.49 250.03 270.08 247.46 270.08" style="fill:#f8d57f"/><polygon points="244.88 270.08 308.6 208.51 308.6 211 247.46 270.08 244.88 270.08" style="fill:#f8d57e"/><polygon points="242.3 270.08 308.6 206.02 308.6 208.51 244.88 270.08 242.3 270.08" style="fill:#f8d57c"/><polygon points="239.72 270.08 308.6 203.53 308.6 206.02 242.3 270.08 239.72 270.08" style="fill:#f8d57b"/><polygon points="237.14 270.08 308.6 201.04 308.6 203.53 239.72 270.08 237.14 270.08" style="fill:#f8d57a"/><polygon points="234.57 270.08 308.6 198.55 308.6 201.04 237.14 270.08 234.57 270.08" style="fill:#f8d579"/><polygon points="231.99 270.08 308.6 196.06 308.6 198.55 234.57 270.08 231.99 270.08" style="fill:#f8d578"/><polygon points="229.41 270.08 308.6 193.57 308.6 196.06 231.99 270.08 229.41 270.08" style="fill:#f8d477"/><polygon points="226.83 270.08 308.6 191.08 308.6 193.57 229.41 270.08 226.83 270.08" style="fill:#f8d476"/><polygon points="224.25 270.08 308.6 188.59 308.6 191.08 226.83 270.08 224.25 270.08" style="fill:#f8d475"/><polygon points="221.68 270.08 308.6 186.1 308.6 188.59 224.25 270.08 221.68 270.08" style="fill:#f8d474"/><polygon points="219.1 270.08 308.6 183.61 308.6 186.1 221.68 270.08 219.1 270.08" style="fill:#f8d473"/><polygon points="216.52 270.08 308.6 181.12 308.6 183.61 219.1 270.08 216.52 270.08" style="fill:#f8d472"/><polygon points="213.94 270.08 308.6 178.63 308.6 181.12 216.52 270.08 213.94 270.08" style="fill:#f8d471"/><polygon points="211.37 270.08 308.6 176.13 308.6 178.63 213.94 270.08 211.37 270.08" style="fill:#f8d470"/><polygon points="208.79 270.08 308.6 173.64 308.6 176.13 211.37 270.08 208.79 270.08" style="fill:#f8d46f"/><polygon points="206.21 270.08 308.6 171.15 308.6 173.64 208.79 270.08 206.21 270.08" style="fill:#f8d36e"/><polygon points="203.63 270.08 308.6 168.66 308.6 171.15 206.21 270.08 203.63 270.08" style="fill:#f8d36d"/><polygon points="202.2 268.98 308.6 166.17 308.6 168.66 203.63 270.08 202.2 270.08 202.2 268.98" style="fill:#f8d36c"/><polygon points="202.2 266.49 308.6 163.68 308.6 166.17 202.2 268.98 202.2 266.49" style="fill:#f8d36b"/><polygon points="202.2 264 306.03 163.67 308.6 163.67 308.6 163.68 202.2 266.49 202.2 264" style="fill:#f8d36a"/><polygon points="202.2 260.43 302.34 163.67 306.03 163.67 202.2 264 202.2 260.43" style="fill:#f8d36a"/><polygon points="202.2 256.86 298.65 163.67 302.34 163.67 202.2 260.43 202.2 256.86" style="fill:#f8d369"/><polygon points="202.2 253.29 294.96 163.67 298.65 163.67 202.2 256.86 202.2 253.29" style="fill:#f8d368"/><polygon points="202.2 249.73 291.26 163.67 294.96 163.67 202.2 253.29 202.2 249.73" style="fill:#f8d367"/><polygon points="202.2 246.16 287.57 163.67 291.26 163.67 202.2 249.73 202.2 246.16" style="fill:#f8d366"/><polygon points="202.2 242.59 283.88 163.67 287.57 163.67 202.2 246.16 202.2 242.59" style="fill:#f8d365"/><polygon points="202.2 239.02 280.19 163.67 283.88 163.67 202.2 242.59 202.2 239.02" style="fill:#f8d364"/><polygon points="202.2 235.46 276.5 163.67 280.19 163.67 202.2 239.02 202.2 235.46" style="fill:#f8d363"/><polygon points="202.2 231.89 272.8 163.67 276.5 163.67 202.2 235.46 202.2 231.89" style="fill:#f8d362"/><polygon points="202.2 228.32 269.11 163.67 272.8 163.67 202.2 231.89 202.2 228.32" style="fill:#f8d261"/><polygon points="202.2 224.75 265.42 163.67 269.11 163.67 202.2 228.32 202.2 224.75" style="fill:#f8d260"/><polygon points="202.2 221.19 261.73 163.67 265.42 163.67 202.2 224.75 202.2 221.19" style="fill:#f8d25f"/><polygon points="202.2 217.62 258.03 163.67 261.73 163.67 202.2 221.19 202.2 217.62" style="fill:#f8d25e"/><polygon points="202.2 214.05 254.34 163.67 258.03 163.67 202.2 217.62 202.2 214.05" style="fill:#f8d25d"/><polygon points="202.2 210.49 250.65 163.67 254.34 163.67 202.2 214.05 202.2 210.49" style="fill:#f8d25c"/><polygon points="202.2 206.92 246.96 163.67 250.65 163.67 202.2 210.49 202.2 206.92" style="fill:#f8d25b"/><polygon points="202.2 203.35 243.26 163.67 246.96 163.67 202.2 206.92 202.2 203.35" style="fill:#f8d25a"/><polygon points="202.2 199.78 239.57 163.67 243.26 163.67 202.2 203.35 202.2 199.78" style="fill:#f7d258"/><polygon points="202.2 196.22 235.88 163.67 239.57 163.67 202.2 199.78 202.2 196.22" style="fill:#f7d257"/><polygon points="202.2 192.65 232.19 163.67 235.88 163.67 202.2 196.22 202.2 192.65" style="fill:#f7d256"/><polygon points="202.2 189.08 228.5 163.67 232.19 163.67 202.2 192.65 202.2 189.08" style="fill:#f7d255"/><polygon points="202.2 185.51 224.8 163.67 228.5 163.67 202.2 189.08 202.2 185.51" style="fill:#f7d254"/><polygon points="202.2 181.95 221.11 163.67 224.8 163.67 202.2 185.51 202.2 181.95" style="fill:#f7d253"/><polygon points="202.2 178.38 217.42 163.67 221.11 163.67 202.2 181.95 202.2 178.38" style="fill:#f7d252"/><polygon points="202.2 174.81 213.73 163.67 217.42 163.67 202.2 178.38 202.2 174.81" style="fill:#f7d251"/><polygon points="202.2 171.24 210.03 163.67 213.73 163.67 202.2 174.81 202.2 171.24" style="fill:#f7d150"/><polygon points="202.2 167.68 206.34 163.67 210.03 163.67 202.2 171.24 202.2 167.68" style="fill:#f7d14f"/><polygon points="202.2 164.11 202.65 163.67 206.34 163.67 202.2 167.68 202.2 164.11" style="fill:#f7d14e"/><polygon points="202.65 163.67 202.2 164.11 202.2 163.67 202.65 163.67" style="fill:#f7d14d"/></g><path d="M255.4,276.27a59.4,59.4,0,1,1,59.39-59.39A59.46,59.46,0,0,1,255.4,276.27Zm0-106.41a47,47,0,1,0,47,47A47.06,47.06,0,0,0,255.4,169.86Z" style="fill:#f1a13a"/><path d="M145.32,464.29V451.68l-2.5,0c-4.85,0-8.74,1.9-10.78,4.93a11.78,11.78,0,0,0-1.63,6.4v10.31a6.26,6.26,0,0,1-6.24,6.26H84.73a6.27,6.27,0,0,1-6.27-6.26V463.09a10.43,10.43,0,0,0-4.95-9,17.52,17.52,0,0,0-9.34-2.37h-.62V476.9A13.07,13.07,0,0,0,76.6,490H130a13.91,13.91,0,0,0,9.12-3.55l0,0A14.18,14.18,0,0,0,148,490h12.53a14.25,14.25,0,0,0,9.45-3.57A14.39,14.39,0,0,0,179.4,490h19.69a10.34,10.34,0,0,0,8.08-3.87c3.71,4.23,10.15,3.87,10.15,3.87h11.43a13.12,13.12,0,0,0,13.08-13.08V464.66a13.07,13.07,0,0,0-12.89-12.93h-21a13.09,13.09,0,0,0-13,12.93v11.91a3.16,3.16,0,0,1-3.17,3H184a6.27,6.27,0,0,1-6.27-6.26V428l-2.5,0c-4.85,0-8.73,1.9-10.77,4.94a11.63,11.63,0,0,0-1.64,6.39v34a6.26,6.26,0,0,1-6.26,6.24H143.78a23.31,23.31,0,0,0,1.54-7.36v-7.95ZM114.2,438.37l6.75,6.75a2.05,2.05,0,0,1,0,2.9l-6.75,6.75a2.06,2.06,0,0,1-2.89,0L105,448.5l-6.27,6.27a2.06,2.06,0,0,1-2.89,0L89.13,448a2.05,2.05,0,0,1,0-2.9l6.75-6.75a2.06,2.06,0,0,1,2.89,0l6.27,6.27,6.27-6.27a2.06,2.06,0,0,1,2.89,0Zm95.08,41.23h15.07a3.16,3.16,0,0,0,3.16-3V464.51a3.16,3.16,0,0,0-3.12-3.16h-12a3.16,3.16,0,0,0-3.15,2.94v15.3Z" style="fill:#231f20;fill-rule:evenodd"/><path d="M399,428l2.5,0c4.85,0,8.73,1.9,10.78,4.93a11.78,11.78,0,0,1,1.63,6.4v34a6.26,6.26,0,0,0,6.24,6.26h10.2a3.16,3.16,0,0,0,3.16-3.15V463a11.67,11.67,0,0,1,1.64-6.4c2-3,5.92-4.94,10.77-4.94l2.5,0V476.9A13.08,13.08,0,0,1,435.37,490H412.11A13.08,13.08,0,0,1,399,476.9V428Zm26.6,67,6.76,6.76a2.07,2.07,0,0,1,0,2.9l-6.76,6.76a2.05,2.05,0,0,1-2.9,0L416,504.64a2.05,2.05,0,0,1,0-2.9l6.76-6.76a2.05,2.05,0,0,1,2.9,0ZM309.17,451.73l-3.13,6.2h6.26a4.94,4.94,0,0,0,4.6-2.83l1.83-4c.83-1.79.63-3.25-.12-4.14a3.19,3.19,0,0,0-2.49-1.21h-2.55l3.13-6.2h-6.26a4.94,4.94,0,0,0-4.6,2.83l-1.83,4c-.83,1.79-.63,3.26.12,4.14a3.21,3.21,0,0,0,2.49,1.21Zm61.57-19.41,6.75,6.75a2,2,0,0,1,0,2.89l-6.75,6.75a2,2,0,0,1-2.89,0L361.1,442a2,2,0,0,1,0-2.89l6.75-6.75a2,2,0,0,1,2.89,0ZM352.26,428l-2.5,0c-4.85,0-8.73,1.9-10.77,4.93a11.69,11.69,0,0,0-1.64,6.4q0,17,0,34a6.27,6.27,0,0,1-6.25,6.26H291.63a6.26,6.26,0,0,1-6.24-6.26V463.09a10.42,10.42,0,0,0-5-9,17.53,17.53,0,0,0-9.34-2.38h-.61V477a13.07,13.07,0,0,0,13,13h51.93a14.24,14.24,0,0,0,9-3.57,14.25,14.25,0,0,0,9.21,3.57h20a13.08,13.08,0,0,0,13.08-13.08V451.67l-2.5,0c-4.85,0-8.74,1.91-10.78,4.94a11.75,11.75,0,0,0-1.63,6.4l0,13.57a3.15,3.15,0,0,1-3.15,3h-10.2a6.27,6.27,0,0,1-6.25-6.26V428Z" style="fill:#231f20;fill-rule:evenodd"/></svg>