<svg id="Layer_1" xmlns="http://www.w3.org/2000/svg" viewBox="0 0 512 512"><defs><style>.cls-1{fill:#881f1b;stroke-width:0px;}</style></defs><path class="cls-1" d="M385.63,272.95c27.8-2.61,52.83-14.68,71.89-32.94v184.61H17.47V167.59h65.8v190.35h302.87s-.31-40.67-.51-84.99ZM318.47,46.57L234.41,0,82.24,85.58v68.64l152.16-76.56,33.78,18.67c11.39-21.2,28.95-38.58,50.28-49.76ZM374.24,32.9c-20.13,0-39.09,4.93-55.77,13.67l68.1,37.73v77.44h70.94v78.26c22.8-21.9,37.01-52.7,37.01-86.82,0-66.44-53.85-120.29-120.29-120.29ZM386.14,161.75h.43l-118.38-65.41c-9.09,16.92-14.25,36.29-14.25,56.86,0,66.44,53.85,120.29,120.29,120.29,3.85,0,7.65-.19,11.39-.53-.23-53.01-.29-111.2.51-111.2ZM113.15,490.24c-.1-.59-.2-1.17-.32-1.75-.12-.58-.23-1.11-.34-1.59-.11-.48-.2-.88-.28-1.2-.08-.32-.13-.53-.15-.62l-4.55,1.49c.05.19.12.46.2.79s.17.71.26,1.12c.09.41.18.85.27,1.31s.17.91.24,1.35c.07.45.13.87.17,1.27.05.4.07.74.07,1.03,0,.68-.1,1.22-.31,1.62-.21.4-.45.71-.73.92-.29.21-.57.36-.86.43-.29.07-.52.11-.69.11-1.15,0-1.98-.25-2.49-.74-.51-.5-.77-1.27-.77-2.33v-5.49h-4.8v5.49c0,.68-.11,1.23-.33,1.63-.22.41-.47.71-.77.92-.29.21-.58.34-.87.4-.29.06-.51.09-.67.09-1.13,0-1.95-.24-2.45-.73-.5-.48-.74-1.25-.74-2.31v-5.49h-4.82v5.57c0,.7-.11,1.24-.33,1.63-.22.39-.47.69-.77.89-.29.2-.58.33-.87.38-.29.05-.51.08-.67.08h-6.98s-.13-.03-.28-.06c-.15-.03-.31-.06-.49-.09s-.36-.07-.54-.12c-.18-.04-.33-.1-.44-.16,1.03-1.11,1.87-2.03,2.52-2.76.65-.73,1.16-1.34,1.52-1.84.36-.5.61-.91.73-1.25.13-.34.19-.66.19-.97,0-.34-.04-.71-.13-1.12-.08-.41-.2-.79-.34-1.12-.22-.5-.52-.96-.9-1.36-.38-.41-.81-.75-1.29-1.03-.48-.29-1-.5-1.56-.66-.56-.15-1.13-.23-1.71-.23h-6.77c-1.17,0-2.16.15-2.97.46-.81.3-1.49.76-2.04,1.38-.3.34-.53.68-.7,1.03-.17.36-.3.71-.4,1.06-.1.36-.16.7-.18,1.03s-.04.63-.04.9v1.04l.54.54c.5.52,1.2,1.14,2.08,1.89.88.74,1.87,1.6,2.97,2.56-.52.14-1.1.27-1.75.38-.65.11-1.35.2-2.11.27-.76.07-1.55.12-2.39.16-.78.04-1.57.05-2.36.05-.42,0-.9-.05-1.46-.14-.57-.1-1.13-.28-1.68-.56s-1.05-.67-1.52-1.18c-.46-.51-.8-1.18-1.01-2.02l-3.52-13.7-4.72,1.1.46,1.86c-1.22.41-2.41.9-3.55,1.46-1.14.56-2.15,1.24-3.03,2.03s-1.58,1.72-2.11,2.78c-.53,1.06-.79,2.28-.79,3.67,0,1.2.2,2.28.61,3.23.41.96.96,1.77,1.65,2.43.7.66,1.51,1.18,2.43,1.54.92.36,1.9.54,2.93.54.55,0,1.13-.06,1.74-.18s1.19-.31,1.76-.55,1.09-.55,1.58-.92.88-.79,1.19-1.27c.39.81.89,1.52,1.5,2.11.61.59,1.31,1.08,2.1,1.46.79.38,1.64.66,2.57.85.86.17,1.75.26,2.67.27h0s.08,0,.13,0c.04,0,.07,0,.1,0h.54v-.03c1-.02,1.99-.04,2.97-.12,1.23-.1,2.41-.24,3.53-.43s2.18-.42,3.16-.7c.99-.28,1.87-.6,2.64-.98.66.49,1.24.88,1.74,1.18.5.3.95.52,1.34.68s.74.26,1.04.31c.3.05.57.08.81.08h7.99c.92,0,1.81-.15,2.67-.45.86-.3,1.65-.77,2.36-1.43,1.38,1.22,3.25,1.84,5.61,1.84.9,0,1.78-.14,2.64-.44.86-.29,1.64-.76,2.35-1.42,1.39,1.27,3.29,1.9,5.69,1.9.89-.01,1.77-.18,2.65-.5s1.66-.81,2.36-1.46c.7-.65,1.26-1.47,1.69-2.46s.65-2.14.65-3.45c0-.43-.03-.92-.1-1.48s-.14-1.13-.24-1.72ZM47.67,491.7c-.18.94-.59,1.63-1.24,2.06-.65.43-1.45.72-2.42.86-.15.03-.3.04-.44.04-.27,0-.54-.04-.81-.12-.43-.1-.81-.28-1.15-.52-.34-.24-.62-.55-.83-.93-.21-.38-.32-.8-.32-1.28,0-1.22.53-2.26,1.6-3.09s2.63-1.58,4.69-2.23c.17.59.33,1.13.47,1.61s.27.92.36,1.34c.09.41.14.73.16.96.02.22.03.38.03.47,0,.28-.03.56-.1.83ZM75.94,490.17c-.29.43-.65.88-1.08,1.34-.43.46-.9.91-1.39,1.35-.5.45-.96.85-1.38,1.21l-5.53-5.57c.1-.05.27-.11.49-.17.22-.06.53-.1.92-.1h7.45c.3,0,.54.08.72.24.19.16.28.33.28.51v.04c-.03.34-.18.72-.47,1.15ZM144.04,478.03l-3.33-3.33-3.19,3.33,3.25,3.29,3.27-3.29ZM151.77,490.34c-.1-.6-.2-1.2-.31-1.79-.11-.59-.22-1.13-.32-1.61-.1-.48-.2-.89-.28-1.23s-.14-.55-.16-.64l-4.55,1.37c.05.19.12.47.21.82s.18.75.27,1.18c.09.43.18.89.28,1.38.1.48.18.96.26,1.42.08.46.14.9.18,1.31.04.41.07.75.07,1.04,0,.68-.11,1.22-.33,1.61s-.47.69-.77.88c-.29.19-.58.31-.87.36-.29.04-.51.07-.67.07h-10.8v-2.63c0-1.37-.15-2.63-.45-3.8s-.76-2.18-1.4-3.03-1.46-1.52-2.46-2-2.2-.73-3.61-.73c-1.13,0-2.19.21-3.17.63-.98.42-1.86,1.01-2.63,1.79-.27.3-.56.64-.85,1.03-.3.39-.56.86-.8,1.38-.24.53-.44,1.14-.59,1.83-.15.69-.23,1.48-.23,2.37,0,1.03.12,1.95.36,2.75.24.8.56,1.49.97,2.08.41.59.88,1.08,1.43,1.48s1.13.72,1.75.98c.62.25,1.27.43,1.94.53.67.1,1.33.16,1.97.16h2.98c-.05.98-.21,1.76-.49,2.34s-.69,1.09-1.23,1.53c-.35.3-.76.55-1.23.76s-1.02.39-1.64.52c-.62.14-1.34.24-2.15.31-.81.07-1.73.11-2.76.11v4.82c1.34,0,2.54-.05,3.61-.16,1.06-.11,2.03-.28,2.89-.51.86-.23,1.64-.52,2.34-.86.7-.34,1.34-.74,1.93-1.21,1.13-.9,1.99-1.96,2.56-3.17s.89-2.7.94-4.47h10.68c.89,0,1.78-.16,2.66-.47s1.68-.78,2.39-1.41c.71-.63,1.28-1.44,1.72-2.41s.66-2.12.66-3.45c0-.43-.03-.92-.09-1.49-.06-.57-.13-1.15-.23-1.75ZM129.2,496.5h-2.98c-.44,0-.88-.06-1.32-.17-.44-.12-.83-.3-1.19-.55s-.64-.58-.87-.98c-.22-.4-.34-.88-.34-1.45,0-1.44.32-2.51.97-3.19.65-.68,1.52-1.02,2.61-1.02.13,0,.3.02.5.05.2.03.42.1.65.2.23.1.46.26.7.46s.45.48.64.83c.19.35.34.79.46,1.31s.17,1.15.17,1.89v2.63ZM145.62,478.01l3.25,3.29,3.29-3.29-3.33-3.33-3.21,3.33ZM186.79,492.52c.36-.76.84-1.41,1.45-1.94.61-.53,1.33-.93,2.17-1.21.83-.28,1.73-.42,2.7-.42.48,0,.94.04,1.39.12.45.08.98.22,1.59.4l1.22-4.64c-.81-.22-1.54-.38-2.18-.48-.64-.1-1.28-.15-1.93-.15-1.82,0-3.45.28-4.91.85-1.45.57-2.68,1.34-3.68,2.31s-1.78,2.11-2.32,3.42-.81,2.7-.81,4.17c0,.77.08,1.56.24,2.37.16.81.41,1.63.74,2.49.53.13,1.1.28,1.73.44.62.16,1.26.33,1.91.5.64.17,1.28.35,1.91.51.62.17,1.2.32,1.74.46.54.14,1,.26,1.39.37.39.1.68.18.86.23-.01.94-.16,1.72-.44,2.34-.28.62-.69,1.11-1.25,1.48s-1.26.63-2.12.78-1.87.22-3.05.22h-4.08c-1.25,0-2.39-.26-3.42-.79-1.02-.52-1.84-1.27-2.43-2.25-.83-1.3-1.24-2.89-1.24-4.76,0-.66.05-1.31.15-1.96s.25-1.33.46-2.03.48-1.45.79-2.24c.32-.8.7-1.67,1.15-2.62l-4.3-2.07c-.54,1.12-1.01,2.17-1.39,3.13-.39.97-.71,1.89-.96,2.78-.25.88-.44,1.74-.55,2.58-.12.84-.17,1.68-.17,2.53,0,2.77.64,5.19,1.92,7.26.54.83,1.17,1.56,1.88,2.21.71.65,1.49,1.21,2.34,1.66s1.76.81,2.73,1.05,1.98.37,3.04.37h4.08c2.08,0,3.84-.2,5.29-.61,1.45-.41,2.63-1.03,3.54-1.88s1.57-1.92,1.98-3.21c.41-1.3.62-2.84.62-4.63,0-1.1-.28-2.02-.83-2.76-.56-.74-1.45-1.27-2.69-1.58l-6.79-1.74c-.01-.08-.02-.16-.02-.24v-.24c0-.97.18-1.83.53-2.59ZM208.85,499.73c0,1.3-.14,2.41-.43,3.32-.29.91-.72,1.65-1.3,2.21s-1.32.98-2.22,1.24c-.9.26-1.97.39-3.21.39h-2.4v4.82h2.4c1.82,0,3.45-.27,4.89-.81,1.45-.54,2.68-1.31,3.7-2.31,1.02-1,1.82-2.21,2.4-3.64s.91-3.03.99-4.81v-12.19h-4.82v11.78ZM231.33,508.26l3.52,3.56,3.52-3.52-3.56-3.56-3.48,3.52ZM259.83,479.65l-3.33-3.33-3.21,3.33,3.25,3.29,3.29-3.29ZM251.71,479.67l-3.33-3.33-3.19,3.33,3.25,3.29,3.27-3.29ZM275.71,496.08c-1.31-.28-2.35-.74-3.12-1.37h.02c-.34-.28-.61-.56-.82-.83s-.38-.53-.49-.78-.2-.48-.24-.69c-.05-.21-.07-.39-.07-.54,0-.53.12-1,.35-1.4.23-.41.53-.74.89-1.02.36-.27.76-.48,1.21-.62.45-.14.88-.21,1.31-.21.39,0,.8.07,1.25.2.44.13.89.31,1.34.51.44.21.87.43,1.29.68.41.24.79.48,1.12.7l2.42-4.12c-.81-.48-1.54-.89-2.17-1.25-.64-.35-1.24-.64-1.8-.87-.56-.23-1.11-.39-1.65-.5-.54-.11-1.14-.16-1.78-.16-1.12,0-2.18.21-3.18.62-1,.41-1.88.98-2.63,1.7-.76.72-1.35,1.57-1.79,2.55-.44.98-.66,2.04-.66,3.19,0,.27.01.58.03.94.02.36.07.73.16,1.12.09.39.22.81.41,1.25.18.44.43.88.76,1.33h-7.58c-.12,0-.34-.02-.66-.05-.32-.03-.65-.13-.98-.29s-.62-.41-.88-.73c-.26-.33-.39-.79-.39-1.37v-6.13h-4.8v6.27c0,.26-.04.52-.11.79-.07.27-.23.52-.47.73s-.59.4-1.06.55c-.47.15-1.1.22-1.89.22h-7.16c-.12,0-.34-.02-.66-.05-.32-.03-.65-.13-.98-.29-.33-.16-.62-.41-.88-.73-.26-.33-.39-.79-.39-1.37v-6.13h-4.8v6.27c0,.26-.04.52-.11.79-.07.27-.23.52-.46.73-.24.22-.59.4-1.06.55-.47.15-1.1.22-1.89.22h-2.67c-1.08,0-1.93-.05-2.54-.16-.61-.11-1.07-.34-1.37-.68-.3-.34-.49-.82-.56-1.44-.07-.62-.11-1.45-.11-2.48v-18.32h-4.82v18.32c0,1.08.04,2.07.11,2.97.07.9.22,1.7.44,2.41s.54,1.33.96,1.86c.42.53.98.96,1.67,1.31.69.34,1.55.6,2.57.77.82.14,1.81.21,2.9.24v.03h3.42c1.27,0,2.39-.14,3.38-.43.99-.29,1.84-.73,2.56-1.34.62.58,1.38,1.02,2.28,1.32s1.9.45,3,.45h7.16c1.26,0,2.39-.14,3.38-.43.99-.29,1.84-.73,2.56-1.34.62.58,1.38,1.02,2.28,1.32.9.3,1.9.45,3,.45h22.19v-4.82h-2.13c-1.75,0-3.29-.14-4.59-.43ZM289.34,501.32h4.82v-27.9h-4.82v27.9ZM404.52,490.24c-.1-.59-.2-1.17-.32-1.75-.12-.58-.23-1.11-.34-1.59-.11-.48-.2-.88-.28-1.2-.08-.32-.13-.53-.15-.62l-4.55,1.49c.05.19.12.46.2.79s.17.71.26,1.12c.09.41.18.85.27,1.31s.17.91.24,1.35c.07.45.13.87.17,1.27.05.4.07.74.07,1.03,0,.68-.1,1.22-.31,1.62-.21.4-.45.71-.73.92-.29.21-.57.36-.86.43-.29.07-.52.11-.69.11-1.15,0-1.98-.25-2.49-.74-.51-.5-.77-1.27-.77-2.33v-5.49h-4.8v5.49c0,.68-.11,1.23-.33,1.63-.22.41-.47.71-.77.92-.29.21-.58.34-.87.4-.29.06-.51.09-.67.09-1.13,0-1.95-.24-2.45-.73-.5-.48-.74-1.25-.74-2.31v-5.49h-4.82v5.57c0,.7-.11,1.24-.33,1.63-.22.39-.47.69-.77.89-.29.2-.58.33-.87.38-.29.05-.51.08-.67.08h-5.48c-1.2,0-2.09-.22-2.67-.67s-.88-1.16-.91-2.16v-5.73h-4.82v5.71c-.03.53-.12.97-.27,1.34s-.36.65-.6.88c-.24.23-.52.39-.82.48s-.61.14-.92.14c-1.13,0-1.95-.24-2.46-.71-.5-.48-.75-1.25-.75-2.3v-5.53h-4.8v5.63c0,.64-.09,1.16-.28,1.54-.19.38-.41.67-.68.87-.27.2-.53.33-.81.4-.28.06-.51.1-.71.11-1.08-.01-1.88-.26-2.38-.73-.5-.48-.76-1.24-.76-2.28v-5.53h-4.82v5.63c0,.46-.05.88-.14,1.24s-.27.67-.53.92c-.27.25-.63.44-1.1.57-.47.13-1.09.19-1.85.19h-2.26c-.43,0-.93-.05-1.5-.14s-1.13-.28-1.68-.56-1.05-.67-1.52-1.18c-.46-.51-.8-1.18-1.01-2.02l-3.52-13.7-4.72,1.1.46,1.86c-1.22.41-2.41.9-3.55,1.46-1.14.56-2.15,1.24-3.03,2.03s-1.58,1.72-2.11,2.78c-.53,1.06-.79,2.28-.79,3.67,0,1.2.2,2.28.61,3.23.41.96.96,1.77,1.65,2.43.7.66,1.51,1.18,2.43,1.54.92.36,1.9.54,2.93.54.55,0,1.13-.06,1.74-.18s1.19-.31,1.76-.55,1.09-.55,1.58-.92.88-.79,1.19-1.27c.39.81.89,1.52,1.5,2.11.61.59,1.31,1.08,2.1,1.46.79.38,1.64.66,2.57.85.86.17,1.75.26,2.67.27h0s.23.01.23.01h2.26c2.54,0,4.57-.6,6.08-1.8.67.57,1.46,1.01,2.36,1.33.9.32,1.94.48,3.1.48h.13c.85-.01,1.69-.18,2.52-.5.83-.32,1.58-.78,2.26-1.37.71.66,1.52,1.13,2.43,1.43s1.97.45,3.18.45c.92,0,1.82-.16,2.7-.48.88-.32,1.65-.78,2.31-1.38.71.66,1.55,1.13,2.54,1.42.98.29,2.13.44,3.46.44h5.48c.92,0,1.81-.15,2.67-.45.86-.3,1.65-.77,2.36-1.43,1.38,1.22,3.25,1.84,5.61,1.84.9,0,1.78-.14,2.64-.44.86-.29,1.64-.76,2.35-1.42,1.39,1.27,3.29,1.9,5.69,1.9.89-.01,1.77-.18,2.65-.5s1.66-.81,2.36-1.46c.7-.65,1.26-1.47,1.69-2.46s.65-2.14.65-3.45c0-.43-.03-.92-.1-1.48s-.14-1.13-.24-1.72ZM324.01,491.7c-.18.94-.59,1.63-1.24,2.06-.65.43-1.45.72-2.42.86-.15.03-.3.04-.44.04-.27,0-.54-.04-.81-.12-.43-.1-.81-.28-1.15-.52-.34-.24-.62-.55-.83-.93-.21-.38-.32-.8-.32-1.28,0-1.22.53-2.26,1.6-3.09s2.63-1.58,4.69-2.23c.17.59.33,1.13.47,1.61s.27.92.36,1.34c.09.41.14.73.16.96.02.22.03.38.03.47,0,.28-.03.56-.1.83ZM447.94,490.35c-.33-1.11-.83-2.09-1.49-2.93s-1.5-1.52-2.51-2.02c-1.01-.5-2.2-.76-3.55-.76s-2.49.26-3.41.78c-.92.52-1.67,1.19-2.27,2-.6.81-1.08,1.71-1.44,2.7-.36.99-.67,1.94-.93,2.87-.15.53-.31,1.01-.46,1.44-.15.43-.31.8-.48,1.1-.17.3-.37.54-.58.7-.21.17-.46.25-.74.25h-4.7v-2.63c0-1.37-.15-2.63-.45-3.8s-.76-2.18-1.4-3.03-1.46-1.52-2.46-2-2.2-.73-3.61-.73c-1.13,0-2.19.21-3.17.63-.98.42-1.86,1.01-2.63,1.79-.27.3-.56.64-.85,1.03-.3.39-.56.86-.8,1.38-.24.53-.44,1.14-.59,1.83-.15.69-.23,1.48-.23,2.37,0,1.03.12,1.95.36,2.75.24.8.56,1.49.97,2.08.41.59.88,1.08,1.43,1.48s1.13.72,1.75.98c.62.25,1.27.43,1.94.53.67.1,1.33.16,1.97.16h2.98c-.05.98-.21,1.76-.49,2.34s-.69,1.09-1.23,1.53c-.35.3-.76.55-1.23.76s-1.02.39-1.64.52c-.62.14-1.34.24-2.15.31-.81.07-1.73.11-2.76.11v4.82c1.34,0,2.54-.05,3.61-.16,1.06-.11,2.03-.28,2.89-.51.86-.23,1.64-.52,2.34-.86.7-.34,1.34-.74,1.93-1.21,1.13-.9,1.99-1.96,2.56-3.17s.89-2.7.94-4.47h4.72c.89,0,1.67-.13,2.33-.4.66-.27,1.29-.71,1.87-1.33.76.41,1.46.78,2.11,1.11s1.27.61,1.87.83c.6.23,1.19.4,1.77.52s1.19.18,1.84.18c.32,0,.71-.02,1.16-.07.45-.04.92-.15,1.4-.33.48-.17.97-.44,1.45-.79.48-.35.92-.84,1.3-1.46.38-.62.69-1.4.92-2.34.23-.94.35-2.08.35-3.42,0-1.21-.16-2.37-.49-3.48ZM420.57,496.5h-2.98c-.44,0-.88-.06-1.32-.17-.44-.12-.83-.3-1.19-.55s-.64-.58-.87-.98c-.22-.4-.34-.88-.34-1.45,0-1.44.32-2.51.97-3.19.65-.68,1.52-1.02,2.61-1.02.13,0,.3.02.5.05.2.03.42.1.65.2.23.1.46.26.7.46s.45.48.64.83c.19.35.34.79.46,1.31s.17,1.15.17,1.89v2.63ZM444.05,496.11c-.2.48-.43.84-.69,1.07-.26.23-.51.37-.77.42-.25.04-.44.07-.55.07-.35,0-.75-.07-1.21-.21-.46-.14-.94-.32-1.46-.54s-1.04-.47-1.58-.74c-.54-.28-1.04-.55-1.52-.82.23-.57.45-1.19.65-1.89.2-.69.45-1.33.73-1.93.29-.59.65-1.09,1.07-1.49.43-.4.97-.6,1.64-.6.77,0,1.42.18,1.92.53.51.35.92.78,1.22,1.28.3.5.52,1.01.64,1.53s.18.95.18,1.29c0,.88-.1,1.56-.3,2.04Z"/></svg>