<svg id="Layer_1" data-name="Layer 1" xmlns="http://www.w3.org/2000/svg" viewBox="0 0 512 512">  <defs>    <style>      .cls-1 {        fill: #73cbcc;      }      .cls-2 {        fill: #01509a;      }    </style>  </defs>  <path class="cls-1" d="M243.22,52.79c3.17-2.29,7.01-4.03,11.02-3.6,8.74,.57,17.08,8.99,15.17,18.07-3.71,20.01-7.53,40.02-10.28,60.18-3.76-.12-7.52-.24-11.28-.35-3.27-19.32-6.32-38.68-10.17-57.9-1.13-5.89,.65-12.65,5.54-16.4m-36.97,24.87c-5.3-8.4,.84-21,10.52-22.57,7.24-1.61,16.5,1.9,18.38,9.66,3.73,20.62,7.16,41.31,10.85,61.95-3.99,.71-8,1.42-11.99,2.14-9.16-17.11-18.49-34.13-27.76-51.18m65.08-11.28c1.04-5.53,5.58-10.41,11.21-11.32,3.89-.41,8.12-.61,11.61,1.46,6.56,3.59,10.74,12.33,7.3,19.39-10.17,18.7-20.24,37.45-30.82,55.93-3.51-1.33-6.98-2.76-10.41-4.28,4.38-20.26,7.13-40.84,11.11-61.18m-91.5,8.57c6.15-5.8,18.19-6.6,23.02,1.24,5.17,7.32,9.05,15.44,13.17,23.38,5.3,10.19,11.3,20,16.64,30.16-3.63,2.15-7.28,4.28-11,6.27-9.89-9.81-20.92-18.39-30.74-28.29-4.78-4.73-10.8-8.43-14.18-14.42-3.27-5.85-1.92-13.89,3.09-18.35m126.48-1.32c6.27-4.79,16.19-3.82,21.39,2.12,2.29,2.85,4.04,6.34,4.1,10.05,.15,4.78-2,9.49-5.56,12.65-15.22,13.85-30.65,27.46-45.56,41.64-2.87-2.25-5.75-4.5-8.64-6.74,10.04-17.38,19.12-35.3,29.13-52.7,1.47-2.5,2.76-5.26,5.15-7.04m-144.12,22.41c3.82-1.31,8.24-2.09,11.96-.05,4.78,2.55,8.49,6.62,12.49,10.21,11,10.77,22.64,20.85,34.21,31-3.03,3.14-6,6.34-8.9,9.59-12.11-5.21-24.42-9.97-36.29-15.73-5.06-2.47-10.75-3.48-15.59-6.42-5.69-3.33-8.68-10.56-7.26-16.95,1.07-5.04,4.49-9.75,9.38-11.66m167.21,2.24c7.53-6.78,20-2,23.83,6.6,2.86,5.84,1.09,13.46-3.71,17.74-5.19,4.42-12.14,5.55-18.13,8.45-14.25,6.96-29.38,11.96-43.47,19.29-1.82-2.73-4.55-5.08-5.26-8.4-.33-2.26,1.95-3.43,3.34-4.75,14.61-12.81,28.73-26.17,43.39-38.93m-189.78,47.79c-2.64-8.24,2.67-18.35,11.35-20.02,7.03-1.45,13.53,2.34,19.76,4.99,13.45,6.15,27.26,11.45,40.68,17.67-1.88,4.08-3.15,8.42-4.91,12.54-17.51-.91-34.95-2.96-52.45-4.03-6.43-.36-12.91-4.66-14.43-11.15m202.13-17.61c4.61-2.22,10.01-3.12,15.03-1.81,7.18,1.8,12.07,9.64,10.88,16.89-.9,7.09-6.85,13.59-14.21,13.9-20.42,1.51-40.79,3.73-61.26,4.5-1.09-3.27-2.2-6.53-3.32-9.79,17.17-8.91,35.45-15.36,52.89-23.7m-100.93,11.66c9.58-2.1,20.59-.89,28.24,5.71,2.94,2.79,5.74,5.82,7.74,9.38,5.47,9.84,5,22.85-1.68,32-2.73,3.49-5.79,6.86-9.66,9.13-9.34,5.54-21.55,5.62-31.09,.51-5.4-2.8-9.46-7.59-12.54-12.74-8.97-16.21,.81-39.64,19-43.99M63.39,423.19c6.58-1.57,14.04-1.01,19.68,3,4.82,3.41,7.07,9.46,7.3,15.2,.2,5.91-1.24,12.37-5.8,16.48-4.57,4.43-11.33,5.48-17.44,4.82-5.33-.59-10.72-3.08-13.68-7.71-4.12-6.16-4.49-14.33-1.89-21.15,1.97-5.15,6.52-9.18,11.83-10.64m3.22,7.23c-5.79,2.67-6.78,10.22-5.87,15.86,.45,5.68,6.24,10.8,12.02,8.88,4.23-1.16,6.61-5.59,6.99-9.7,.58-4.81-.06-10.36-3.81-13.81-2.59-2.07-6.28-2.12-9.33-1.23m43.09-7.31c7.39-1.69,16.25-.57,21.54,5.34,4.63,4.92,5.22,12.21,4.38,18.61-.55,5.95-4.55,11.32-9.93,13.82-4.26,2.12-9.21,2.16-13.85,1.7-6.83-.72-13.2-5.69-14.98-12.41-1.59-6.04-1.45-12.75,1.35-18.42,2.22-4.48,6.75-7.43,11.5-8.64m2.51,7.38c-1.64,.55-3.06,1.7-3.82,3.26-2.81,5.26-2.83,11.86-.29,17.23,2.29,4.62,9.05,5.97,13.07,2.8,3.64-2.61,4.34-7.49,4.31-11.66-.07-4.11-1.13-8.86-4.83-11.2-2.59-1.29-5.72-1.37-8.44-.43m-105.51-7.22c4.07-.09,8.14-.08,12.19,0,4.91,7.03,8.95,14.64,14.16,21.46,.24-7.18,0-14.36,.21-21.54,3.02,0,6.04,0,9.06,.02,.34,8.2,.08,16.42,.15,24.63,.03,4.77,.12,9.55-.3,14.31-3.16-.02-6.3-.08-9.45-.14-5.61-8.44-10.44-17.38-16.32-25.65-.58,8.57-.32,17.17-.33,25.75-3.12-.02-6.24,0-9.36,.02,.07-12.95,.05-25.9-.02-38.85m137.17,38.5c-.2-12.85-.28-25.72,.03-38.56,6.39,.05,12.8-.15,19.18,.09,4.02,.22,8.55,1.11,11.1,4.55,2.31,2.72,2.22,6.63,1.37,9.9-1.02,3.5-4.15,5.67-6.83,7.85,3.71,5.7,8.67,10.48,12.15,16.34-3.82,.2-7.66,.3-11.48,.04-4.43-4.12-7.03-9.71-11.19-14.05-1.48-.07-2.96-.11-4.44-.16-.07,4.65-.02,9.31-.02,13.96-3.29,.19-6.57,.21-9.85,.04m10.03-31.41c-.17,3.49-.23,6.99-.15,10.49,3.13-.1,6.51,.43,9.4-1.06,3.34-1.66,3.39-7.42-.2-8.79-2.95-.8-6.04-.54-9.06-.64h0Z"/>  <path class="cls-2" d="M113.69,170.56c16.69-9.03,36.58-7.18,54.5-3.52,18.26,4.93,35.83,13.12,50.54,25.13,16.2,13.73,29.7,30.43,40.98,48.36,12.72,20.31,22.53,42.33,30.35,64.94-22.24,.46-44.48,.12-66.72,.22-10.44,.35-19.61-8.33-21.68-18.23-6.7-25.24-12.06-51.21-24-74.66-4.2-9.01-11.51-16.18-19.54-21.85-13.46-9.41-29.2-14.63-44.42-20.39m193.05,8.4c18.87-10.4,40.58-16.3,62.19-14.72,7.77,.69,15.91,1.77,22.44,6.38-12.16,4.8-24.62,9.05-36.06,15.46-7.96,4.43-15.39,9.99-21.2,17.05-3.65,4.25-5.92,9.44-8.36,14.43-9.27,19.98-14.45,41.51-19.76,62.79-1.22,9.57-5.29,19.61-14.06,24.58-9.8-26.71-22.37-52.45-37.99-76.25,13.82-20,31.3-38.02,52.8-49.71m-90.45,128.52c1.2-.41,2.49-.37,3.74-.4,22.53,.03,45.05,0,67.58,0,2.46,.03,4.95-.15,7.4,.19,2.89,.5,4.92,3.39,4.75,6.27-.14,3.28,.81,7.18-1.58,9.87-1.38,1.65-3.63,2.06-5.68,2-24.68-.05-49.37,.03-74.05-.04-3.29,.14-6.24-2.81-6.11-6.09-.11-4.12-.94-10.07,3.95-11.8m5.67,50.37c2.16-2.45,4.65-4.57,7.03-6.79,2.81,2.5,5.44,5.17,8.11,7.81,2.71-2.52,5.21-5.27,8.05-7.66,2.86,2.21,5.56,4.69,7.78,7.55,.07,.29,.23,.87,.3,1.16-2.2,2.96-4.8,5.83-7.96,7.77-3.17-1.9-5.35-5.04-8.17-7.39-2.62,2.6-5.12,5.35-8.09,7.57-2.83-2.23-5.56-4.65-7.76-7.53-.72-.89,.15-1.84,.72-2.49m64.21-1.68c3.1-1.2,6.21-2.36,9.34-3.46-.08,13.81-.02,27.61-.03,41.42-3.07,1.11-6.16,2.16-9.29,3.08-.07-13.68-.04-27.37-.02-41.04m-209.93,2.38c1.93-2.03,3.9-4.14,6.31-5.57,3.53,1.47,5.93,5.01,8.47,7.83-2.43,3.07-4.98,6.19-8.4,8.19-2.88-2.09-5.67-4.44-7.61-7.46-.52-1.1,.72-2.12,1.23-2.99m103.41-2.29c3.03-1.11,6.06-2.17,9.13-3.14,.4,10.41-.48,20.87,.46,31.26,4.69,1.25,9.55,.7,14.27-.02,.21-4.02,.21-8.05,.2-12.07,3.12-.02,6.23-.02,9.36-.02-.02,4,0,8,.28,12,5.45,.98,11.02,.85,16.54,.55,1.37-.13,3.34-.5,3.58-2.15,.5-3.43,.16-6.91,.15-10.36,3.13-.03,6.26-.03,9.4,0-.08,4.1-.11,8.21,.3,12.29,3.34,.37,6.71,.43,10.07,.39-.55-4.03-1.53-8.49,.63-12.23,2.9-4.61,8.9-6.48,14.08-5.39,3.88,.6,7.3,2.75,10.06,5.46-1.51,2.38-3.01,4.78-4.5,7.19-2.92-1.66-6.09-4.17-9.66-3.25-3.15,1.64-2.03,5.69-.59,8.14,5.1,.07,10.2,.04,15.3,.07,.45,3.05,.79,6.13,1,9.21-11.49-.3-22.97-.02-34.46-.15-3,.07-5.86-1.68-8.86-.93-6.74,1.41-13.64,.88-20.47,.89-2.74,.1-5.32-1.13-8.04-1.14-6.34,1.52-12.98,1.55-19.41,.72-4.61-.63-8.92-4.32-8.86-9.23-.13-9.37-.11-18.75,.02-28.12m131.75,10.94c1.94-1.88,3.9-3.73,5.9-5.56,5.23,5.21,10.12,10.76,15.26,16.06,2.38,2.4,4.42,5.32,7.48,6.9,4.11,.92,8.36,.37,12.45-.36,.27-3.99,.29-7.97,.29-11.96,3.03,0,6.08,0,9.12,.04,.09,3.99-.37,8.05,.44,12.01,1.25,1.69,3.54,1.01,5.3,.88,.25-4.31,.13-8.62,.18-12.93,3.04,0,6.09,0,9.13,.04-.11,4.26-.23,8.55,.5,12.77,1.7,.15,3.4,.3,5.11,.43,.39-4.38,.33-8.79,.26-13.18,3.12-.04,6.25-.06,9.38-.04-.11,4.09-.1,8.19,.18,12.28,5.3,.48,10.66,.85,15.94-.03,.85-4.03,.56-8.14,.36-12.19,3.18-.07,6.35-.08,9.53-.05,.17,3.97-.28,8,.46,11.93,1.1,1.85,3.51,1.09,5.26,1,.28-4.32,.12-8.64,.17-12.96,3.06-.02,6.12,0,9.18,.03,.08,3.9-.45,7.88,.39,11.72,.94,1.92,3.53,1.18,5.26,1.51,.33-4.39,.28-8.8,.16-13.2,3.08-.06,6.17-.08,9.26-.06-.06,4.53,.24,9.08-.17,13.6-.48,4.62-4.46,8.95-9.24,9.04-3.26,.32-6.06-1.61-8.9-2.86-2.36,1.21-4.69,2.94-7.46,2.84-3.06,.02-5.5-2.07-7.87-3.7-5.29,3.76-12.02,2.94-18.13,2.85-2.64,.02-5.17-.77-7.66-1.51-4.25,3.59-10.42,2.51-14.52-.75-2.66,1.61-5.5,3.29-8.71,3.26-2.96,.17-5.47-1.58-8-2.85-6,2.38-12.58,2.03-18.89,1.66-3.29-.14-5.54-2.85-7.93-4.75-2.44,2.59-5.34,5.15-9.03,5.52-7.52,1.5-15.73-4.86-15.47-12.67-.22-4.59,2.85-8.32,5.59-11.66-.19-1.04-.37-2.07-.55-3.1m3.61,16.32c1.17,3.96,7.89,3.85,8.8-.25,.85-3.61-2.94-5.75-5.26-7.72-1.7,2.3-4.51,4.79-3.54,7.97m-275.94-15.93c4.76-1.11,10.68-.88,14.14,3.04,3.12,4.04,3.19,9.4,3.55,14.28,9.34-.05,18.71,.55,28.03-.37,.2-3.15,.37-6.29,.48-9.44,3.01-.91,6.02-1.79,9.05-2.66-.02,4.95,.73,10.07-.81,14.89-1.25,3.9-5.12,6.9-9.28,6.75-9.17,.07-18.34-.08-27.52,.05-1.11,5.96-5.08,11.52-10.85,13.7-4.91,1.64-10.16,1.03-15.24,1.01-.55-3.07-1.02-6.13-1.41-9.22,4.11-.15,8.31,.68,12.34-.32,2.6-.66,4.36-2.81,5.59-5.07-4.65-.59-10.06-1.16-13.16-5.15-3.03-4.73-2.57-10.85-.94-15.99,.72-2.88,3.25-4.87,6.05-5.51m2.35,14.96c.7,2.56,3.82,2.19,5.87,2.49-.2-2.81,1.21-7.25-2.18-8.6-3.43-1.02-4.74,3.6-3.69,6.11m84.59-11.62c4.39-5.15,11.78-3.75,17.76-3.82,.25,3,.46,6,.59,9.01-3.48,.07-7.01-.33-10.45,.3-2.25,.76-1.71,3.68-2.03,5.53,4.31,.32,9.72,.1,12.54,4.05,3.86,8.11-.43,18.95-9,21.92-5.3,1.46-10.87,1.05-16.29,.86-6.28-.12-11.56-4.96-13.72-10.62-2.13-6.42-.75-13.32-1.18-19.95,3.12-.16,6.25-.17,9.37-.08,.07,5.38-.31,10.77,.14,16.14,.73,3.85,5.13,5.7,8.7,5.47,4.12-.13,9,.81,12.29-2.31,1.72-1.47,2.8-4.88,.46-6.27-3.98-1.32-8.27-.73-12.39-.92,.29-6.43-1.68-14.1,3.2-19.33m330.36,.73c1.26-3.05,4.73-4.27,7.79-4.51,4.2-.47,9.17,.16,11.93,3.74,3.06,3.98,2.96,9.26,3.25,14.03,2.71,.11,5.43-.02,8.11-.46,.2-4.4-.09-9.34,2.86-12.98,4.35-5.81,14.18-5.85,18.67-.18,4.83,6.32,4.03,17.2-3.3,21.31-4.48,2.7-10.15,1.39-14.22-1.46-3.41,2.73-7.87,3.19-12.09,2.94-1.01,5.92-4.95,11.45-10.63,13.68-4.99,1.75-10.4,1.16-15.58,.98-.43-3.01-.87-6.01-1.26-9.03,4.03-.08,8.09,.3,12.11-.29,2.79-.58,4.47-3.09,6.13-5.18-4.67-.56-10.14-.99-13.29-4.96-3.47-5.18-2.89-12.13-.46-17.61m7.7,11.02c.86,2.38,3.86,1.96,5.87,2.42-.11-2.86,1.31-7.97-2.68-8.75-3.31-.42-3.98,3.96-3.19,6.33m33.62-6.33c-3.25,1.78-3.05,7.56,.65,8.68,2.63,.99,5.66-1.14,5.75-3.92,.69-3.36-3.34-6.65-6.4-4.76m-480.03-.9c3.16-1.21,6.39-2.24,9.63-3.16,0,6.48,.1,12.98-.07,19.46-.17,6.55-4.16,12.93-10.06,15.82-5.05,2.07-10.65,1.25-15.96,1.24-.34-3.08-.76-6.13-1.19-9.19,4-.09,8.09,.45,12.02-.5,2.67-.69,5.48-2.74,5.56-5.73,.46-5.97,.02-11.96,.07-17.94m147.83,.19c2.67-1.9,6.03-2.28,9.09-3.25-.05,6.42,.09,12.85-.07,19.26-.11,6.43-3.78,12.74-9.52,15.72-5.13,2.34-10.94,1.54-16.39,1.32-.44-3.03-.89-6.06-1.32-9.09,3.97-.07,8.01,.45,11.92-.42,2.43-.62,4.9-2.2,5.66-4.69,1.1-6.23-.31-12.61,.63-18.84m33.79,31.25c1.98-3.33,5.09-5.67,7.91-8.24,3.21,1.98,5.97,4.71,8.24,7.71-1.14,3.74-4.96,6.12-7.8,8.66-3.37-2.05-6.09-4.93-8.35-8.13m227.97,33.53c1.63-.02,3.25-.04,4.88-.04-.04,4.89,.37,9.81-.23,14.68-.69,3.82-5.08,5.35-8.52,5.13-3.18-.03-7.29-1.11-8.21-4.62-.83-4.95-.24-10.01-.39-15,1.7,0,3.41,0,5.12,.02,.11,4.78-.63,9.66,.45,14.36,1.24,2.35,4.29,1.23,6.34,.94,.55-5.14,.21-10.32,.56-15.46m-241.32,2.56c3.6-3.46,9.42-3.6,13.78-1.58,1.01,1.37,.51,3.3,.78,4.91-2.5-1.18-5.13-3.16-8.04-2.28-5.08,1.72-5.21,10.44-.03,12.13,2.96,1.09,5.64-1.15,8.08-2.52-.13,1.64-.02,3.34-.48,4.95-4,2.15-9.3,2.22-13.11-.39-4.41-3.64-4.7-11-.98-15.22m18.13-2.25c5.07-.1,11.1-1.56,15.34,2.03,2.44,3.2-.32,6.99-2.8,9.16,2.11,2.54,4.12,5.16,6.05,7.84-2.05,0-4.11-.02-6.16-.02-1.59-2.28-3.23-4.52-4.88-6.75-.58-.08-1.73-.23-2.32-.3-.13,2.36-.24,4.72-.33,7.09-1.62-.03-3.23-.07-4.84-.09-.03-6.32,.04-12.64-.07-18.96m5.27,3.04c-.12,1.86-.24,3.72-.33,5.59,2.12-.28,6.24,.11,6.07-3.08-.3-2.78-3.79-2.17-5.74-2.51m15.86-3.37c4.63,.06,9.25-.03,13.87,.14,.07,1.2,.15,2.39,.22,3.6-3.03,.02-6.06,.04-9.1,.06,0,1.11-.02,2.22-.03,3.34,2.76,0,5.52,0,8.27,0,0,1.24,0,2.49,.02,3.74-2.81-.02-5.61,.03-8.41,.18,0,1.46,0,2.92,.02,4.4,2.99,.09,6,.15,9,.18,0,1.23-.02,2.47-.02,3.72-4.65,.06-9.29,.06-13.94,0-.06-6.46-.19-12.92,.1-19.37m18.09,.21c4.74-.14,9.84-.79,14.25,1.39,5.86,3.5,5.49,13.51-.61,16.57-4.32,1.71-9.08,1.19-13.61,1.07-.11-6.35-.03-12.69-.03-19.04m5.02,3.33c-.07,4.14-.08,8.28,0,12.42,1.97-.29,4.16-.12,5.9-1.26,3.57-2.42,3.09-8.81-.92-10.53-1.61-.51-3.33-.48-4.99-.63m16.42-3.55c3.76,.05,7.52,.05,11.27,.02,.02,1.03,.03,2.08,.06,3.13-.77,.12-2.31,.36-3.08,.48,.03,4,.03,8,0,12.02,1.01,.16,2.02,.33,3.03,.51,0,1.02,.02,2.03,.04,3.07-3.8,.24-7.6,.24-11.39-.02,.02-.76,.07-2.3,.1-3.07,1.05-.15,2.1-.28,3.16-.41-.02-4.04-.02-8.07,.02-12.11-1.1-.14-2.19-.27-3.28-.39,.02-1.08,.05-2.16,.07-3.22m13.54,0c5.76,.05,11.53,.05,17.29,.02,0,1.23,.02,2.47,.05,3.72-2.06,.02-4.12,.06-6.17,.09-.06,5.17-.04,10.34-.04,15.51-1.64,0-3.29,0-4.93,0-.07-5.17,0-10.33-.04-15.5-2.07-.03-4.14-.1-6.21-.12,.02-1.24,.03-2.49,.05-3.73m28.46,0c3.77,.04,7.53,.05,11.3,.02,0,1.03,.02,2.07,.04,3.13-.77,.12-2.33,.37-3.11,.49,.02,3.99,.02,7.98,0,11.97,1.02,.18,2.03,.36,3.05,.55,.02,.76,.05,2.29,.07,3.06-3.82,.24-7.65,.24-11.47,.07,.04-1.07,.08-2.14,.11-3.21,1.07-.12,2.13-.24,3.21-.35,0-4.05,0-8.1,0-12.15-.82-.09-2.46-.26-3.28-.34,.02-1.09,.05-2.18,.08-3.25m15.64,.16c1.92-.07,3.85-.09,5.78-.14,2.42,3.48,4.6,7.14,7.05,10.6,.2-3.47,.2-6.96,.11-10.43,1.53-.02,3.06-.04,4.59-.05,.04,6.42,.05,12.84-.02,19.26-1.94-.16-4.66,.67-5.71-1.54-2.38-3.61-4.42-7.45-7.08-10.88-.26,4.1-.2,8.22-.18,12.32-1.5,.03-3,.07-4.5,.1-.15-6.42-.09-12.84-.04-19.26m24.12,1.16c4.04-2.51,9-1.49,13.36-.54,.02,1.6,.04,3.21,.08,4.83-3.27-1.9-7.09-2.95-10.81-1.82,.13,.71,.4,2.12,.54,2.82,3.42,.7,7.43,.83,10.01,3.51,1.51,2.6,.98,6.63-1.85,8.1-4.3,2.33-9.4,1.46-13.9,.27,0-1.59,0-3.16,0-4.73,3.48,1.36,7.96,4.06,11.33,1.05-.09-.41-.26-1.21-.35-1.62-2.93-1.25-6.3-1.34-9-3.13-2.95-2.03-2.62-7.12,.58-8.74m15.59-1.32c5.68,.06,11.36,.05,17.03,0,.02,1.26,.04,2.53,.07,3.8-1.99,0-3.98,.02-5.96,.03-.11,5.12-.09,10.24,0,15.36-1.72,.1-3.44,.19-5.15,.28-.04-5.19-.03-10.38,0-15.58-2-.04-4.01-.11-6-.14,0-1.25,.02-2.5,.02-3.74m19.52,0c3.61,.04,7.23,.05,10.84,0,.08,1.07,.18,2.14,.29,3.22-1.04,.13-2.07,.27-3.1,.41-.15,4.14-.18,8.3,.09,12.44,.98,.05,1.95,.1,2.94,.16-.02,1.05-.04,2.11-.06,3.17-3.71,.02-7.41,.02-11.12-.09-.08-.96-.16-1.91-.24-2.86,1.09-.28,2.2-.52,3.29-.77,.03-3.9,.03-7.8,.09-11.7-1.1-.34-2.19-.67-3.28-.99,.07-.75,.19-2.24,.24-2.98m13.48,0c5.66,.05,11.32,.05,16.99,0,0,1.23,.03,2.47,.08,3.72-2.05,.05-4.09,.13-6.13,.21,.08,5.15,.11,10.31,0,15.46-1.66,0-3.32,0-4.98,0-.07-5.16-.05-10.32,0-15.47-2.05-.07-4.1-.14-6.14-.19,.07-1.24,.12-2.49,.17-3.72m40.03,0c5.64,.02,11.28,.06,16.91,0,0,1.24,.02,2.49,.04,3.74-2.03,.02-4.04,.07-6.06,.11,.02,5.18,.1,10.36-.09,15.55-1.68-.07-3.36-.15-5.03-.23,.07-5.12,.09-10.23-.02-15.35-1.94-.02-3.86-.05-5.78-.06,0-1.25,.02-2.51,.03-3.76m19.14,0c3.77,.03,7.56,.03,11.34-.02,.02,1.11,.07,2.2,.14,3.32-1.13,.09-2.25,.18-3.37,.28,.06,3.96,.06,7.92,.03,11.89,1.16,.31,2.33,.63,3.49,.94-.03,.72-.1,2.17-.13,2.9-3.85,.14-7.7,.12-11.54-.15,0-.76,.03-2.26,.04-3.02,1.03-.14,2.07-.28,3.12-.41,0-4.04,0-8.08-.03-12.11-1.04-.2-2.07-.39-3.11-.57,0-1.03,0-2.04,.02-3.05m19.87,.45c4.75-1.81,11.43-.69,13.76,4.3,1.42,4.04,1.33,9.18-1.78,12.42-3.59,3.21-9.28,3.37-13.38,1.07-6.09-3.99-5.45-14.95,1.41-17.79m3.13,3.08c-5.34,2.12-4.62,12.26,1.5,12.59,4.07,.09,5.18-4.78,4.6-7.98,.12-3.07-3.12-5.84-6.1-4.61m15.4-3.53c1.99,.11,4.2-.46,6.04,.52,2.55,3.13,4.35,6.81,6.84,10.01,.03-3.47,0-6.92,.02-10.37,1.54,0,3.08,0,4.63,0-.02,6.41,.06,12.82-.05,19.24-1.81-.21-4.28,.6-5.42-1.27-2.74-3.69-4.69-7.91-7.42-11.62-.14,4.3-.05,8.61-.13,12.91-1.51-.06-3.03-.11-4.52-.17,0-6.42,0-12.84,0-19.26h0Z"/></svg>