<svg xmlns="http://www.w3.org/2000/svg" viewBox="0 0 512 512"><path d="M243,150c-2.93-19.86-6.36-26.28-18.21-43C240.67,83.46,249.64,50.8,256,23.41c6.45,27.79,15.14,59.77,31.25,83.54C275.4,123.71,272,130.13,269,150c-8-7.51-18.08-7.51-26.08,0Z" style="fill-rule:evenodd"/><path d="M237,347.26V251.68c-46.71-19.13-53.06-48.76-53.06-91.77,18.83,7.65,25.7,16,34.34,29.92,2.32-12.67,5.46-22.13,12.44-32.48,22.49,23.08,21.6,90.36,21.6,100.68V364.35H92.54V125.66c0-23.08,4.94-60,33.46-65.23l7.54,10.2c-27.42,9.74-26.12,45.91-26.12,70.06V347.26Z" style="fill:#960e15;fill-rule:evenodd"/><path d="M197.54,157.46c-14.36-19.39-24.62-6.14-24.17,19.65-9.35-75.39-27-113.76-67-146.22,52.27,9.68,93.72,46,123.13,117.13-12.06-5.64-29-6.43-31.94,9.44Z" style="fill-rule:evenodd"/><path d="M180.54,58.31c.58-13.76,6.84-33.2,1.26-42.87-5.24-9.07-16.17-4.71-20.91-.36-13.33-3.48-22.77,9.2-15.36,18.57,8.49,10.73,21.31,11,35,24.66Z" style="fill-rule:evenodd"/><path d="M233.46,66.07l-16.9,35.57c-9.51-15.35-16.79-24.86-29.08-36.95,4.9-14,8.89-30.73,9.23-45a234.58,234.58,0,0,0,36.75,46.38Z" style="fill:#960e15;fill-rule:evenodd"/><path d="M234.83,54.9c-5.74-11.46-21.11-23.69-27.33-35.72-3.49-6.76-.95-18,16.42-15.08,3.87-6.52,17.15-5,20,2.86,5.59,15.24-3.87,35.46-9.13,47.94Z" style="fill-rule:evenodd"/><path d="M275,347.26V251.68c46.71-19.13,53.06-48.76,53.06-91.77-18.83,7.65-25.7,16-34.34,29.92-2.32-12.67-5.46-22.13-12.43-32.48-22.5,23.08-21.61,90.36-21.61,100.68V364.35H419.46V125.66c0-23.08-4.94-60-33.46-65.23l-7.54,10.2c27.42,9.74,26.12,45.91,26.12,70.06V347.26Z" style="fill:#960e15;fill-rule:evenodd"/><path d="M314.46,157.46c14.36-19.39,24.62-6.14,24.17,19.65,9.35-75.39,27-113.76,67-146.22-52.27,9.68-93.72,46-123.13,117.13,12.07-5.64,29.06-6.43,31.94,9.44Z" style="fill-rule:evenodd"/><path d="M331.46,58.31c-.58-13.76-6.84-33.2-1.26-42.87,5.24-9.07,16.17-4.71,20.91-.36,13.33-3.48,22.77,9.2,15.36,18.57-8.49,10.73-21.31,11-35,24.66Z" style="fill-rule:evenodd"/><path d="M278.54,66.07l16.9,35.57c9.51-15.35,16.79-24.86,29.08-36.95-4.9-14-8.89-30.73-9.23-45a234.58,234.58,0,0,1-36.75,46.38Z" style="fill:#960e15;fill-rule:evenodd"/><path d="M277.17,54.9c5.74-11.46,21.11-23.69,27.33-35.72,3.49-6.76.95-18-16.42-15.08-3.87-6.52-17.14-5-20,2.86-5.59,15.24,3.87,35.46,9.13,47.94Z" style="fill-rule:evenodd"/><path d="M388.71,495.94a7.06,7.06,0,0,1-1,4.06c-1,2-2,3-2.94,3q-.94-.78-2.76-2.16c-1.21-.92-1.81-1.56-1.81-1.9l.17-.35q.51-1.12,1.9-4.14c.23-.46.8-1.47,1.73-3l.34-.43a6.8,6.8,0,0,0,1.21.86,9.62,9.62,0,0,1,2,1.73,6,6,0,0,1,1.2,2.33ZM120.53,456.59a4,4,0,0,1,.09,1,5.16,5.16,0,0,1-1,3q-2.07,2.94-3,3.11a2.09,2.09,0,0,1-.78-.43,17,17,0,0,1-2.07-1.55,7.2,7.2,0,0,0-1.47-.87,1.94,1.94,0,0,1-.95-1.21l2-4.49c.63-1.09,1.18-2,1.64-2.67l.52-.78a20.34,20.34,0,0,1,1.81.95,21.12,21.12,0,0,1,2.07,1.73,3.64,3.64,0,0,1,1.21,2.24Zm12.93,4.91c-.58,2.57-1.06,4.42-1.44,5.57q-4.71,14.4-15.55,20.35a19.7,19.7,0,0,1-9.6,2.31q-6,0-9.22-3.7t-3.26-9.74q0-9.51,8.16-23.52c.64-1.09,1.12-1.6,1.44-1.54.12.07.16.42.09,1.06s-.25,1.18-.38,1.63l-3.17,6.91a21.37,21.37,0,0,0-2.3,8.64q0,10.08,11.13,10.08,11.91,0,18.82-10.75a14.41,14.41,0,0,0,2.3-7.78l.19-6.91a21.2,21.2,0,0,1,1.64-6.81l1.92-3.75a8.3,8.3,0,0,1,1.24-2,1.42,1.42,0,0,1,.39,1.24l-.48,3.37-.48,4.79a49.27,49.27,0,0,1-1.44,10.56Zm13.46-4.72.05-.23v-2a73.3,73.3,0,0,1,.86-11.1q.46-2.83,1.71-11.09a61,61,0,0,0,.86-8.07c.07-.37,0-.58-.09-.64a1,1,0,0,0-.29.18l-3.91,9.72-1.33,9.17-.77,7.15q-1,9.66-1,13.72l-.07.13q0,10,6.39,10a5.42,5.42,0,0,0,4.1-1.83c1.46-2.38,2.54-4.19,3.24-5.41q2.67-4.12,4.1-4.13a3.59,3.59,0,0,1,1.91.83c1.52,1.1,5.15,2,10.86,2.57a115.5,115.5,0,0,0,11.73.73h0l.05-.07v.16A132,132,0,0,0,219.78,462q9.91-2.65,24.12-9.82a144.92,144.92,0,0,0,17.92-10.63l15.92-11a26.79,26.79,0,0,1,7-3.3q2.39-.82,4.48-4.58a14.71,14.71,0,0,0,1.24-2.66c.07-.31-.06-.46-.38-.46a14.5,14.5,0,0,0-3.05,1.1q-3.33.82-18.31,10.54-9.62,6.24-12.2,7.71a141.19,141.19,0,0,1-32.22,13.75,126.2,126.2,0,0,1-21.74,3.76q-7.05.64-12.1.64h-2.86a18.94,18.94,0,0,1-2.29-.09l-.05-.09a50.52,50.52,0,0,1-10.15-1.51,50.58,50.58,0,0,0-9.68-1.52q-2.76,0-6.77,6a21.83,21.83,0,0,1-1.9,2.56,5.23,5.23,0,0,1-3.63,1.2q-5.43,0-6.17-6.74ZM188,499.08a7.17,7.17,0,0,1-1,4.06c-1,2-2,3-2.93,3-.64-.52-1.56-1.24-2.77-2.16s-1.81-1.56-1.81-1.9l.17-.35q.53-1.12,1.9-4.14c.23-.46.81-1.47,1.73-3l.34-.44a6.6,6.6,0,0,0,1.21.87,9.34,9.34,0,0,1,2,1.73,6.15,6.15,0,0,1,1.21,2.33Zm-8.9.52a7,7,0,0,1-1,4q-1.56,3-2.94,3-.95-.78-2.76-2.16c-1.21-.93-1.82-1.56-1.82-1.9l.18-.35q.51-1.12,1.9-4.14c.23-.46.8-1.47,1.72-3l.35-.43a6.26,6.26,0,0,0,1.21.87,9.84,9.84,0,0,1,2,1.72,5.91,5.91,0,0,1,1.21,2.34ZM271,452.84a36.77,36.77,0,0,1-1.3,7.68l-1,4.24a30.54,30.54,0,0,1-2.24,5.44,8.65,8.65,0,0,1-4.23,3.79l-3.11,1.3a10.44,10.44,0,0,1-4.06.86c-.29,0-.46-.11-.52-.34-.17-.52.63-1.47,2.42-2.85.58-.46,1.73-1.36,3.45-2.68a21.17,21.17,0,0,0,5.53-6.39,48.39,48.39,0,0,0,2.25-6.13l1-3.11c.58-1.78,1-2.68,1.38-2.68a2,2,0,0,1,.44.87Zm13.91,7.43-.13.42.24-.42v1.29q0,5.7,4.57,5.7c1,0,1.84-1.36,2.59-4.06.18-.52.35-.78.52-.78s.43.29.43.87a11.85,11.85,0,0,1-.34,2.16q-2.34,10.71-6.39,10.7-5,0-5-9.15h-.11q0-6,2.51-21.24a58,58,0,0,1,3.45-8.38l.35-.17a4.72,4.72,0,0,1-.09,1.38l-.35,2.25-1.46,10.53a68.36,68.36,0,0,0-.78,8.9ZM297.49,495a5.66,5.66,0,0,1-1.13,3.45c-1.26,1.79-2.33,2.68-3.19,2.68-.06,0-.8-.69-2.24-2.07a14.79,14.79,0,0,1-2.16-2.25,25.66,25.66,0,0,1,2.16-4.06c1.26-2.18,2-3.28,2.24-3.28s.8.43,1.73,1.3q2.6,2.5,2.59,4.23Zm-8.55,0a5.72,5.72,0,0,1-1.12,3.45c-1.27,1.79-2.33,2.68-3.2,2.68-.06,0-.8-.69-2.24-2.07a15.46,15.46,0,0,1-2.16-2.25,26.73,26.73,0,0,1,2.16-4.06c1.27-2.18,2-3.28,2.24-3.28s.81.43,1.73,1.3q2.59,2.5,2.59,4.23Zm4,10.88a5.72,5.72,0,0,1-1.12,3.45c-1.27,1.79-2.33,2.68-3.2,2.68-.06,0-.8-.69-2.24-2.07a15.46,15.46,0,0,1-2.16-2.25,26.73,26.73,0,0,1,2.16-4.06c1.27-2.18,2-3.28,2.24-3.28s.81.43,1.73,1.3q2.6,2.5,2.59,4.23Zm79.58-82.07a112.14,112.14,0,0,1,9.06-7.8L394,406.08c2.4-1.92,5.26-4.4,8.57-7.41.91-.84,3.48-3.27,7.7-7.32q6.74-6.45,7.31-7.12a2.06,2.06,0,0,1-.19.87q-1.28,5.77-10.63,15-4.28,4.25-13,11.36l-14.42,11.17-6.72,5.2q-4.1,3.18-4.29,2.89a20.23,20.23,0,0,1,4.09-6.93Zm-3.1-10.51a7.13,7.13,0,0,1-1,4.06c-1,2-2,3-2.94,3-.63-.52-1.56-1.24-2.76-2.16s-1.82-1.55-1.82-1.9L361,416q.53-1.12,1.9-4.15c.24-.46.81-1.47,1.73-3l.35-.43a6.32,6.32,0,0,0,1.21.86,9.78,9.78,0,0,1,2,1.73,6,6,0,0,1,1.21,2.33Zm-5,45.32V460q0,6.35,5.16,6.35,1.65,0,2.93-4.53c.19-.57.39-.86.58-.86s.49.32.49,1a13.18,13.18,0,0,1-.39,2.41q-2.64,11.94-7.21,11.93-5.65,0-5.66-10.2l0,0c0-.91.13-2.6.39-5.06l.49-4.72a.51.51,0,0,0-.1-.38c-.2-.07-.88.7-2,2.31q-.59,1-2.34,3.27-6.33,8.37-18.51,12.61a67,67,0,0,1-22.51,3.66h-1.47q-9.84,0-12.47-3.08a8.12,8.12,0,0,1-1.56-5.39q0-9.63,1.66-9.63a29.46,29.46,0,0,0,1.85,5.2q2.63,2.88,12.76,2.89c3.58,0,6.53-.1,8.87-.29q13-1.07,22.12-5.39,12.18-5.69,14.72-16l1.36-5.49c.07-.32.78-2,2.15-4.91A50.89,50.89,0,0,1,368.3,431v1.44c-.07.26-.29,1.35-.68,3.27l-2.05,10.11q-.39,1.93-.88,7.51c-.19,2.19-.29,3.92-.29,5.2h0l0,.11Zm14.81,8.24q0-6,2.51-21.24a58,58,0,0,1,3.45-8.38l.35-.17a4.72,4.72,0,0,1-.09,1.38l-.35,2.24-1.46,10.54a68.37,68.37,0,0,0-.78,8.89v1.3q0,5.7,4.58,5.7c1,0,1.84-1.36,2.59-4.06q.25-.78.51-.78c.29,0,.43.29.43.87a11.85,11.85,0,0,1-.34,2.16C389,472.43,386.9,476,384.2,476q-5,0-5-9.15Z" style="fill-rule:evenodd"/></svg>