<svg xmlns="http://www.w3.org/2000/svg" viewBox="0 0 512 512"><path d="M81.71,112.54c3.38,4.1,6.41,7.75,9.41,11.43,3.84,4.73,8.45,8.52,14.36,10.17a47.83,47.83,0,0,0,11,1.53c7.59.29,15.2.42,22.8.23a35.48,35.48,0,0,1,21,6.44,56,56,0,0,1,13.49,12.93q29.07,38.28,58.17,76.51c1.35,1.77,2.75,3.49,4.09,5.18,3-1.62,25.59-23.71,28.93-28.25a15.72,15.72,0,0,0-1.21-2.17c-16.22-21-32.78-41.72-48.57-63-10.06-13.56-23.69-19.26-39.6-21.37-6.93-.93-13.89-1.71-20.75-3-13.44-2.57-24.15-10-32.84-20.21-6.06-7.15-11.58-14.77-17.33-22.2a24.2,24.2,0,0,1-1.4-2.43l14.82-17.56c1.39,1.69,2.36,2.79,3.24,3.95q9,12,18,23.93c.54.72,1.1,1.42,1.61,2.15,8.35,11.87,19.74,18.49,34.11,20.65,11,1.66,21.93,4.07,32.87,6.23,10.43,2.06,18.46,7.83,24.86,16.2Q255.83,160,279.07,190.1c.62.81,1.37,1.52,2,2.25,2.81-1.35,24.7-22.95,28.35-28a17.48,17.48,0,0,0-1.27-2.15c-12.83-16.44-25.74-32.83-38.5-49.33-6.15-8-14.26-12.47-23.94-14.37a41,41,0,0,0-6.66-.5c-12.23-.43-24.34-1.61-36.05-5.49A34.19,34.19,0,0,1,186.42,81Q168.17,57.49,150,34c-.54-.69-1-1.46-1.79-2.75l18.71-11.51c1.13,1.3,1.94,2.16,2.66,3.08,9.6,12.35,19.15,24.75,28.83,37.05,3.12,4,6.64,7.63,9.92,11.49,6.48,7.64,15.12,10.81,24.71,12q12.18,1.43,24.4,2.61C272.2,87.35,284,94,293,105.78c10,13,20.1,25.9,30.17,38.83.89,1.15,1.86,2.24,3.22,3.86,9.58-9.59,18.71-19.05,28.21-28.89C345.92,108.7,338,97.65,328.91,87.7c-7.76-8.48-18.49-12.15-29.83-13.86-9-1.34-17.91-2.88-26.83-4.55-9.57-1.8-18.23-5.55-24.91-12.93-4.2-4.64-8.46-9.23-12.33-14.13-8.59-10.88-16.95-21.93-25.4-32.92-1-1.28-1.94-2.6-3.14-4.22a10.21,10.21,0,0,1,2.36-1.31c5.66-1.25,11.34-2.43,17-3.59a6.2,6.2,0,0,1,6.9,2.66c5.89,7.87,12,15.58,18.2,23.22,3.66,4.51,7.66,8.74,11.47,13.12C270.57,48.57,281,54,293,56.33c6.56,1.26,13.25,1.83,19.87,2.81,5.29.79,10.61,1.51,15.83,2.64a27.16,27.16,0,0,1,16,10c7.43,9.32,15.05,18.5,22.61,27.72,1,1.25,2.1,2.45,3.11,3.61,3.31-1.8,25.39-24,27.94-28.06-.81-1.08-1.64-2.29-2.57-3.42-3.86-4.74-7.93-9.32-11.58-14.21a19,19,0,0,0-12.72-7.54c-5.57-.9-11.2-1.49-16.83-1.89-8.61-.61-17.24-.79-25.72-2.67-5.19-1.15-10-3.1-13.95-6.66a112.45,112.45,0,0,1-10.52-10.3c-6.94-8.18-13.57-16.62-20.31-25-.7-.88-1.24-1.89-2-3.06,53.51,4.87,128.54,45.85,155.32,130.43a190.19,190.19,0,0,1-82.2,220.21c-73.57,45.24-170.42,34.29-231.76-25.67C59.17,262.36,53.82,172.89,81.71,112.54Z" style="fill:#009c4b"/><path d="M170,467.16a11.36,11.36,0,0,1,.42,1.37,9.73,9.73,0,0,0,7.22,8.07,50.14,50.14,0,0,0,10.7,2,144.71,144.71,0,0,0,28.51-1.23c6.41-.83,12.82-1.62,19-3.64a65.32,65.32,0,0,0,8.73-3.53,19.73,19.73,0,0,0,10.26-11.64c1.57-4.7,2.72-9.55,4-14.34C261.68,434,267,425.66,277,420.9c9.7-4.66,19.47-9.18,29.14-13.92,5.79-2.83,11.47-5.93,17.16-9a36.86,36.86,0,0,0,3.47-2.39,3.72,3.72,0,0,1,1.95-.76c-.27.82-.48,1.68-.83,2.47A18.13,18.13,0,0,1,322.4,404c-3.57,2.91-7.69,4.87-11.78,6.86-11.16,5.46-22.37,10.81-33.48,16.36-3.92,2-7.61,4.36-11.39,6.6a7,7,0,0,0-3.47,5.63c-.77,6-1.9,11.93-2.91,17.88a58.55,58.55,0,0,0-1.17,13.59,12.84,12.84,0,0,0,.52,3.68,8.59,8.59,0,0,0,2.14,3.5c2.53,2.17,5.94,2.22,7.89-1.44.77-1.45,1.34-3,2.18-4.91a5.66,5.66,0,0,1,.46,1.43,26.89,26.89,0,0,1-4.71,13.7,13.88,13.88,0,0,1-3.26,3.36,5.53,5.53,0,0,1-8.83-2.84,21.38,21.38,0,0,1-1.1-6.08c-.08-3.72.19-7.44.32-11.16,0-.81.07-1.62.11-2.52-1.34-.11-1.91.74-2.46,1.51-.81,1.15-1.58,2.34-2.31,3.54a24.26,24.26,0,0,1-9.22,8.48,71.86,71.86,0,0,1-20.77,7.29,138.51,138.51,0,0,1-31.41,2.41,55,55,0,0,1-11-1.52c-6-1.42-8.55-4.92-8.5-11.14,0-2.89.32-5.78.6-8.67a11.79,11.79,0,0,1,.75-2.46Z" style="fill:#eb1f4d"/><path d="M308.05,467.3c.51,1.76.88,3,1.22,4.25a5.9,5.9,0,0,0,3.1,3.7,26,26,0,0,0,11.33,3.39c7.53.36,15.08.72,22.6.44,6.35-.24,12.67-1.33,19-2.14,2.79-.36,5.57-.84,8.31-1.44a32.39,32.39,0,0,0,13.21-6.22c-.15,1.4-.26,2.31-.38,3.43a10.83,10.83,0,0,0,6.71-.26,43.34,43.34,0,0,0,6.57-2.85,48.52,48.52,0,0,0,4.2-2.65,6.88,6.88,0,0,1,5.87-1.23c2.18.62,3.67-.42,4.7-2.28l1.2-2.13c1.57,1,3.29,1.78,4.82.5a31.44,31.44,0,0,0,3.44-3.95,8.6,8.6,0,0,0,1.17.4c2,.43,4.95-1.28,4.48-3.68-.09-.48.06-1,0-1.49-1-6,2.1-10.87,4.6-15.88.13-.27.44-.44.67-.66.19.2.39.3.4.42.38,7.5.46,15-3.67,21.68a24.85,24.85,0,0,1-3.91,4.77,6.7,6.7,0,0,1-3.3,1.58,5.9,5.9,0,0,0-3.81,2.08,4.8,4.8,0,0,1-4.36,1.9,3.85,3.85,0,0,0-3.34,1.3,6.76,6.76,0,0,1-5.59,2.22,8.42,8.42,0,0,0-5.94,2c-1.54,1.26-3.26,2.29-4.81,3.52-2.61,2.07-5.3,2.62-8.25.8-.28-.17-.59-.31-.88-.47-3.09-1.76-3.13-1.8-5.72.84a24.89,24.89,0,0,1-9.37,5.89c-7.35,2.75-15,4-22.73,4.93a154,154,0,0,1-25.31.93,44.88,44.88,0,0,1-11.71-2c-3.73-1.18-5.85-3.56-6.24-7.48A30.76,30.76,0,0,1,308.05,467.3Z" style="fill:#eb1f4d"/><path d="M131.54,427.62a13.26,13.26,0,0,1,.28,1.62c0,7.21.26,14.47-1.15,21.56-3,15.05-10.19,27.57-23.09,36.37a21.89,21.89,0,0,1-19.92,2.77c-6.88-2.24-10.43-7.35-11-14.5a40.79,40.79,0,0,1,2.56-17.82c1.52-3.93,3.49-7.69,5.29-11.5a10.9,10.9,0,0,1,1.21-1.66,10.76,10.76,0,0,1-1.09,5.11c-1.18,3.27-2.45,6.51-3.42,9.84a16,16,0,0,0-.35,8.59,12.6,12.6,0,0,0,6,8.17,18.19,18.19,0,0,0,11.45,2.31c5.89-.67,11.42-2.23,16.29-5.55,7.32-5,11.75-11.78,11.77-20.95,0-2.91.08-5.81-.07-8.71a17.67,17.67,0,0,1,1.35-7.51q1.29-3.22,2.67-6.42A13.92,13.92,0,0,1,131.54,427.62Z" style="fill:#eb1f4d"/><path d="M294.48,470.36a9.11,9.11,0,0,1,.39,2.13c-.67,5.05-1.81,9.95-4.72,14.24a14.51,14.51,0,0,1-2.4,2.83,5.14,5.14,0,0,1-8.22-1.39,19.62,19.62,0,0,1-1.72-5.39,40.15,40.15,0,0,1-.05-12.38c.8-6.57,1.33-13.19,2.58-19.68.87-4.5,2.75-8.82,4.2-13.21a2.07,2.07,0,0,1,.79-1,14.54,14.54,0,0,1,0,5.5c-.81,5-1.91,9.94-2.38,14.95a131.66,131.66,0,0,0-.34,14.87,9.23,9.23,0,0,0,1.53,4.38,4.44,4.44,0,0,0,7.76-.27,38.07,38.07,0,0,0,1.58-3.64C293.74,471.81,294,471.34,294.48,470.36Z" style="fill:#eb1f4d"/><path d="M126.53,491.44c.11-1.93,1.29-2.7,2.51-3.4,2.8-1.62,5.57-3.28,8.42-4.81a20.75,20.75,0,0,0,9.11-10.17c.79-1.73,1.67-3.42,2.57-5.1a14.25,14.25,0,0,1,5.93-5.86c1.89-1,3.71-2.18,5.65-3.12a8.5,8.5,0,0,0,4.58-5.27,19.34,19.34,0,0,1,.95-2,7,7,0,0,1,.41,1.65c-.5,6.67-3.31,11.88-9.53,14.89-.3.15-.6.3-.9.43-4.11,1.74-7,4.53-8.25,9a41.7,41.7,0,0,1-2.39,5.72A10.3,10.3,0,0,1,137.8,490c-3.07.62-6.19,1-9.29,1.47A14.3,14.3,0,0,1,126.53,491.44Z" style="fill:#eb1f4d"/><path d="M347.51,457.9c-2.43,2.28-3.93,5.28-6.71,7.09l-8.2-5.53,3.26-3.75c1-1.19,2.09-2.36,3.13-3.54,1.85-2.08,2.07-2.18,4.34-.74,1.86,1.17,4,2.05,5,4.6.6-.54,1.1-.91,1.51-1.36,1.61-1.78,3.23-3.56,4.78-5.4a2,2,0,0,1,2.83-.58c1.62,1,3.21,2.06,4.74,3.18a2,2,0,0,1,.61,2.66,29.38,29.38,0,0,1-6.2,7.69,2,2,0,0,1-1.76,0,21,21,0,0,1-2.56-2A9.09,9.09,0,0,0,347.51,457.9Z" style="fill:#eb1f4d"/><path d="M139.52,506.62c2.37-2.68,4.84-5.46,7.29-8.25A1.59,1.59,0,0,1,149,498c2.37,1.33,4.87,2.5,6.44,5.25.69-.73,1.31-1.35,1.89-2,1.38-1.54,2.78-3.06,4.11-4.65a2.13,2.13,0,0,1,3.06-.58c1.54,1,3.06,2,4.52,3a2,2,0,0,1,.69,2.64,28.6,28.6,0,0,1-6.36,7.86,1.69,1.69,0,0,1-1.53,0,27.37,27.37,0,0,1-2.37-1.8,25.18,25.18,0,0,0-3.1-2.05c-1.71-.87-1.85-.78-3.1.71s-2.32,2.81-3.53,4.17c-1.72,1.92-2.06,1.89-4.1.38S141.75,508.17,139.52,506.62Z" style="fill:#eb1f4d"/><path d="M402,493.88l3.68-4.19c1-1.18,2.07-2.37,3.13-3.54,1.51-1.68,1.68-1.77,3.53-.67,2.1,1.25,4.42,2.3,5.66,5l5.33-6c2-2.26,2.34-2.33,5-.69a29.75,29.75,0,0,1,3.05,2.14c1.31,1.06,1.65,2.09.67,3.46-1.78,2.47-3.81,4.77-5.79,7.1a1.33,1.33,0,0,1-2,0l-2.52-2a9.81,9.81,0,0,0-4.76-2.34l-3.15,3.74c-.7.81-1.42,1.61-2.14,2.42a1.73,1.73,0,0,1-2.78.19,18.14,18.14,0,0,0-1.94-1.56C405.32,495.94,403.72,495,402,493.88Z" style="fill:#eb1f4d"/><path d="M149.47,421.31c-.43,2.33-1,4.65-1.28,7-.59,5.26-1.12,10.53-1.52,15.81a61.77,61.77,0,0,1-4,17.61,5.28,5.28,0,0,1-2.32,3.18c0-1.12-.07-2,0-2.83.37-4.45.86-8.9,1.17-13.35.23-3.39.23-6.79.41-10.18a12.32,12.32,0,0,1,.58-3.9c1.7-4.13,3.57-8.19,5.41-12.26a7.16,7.16,0,0,1,1-1.3Z" style="fill:#eb1f4d"/><path d="M184.15,418.58c-.41,2.34-.94,4.68-1.21,7-.55,4.68-1.08,9.37-1.4,14.07a64.84,64.84,0,0,1-4,18.88c-.5,1.28-.91,2.64-2.44,3.54a6.22,6.22,0,0,1-.2-1.52,219.54,219.54,0,0,0,1.82-25.5,9,9,0,0,1,.51-3.16c1.76-4.2,3.64-8.34,5.51-12.49a5.5,5.5,0,0,1,.86-1.09Z" style="fill:#eb1f4d"/><path d="M107.9,461.23c-2.62-2.5-5.15-4.84-8.92-5.83l7.33-8.84a1.42,1.42,0,0,1,2-.44c1.87,1,3.74,2.09,5.55,3.21a2.44,2.44,0,0,1,1,2.86A14.53,14.53,0,0,1,107.9,461.23Z" style="fill:#eb1f4d"/><path d="M409.21,506.61c2.41-2.72,4.87-5.49,7.31-8.27a1.54,1.54,0,0,1,2.19-.36c1.68,1,3.38,2.06,5,3.24a2.23,2.23,0,0,1,.42,3.32c-1.73,2.4-3.69,4.63-5.6,6.89a1.51,1.51,0,0,1-2.22.16c-.27-.19-.52-.4-.79-.59Z" style="fill:#eb1f4d"/><path d="M238.35,430c2.43-2.74,4.93-5.58,7.45-8.41a1.6,1.6,0,0,1,2.24-.21c1.54.95,3.11,1.88,4.56,3s1.67,2.08.7,3.44c-1.76,2.48-3.79,4.77-5.76,7.1a1.4,1.4,0,0,1-2,.09c-.53-.39-1-.84-1.57-1.21C242.2,432.52,240.43,431.34,238.35,430Z" style="fill:#eb1f4d"/><path d="M278,506.12c2.43-2.74,4.89-5.6,7.48-8.36a2.13,2.13,0,0,1,2-.33,47.18,47.18,0,0,1,5.18,3.35,2.09,2.09,0,0,1,.37,3.11c-1.84,2.43-3.8,4.76-5.76,7.1a1.43,1.43,0,0,1-2,.13c-.54-.38-1-.84-1.57-1.21C281.91,508.71,280.14,507.53,278,506.12Z" style="fill:#eb1f4d"/></svg>