<svg xmlns="http://www.w3.org/2000/svg" viewBox="0 0 512 512"><path d="M130.72.25c48.05-.43,96.1,0,144.15-.2,3.2-.32,6.13,1,9,2.31a17.88,17.88,0,0,0,3.73,8.05c12.74,17.4,20.9,37.5,27.79,57.81,12.06,46.71,5.46,99.16-22.11,139.4-3.22,4.85-6,12.19-12.84,12.32-44.34-.3-88.68.16-133-.23,6.15-3.41,13.36-4.24,19.56-7.6,19.75-9.65,37-25.67,46.17-45.87,9.28-16.23,12.26-35.19,13.79-53.58.91-11.22-1.42-22.4-5.31-32.87-6.48-14.92-14.22-29.55-25.17-41.72C179.14,19,155.27,7.05,130.72.25M62.13,60.08c32.35,0,64.75.78,97.09-.52,15.6.31,31.19-.93,46.81-.1-5.93,3.66-12.65,5.59-18.86,8.65-26.23,13-50.49,32.72-63,59.75C105.84,166.73,115.31,217,147.8,245.5a85.35,85.35,0,0,0,26.09,20.21c56.38.47,112.79,0,169.19.21h.9c19.51-11.59,36.7-26.66,47.56-46.84,12.76-22.47,15.2-49.95,8.33-74.7-8.12-31-30.89-56.56-58.37-72.27-7.07-3.89-14-8.4-22-10.15l-2.7-2.78c30.09-.07,60.24.8,90.31-.46,16.08.26,32.14-.93,48.23-.41,9,11.31,15.47,24.27,23,36.53a32.64,32.64,0,0,0,3.18,8.13,196.55,196.55,0,0,1,13.23,62.1c.34,32.32-7.58,65-24.35,92.8-.9,2.44-10.58,16.75-14.4,21.93-7.57,1.12-15.23.58-22.83.65q-182.62.06-365.23,0c-29.81-33.31-47.79-78.12-45.67-123.1.64-22.21,8-43.67,17.91-63.36,6.28-12,13-23.8,22-33.95M60.91,278.92h0m149.33,38.16a57.26,57.26,0,0,1,49.58-25.37c7.45-.1,14.51,2.46,21.66,4.17,10,5.74,19.55,12.74,25.29,23A56.81,56.81,0,0,1,314,360.61c-.67,3.27-7.17,19.26-10.88,23.47-10,12.33-24.89,21.93-41.27,21.61-15.22,1.29-31-3.8-42.08-14.38-21.34-17.55-24.71-51.63-9.54-74.23M140.39,452.14c5.36-2,9.93-5.67,15-8.31,0,.37,0,1.11,0,1.48a37.74,37.74,0,0,1-6.53,4.22c-4,2.16-7.75,4.83-11.81,6.9-.35-2.22,2.13-2.94,3.37-4.29m-10.76,10.67c8.73-4.84,17-10.42,25.8-15.16a35.78,35.78,0,0,1-.36,6.94c-3,.82-5.41,2.76-8,4.28-5.85,3.43-11.51,7.18-17.45,10.47,0-2.18,0-4.35,0-6.53m78.21,0c8.7-5,17.19-10.33,25.92-15.26,0,2,0,4.1,0,6.15-4.53,2.58-8.86,5.48-13.41,8A9.36,9.36,0,0,0,216.7,465c-1.41-.55-2.43.57-3.48,1.29a24.93,24.93,0,0,1-5.59,2.9q.17-3.18.21-6.36m62.42-12.89c3.65,0,7.29-.05,10.93,0a2.65,2.65,0,0,1,2.1.69c-.71,4.43-.23,8.94-.37,13.41.12,8-.25,16.1.23,24.14a21.15,21.15,0,0,0,13.72,1c1.39-.29,2.18-1.54,2.9-2.64-3.81.5-7.74.8-11.4-.62.17-4.37-.44-8.77,0-13.13,3.87-4.81,10.18-6.18,16-6.74.85.17,1.73.28,2.61.38,1.77.41,3.49,1,5.24,1.48-.47,6.32-.07,12.67-.2,19,.26,2.25-2.15,3.26-3.61,4.44-6,4.17-13.65,4.61-20.59,3.32a21.76,21.76,0,0,1-8.18-3.82c-3.1,1.6-6.19,3.24-9.39,4.65q-.06-22.8,0-45.59m23.61,23.47c-.17,3.33-.12,6.65-.14,10a16.06,16.06,0,0,0,5.49,0c.31-3.78.14-7.56.17-11.34a26.79,26.79,0,0,0-5.52,1.34M182.31,450.46c3.94-.15,7.88-.07,11.82-.09,0,12.15.06,24.3,0,36.46a10.4,10.4,0,0,0,10.73,2.35c1.24-.55,2.54-1.59,2.48-3.09.41-4.78.26-9.59.22-14.37,3.94-2,7.68-4.44,11.46-6.75.3,5.9,0,11.81.37,17.7,0,2.17.34,4.65-1.17,6.45-2.43,3-5.92,5.51-9.88,5.79-5.73,1-12.27-.14-16.2-4.75a87.18,87.18,0,0,1-9.82,4.77c.13-14.82.06-29.65,0-44.47M433,450.35c3.75,0,7.51,0,11.26-.06.34,12.48-.25,25,.3,37.44,3,2.17,7.36,2.61,10.28,0-.25-5.33-.09-10.68-.1-16,4.2,0,8.4-.1,12.61.11-.21,5.44.26,10.93-.22,16.35A14.58,14.58,0,0,1,454,494.85c-4.56.25-9.77-.68-12.66-4.56-2.87,1.56-5.49,3.61-8.5,4.88-22,.15-44.09,0-66.13.06-4,.18-8.58-3.14-8-7.51.14-5.49.36-11,.25-16.49h12.25c0,5.51,0,11,0,16.55q30.75.09,61.51,0c.48-12.48-.07-25,.24-37.45m44.54,0h11.64c-.07,12.29.1,24.58-.09,36.87a7.81,7.81,0,0,0,10.49.63c-.13-5.37,0-10.74-.07-16.1,4.15-.1,8.29,0,12.44-.05,0,5.4.18,10.8,0,16.2-1.81,3.34-5.43,5.55-9,6.74-5.81.58-12.75.65-16.79-4.33-2.87,1.7-5.68,3.52-8.67,5,.11-15,0-30,.07-45M73.13,451c3.9,0,7.79,0,11.7,0,0,12.3,0,24.59,0,36.88-3.76,3-7.76,5.56-11.71,8.25-.07-15,0-30.1,0-45.14m327.32,6.8c3.42,0,6.89.36,10.26-.41.26.27.78.8,1,1.08-.6.81-1.18,1.63-1.77,2.45-1.67,0-3.35.05-5,.12-.8,2.07-.61,5-2.57,6.36-3.49.27-7,0-10.48.08.25-1.06.5-2.12.76-3.17,1.74-.09,3.6.31,5.26-.32a17.74,17.74,0,0,0,1.18-4.73l1.33-1.46m-271.16,14c4.11-2.18,8.05-4.65,12.14-6.87.13,7.62,0,15.25.1,22.87-4.83,8.14-15.59,9.7-24.09,7.61-2.26-.76-5.07-1.18-6-3.72-1.1,3.57-4.61,5.41-8.06,6a16.53,16.53,0,0,1-14.66-2.88c4-.25,9.8-.62,11.08-5.37.85-5.16,0-10.45.39-15.67L99,472.35c4.6-1.57,10,1,14.22-1.67l-1.66,1.65c.51-.09,1.55-.28,2.06-.39-1.79,1.28-1.67,3.7-1.69,5.66.1,3.64-.2,7.31.19,10.94,3.4,4.11,9.92,4.36,14.4,2a4.83,4.83,0,0,0,2.76-4.45c.12-4.76-.07-9.53.06-14.3m-81.07-4.85H60.41c.08,6.95-.32,13.9.24,20.83a46.8,46.8,0,0,1-35.1,8.73c-4.86-.27-9.1-2.85-13.67-4.21L10.79,491C7,492.07,3.84,494.68,0,495.43c0-7.85,0-15.7,0-23.54,4,0,7.9-.07,11.85,0-.06,5,0,10,0,15,9,5.72,20.4,5.65,30.41,3.05a28.29,28.29,0,0,0,5.66-2.42c0-6.88-.18-13.77.33-20.65m279,4.32c4.23,0,8.46,0,12.68,0-.14,6.14.24,12.31-.16,18.43-5.18,7.1-17.21,7.64-22.84.82,3.32-.39,7.55.7,10.16-1.87.34-5.78,0-11.59.16-17.38M157,471.8c4.25.58,8.54.2,12.82.34,0,6.78,0,13.56,0,20.35a17.31,17.31,0,0,1-14.12,5.86c-3.2,0-7.61-.59-9.05-3.76,3.09-1.51,7.78.51,10.26-2.69,1.12-2.66.51-5.65.66-8.44-.2-3.88.54-7.88-.6-11.66m82.14,5.52c3.9-3.86,9.3-6.6,14.91-6a38.05,38.05,0,0,1,8.19,1.6c.68,2,.11,4.28.26,6.38-.2,4.66.34,9.41-.22,14-5.47,1.77-11.08,2-16.82,2.15-.37,0-1,0-1.52,0-1.55-.08-4.4.27-4.79-1.76,0-5.46.12-10.91,0-16.37m5.15,1.83c-.23,4.19,0,8.4-.08,12.59a26.53,26.53,0,0,0,5.69-.49c0-4.85,0-9.69,0-14.53-1.88.45-4.75.32-5.62,2.43m258.91,26.38a6.47,6.47,0,1,0-6.47,6.47A6.47,6.47,0,0,0,503.15,505.53Zm-35.73-48.92a6.47,6.47,0,1,0-6.47,6.47A6.47,6.47,0,0,0,467.42,456.61Zm-159.81.15a6.47,6.47,0,1,0-6.47,6.47A6.47,6.47,0,0,0,307.61,456.76Zm-271,11.94a6.47,6.47,0,1,0-6.47,6.47A6.47,6.47,0,0,0,36.62,468.7Z" style="fill:#004b7f"/></svg>