<svg xmlns="http://www.w3.org/2000/svg" viewBox="0 0 512 512"><path d="M67.63,0H190.44q0,87.06,0,174.14A70.85,70.85,0,0,1,200,152.23a67.57,67.57,0,0,1,29.54-24.49,66.72,66.72,0,0,1,91,46.86c.19-33.06,0-66.14.08-99.21-.1-4.56.2-9.13-.14-13.67-2.71-10.35-7.56-20.34-15-28.15-8.7-9.31-21.14-14.44-33.66-15.82-8.87-1.11-17.83-.43-26.68.52,21.13-10.37,44.4-16,67.83-17.73,10-.88,20.1-.39,30.15-.52a99.71,99.71,0,0,1,99.47,88.29c.73,5.55.48,11.16.51,16.73q0,135,0,269.94H320.67V274.11c-.08-23.44.15-46.89-.12-70.32-4.78,22.61-22.46,41.8-44.42,48.8a66.84,66.84,0,0,1-85.69-48.65q0,50.22,0,100.44c.09,3-.18,6.1.12,9.13a68,68,0,0,0,12.11,24.67,50.72,50.72,0,0,0,26.63,17.16c10.93,3,22.47,3,33.64,1.56l1.11.79c-8.55,3.75-17.21,7.37-26.26,9.77a196.37,196.37,0,0,1-42.3,7.15c-8.88.67-17.78.25-26.68.37a99.69,99.69,0,0,1-95.76-67.51,97,97,0,0,1-4.86-22.65c-.79-10.67-.51-21.37-.56-32.06V0M264.9,356.82h0m153.34,57c9.37-7.29,17.74-15.73,26.14-24.09-1.25,6.21-5.92,10.82-10,15.33a192.53,192.53,0,0,1-17.2,14.83c-6.46,5.09-12.92,10.18-19.46,15.15-1.53,9.62-4.29,19.19-3.7,29,.21,1.34.47,2.92,1.73,3.69s3.12,1.55,4.2.17c.88-1.61,1.27-3.45,2.4-4.91.61,3.19-.71,6.29-1.6,9.31-1,2.52-2.27,5.63-5.23,6.21a5.09,5.09,0,0,1-4.89-3.87c-1.68-5.19-.42-10.65,0-15.94-2.77,3.5-5,7.5-8.58,10.3-7.31,6.3-16.94,9.13-26.35,10.37a65.88,65.88,0,0,1-16-.06c-2.17-.45-4.62-1.14-5.8-3.18-1.29-2.26-1.14-4.94-1-7.44.18-2.33.13-4.86,1.65-6.79.66,1.82,1.29,3.65,1.92,5.48,2.48,1.78,5.54,2.26,8.52,2.46,10.89.4,22.15-.53,32.19-5.1,6.36-2.66,12.24-7.61,14.1-14.47,1-4.07,2-8.23,4.14-11.9,2.31-3.51,3.19-7.9,6.38-10.83,5.24-4.89,10.93-9.26,16.49-13.76M297.12,438.11a4.06,4.06,0,0,1,1.37-1.67c-1,7.77-2.39,15.5-3,23.31-.18,2.79.07,5.8,1.69,8.17a5.93,5.93,0,0,0,5.68,1.55c3.49-.51,4.07-4.9,7.24-6,1.13.4,2.27.76,3.41,1.14,2.73-3.12,4.15-7.21,7.22-10a11,11,0,0,1,3.81-1.92c1.25.51,3,.58,3.5,2.1.67,4.18-1.44,8.24-4,11.39-2.55,3.37-6.62,6-11,5.62-1.92,0-3.67-.85-5.37-1.61-2,2.16-3.27,4.92-5.53,6.84-2.53,2.21-7.05,2.07-9-.87s-2.07-6.81-1.75-10.28c.43-6.1,1.34-12.16,2.29-18.2.51-3.36,2-6.45,3.4-9.52m23.73,20c-2.17,1.67-3.44,4.19-4.7,6.56A12.29,12.29,0,0,0,324.9,460c0-.45-.08-1.36-.11-1.81-1.28-.12-2.78-.92-3.94,0m91.81-18.45a6.61,6.61,0,0,1,2.11-3.2c-1,7.43-2.27,14.84-2.94,22.31-.13,2.57-.42,5.3.63,7.74a4.32,4.32,0,0,0,4.16,2.19c1.85-.8,2-3.09,2.67-4.75l1.09-.65c.05,3.41-1,6.7-2.16,9.87-1,2.25-2.29,4.91-5,5.35a5,5,0,0,1-4.67-3.43c-1.27-3.53-1.14-7.36-.76-11,.48-5.54,1.34-11.05,2.17-16.55a32.56,32.56,0,0,1,2.67-7.84m-9.81-.32c2.15,1.56,4.94,3.29,5,6.28a11.31,11.31,0,0,1-4.14,7.14,29.3,29.3,0,0,1-5.42-4.64,73,73,0,0,1,4.55-8.78m-264.37,1.82c.42,3.08-.56,6.13-.7,9.21-.86,6.09-.95,12.47-3.76,18.08-1.38,2.63-2.28,5.87-5,7.51-.43-1.06.11-2.14.32-3.17a83.51,83.51,0,0,0,3.37-17.51c.23-3.18,1.81-6,3-8.91a26.69,26.69,0,0,1,2.74-5.21m38.38.25c.14.26.44.77.58,1-1.06,6.4-1.41,12.9-2.55,19.3a34,34,0,0,1-3.64,9.51c-1,1.82-1.71,4.06-3.77,4.94.45-4.34,2.15-8.43,2.81-12.74,1.06-4.36.59-9.05,2.44-13.21a55.78,55.78,0,0,1,4.13-8.82m69.45,8.8c1.34-3,2.28-6.31,4.37-9,.37,2.21-.22,4.42-.43,6.62-.51,4.49-1,9-1.71,13.44s-3,8.58-5.12,12.59a5.84,5.84,0,0,1-2.37,2.25c.46-4.33,2.14-8.42,2.81-12.72,1.06-4.37.59-9.06,2.45-13.23M210.48,452a53.61,53.61,0,0,1,4.57-9.12c2.24,1.53,4.38,3.36,5.15,6.07-.92,2.58-1.69,6.18-4.59,7.12a41.85,41.85,0,0,1-5.13-4.07m-9.51.54a47.22,47.22,0,0,1,4.59-9c2.17,1.54,4.76,3.32,4.92,6.26-.3,2.75-1.95,5.1-3.72,7.13a29.1,29.1,0,0,1-5.79-4.34m78.92-6.65c1.91,2.07,4.35,3.82,5.46,6.51a15.91,15.91,0,0,1,.3,9.91,22.77,22.77,0,0,1-14.48,16.13c1.07-3.34,4.31-5.13,6.34-7.81,1.62-2.12,3.35-4.52,3.4-7.28-.59-3.27-3.3-5.5-5.69-7.53a72.48,72.48,0,0,1,4.67-9.93m-121.36,8.37c2.61-1.33,4-4.07,6.12-6a20.86,20.86,0,0,1-3.19,9.54c-1.52,2.6-4.83,3-7,4.84-4.16,3.66-3.66,10.41-8.4,13.59a18.9,18.9,0,0,1-9.41,2.21l-1.09-.69c3.33-3.76,8.33-5.48,11.86-9,2.44-2.85,3.17-6.67,5.07-9.84,1.43-2.18,3.74-3.51,6-4.67m-32.68-.94.56,1c-1.19,6.57-.88,13.37-2.72,19.85-2,8.65-6.39,17.1-13.84,22.22a19,19,0,0,1-15.2,3.2c-4.46-1-7.61-5.2-8.21-9.59-.94-7.17,1.7-14.17,4.81-20.49,1.34-2.48,2.39-5.25,4.63-7.08.11,3-1.75,5.57-2.86,8.28-1.82,4-3.71,8.41-2.49,12.85A7.67,7.67,0,0,0,96,489.35a20.11,20.11,0,0,0,17.32-3.6,22.85,22.85,0,0,0,6.4-8c2.13-5.2.44-11,2.09-16.33.81-2.95,2.5-5.52,4-8.12m106.83,9.36c2.43-1.24,3.81-3.69,5.47-5.73.53,3.23-1.1,6.32-2.66,9-3,4.85-8.25,7.52-13.49,9.19a87.94,87.94,0,0,1-21.14,3.34c-4.5.09-9.09,0-13.44-1.22-3-.86-6-3.39-5.69-6.79A36.09,36.09,0,0,1,184,459.23c1.43,2,.67,5.33,3.15,6.62,3.09,1.74,6.73,2,10.18,2.35a91.5,91.5,0,0,0,15.35-.23c6.9-.63,13.9-2,20-5.31M265.06,467c2.27-2.29,3-5.7,5.51-7.76-.39,9.89-8.65,18.46-18.31,20a7.59,7.59,0,0,1,2.31-3.06A121.75,121.75,0,0,0,265.06,467m-163.18,4.44a56.87,56.87,0,0,1,4.7-9c2.64,1.47,5.46,3.37,5.9,6.63a12.43,12.43,0,0,1-4.39,6.67c-2.33-1-4.22-2.75-6.21-4.27M406.23,505a68,68,0,0,1,4.53-8.88c2.13,1.49,4.64,3.18,5.07,5.95a10.54,10.54,0,0,1-4.28,7.42,66.81,66.81,0,0,1-5.32-4.49m-247.31-6.94c1.88,1.35,4.11,2.69,4.76,5.09.56,3.22-1.5,6.22-3.8,8.26a42.15,42.15,0,0,1-5.51-4.35,51.69,51.69,0,0,1,4.55-9m-13.87,9.62c.82-3.27,2.66-6.24,4.4-9.11,1.81,1.45,4.09,2.77,4.74,5.17.57,3.23-1.54,6.2-3.81,8.27a37,37,0,0,1-5.33-4.33Z" style="fill:#29166f"/></svg>