<svg xmlns="http://www.w3.org/2000/svg" viewBox="0 0 512 512"><path d="M251,2.62c1.24-1.16,3-3.69,4.81-2.12,14.11,16.85,24.54,37,28.79,58.66,4-1.63,7.52-4.27,11.5-6,25.87-13,53.6-21.89,81.61-29a28,28,0,0,1,2.77-.42A263.13,263.13,0,0,1,376,62.79a225.59,225.59,0,0,1-13.45,46.7,28.75,28.75,0,0,0-2.22,6.21c31.31.66,61.83,9.75,90.42,22,.08.14.22.41.29.55-19.65,25-40.89,49-65.82,68.87-3.07,2.57-6.48,4.74-9.46,7.43,19.15,16.15,32.61,38.12,41.79,61.22-28.52,12.09-58.12,22.28-88.85,26.87a133.25,133.25,0,0,1,.68,26.11,150.36,150.36,0,0,1-5.14,26.61c-.68,2-.95,4.22-2.13,6-16.67-1.49-33.33-3.66-49.58-7.77a123,123,0,0,1-15-4.57,14.35,14.35,0,0,0-3.34-.78,101.93,101.93,0,0,1-19.05,26.54c-3.27,3.25-6.43,6.66-10.16,9.4-1,.53-2,0-2.85-.55-12.2-8-24.27-16.41-34.32-27a57.91,57.91,0,0,0-4.24-4.2c-9.77,6.76-21.05,11-32.51,13.8a26.42,26.42,0,0,1-4.05.53c-5.94-9.62-11.41-19.63-15.12-30.35-1.13-2.59-1.39-5.56-2.94-8-11.48,1.18-23.12-.44-34.15-3.69-1.75-10.07-1.76-20.35-1.32-30.52.36-2.54.36-5.16,1.12-7.61,6,1.93,12.34,3.33,18.73,3,5.37.24,10.68-.62,16-1.36-2.32,13.17-3.51,26.95.14,40,12.8-1.25,23.7-8.86,33.93-16,3.88,13.27,9.38,26.29,17.94,37.24.86,1.08,2.13,2.61,3.66,1.7,6.35-4.26,11-10.55,15-16.91,3.7-5.34,6.22-11.35,9.06-17.17,12.07,12.22,26,23,42,29.54a13.29,13.29,0,0,0,3.44.75,66.34,66.34,0,0,0,5.54-24.25,124.58,124.58,0,0,0-1.44-26.1c22.72,5.49,46.45,9,69.74,5.37-2.07-13.45-8.94-25.56-16.94-36.35-4.17-5.86-9.13-11.09-13.9-16.46A293.1,293.1,0,0,0,334.81,237a189.63,189.63,0,0,0,40.52-22.4c-7.23-7-16.32-11.69-25.45-15.68-14-5.51-28.48-9.92-43.38-12l.12-1.05A290.94,290.94,0,0,0,330.33,161c9.16-10.86,17.85-22.24,24.44-34.89,1.76-3.38,3.78-6.67,4.89-10.34a132.31,132.31,0,0,0-21.61.92c-11,1.2-21.7,4.09-32.36,7-10.22,2.9-20.21,6.53-30.09,10.43a229.37,229.37,0,0,0,9.56-41.66c.83-7.52,1.5-15.13.71-22.7-.31-3.39-.46-6.85-1.61-10.09A177.27,177.27,0,0,0,253.61,81.5a287.36,287.36,0,0,0-32.39,32.6c-2.31-7.18-4.07-14.59-7.38-21.42-4.54-10.32-10-21-19.52-27.59A168,168,0,0,0,177.8,95.63a222,222,0,0,0-11.2,33c-11.47-9.15-24.92-17.48-40-17.66a89.22,89.22,0,0,0-2.14,24,194.06,194.06,0,0,0,3.08,29.54c-12.43-.48-25.58.33-36.66,6.54-1.35.48-1,2.1-.8,3.2,3,11.47,9.41,21.67,16.41,31.08.72,1.21,2.73,2.44,1.76,4-10.55,6-21.34,12.91-27.82,23.52,4,4.4,8.31,8.55,13.58,11.37,5.2,3.31,10.91,5.65,16.57,8-7.44,10.22-13.94,21.67-15.88,34.31-7.85-3-15-7.78-21.6-12.89-2.56-1.89-4.69-4.29-7.32-6.08a114.59,114.59,0,0,1,14.36-34.77c-2.25-3.5-5.09-6.57-7.15-10.2a137.91,137.91,0,0,1-12-24.26,55.59,55.59,0,0,1,6.23-7.71c4.73-4.92,9.43-10,15-14,2.23-1.64,4.57-3.13,6.8-4.75,0-2.94-.89-5.76-1.35-8.63-2.49-13.78-2.66-27.85-2.22-41.81a45.46,45.46,0,0,0,4.9-2,90.64,90.64,0,0,1,36-8.59C130.52,88.66,139,67.63,147.85,47a97.94,97.94,0,0,1,32.61,8.92,83.66,83.66,0,0,1,14,8.75c5.7-7.65,11.31-15.42,17.68-22.55,7.7-9.35,16.38-17.83,24.92-26.42,4.6-4.4,9.1-8.92,13.92-13.09Z" style="fill:#7cd0f5"/><path d="M253.61,81.5a177.27,177.27,0,0,1,30.65-21.93c1.15,3.24,1.3,6.7,1.61,10.09.79,7.57.12,15.18-.71,22.7A229.37,229.37,0,0,1,275.6,134c9.88-3.9,19.87-7.53,30.09-10.43,10.66-2.86,21.37-5.75,32.36-7a132.31,132.31,0,0,1,21.61-.92c-1.11,3.67-3.13,7-4.89,10.34-6.59,12.65-15.28,24-24.44,34.89a290.94,290.94,0,0,1-23.71,24.94l-.12,1.05c14.9,2.09,29.41,6.5,43.38,12,9.13,4,18.22,8.72,25.45,15.68A189.63,189.63,0,0,1,334.81,237a293.1,293.1,0,0,1-37.26,12.6c4.77,5.37,9.73,10.6,13.9,16.46,8,10.79,14.87,22.9,16.94,36.35-23.29,3.65-47,.12-69.74-5.37a124.58,124.58,0,0,1,1.44,26.1,66.34,66.34,0,0,1-5.54,24.25,13.29,13.29,0,0,1-3.44-.75c-16-6.58-29.94-17.32-42-29.54C206.26,323,203.74,329,200,334.3c-4.08,6.36-8.7,12.65-15,16.91-1.53.91-2.8-.62-3.66-1.7-8.56-10.95-14.06-24-17.94-37.24-10.23,7.17-21.13,14.78-33.93,16-3.65-13.05-2.46-26.83-.14-40-5.29.74-10.6,1.6-16,1.36-6.39.31-12.68-1.09-18.73-3l0-.15c1.94-12.64,8.44-24.09,15.88-34.31-5.66-2.37-11.37-4.71-16.57-8-5.27-2.82-9.62-7-13.58-11.37,6.48-10.61,17.27-17.49,27.82-23.52,1-1.57-1-2.8-1.76-4-7-9.41-13.43-19.61-16.41-31.08-.19-1.1-.55-2.72.8-3.2,11.08-6.21,24.23-7,36.66-6.54a194.06,194.06,0,0,1-3.08-29.54,89.22,89.22,0,0,1,2.14-24c15.13.18,28.58,8.51,40.05,17.66a222,222,0,0,1,11.2-33,168,168,0,0,1,16.52-30.54c9.5,6.56,15,17.27,19.52,27.59,3.31,6.83,5.07,14.24,7.38,21.42a287.36,287.36,0,0,1,32.39-32.6m-45.26,49.25a167.84,167.84,0,0,0-9.66,15.32c-3,4.61-5.09,9.76-7.76,14.57-2.83-4.65-4.94-9.74-8.24-14.11-4.61-6.55-9.78-12.78-16.15-17.7a153.81,153.81,0,0,0-5.47,46,15.45,15.45,0,0,1-3.24-1.37,73.52,73.52,0,0,0-27-8.56,10.36,10.36,0,0,0-3.24,0c1.31,4.05,2.08,8.25,3.51,12.26a110.24,110.24,0,0,0,10.45,23.08,87.94,87.94,0,0,0-25.6,5.57c-2.22,1-4.67,1.62-6.55,3.24,5.23,5.56,10.68,11,17.22,15.1,2.68,1.87,5.66,3.26,8.34,5.12a102.36,102.36,0,0,0-24.24,22.47,11.92,11.92,0,0,0,2.63,1.17c6,1.54,12,3,18.2,3.19,3.29.06,6.58,0,9.86-.06-1.9,4.35-4.45,8.39-6.1,12.86-2.31,6.2-5,12.46-5.6,19.1a76,76,0,0,0,24.13-8.67,48.08,48.08,0,0,1,5.77-3.24c-.29,8.76-.25,17.61,1.6,26.21.69,3.13,1,6.39,2.33,9.34a84.55,84.55,0,0,0,7.54-7c6.08-5.71,10.71-12.76,14.89-19.93,1.71,1.71,2.4,4.09,3.58,6.13a111.39,111.39,0,0,0,18.57,25.18c1,1,1.63-.72,1.91-1.45,3.93-11.37,6.76-23.34,6.35-35.44l.73-.72c12.51,8.45,26.64,14.29,41.15,18.36.18-3.07-.84-6-1.52-8.93a116,116,0,0,0-8-21.94c-1.67-3.55-4-6.75-5.6-10.32,18.05,1.17,36.16-1.44,53.66-5.8a3.46,3.46,0,0,0-1.09-1.7,120.81,120.81,0,0,0-39.3-25.86c.42-1.23,1.71-1.64,2.73-2.24a196.29,196.29,0,0,0,39.93-27.48c2.28-1.84,4.78-3.48,6.52-5.87A167.66,167.66,0,0,0,265.8,185c-5.56.19-11,1.48-16.56,1.86a41.22,41.22,0,0,1,3.86-6A122.75,122.75,0,0,0,262.32,165a168.63,168.63,0,0,0,9.62-20.62c1.07-3.36,2.85-6.52,3.26-10.06a246.85,246.85,0,0,0-22.63,11c-9.92,5.67-19.7,11.71-28.33,19.23a36.81,36.81,0,0,1,.45-8,137.68,137.68,0,0,0-2.62-37.78,11,11,0,0,0-1.29-4.13c-4.48,5.12-8.22,10.8-12.43,16.13Z" style="fill:#02aae8"/><path d="M208.35,130.75c4.21-5.33,8-11,12.43-16.13a11,11,0,0,1,1.29,4.13,137.68,137.68,0,0,1,2.62,37.78,36.81,36.81,0,0,0-.45,8c8.63-7.52,18.41-13.56,28.33-19.23a246.85,246.85,0,0,1,22.63-11c-.41,3.54-2.19,6.7-3.26,10.06A168.63,168.63,0,0,1,262.32,165a122.75,122.75,0,0,1-9.22,15.89,41.22,41.22,0,0,0-3.86,6c5.55-.38,11-1.67,16.56-1.86a167.66,167.66,0,0,1,39.78,1.64c-1.74,2.39-4.24,4-6.52,5.87A196.29,196.29,0,0,1,259.13,220c-1,.6-2.31,1-2.73,2.24a120.81,120.81,0,0,1,39.3,25.86,3.46,3.46,0,0,1,1.09,1.7c-17.5,4.36-35.61,7-53.66,5.8,1.61,3.57,3.93,6.77,5.6,10.32a116,116,0,0,1,8,21.94c.68,2.93,1.7,5.86,1.52,8.93-14.51-4.07-28.64-9.91-41.15-18.36l-.73.72c.41,12.1-2.42,24.07-6.35,35.44-.28.73-.93,2.49-1.91,1.45a111.39,111.39,0,0,1-18.57-25.18c-1.18-2-1.87-4.42-3.58-6.13-4.18,7.17-8.81,14.22-14.89,19.93a84.55,84.55,0,0,1-7.54,7c-1.34-2.95-1.64-6.21-2.33-9.34-1.85-8.6-1.89-17.45-1.6-26.21a48.08,48.08,0,0,0-5.77,3.24A76,76,0,0,1,129.71,288c.59-6.64,3.29-12.9,5.6-19.1,1.65-4.47,4.2-8.51,6.1-12.86-3.28,0-6.57.12-9.86.06-6.18-.2-12.23-1.65-18.2-3.19a11.92,11.92,0,0,1-2.63-1.17A102.36,102.36,0,0,1,135,229.31c-2.68-1.86-5.66-3.25-8.34-5.12-6.54-4.05-12-9.54-17.22-15.1,1.88-1.62,4.33-2.25,6.55-3.24a87.94,87.94,0,0,1,25.6-5.57A110.24,110.24,0,0,1,131.1,177.2c-1.43-4-2.2-8.21-3.51-12.26a10.36,10.36,0,0,1,3.24,0,73.52,73.52,0,0,1,27,8.56,15.45,15.45,0,0,0,3.24,1.37,153.81,153.81,0,0,1,5.47-46c6.37,4.92,11.54,11.15,16.15,17.7,3.3,4.37,5.41,9.46,8.24,14.11,2.67-4.81,4.73-10,7.76-14.57a167.84,167.84,0,0,1,9.66-15.32m-17.47,31.16A106.67,106.67,0,0,0,181.71,196a65.69,65.69,0,0,0-15.06-16.48c-1.71-1.18-3.2-2.8-5.25-3.38a79.06,79.06,0,0,0,5.33,25.5,13.84,13.84,0,0,0,2,3.9l-1.62-.27a56.18,56.18,0,0,0-24.9-4.61c4.63,7.34,10.61,14,18,18.64l.31.92a62.6,62.6,0,0,0-24.89,9.14c7.88,3.51,16.38,5.94,25.06,5.85a10,10,0,0,1-1.08,1.17,73.57,73.57,0,0,0-17.37,19.35,63.12,63.12,0,0,0,25.63-7.88,69.19,69.19,0,0,0-7.74,27.39,67.38,67.38,0,0,0,19.73-20.13,77.84,77.84,0,0,0,6.23,28.25l.81-.47c4.23-8.76,7.42-18.15,8.09-27.9a73.25,73.25,0,0,0,21.24,22.37,72,72,0,0,0-6.84-30.16,87.47,87.47,0,0,0,32.82,8.19,73,73,0,0,0-23.63-22.83c12.42-1.06,24.48-5,35.67-10.33,0-.14.08-.43.11-.58a88.43,88.43,0,0,0-34.67-6.13c11.19-7.35,20.34-17.32,28.55-27.78a104.06,104.06,0,0,0-29.62,9.87c-2.28,1-4.28,2.6-6.66,3.41a99.45,99.45,0,0,0,11.41-35.58,117.41,117.41,0,0,0-25.46,28.71c-.35-11-2.38-22.13-7-32.2Z" style="fill:#006fb8"/><path d="M92,415.32c4.6-2.22,9.13-4.58,13.72-6.82,0,15.1,0,30.19,0,45.28,0,2.24-.15,4.58.75,6.69a10.22,10.22,0,0,0,7.17,6.31,27.25,27.25,0,0,0,5.64.24c2.3,0,4.72.27,6.88-.72a12.53,12.53,0,0,0,3.84-3.11c5.6-6,11-12.15,16.64-18.12a16.09,16.09,0,0,1,9.12-5.2c4.14-.69,8.34,1,11.47,3.67,1.63,1.45,3.19,3,4.71,4.52a58.11,58.11,0,0,1,5.75,5.89,19,19,0,0,1-23.34,28.63c-3.85-1.69-6.48-5.1-9.45-7.93-1.16-1.18-2.33-2.33-3.5-3.49-1,1-1.9,2-2.81,3.1a20.76,20.76,0,0,1-16.69,6.67c-5.58-.27-11.43.83-16.76-1.34a20.64,20.64,0,0,1-13.24-18.84c.07-15.14-.1-30.29.09-45.43m64.38,40.42c-1.78.65-2.77,2.4-4.1,3.64-.4.58-1.45,1.08-1.09,1.91,2.6,2.67,5.28,5.27,7.89,7.93a5.18,5.18,0,0,0,7.69-1,5,5,0,0,0-.32-6c-1.35-1.54-2.89-2.9-4.3-4.39s-3.63-2.78-5.77-2.08m31.87-40.31c4.66-2.23,9.19-4.74,13.91-6.83q0,24.12,0,48.23A10.3,10.3,0,0,0,211.85,467q38.19,0,76.38,0c.14,4.65.11,9.3,0,13.95-26.77-.06-53.54,0-80.32,0a20.61,20.61,0,0,1-18-12.63,21.31,21.31,0,0,1-1.64-8.42q0-22.22,0-44.44m199.75,0c4.65-2.24,9.2-4.69,13.9-6.84-.08,15.94,0,31.88,0,47.83a10.34,10.34,0,0,0,7,10.13c1.86.7,3.86.47,5.8.49,11.8,0,23.59,0,35.39,0,0,4.63,0,9.26,0,13.89-12.54,0-25.07,0-37.6,0-2.92,0-5.89.23-8.75-.55a21.69,21.69,0,0,1-11.7-7.59,34.11,34.11,0,0,1-12.61,7c-5,1.61-10.37,1.08-15.56,1.16H302c0-4.63,0-9.27,0-13.9h69.69a15.61,15.61,0,0,0,11.86-5.8c3.13-3.75,4.22-8.76,4.45-13.53,0-10.76-.05-21.52,0-32.28m68.86-.05c4.62-2.23,9.21-4.54,13.78-6.87.22,16.26,0,32.52.11,48.79A10.25,10.25,0,0,0,480.3,467c10.56,0,21.13,0,31.7,0v13.91H476.79A20.64,20.64,0,0,1,458,467.06c-1.57-4.26-1.1-8.85-1.17-13.29,0-12.8-.08-25.61.06-38.41m-389,9.69c4.6-2.34,9.17-4.72,13.81-7,0,11,0,22.07,0,33.1a30.94,30.94,0,0,1-27,29.53,55.17,55.17,0,0,1-6.92.2h-23c-3.7-.05-7.49.35-11.06-.85A20.85,20.85,0,0,1-1,462.23V432.56c4.64-2.2,9.18-4.6,13.8-6.83,0,10.35,0,20.71,0,31.06A10.32,10.32,0,0,0,22.47,467H48.53a24.52,24.52,0,0,0,5.68-.34,17.2,17.2,0,0,0,12.64-11.2,21.49,21.49,0,0,0,1-7.81c0-7.54,0-15.08,0-22.63m275.65-1.66c2.76-1.29,5.4-2.88,8.25-4,0,2.68-.05,5.36,0,8-2.76,1.37-5.48,2.82-8.29,4.07,2.52,0,5.35.05,7.33,1.86,3.65,3.15,2.95,9.8-1.28,12.12-3.84,1.95-7.69,3.9-11.61,5.66,0-2.69,0-5.38,0-8.07,2.78-1.27,5.41-2.86,8.26-4-2.43-.07-5.17-.09-7.11-1.78-3.46-2.62-3.49-8.45-.25-11.25,1.25-1.35,3.12-1.79,4.66-2.71M39.25,426.18c.4-.55,1.11-.38,1.69-.43,3.12,3.1,6.22,6.22,9.34,9.33A1.64,1.64,0,0,1,50,437.5c-2.7,2.67-5.39,5.34-8.06,8.05a4.64,4.64,0,0,1-1.69,1.09,5.16,5.16,0,0,1-1.68-1.16c-2.65-2.71-5.36-5.37-8-8.05a1.66,1.66,0,0,1,0-2.54c2.91-2.91,5.81-5.83,8.73-8.71m389.14,0c.37-.54,1.06-.37,1.63-.43,3.11,3,6.16,6.09,9.2,9.18a1.66,1.66,0,0,1-.07,2.5c-2.88,2.92-5.75,5.83-8.7,8.66l-1,.52c-1.33-.34-2.09-1.52-3-2.41-2.24-2.24-4.48-4.49-6.74-6.72a1.6,1.6,0,0,1-.23-2.41c3-2.93,5.93-5.95,8.93-8.89m58.75,65.18c.59,0,1.3-.22,1.78.26,2.26,2.09,4.36,4.35,6.58,6.5a23.31,23.31,0,0,1,2.73,3,1.65,1.65,0,0,1-.57,1.79c-3,2.83-5.78,5.79-8.71,8.64a1.43,1.43,0,0,1-2.14,0c-2.89-2.88-5.79-5.77-8.67-8.66a1.5,1.5,0,0,1-.15-2.28c3-3.13,6.13-6.12,9.15-9.22" style="fill:#024b8f"/></svg>