<svg xmlns="http://www.w3.org/2000/svg" viewBox="0 0 512 512"><path d="M256.69,0a44.46,44.46,0,1,1-44.46,44.46A44.46,44.46,0,0,1,256.69,0Z" style="fill:#008570;fill-rule:evenodd"/><polygon points="95.01 220.86 256.62 96.92 358.61 203.89 261.17 278.61 231.44 247.42 294.1 199.37 251.58 154.78 95.01 274.85 95.01 220.86" style="fill:#008570;fill-rule:evenodd"/><polygon points="250.82 167.31 280.55 198.5 217.9 246.55 260.41 291.14 416.99 171.06 416.99 225.06 255.37 349 153.39 242.03 250.82 167.31" style="fill:#008570;fill-rule:evenodd"/><path d="M66.11,443a106.25,106.25,0,0,1-6.55,29.9,78.85,78.85,0,0,1-8.81,16.42q-12.66,17.13-30.43,17.29-9.23-.42-14.61-6.07c-3.6-3.77-5.49-9-5.71-15.76q0-15.94,10.47-34.59c1.36-2.5,2.16-3.3,2.43-2.4a4.69,4.69,0,0,1-.08,2.77q-6.93,13.74-7.08,23.75C6,479.5,7.81,483.4,11.23,486s7.81,3.91,13.16,3.94a38.76,38.76,0,0,0,19.53-5.37,36.77,36.77,0,0,0,11.2-11.67q6.41-9.74,5.68-26.88a29.55,29.55,0,0,0-.44-4.48,35.91,35.91,0,0,1-.5-4.48,4.31,4.31,0,0,1,1.34-3.54,3.68,3.68,0,0,1,3.15-.78Q67.62,434.22,66.11,443ZM40.64,455.06a7.11,7.11,0,0,1-.24,3.44,22.13,22.13,0,0,1-1.79,4.22,15.08,15.08,0,0,1-3.18,4.22,3.79,3.79,0,0,1-2.13,1.25,5.63,5.63,0,0,1-2.14-1.35l-3.05-2.5c-.92-.76-1.71-1.46-2.37-2.08a2.56,2.56,0,0,1-.94-1.57q3-6.72,4.12-8.75t3.59-6c.93.76,2.1,1.68,3.49,2.76a18.63,18.63,0,0,1,3.2,3A7,7,0,0,1,40.64,455.06Z" style="fill:#008570"/><path d="M64.24,444.23c-1.77-1.18-2.39-3.37-1.87-6.59s1.18-4.84,2-4.87a24.55,24.55,0,0,0,4.37.42,10.3,10.3,0,0,0,4.85-1.05,9.52,9.52,0,0,0,3.49-3.69l2.6-4.28c.76-1.14,1.81-2.53,3.13-4.16a12.15,12.15,0,0,1,2.87-2.87c.17-.21.51-.73,1-1.56s1.25-2,2.18-3.44c.74-1.15,1.17-1.72,1.31-1.72,1.42,1.29,2.44,2.24,3.07,2.86,2,2.4,3,4.63,3,6.67a9.45,9.45,0,0,1-.67,3.49,11.18,11.18,0,0,1-1.67,3.23,4.77,4.77,0,0,1-2.09,1.88,7.13,7.13,0,0,1-2,.36,24.41,24.41,0,0,1-3.12-.2,16.23,16.23,0,0,0-1.88-.26c-2.12,0-4.06,1.33-5.84,4-1.21,1.8-2.28,3.53-3.22,5.16a16.12,16.12,0,0,1-4.22,4.89,7.82,7.82,0,0,1-3.7,1.59A10.77,10.77,0,0,1,64.24,444.23Z" style="fill:#008570"/><path d="M108.89,449.54q-.26,9.43,3.59,12a5.23,5.23,0,0,0,4.2.95,5.07,5.07,0,0,0,3.25-2.2,16.76,16.76,0,0,0,1.93-4c.52-1.55,1-2.32,1.47-2.32s.83.56.73,1.67a48.62,48.62,0,0,1-1.78,9.14,32,32,0,0,1-4.56,10.4c-1.92,2.71-4.28,4.13-7.06,4.27q-4.22-.17-6.56-4.75Q102,470.17,102.17,463q.15-5.25,1.43-16.82T107,421.41c.83-2.57,2.5-7.09,5-13.55.28-.62.55-.88.83-.78s.41.37.41.78q-.19,4.8-1.92,18.24T108.89,449.54ZM120.15,418c0-.62,1.1-3,3.33-7.06s3.6-6.15,4.12-6.22c.83,0,2.13.75,3.93,2.26a13.22,13.22,0,0,1,3.61,4.3c1.16-1.87,2.25-3.7,3.29-5.47q2.3-3.75,2.81-3.75c1.26,0,2.86.88,4.8,2.66,1.88,2,2.81,3.8,2.81,5.47,0,1.91-.93,4.3-2.81,7.19-1.94,2.74-3.34,4.11-4.17,4.11-.66,0-1.62-.64-2.86-1.92a35.18,35.18,0,0,0-4.33-4c-2.84,5.84-5.1,8.75-6.72,8.75-.34,0-1.75-1-4.17-2.89S120.15,418.32,120.15,418Zm7.13-19.38c0-.52,1-2.81,2.89-6.88s3.21-6.13,3.83-6.19c1.45,0,3.07.88,4.84,2.65q2.67,3,2.67,5.73c0,1.71-.84,4.06-2.49,7.08s-2.85,4.54-3.61,4.54c-.49,0-1.54-.71-3.15-2.14s-2.85-2.45-3.7-3.07S127.28,399.11,127.28,398.59Z" style="fill:#008570"/><path d="M222.91,416a21.36,21.36,0,0,1-1,3.8c-.44,1.22-1.16,2.92-2.19,5.11s-1.64,3.44-1.85,3.75c-.83,1.32-1.56,2-2.18,2-.45-.31-.87-.62-1.23-.91a1.7,1.7,0,0,0-1-.44,12.42,12.42,0,0,0-5.18,1.61,32.64,32.64,0,0,0-7,5.13,41.61,41.61,0,0,0-6,6.57c-1.42,2-2.15,3.43-2.15,4.19a3.34,3.34,0,0,0,1.1,2.66,15.18,15.18,0,0,0,3.37,1.67,13.32,13.32,0,0,1,3.2,1.56c1.7,1.18,2.56,3.53,2.56,7a60.08,60.08,0,0,1-2.74,16.59,62.42,62.42,0,0,1-7.16,16.23,61.22,61.22,0,0,1-5.34,6.38,37.48,37.48,0,0,1-6.55,5.51,27.43,27.43,0,0,1-15.46,4.42q-10-.15-15.11-6.72a20.48,20.48,0,0,1-3.23-7.08,30.66,30.66,0,0,1-.89-7.15,55.3,55.3,0,0,1,.63-8.38,54.45,54.45,0,0,1,1.93-8.23,97.93,97.93,0,0,1,4.92-13c1.92-4.17,3.5-7.54,4.71-10.11l3.65-7.82c.41-.87.86-1.72,1.33-2.55s.89-1.25,1.28-1.25.78.42.8,1.25a4.15,4.15,0,0,1-.28,1.88c-.56,1.49-1.05,2.75-1.46,3.77s-1,2.51-1.88,4.43-1.74,4-2.71,6.25l-2.4,5.55c-3,8.13-4.58,14.23-4.58,18.29a12.47,12.47,0,0,0,4.56,10.16q4.56,3.75,12.85,3.75a29.16,29.16,0,0,0,13.27-3.23,27.83,27.83,0,0,0,8-5.83,33.59,33.59,0,0,0,4.87-6.46,11.52,11.52,0,0,0,1.66-5.42c0-1-.73-1.75-2.2-2.22s-2.55-.78-3.21-.93a10.35,10.35,0,0,1-2.23-.87,9.22,9.22,0,0,1-3.66-2.92,8.26,8.26,0,0,1-1.24-4.78c0-3.1,1-7,3-11.76a60.11,60.11,0,0,1,8.46-14,93.93,93.93,0,0,1,8.13-9.12c1.32-1.22,3-2.58,5-4.12a58.54,58.54,0,0,1,5.92-3.95,17.86,17.86,0,0,1,5.57-2.35,1.15,1.15,0,0,1,1.15.7A2,2,0,0,1,222.91,416Z" style="fill:#008570"/><path d="M246.28,438.91a44.93,44.93,0,0,1-1.61,7.63c-1,3.7-2.34,7.75-4,12.12a77.48,77.48,0,0,1-4.36,9.92,16.88,16.88,0,0,1-4.08,5.14,21.21,21.21,0,0,1-7.2,3.2,79,79,0,0,1-8,2,31.62,31.62,0,0,1-3.79.51c-.52-.06-.83-.28-.93-.65a1.72,1.72,0,0,1,.47-1.38q.82-1.35,4.33-3.49c2.32-1.42,5-3.22,8.1-5.39a33.21,33.21,0,0,0,6.56-5.68,42.15,42.15,0,0,0,4.4-7.26q2.44-4.86,4.46-9.77c1.34-3.29,2.29-5.52,2.87-6.73s1.19-1.76,1.85-1.69S246.28,438,246.28,438.91Z" style="fill:#008570"/><path d="M259.93,450a37.49,37.49,0,0,1-.63,5.33,16.6,16.6,0,0,1-1.27,4.09,6.19,6.19,0,0,1-2,2.5,3.94,3.94,0,0,1-2.92.58q.1-6.11,1.31-17t3.64-24.1q1.26-3.86,5.06-13.55c.27-.62.55-.88.83-.78a.74.74,0,0,1,.42.78c-.15,3.2-.78,9.28-1.93,18.24s-1.84,15.11-2.11,18.44S259.93,449.7,259.93,450Z" style="fill:#008570"/><path d="M287.13,463.14a7.68,7.68,0,0,0-3.55,0q-4.06,1.31-8.33,8.8c-3.1,5-6.53,7.51-10.32,7.51a9.68,9.68,0,0,1-8.75-5,23.49,23.49,0,0,1-3.08-11.9,49,49,0,0,1,3-7.89,10.28,10.28,0,0,1,3.83-4.56q0,7.8,3.81,11.35a9.89,9.89,0,0,0,6.72,2.55,10.43,10.43,0,0,0,8.74-4.68,29.83,29.83,0,0,1,4.43-4.93,5.69,5.69,0,0,1,3.5-1.48q1.08.31,1.32,4.74T287.13,463.14Zm-28.39,42.4c0-1.15.91-3.55,2.75-7.19s3-5.61,3.59-5.89c1.12-.48,2.7.38,4.77,2.59s3.17,3.93,3.32,5.18c0,1.63-.88,4-2.61,7.11s-3,4.66-3.76,4.66a11.61,11.61,0,0,1-3.06-1.8c-1.74-1.2-3.05-2.14-3.91-2.84A2.49,2.49,0,0,1,258.74,505.54Z" style="fill:#008570"/><path d="M302,436.46q.47,4.59,2.91,5.53a15.15,15.15,0,0,1,1.1,3.73,22.92,22.92,0,0,1,.29,3.85,19.54,19.54,0,0,1-.39,3.59,11.55,11.55,0,0,1-1,2.9,7.85,7.85,0,0,1-3.85-.84q-.63-.25-5.5,4.19c-3.25,3-6.06,4.2-8.46,3.68a14.41,14.41,0,0,1-.84-2.45,14.61,14.61,0,0,1-.37-2.63,11.67,11.67,0,0,1,.21-2.64,7.71,7.71,0,0,1,1-2.49,7.27,7.27,0,0,1,2.94.73,10.49,10.49,0,0,0,3.43.86,3.9,3.9,0,0,0,3.15-1.23,2.42,2.42,0,0,0,.85-1.15q-2.67-7.65,1.25-15.89c.9-1.49,1.62-2.24,2.18-2.24S301.78,434.8,302,436.46Zm-13-29c0-.63,1-2.76,3-6.41s3.2-5.57,3.7-5.79q1.24-.51,3.61,1.78a26.65,26.65,0,0,1,3.57,4.06l3.25-5.36c1.2-2,2-3,2.43-3,1.18,0,2.62.88,4.3,2.65a8.44,8.44,0,0,1,2.69,5c0,1.85-.92,4-2.71,6.56s-3.06,3.76-3.87,3.76c-.55,0-1.53-.71-2.94-2.11a33.74,33.74,0,0,0-3.72-3.31q-3.9,8-6.26,8a2.87,2.87,0,0,1-1.66-.94c-.69-.59-1.76-1.46-3.2-2.63S289,407.72,289,407.41Z" style="fill:#008570"/><path d="M307.34,442.3q.57,0,1.41-1.77c.68-1.46,1.39-3,2.07-4.51s1.45-3.11,2.25-4.71a23.67,23.67,0,0,1,3.18-5.16c2.05-2.36,4.23-3.55,6.55-3.55a6.32,6.32,0,0,1,3.55,1.1,3.51,3.51,0,0,1,1.63,3.08c0,2-.81,3-2.41,3a4.9,4.9,0,0,1-2.29-.68,4.81,4.81,0,0,0-2.35-.73,5.17,5.17,0,0,0-3.74,1.35,7.79,7.79,0,0,0-2.24,3,7,7,0,0,0-.73,2.86q0,4.17,4.78,4.17a7.09,7.09,0,0,0,3.29-.73,8.69,8.69,0,0,0,3-3.29c.51-.83,1.06-1.69,1.63-2.58s1.17-1.79,1.8-2.73a1.35,1.35,0,0,1,1.09-.62q.32,0,.48.57a1.82,1.82,0,0,1-.17,1.25q-1.86,4.11-3.95,8.18a34.72,34.72,0,0,1-4.64,7.14,25.68,25.68,0,0,1-9,7.35,18.38,18.38,0,0,1-7.66,1.77c-.31-.91-.62-1.9-.91-3a19.41,19.41,0,0,1-.6-3.41,15.22,15.22,0,0,1,.16-3.73,12.92,12.92,0,0,1,1.35-4A9,9,0,0,0,307.34,442.3Z" style="fill:#008570"/><path d="M348.24,435.48c-.14,3.78-.24,7.18-.29,10.18a76.16,76.16,0,0,1-.45,7.63,45.69,45.69,0,0,1-2.57,11.91,41.54,41.54,0,0,1-3.08,6.9,19,19,0,0,1-1.85,2.5c-.55.52-1,.7-1.27.52a.78.78,0,0,1-.35-.88c0-.11.33-1.69.95-4.75a63.39,63.39,0,0,0,1.17-8.87q.24-4.31.08-12.14a86.56,86.56,0,0,1,.37-12,35.62,35.62,0,0,1,1-5c.49-1.74,1.06-3.42,1.7-5.07s1.31-3.23,2-4.72,1.34-2.81,1.94-4c.48-.73.89-1,1.25-.86a.78.78,0,0,1,.46.86,10.93,10.93,0,0,0-.23,1.59c-.09.82-.19,1.79-.26,2.92s-.17,2.33-.25,3.62-.12,2.54-.18,3.77-.09,2.38-.13,3.42S348.24,434.88,348.24,435.48Z" style="fill:#008570"/><path d="M371.58,479.45a19.41,19.41,0,0,0-11.93,2.81.91.91,0,0,1-1.19.05c-.35-.28-.26-1.07.29-2.4a31.39,31.39,0,0,1,4.59-6.51,30.32,30.32,0,0,1,8.24-6.82A18.38,18.38,0,0,1,371.58,479.45Z" style="fill:#008570"/><path d="M423.51,459.44l-2,1.57c-2,.62-3,.91-2.87.88L414,465.07a31.33,31.33,0,0,0-4.89,1.88l-2,1.56a9.38,9.38,0,0,1-2.56,1.56,3.58,3.58,0,0,1-1.87.26l-2.14-.16q-3.29,0-4.58,1.46c-1.57,1.56-2.89,2.94-4,4.12a31.58,31.58,0,0,1-4.45,3.91,10.23,10.23,0,0,1-6,2.19,15.48,15.48,0,0,1-6.1-1.12,18.46,18.46,0,0,0-3.83-1.28,8.82,8.82,0,0,1-1.25-2.76,14.78,14.78,0,0,1-.51-3.5,13.56,13.56,0,0,1,.36-3.59,7.59,7.59,0,0,1,1.4-3,18.18,18.18,0,0,1,6.91-2.21,11.55,11.55,0,0,1,5.71.93,11.77,11.77,0,0,0,4.89,1.17,9.71,9.71,0,0,0,5.36-1.87q6.09-4.22,6.72-4.22a15.73,15.73,0,0,1,2,.16,9.83,9.83,0,0,1,1.87.62c1.36.63,2.7.16,4.07-1.4a6.84,6.84,0,0,0,1.72-1.93c.52-.84.93-1.25,1.24-1.25a3,3,0,0,0,2.25,1.4c1.62,0,2.86-1.09,3.69-3.28.46-1.11.84-1.66,1.15-1.66a2.27,2.27,0,0,0,1.88.62,4.55,4.55,0,0,0,2.44-.78,12.57,12.57,0,0,1,.68,1.56,4.35,4.35,0,0,1,.42,1.67,4.79,4.79,0,0,1-.31,2A6.68,6.68,0,0,1,423.51,459.44Z" style="fill:#008570"/><path d="M423.51,452.88l1.62-1a3.19,3.19,0,0,0,1.09-.94,2.44,2.44,0,0,0-.1-.6,7.83,7.83,0,0,1-.1-1.56,16,16,0,0,1,.84-3.94,20.22,20.22,0,0,1,3-5.75c1.4-2,2.37-2.81,2.89-2.53a3,3,0,0,1,.15,1.88,7.81,7.81,0,0,0,.15,2.66,3.34,3.34,0,0,0,1.63,2,5.9,5.9,0,0,0,3.22.78,9.17,9.17,0,0,0,6.11-2.13c.44-.46.9-.92,1.37-1.39l1.44-1.43a10,10,0,0,1,5.62-3.33,16.6,16.6,0,0,0,3-.63,6,6,0,0,0,2.66-2.66c.73-1.42,1.29-2.1,1.66-2s.48,1,.07,2.66a27.06,27.06,0,0,1-2.56,5.67q-1.83,3.3-3.54,3.91a5.73,5.73,0,0,1-3.45.47,6.25,6.25,0,0,0-3.48.57,7.82,7.82,0,0,0-3.08,2.71c-.87,1.43-1.23,2-1.09,1.72a18.25,18.25,0,0,1-4.9,5.11,11.43,11.43,0,0,1-5.15,1.15,21,21,0,0,1-2.51-.16,9.24,9.24,0,0,0-2.29,1.51c-1.15,1-2.57,2.24-4.28,3.8-.1-.56-.22-1.1-.35-1.64a10.07,10.07,0,0,1-.3-1.64,6.41,6.41,0,0,1,.06-1.64A4.79,4.79,0,0,1,423.51,452.88Z" style="fill:#008570"/><path d="M482.82,457.51a56.49,56.49,0,0,1-5.05,11.15,16.72,16.72,0,0,1-3.68,4.46,21.48,21.48,0,0,1-4,1.85c-1.77.66-4.49,1.57-8.1,2.73a37.58,37.58,0,0,1-6.44,1.75c-.42,0-.62-.11-.62-.31q-.63-.84,6.47-5.6c4.74-3.18,7.81-5.27,9.18-6.26a20.69,20.69,0,0,0,4.22-4.35,19,19,0,0,0,3.15-6.46,3,3,0,0,0-1.12.11,10.69,10.69,0,0,0-1.09.36c-.37.14-.74.27-1.13.39a3.55,3.55,0,0,1-1.09.18,7.27,7.27,0,0,1-4.87-1.9,4.37,4.37,0,0,1-1.63-4c.2-.87.51-1.9.9-3.08a56.77,56.77,0,0,1,2.47-5.6,39.27,39.27,0,0,1,3.78-6.33q1.9-2.5,3.78-2.5a6.57,6.57,0,0,1,5.37,2.74,10.4,10.4,0,0,1,2.13,6.59,33.14,33.14,0,0,1-.23,3.85c-.16,1.29-.32,2.36-.5,3.21s-.43,1.94-.78,3.28S483.23,456.37,482.82,457.51Z" style="fill:#008570"/><path d="M479,448.45v-1.09q.53-2.76,4.74-6.41a13,13,0,0,0,5.48-5.47q1.4-2.76,4.48-8.13a42.93,42.93,0,0,1,2.71-3.54,35.15,35.15,0,0,1,4.16-4.12q.53-.57,2.87-4a22.9,22.9,0,0,1,1.82-2.55c.83-.07,2.19,1.2,4.06,3.8a13.08,13.08,0,0,1,2.72,7.34,12.3,12.3,0,0,1-1.62,6.1,12.09,12.09,0,0,1-3.91,4.33,5.47,5.47,0,0,1-3.07.94,18.63,18.63,0,0,1-2.35-.32c-1-.1-1.78-.16-2.24-.16a8.74,8.74,0,0,0-2.44.32q-3.81,1.61-7.35,8.65c-.62,1.25-1.15,2.24-1.56,3s-.7,1.23-.84,1.51a31.39,31.39,0,0,1-2.92,4.27,12,12,0,0,1-2.71,3,10.55,10.55,0,0,1-2.81,1.4Z" style="fill:#008570"/></svg>