<svg xmlns="http://www.w3.org/2000/svg" viewBox="0 0 512 512"><path d="M53.81.11Q110.27,0,166.73.09c3.38-.35,5.33,2.81,7.47,4.84l83.49,83.54Q300.8,45.14,344.09,2A5.06,5.06,0,0,1,348.64.05c37.6.07,75.2-.07,112.81.06q.15,145.31,0,290.61c-.07,39,.14,77.92-.1,116.88-21.14.54-42.3.1-63.44.24H100.33c-15.49-.14-31,.3-46.48-.26q-.2-203.74,0-407.47M96.77,43q-.06,160.89,0,321.81,160.88,0,321.75,0-.1-160.07,0-320.14c.42-1.7-1.53-1.79-2.64-1.71-16.75.05-33.51,0-50.26,0a4.26,4.26,0,0,0-3.5,1.58C337.46,69.39,312.68,94,288,118.81q21.57,21.51,43.09,43.09a3.46,3.46,0,0,0,3,1.13c26.7.21,53.41-.28,80.11.23-12.67,17-25.84,33.63-38.76,50.44-17.39.18-34.8-.09-52.19.13,9.84,9.72,19.67,19.47,29.34,29.36-2,3.16-4.9,5.62-7.51,8.26q-42.75,42.85-85.58,85.63c-.46.07-1.38.22-1.85.28-24.62-24.72-49.37-49.32-74-74.07-27.24-.16-54.49.16-81.72-.17,2.22-4.51,5.79-8.11,8.74-12.13,9.1-11.91,18.32-23.71,27.44-35.6,1.19-1.41,2.39-3.43,4.56-3,16.76-.05,33.53,0,50.28,0-9.78-9.91-19.75-19.65-29.49-29.61,21-21.51,42.58-42.47,63.63-63.93C203,94.23,178.35,70.07,154.08,45.56c-1.24-1.14-2.48-2.78-4.39-2.52-17.64,0-35.27,0-52.92,0m99,168c-1.34.9-.9,2.65.26,3.47,20.75,20.89,41.63,41.67,62.43,62.5,20.43-20.6,41-41.05,61.5-61.56.74-.91,2.34-2.16.79-3.12q-31.51-31.62-63.12-63.15-30.88,31-61.86,61.86Z" style="fill:#a88b53"/><path d="M306.52,465.07c3.08,0,6.17,0,9.25,0q0,3.6,0,7.2h-9.25q0-3.63,0-7.24m99.92,5.86a16.18,16.18,0,0,1,11.22-5.73c4.07-.27,8.16,0,12.23-.12,0,2.67,0,5.33,0,8-3.52.05-7-.17-10.56.13a10.25,10.25,0,0,0-5.56,2.62c5.88.22,11.77,0,17.65.13a12.5,12.5,0,0,1,11.48,9.54c.7,2.45.3,5,.14,7.48,1.69,1.34,4,1.14,6,1.19,2.85-.07,5.72.13,8.57-.12a2.65,2.65,0,0,0,2.43-2.72c.11-4.95,0-9.89,0-14.84h9.16c0,4.94,0,9.88,0,14.83-.05,3.17-.87,6.66-3.4,8.78-2.08,1.83-5,2.26-7.64,2.19-4.37-.07-8.74,0-13.12-.05a10.57,10.57,0,0,1-6.28-2.59c-3,2.69-7.08,2.8-10.83,2.63-11.41,0-22.82,0-34.23,0A12.81,12.81,0,0,1,382,493.45a15.67,15.67,0,0,1,2.49-12.88c3.11.18,4.79,3.34,7.14,5-.71,1.82-1.84,3.87-.89,5.83a4.75,4.75,0,0,0,4.73,2.73c10.65.08,21.3,0,32,0A6.1,6.1,0,0,0,433,491.8a4.92,4.92,0,0,0-1.25-7.05c-1.51-.81-3.28-.7-4.93-.74-8.19,0-16.37,0-24.56,0-.05-4.66,1-9.57,4.22-13.12m52.07-5.86c3.06,0,6.11,0,9.17,0,0,2.41,0,4.81,0,7.22-3.06,0-6.11,0-9.18,0,0-2.42,0-4.84,0-7.25m17.53,0c3,0,6,0,9.08,0,0,8.75-.05,17.5,0,26.25a2.45,2.45,0,0,0,2.25,2.66c4,.32,8,.11,11.93.13,1.51.11,3.3-.6,3.43-2.32.28-5.1,0-10.22.11-15.33H512c0,4.95,0,9.9,0,14.84-.06,3-.77,6.35-3.09,8.5-1.95,1.9-4.79,2.49-7.42,2.45-5.3,0-10.61,0-15.91,0A9.37,9.37,0,0,1,478.3,499a12.24,12.24,0,0,1-2.27-7.73c0-8.73,0-17.48,0-26.21M81.56,481.32a11.78,11.78,0,0,1,9.38-6.42c3.94-.35,8.27-.34,11.69,1.93a14.43,14.43,0,0,1,5.83,11c-.95,2.48-3.06,4.28-4.71,6.31,4.69.05,9.38,0,14.07,0,1.47,0,3.37,0,4.07-1.6s.21-3.49.36-5.23c.13-5.24,3.57-10.48,8.68-12a19.91,19.91,0,0,1,7.95-.52,12.62,12.62,0,0,1,9.77,6.78,15.45,15.45,0,0,1-3.76,18.61c-2.9,2.46-6.87,2.95-10.54,2.66a13.73,13.73,0,0,1-7.35-2.69c-1.77,1.09-3.68,2.15-5.83,2.11-5.13.07-10.26,0-15.39,0-3.57-.06-7.24.39-10.67-.83-1.08-.45-2.16.12-3.21.34-2.53.72-5.18.47-7.76.5q-20.08,0-40.14,0c0-2.71,0-5.42,0-8.12,5,0,9.94,0,14.92,0,0-3.23.09-6.45,0-9.68.06-1.7-2.15-3.39-3.61-2.09-1,.55-1.23,1.7-1.67,2.64-2.86.05-5.72,0-8.58,0,.13-2.59.9-5.37,3.1-7,3.3-2.44,7.67-2.35,11.58-2,3.35.33,6.9,2.2,7.89,5.64,1.11,4.05.37,8.32.6,12.47,5.4,0,10.8.05,16.2,0-1.63-2-3.74-3.79-4.59-6.3-.13-2.28.81-4.48,1.76-6.51m53,.62c-2.39,1.43-3.18,4.47-3,7.11.11,2.38.85,5.32,3.3,6.31,2,1,4.39-.57,5.16-2.47a10.94,10.94,0,0,0-.13-8.88c-.91-1.9-3.38-3.18-5.35-2.07m-45.24,4.32a22.22,22.22,0,0,0,4.78,5.32,24.25,24.25,0,0,0,4.83-5.33c-1.2-1.75-2.72-3.77-5-3.89-2.15.34-3.58,2.1-4.58,3.9m177-4.93a11.83,11.83,0,0,1,9.94-6.49c3.88-.26,8.15-.18,11.44,2.2a14.45,14.45,0,0,1,5.5,10.8c-.95,2.49-3.05,4.29-4.7,6.3,4.29,0,8.6,0,12.9,0,1.39-.06,3,0,4.07-1.08s1.24-2.64,1.26-4.06c0-3.61,0-7.23,0-10.83,3,0,6,0,9.06,0,0,3.81-.16,7.63.09,11.44a4.36,4.36,0,0,0,3.41,4.22c4.14.56,8.35.16,12.52.26,0-5.44,0-10.88,0-16.32,3,0,6,0,9,0-.1,1-.2,2-.31,3a21.28,21.28,0,0,1,13.9-4.91,16.47,16.47,0,0,1,13.8,6.33c2.19,3,2.34,6.89,1.75,10.41-1.05,5.58-6.55,9.6-12.11,9.63-12.54.05-25.08,0-37.62,0a10.82,10.82,0,0,1-7.23-2.73,9.53,9.53,0,0,1-6.47,2.7c-7.21.08-14.43,0-21.64,0a22.81,22.81,0,0,1-5.84-1c-2.06.31-4.06,1.15-6.18,1-5.88-.07-11.75,0-17.63,0a10.36,10.36,0,0,1-6.56-2.59,11,11,0,0,1-7.15,2.61c-8.35,0-16.7,0-25.05,0a12.84,12.84,0,0,1-11.38-7.62,14.82,14.82,0,0,1,2-13.85l1.88,0c1.8,1.57,3.58,3.15,5.35,4.76-.73,1.82-1.83,3.87-.87,5.85.81,2.13,3.23,2.82,5.31,2.71,6.86,0,13.73.09,20.59-.06a2.78,2.78,0,0,0,2.92-2.82c.17-4.92,0-9.86.06-14.78h9.16c.05,4.38-.08,8.76,0,13.14a4.52,4.52,0,0,0,4.24,4.4c4.48.29,9,.08,13.46.1-1.6-1.88-3.49-3.63-4.53-5.9-.41-2.4.69-4.77,1.67-6.9m7.75,5.06a26.66,26.66,0,0,0,4.76,5.19,22.78,22.78,0,0,0,4.83-5.35c-1.17-1.76-2.69-3.64-4.94-3.91a6.76,6.76,0,0,0-4.65,4.07m66.41,7.74c4.85,0,9.69.07,14.54,0,2.81.09,6-2,5.87-5.08-.36-3.63-4.34-5.44-7.59-5.44-6,.4-10.9,5-12.82,10.52M29,476.49h9.07c0,5.88,0,11.76,0,17.65a18.17,18.17,0,0,1-7.69,14.65c-4.22,3-9.65,3.58-14.67,3a17.82,17.82,0,0,1-12.93-8.68C-.84,497.35-.4,490,1.16,483.67c3.19,0,6.38,0,9.57,0-1.18,3.63-2.38,7.48-1.52,11.32,1.13,4.33,4.87,8.11,9.41,8.64,6,0,10.8-5.86,10.4-11.72q0-7.73,0-15.43M168.57,481c2.46-3,6.37-4.38,10.17-4.5,4.77-.12,9.53,0,14.31-.05,0,7.8,0,15.6,0,23.4,0,3.4-1.12,7-3.91,9.11-4.27,3.36-10.18,3.31-15.27,2.31-.75-2.52-1.53-5-2.13-7.58,3.75.64,8.55,2.09,11.38-1.4-2.5-.13-5.06.15-7.51-.5a12.78,12.78,0,0,1-9.31-9.33c-.72-3.9-.4-8.33,2.29-11.46m8.69,4.14a5.06,5.06,0,0,0-.4,7.53c1.82,1.82,4.58,1.39,6.93,1.46,0-3.38,0-6.75,0-10.12-2.18.09-4.79-.58-6.53,1.13m40.3-7.92c3.09,0,6.17,0,9.26,0,0,2.32,0,4.66,0,7-3.09.05-6.19,0-9.28,0,0-2.35,0-4.69,0-7m11.27,0c3,0,6,0,9.07,0,0,2.35,0,4.69,0,7-3,0-6,0-9.08,0,0-2.33,0-4.66,0-7M14.92,480.94c3,0,6.11,0,9.16,0v7.21q-4.59,0-9.18,0c0-2.4,0-4.8,0-7.19m486.2,31c0-2.41,0-4.83,0-7.23,3.05.06,6.1,0,9.16,0,0,2.4,0,4.81,0,7.21-3,0-6.11,0-9.16,0" style="fill:#446272"/></svg>