<svg xmlns="http://www.w3.org/2000/svg" viewBox="0 0 512 512"><path d="M176.73,150.66c40.76-23.56,88.63-33.15,135.4-30.93q0,23.4,0,46.81c0,17.64,0,35.28,0,52.92-16.24-.35-32.51,1.08-48.61,3.15a296.68,296.68,0,0,0-71.42,18.9c-27.52,11.45-53.3,28.29-72.45,51.36a163,163,0,0,0-24.2,39.32Q97.3,305,99.53,277.87c.33-10.26,1.92-20.43,2.23-30.67.47-8.21,1.66-16.37,1.78-24.59a10.71,10.71,0,0,1,2.36-6.72c13.47-20.45,31.16-37.92,50.86-52.36a232.45,232.45,0,0,1,20-12.87M53,511.64Z" style="fill:#a7a7a7"/><path d="M358.13,19.51c4-6.25,7.33-12.91,10.71-19.51.22,35.22.09,70.44.07,105.66a278.25,278.25,0,0,1-56.78,60.88q0-23.4,0-46.81c-46.77-2.22-94.64,7.37-135.4,30.93a232.45,232.45,0,0,0-20,12.87c-.1-17.95,0-35.9-.07-53.84a274.9,274.9,0,0,0,85.7-8.82c25.53-6.84,50.14-17.75,71.43-33.52a176,176,0,0,0,44.31-47.84M248.24,235.44a48.23,48.23,0,0,1,53.84,36.32c3.64,12.88.76,27.1-6.42,38.24a48.5,48.5,0,0,1-87.8-15c-3.43-12.87-.77-27.09,6.48-38.19,7.57-11.48,20.17-19.76,33.9-21.37M465.89,338.85c8.69-8.28,17.24-16.71,25.88-25.05-2.87,12.74-12.86,22-21.71,30.94C453,361,433.73,374.59,415.42,389.33c-2.58,1.73-4.73,4.32-7.72,5.33l-.37-.26c2.35-8.6,9.31-14.63,16-20,14.08-12,29.14-22.81,42.6-35.51m-69.82,25.22c2.49-5.37,4.74-10.89,8.09-15.81,4.14,2.48,8.94,5.89,9,11.25-.94,4.76-3,9.91-7.39,12.47a48.46,48.46,0,0,1-9.68-7.91M330.72,388c8-4.92,16-10.49,25.37-12.19-1.93,5.35-4.53,11-9.34,14.34-4.35,2.09-9.11,3.4-13.12,6.19-12.15,8.51-24.05,17.36-36.18,25.89a310.5,310.5,0,0,1-50,27.54c-25,11.27-52.39,16.18-79.62,17.47a177.1,177.1,0,0,1-22.69-.32c-10-.91-20.15-2.13-29.53-5.93-1.24-.86-2.59.08-3.08,1.29-4.73,8.51-7.92,18.35-15.55,24.84-2.74,2.37-7.83,4.5-10.29.69a18.85,18.85,0,0,1,5-7.79c9.37-9.08,15.4-20.85,21.48-32.23,1.93-3.81,6.48-6.54,10.76-5.33,7.87,2,15.75,4.26,23.86,5.07,16.91,2.43,34,.7,50.89-.88C209.8,445,221,443.22,231.78,440a249.82,249.82,0,0,0,50.22-21c17-9.17,32.43-20.84,48.72-31.12M75.66,403.34c2.2-5.79,4.18-11.85,7.7-17-.91,13.35-3.88,26.48-5,39.84-.33,6.37-1.69,13.16,1,19.22,1,2.19,3.3,3.24,5.54,3.6,1.46-3.27,2.8-6.58,4.07-9.92,2.4.92,4.68,2.69,5,5.39a27.61,27.61,0,0,1-4.86,18.14c-2.35,3.59-7.14,5.83-11.29,4.2a14.69,14.69,0,0,1-7.59-11.69,76.57,76.57,0,0,1,.15-14c1.33-12.64,2.78-25.28,5.21-37.76m330.2-6.67.69-.14.54,1C405.74,407,403,416.08,402,425.51c-1.33,7.76-1.32,15.66-1.05,23.51.42,4.41,4.5,7.3,8.68,7.65,3.58-2.4,3.41-7.15,6-10.22,1.21,2.87.15,6-.46,8.88-1.55,5.44-2.92,11.21-6.59,15.67a7.61,7.61,0,0,1-11.45.09c-2.38-2.63-3-6.26-3.54-9.63-1.14-7.79.82-15.53,1.31-23.28-4.36,4.51-7,10.39-11.65,14.69-11.72,12.47-28.54,18.49-45,21.6-13,1.72-26.54,3.22-39.44-.17a11,11,0,0,1-8.25-10.36c0-6.58-.73-13.55,2.16-19.7,2.9,3.06,2,8.66,5.93,10.94s8.63,3,13.15,3.1c7.89.39,15.8.1,23.7-.27,15.41-1.71,31.12-5.31,44.21-14,6.17-4.25,11.74-9.8,14.68-16.8,2.55-5.67,3.09-12,5.22-17.78a128.27,128.27,0,0,1,6.29-12.78m27.91,23.55c.84-7.94,4.21-15.43,8.21-22.25.22,6.3-1.71,12.41-2.09,18.68-1.55,10.11-3.13,20.32-2.91,30.57.06,4.85,3.87,9.87,9.12,9.14,3-1.94,3.42-5.76,4.91-8.75.41-.22,1.23-.68,1.65-.89-.2,6.34-2.06,12.59-4.39,18.47-1.67,3.48-3.76,7.95-8.09,8.43a8.06,8.06,0,0,1-8.39-4.94c-2.05-4.45-2.06-9.53-2-14.33a287.9,287.9,0,0,1,4-34.13M51.15,449.06c4.14-1.45,5.24-6.38,8.93-8.43.8,3.45-1.08,6.66-2.28,9.77-2.85,6.56-7,13.44-14,16.1-3.59,1.66-7.47-.15-11.18-.06a19.46,19.46,0,0,0-7.89,3.75c-1.37.93-2.66,2.42-4.5,1.94,0-4.47,3.1-8,5.61-11.35,4-4.93,8.66-10.08,15.12-11.47,3.38,0,7,1.52,10.19-.25M45.5,499c2.77-5.8,5-11.92,8.89-17.1,4.16,2.85,9.36,6.26,9.3,11.94A22.68,22.68,0,0,1,58.78,505c-.88,1.33-2.94,2.62-4.41,1.36A88.8,88.8,0,0,1,45.5,499m-18.28,1c2.82-5.7,4.92-11.81,8.8-16.92,4.24,2.7,9.14,6.2,9.49,11.68-.92,5.29-3.37,10.94-8.22,13.75-3.38-2.82-7.09-5.26-10.07-8.51M442.73,484.4c3.52,2.71,8.35,5.34,8.75,10.29a17.16,17.16,0,0,1-7.23,13.8c-3.28-2.69-7.13-4.81-9.73-8.25,2.74-5.29,4.9-10.86,8.21-15.84Z" style="fill:#214b6a"/></svg>