<svg xmlns="http://www.w3.org/2000/svg" viewBox="0 0 512 512"><path d="M340.88.92c18-4.83,37.29,10,39.21,28.11.66,5.73-.77,11.5-3,16.75-7.32,16-29,23.1-44.41,14.68C326,56.57,320.17,50.57,317.82,43c-3.85-11.75-.71-25.67,8.25-34.29,4-4,9.44-6.18,14.81-7.81M268.23,21.45c18.87-3.58,38.19,13.51,37.41,32.6-.55,6.61-2.45,13.39-6.66,18.65C289.05,85.24,269.27,89,255.81,80c-6.13-4.24-11.25-10.33-13.07-17.69-3.22-12.07.77-26,10.39-34,4.27-3.66,9.68-5.61,15.1-6.83M198.51,54.5c17.2-3.88,36.13,9.15,38.5,26.65.67,6.94-.12,14.34-3.78,20.42a34.06,34.06,0,0,1-33.49,16c-6.94-1-13-5-18-9.72-12.08-12.43-10.62-34.62,2.11-46.07,4.09-3.72,9.36-5.87,14.64-7.28M317.32,80.86A482.26,482.26,0,0,1,402.54,63.6q.1,27.48.61,55c-41.43,4.36-83.11,11.79-121.51,28.53-.21,1-.43,2-.63,3,12.21,4.68,25.66,3.29,38.13,6.91,6.74,2.24,13.61,4.34,19.68,8.14,12.07,7.23,21.87,18.77,25.65,32.45,1.56,5.34,1.74,10.92,1.95,16.44.24,11.23-3.08,22.32-8.6,32-6.45,11.38-15.56,21-25.66,29.28-9.61,7.88-20.43,14.09-31.23,20.16-48.31,26.55-102.46,41.25-157.06,47.26.1-18.56-.54-37.13-.32-55.69,29.86-2.38,59.73-6.77,88.4-15.68,22.68-7,44.56-17.05,64-30.71,8.9-6.34,16.89-14.44,21.32-24.57-4.41-5.9-11.22-9.56-18.34-11.07-8.51-1.91-17.27-1.8-25.93-2.2.07-15.37,1.37-30.77.06-46.11a14.68,14.68,0,0,0-1.3-4.82c-11.71,7.34-23.85,14.41-33.56,24.4-3.29,3.3-6.43,7.21-7.08,12a8.14,8.14,0,0,0,4,8.55c8.14,4.6,17.68,5.58,26.85,6.15,3.78.14,7.53.63,11.32.58-.18,16.68-.37,33.37-.45,50-15,.42-30.25-.27-44.83-4.19-11.13-3-21.86-8-30.6-15.64s-14.26-18.42-16.36-29.72a64.63,64.63,0,0,1,6.84-42.88,110.72,110.72,0,0,1,27.51-31.1,197.67,197.67,0,0,1,30-19.18c23-12.09,46.95-22.61,71.89-30.07M385.7,375.1c6.5-6.31,12.41-13.32,20-18.44.83,20.84-.23,41.71.29,62.57a13.35,13.35,0,0,0,11.35,12.16c8.83,1.17,17.75.34,26.61.49.06,9.28,0,18.55,0,27.82-9.89-.18-19.78.14-29.67-.11-8.49-.27-16.09-5.71-20.43-12.81-4.06,5.1-9,10-15.31,12-3,1-6.31.87-9.48.86q-33.59,0-67.16,0c0-9.23-.13-18.48.12-27.71q35.72,0,71.43,0c4.43,0,9.18-1.38,12.16-4.83,2.36-2.69,2.45-6.43,2.91-9.79,1.35-14.15-2.1-28.13-2.8-42.2m65.94-1.9c5.79-5.72,11.46-11.6,17.9-16.61,1.46,20.63-.15,41.32.5,62a13.36,13.36,0,0,0,11.24,12.79c10.14,1.21,20.37.42,30.55.48.31,9.28.09,18.56.15,27.84-12.13-.35-24.29.67-36.39-.5-7.07-1.34-13.16-6.1-17.15-12a35.3,35.3,0,0,1-6-22.43,239.76,239.76,0,0,0-1.87-43.18c-.16-2.78-1.31-6.23,1.06-8.4M97.78,396.32c4.88-6,10.45-11.95,17.87-14.71,3.63,1.69,5.86,5.16,7.65,8.59,4.36,8.3,8.22,17.05,9.69,26.39a43.18,43.18,0,0,1-2.66,22.9,25,25,0,0,1-10.11,11.89c-4.3,2.38-9.25,3-14,4.05,3.9,8,8.6,15.8,14.91,22.19a9.13,9.13,0,0,0,4.55,2.83,2.23,2.23,0,0,0,2.5-1.68c3.15-8.74,2.5-18.43,6.24-27A36.36,36.36,0,0,1,151,434.55c6.16-2.94,13.18-2.68,19.83-2.63,39.89,0,79.78.06,119.66,0,.06,9.28,0,18.56,0,27.83-42.41-.13-84.82-.06-127.23-.05-5,.06-10.14-.15-15.09.94-3.55.79-7.15,2.95-8.45,6.53-1.78,4.91-.61,10.33,1.26,15,2.4,6.28,7,11.73,7.89,18.56.41,2.88,0,6.4-2.73,8-4.84,2.69-10.7,4.08-16.17,2.68-5.86-1.43-11-5.07-15-9.48-11.52-12.32-18.75-28.12-22.59-44.42A111.57,111.57,0,0,1,71,455.86c.13,12.35-1.09,25.46-8,36.06-5.86,9.25-15.22,17.11-26.41,18.35-12.63,1.26-25-3-36.28-8.27-.08-.85-.18-1.7-.26-2.54,13-3.34,26.87-4.75,38.71-11.6,8.12-4.24,15.71-10.71,18.82-19.58,1.65-5.5,2.92-11.84-.18-17.09-3.51-5.91-10.44-8.37-15-13.23-1.91-2.15-3.51-5.15-2.62-8.08,2-8.06,7.29-14.64,11.86-21.37C58,416.21,64,424.9,73.21,429.6c4.61,2.57,10.05,2.34,15.15,2.45-.2-12.4,1.7-25.62,9.42-35.73m2.73,35.84c6.76-.24,13.41-1.63,20-2.92.07-9.76-5-18.83-11.69-25.61-6.38,8-8.75,18.47-8.34,28.53m244.1-47.4c3.16-1.36,7-1.95,10.15-.14,2.25,1.23,4.67,3,5.1,5.75.25,1.46-.81,2.61-1.6,3.7-4.48-.59-8.82-3-13.41-2.05-2.33.65-5.45,2.35-4.78,5.26a10,10,0,0,0,9.5,7.29c5.05,0,9.6-2.49,14.38-3.76-.11,2.93-.38,5.85-.49,8.78-6.52,1.33-13.23,3.2-18.41,7.6-3.22,2.39-5.55,5.91-9.23,7.66-.89.62-1.92,0-2.69-.49-2.16-1.51-3.25-4-4.55-6.21a24.27,24.27,0,0,1,1.78-3.09c2.68-1.56,5.56-2.76,8.33-4.16-2.45-2.47-5.24-4.84-6.52-8.16a7,7,0,0,1,.58-6.09c2.65-5,6.61-9.55,11.86-11.89M196.2,394.53c8.23-2.23,17.8,4.65,17.32,13.4.18,6.41-5.16,11.87-11.25,13-6.24,1.5-13.35-2.25-15.43-8.37A14.42,14.42,0,0,1,189,399.14a14.25,14.25,0,0,1,7.24-4.61m38.91.1c6.86-2,14.67,2.32,17,9A13.1,13.1,0,0,1,248.89,417a14.91,14.91,0,0,1-14.19,3.73,14,14,0,0,1-7.09-5c-3.85-5.13-3.14-12.92,1.24-17.51a14.77,14.77,0,0,1,6.26-3.61m38.28-.07c7.56-2,16.38,3.5,17.16,11.44,1.38,8.1-6.34,15.83-14.35,15.29-6.9-.23-13.43-6.32-13.14-13.42-.29-6.17,4.45-11.83,10.33-13.31m153,0a14.67,14.67,0,0,1,13,3.11,14.45,14.45,0,0,1,4.34,7.71c1.25,6.48-3.23,13.35-9.5,15.17-6.85,2.33-15.13-1.72-17.36-8.62-2.56-7.1,2.15-15.69,9.5-17.37m61.48,89.66c8-2.22,16.74,4.58,17.2,12.73a14,14,0,0,1-2.65,8.54c-3.31,4.58-9.59,6.35-14.95,5a13.27,13.27,0,0,1-10.15-12.33c-.24-6.34,4.24-12.64,10.55-14m-321.08,3.4c5.07,0,10.17-.56,15.2.29a5,5,0,0,1,4.08,5.3,8.24,8.24,0,0,1-2.57,5.47,9.06,9.06,0,0,1,3.24,5.81c.39,2.62-1.33,5.6-4.06,6-5.26.84-10.59.3-15.89.35.09-7.76.09-15.5,0-23.26M193.24,511c3-7.84,6-15.7,8.84-23.59,2.13.17,4.4-.11,6.41.71,3.35,7.42,5.56,15.31,8.52,22.89-2.44,0-4.87,0-7.31,0-1.53-4.44-3-8.93-4.33-13.43q-2.66,6.68-5.18,13.4l-6.95.05m33.81-23.48q3,0,6-.08c2.7,3.57,5.28,7.22,7.92,10.84,0-3.61,0-7.21-.07-10.81,2.2,0,4.39.12,6.6.24,0,7.74,0,15.48,0,23.22l-6.45.1c-2.57-3.46-5.13-6.93-7.73-10.36,0,3.42,0,6.85.07,10.28q-3.21,0-6.4.06c0-7.83,0-15.66,0-23.49m32.1,0,6.58.07c0,3.09-.08,6.17-.1,9.25,2.47-2.87,4.63-6.05,7.52-8.53,2.4-1.28,5.29-.66,7.91-.89-2.68,3.45-5.3,6.94-8.05,10.33,2.93,4.55,6.1,8.95,9.12,13.44a60.19,60.19,0,0,1-8.27-.49,73.72,73.72,0,0,1-8.43-11.94c-.07,4.07.13,8.15.22,12.22l-6.5.13V487.47m46.37,1.28c4.24-1.51,9.2-2,13.38,0a8.54,8.54,0,0,1,4.42,5.66c-3.79.54-7.1-1.67-10.75-2.09-1.74-.24-3.22.78-4.52,1.77,4.06,2,8.83,2.26,12.58,4.9,2.36,1.63,3.65,5.34,1.7,7.75-5.17,7.09-18.5,5.76-21.23-2.94a46.15,46.15,0,0,1,6.75.28,6.71,6.71,0,0,0,4.72,2.3c1.95.15,3.53-1.11,4.87-2.33-4.18-2.4-9-3.26-13.27-5.47-3.56-2.34-2.46-8.34,1.35-9.81m27.88-1.25c2.22,0,4.44,0,6.67,0,0,7.8-.05,15.6,0,23.4H333.4q0-11.71,0-23.43m14.1,0,6.39,0c0,7.82,0,15.64.06,23.46l-6.51,0c0-3.26.06-6.52.1-9.77-1.86.08-3.72.17-5.57.27v-4.23c1.87-.06,3.74-.11,5.62-.14,0-3.2-.1-6.39-.09-9.59m24.69.21c2.27-.05,4.54-.09,6.83-.08,2.58,7.85,5.52,15.58,8.43,23.31-2.49,0-5,0-7.48.06-1.54-4.39-2.71-8.91-4.51-13.21-1.64,4.31-3.18,8.66-4.68,13l-7.17.23c2.95-7.74,5.89-15.49,8.58-23.33m21.47-.25,6.37,0c.05,7.81,0,15.62.07,23.43l-6.45,0c0-7.83,0-15.64,0-23.46m13.9.06,6.58,0c.07,7.8-.17,15.61.14,23.41l-6.72.08c0-3.12-.05-6.23,0-9.34-1.64-.2-3.54,0-4.87-1.16-.88-.84-.65-2.13-.75-3.21,1.88-.06,3.77-.08,5.66-.1,0-3.22,0-6.44,0-9.65m15.23.14c5.79.39,11.83-1.38,17.4.83a4.79,4.79,0,0,1,3.25,5.24c-.35,2.38-2.15,4.16-3.94,5.6,3.34,2.92,3.86,7.53,4.38,11.66l-7.11-.1c-.1-3.89-1.22-8.79-5.58-9.88-.1-.92-.18-1.83-.25-2.73,1.93-.76,4.38-1.19,5.46-3.16a4.63,4.63,0,0,0-.71-2.61c-2.22-.12-4.43-.27-6.65-.36,0,6.26,0,12.53.07,18.79l-6.35-.06c.07-7.74.05-15.48,0-23.22Z" style="fill:#df343a"/></svg>