<svg xmlns="http://www.w3.org/2000/svg" viewBox="0 0 512 512"><path d="M10.54,2.49C10.53.83,12.29-.08,13.77,0q85.7,0,171.39,0c2.26-.11,4.51.27,6.77.33q156,0,311.9,0c-.24,1.61-.58,3.19-.8,4.79-8.18.35-16.38,0-24.55.15-64,0-127.94.09-191.9-.06A10.75,10.75,0,0,0,284.34,5H13.81c-1.49.13-3.3-.79-3.27-2.47M211.38,13.34c12.52-.51,25.11-.76,37.6.45a59,59,0,0,1,13.79,2.84q120,.15,240,0c0,1.54,0,3.08,0,4.62q-118.16,0-236.3,0c-4.54-.34-8.83,1.49-13.34,1.78-2.26.23-4.54.26-6.78.63-2,.11-4.1,0-6.14.24-4.23.39-8.48-.17-12.7.32a24.11,24.11,0,0,1-5.82-.08c-3.89-.41-7.83.26-11.7-.35-8.14-.32-16.37-.8-24.31-2.8-31.21-.11-62.43,0-93.65-.06-1.43,0-2.84-.31-4.28-.3q-37.28,0-74.55,0c-1.3.11-3-.61-2.84-2.14-.15-1.55,1.51-2.32,2.83-2.19q38.18,0,76.38,0c6.77.13,13.57-.3,20.32.3,25.29,0,50.59.07,75.88,0a130.31,130.31,0,0,1,20.53-2.82c1.66-.34,3.39-.08,5-.47M171.2,29.83c10.8-.74,21.61-1.27,32.44-1.14,10.66.06,21.34-.29,32,.57,1.74.1,3.49,0,5.23.11,2.65.37,5.34.4,8,.62,1.63.28,3.28.48,4.93.61,3.24.44,6.38,1.36,9.54,2.09q119.74,0,239.48,0c0,1.54,0,3.08,0,4.62q-119.73,0-239.46,0a155.9,155.9,0,0,1-21.13,1.88c-2.57.52-5.21.13-7.81.25-6.33.64-12.7.11-19,.37a105.72,105.72,0,0,1-11.12.24c-6.51-.74-13.09.14-19.6-.56-6.91-.11-13.81-.45-20.7-1.06a102,102,0,0,1-11.41-1.74q-57.94-.06-115.89,0a43.51,43.51,0,0,1-6.75-.27c-6.48-.1-13,0-19.46,0V32.08c4.64-.24,9.24.47,13.87.3q63.48,0,127,0c1.88.07,3.62-.73,5.46-1a132.84,132.84,0,0,1,14.49-1.56m-163,20c0-3.23,3.39-5.19,6.28-5.17H39.68a94.84,94.84,0,0,1,10.25.53c2.64.14,5.25.53,7.88.79,1.24.22,2.48.44,3.72.61,5.16,1.42,10.52.48,15.77,1.15q24.33,0,48.67,0c3.39-.14,6.78.74,10.15.16,8.16-1.94,16.57-2.3,24.9-2.79,2.6-.37,5.26.18,7.84-.39,4.61.09,9.19-.49,13.8-.36,13.44,0,26.89-.18,40.31.37,2.14.48,4.34.14,6.51.25,6.59.51,13.22.75,19.73,2a24.24,24.24,0,0,0,4.31.8H502.8v4.93H258.46c-2.78.09-5.63-.35-8.32.53-3.06.67-6.21.85-9.31,1.22-4.79.38-9.59.74-14.39.77-3.4.57-6.87-.12-10.25.49q-20.88.15-41.77,0c-8.2-.56-16.45-.54-24.65-1.25-2.05-.3-4.13-.4-6.18-.61-2.79-.36-5.51-1.15-8.3-1.46q-34.27,0-68.57,0c-3,.4-5.92,1-8.91,1.44-1.64.15-3.29.33-4.92.62-3.36.19-6.7.47-10.06.68-9.64,0-19.28,0-28.92,0-2.79,0-6-2.25-5.72-5.3M177.77,60.4a97.55,97.55,0,0,1,11.08-.29,79.07,79.07,0,0,1,9.11.23c5.57.3,11.16-.24,16.71.36,4.67,0,9.34.19,14,.57,3.47,0,6.9.56,10.35.77,2.8.29,5.52,1,8.28,1.45q115.59.06,231.16,0a68.64,68.64,0,0,1,8.6.26c5.25.12,10.51,0,15.77.05,0,1.54,0,3.08,0,4.62q-127.43,0-254.84,0a127.64,127.64,0,0,1-20.55,2.22c-2.18.49-4.42.1-6.62.29-4.29.57-8.62,0-12.9.56-13.14,0-26.28,0-39.41,0-13.2-.67-26.45-.64-39.58-2.38-2.23-.25-4.37-1.12-6.63-1H98.84c-4.72-.29-9.27,1.19-13.9,1.77a47.61,47.61,0,0,0-4.92.64c-3.29.2-6.61.23-9.88.61-16.59.11-33.19.08-49.78,0-1.52-.27-3.17-.24-4.45-1.23a4.76,4.76,0,0,1-1-7.13c1.66-2,4.46-2.28,6.88-2.38,12.55,0,25.09,0,37.64,0,5,.58,10,.09,15,.34,1.67.37,3.39.16,5.06.45,5.22.5,10.37,1.51,15.52,2.49,8,.19,16.11,0,24.15.08,5.35.39,10.47-1.51,15.79-1.76,14.24-1.2,28.51-1.68,42.8-1.65M20.06,77.14c1.66-1,3.63-.66,5.46-.7q31.13,0,62.25,0c4.19.3,8.39.39,12.56,1a36.76,36.76,0,0,0,10.22,1.16c6.08-.23,12.24.54,18.25-.54,5-.48,10-.69,15.08-1a59.79,59.79,0,0,0,8.57-.27c14.81-.08,29.61,0,44.41,0,9.93.49,19.89.57,29.81,1.32,3,.33,6,.66,8.93,1.13,26.52.06,53.06,0,79.59,0,1.42,0,2.82.3,4.24.32H502.8c0,1.54,0,3.08,0,4.62H237.49c-3.18.18-6.26,1.23-9.46,1.33-1.48.22-3,.18-4.45.44-3.29.25-6.59.24-9.85.63-2.56.17-5.13,0-7.68.11-5.71.66-11.48-.15-17.19.55-8.31,0-16.62.09-24.92,0-4.59-.67-9.28.15-13.89-.51-5.66.07-11.28-.48-16.93-.73-2.8-.39-5.62-.68-8.41-1.12-5.93-.08-11.87-.06-17.8,0-3.43.49-6.8,1.43-10.27,1.76-2.55,0-5.1.09-7.64.35-21.76,0-43.54,0-65.3,0-2.79.13-6.14-1.3-6.73-4.29-.51-2.32,1.17-4.44,3.09-5.5m5.38,19c.83-3.23,4.5-4.44,7.48-4.33,4.72.12,9.46-.24,14.17.25,10.68.31,21.4-.33,32.07.39,8.35-.15,16.69.19,25,.82,3,.13,6.08.44,9.12.81a46.24,46.24,0,0,0,13.18-.52c16-1.63,32.11-1,48.17-1.12,4.64.15,9.33-.32,14,.24,3.53.21,7.08-.18,10.6.3,2.41.26,4.88-.21,7.27.32,4.49,0,8.95.5,13.43.75,2.63.31,5.24.69,7.84,1.12,65.17.12,130.34-.06,195.5.1a10.73,10.73,0,0,0,2.19.25H502.8c0,1.54,0,3.08,0,4.62q-137,0-274,0c-7.61,1.53-15.4,1.87-23.11,2.38-2.34.16-4.68,0-7,.13-5.32.64-10.69-.17-16,.52-8,.07-16.06,0-24.08,0-4.49-.61-9,0-13.51-.55a179.94,179.94,0,0,1-20.61-1.35c-5.75-1.33-11.64-.2-17.38.61-2.25.31-4.54.27-6.78.63-6.24,0-12.47.85-18.69.1-11.52-.08-23.05,0-34.58,0-5.57-.61-11.18-.11-16.77-.33a16.38,16.38,0,0,1-2.69-.71c-1.45-1.37-3-3.3-2.17-5.41m17,11.17a96,96,0,0,1,12.69.21q23.72,0,47.42,0c3.91-.13,7.79.51,11.71.32,9.65,1.06,19.3-.64,29-.32,7.64.23,15.26-.64,22.91-.23,4,.46,8.12.13,12.19.23,4.4.31,8.8.48,13.2.68,6.71.6,13.4,1.52,20.08,2.39q145.59,0,291.18,0c0,1.54,0,3.08,0,4.62H220.87c-4.19.11-8.41-.32-12.57.39-4.74.75-9.53,1.14-14.29,1.68-4.07.28-8.13.72-12.2.77-2.27.54-4.64-.07-6.91.48-4,.15-8-.09-12,.37-11.17-.12-22.35.32-33.49-.37-2.77-.51-5.6-.13-8.39-.24-4.43.15-8.91-.32-13.31.24a123,123,0,0,1-14.37-.24H49.58a30.48,30.48,0,0,0-6.19.28c-3,0-6.58-1.5-6.88-4.88-.57-3.45,2.72-6.2,5.94-6.41m11.64,19.12c1.13-2.81,4.37-3.76,7.16-3.51,7,.27,14-.42,21-.29H118a86.14,86.14,0,0,1,9.09.21c3.61.27,7.24,0,10.85.16,5.94.45,11.93.67,17.88,1.26,2,.29,4.1.45,6.16.6,1.63.28,3.27.46,4.93.62s3.27.45,4.92.64A46.57,46.57,0,0,0,182,126H389.7c7.39-.13,14.81.3,22.19-.31q45.45,0,90.91,0c0,1.54,0,3.08,0,4.62-2.25,0-4.48-.05-6.71.07a25.42,25.42,0,0,1-5.3.24H336.69c-6.15.1-12.33-.26-18.47.32H177.72a44.2,44.2,0,0,0-6.71.25c-9.21,1.29-18.49,2.06-27.77,2.54a77.54,77.54,0,0,0-9.88.29c-5.75-.08-11.53.25-17.26-.31-10.07,0-20.15,0-30.22,0a12,12,0,0,0-2.8.26c-8,.12-16.1.06-24.14,0-3.63,0-6.81-4.2-4.85-7.58m28.12,17.73c.25-3.31,3.62-5.52,6.75-5.49,26.5,0,53,0,79.5,0,5.42.58,10.87.15,16.3.37,2.14.48,4.35.15,6.52.26,5.21.42,10.44.57,15.65,1,5.49.46,11,1.07,16.41,1.74q81.35.07,162.67,0c5.13-.07,10.28.22,15.4-.31q50.86,0,101.74,0a19.93,19.93,0,0,0-.37,4.63c-9.34.14-18.71-.32-28,.32q-67.15,0-134.32,0c-3.61.15-7.27-.3-10.85.25-34,.14-67.95,0-101.92.06-3-.17-5.92.49-8.89.71-1.06.16-2.13.27-3.19.45-7.55.57-15.1,1.34-22.67,1.37-5.67.7-11.44-.2-17.11.5-3.75.1-7.5.09-11.24,0a12.31,12.31,0,0,0-2.84-.26c-24.62.07-49.25-.06-73.88.07a5.68,5.68,0,0,1-5.63-5.64m22.6,12.75a7.45,7.45,0,0,1,6.38-2.55c7.38,0,14.77,0,22.15,0,5.95.71,12-.14,17.9.52a29.9,29.9,0,0,0,6.13-.18c3.21-.3,6.47.27,9.65-.32,2.1,0,4.22,0,6.31-.31,5.38-.24,10.78.25,16.13-.33,4.32-.28,8.6.5,12.91.28s8.79.3,13.2.37c1.66.38,3.39.13,5.06.46,2.84.2,5.67.48,8.5.79,1.63.27,3.28.46,4.93.61,3.08.47,6.13,1.07,9.24,1.25a35.34,35.34,0,0,0,5.91.22H502.8c0,1.54,0,3.08,0,4.62H248c-6.14-.29-12.14,1.24-18.23,1.76-5.33.61-10.71.81-16,1.26-4.61-.08-9.18.5-13.79.37-8.41,0-16.83,0-25.25,0-3.16-.42-6.34-.24-9.51-.36a20.32,20.32,0,0,0-4.67-.25c-8.43,0-16.86,0-25.28,0-6.77.61-13.58.19-20.36.31-3.3-.19-7.06.82-9.81-1.58-.4-.65-.81-1.28-1.24-1.9-.23-1.74-.29-3.71,1-5.07m-4.41,17.91c.86-3,4.14-4.5,7.06-4.43,9.54,0,19.08-.09,28.61.06,5.34.41,10.71.62,16,1.25,2.88.42,5.78.74,8.64,1.27,5.22.86,10.31-1.13,15.52-1.27,3.48-.36,7-.22,10.47-.63,11.58-.21,23.17-.79,34.74,0,2.55,0,5.11-.08,7.66,0,3.88.39,7.8.32,11.7.62,2,.32,4.12.4,6.18.62a89.87,89.87,0,0,0,12.05,1.17q98.61,0,197.22,0c1.51,0,3,0,4.55.07,4.19.56,8.46.1,12.68.25H502.8c0,1.54,0,3.07,0,4.62q-89.51,0-179,0c-2.69.16-5.35-.42-8-.33-18.68,0-37.36,0-56,0-2.66.1-5.38-.29-8,.35a56.91,56.91,0,0,1-8.29,1.29c-2.45.31-4.92.49-7.38.61-5.33.38-10.68.53-16,.59a12.8,12.8,0,0,1-2.83.26c-7,0-14,0-20.95,0A11.24,11.24,0,0,1,194,181c-5.92,0-11.82-.4-17.72-.75-1.84-.29-3.7-.42-5.56-.6-4.87-1.38-10-1-14.91,0-1.65.15-3.29.33-4.92.62-3.29.35-6.61.21-9.88.62-11.75.14-23.52,0-35.29,0a5.21,5.21,0,0,1-5.31-6m9.25,11.63c4.39-.22,8.81.24,13.18-.28a85.49,85.49,0,0,1,11.76.24c6.27-.17,12.51.72,18.75,1.32s12.5,2,18.83,1.76c3-.07,6.1.16,9.15-.12a112.55,112.55,0,0,1,17-1.8c3-.54,6.05,0,9-.49,14.88-.15,29.77-.27,44.59,1.25,2.38.29,4.72.91,7.1,1.16q109.11,0,218.21,0c8.49.64,17,.18,25.55.32,0,1.54,0,3.08,0,4.62H258.46a111.17,111.17,0,0,1-15.64,1.92c-11.88.86-23.83.5-35.74.48-2.28-.56-4.65,0-6.92-.49a98.83,98.83,0,0,1-18.79-2.08c-3.45-.34-6.92,0-10.38-.15-4-.17-8,.71-12,1-6.46.81-12.94,1.33-19.43,1.76H109.34c-2.78,0-5.71-2.28-5.55-5.23s3.06-4.95,5.86-5.21m8.67,16.12c3.14-1.52,6.76-1,10.14-1.06,2.58.1,5.2-.26,7.75.25a70.5,70.5,0,0,1,9.85.59c6.67.4,13.27,1.56,19.91,2.22,17.88.05,35.77,0,53.65,0a15.73,15.73,0,0,0,4.59-.37c11.4-2.93,23.46-2.12,34.8.65q121.89.06,243.79,0v4.93q-87.36,0-174.71,0c-2.88.17-5.74-.43-8.61-.33q-28.05,0-56.09,0c-2.23,0-4.53-.24-6.66.52a57.12,57.12,0,0,1-10.34,2.18c-3.49.23-7,.72-10.49.17a47.23,47.23,0,0,1-13.09-2.49,10.17,10.17,0,0,0-3.8-.39c-17.5.07-35-.08-52.51.07-7.86,1.13-15.75,2-23.65,2.65-6.65.16-13.31,0-20,.08-2.47.06-5.39-.44-6.77-2.74-1.57-2.42-.26-5.76,2.2-7m17.24,21c-.46-3.48,3.15-6.22,6.41-6.05,3.35-.29,6.07,2,9.24,2.62a24.2,24.2,0,0,0,6.8.48q130.64,0,261.26,0c9.24.63,18.51.18,27.77.32H502.8c0,1.54,0,3.08,0,4.62H153.69c-3.77-.06-7,2.31-10.8,2.38-3.09.7-6.84-1-7.33-4.36Z" style="fill:#7d99cb"/><path d="M432,243.9q5.76-5.19,11.41-10.5c-.81,4.79-4.32,8.49-7.59,11.82-9.22,9.69-20.5,17-31.09,25.06-2.54,1.63-4.68,3.91-7.54,5,1.55-5.09,5.89-8.32,9.88-11.44,8.34-6.61,17.17-12.64,24.93-20m-89.26,9.74c4.84-4.33,9.7-8.65,14.39-13.13-1.38,5.42-5.41,9.62-9.1,13.64-5.11,5-10.9,9.15-16.38,13.7a10.62,10.62,0,0,1,4.39,4.22,11.92,11.92,0,0,1-3.92,6.95c-1.52-1.2-3.49-1.93-4.68-3.48.11-2.51,1.77-4.63,2.93-6.76-5.13,3.85-10.47,7.39-15.59,11.25-1.93,1.16-3.43,3.07-5.67,3.63,1.2-2.82,2.66-5.68,5.15-7.6,9.19-7.85,19.46-14.36,28.48-22.42m155.34-.81c-2.36,6.58-7.49,11.62-12.6,16.18-10.51,9.18-22.18,16.86-33.46,25,.63-3.33,2.93-6,5.46-8.14,7.17-6,15.09-11.1,22.3-17.1,6.34-5.05,12.13-10.72,18.3-16M63,266.67c1.07-1.64,2.06-3.33,3.19-4.93a7.34,7.34,0,0,1,4.29,4.1c.32,2.81-1.75,5.56-4.11,6.87-1.23-1-2.45-2.11-3.6-3.25a18.41,18.41,0,0,1-3.35,4.86,21,21,0,0,1-4.68-3.6c.84-2.54,2.4-4.74,3.53-7.14a3.06,3.06,0,0,1,3,1c.56.73,1.15,1.42,1.75,2.12m133.9,10.55c1.38-2.6,2.47-5.35,4.19-7.75,1.77,1.49,4.32,3,4.33,5.6-.43,2.47-1.53,5-3.82,6.29a29.41,29.41,0,0,1-4.7-4.14m177.64-1a28.85,28.85,0,0,1,3.35-5,8.61,8.61,0,0,1,4.29,4.89,12.13,12.13,0,0,1-4,6.29q-2-1.6-3.89-3.28a10.86,10.86,0,0,1-3.84,4.78c-1.41-1.19-2.84-2.37-4.22-3.58a38.11,38.11,0,0,1,3.95-7.47c.35.1,1.06.27,1.41.36a29.42,29.42,0,0,1,3,3.05m28.27.2a7.68,7.68,0,0,1,1.95-3l0,1.72a51.34,51.34,0,0,0-1.3,9.88c-.25,1.46-.2,3-.43,4.44A40.19,40.19,0,0,1,398.82,306c-1.34,2.86-3.63,6-7.16,5.91l-1.79-1.64a28,28,0,0,1-6.35,7.06c-1.74,1.23-4,.34-6,.73a24.63,24.63,0,0,0-14.6,8.48c-3.08,4-5.48,8.68-9.49,11.9a54.48,54.48,0,0,1-10.69,7.64c-1.72.8-3.4,2.09-5.41,1.74,2.83-3.5,7.14-5.29,10.36-8.36,9.46-7.53,13.28-20.37,23.81-26.73a30,30,0,0,1,14.53-3.4c1.24.09,2.17-1.24,2.31-2.36.37-5.18.51-10.37,1-15.54.27-4.86,2.78-9.19,4.93-13.44l.68.84c-1.43,7-3.29,14.08-2.29,21.24a4.9,4.9,0,0,0,1.83,2.6c1.15-.17,2.61.05,3.38-1,1.22-1.5,1-3.56,1.25-5.35.13-4.16.46-8.3.78-12.45.1-2.76,1.74-5,2.86-7.46m68,9.49c1.05-2.61,2-5.62,4-7.56a6,6,0,0,1,3.91,3.57c.52,3-1.45,5.51-3,7.82a36.55,36.55,0,0,1-5-3.83m-341.18-3.08c1.3-1.26,2.33-2.81,3.82-3.88,0,4.55-3.1,8.34-6.27,11.29-2.48,3.28-5.89,5.61-8.66,8.61-4.79,4.8-9.86,9.3-14.81,13.94l2.23,0c1.87.45,3.94,1.39,4.47,3.43,1,5.33-1,10.71-3.47,15.34-1.54,2.85-4.53,5.52-8,5-2.45-.27-3.91-2.67-4.44-4.86-1.28-5.39,0-10.92.47-16.34.8-4.62,1-9.44,2.88-13.81.66-1.63,1.23-3.32,2-4.9.9.75.47,1.92.41,2.9-.53,4.61-1,9.24-1.72,13.83,2.85-2.25,5.14-5.12,8-7.41,7.55-7.85,15.89-14.92,23.11-23.09M98.8,322.87c-1.09,1-.41,2.56.3,3.56,2,1.79,5.42,1.48,7.55,0,1.19-.73.83-2.25.91-3.41-2.26-2.44-6.49-2.73-8.76-.16m203.77-19.28c.77-5.75,2-12,6.08-16.36-.46,4.73-1.62,9.37-2,14.12.06,2.47.57,5.55,3.08,6.71a7.81,7.81,0,0,0,6.18-.3c1.69-1.33,2.92-3.22,4.84-4.26,1.41-.85,3.24.52,4.55-.6s2-2.72,3.5-3.44a12.5,12.5,0,0,1-4.14,8.29c-1.15,1.15-2.87.52-4.3.77-4.06,1.6-4.94,7-9.15,8.38-2.79,1.25-5.74-.56-7.46-2.73l.64-.65c-.41-.15-.89-.28-1.14.2a19.55,19.55,0,0,0-2.34,4.13c1.89,1.81,4.76,3,5.38,5.81.39,3.42-.91,6.73-2,9.91-2.59,7.08-7.72,13.62-14.9,16.39-4.81,1.59-11.05,1.43-14.51-2.75-2.62-2.9-2.73-7-2.47-10.74,1-6.9,4-13.29,7.53-19.26,1.38-2.33,2.41-4.95,4.45-6.8.4,2.61-1.18,4.82-2.19,7.09a113.93,113.93,0,0,0-5.44,13.14,8.2,8.2,0,0,0,1.66,8.11,10.72,10.72,0,0,0,6.23,2.5c7.06.78,15.2-2.67,17.53-9.83-1.93-2.25-5.12-2.93-6.77-5.48a9.11,9.11,0,0,1,.75-4.14c1.89-3.86,4.16-7.53,5.87-11.47a27.73,27.73,0,0,0,.58-6.74m172.7-11.36c1.06-1.69,2.05-3.43,3.21-5.07,1.92.54,3.21,2.1,4.35,3.65a8.83,8.83,0,0,1-3.72,7.36c-1.63-.44-2.54-2.25-4-3.07-1,1.76-1.85,3.72-3.61,4.88a36.91,36.91,0,0,1-4.55-3.72,32.75,32.75,0,0,1,4.21-7.59,9.25,9.25,0,0,1,4.14,3.56M60.11,297.71a76.45,76.45,0,0,1,2.9-8.23c3.17,1.9,4.21,5.9,4.37,9.36-.63,6.3-3.71,12-5.9,17.8,1.57,2,4.74,2.92,5,5.83.6,7.21-2.27,14.22-5.81,20.35-3,4.57-7.16,8.77-12.65,10H43.12a10.71,10.71,0,0,1-7.42-6.11c-3-6.09-1.55-13.11.4-19.28a110.43,110.43,0,0,1,6.57-15.73,4,4,0,0,1,2-2.13c0,2.37-1.16,4.52-2,6.69-2,5-4.41,10-5.13,15.36,0,3,.42,6.42,2.83,8.49,2.68,2.36,6.55,2.47,9.9,1.88,6.07-.71,12.12-5.23,12.92-11.55-2.15-1.79-5.25-2.54-6.52-5.25-.47-3.32,1.28-6.36,2.6-9.27,1.41-3.45,3.05-6.83,3.8-10.51A25.06,25.06,0,0,0,60.78,300c-.34-.71-1-1.43-.67-2.27M214.7,308.16c-.3-5.33,1.91-10.4,4.45-15a4,4,0,0,1,.44,2.66,56,56,0,0,0-.31,6.35c-.64,3.41.06,6.91-.41,10.34-.5,4.72-1.5,9.76-4.76,13.4-1.2-1-.18-2.45-.13-3.64,1-4.66.69-9.44.72-14.16M451,295.34c1,1.14.37,2.61.13,3.93-.23,3-.69,6.06-.76,9.12-.46,3-.64,6.56,1.58,9a5.76,5.76,0,0,0,7.14,1.66c2.17-1.24,3.2-3.75,5.3-5.09,1.08-.59,2.34-.11,3.47.1a9.85,9.85,0,0,0,2.84-3.31c1.94,1.6,2.55-1,3.21-2.3,2.22,0,2.94-2,3.54-3.78l.79.94a16.24,16.24,0,0,1-2.87,6.7c-1.76,1.62-3.43,3.58-5.89,4.06a33.71,33.71,0,0,1-2.49,2.44c-1.27,1-3.08.5-4.45,1.3-2.8,1.93-3.5,5.84-6.54,7.5a12.54,12.54,0,0,1-2.5.93,6.91,6.91,0,0,1-5.12-3.56c-2.41,3.93-4.43,8.72-9.12,10.42-2.71,1.37-5.58-.6-8.36.08a33.55,33.55,0,0,0-5.3,1.65c0-2.2,1.7-3.81,3-5.38,2.28-2.21,4.93-4.62,8.3-4.65,1.51.18,3,.66,4.56.71,2.17-.24,3.66-2.32,3.95-4.37.93-6,.49-12.06,1.54-18,1.16-3.42,2.54-6.77,4-10.07m-296.35,3.84c1.9,1.51,4.55,3.13,4.36,5.92a9.37,9.37,0,0,1-3.48,6c-1.7-1.14-3.27-2.44-4.86-3.71a45.19,45.19,0,0,1,4-8.26m-8.37.49c2,1.63,4.95,3.5,4.33,6.53a9.65,9.65,0,0,1-3.64,5.45,29.15,29.15,0,0,1-4.8-4.13,78.1,78.1,0,0,1,4.11-7.85m267.8,4.42c.44-.94.92-2,2.05-2.24-.57,5.16-.37,10.35-.79,15.51A30.21,30.21,0,0,1,413,330.21c-.71,1.57-1.5,3.29-3.16,4.06.13-2.56.9-5,1.1-7.58.09-4-.08-8,.07-12a31.85,31.85,0,0,1,3-10.59m-218.13-1.51c2.31.35,4.37,1.51,6.6,2.12,1.8.45,3.35-.77,4.88-1.51-.07,1.95-.54,4.06-2.14,5.34-5.16,4.06-9.48,9-14.19,13.58-1.4,1.26-2.6,3.22-4.68,3.28-2-.5-4-1.2-5.94-1.76-1.78,2.34-3.56,4.8-6.15,6.31-7,4.36-15.39,5.58-23.41,6.78-7.52.7-15.31,1.42-22.66-.73a6.58,6.58,0,0,1-4.73-6.9c.19-3.33-.64-6.92,1.09-10,1.27,1.61,1.29,3.91,2.69,5.44,2.05,1.81,4.95,2,7.53,2.57,7.69,1,15.49.26,23.18-.55,7-1.12,14.32-1.8,20.64-5.3A13.64,13.64,0,0,0,182,318.5c.06.52.2,1.55.26,2.07,7.45-1,12.84-6.74,17.81-11.84-1.94-1-3.91-2.29-6.18-2.24-1.64.18-2.6,1.7-3.36,3l-1,.22c.87-3.16,2.64-6.76,6.33-7.11m67.68,7.68c.38-.62,1.42-2.75,2-1.1-.79,3-1.68,6.11-3.64,8.57s-6,2.53-7.51,5.52c-2.31,3.8-2.69,9.07-6.81,11.54a21,21,0,0,1-9.32,1.73,2.13,2.13,0,0,1,1-2c3.41-2.76,7.66-4.49,10.53-7.9,2.29-3.65,3.07-8.44,6.71-11.14,2.25-1.88,5.75-2.3,7-5.26M228.13,319a49.06,49.06,0,0,1,4-8.91c3.64,1.8,6.45,5.25,6.55,9.43a19.9,19.9,0,0,1-5.12,12.36,17.3,17.3,0,0,1-9.83,4.33c.93-2.44,3.71-3.24,5.37-5.08s3.65-3.08,4.59-5.26c-.55-3.09-3.46-4.85-5.56-6.87M345,311.24c2.94-.84,5.47,2.14,5.3,4.9,0,4.74-1.76,9.32-4,13.44a7.56,7.56,0,0,1-4.56,4c-2.86.81-5.59,2.31-8.61,2.35,3.62-4.76,11-6.06,12.7-12.43-2.18,1.28-4.71.17-6-1.76A21.63,21.63,0,0,1,345,311.24M80.75,328.85c4-4.32,5.07-10.39,8.17-15.24,1.3,1.28.53,3.17.18,4.68a63.41,63.41,0,0,1-5.22,13.59c-1.63,2.95-5.15,3.76-8.15,4.56-1.65.24-3.63,1.33-5.13.11,2.88-3.19,7-4.85,10.15-7.7m229.74,16.37c1.13-1.68,1.86-3.68,3.48-5,1.73,1.18,3.76,2.61,4,4.87a10.06,10.06,0,0,1-3.88,6.22,40.64,40.64,0,0,1-3.88-3.27c-1,1.78-1.94,3.8-3.85,4.78-1.43-1.17-2.89-2.31-4.22-3.59A32,32,0,0,1,306,342c2.1-.28,3,2.09,4.45,3.19m-54.45,9a53.11,53.11,0,0,1,3-4.94c2.42.8,4.79,3.42,3.93,6.1a11.5,11.5,0,0,1-3.22,4.85c-1.76-.08-2.67-2.13-4-3.16a13.3,13.3,0,0,1-3.07,4.7c-2-.17-3.22-2.26-4.73-3.43,1.28-2.6,2.09-5.61,4.23-7.67a15.64,15.64,0,0,1,3.8,3.55M448,360c.18-3,2.12-5.73,3.88-8.1,1.69,1.14,3.52,2.42,4.39,4.32.28,2.83-1.7,5.27-3.57,7.18-1.57-1.13-3.45-1.9-4.7-3.4m-192.66.4c1.06-1.31,2.48.46,3.16,1.32,2.34,2.89-.35,6.48-2.27,8.8-1.5-1.28-2.83-2.73-4.31-4a34.5,34.5,0,0,1,3.42-6.11m28.22,25.78c1.57-1.46,2.61-3.5,4.59-4.49-1.11,5.24-4.65,9.45-8,13.43-11.26,11-24.08,20.3-36.45,30-1.16.92-2.34,1.8-3.57,2.62a15.38,15.38,0,0,1,4.1-7.68c5.48-5.43,11.81-9.89,17.71-14.84a270.29,270.29,0,0,0,21.65-19.07M280,408.69a7.55,7.55,0,0,1,4.7,5.25c-.72,2.72-1.71,5.59-3.88,7.51-1.7-1.35-3.34-2.78-5-4.2a32.15,32.15,0,0,1,4.15-8.56m4.15,10.07c2.26.84,4.58,2.61,4.68,5.24a10.83,10.83,0,0,1-3.54,6.47c-.67.75-1.59,0-2.13-.48-.94-.87-1.8-1.81-2.74-2.68a18.69,18.69,0,0,1-3.34,5.3c-2.19-.58-3.6-2.48-5.35-3.75a26.57,26.57,0,0,1,4.17-8l1-.45a16.52,16.52,0,0,1,3.92,3.95,30.14,30.14,0,0,1,3.32-5.64m-50.67,23.72c-.39-5.7,3-10.63,5.38-15.56a3.86,3.86,0,0,1,.29,3c-1.35,8.26,0,16.69-1.59,24.92-1,6.26-2.73,12.53-6.46,17.75a21.62,21.62,0,0,1-17.88,10.08c-3.33,0-7.16,0-9.77-2.37-2.07-1.95-1.77-5-1.63-7.59a39.61,39.61,0,0,1,2-9.4c2,.91.27,3.55,1.46,5.07a4.93,4.93,0,0,0,3.58,2.81,25.56,25.56,0,0,0,16.25-1c3.68-1.48,6.83-4.66,7.52-8.64,1.27-6.29.74-12.73.83-19.09m35.1,2.83c1.27-3,1.82-6.52,4-9.06a47.06,47.06,0,0,1-.35,6.49c-.27,1.62-.46,3.26-.62,4.91s-.46,3.28-.62,4.93c-.41,5.48-2,11.13-.43,16.55,1,3.36,5.21,3.67,8.11,2.93,1.9-1.24,3.46-2.93,5.45-4l2,.37c1.91-.69,1.7-3.17,3.13-4.32,1,0,2,.45,2.95.06a48.33,48.33,0,0,0,2.09-4.64c1.11,1.57.45,3.58-.05,5.28a9.69,9.69,0,0,1-5.51,6.09,13.21,13.21,0,0,1-2.78,2.95c-1.34.53-2.89-.3-4.19.47-2.95,2.07-4.26,6.13-7.93,7.23a5.79,5.79,0,0,1-7.34-3.82c-1.95-5.67-.75-11.78-.3-17.6.69-4.94,1.31-9.91,2.34-14.79m50.82-4.18c-.29-.63-1.23-2,0-2.21,9.84,6.15,15.4,19.2,11.4,30.38-1.73,6-5.94,10.9-10.88,14.53h-1.29c1.23-3.24,3.34-6,4.62-9.26a29.56,29.56,0,0,0,2-20.66,50.22,50.22,0,0,0-5.9-12.77M170.66,465.31c-.78-9.84,4.58-19.51,12.74-24.83,1,1.15-.19,2.31-.7,3.37-3.48,5.84-6.26,12.38-6.35,19.27.17,7.24,3.06,14.11,6.82,20.19a6.59,6.59,0,0,1,.88,2.46,5.89,5.89,0,0,1-3-1.6,27.73,27.73,0,0,1-10.37-18.86m91.22-10.13c1.72-1.31,2.1-3.76,4-4.93.25,2.38-.74,4.59-1.58,6.76a15.19,15.19,0,0,1-3,5c-2.39,1.8-5.66,2.39-7.56,4.84-2.56,4.16-3.53,9.51-7.56,12.61a18.76,18.76,0,0,1-11.55,1.89c1-1.93,3.12-2.85,4.81-4.09,3.56-2.52,7.8-4.56,10-8.52,1.84-2.82,2.48-6.36,4.94-8.77,2.09-2.19,5-3.16,7.52-4.77m-41.41-2c.8-1.09,2.25-1.17,3.44-1.58a20.08,20.08,0,0,1,.86,2,9.6,9.6,0,0,0-3.82,1.56l1,2.34c-.54,2-2.34,2.9-4.18,3.31-.89-.39-3.15-1.56-1.64-2.53,1.26-.15,2.53-.24,3.79-.42.25-1.58-.82-3.48.59-4.7M260,488c2.73.8,5.25,3.6,4.56,6.59a12.37,12.37,0,0,1-3.83,5.8c-2-.08-2.94-2.51-4.46-3.57-1,1.81-1.75,3.9-3.39,5.26-2.3-.08-3.86-2.42-5.51-3.85,1.4-3,2.5-6.15,4.67-8.65a12.39,12.39,0,0,1,4.49,4.17A45.71,45.71,0,0,1,260,488m-3.7,11.73a9.65,9.65,0,0,1,4.06,3.87c.31,3.25-1.61,6.11-3.7,8.4-1.48-1.54-3.17-2.85-4.67-4.36.83-2.89,2.65-5.41,4.31-7.91Z" style="fill:#5f92e4"/></svg>