<svg xmlns="http://www.w3.org/2000/svg" viewBox="0 0 512 512"><path d="M395.38,381.84c14.32-11.75,27.34-25,40.49-38a5.14,5.14,0,0,1-.37,3.71c-4.41,11-13.18,19.41-21.46,27.59-14.88,14-31.47,26-47.41,38.77-4.87,3.5-9.25,7.73-14.52,10.65a29.9,29.9,0,0,1,8.49-14.07c11.07-10.18,23.13-19.19,34.78-28.68M108,393.09c3.79,2.08,8.29,5.14,8.26,10a16.21,16.21,0,0,1-6.81,12c-2.72-2.61-6.62-4.29-8.5-7.59a69.64,69.64,0,0,1,7-14.4m181.48,18c4.2-2.12,8.57-4.24,13.35-4.54.22,3.4-2.38,5.77-4.23,8.28-1.48,1.86-2.85,4.13-5.37,4.7-6.56,1.89-12,6.14-17.65,9.76-22.21,15-45,30.14-70.85,37.95a172.89,172.89,0,0,1-39.82,6.84c-9.69,0-19.45.41-29.08-1-4.92-.95-10.34-1.67-14.13-5.28-1-.69-1.82-2.19-3.22-2-2.64,2.26-4.2,5.56-7.17,7.49-2.1-.16-4.26-.61-6.33-.12-6.13,3.31-7.72,11.28-13.89,14.54-4.56,2.32-10.43-.1-12.58-4.6-4.16-7.9-2.13-17-1.36-25.45.35-5.82,1.7-11.51,2.32-17.29.91-7.76,4.06-15.09,7.94-21.8-.09,7.74-2.18,15.28-2.82,23-1.14,7.1-2,14.29-1.65,21.49.2,3.67,1.65,7.79,5.25,9.39,4.14,2.29,9.59.69,12.39-2.95,2-2.15,3.7-5.12,6.86-5.56,1.86,0,3.7.41,5.57.38,4.45-3.07,6.72-8.39,11.33-11.3a9.07,9.07,0,0,1,5.55,0c12.39,4.24,25.66,5,38.67,5,32-.65,62.83-12.14,90.27-28.06,10.42-5.94,19.84-13.55,30.65-18.82m88.45,20.42c1.56-3.41,2.71-7.06,4.91-10.14.21,6.82-1.93,13.43-2.38,20.22-1.22,8.81-2.73,17.75-1.74,26.66.49,4,4.63,6.46,8.45,6,1.79-2.28,2.67-5,3.55-7.76l1.55-.74c.4,4.63-1.3,9-2.54,13.38-1.21,3.56-2.75,7.2-5.63,9.74a7.24,7.24,0,0,1-10.19-2.69c-3.16-6.68-2.32-14.3-1.59-21.42.65-4.76.78-9.6,1.68-14.33,1.12-6.31,1.27-12.92,3.93-18.87m-31.47,5.89a69.77,69.77,0,0,1,6.09-11.37c.18,5.65-2,11-2.68,16.5a163.62,163.62,0,0,0-3.59,25.8c-.14,4.57-.58,10.08,3.16,13.47,1.55,1.76,4,1.5,6.1,1.59,2.14-2.56,3-5.82,4.2-8.87a2.52,2.52,0,0,1,1.21,3.31c-1.52,6.84-2.82,14.2-7.43,19.74-3.35,3.89-10.3,2.27-12-2.46-3.76-9.2-.87-19.19-.84-28.73-4.29,1.84-6.21,6.59-9.63,9.55-8.67,7.62-19.41,12.3-30,16.53-13.26,5.61-27.82,6.61-42,7.56-6.35.06-12.79.47-19.07-.82-3.54-.6-7.53-1.65-9.65-4.8-3-4.81-2-10.74-1.83-16.1.43-2.77.21-6.32,2.71-8.18a48.48,48.48,0,0,0,3,9c5.4,4.33,12.81,4.42,19.41,4.27,10.42-.25,21,.77,31.27-1.19,11.22-1.38,22.54-3.25,33.12-7.4,8.14-3.85,16.61-8.47,21.38-16.44,3.95-6.39,3.64-14.32,7.06-20.92m13.9-2.17c4,2.14,8.57,5.74,7.92,10.84-.9,3.82-2.53,8.12-6.12,10.17l-1-.15c-2.73-2.14-6-3.84-7.92-6.85a103.39,103.39,0,0,1,7.09-14m-249.6,71.22a90.55,90.55,0,0,1,5.94-11.34c4,2.66,9.2,6.27,8.11,11.82-1.34,3.83-2.89,8.12-6.68,10.18a55.25,55.25,0,0,1-8.13-6.41c-1.26-1.33.29-2.93.76-4.25M132,494.63c2.7.67,4.71,2.69,6.53,4.67,2.91,2.64,2.22,7.26.59,10.43-1.36,2.46-2.58,5.66-5.59,6.42-3-2.3-6.24-4.32-8.63-7.26,2.23-4.82,4.5-9.63,7.1-14.26m240.83,14.28c2.38-4.44,4.25-9.13,7-13.35,3.11,2.2,7,4.5,7.57,8.63a16.57,16.57,0,0,1-4,10c-.8,1-2.36,2-3.49.87-2.45-1.91-5.11-3.67-7.06-6.14Z" style="fill:#19499e"/><path d="M239.69,9.77c6-3.24,11.77-6.76,17.86-9.77,29.07,15.64,58.3,31,87.49,46.46q-87.81,46.21-175.65,92.36c-1.08.78-3.25,1-3,2.76q-.09,48.35,0,96.7c28.3,15.31,56.47,30.86,84.72,46.26q-45.75,23.94-91.55,47.81C131.65,318.86,104,304.84,76,291.49c-.16-48.5,0-97-.07-145.5.1-15.12-.21-30.25.15-45.35,10.29-6.07,21-11.64,31.39-17.56Q173.63,46.47,239.69,9.77" style="fill:#19499e"/><path d="M294.57,84.45q28.95-15.09,57.88-30.19c23.11,11.15,46,22.68,69.1,33.89,4.73,2.53,9.78,4.64,14.41,7.26.2,63.54,0,127.1.08,190.65C375.9,319.19,316,352.7,255.85,385.9c-1.46.87-2.89-.25-4.18-.87-28.17-15-56.49-29.81-84.59-45q89.28-47,178.61-93.92c0-32.29.05-64.56,0-96.84.23-1.24-1.27-1.48-2-2C316.38,132.51,289.3,117.4,262,102.74l-.75-1.13c11.3-5.33,22.19-11.52,33.35-17.16" style="fill:#19499e"/><path d="M244.86,117.79a5.9,5.9,0,0,1,3.39-.93,98.41,98.41,0,0,1,21.63.45l1.34.56c8.56,1.35,17.16,4.16,24.39,9l2,.52c.34,1.17,1.53,1.39,2.51,1.84a6.76,6.76,0,0,0,2.47,1.85,78.72,78.72,0,0,1,29.23,43.15c3.81,16,2.94,33.31-3.53,48.52a16,16,0,0,1-1.71,3.44c-4.63,11.14-13,20.28-22.11,28a110.23,110.23,0,0,1-13.7,8.57c-6.85,2.73-13.71,5.75-21.15,6.26a7.23,7.23,0,0,1-3.27.94,130.65,130.65,0,0,1-16.79.08c-1.33-.12-2.78-.08-3.88-.93-3-.5-6.08-.82-9.13-1.08,0-.24,0-.72,0-1-1.54-.25-3.09-.51-4.61-.85-1.17-1.22-2.94-1.26-4.46-1.71a9.05,9.05,0,0,0-3.41-1.81c-8.92-4.1-16.61-10.33-23.52-17.22a89.15,89.15,0,0,1-7.79-10.14,81.76,81.76,0,0,1-11.55-29.7,108.29,108.29,0,0,1,.18-26,54.26,54.26,0,0,0,1.89-8.56c1.57-2.72,2-5.93,3.66-8.66A74.52,74.52,0,0,1,201,140.83c3.93-4.47,8.83-7.9,13.45-11.58,7-3.82,13.81-8.41,21.79-9.75,2.58-1.58,5.77-1.22,8.65-1.71Z" style="fill:#fcb913"/></svg>