<svg xmlns="http://www.w3.org/2000/svg" viewBox="0 0 512 512"><path d="M241.61,0h3.48q1.66,50.84,3.45,101.66c2,.32,2.85-2.41,4.16-3.57,1.43-2.33,4.73-3.8,4.64-6.82q0-45.64,0-91.27h3.19c4.88.61,9.79.88,14.67,1.47-1,23.15-2.25,46.29-3.3,69.44-.56,6.63-.33,13.32-1.18,19.92a18.73,18.73,0,0,1,11.42-1.57q4.41-42.6,8.7-85.23c5.39,1.43,10.71,3.09,16.1,4.57-4.3,29.75-8.91,59.47-13.31,89.21,3.56-.39,7.2-.82,10.72.15q8.2-42,16.62-84c5.43,2.79,10.81,5.68,16.19,8.57q-9.39,38.1-18.83,76.19a55.16,55.16,0,0,0-1.7,7.62l.61,1c2.52,1.24,5.29,2,7.7,3.48,8.11-27.11,16.11-54.25,24.39-81.32,4.5,3.35,8.92,6.81,13.46,10.11-13.57,40-27.52,79.93-41.17,119.93-.5,1.86.15,3.77.31,5.64.61,3.42.59,6.94,1.26,10.35l.88.69a84.88,84.88,0,0,0,4-9.42q23.32-58.24,46.65-116.47c4,4.09,7.86,8.37,11.88,12.46C368.88,101.41,350.9,140,333.06,178.62c1.64,2.13,3.95,4.84,2.57,7.7-2.2,3.5-6.5,5.24-8.29,9.08-1,2.76,0,5.7.75,8.39.71-1.11,1.41-2.22,2-3.38q32.58-63,65.2-126c3.32,5,6.12,10.36,9.35,15.43Q369.25,151,333.59,212.05c1.32,1,2.44,2.56,4.14,3,1.16.25,1.79-.85,2.37-1.62q35.58-54.72,71.31-109.36c1.88,5.19,4.21,10.32,5.47,15.7-1.82,3.11-4.18,5.87-6.21,8.85Q379,172.71,347.29,216.81c-2.17,3-5.27,6.09-4.23,10.17.15,2.3,3.12,1.76,4,.2C371.74,196,396.1,164.5,421,133.43c1.08,6.08,2.22,12.15,3.32,18.23q-45,51.71-90.13,103.34c-.78,1.12-2.42,2.75-.85,4,1.13.18,2.41.19,3.17-.83q44-45.12,88-90.26c0,4.61,0,9.22,0,13.83-.13,1,.22,2.35-.65,3.13q-41.69,39.38-83.41,78.73c-2.26,3.52-6,5.5-8.75,8.57q-15.81,15.44-31.47,31c1.12,0,2.26-.06,3.4-.06q44.49-39.35,89.14-78.48c10-8.62,19.63-17.58,29.77-26-.93,5.39-2,10.78-3,16.16-.4,2.4-2.91,3.44-4.54,4.93-35,27.86-70.28,55.5-105.22,83.5,1.35-.23,2.91.13,4.14-.6,33.51-24,66.73-48.42,100.34-72.27-1.43,4-3.15,7.91-4.66,11.9-.74,1.69-1.22,3.71-2.94,4.71q-25.59,16.93-51.25,33.8c-11.22,7.53-22.68,14.7-33.77,22.42a9.57,9.57,0,0,0,3.75-1.18c13.85-8.28,27.87-16.28,41.75-24.52C378.6,271,389.72,264,401.26,257.78c-5.71,10.71-13.32,20.34-21.69,29.1-2.51,2.76-5.67,4.9-8,7.83,1.49,2.79,4.46,4.35,6.16,6.92.3,15.06,0,30.15.12,45.23H130.28c0-14.31-.09-28.61,0-42.93,2-1.82,4-3.7,5.91-5.56a234.53,234.53,0,0,1-24.49-26.23,79,79,0,0,1-7.51-11.22c26.84,13.69,53.51,27.74,80.28,41.55a16.46,16.46,0,0,0,3,.86c-3.32-2.54-7.06-4.46-10.58-6.7q-38.7-23.5-77.39-47a5.85,5.85,0,0,1-2.63-2.73q-3-6.54-5.8-13.18c14.28,9.07,28.25,18.62,42.43,27.83,20.42,13.56,40.93,27,61.32,40.53a8.56,8.56,0,0,0,3.91,1.26c-3.1-2.72-6.56-5-9.85-7.45L86.24,220.73c-1.62-6.26-3.35-12.52-4.38-18.92Q143.18,252,204.28,302.43c1.19,1,2.86.59,4.27.83-27.78-25.73-55.81-51.2-83.69-76.83-15-13.65-29.8-27.49-44.9-41,0-5.18-.1-10.36.08-15.53,6.49,5.94,12.44,12.44,18.78,18.55q57.3,57.4,114.65,114.74l2.11-.09L104.61,182c-7.85-8.71-16-17.2-23.69-26,.64-6.36,2-12.67,3.14-18.95q67.69,83.06,135.38,166.14H222Q154.52,213,86.84,123c2.06-5.26,4-10.56,6.07-15.83,15.2,22,29.93,44.25,45,66.33q43.77,64.83,87.55,129.65l2.29-.05q-64.51-104.8-129-209.63c3.29-5.5,6.57-11,9.9-16.51q36,65.67,71.8,131.47a19.47,19.47,0,0,1,5.35-3.24c-6.16-11.94-11.89-24.1-17.92-36.11-2.21-.85-4.6-1.63-6.19-3.49s-2.17-4.22-2.67-6.5c-.59-2.88-3-4.87-3.95-7.61-.35-3.64,1.53-7.68-.83-11C141.6,115.72,129.41,90.69,117,65.75c3.85-4.42,7.42-9.07,11.4-13.37q4.86,11.26,9.68,22.53c1-2.08,2-4.62,4.37-5.5,1.63-.28,3.77-.44,4.88,1.07,2.74,3.31,5,7,7.75,10.29C150,67.65,145,54.5,139.9,41.39c4.53-3.55,9-7.19,13.57-10.69C159,46.79,164.55,62.85,170,79a30.51,30.51,0,0,1,2.56-5.15c1.39-1.82,3.73-2.37,5.75-3.2C174,54.81,169.72,39,165.4,23.18c5.61-2.9,11.21-5.85,16.9-8.6q5.67,28.47,11.24,57c.51,3.64,4.42,6,4.07,9.9,0,1.93-1.86,3-3.05,4.26l-2.43-1c.54,4.88.54,9.8,1.05,14.67,1.27,3.06,5.19,3.31,8,3.79a19.46,19.46,0,0,1,11.16,4.88c2.09,1.66,3.79,3.93,6.31,5,1.53-.4,3-1.13,4.52-1.46,1.89.35,3.51,1.47,5.21,2.3a72.05,72.05,0,0,0,10.85-4.26c2.21-1.18,2.87,1.94,3.9,3.22.64-.82,1.69-1.55,1.43-2.74-.13-4.86-1.94-9.52-1.75-14.4a41.3,41.3,0,0,1,1.88-13.38c-1.86.68-4.17,3.55-6.08,1.72a19,19,0,0,1-4.28-12.18l-4.14-.53c3.67-5.57,1.47-12.39,1-18.49-1.23-17.21-2.34-34.43-3.56-51.63,4.66-.35,9.32-.73,14-1.24M141.92,76.05c-.92,5.5.65,11,1.6,16.36.61,4.07,3.49,7.27,4.63,11.17,1.76,4.15,1.37,9,3.87,12.83,2,3.42,4.89,6.15,7.48,9.08,1.57,1.74,1.64,4.26,1.63,6.48,0,6-2.62,11.5-3.44,17.32-.7,4.23,4.42,6,4.57,9.94.28,1.43.54,3,1.78,4,2.41,2,5.78,1.87,8.61,2.91,4,1.35,8.26,3.62,10.06,7.67.46,2.84-.24,5.76.36,8.58a38.72,38.72,0,0,1,2.77,5.4c1.12,3.38.61,7,1.35,10.45.4,1.4,1.1,3.19,2.79,3.33,3.31-1,3.73-6.14,7.57-6.24,2.33-.31,1.95,3.06,3.86,3.62,2.94.79,6.48.12,8.8,2.48,1.52,1.28,1.87,3.33,2.38,5.15a44.54,44.54,0,0,0,11.18,19.76c1.69,1.88,4.33,2.19,6.46,3.37,2.81,1.28,4.81,4,8,4.5,6.69,1.74,11.51,8.86,18.93,7.88,6.26-1.86,11.17-7.46,18-7.58a9.29,9.29,0,0,1,7.84,3.59c3.24,3.59,4.2,8.63,7.37,12.25,1.06,1.35,2.8,1.52,4.4,1.46,7.87-.09,15.62,1.45,23.34,2.8,3.75.57,7.08,2.53,10.8,3.26,2-6.6,1.77-14.17,6.5-19.66,2.71-3.6,7.26-4.86,11.56-5.09-2.16-.9-4.87-1-6.4-2.94-1.77-3.54.77-8.65-2.73-11.41-3.26-2.22-6.79-4.15-9.36-7.22-4.72-4.9-6.05-12.29-4.53-18.74,2.05-3.28,6.33-4.24,8.52-7.41.81-1.28.64-3.51-1-4.08-3.5-1.41-8,.12-11-2.66-2.88-3.62-1.07-8.54-2.12-12.7-.72-3-.34-6.1-.24-9.14-.13-3.71-5-5.16-4.64-9,0-7.21,7.45-11.35,8.82-18.12.06-2-.81-3.91-.93-5.91-.42-2.83.39-5.59,1.1-8.29.6-1.44-.61-2.8-1.86-3.32-2.83-1.39-6-2.52-7.77-5.29a14.61,14.61,0,0,1-3.44-.18c-2.2-1.61-4-3.84-6.44-5.06-3.39-.37-6.86,1-10.21-.1-5-1.47-8.65-5.42-12-9.16-2.07.06-4.13.06-6.19.09a12.13,12.13,0,0,1-13.39,1.2,143.48,143.48,0,0,1-10.34,11c-1,1.15-2.51.79-3.82.83a9.56,9.56,0,0,1,.77,6,14,14,0,0,1-5.93,5.54,27.27,27.27,0,0,1-2.36-3.31c-3.92-.27-7.36,1.87-11.12,2.52-1.8.56-3.46-.58-5.19-.9-2.61.53-5.67,1.64-7.94-.41-3.25-3-6.44-6.65-11.08-7.33s-9.77-1.6-12.94-5.37c-2.67-3.16-.23-7.57-1.89-11.1-2.67-.26-6.37,1-8.13-1.68-1.32-4.33.21-8.94-.46-13.37-.1-.92-.78-2.69-2-1.79-3.43.73-4.28,4.55-6.79,6.5a27.14,27.14,0,0,1-11.35,5.66c-2.39.5-5.5.33-6.88-2-2.79-4.37-5.12-9.51-9.92-12a7.15,7.15,0,0,0-1.88,3.68m54.89,123.53c-1.29,2.45-3,5.06-6,5.33-.21,1.07.1,3-1.52,3.07-2.28.19-5.16.72-5.88,3.3.26,3,3.32,4.57,4,7.39.35,1.63.65,3.37,2,4.55,5.36,5.72,12.47,9.34,19.29,13,.27,4.39,3.49,7.73,4.45,11.9.62,1.93-1.34,3.39-1.24,5.25.46,1.4,1.88,2.16,2.89,3.13a17.79,17.79,0,0,0,1.93,5.8c-.2-2.32-.1-5.21,2.16-6.55,2.14-.45,3.76,1.44,5.2,2.73,1.66,1.81,3.77,3.56,4.36,6.06-.76,1.64-1.85,3.1-2.77,4.66,8.74-.89,17.54-.63,26.31-.5a36.21,36.21,0,0,0,8.72-8.87c1.06-2,3.47-1.45,5.32-1.82.15-3.67,3.71-5.72,4.41-9.18a7.38,7.38,0,0,1,4.08-5.11c1.49-.56,2.8.48,4,1.16,0,4.09,0,8.18,0,12.28a9.36,9.36,0,0,1-1.08,4c2.18,2,5.17,2.63,7.46,4.47,1.4,1,2.71,2.46,4.6,2.11,14.59-.47,29.18-.13,43.75-.6a4.1,4.1,0,0,0,4.78-5c-2.86-.08-5.89.41-8.52-1-2.43-1.24-5.25-.71-7.77-1.51-8.69-3.86-18.42-3.07-27.66-3.86-4.77-.28-7.8-4.54-9.75-8.43-1.79-3.44-3.24-8.11-7.59-8.92-5.16,0-9.72,2.85-13.86,5.62a18.94,18.94,0,0,1-14.81.14c-2.79-1.93-4.93-4.94-8.31-5.94-1.79-.45-4.08.33-5.3-1.42-3.17-3.46-7.63-5.1-11.71-7.16a41.49,41.49,0,0,1-8.08-9.91c-3.09-5-4.64-10.74-6.67-16.22-2.18-.5-4.44-.42-6.65-.8-1.89-.34-3.22-1.82-4.51-3.12m-4.55,31q18.19,34.32,36.31,68.67c1,1.63,1.51,4.39,4,4.08-10.63-22.7-21.48-45.3-32.25-67.94-2.11-2.32-5.4-3.23-8.08-4.81m78,26.54c-2.13,15.47-4.45,30.92-6.52,46.4l1.26-.8c3.45-18.42,6.71-36.89,10.06-55.34a15.2,15.2,0,0,0-4.8,9.74M220,258.93a13.07,13.07,0,0,0,.57,9.05c4.82,11.3,9.51,22.65,14.28,34a2,2,0,0,0,2,1.43c-3.56-10.25-7.16-20.5-10.91-30.68a5.84,5.84,0,0,1-3.53-3.33,13.31,13.31,0,0,0,.83-5.51c-.39-2-1.9-3.49-3.24-4.92m41,4.89c-.66,13.13-1.29,26.26-2.1,39.37l2-.11c.91-14,2.57-28,3.41-42-1.37.45-3.5.83-3.31,2.72m16.57,1.45c-3.17,12.76-6.71,25.42-9.63,38.22l1.57-.8c3.58-11.91,6.86-23.94,10.44-35.86l-2.38-1.56m6.35,4.52C280.11,281,276.1,292,272.22,303.17l1.94-.09c3.81-10.53,7.67-21.05,11.69-31.5-.65-.6-1.3-1.2-2-1.79m-31.31,2.36c0,10.3.29,20.62.18,30.93,1,0,2.06.06,3.1.11,0-11.08-.09-22.16.07-33.23-1.11.72-2.28,1.38-3.35,2.19m46.8-1.35c-6.3,10.8-12.64,21.59-18.75,32.52l2-.34c6.94-10.54,13.35-21.48,20.13-32.15l-3.38,0m8.33,0c-7.39,10.72-14.57,21.58-21.94,32.31,1,0,1.9,0,2.86,0,8.12-10.83,16.41-21.54,24.55-32.37h-5.47m-14.93,32.36h2.64L326,270.49c-1.87-.07-3.74-.07-5.61-.12q-13.92,16.31-27.61,32.78m-2.3-31.7c-4.76,10.59-9.61,21.12-14.41,31.69l2,0c5.34-10.61,10.67-21.23,16.16-31.77l-3.74.11m-53,.64c2.2,9.56,4.13,19.18,6.14,28.78.32,1,.28,2.57,1.85,2.57-1.41-10.48-3.38-20.89-5-31.34h-3m7.44,0c1.11,10.34,2.05,20.68,3.18,31h1.74c-.42-10.33-1.37-20.63-1.84-31l-3.08-.07m-14.4.73c2.94,10,6,20.05,8.79,30.15l2,.2c-2.76-10.11-5.48-20.24-8.25-30.34h-2.55m-94.56,35.67c.06,11,.08,22,0,33.05q118.56.19,237.12,0c-.06-11,0-22.07,0-33.1q-118.54,0-237.09,0M196.44,9.73c5.12-1.63,10.17-3.47,15.31-5,2.72,21.41,5.51,42.8,8.07,64.22-4.62,0-9.24.06-13.85-.08-3.21-19.7-6.43-39.39-9.53-59.11M224.88,133.6c6.82-6.87,16.71-10,26.26-9.88,13.8-.06,27.16,7.05,35.57,17.87a31.74,31.74,0,0,1,6.65,13c2,9.13,1.56,18.58,1.21,27.86-.05,1.81-.11,3.78,1,5.31,3,4.46,8.08,6.9,12.8,9.17-2,3.53-4.17,7-6.23,10.46-4.05-1.66-8.07-3.66-11.24-6.73a31.5,31.5,0,0,1-8.26-17.48q-1.77-1.28-3.51-2.56a33,33,0,0,0,2.47-8.53c1.42-.22,2.83-.55,4.26-.76a46,46,0,0,0-1.64-14.9c-1.29.46-2.57.92-3.85,1.36a28,28,0,0,0-4.78-8.48l2.28-2.36a37.55,37.55,0,0,0-11.63-10.09l-2.57,3.4c-2.42-1.1-5.06-1.43-7.6-2.11a34.55,34.55,0,0,1-.46-4.06c-5-.13-10.11-.28-15.06.77.15,1.6.34,3.19.53,4.79-2.83,1.53-5.71,2.93-8.6,4.34-2.53-3.49-5.23-6.85-7.64-10.43m-31.08,5.62c1.91-3.61,3.91-7.16,6-10.68,4.53,1.46,8.4,4.38,12.11,7.29,5.11,4.33,6.81,11.39,6.63,17.85l3.57,1.74c-.79,2.9-1.32,5.86-1.89,8.81l-3.93,0a43.33,43.33,0,0,0,1.67,16c1.24-.35,2.47-.69,3.72-1a34.46,34.46,0,0,0,4.63,7q-1.77,1.46-3.49,2.94a28.87,28.87,0,0,0,12.08,10.09l2.45-3c2.55,1,5.12,1.85,7.68,2.78.14,1.36.29,2.71.45,4.06a39.15,39.15,0,0,0,15.65-1c-.34-1.42-.59-2.87-.94-4.3,2.95-1.24,5.86-2.58,8.8-3.84,2.27,3.34,4.52,6.7,7,9.92a42.45,42.45,0,0,1-34.63,6.67,50.89,50.89,0,0,1-23.58-12.89c-8.41-9.07-10.78-22.07-10.46-34.06-.15-5.08,1-10.54-1.23-15.3-2.94-4.28-7.82-6.64-12.24-9.08m49-1c3.31-.12,6.61-.19,9.92-.2,0,1.34.06,2.68.08,4a50.35,50.35,0,0,1,10.09,2.59l2.52-3.14a53.67,53.67,0,0,1,7.84,5.83q-1.58,1.47-3.16,2.93a22.35,22.35,0,0,1,6.62,10.79c1.43-.16,2.86-.3,4.29-.41.21,3.18.25,6.36.21,9.54l-3.57.37a34.23,34.23,0,0,1-2.75,11.07c1,.73,2,1.46,2.93,2.21-2.33,2.35-4.49,4.86-6.9,7.13-.78-.78-1.55-1.54-2.32-2.32a25.54,25.54,0,0,1-10.71,6.2c.27,1,.53,2,.79,2.92a22.34,22.34,0,0,1-10.09.5c0-.58,0-1.73,0-2.31A32.9,32.9,0,0,1,237,191.65c-.59.9-1.18,1.8-1.78,2.7a47.35,47.35,0,0,1-6.95-5.76c.69-.94,1.37-1.9,2.07-2.84-2.65-2.78-4.08-6.34-5.36-9.88-1.2-.73-2.91-.2-4.28-.4,0-3,0-6,0-9.05,1.26,0,2.53-.07,3.8-.1a23.83,23.83,0,0,1,3-10c-1-1.08-2.05-2.19-3.08-3.26a49.34,49.34,0,0,1,6.24-6.92c1.23.58,2.48,1.13,3.72,1.7,2.57-2.44,5.83-3.88,9-5.31-.26-1.42-.44-2.85-.6-4.26m8.1,12c-.23,1.22-.47,2.43-.71,3.64-1.29-.71-2.58-1.39-3.89-2a7.37,7.37,0,0,0,3.52,4.41c0,2-.06,4-.18,6-2.53-.94-4.5-2.82-6.75-4.2,0,3.88,3.26,6.35,6.35,8.07,0,1.71,0,3.43,0,5.14-3.27-.9-6-2.91-8.71-4.9.23,2.28.43,4.74,1.9,6.61,1.52,2.12,3.88,3.35,6.17,4.47.05,1.66.06,3.33,0,5-4.6-1.16-7.95-4.69-11.36-7.73.77,4.51,2.92,9,6.71,11.71,3,2.09,7.08,3.17,10.62,1.73,5.82-1.83,9.27-7.71,10.19-13.45-3.41,3-6.76,6.51-11.33,7.76-.06-1.68-.06-3.35,0-5,2.3-1.14,4.71-2.34,6.22-4.49,1.45-1.89,1.68-4.35,1.94-6.62-2.72,2-5.51,4-8.81,4.94,0-1.73.09-3.46.13-5.18,3.06-1.73,6.24-4.18,6.32-8-2.3,1.35-4.26,3.26-6.8,4.19-.13-2-.19-4-.14-6.05a7.2,7.2,0,0,0,3.5-4.45c-1.31.7-2.62,1.38-3.92,2.11-.22-1.2-.43-2.41-.63-3.62l-.38,0M352.13,314.41c0-1.07,1.17-1.58,1.74-2.34l2,2c-.63.7-1.26,1.38-1.87,2.1-.64-.59-1.3-1.16-1.87-1.8M320,312.77c.91.58,1.83,1.19,2.73,1.8l1.57-2.16c.66.88,2.06,1.46,2.14,2.66a26.88,26.88,0,0,1-2.13,2.14L322.73,315c-.85.64-1.69,1.29-2.55,1.93L318,314.82l2-2.05m25.73,3.83c.8-.77,1.61-1.53,2.44-2.28a109.53,109.53,0,0,1,.07,12.29,12.07,12.07,0,0,0,7.3.67,31.53,31.53,0,0,0-2.61-3c.69-1.34,1.43-2.63,2.19-3.92,1.83,2.58,2.89,6.12,1.35,9.09a5.19,5.19,0,0,1-5.16,3.19c-2.12.42-3.05-1.8-4.1-3.17-1.54,3.89-6.07,3.13-9.41,3.16-2.33-.06-5.77.44-6.64-2.43-.32-2.23-1-5.28,1-6.94.45,1.38.09,3.61,1.91,4.08a69.61,69.61,0,0,0,11.37,0c.47-3.56,1-7.19.3-10.75m-9.29,3.12c.14-2.27,2.54-3.23,4.34-4a3.71,3.71,0,0,1-1.38,3.09c.55.78,2,1.22,1.66,2.41.07,2-2,2.86-3.6,3.18.37-1,.76-1.91,1.16-2.86a14.19,14.19,0,0,1-2.18-1.83M186.9,316.79c2.66.08,5.43-.39,8,.35,3.22,1.56,3.15,6,1.16,8.57,1.44,2.51.92,5.45,1.41,8.19-1,0-2.08,0-3.11,0-.39-2.11-.08-4.36-.88-6.37-1.21-.19-2.43-.2-3.65-.27,0,2.19,0,4.38,0,6.58-1,0-1.93,0-2.89.06-.06-5.71,0-11.41,0-17.12m2.92,3.31c0,1.37,0,2.76,0,4.14,1.77-.13,4.94.42,4.73-2.31-.24-2.46-3.07-1.59-4.76-1.83m14.26-2.92a28.32,28.32,0,0,1,2.91-.25c1.51,5.53,2.76,11.13,4.2,16.69l-3,0c-.27-1.13-.53-2.24-.8-3.36h-3.75c-.26,1.1-.52,2.22-.77,3.34l-2.89.12c1.29-5.52,2.57-11.06,4.11-16.52m1.38,4.71c-.38,1.79-.74,3.6-1.16,5.38l2.44-.09c-.42-1.77-.82-3.53-1.28-5.29m5.82-4.86c3.32,0,6.64-.09,10,.06-.07,1.06-.14,2.12-.22,3.19-1.13,0-2.27,0-3.41,0,0,4.5.14,9-.11,13.51l-2.72-.18c0-4.44-.07-8.86.05-13.3l-3.55-.07c0-1.06,0-2.12,0-3.18m51.18-.22c.91.05,1.83.07,2.75.09,0,2,0,4,.07,6,1.39-2,2.67-4,4-6.05l3.29.07c-1.43,2.47-3.11,4.79-4.59,7.22,1.69,3.24,3.28,6.52,4.91,9.8-1.17,0-2.32,0-3.48,0-1.25-2.36-2-5.08-3.93-7a55.94,55.94,0,0,0-.26,7c-.92,0-1.84,0-2.76.08-.05-5.71-.06-11.42,0-17.14M301,319c.93-.87,1.86-1.71,2.83-2.54.34,3.5,0,7,.46,10.5,2.87,1.12,6.43.63,9.42-.13-1.71-1.56-3.86-1.31-5.55.2.31-2,.24-4.71,2.5-5.53a66.66,66.66,0,0,1,8.13,2c-.28,1.14-.56,2.28-.83,3.43l-1.25.67c2.09-.13,4.18-.17,6.26-.41-.81-1.06-1.68-2.06-2.57-3,.64-1.27,1.31-2.51,2-3.76a7.91,7.91,0,0,1,.45,10.6c-2.6,2.85-8.42,1.65-8.67-2.58-1.62,1.68-3.12,4.14-5.76,4.06-2.2,0-5.3.52-6.42-1.92-1-3.76-.77-7.73-1-11.59m57.94-.07c.93-.86,1.86-1.7,2.83-2.51.32,3.36-.14,6.75.38,10.08.21,1.39,1.84.84,2.81,1a35.23,35.23,0,0,0,4.09-.26,30.61,30.61,0,0,0-2.63-3c.71-1.32,1.47-2.63,2.26-3.9,2.66,3.44,3.07,9.34-1.13,11.75-2.48.81-6.65,1.23-7.76-1.82-.93-3.68-.48-7.54-.85-11.29m-219.43-1.38c3.22,0,6.45,0,9.68,0,.07,1.1.13,2.19.2,3.29-1.2.05-2.41.08-3.62.12q0,6.6,0,13.2h-2.89c-.07-4.42,0-8.84,0-13.26l-3.25.09c0-1.14,0-2.28-.07-3.42m12.39.05c3.11-.09,6.22-.08,9.32,0,.05,1.08.09,2.18.14,3.27-2.19.11-4.38.11-6.57.08,0,1,0,2,0,3,2,0,4,0,5.93,0,0,.78,0,2.35,0,3.13-1.94,0-3.89-.05-5.83.12-.09,1.2-.09,2.41-.1,3.62,2.26,0,4.53,0,6.79,0,0,1.08,0,2.18,0,3.28-3.24,0-6.47.08-9.69-.12.06-5.47,0-10.94,0-16.4M168,330.84c.79-4.51,0-9.15.43-13.7l2.92.14c-.09,4.59.34,9.23-.22,13.81-.43,3-4.62,4.17-6.76,2.18-1.49-1.58-1.35-3.92-1.58-5.91l2.88-.07c.06,1.35.1,4.9,2.33,3.55m9.79-13.26h2.9q2.21,8.27,4.11,16.6l-2.91,0q-.41-1.61-.81-3.18h-3.79c-.27,1.06-.53,2.13-.8,3.19l-2.87,0c1.41-5.54,2.69-11.11,4.17-16.62m1.36,5.09c-.39,1.65-.74,3.31-1.12,5l2.24.1a41.67,41.67,0,0,0-1.12-5.07m47.14-5.29c2.42,0,4.91-.33,7.29.29,2.79,1.43,2.33,5,1.41,7.46,1.45,2.74,1.77,7.08-1.46,8.69a45.13,45.13,0,0,1-7.26.15c0-5.54,0-11.06,0-16.59m2.79,6.25a14.4,14.4,0,0,0,4-.06c-.33-.9.2-2.4-.87-2.86a12.69,12.69,0,0,0-3.14-.09,16.81,16.81,0,0,0,0,3m0,3.37c0,1.31,0,2.63,0,3.95a12.16,12.16,0,0,0,3.85-.44,4.91,4.91,0,0,0,.16-3.38l-4-.13m12.47-9.51c1.05,0,2.11.08,3.16.13,1.16,5.51,2.69,10.93,3.92,16.42h-3c-.24-1.07-.48-2.15-.71-3.21h-3.82c-.27,1.06-.53,2.12-.79,3.19h-2.88c1.34-5.52,2.72-11,4.09-16.53m1.58,5c-.48,1.64-.9,3.3-1.33,5,.81,0,1.62.13,2.42.24-.38-1.73-.71-3.48-1.09-5.21m6.67-4.89c1-.05,2-.12,2.94-.19,1.48,3.29,2.78,6.66,4.15,10a97.55,97.55,0,0,0,.28-10c.88.06,1.77.12,2.66.16-.06,5.43,0,10.87,0,16.3-.88,0-1.76,0-2.64,0-1.86-3.3-2.9-7-4.57-10.37-.12,3.48,0,7-.11,10.46-.89-.06-1.78-.1-2.67-.11,0-5.42,0-10.83,0-16.25M279,319.76c.74-.71,1.48-1.42,2.23-2.12l2.06,1.86c.71-.61,1.43-1.2,2.15-1.79.54.8,1.77,1.37,1.74,2.44-.62.7-1.31,1.33-2,2l-1.92-2.1-2.07,2c-.74-.76-1.47-1.53-2.2-2.29m10.16,2.32c3.58,2.08,2.35,8.09-1.3,9.55-3.39,1.39-7.34,1.17-10.87.52-3.27-1.73-2.62-6.2-1.64-9.13,1.66.93.66,3.71,2.81,4.09,3.65.81,7.41.15,11.1.05-.62-.71-1.23-1.43-1.82-2.15.55-1,1.08-2,1.72-2.93m7.52,2.27c1.12,0,1.23,1.34,1.65,2.13,1.12,3.37,1.68,7.5-.42,10.6-1.73,2.13-4.77,1.05-6.9.27a57.92,57.92,0,0,0,6.59-6.13c-.93-1.08-1.82-2.18-2.77-3.23.59-1.23,1.14-2.47,1.85-3.64m13.89,12.94,2.32-2.21,2.33,2.36c-.79.73-1.56,1.47-2.34,2.2-.78-.78-1.55-1.56-2.31-2.35m54.51-1.68,2.27,2c-.77.71-1.54,1.42-2.3,2.14-.58-.66-1.14-1.32-1.67-2a21.61,21.61,0,0,1,1.7-2.12M200.32,388.38c6.07,0,12.15,0,18.23,0-.05,12.31,0,24.61,0,36.92,0,2.41.19,5.21,2.29,6.8,1.21,1.3,3,1.35,4.69,1.32,11.78,0,23.57,0,35.36,0a5.53,5.53,0,0,0,5.34-3.67,18.33,18.33,0,0,0,.47-4.9c-12.09,0-24.17,0-36.25,0q0-9.19,0-18.38c16.21,0,32.44-.2,48.66.06,0,7,0,14,0,21a5.64,5.64,0,0,0,5.9,5.89c13.07,0,26.13,0,39.21,0,1.05.13,2.54-.4,3.14.81.15,5.9,0,11.8.05,17.7-10.84.05-21.67,0-32.51,0-7.78-.1-14.66-6.28-16-13.87A17,17,0,0,1,262.37,452c-15.32,0-30.64,0-46,0-8.48-.09-16.13-7.6-16.09-16.14q0-23.7,0-47.41m-78.92,6.1c4.61-3.81,12.34-2.67,15.55,2.42a10.49,10.49,0,0,1-.37,12.59A10.79,10.79,0,0,1,122,411.86c-2.3-1.44-3.54-3.95-4.58-6.35-1.11,3.86-4,7.32-8.06,8.2-5.6,1.58-11.8-2.3-13.1-7.91-1.74-6.32,3.57-13.21,10.06-13.33,5.19-.32,9.92,3.64,11,8.62.75-2.5,1.86-5,4.05-6.61m188.78,6.67c1.09-4.74,5.25-8.92,10.3-8.85,5.78-.51,11.24,4.64,11.2,10.41.37,6-5.23,11.44-11.21,11-5,0-9.15-4-10.21-8.74-1,6.79-9.05,11-15.2,8-5.9-2.56-8.11-10.75-4.29-15.93a10.76,10.76,0,0,1,19.41,4.14M336,418.35h18.31c.44,13.36,0,26.74.23,40.1a5.83,5.83,0,0,0,5.81,5.22c9.1,0,18.21,0,27.32,0,0,6.15,0,12.3,0,18.45-8.84,0-17.68,0-26.51,0a16.83,16.83,0,0,1-15.8-13.86c-1.26,4.64-3.88,9.08-8.16,11.52a18.77,18.77,0,0,1-10.74,2.38c-24-.05-47.88,0-71.81,0,0-6.14,0-12.3,0-18.45,25.2,0,50.41,0,75.62,0a5.69,5.69,0,0,0,5.66-5.93c.05-13.13-.07-26.26.05-39.38m60.43,0c6.16,0,12.33,0,18.49,0,.08,13.12,0,26.24,0,39.36a5.65,5.65,0,0,0,5.75,5.93c9.05.07,18.11,0,27.17,0v18.46c-11.06.05-22.11,0-33.17.05-9.49.9-18.65-7.32-18.29-16.94q0-23.43,0-46.87M64.21,424.48c33.34.2,66.68-.06,100,.12q0,9.15,0,18.3-41.76.08-83.54,0c-9.44,0-17.52-9.09-16.48-18.43m108.87,0c6.12.22,12.24.06,18.37.16.11,11.8,0,23.6,0,35.4,0,8.38-7.46,15.88-15.83,16-7.88.09-15.76,0-23.64,0,0-6.17-.05-12.34.05-18.5,5.15,0,10.3.1,15.45,0a5.65,5.65,0,0,0,5.59-5.86c.05-9.07-.06-18.15.05-27.22M372,427.14c5.76-2.66,13.06,1.16,14.57,7.22,2,6.42-3.64,13.64-10.3,13.5A10.77,10.77,0,0,1,372,427.14M225.77,462.71c5.53-2.68,12.83.45,14.61,6.34,2.51,6.39-2.79,14.26-9.68,14.18-5.78.54-11.36-4.65-11.19-10.46-.35-4.27,2.48-8.29,6.26-10.06M418.18,503c-1.08-5.81,3.52-11.78,9.34-12.42a10.86,10.86,0,0,1,12,9.33c.86,5.59-3.34,10.92-8.72,12.12h-3.13a11.13,11.13,0,0,1-9.51-9Z" style="fill:#2e428d"/></svg>