<svg xmlns="http://www.w3.org/2000/svg" viewBox="0 0 512 512"><path d="M253.61,0h3.81c4,.32,8.28.92,11.64,3.33C282.12,13,295.22,22.56,308.3,32.19q-10.51,36-21.05,71.92A65,65,0,0,0,263,97.94c-11.69-.77-23.7,1-34.29,6.18L200,35.27Q220,19.17,240.15,3.08a10.81,10.81,0,0,1,4.12-1.64A55.64,55.64,0,0,1,253.61,0M122.45,57.28c16-4.42,32.12-8.71,48.17-13.1q21.6,30.62,43.18,61.26a66,66,0,0,0-21.45,16.85,68,68,0,0,0-15,29c-23.92-6.81-47.87-13.56-71.78-20.41q0-25.78-.14-51.58c.1-2.23,1.38-4.19,2.27-6.17,3.33-6.44,8-12.77,14.77-15.81m179.48,52.88q19.94-31.54,40-63,24.75,7.31,49.5,14.58A9.44,9.44,0,0,1,394.9,64c4.9,4.27,9.23,9.42,11.58,15.54a15.16,15.16,0,0,1,1.18,5.5q-.6,24.57-1.19,49.15-35.49,12-71,23.93c-1.57-10.14-6-19.68-11.85-28a66.56,66.56,0,0,0-21.66-19.94m37,58.33,74.18-8q9.74,23.82,19.43,47.66c.66,1.5.4,3.18.38,4.77-.38,7.16-2,14.54-6.34,20.4-1.31,1.88-3.33,3-5.09,4.44-12,9.16-24.15,18.28-36.18,27.47q-31.56-20.25-63-40.62A66.16,66.16,0,0,0,336,200.32a67.47,67.47,0,0,0,2.86-31.83M81.06,203.89q9-21.31,17.88-42.63l74.87,3.58c-2.83,12.88-1.13,26.46,3.39,38.74a63.38,63.38,0,0,0,10.35,18.17q-30.11,22-60.2,44.1Q107,250.08,86.67,234.36c-1.35-1-2-2.6-2.79-4-3.23-6.41-5.48-13.6-4.68-20.84a19.7,19.7,0,0,1,1.86-5.61M196.48,233a66.42,66.42,0,0,0,21.85,18.75,67.19,67.19,0,0,0,29.87,8.67c-2.24,24.77-4.59,49.52-6.83,74.29q-25.29,4.81-50.58,9.62c-1.67.32-3.34-.24-4.95-.62-5.84-1.53-11.57-3.95-16.2-7.91a16.35,16.35,0,0,1-4.18-5q-10.61-22.06-21.27-44.1L196.48,233m92.83,23.1a67.42,67.42,0,0,0,25.28-18.57q27.42,25.26,54.84,50.55c-4.6,9.33-9.33,18.59-14,27.9-3.34,6.39-6.3,13-9.82,19.26a43,43,0,0,1-16.55,9.88c-2.95.82-6.09,1.5-9.13.83q-23.85-4.94-47.69-9.83-5.46-37.08-10.88-74.14a66.57,66.57,0,0,0,27.92-5.88Z" style="fill:#0a8992"/><path d="M250.53,120.88a56.49,56.49,0,1,1-22.31,7.65,56.6,56.6,0,0,1,22.31-7.65M412.8,381.32c6.44-6.06,12.74-12.27,19.07-18.46-1.54,6.93-6.38,12.41-11.05,17.48-11.81,12.29-25.74,22.21-39,32.8-3.52,2.62-6.76,5.63-10.57,7.84A24,24,0,0,1,378,410.44c11.23-10.14,23.74-18.77,34.78-29.12M204.3,390.5c2.88,1.89,6.6,4.45,6,8.41-.8,3-2.14,6.54-5.19,7.95a72.45,72.45,0,0,1-6.42-5.32,69,69,0,0,1,5.62-11m-12,.73c2.93,1.78,6.6,4.38,6.07,8.29-.77,3.09-2.16,6.53-5.16,8.07-2.16-1.81-4.6-3.31-6.48-5.45a85.48,85.48,0,0,1,5.57-10.91m96.13.15c2.72,1.76,6,4,6.13,7.55-.5,3.4-2.1,7.06-5.19,8.85-2.2-1.8-4.67-3.31-6.53-5.48a87,87,0,0,1,5.59-10.92m67.91,11.23a73.38,73.38,0,0,1,5.79-11.34c2.84,1.87,6.41,4.26,6.26,8.11-.7,3.34-2.16,7.17-5.43,8.75-2.2-1.86-4.66-3.41-6.62-5.52m-85.44.49a71.35,71.35,0,0,1,5.61-11c2.77,1.81,6.24,4.15,6.08,7.88-.67,3.24-2.1,7-5.28,8.47a71.3,71.3,0,0,1-6.41-5.33m94.69,29.19a60,60,0,0,1,5.7-11.32c0,3.66-1.22,7.17-1.8,10.76a105.64,105.64,0,0,0-2.9,26.39c.05,2.51,1.06,5.44,3.65,6.35,1.23.39,2.93.9,3.93-.25,1.56-1.81,1.83-4.32,2.94-6.39a3.07,3.07,0,0,1,.6,2.35,53.62,53.62,0,0,1-2.43,9.48c-.91,2.37-2,4.84-4,6.53a5.29,5.29,0,0,1-7.28-.83c-1.79-2.16-2.24-5.06-2.48-7.76-.5-5.3.65-10.55.9-15.82-2.23,2.15-3.65,4.94-5.58,7.32a44.84,44.84,0,0,1-18.36,13.8A79.74,79.74,0,0,1,305.69,479c-4.94,0-10.26,0-14.66-2.53-3.34-2.07-3.53-6.46-3.37-10s-.21-7.3,1.82-10.32c.94,2.28,1.43,4.78,2.7,6.92a10.32,10.32,0,0,0,5,2.45c4.88,1.16,9.94,1,14.92.94,11.36-.28,22.9-2,33.26-6.87,6.53-3,12.7-7.55,16.1-14,2.29-4.13,2.71-8.91,4.15-13.33m-197.9-5a30,30,0,0,1,2.88-5.71c-.83,9.9-3.06,19.67-3.54,29.62-.07,3.06,0,6.4,1.79,9,2,2.86,6.07,3.2,9.14,2.17,1.92-.6,1.89-3.23.45-4.33-1.3-1.54-3.4-.74-5.1-.74a11.35,11.35,0,0,1,15.17-6.21,3,3,0,0,1,1.55,3.33,27.33,27.33,0,0,1-2.46,5.67c4.3.55,9-3.32,8.27-7.85-.33-3.6,1-7,2.41-10.26a36.55,36.55,0,0,1,2.79-6,75.9,75.9,0,0,1-.9,15.29,22.13,22.13,0,0,1-9.75,14c-1.91,1.17-4.17.44-6.24.45-3.19,2.28-5.18,6.14-8.95,7.64-3.12,1.4-7.22,1.21-9.66-1.4-3-3.13-3.67-7.67-3.45-11.82.41-8.51,1.79-16.93,3.08-25.34a30.33,30.33,0,0,1,2.52-7.51m223,.9a21.58,21.58,0,0,1,2.72-5.19c-1.09,11.34-3.7,22.54-3.82,34,0,2.52.48,5.54,2.82,7,1.28.7,3,1.27,4.36.59,1.95-1.57,2.1-4.29,3.19-6.38l.73.11c.36,2.07-.36,4.11-.79,6.12-1,3.67-2,7.46-4.34,10.53a5.18,5.18,0,0,1-4.69,2.27,5.66,5.66,0,0,1-4.73-3.35,20.43,20.43,0,0,1-1.61-9c.27-9.41,1.8-18.71,3.21-28,.39-3.08,1.75-5.9,2.95-8.72m-104.28-1.41c1.06,1,.66,2.54.71,3.83-.18,4.57.34,9.31-1.37,13.66-1.46,4.47-5.07,7.73-7.2,11.83-1.53,4.44-3.46,8.92-6.84,12.28C268.9,471.1,265,472,261.41,473c-2.34.58-4.67,1.38-7.11,1.34,3.26-2.89,7.39-4.53,10.93-7,3.29-2.35,7.14-4.69,8.51-8.72-2.49.51-5.31.42-7.35-1.26-1.32-1.07-1.35-3-.9-4.46a25.22,25.22,0,0,1,4.1-8.17c1-1.2,2.22-2.59,3.92-2.32,2.84.2,4.81,2.69,5.61,5.23,1.1-1,2.31-2.15,2.49-3.73.14-2.16-.78-4.42.21-6.48,1.55-3.49,2.93-7,4.54-10.51M128.48,442.48a35.88,35.88,0,0,1,4.92-9.5c.53,2.2-.23,4.41-.39,6.61-.6,4.54-.47,9.17-1.41,13.68-1.72,9.94-5,20-11.75,27.69-4.66,5.24-10.88,9.65-18,10.36-4.67.59-10,0-13.51-3.39-4-3.63-5.16-9.32-4.76-14.5.67-8.75,4.41-16.89,8.57-24.49.89-1.55,1.63-3.3,3.19-4.29.21,3.24-1.71,6-2.91,8.85-2.23,4.76-4.68,9.82-4.12,15.24.22,3.5,2,7.1,5.22,8.71,4.17,2.11,9.08,1.95,13.58,1.18,8.12-1.47,14.85-7.48,18.48-14.72,3.07-6.77.4-14.53,2.93-21.43m20.39-.18c1.77-1.85,4.84-.63,6.15,1.18,1.95,2.32,1.68,5.52,1.23,8.32-.43,3.84-2,7.43-3.33,11a14.34,14.34,0,0,1-4.77,6.78,29.61,29.61,0,0,1-6.34,2.71c-2.52.83-5,2-7.74,1.94,3.11-3.55,7.49-5.64,11.07-8.67,2.44-1.95,4.72-4.32,5.68-7.36-2.26,0-5,.67-6.7-1.25-1.87-1.63-.84-4.27,0-6.17,1.33-3,2.51-6.12,4.78-8.5m102,4.6c3.39.48,3.81-3.65,5.79-5.41.53,3-1,5.85-2.52,8.34-2,2.92-5,4.85-7.58,7.2-4.06,2.12-7.6,5.05-11.24,7.81-2.23,1.62-5.14,1.3-7.66.68-4.2,3.18-7.69,8.09-13.33,8.63-3.11.65-6-1.09-9-1.38-3.83-.21-7,2.31-10.37,3.57.28-2.3,2.09-3.93,3.52-5.6,3.23-3.46,6.92-7,11.69-8.06,3.19-.81,6.2,1.2,9.39.83,1.66-.19,3.73-.28,4.78-1.8.87-1.87-.1-5.12-2.59-4.89-1-.19-3.13,1-2.85-.78.89-2,2.9-3.08,4.79-3.92a13.2,13.2,0,0,1,8.95-.62,2.9,2.9,0,0,1,2.37,2.9c-.26,2-1.64,3.67-2.64,5.4a7.4,7.4,0,0,0,3.6-.64c3.32-1.82,6.52-4.21,8.17-7.74,1.08,0,2.32.47,3.24-.32a17.13,17.13,0,0,0,3.47-4.2m-147.23,8.15A47.44,47.44,0,0,1,109,444.62c2.58,1.39,5.41,3,6.68,5.78,1.41,4.3-2,8.08-5,10.66-2.12-1.27-4-2.86-6.11-4.16-.58-.4-1.42-1.06-1-1.85m290.39,40c2.79,1.87,6.3,4.17,6.27,7.94a13.82,13.82,0,0,1-5.07,9h-.39c-2.14-1.95-4.63-3.49-6.59-5.64A78.72,78.72,0,0,1,394,495.05Z" style="fill:#706f6e"/></svg>