<svg xmlns="http://www.w3.org/2000/svg" viewBox="0 0 512 512"><path d="M180.29,1.46C208.16.8,236.1,1.28,264,1.08c18.85-2,37.87-.55,56.83-1,3.24.32,7.19-.9,9.79,1.63,11,9.78,20.81,20.82,31.52,30.94,21.46,21.47,43.25,42.61,64.78,64,3,3.06,6.51,5.72,8.91,9.34a45.57,45.57,0,0,1,.3,6.72c-.13,47.1.21,94.2,0,141.29-2.26,4.12-6.19,7-9.37,10.41Q379,312.2,331.53,360.29c-32.21.45-64.43-.36-96.62.71-16.65,0-33.3,0-49.94,0-3.81.25-6.11-3.16-8.66-5.37-32.53-32.12-64.78-64.55-97.53-96.46-1.4-1.37-2.65-3.09-2.43-5.15-.53-46.16-.25-92.34-.57-138.5.1-3-.26-6.12.52-9.09C84.41,97,93.81,88.89,102.24,79.82c21.23-21.26,42.23-42.76,63.51-64,4.86-4.79,9.3-10,14.54-14.4m21.8,55c-18.23,18.66-36.8,37-55.07,55.65-5.58,5.68-11.51,11.08-16.42,17.39-1,2.59-.43,5.46-.56,8.16.33,31.83-.28,63.7.33,95.51,3.79,4.74,8.49,8.61,12.77,12.9,19.08,19.25,38.64,38,57.83,57.16,4.88,6.08,13.44,3.21,20.09,3.18,29.34-.23,58.68,0,88-.37,23.67-24.83,48.11-48.92,72.33-73.21.42-21.55-.48-43.15.5-64.68-1-13.22-.07-26.49-.72-39.72C358.55,105,334.83,82.5,312,59.19c-1.88-1.76-3.52-4.56-6.48-4.3-32.34-.1-64.69.06-97,0-2.19.16-4.86-.36-6.4,1.62m18.23,37.2c11.85-13,24.72-25,36.77-37.78C282.81,81.44,308.2,107.32,333.8,133c15.35,16,31.49,31.23,46.51,47.55C368.8,194.79,355,207,342.6,220.45c-2.49,3.52-7,2.37-10.67,2.52-22.59-.1-45.18,0-67.77,0,13.38-14.46,27.57-28.19,41.27-42.38-14.87-15.53-30.29-30.55-45.29-46C246.87,121,232.81,108,220.32,93.66m-49.73,46.27c2.1-2.76,5.87-1.72,8.84-2,23.19.22,46.38-.33,69.56.29-13.27,14.49-27.72,27.92-40.89,42.53,4,5.32,9.16,9.52,13.62,14.4,23.15,23.07,46,46.45,69,69.59.64,1,2.92,2.58,1.37,3.77-12.29,12-24,24.56-36.44,36.42-39.58-39.28-78.54-79.16-117.91-118.63-1.83-1.82-3.55-3.74-5.25-5.67,11.83-14.37,25.57-27,38.06-40.73m323.13,255.7c6.37-5.42,11.92-11.72,18.28-17.17-1.75,6.75-7,11.82-11.5,16.89-10.56,10.32-22.25,19.39-34,28.28-3.65,2.8-7,6.05-11.13,8.19,1.32-4.25,4.34-7.63,7.6-10.56,10-8.82,20.89-16.63,30.77-25.63m-40.38,7.29c2.37,1.59,4.72,3.44,5.92,6.12a11.64,11.64,0,0,1-4.36,8.89c-3.1.52-4.74-2.76-6.92-4.31a64.84,64.84,0,0,1,5.36-10.7m-88.81,11.51c2.08-1.2,3.6,1.62,5,2.76,2.67,3.91-.29,8.58-2.69,11.81-3.05-.39-5.18-2.57-7.14-4.72,1.5-3.33,2.75-6.8,4.81-9.85m12.34-.57c3.44,0,5.91,3.63,5.93,6.81-.72,3-2.52,5.63-4.23,8.17a15.72,15.72,0,0,1-6.44-4.85c.08-3.86,2.34-7.28,4.74-10.13m70.93,36.4c1.15-5.62,2.88-11.29,6.54-15.82-1.78,11.42-4.9,22.83-4.27,34.49a6.24,6.24,0,0,0,8,5.49c.78-2,1-4.41,3-5.62-.89,5.67-2.2,11.75-6.09,16.19-1.38,1.88-4,1.32-6,.82-2.22-1.26-2.39-4.07-2.91-6.26-1.2-5.63,0-11.31.57-16.92-3.81,2.43-5.51,6.93-8.9,9.83-10.69,11-26.52,14.35-41.22,15.63-6.76-.07-14.74,1-20.36-3.54-2.83-5.29-1.31-11.44-.53-17.06,1.14,2,2,4.15,3.43,5.95,4,3,9.19,3.22,14,3.19,13.54.3,27.46-1.83,39.56-8.15,7.21-3.71,13.38-10.12,15.13-18.22m-201.7,1.56c1.12-5.41,2.21-11.28,5.47-15.82-1.16,10.52-3.65,21-3.34,31.62.17,4.85,4.63,9.59,9.7,8.35,3.82-.43,4.64-5,7.42-6.86a38.64,38.64,0,0,1,6.25.5c2.65-4.64,5.22-9.5,9.43-12.95,1.72-1.92,4.54-1.06,6.81-1.26,2.6,6.92-1.76,14.22-6.81,18.78-4.73,4.34-11.82,4.76-17.49,2.08-2.85,3.16-4.65,7.45-8.42,9.68a14.75,14.75,0,0,1-7-.15c-3.34-2-4-6.23-4.09-9.78-.08-8.12,1.66-16.11,2.06-24.19M274,469.49c5,.74,8.92-2.94,11.77-6.57-1.4-.91-2.51-2.58-4.29-2.7-3.84,1.67-5.92,5.62-7.48,9.27m197.05-21.76c1-4.1,2-8.51,4.87-11.75-1.78,11.24-4.43,22.57-3.44,34,.85,3.44,3.84,4.89,7.2,4.63,1-2,1.83-4.22,3.51-5.79a44.27,44.27,0,0,1-4.72,15c-1.79,3.51-7.62,3.15-9.2-.37a30.25,30.25,0,0,1-1.16-11.07c.84-8.24,1.56-16.51,2.94-24.68M370.51,457.89c-.51-6.08,1.31-12.82,5.38-17.33-.14,4.36,0,8.76-.6,13.1s-3.57,8-5.89,11.73c-3.38,4.93-4.7,11.11-8.8,15.58-4.66,3.39-10.56,4.24-16.07,5.34,6-5.1,14.52-7.69,18.3-15.13-2.59-.28-5.17-.53-7.74-.84-1-5.34,1.28-10.67,5.05-14.37,1.21-.81,2.79-.47,4.17-.71,1.34,1.51,2.65,3,3.94,4.58.56-.49,1.69-1.47,2.26-1.95M61.91,446.57c.69-1.72,1.35-3.54,2.84-4.73-.74,7.57-2,15.1-2.9,22.66-.74,7.14-4.6,13.4-8.26,19.41a6.84,6.84,0,0,1,0-3.42c2.22-6.77,4.09-13.71,4.35-20.87.07-4.66,2.34-8.82,4-13.05m41.64,10.61c.81-5.61,3.38-10.84,6.22-15.67-.51,8.38-1.88,16.68-3,25-1.65,6-3.71,12.38-8.33,16.81,2-8.65,4.74-17.22,5.13-26.13m86.67,3.39c.35-6.79,3.49-12.93,6.38-18.94-.32,13.7-1.46,28.26-9.21,40l-2,1.56a102.07,102.07,0,0,0,4.81-22.64M44.64,451.69c1.34-3,2.51-6.22,4.81-8.66-1.79,9.75-1.14,19.89-4.46,29.37-3.86,11.9-11.79,24.42-24.79,27.39-5,.39-11,1.32-15-2.54C.22,493.34-.55,486.37.3,480.5c.83-8.44,5.05-15.93,9-23.27a3.53,3.53,0,0,1,2.69-2.1c-3.14,7.6-8.7,15-7.33,23.71.07,4.51,3.85,7.9,7.87,9.26,6.27.89,13.19.68,18.63-3a30.71,30.71,0,0,0,12-15.13c1.27-6-.89-12.5,1.58-18.33m108.11-8.11c2.62,0,4.61,2.74,5.9,4.8.63,3.6-1.8,6.74-3.34,9.78-3.24.27-5.32-2.44-7.48-4.38,1.34-3.52,2.54-7.21,4.92-10.2m-16.94,10.85a41.42,41.42,0,0,1,4.9-10.13c2.72.21,4.87,2.37,6.06,4.7.43,3.79-1.84,7.07-3.6,10.22-3-.59-5.14-2.87-7.36-4.79m88.35,3.77a25.42,25.42,0,0,1,5.46-11.43c2.4,2.26,4.93,4.63,6.14,7.79,3,12.51-4.3,27.18-16.72,31.3,3.17-5.86,9.83-9.43,11.57-16.11.89-5-4.4-7.67-6.45-11.55m-136.72,0a26.45,26.45,0,0,0,9.63-8c-.74,4.14-1.87,8.45-4.56,11.82-3.31,2.63-8.16,3.5-10.22,7.55-2.89,4.82-3.38,11.48-8.61,14.58a31.42,31.42,0,0,1-12.08,2.13c3.33-4.62,9.24-6.25,13.15-10.28,6.11-4.6,5.47-14.31,12.69-17.82m327.87-7c1.19-1.53,3.19-.75,4.73-.34q-1.92,1.26-3.9,2.45c-.72,2.76-1.05,6.78-4.5,7.41-1.72.82-3.34-.4-4.55-1.48,1.92-.35,3.86-.65,5.78-1,.8-2.33.7-5.12,2.44-7M25.61,455c3.25.43,6.49,3.44,6.14,6.91.38,3-1.95,5.27-3.75,7.35-3.23,1.14-5.52-2.52-8-4,.78-3.72,2.07-8.26,5.6-10.27m313.1,10.08a59.32,59.32,0,0,0,9.86-9A17.52,17.52,0,0,1,340.35,469c-4.14,2.85-8.32,5.63-12.21,8.82-2.89,2.64-7.43.08-10.23,2.83-3.67,2.63-6.94,6.76-11.85,6.75-3.17.32-6.14-1.12-9.26-1.35-3.38.4-6.32,2.34-9.39,3.67a28,28,0,0,1,12-12.09c4.33-2.28,9.21-.14,13.78-.28,2-.37,3.16-2.12,4.43-3.53-.43-.73-1.27-2.2-1.69-2.94-1.43-.35-2.84-.71-4.25-1.08,2.39-3.85,7.45-5.18,11.74-4.72a3.66,3.66,0,0,1,3.46,2.57c-.5,2-1.25,4-1.81,6,6.05,0,8.49-6.54,13.68-8.48m-165.13,3c3.46-1.52,5.62-4.71,8.06-7.41-1,6.59-4.06,13.41-10,16.91-9.07,5.39-19.7,7.32-30.06,8.33-8,.26-16.17,1-23.93-1.22a10.16,10.16,0,0,1-5.71-4.68c-1-5.76.94-11.46,2.37-17,.77,2.69.62,6.09,3.38,7.66,7,4.89,16,3.46,24,3.69a70.32,70.32,0,0,0,31.9-6.31M213,469.82a41.79,41.79,0,0,1,3.94-5.9c-.81,11.49-10.1,21.55-21.55,23,5.14-6.37,13.19-10.06,17.61-17.14M90.34,495.89c2.3,1.61,4.7,3.35,5.86,6,.51,4-2.3,7.34-5,9.86-1.88-1.75-4.49-3-5.69-5.3.76-3.85,3.16-7.1,4.88-10.57M78.27,497c1.92,1.09,4.55,1.76,5.28,4.13,1.3,3.92-.37,9.1-4.18,10.88a12.77,12.77,0,0,1-5.73-4.45c.31-3.92,2.8-7.21,4.63-10.56m396.59.52,3.39.22c4.13,4,2.84,10-.26,14.23-3.21.22-5.54-2.15-7.46-4.38.64-3.61,2.92-6.71,4.33-10.07" style="fill:#046b10"/></svg>