<svg width="512" height="512" viewBox="0 0 512 512" fill="none" xmlns="http://www.w3.org/2000/svg"><path d="M238.658 15.9174C242.534 6.30378 251.904 0 262.332 0H425.988C444.03 0 456.358 18.0929 449.664 34.7258L324.338 345.818C320.462 355.432 311.092 361.736 300.664 361.736H137.007C118.965 361.736 106.637 343.642 113.331 327.012L238.658 15.9174Z" fill="#FFD60A"/><path d="M169.378 217.042C229.31 217.042 277.896 168.456 277.896 108.521C277.896 48.5864 229.31 0 169.378 0C109.445 0 60.8594 48.5864 60.8594 108.521C60.8594 168.456 109.445 217.042 169.378 217.042Z" fill="#0A33FF"/><path d="M277.914 108.522C277.914 168.457 229.328 217.042 169.396 217.042C165.518 217.042 161.689 216.84 157.906 216.442L235.928 22.7802C261.488 42.6348 277.914 73.6584 277.914 108.522Z" fill="#0022C5"/><path d="M122.666 400C127.453 400 131.333 403.858 131.333 408.616V468.8C131.333 487.834 115.808 503.384 96.6626 503.384C77.517 503.384 62 487.834 62 468.8V451.57C62 446.812 65.8802 442.954 70.6666 442.954C75.453 442.954 79.3332 446.812 79.3332 451.57V468.8C79.3332 478.316 87.09 486.154 96.6626 486.154C106.235 486.154 114 478.316 114 468.8V408.616C114 403.858 117.879 400 122.666 400Z" fill="#19191A"/><path d="M157.341 408.616C157.341 403.858 153.461 400 148.675 400C143.888 400 140.008 403.858 140.008 408.616V451.692C140.008 465.968 151.648 477.538 166.008 477.538H192.007C206.366 477.538 218.008 465.968 218.008 451.692V443.078C218.008 438.318 214.126 434.462 209.34 434.462C204.554 434.462 200.674 438.318 200.674 443.078V451.692C200.674 456.45 196.794 460.308 192.007 460.308H166.008C161.221 460.308 157.341 456.45 157.341 451.692V408.616Z" fill="#19191A"/><path d="M174.667 486.154C169.88 486.154 166 490.01 166 494.77C166 499.528 169.88 503.384 174.667 503.384H192C192 508.142 195.88 512 200.666 512C205.452 512 209.334 508.142 209.334 503.384V494.77C209.334 490.01 205.452 486.154 200.666 486.154H174.667Z" fill="#19191A"/><path d="M400.006 474.31C400.006 478.842 398.722 481.856 397.27 483.576C395.926 485.164 394.048 486.156 391.338 486.156C386.552 486.156 382.672 490.012 382.672 494.772C382.672 499.528 386.552 503.386 391.338 503.386C399.03 503.386 405.818 500.25 410.542 494.658C415.154 489.198 417.338 481.982 417.338 474.31V443.078C417.338 438.32 413.458 434.462 408.672 434.462C403.886 434.462 400.006 438.32 400.006 443.078V474.31Z" fill="#19191A"/><path d="M431.928 483.576C433.38 481.856 434.66 478.842 434.66 474.31V443.078C434.66 438.32 438.54 434.462 443.328 434.462C448.114 434.462 451.996 438.32 451.996 443.078V474.31C451.996 481.982 449.812 489.198 445.198 494.658C440.474 500.25 433.686 503.386 425.994 503.386C421.208 503.386 417.328 499.528 417.328 494.772C417.328 490.012 421.208 486.156 425.994 486.156C428.704 486.156 430.582 485.164 431.928 483.576Z" fill="#19191A"/><path d="M452 417.23C452 421.98 448.11 425.846 443.332 425.846C438.55 425.846 434.664 421.98 434.664 417.23C434.664 412.48 438.55 408.616 443.332 408.616C448.11 408.616 452 412.48 452 417.23Z" fill="#19191A"/><path d="M330.672 494.77C330.672 490.01 334.552 486.154 339.338 486.154H365.338C370.124 486.154 374.004 490.01 374.004 494.77C374.004 499.526 370.124 503.384 365.338 503.384H339.338C334.552 503.384 330.672 499.526 330.672 494.77Z" fill="#19191A"/><path d="M296.004 443.078C296.004 438.32 292.124 434.462 287.338 434.462C282.552 434.462 278.672 438.32 278.672 443.078V468.924C278.672 478.44 270.912 486.156 261.338 486.156C251.766 486.156 244.004 478.44 244.004 468.924V443.078C244.004 438.32 240.124 434.462 235.338 434.462C230.552 434.462 226.672 438.32 226.672 443.078V468.924C226.672 487.958 242.192 503.386 261.338 503.386C278.078 503.386 292.046 491.592 295.292 475.906C298.238 476.971 301.412 477.54 304.672 477.54H356.672C370.436 477.54 382.67 467.4 382.67 452.556V443.078C382.67 438.32 378.79 434.462 374.004 434.462C369.218 434.462 365.338 438.32 365.338 443.078V452.556C365.338 456.744 362.052 460.31 356.672 460.31H304.672C299.29 460.31 296.004 456.744 296.004 452.556V443.078Z" fill="#19191A"/><path d="M261.332 425.846C266.11 425.846 269.998 421.98 269.998 417.23C269.998 412.48 266.11 408.616 261.332 408.616C256.552 408.616 252.664 412.48 252.664 417.23C252.664 421.98 256.552 425.846 261.332 425.846Z" fill="#19191A"/></svg>