<svg xmlns="http://www.w3.org/2000/svg" viewBox="0 0 512 512" fill="none"><path fill-rule="evenodd" clip-rule="evenodd" d="M379.317 66.7144L448.595 135.993C452.847 140.244 452.847 146.997 448.595 150.999L337.3 262.544C333.048 266.796 326.296 266.796 322.294 262.544L253.016 193.266C248.764 189.014 248.764 182.261 253.016 178.26L364.311 66.7144C368.563 62.4627 375.315 62.4627 379.317 66.7144Z" fill="#155EEF"/><path fill-rule="evenodd" clip-rule="evenodd" d="M232.007 214.525L259.018 241.786C263.27 246.037 263.27 252.79 259.018 256.792L210.749 304.811C206.497 309.063 199.744 309.063 195.743 304.811L168.732 277.55C164.48 273.298 164.48 266.546 168.732 262.544L217.001 214.274C221.003 210.273 227.756 210.273 232.007 214.525Z" fill="#155EEF"/><path fill-rule="evenodd" clip-rule="evenodd" d="M132.467 241.535L63.1888 172.257C58.9371 168.005 58.9371 161.253 63.1888 157.251L174.734 45.4558C178.986 41.204 185.739 41.204 189.74 45.4558L259.018 114.734C263.27 118.986 263.27 125.738 259.018 129.74L147.723 241.285C143.471 245.787 136.719 245.787 132.467 241.535Z" fill="#155EEF"/><path fill-rule="evenodd" clip-rule="evenodd" d="M280.027 93.7255L253.016 66.4645C248.764 62.2127 248.764 55.46 253.016 51.4584L301.285 3.18879C305.537 -1.06293 312.29 -1.06293 316.292 3.18879L343.302 30.4498C347.554 34.7016 347.554 41.4543 343.302 45.4559L295.033 93.7255C291.031 97.9773 284.279 97.9773 280.027 93.7255Z" fill="#155EEF"/><path d="M386.819 359.026H375.723C372.394 359.026 369.758 361.661 369.758 364.99V376.087C369.758 379.416 372.394 382.052 375.723 382.052H386.819C390.148 382.052 392.784 379.416 392.784 376.087V364.99C392.645 361.661 390.01 359.026 386.819 359.026Z" fill="#C8DAFF"/><path d="M272.661 484.974H261.564C258.235 484.974 255.6 487.61 255.6 490.939V502.036C255.6 505.365 258.235 508 261.564 508H272.661C275.99 508 278.626 505.365 278.626 502.036V490.939C278.626 487.61 275.99 484.974 272.661 484.974Z" fill="#C8DAFF"/><path d="M352.419 484.974H318.435C315.106 484.974 312.471 487.61 312.471 490.939V502.036C312.471 505.365 315.106 508 318.435 508H352.419C355.748 508 358.384 505.365 358.384 502.036V490.939C358.384 487.61 355.748 484.974 352.419 484.974Z" fill="#C8DAFF"/><path d="M386.819 393.287H375.723C372.394 393.287 369.758 395.922 369.758 399.251V450.574H329.948C326.619 450.574 323.984 453.21 323.984 456.539V467.635C323.984 470.964 326.619 473.6 329.948 473.6H373.781H383.074H386.819C390.148 473.6 392.784 470.964 392.784 467.635V399.251C392.645 395.922 390.01 393.287 386.819 393.287Z" fill="#C8DAFF"/><path d="M203.861 336.139H192.765C189.435 336.139 186.8 338.774 186.8 342.103V450.574H141.026V399.252C141.026 395.922 138.39 393.287 135.061 393.287H123.965C120.635 393.287 118 395.922 118 399.252V467.497C118 470.826 120.635 473.461 123.965 473.461H133.535H137.003H190.823H196.232H203.723C207.052 473.461 209.687 470.826 209.687 467.497V341.964C209.687 338.774 207.052 336.139 203.861 336.139Z" fill="#C8DAFF"/><path d="M352.419 438.923C355.748 438.923 358.384 436.287 358.384 432.958V421.861C358.384 418.532 355.748 415.897 352.419 415.897H312.61V399.252C312.61 395.923 309.974 393.287 306.645 393.287H295.548C292.219 393.287 289.584 395.923 289.584 399.252V450.574H243.81V341.965C243.81 338.635 241.174 336 237.845 336H226.748C223.419 336 220.784 338.635 220.784 341.965V454.458V467.497C220.784 470.826 223.419 473.461 226.748 473.461H239.787H293.606H297.074H306.645C309.974 473.461 312.61 470.826 312.61 467.497V438.923H352.419Z" fill="#C8DAFF"/></svg>