<svg xmlns="http://www.w3.org/2000/svg" version="1.1" xmlns:xlink="http://www.w3.org/1999/xlink" width="512" height="512" x="0" y="0" viewBox="0 0 512 512" style="enable-background:new 0 0 512 512" xml:space="preserve" class=""><g><g fill-rule="evenodd" clip-rule="evenodd"><g fill="#1d5074"><path d="M136.74 415.34h42.09v74.27h-42.09zM92.59 403.35h130.39v-235.4c-.59-.1-1.17-.22-1.76-.38-5.24-1.4-9.61-4.75-12.31-9.43l-.7-1.21c-2.7-4.67-3.42-10.13-2.01-15.37 1.4-5.25 4.75-9.62 9.43-12.32l7.35-4.24V31.62H92.59zm117.85-64.69c0 29.03-23.62 52.66-52.65 52.66-29.04 0-52.66-23.63-52.66-52.66S128.75 286 157.79 286c29.03.01 52.65 23.63 52.65 52.66zm-52.65-68.52c-29.04 0-52.66-23.62-52.66-52.65 0-29.04 23.62-52.66 52.66-52.66 29.03 0 52.65 23.62 52.65 52.66 0 29.02-23.62 52.65-52.65 52.65zm52.65-173.85c0 29.04-23.62 52.66-52.65 52.66-29.04 0-52.66-23.62-52.66-52.66 0-29.03 23.62-52.65 52.66-52.65 29.03.01 52.65 23.62 52.65 52.65zM80.59 379.32V298h-23.3l7.18 81.32zM64.47 258.13h16.12v-81.31h-23.3zM234.98 298v81.32h16.13l7.18-81.32zM234.98 258.13h16.13l3.08-34.95c-5.24-2.84-9.62-7.07-12.68-12.37-4.36-7.55-5.52-16.35-3.26-24.77 1.73-6.46 5.31-12.1 10.29-16.35l-1.7-2.94c-.81-1.42-2.14-2.43-3.74-2.86a6.067 6.067 0 0 0-4.66.61l-1.84 1.06c-.53.3-1.07.57-1.62.83z" fill="#741d1d" opacity="1" data-original="#1d5074"></path></g><path fill="#bd2a2a" d="M157.79 258.13c22.41 0 40.65-18.24 40.65-40.65 0-22.42-18.24-40.66-40.65-40.66-22.42 0-40.66 18.24-40.66 40.66 0 22.41 18.24 40.65 40.66 40.65zM198.44 338.66c0-22.42-18.24-40.66-40.65-40.66-22.42 0-40.66 18.24-40.66 40.66s18.24 40.66 40.66 40.66c22.41 0 40.65-18.24 40.65-40.66zM157.79 136.95c22.42 0 40.65-18.24 40.65-40.66 0-22.41-18.23-40.65-40.65-40.65s-40.66 18.24-40.66 40.65c0 22.42 18.24 40.66 40.66 40.66z" opacity="1" data-original="#2a7abd" class=""></path><path fill="#741d1d" d="M234.98 55.64v62.43l18.75-10.83 4.56-51.6zM80.59 136.95V55.64h-23.3l7.18 81.31zM359.33 60.12l-137.7 79.5c-1.9 1.1-3.26 2.89-3.84 5.03-.57 2.15-.29 4.37.81 6.27l.7 1.21a8.161 8.161 0 0 0 5.03 3.84c2.14.58 4.37.29 6.27-.81l1.84-1.06c2.85-1.64 5.97-2.43 9.04-2.43 6.28 0 12.4 3.26 15.76 9.08l34.55 59.85c3.13 5.41 8.21 9.3 14.31 10.93 6.09 1.64 12.44.81 17.86-2.32l99.74-57.58c5.42-3.13 9.31-8.21 10.94-14.31 1.64-6.1.81-12.44-2.32-17.86l-40.83-70.72c-6.49-11.23-20.92-15.1-32.16-8.62zm-71.79 103.22c1.31-4.9 4.46-9 8.85-11.54 9.07-5.23 20.71-2.11 25.95 6.96 5.23 9.07 2.11 20.71-6.96 25.94a18.85 18.85 0 0 1-9.46 2.56c-1.65 0-3.31-.22-4.95-.66-4.9-1.31-9-4.46-11.53-8.85-2.54-4.39-3.21-9.5-1.9-14.41zm-9.27-33.35 75.37-43.51c5.36-3.1 11.63-3.92 17.66-2.31 6.02 1.61 11.04 5.46 14.14 10.83l21.12 36.58c3.1 5.37 3.91 11.64 2.3 17.66-1.61 6.01-5.46 11.04-10.82 14.14l-75.37 43.51c-.95.54-1.98.8-3 .8-2.07 0-4.09-1.07-5.2-3-1.65-2.87-.67-6.54 2.2-8.19l75.37-43.52c2.59-1.49 4.45-3.93 5.23-6.85s.39-5.96-1.11-8.55L375.04 101c-1.49-2.6-3.93-4.45-6.85-5.24-2.92-.78-5.96-.39-8.55 1.11l-75.37 43.51c-2.87 1.66-6.54.67-8.2-2.19a6.015 6.015 0 0 1 2.2-8.2z" opacity="1" data-original="#1d5074"></path><path fill="#bd2a2a" d="M311.94 164.76c-1.29-2.25-3.65-3.5-6.07-3.5-1.18 0-2.38.3-3.48.94-3.34 1.92-4.49 6.21-2.56 9.55a6.91 6.91 0 0 0 4.25 3.26c1.8.48 3.69.23 5.3-.7 3.34-1.92 4.49-6.2 2.56-9.55zM274.48 214.61l-19.77-34.23c-6.04 6.46-7.46 16.38-2.81 24.43 2.76 4.78 7.21 8.2 12.54 9.63 3.34.9 6.77.94 10.04.17z" opacity="1" data-original="#2a7abd" class=""></path><path fill="#741d1d" d="M363.24 220.39c2.69 7.75 11.7 20.14 26.19 32.27 12.58 10.52 25.34 17.34 34.85 18.86v-29.55c-15.38-4.66-28.42-17.25-36.82-35.56zM436.28 229.92v65.01c0 5.51 4.48 9.99 9.98 9.99 5.51 0 9.98-4.48 9.98-9.99v-65.01c0-5.51-4.47-9.99-9.98-9.99-5.5 0-9.98 4.48-9.98 9.99z" opacity="1" data-original="#1d5074"></path></g></g></svg>