<?xml version="1.0" standalone="no"?>
<!DOCTYPE svg PUBLIC "-//W3C//DTD SVG 20010904//EN"
 "http://www.w3.org/TR/2001/REC-SVG-20010904/DTD/svg10.dtd">
<svg version="1.0" xmlns="http://www.w3.org/2000/svg"
 width="296.000000pt" height="296.000000pt" viewBox="0 0 296.000000 296.000000"
 preserveAspectRatio="xMidYMid meet">
<metadata>
Created by potrace 1.14, written by Peter Selinger 2001-2017
</metadata>
<g transform="translate(0.000000,296.000000) scale(0.100000,-0.100000)"
fill="#000000" stroke="none">
<path d="M779 2480 c-71 -38 -74 -48 -79 -311 0 -14 -28 -16 -247 -16 -233 0
-250 -1 -281 -20 -71 -44 -67 0 -70 -693 -2 -435 0 -636 8 -663 17 -60 72 -93
156 -96 38 -1 74 -7 80 -12 7 -6 13 -35 13 -68 0 -96 26 -136 86 -134 31 1
101 40 138 77 8 8 54 41 101 74 63 43 95 58 117 57 16 -1 32 2 34 6 3 4 17 4
33 0 15 -4 41 -5 57 -1 17 3 41 5 55 3 14 -2 54 -3 90 -2 36 0 70 1 75 0 6 0
48 0 95 0 47 0 94 -1 105 -1 11 -1 27 -1 35 -1 8 0 37 1 63 1 26 1 57 -2 67
-5 11 -4 20 -2 20 3 0 5 19 6 43 3 23 -4 56 -4 72 -1 17 3 50 3 75 -1 25 -4
47 -3 48 2 2 5 8 7 13 4 26 -17 209 -2 242 20 56 36 61 56 63 235 l1 164 27 7
c14 4 29 3 32 -2 3 -5 11 -9 17 -8 30 5 88 -31 246 -153 84 -66 119 -72 162
-29 27 27 29 35 29 104 0 85 2 87 95 87 58 0 110 24 139 63 21 28 21 38 22
620 0 670 3 647 -76 687 -39 20 -56 20 -1002 20 -927 -1 -964 -2 -999 -20z
m1970 -98 c4 -7 7 -269 7 -583 -1 -495 -3 -571 -16 -579 -8 -5 -42 -10 -75
-10 -108 0 -154 -42 -165 -148 l-5 -54 -85 65 c-146 109 -202 137 -284 137
-27 0 -36 4 -37 18 0 9 0 197 0 416 0 376 -1 401 -20 437 -38 75 -13 72 -674
73 l-590 1 -2 100 c-2 114 2 132 24 137 9 2 444 3 965 3 739 -1 951 -4 957
-13z m-934 -532 c15 -47 27 -46 -712 -44 -384 0 -701 2 -704 3 -14 3 -19 34
-8 47 10 12 131 14 715 14 699 0 703 0 709 -20z m-8 -243 c15 -15 12 -47 -5
-55 -9 -4 -326 -7 -704 -7 -713 1 -726 2 -711 42 3 8 14 18 24 21 24 9 1387 7
1396 -1z m6 -255 c11 -3 9 -50 -3 -57 -5 -3 -323 -6 -705 -6 -504 -1 -700 2
-709 11 -14 11 -16 27 -4 46 5 7 220 10 710 9 387 -1 706 -3 711 -3z m-744
-257 c6 -3 11 -1 11 5 0 6 11 5 30 -5 24 -13 28 -19 21 -38 l-8 -22 -354 -1
c-299 -1 -357 1 -371 14 -13 11 -15 19 -7 34 9 18 25 19 301 18 159 -1 292 0
293 2 6 6 73 0 84 -7z"/>
</g>
</svg>
