<svg width="512" height="512" viewBox="0 0 512 512" fill="none" xmlns="http://www.w3.org/2000/svg">
<path d="M328 128V240C327.992 254.905 325.008 269.658 319.225 283.395C313.442 297.133 304.975 309.577 294.32 320H456V128H328Z" fill="#90CAF9"/>
<path d="M328 160V240C328 269.704 316.2 298.192 295.196 319.196C274.192 340.2 245.704 352 216 352H424V160H328Z" fill="#42A5F5"/>
<path d="M328 192V240C328 269.704 316.2 298.192 295.196 319.196C274.192 340.2 245.704 352 216 352H56V384H392V192H328Z" fill="#90CAF9"/>
<path d="M456 120H192C189.878 120 187.843 120.843 186.343 122.343C184.843 123.843 184 125.878 184 128C184 130.122 184.843 132.157 186.343 133.657C187.843 135.157 189.878 136 192 136H448V312H432V160C432 157.878 431.157 155.843 429.657 154.343C428.157 152.843 426.122 152 424 152H376C373.878 152 371.843 152.843 370.343 154.343C368.843 155.843 368 157.878 368 160C368 162.122 368.843 164.157 370.343 165.657C371.843 167.157 373.878 168 376 168H416V344H400V192C400 189.878 399.157 187.843 397.657 186.343C396.157 184.843 394.122 184 392 184H96V168H344C346.122 168 348.157 167.157 349.657 165.657C351.157 164.157 352 162.122 352 160C352 157.878 351.157 155.843 349.657 154.343C348.157 152.843 346.122 152 344 152H128V136H160C162.122 136 164.157 135.157 165.657 133.657C167.157 132.157 168 130.122 168 128C168 125.878 167.157 123.843 165.657 122.343C164.157 120.843 162.122 120 160 120H120C117.878 120 115.843 120.843 114.343 122.343C112.843 123.843 112 125.878 112 128V152H88C85.8783 152 83.8434 152.843 82.3431 154.343C80.8429 155.843 80 157.878 80 160V184H56C53.8783 184 51.8434 184.843 50.3431 186.343C48.8429 187.843 48 189.878 48 192V384C48 386.122 48.8429 388.157 50.3431 389.657C51.8434 391.157 53.8783 392 56 392H80C82.1217 392 84.1566 391.157 85.6569 389.657C87.1571 388.157 88 386.122 88 384C88 381.878 87.1571 379.843 85.6569 378.343C84.1566 376.843 82.1217 376 80 376H64V200H280V216C280 218.122 280.843 220.157 282.343 221.657C283.843 223.157 285.878 224 288 224C290.122 224 292.157 223.157 293.657 221.657C295.157 220.157 296 218.122 296 216V200H384V376H296V360C296 357.878 295.157 355.843 293.657 354.343C292.157 352.843 290.122 352 288 352C285.878 352 283.843 352.843 282.343 354.343C280.843 355.843 280 357.878 280 360V376H112C109.878 376 107.843 376.843 106.343 378.343C104.843 379.843 104 381.878 104 384C104 386.122 104.843 388.157 106.343 389.657C107.843 391.157 109.878 392 112 392H392C394.122 392 396.157 391.157 397.657 389.657C399.157 388.157 400 386.122 400 384V360H424C426.122 360 428.157 359.157 429.657 357.657C431.157 356.157 432 354.122 432 352V328H456C458.122 328 460.157 327.157 461.657 325.657C463.157 324.157 464 322.122 464 320V128C464 125.878 463.157 123.843 461.657 122.343C460.157 120.843 458.122 120 456 120Z" fill="#3C70C0"/>
<path d="M288 280C290.122 280 292.157 279.157 293.657 277.657C295.157 276.157 296 274.122 296 272V248C296 245.878 295.157 243.843 293.657 242.343C292.157 240.843 290.122 240 288 240C285.878 240 283.843 240.843 282.343 242.343C280.843 243.843 280 245.878 280 248V272C280 274.122 280.843 276.157 282.343 277.657C283.843 279.157 285.878 280 288 280Z" fill="#3C70C0"/>
<path d="M280 328C280 330.122 280.843 332.157 282.343 333.657C283.843 335.157 285.878 336 288 336C290.122 336 292.157 335.157 293.657 333.657C295.157 332.157 296 330.122 296 328V304C296 301.878 295.157 299.843 293.657 298.343C292.157 296.843 290.122 296 288 296C285.878 296 283.843 296.843 282.343 298.343C280.843 299.843 280 301.878 280 304V328Z" fill="#3C70C0"/>
<path d="M368 352V224C368 221.878 367.157 219.843 365.657 218.343C364.157 216.843 362.122 216 360 216C357.878 216 355.843 216.843 354.343 218.343C352.843 219.843 352 221.878 352 224V352C352 354.122 352.843 356.157 354.343 357.657C355.843 359.157 357.878 360 360 360C362.122 360 364.157 359.157 365.657 357.657C367.157 356.157 368 354.122 368 352Z" fill="#3C70C0"/>
<path d="M336 328V240C336 237.878 335.157 235.843 333.657 234.343C332.157 232.843 330.122 232 328 232C325.878 232 323.843 232.843 322.343 234.343C320.843 235.843 320 237.878 320 240V328C320 330.122 320.843 332.157 322.343 333.657C323.843 335.157 325.878 336 328 336C330.122 336 332.157 335.157 333.657 333.657C335.157 332.157 336 330.122 336 328Z" fill="#3C70C0"/>
<path d="M114.054 262.955H134.144C136.43 262.955 138.206 262.794 139.474 262.471C140.766 262.123 141.76 261.601 142.455 260.905C142.952 260.433 143.313 259.775 143.536 258.93C143.785 258.06 143.909 256.917 143.909 255.501V216.775H150.916V255.501C150.916 260.446 149.5 264.098 146.667 266.459C143.859 268.82 139.685 270 134.144 270H114.054V262.955ZM118.713 256.358L116.476 218.303L123.446 217.52L125.72 256.358H118.713ZM181.553 270C179.192 269.975 177.155 269.801 175.44 269.478C173.75 269.13 172.309 268.646 171.116 268.025C169.949 267.378 169.004 266.583 168.284 265.639C167.588 264.67 167.041 263.552 166.644 262.285C166.246 260.992 165.985 259.551 165.861 257.961C165.737 256.371 165.675 254.606 165.675 252.668V216.812H172.719V252.668C172.719 254.83 172.781 256.582 172.906 257.924C173.055 259.265 173.415 260.309 173.986 261.055C174.583 261.775 175.465 262.272 176.633 262.545C177.826 262.794 179.466 262.931 181.553 262.955V270ZM180.417 270V262.955H202.259C204.048 262.955 205.527 262.757 206.694 262.359C207.887 261.937 208.657 261.365 209.005 260.645C209.328 259.924 209.328 259.042 209.005 257.998C208.707 256.93 208.173 255.762 207.403 254.495C206.632 253.202 205.688 251.848 204.57 250.432C203.452 249.015 202.247 247.599 200.954 246.183C199.662 244.766 198.333 243.387 196.966 242.045C195.6 240.679 194.283 239.424 193.015 238.281C191.748 237.113 190.593 236.094 189.549 235.225C188.505 234.33 187.648 233.647 186.977 233.175L187.685 225.235L221.79 210.252L224.623 216.663L194.767 229.708C195.513 230.454 196.469 231.398 197.637 232.541C198.805 233.659 200.072 234.914 201.439 236.305C202.806 237.672 204.197 239.138 205.614 240.704C207.03 242.244 208.372 243.797 209.639 245.363C210.906 246.928 212.024 248.469 212.994 249.985C213.987 251.475 214.72 252.855 215.193 254.122C215.615 255.215 215.901 256.234 216.05 257.178C216.224 258.122 216.298 258.992 216.274 259.787C216.249 260.558 216.149 261.253 215.975 261.875C215.826 262.496 215.652 263.03 215.454 263.477C215.18 264.098 214.758 264.794 214.186 265.565C213.615 266.31 212.807 267.018 211.764 267.689C210.745 268.335 209.465 268.882 207.924 269.329C206.384 269.776 204.495 270 202.259 270H180.417ZM143.797 336.216C146.878 336.216 149.611 336.179 151.997 336.105C154.382 336.03 156.42 335.856 158.109 335.583C159.824 335.309 161.191 334.912 162.209 334.39C163.228 333.868 163.924 333.16 164.297 332.265C164.495 331.644 164.458 330.886 164.185 329.992C163.936 329.072 163.514 328.078 162.918 327.01C162.321 325.917 161.588 324.786 160.719 323.618C159.874 322.45 158.942 321.295 157.923 320.152C155.91 317.94 154.022 316.015 152.258 314.375C150.493 312.735 148.903 311.343 147.487 310.2C146.095 309.057 144.902 308.162 143.909 307.516C142.915 306.845 142.169 306.373 141.672 306.1L142.231 297.639L175.851 283.177L178.684 289.588L149.201 302.335C150.145 303.031 151.164 303.839 152.258 304.758C153.376 305.653 154.531 306.659 155.724 307.777C156.917 308.895 158.134 310.113 159.377 311.43C160.619 312.722 161.862 314.089 163.104 315.53C164.048 316.673 164.98 317.866 165.899 319.108C166.819 320.351 167.639 321.63 168.359 322.947C169.08 324.239 169.664 325.556 170.111 326.898C170.559 328.215 170.782 329.532 170.782 330.849C170.782 331.073 170.782 331.309 170.782 331.557C170.782 331.781 170.757 332.017 170.708 332.265C170.484 334.03 169.975 335.533 169.179 336.775C168.409 337.993 167.415 339.012 166.198 339.832C164.98 340.627 163.551 341.261 161.911 341.733C160.296 342.18 158.519 342.515 156.581 342.739C154.668 342.963 152.63 343.099 150.469 343.149C148.307 343.199 146.083 343.224 143.797 343.224C141.262 343.224 138.852 343.211 136.566 343.186C134.28 343.186 132.13 343.137 130.118 343.037C128.105 342.938 126.229 342.789 124.489 342.59C122.75 342.366 121.135 342.056 119.644 341.658C116.091 340.689 113.419 339.161 111.63 337.074C109.593 334.788 108.574 331.756 108.574 327.979C108.574 326.712 108.661 325.445 108.835 324.177C109.034 322.885 109.245 321.717 109.469 320.674C109.692 319.605 109.891 318.735 110.065 318.065C110.264 317.369 110.375 316.996 110.4 316.946L117.109 318.996C117.109 318.996 117.022 319.282 116.849 319.854C116.699 320.425 116.525 321.146 116.327 322.015C116.153 322.885 115.979 323.854 115.805 324.923C115.656 325.966 115.581 326.985 115.581 327.979C115.581 328.973 115.681 329.843 115.879 330.588C116.103 331.309 116.439 331.942 116.886 332.489C117.358 333.011 117.967 333.471 118.712 333.868C119.458 334.241 120.377 334.576 121.47 334.875C124.005 335.545 127.148 335.943 130.9 336.067C134.652 336.167 138.951 336.216 143.797 336.216ZM142.865 287.501L172.31 275.052L173.95 278.481L142.455 291.899L142.865 287.501ZM203.608 343H202.005C199.62 343 197.42 342.528 195.408 341.584C195.408 345.062 194.923 348.168 193.954 350.902C192.985 353.635 191.569 355.946 189.705 357.835C187.841 359.748 185.543 361.202 182.81 362.195C180.101 363.189 176.983 363.686 173.454 363.686H168.31V356.642H173.454C176.014 356.642 178.225 356.331 180.089 355.71C181.977 355.114 183.53 354.182 184.748 352.915C185.99 351.647 186.897 350.032 187.469 348.069C188.065 346.106 188.363 343.77 188.363 341.062V317.804H195.408V330.141C195.408 331.532 195.694 332.626 196.265 333.421C196.861 334.191 197.545 334.763 198.315 335.135C199.085 335.508 199.818 335.744 200.514 335.844C201.235 335.918 201.732 335.955 202.005 335.955H203.608V343ZM221.989 312.66C222.038 312.809 222.138 313.207 222.287 313.853C222.436 314.499 222.598 315.306 222.771 316.275C222.97 317.22 223.181 318.276 223.405 319.444C223.629 320.587 223.828 321.755 224.001 322.947C224.175 324.115 224.325 325.246 224.449 326.339C224.573 327.432 224.635 328.389 224.635 329.209C224.635 331.595 224.238 333.657 223.442 335.396C222.672 337.111 221.653 338.54 220.386 339.683C219.144 340.801 217.74 341.633 216.174 342.18C214.609 342.727 213.031 343 211.441 343H201.936V335.955H211.441C211.813 335.955 212.335 335.906 213.006 335.806C213.702 335.682 214.385 335.396 215.056 334.949C215.752 334.502 216.348 333.831 216.845 332.936C217.367 332.042 217.628 330.799 217.628 329.209C217.628 328.662 217.578 327.979 217.479 327.159C217.404 326.314 217.292 325.42 217.143 324.475C217.019 323.506 216.87 322.525 216.696 321.531C216.522 320.512 216.348 319.555 216.174 318.661C216 317.766 215.839 316.971 215.69 316.275C215.541 315.58 215.416 315.058 215.317 314.71L221.989 312.66ZM208.906 356.53L215.242 350.119L221.728 356.605L215.317 363.015L208.906 356.53Z" fill="#3C70C0"/>
</svg>
