<svg xmlns="http://www.w3.org/2000/svg" version="1.1" xmlns:xlink="http://www.w3.org/1999/xlink" width="512" height="512" x="0" y="0" viewBox="0 0 510 510" style="enable-background:new 0 0 512 512" xml:space="preserve" fill-rule="evenodd" class=""><g><path fill="#81c298" d="M292.634 217.339h28.57a67.195 67.195 0 0 1 67.196 67.195v97.079H121.6v-97.079a67.197 67.197 0 0 1 67.196-67.195h28.414L255 253.646z" opacity="1" data-original="#66d4f1" class=""></path><circle cx="255" cy="112.552" r="66.94" fill="#efc7a4" opacity="1" data-original="#efc7a4" class=""></circle><path fill="#c6ea94" d="M135 359.061v103.005H15v-94.608z" opacity="1" data-original="#c6ea94" class=""></path><path fill="#afe269" d="M255 350.664v111.402H135V359.061z" opacity="1" data-original="#afe269"></path><path fill="#9acd68" d="M375 342.268v119.798H255V350.664z" opacity="1" data-original="#9acd68"></path><path fill="#89c053" d="M495 333.871v128.195H375V342.268z" opacity="1" data-original="#89c053"></path><g fill="#fdcd56"><path d="m75 381.526 7.633 23.493h24.703l-19.985 14.52 7.634 23.494L75 428.513l-19.985 14.52 7.634-23.494-19.985-14.52h24.703zM195 373.462l8.532 26.258h27.608l-22.336 16.228 8.532 26.257L195 425.977l-22.336 16.228 8.532-26.257-22.336-16.228h27.608zM315 367.483l9.205 28.33h29.788l-24.099 17.509 9.205 28.33L315 424.143l-24.099 17.509 9.205-28.33-24.099-17.509h29.788zM435 362.172l9.654 29.712h31.241l-25.274 18.363 9.654 29.712L435 421.596l-25.275 18.363 9.654-29.712-25.274-18.363h31.241z" fill="#fdcd56" opacity="1" data-original="#fdcd56" class=""></path></g><path d="m395.4 334.984 99.111-6.935a6.999 6.999 0 0 1 7.489 6.983v128.195a7 7 0 0 1-7 7H15a7 7 0 0 1-7-7v-94.609a7 7 0 0 1 6.511-6.983l100.089-7.003v-68.938a74.196 74.196 0 0 1 74.196-74.195h28.414a7 7 0 0 1 4.849 1.952l32.931 31.638 32.784-31.628a7.002 7.002 0 0 1 4.86-1.962h28.57a74.195 74.195 0 0 1 74.196 74.195zM128 367.728l-106 7.418v81.081h106zm14 88.499h106v-96.895l-106 7.417zm120 0h106V350.935l-106 7.417zm120 0h106V342.538l-106 7.418zm-54.024-116.525 53.424-3.739v-50.269a60.195 60.195 0 0 0-60.196-60.195H295.46l-35.6 34.345a7 7 0 0 1-9.71.01l-35.758-34.355h-25.596a60.196 60.196 0 0 0-60.196 60.195v67.958l53.424-3.738v-49.278c0-3.863 3.137-7 7-7 3.864 0 7 3.137 7 7v48.298l117.952-8.253v-40.045c0-3.863 3.136-7 7-7 3.863 0 7 3.137 7 7zm-6.319 26.778 7.634 23.493h24.702a7 7 0 0 1 4.115 12.663l-19.985 14.52 7.634 23.494a7 7 0 0 1-10.772 7.826L315 433.956l-19.985 14.52a7.002 7.002 0 0 1-10.772-7.826l7.634-23.494-19.985-14.52a7 7 0 0 1 4.115-12.663h24.702l7.634-23.493a7 7 0 0 1 13.314 0zM315 391.296l-2.548 7.84a6.998 6.998 0 0 1-6.657 4.837h-8.245l6.67 4.846a7 7 0 0 1 2.543 7.827l-2.547 7.841 6.67-4.846a6.997 6.997 0 0 1 8.228 0l6.67 4.846-2.547-7.841a7 7 0 0 1 2.543-7.827l6.67-4.846h-8.245a6.998 6.998 0 0 1-6.657-4.837zm126.657-30.127 8.083 24.875h26.155a7 7 0 0 1 4.115 12.664l-21.16 15.373 8.082 24.876a7 7 0 0 1-10.772 7.826L435 431.409l-21.16 15.374a6.998 6.998 0 0 1-10.772-7.826l8.082-24.876-21.16-15.373a7.002 7.002 0 0 1 4.115-12.664h26.155l8.083-24.875a7 7 0 0 1 13.314 0zM435 385.985l-2.997 9.223a7 7 0 0 1-6.657 4.836h-9.698l7.846 5.7a7.002 7.002 0 0 1 2.543 7.827l-2.997 9.223 7.846-5.7a6.997 6.997 0 0 1 8.228 0l7.846 5.7-2.997-9.223a7.002 7.002 0 0 1 2.543-7.827l7.846-5.7h-9.698a7 7 0 0 1-6.657-4.836zm-353.343-5.462 6.062 18.657h19.617a7 7 0 0 1 4.114 12.663l-15.87 11.53 6.062 18.657a6.999 6.999 0 0 1-10.772 7.826L75 438.326l-15.87 11.53a6.998 6.998 0 0 1-10.772-7.826l6.062-18.657-15.87-11.53a7 7 0 0 1 4.114-12.663h19.617l6.062-18.657a7 7 0 0 1 13.314 0zM75 405.339l-.976 3.004a7 7 0 0 1-6.657 4.837h-3.159l2.555 1.856a7 7 0 0 1 2.543 7.827l-.976 3.004 2.556-1.857a7 7 0 0 1 8.228 0l2.556 1.857-.976-3.004a7 7 0 0 1 2.543-7.827l2.555-1.856h-3.159a7 7 0 0 1-6.657-4.837zm126.657-32.879 6.96 21.42h22.523a7.001 7.001 0 0 1 4.115 12.663l-18.222 13.239 6.96 21.42a7 7 0 0 1-10.772 7.827L195 435.79l-18.221 13.239a7.002 7.002 0 0 1-10.772-7.827l6.96-21.42-18.222-13.239a7 7 0 0 1 4.115-12.663h22.523l6.96-21.42a7 7 0 0 1 13.314 0zM195 397.275l-1.874 5.768a7 7 0 0 1-6.658 4.837h-6.064l4.906 3.565a7 7 0 0 1 2.543 7.826l-1.874 5.768 4.907-3.565a7 7 0 0 1 8.228 0l4.907 3.565-1.874-5.768a7 7 0 0 1 2.543-7.826l4.906-3.565h-6.064a7 7 0 0 1-6.658-4.837zm60-357.502c40.808 0 73.94 33.132 73.94 73.94s-33.132 73.939-73.94 73.939-73.94-33.131-73.94-73.939 33.132-73.94 73.94-73.94zm0 14c-33.082 0-59.94 26.858-59.94 59.94 0 33.081 26.858 59.939 59.94 59.939s59.94-26.858 59.94-59.939c0-33.082-26.858-59.94-59.94-59.94z" fill="#000000" opacity="1" data-original="#000000" class=""></path></g></svg>