<svg xmlns="http://www.w3.org/2000/svg" version="1.1" xmlns:xlink="http://www.w3.org/1999/xlink" width="512" height="512" x="0" y="0" viewBox="0 0 128 128" style="enable-background:new 0 0 512 512" xml:space="preserve" class=""><g><circle cx="64" cy="64" r="52.304" fill="#f9faff" opacity="1" data-original="#696eaf"></circle><path fill="#ecebfd" d="m67.87 34.22-1.8-1.45a3.336 3.336 0 0 0-4.14 0l-1.8 1.45a5.193 5.193 0 0 0-1.95 4.05v40.77a6.1 6.1 0 0 0 .48 2.38l.33 1.18 2.77 10.03.63 2.26a1.747 1.747 0 0 0 3.22-.01l.62-2.25 2.78-10.03.33-1.18a6.282 6.282 0 0 0 .48-2.38V38.27a5.162 5.162 0 0 0-1.95-4.05z" opacity="1" data-original="#ecebfd" class=""></path><g fill="#d1d1fd"><path d="M83.461 60.867c1.017.923.092.086-13.641-12.357v20.33l20.2 3.76a2.379 2.379 0 0 0 1.84-4.12zM37.99 72.61l12.66-2.36 7.53-2.076V48.51L36.14 68.49a2.381 2.381 0 0 0 1.85 4.12zM48.359 93.338a1.2 1.2 0 0 0 1.116 2.022l12.289-2.727L58.987 82.6zM69.007 82.6 66.23 92.633l12.289 2.727a1.2 1.2 0 0 0 1.116-2.022z" fill="#9b9bd5" opacity="1" data-original="#d1d1fd" class=""></path></g><path fill="#ff7a8c" d="M64 6.964A57.036 57.036 0 1 0 121.036 64 57.036 57.036 0 0 0 64 6.964zM30.43 30.44a47.486 47.486 0 0 1 63.4-3.37L71.17 49.73 58.18 62.72l-7.53 7.53-23.58 23.58a47.483 47.483 0 0 1 3.36-63.39zm67.14 67.12a47.486 47.486 0 0 1-63.4 3.37l66.76-66.76a47.483 47.483 0 0 1-3.36 63.39z" opacity="1" data-original="#ff7a8c"></path><g fill="#070c1c"><path d="M64 5.21a58.655 58.655 0 0 0-39.25 15.028 1.75 1.75 0 0 0 2.339 2.6A55.144 55.144 0 1 1 13.74 40.932a1.75 1.75 0 1 0-3.18-1.463A58.8 58.8 0 1 0 64 5.21z" fill="#070c1c" opacity="1" data-original="#070c1c"></path><path d="M16.64 33.945a1.749 1.749 0 0 0 1.484-.825 53.547 53.547 0 0 1 2.843-3.825 1.75 1.75 0 0 0-2.715-2.209 56.082 56.082 0 0 0-3.064 4.127 1.753 1.753 0 0 0-.3.977v.01a1.746 1.746 0 0 0 1.752 1.745zM26.978 95.578h.092a1.749 1.749 0 0 0 1.237-.513l37.68-37.68 5.071-5.07 1.349-1.349 22.66-22.658a1.75 1.75 0 0 0-.135-2.6 49.224 49.224 0 0 0-69.223 69.224 1.758 1.758 0 0 0 1.269.646zM68.07 48.51v1.845l-3.37 3.372-4.77 4.773V38.27a3.459 3.459 0 0 1 1.3-2.687l1.784-1.437a1.6 1.6 0 0 1 1-.347 1.549 1.549 0 0 1 .965.333l1.813 1.461a3.431 3.431 0 0 1 1.278 2.677zM56.43 62l-6.63 6.629-12.03 2.243a.657.657 0 0 1-.59-.379.577.577 0 0 1 .139-.706L56.43 52.458zM31.667 31.677a45.592 45.592 0 0 1 59.522-4.441L71.57 46.855V38.27a6.862 6.862 0 0 0-2.6-5.413L67.157 31.4a5.083 5.083 0 0 0-6.324.009l-1.794 1.446a6.982 6.982 0 0 0-2.609 5.415v9.464L34.958 67.2a4.131 4.131 0 0 0 2.781 7.172c.138 0 .279-.006.419-.019.051 0 .1-.013.153-.022l7.109-1.325-18.184 18.183a45.589 45.589 0 0 1 4.431-59.512zM101.37 93.334a1.748 1.748 0 0 0 2.444-.384 49.216 49.216 0 0 0-1.524-59.882 1.75 1.75 0 0 0-2.6-.135L32.933 99.692a1.749 1.749 0 0 0 .136 2.6 49.131 49.131 0 0 0 53.855 5.27 48.5 48.5 0 0 0 6.5-4.105 47.054 47.054 0 0 0 4.1-3.428 1.75 1.75 0 0 0-2.392-2.554 43.411 43.411 0 0 1-3.8 3.176 44.633 44.633 0 0 1-6.035 3.812 45.625 45.625 0 0 1-48.484-3.7l19.851-19.852A7.781 7.781 0 0 0 57 81.994l.027.1-9.912 10.012a2.957 2.957 0 0 0 2.085 5.035 2.976 2.976 0 0 0 .652-.073l10.67-2.368.183.658a1.78 1.78 0 0 0 .069.2 3.473 3.473 0 0 0 3.212 2.142h.007a3.5 3.5 0 0 0 3.231-2.146 2.065 2.065 0 0 0 .074-.213l.178-.643 10.664 2.371a3.029 3.029 0 0 0 .652.072 2.957 2.957 0 0 0 2.088-5.035l-9.911-10.012.03-.108a8.043 8.043 0 0 0 .571-2.946v-8.094L89.7 74.32q.072.013.144.021c.147.014.293.022.437.022a4.129 4.129 0 0 0 2.755-7.179L81.18 56.448l-.028-.025 19.612-19.611a45.717 45.717 0 0 1 .222 54.078 1.749 1.749 0 0 0 .384 2.444zm-50.461-.084 7.2-7.271 1.479 5.344zm10.459-8.609-.694-2.507-.328-1.183a1.9 1.9 0 0 0-.075-.216 4.318 4.318 0 0 1-.34-1.692v-1.4l3.369-3.37 4.768-4.768v9.535a4.52 4.52 0 0 1-.347 1.71 2.018 2.018 0 0 0-.069.2l-.316 1.15c0 .014-.012.024-.016.038l-2.776 10.028v.021L64 94.143zm15.718 8.609-8.674-1.926 1.48-5.341zm13.588-23.483a.6.6 0 0 1 .148.729.589.589 0 0 1-.573.366L71.57 67.386v-1.381l7.105-7.1z" fill="#070c1c" opacity="1" data-original="#070c1c"></path></g></g></svg>