<svg xmlns="http://www.w3.org/2000/svg" width="1024" height="1024" viewBox="0 0 1024 1024"><path fill="#4f3586" d="M536.918 274.498c-3.232-63.946 4.896-56.81 54.828-77.893l83-34.42c12.826-5.337 47.32-21.435 60.246-22.98 9.686-.632 41.098 14.516 51.706 18.999l104.096 43.146c19.718 8.316 41.278 12.516 41.12 38.716-.19 31.376 1.694 66.652-1.078 97.184-5.962 66.218-36.12 131.168-83.062 178.284-15.144 15.178-27.94 24.21-44.248 37.63 22.684 23.966 24.656 49.546 24.68 81.132l.002 82.06c-.026 35.696-2.714 56.44-37.672 71.668 1.112 28.89 3.486 52.918-17.55 75.68-21.06 23.658-48.632 14.068-75.77 15.996-20.934 1.49-34.336-1.082-50.128-16.45-20.284-19.738-16.664-45.544-16.606-71.264-7.656-.558-24.378-.01-32.772-.008l-279.92.008.022 22.344c0 17.18-.19 23.934-9.232 39.138-16.754 23.9-35.782 26.684-63.848 26.178-32.5.262-65.629 1.728-80.453-35.626-6.334-15.96-5.275-37.104-4.767-54.264-37.033-12.964-40.015-39.28-40.041-72.244l-.01-74.518c.028-65.018 12.305-69.336 47.07-123.744-11.941.38-31.908.874-42.878-1.148-35.121-6.476-45.668-55.376-14.876-74.686 14.967-9.388 28.762-5.342 44.887-6.082 28.337-1.3 30.19.37 44.03 22.666 2.644-12.038 9.088-23.504 14.42-34.878l18.208-38.896c23.284-49.558 38.244-94.714 100.16-109.088 13.906-3.23 27.582-2.668 41.896-2.652zM305.67 365.134c-20.682 37.386-39.192 87.824-57.23 127.686h355.252c-29.528-34.87-51.962-82.784-60.572-127.686-1.88-10.15-3.378-19.12-4.658-29.37l-167.278-.032c-27.662-.026-51.938-1.1-65.514 29.402m-26.694 203.672c-16.668-13.492-44.354-38.568-47.806-60.232H191.5c-2.662 7.606-7.692 14.464-12.578 20.83-27.476 35.798-43.732 61.34-43.532 106.516l.035 76.424c-.06 53.278 8.839 64.058 59.27 63.782 41.971.624 85.487-.006 127.593-.01l430.158.056c49.692.032 59.838-10.898 59.824-60.85l.006-75.634c.112-33.404 1.54-50.954-21.74-78.008-21.926 10.53-42.938 31.142-68.994 21.156-14.912-5.714-26.92-12.954-40.5-21.156-5.9 5.218-12.686 9.562-19.37 13.674-100.582 61.884-285.462 62.606-382.696-6.548m456.016-414.342c-58.446 23.038-116.436 48.246-174.588 72.032-13.806 5.648-7.986 73.762-7.77 88.318 2.762 89.348 49.156 173.06 122.764 223.578 14.434 9.908 42.128 30.166 59.594 31.614 10.186-.194 20.134-6.24 28.882-11.088 82.01-45.45 139.504-121.102 150.784-216.024 1.624-13.67 5.468-108.194-1.58-114.316-5.554-4.826-50.306-21.746-60.07-25.856l-85.894-36.016c-5.166-2.137-27.972-12.838-32.122-12.242m-379.94 135.624c-53.318 2.962-74.326 28.86-95.864 71.414-21.772 43.014-39.994 88.266-61.494 131.318h33.476c9.15-19.428 35.924-88.538 46.574-102.446 2.086-6.962 5.22-12.792 7.848-19.386 17.724-44.442 39.416-50.918 83.484-50.896l167.842.032v-30.036zM133.02 452.664c-37.87 2.072-31.565 46.48-5.616 50.46 8.643 1.326 22.908.32 32.108.378h18.136c2.613-6.396 5.35-12.46 8.201-18.754-10.217-39.772-7.698-33.104-52.829-32.084m167.226 55.91H248.44c8.356 30.594 56.618 61.354 85.176 72.18 84.91 32.192 177.45 32.098 263.906 6.874 30.134-10.47 44.07-19.918 70.436-34.464-17.074-15.42-33.874-27.562-50.91-44.59zM743.26 791.986h-97.298l-.02 20.446c.022 24.798 6.724 46.108 35.1 52.05l32.594.046c40.992.132 60.942-6.308 60.972-51.514l-.024-21.028zm-567.731 0c-.087 55.558 4.332 76.198 71.057 72.496 21.98-1.218 25.312.596 44.178-12.904 14.622-21.736 11.348-35.528 11.272-59.592z"/><path fill="#dac9ff" d="M734.992 570.006c-17.466-1.448-45.16-21.706-59.594-31.614-73.608-50.518-120.002-134.23-122.764-223.578-.216-14.556-6.036-82.67 7.77-88.318 58.152-23.786 116.142-48.994 174.588-72.032 4.15-.596 26.956 10.105 32.122 12.242l85.894 36.016c9.764 4.11 54.516 21.03 60.07 25.856 7.048 6.122 3.204 100.646 1.58 114.316-11.28 94.922-68.774 170.574-150.784 216.024-8.748 4.848-18.696 10.894-28.882 11.088m0-376.518c-10.63 2.989-21.588 7.936-31.844 12.19l-39.278 16.244c-14.464 6.108-65.446 25.658-73.23 32.712-3.154 2.858-1.5 69.5-1.092 75.686 6.19 72.874 45.346 137.628 105.608 179.264 10.47 7.232 28.168 19.008 40.662 21.404 8.106-1.118 18.062-7.406 25.05-11.756 64.91-40.404 111.134-107.598 117.674-184.616 1.59-23.898.784-48.114.802-72.056.01-13.256-25.022-19.288-35.6-23.686l-75.536-31.252c-3.24-1.378-31.702-14.042-33.216-14.134"/><path fill="#4f3586" d="M735.818 530.988c-12.494-2.396-30.192-14.172-40.662-21.404-60.262-41.636-99.418-106.39-105.608-179.264-.408-6.186-2.062-72.828 1.092-75.686 7.784-7.054 58.766-26.604 73.23-32.712l39.278-16.244c10.256-4.254 21.214-9.201 31.844-12.19 1.514.092 29.976 12.756 33.216 14.134l75.536 31.252c10.578 4.398 35.61 10.43 35.6 23.686-.018 23.942.788 48.158-.802 72.056-6.54 77.018-52.764 144.212-117.674 184.616-6.988 4.35-16.944 10.638-25.05 11.756m-2.47-320.958-86.846 36.092c-11.646 4.94-31.192 12.63-41.64 18.306l-.01 39.468c-.002 10.636-.196 21.272.818 31.844 7.792 81.38 60.032 141.718 129.322 179.582 55.074-27.302 97.53-73.908 117.842-132.344 13.6-39.13 11.27-77.7 11.236-118.55l-115.29-48.01c-4.524-1.874-10.952-4.804-15.432-6.388"/><path fill="#dac9ff" d="M604.862 264.428c10.448-5.676 29.994-13.366 41.64-18.306l86.846-36.092c4.48 1.584 10.908 4.514 15.432 6.388l115.29 48.01c.034 40.85 2.364 79.42-11.236 118.55-20.312 58.436-62.768 105.042-117.842 132.344-69.29-37.864-121.53-98.202-129.322-179.582-1.014-10.572-.82-21.208-.818-31.844zm201.64 25.66c-5.312 1.724-15.52 13.514-19.76 17.838l-22.31 22.376c-18.256 18.338-38.438 37.688-56.042 56.51-11.658-11.78-25.696-23.28-38.218-34.246-4.66-4.082-24.836.282-2.214 17.246 3.326 4.88 34.518 33.314 41.404 35.29 2.46.706 14.196-11.838 17.252-14.902l77.108-77.254c5.442-5.414 22.008-20.22 2.78-22.858"/><path fill="#bca7e4" d="M197.694 492.82c21.5-43.052 39.722-88.304 61.494-131.318 21.538-42.554 42.546-68.452 95.864-71.414h181.866v30.036l-167.842-.032c-44.068-.022-65.76 6.454-83.484 50.896-2.628 6.594-5.762 12.424-7.848 19.386-10.65 13.908-37.424 83.018-46.574 102.446z"/><path fill="#4f3586" d="M708.39 386.812c17.604-18.822 37.786-38.172 56.042-56.51l22.31-22.376c4.24-4.324 14.448-16.114 19.76-17.838 19.228 2.638 2.662 17.444-2.78 22.858L726.614 390.2c-3.056 3.064-14.792 15.608-17.252 14.902-6.886-1.976-38.078-30.41-41.404-35.29-22.622-16.964-2.446-21.328 2.214-17.246 12.522 10.966 26.56 22.466 38.218 34.246"/><path fill="#fff" d="M248.44 492.82c18.038-39.862 36.548-90.3 57.23-127.686 17.256-4.538 45.198-1.556 63.742-1.406l155.668-.172c3.976.03 14.14.84 18.04 1.578 8.61 44.902 31.044 92.816 60.572 127.686z"/><path fill="#fff" d="M159.512 503.502c-9.2-.058-23.465.948-32.108-.378-25.949-3.98-32.255-48.388 5.616-50.46 45.131-1.02 42.612-7.688 52.83 32.084-2.853 6.294-5.59 12.358-8.202 18.754z"/><path fill="#dac9ff" d="M231.17 508.574c3.452 21.664 31.138 46.74 47.806 60.232-13.654 8.192-115.595-11.318-127.575 46.076-1.043 4.996-2.042 9.854-.286 14.834-11.89 19.092 10.706 64.704 28.663 76.554-.794 23.438-2.124 52.316 14.918 69.856-50.432.276-59.331-10.504-59.27-63.782l-.036-76.424c-.2-45.176 16.056-70.718 43.532-106.516 4.886-6.366 9.916-13.224 12.577-20.83z"/><path fill="#bca7e4" d="M248.44 508.574h368.608c17.036 17.028 33.836 29.17 50.91 44.59-26.366 14.546-40.302 23.994-70.436 34.464-86.456 25.224-178.996 25.318-263.906-6.874-28.558-10.826-76.82-41.586-85.176-72.18"/><path fill="#bca7e4" d="M278.976 568.806c97.234 69.154 282.114 68.432 382.696 6.548 6.684-4.112 13.47-8.456 19.37-13.674 13.58 8.202 25.588 15.442 40.5 21.156 26.056 9.986 47.068-10.626 68.994-21.156 23.28 27.054 21.852 44.604 21.74 78.008l-.006 75.634c.014 49.952-10.132 60.882-59.824 60.85l-430.158-.056c-42.106.004-85.622.634-127.592.01-17.042-17.54-15.712-46.418-14.918-69.856 15.002 9.484 27.186 7.742 44.338 7.73l40.154-.012c31.058.126 54.258-38.674 37.846-53.042-5.596-4.804-12.734-8.004-19.18-11.596-59.626-33.01-54.586-26.21-116.357-29.018-6.474-.294-11.508 4.908-15.464 9.384-1.756-4.98-.757-9.838.286-14.834 11.98-57.394 113.921-37.884 127.575-46.076m471.756 50.478c-27.226 3.596-111.21 23.874-104.308 63.358 6.1 34.896 23.138 33.078 50.2 32.896l32.348.046c7.804.01 24.036.802 30.764-1.562 40.766-14.596 53.026-87.866 23.804-93.954-8.722-1.816-23.54-.566-32.808-.784m-359.816 23.184c-40.148 6.136-24.726 38.152-19.27 60.294 13.018 39.602 9.858 37.186 49.374 37.198l99.942-.016c8.702-.008 26.012.716 33.89-1.646 18.106-8.912 32.884-66.602 25.956-81.112-9.954-20.846-44.644-14.732-64.482-14.736H413.04c-6.574 0-15.73-.284-22.124.018"/><path fill="#4f3586" d="M696.624 715.538c-27.062.182-44.1 2-50.2-32.896-6.902-39.484 77.082-59.762 104.308-63.358 9.268.218 24.086-1.032 32.808.784 29.222 6.088 16.962 79.358-23.804 93.954-6.728 2.364-22.96 1.572-30.764 1.562zm59.988-80.594c-29.844 3.054-54.65 8.694-79.48 26.436-9.368 6.694-20.17 11.096-13.664 23.572 9.034 17.328 3.658 14.884 27.232 14.79l38.784.038c4.838.002 21.248.522 25.126-.886 19.484-7.07 29.7-33.172 29.244-52.522-.382-16.226-13.354-11.634-27.242-11.428"/><path fill="#4f3586" d="M151.115 629.716c3.956-4.476 8.99-9.678 15.464-9.384 61.771 2.808 56.731-3.992 116.357 29.018 6.446 3.592 13.584 6.792 19.18 11.596 16.412 14.368-6.788 53.168-37.846 53.042l-40.154.012c-17.152.012-29.336 1.754-44.338-7.73-17.957-11.85-40.552-57.462-28.663-76.554m22.607 6.94h-8.675c-.354 32.95 11.683 61.668 47.947 61.626l33.142-.076c10.568.062 22.422 1.788 31.608-3.822 8.404-6.682 10.392-10.926 13.02-21.154-5.402-5.138-32.176-19.924-41.068-24.476-28.368-14.524-45.886-12.146-75.974-12.098"/><path fill="#4f3586" d="M554.852 738.298c-7.878 2.362-25.188 1.638-33.89 1.646l-99.942.016c-39.516-.012-36.356 2.404-49.374-37.198-5.456-22.142-20.878-54.158 19.27-60.294 6.394-.302 15.55-.018 22.124-.018h103.286c19.838.004 54.528-6.11 64.482 14.736 6.928 14.51-7.85 72.2-25.956 81.112m-163.936-80.41c-7.214 2.52-10.812 5.18-12.4 13.182 3.344 10.642 11.36 47.392 19.502 53.266l128.898.04c7.542.08 22.79 3.03 25.554-4.546 5.86-12.424 8.766-26.672 13.458-39.536 3.916-10.736 4.332-22.03-10.416-22.292-19.494-.344-39.064-.104-58.58-.104z"/><path fill="#fff" d="M378.516 671.07c1.588-8.002 5.186-10.662 12.4-13.182l106.016.01c19.516 0 39.086-.24 58.58.104 14.748.262 14.332 11.556 10.416 22.292-4.692 12.864-7.598 27.112-13.458 39.536-2.764 7.576-18.012 4.626-25.554 4.546l-128.898-.04c-8.142-5.874-16.158-42.624-19.502-53.266"/><path fill="#bca7e4" d="M645.962 791.986h128.622l.024 21.028c-.03 45.206-19.98 51.646-60.972 51.514l-32.594-.046c-28.376-5.942-35.078-27.252-35.1-52.05z"/><path fill="#bca7e4" d="M290.764 851.578c-18.866 13.5-22.198 11.686-44.178 12.904-66.725 3.702-71.144-16.938-71.057-72.496h126.507c.076 24.064 3.35 37.856-11.272 59.592"/></svg>