<svg width="1024" height="1024" viewBox="0 0 1024 1024" fill="none" xmlns="http://www.w3.org/2000/svg">
<path d="M427.855 141.601C450.314 129.075 454.161 130.63 479.509 130.768L515.392 130.791C553.833 130.751 592.276 130.545 630.718 130.42C637.038 130.399 639.845 130.407 643.433 136.075C644.843 162.177 643.885 170.798 633.815 195.042C656.719 214.977 654.579 228.512 654.581 256.487L654.56 297.614C667.165 315.976 659.6 345.4 641.381 356.857C633.408 361.871 627.884 363.49 618.653 364.343C611.192 395.775 596.622 419.378 568.891 437.145C569.398 452.899 570.984 463.382 581.385 475.903C637.748 479.742 680.994 499.44 718.948 542.5C739.354 565.652 753.872 597.19 759.134 627.558C761.151 639.198 761.68 656.026 762.396 668.109C763.507 686.561 764.474 705.023 765.299 723.49L767.402 769.48C767.781 778.328 768.605 790.175 767.968 798.798C766.803 816.791 758.504 833.574 744.912 845.422C724.834 862.729 706.928 862.063 682.339 862.055L642.278 861.987L516.132 861.684L380.378 861.638L340.519 861.728C332.193 861.753 322.232 862.111 313.945 861.334C283.859 858.513 256.882 831.953 253.117 802.016C251.453 788.781 253.188 772.748 254.225 759.36L259.021 700.679C260.451 681.641 260.285 662.174 261.947 643.21C266.666 594.822 290.261 550.242 327.618 519.128C358.141 493.627 398.519 476.645 438.344 474.383C451.428 462.43 452.096 453.909 452.931 436.876C426.776 417.886 410.945 396.639 404.739 364.271C375.093 360.284 354.618 332.714 366.505 302.745C369.871 294.259 368.633 287.579 368.795 278.638C369.457 258.305 367.052 236.928 370.702 216.828C371.586 215.178 373.318 208.886 374.766 206.061C383.185 189.636 390.77 184.414 405.77 175.922C409.95 159.478 415.104 152.581 427.855 141.601Z" fill="#6443A6"/>
<path d="M271.427 746.014C271.522 739.133 272.529 730.491 273.151 723.53C274.144 713.125 274.903 702.698 275.427 692.259C276.322 675.831 276.304 657.18 278.106 641.259C282.17 606.462 297.065 573.821 320.687 547.948C343.826 522.019 374.214 503.631 407.919 495.163C417.295 492.739 426.153 490.855 435.883 490.37C442.652 494.864 454.936 505.377 461.632 510.783C470.798 517.329 479.754 524.413 488.502 531.505C493.028 535.174 497.529 539.433 502.371 542.628C503.841 543.598 506.358 545.262 508.193 545.054C513.734 544.427 554.821 509.808 561.638 504.052C549.486 524.642 533.354 547.771 520.188 568.012C496.607 604.296 473.426 640.838 450.649 677.631C443.437 689.314 434.887 702.36 428.006 714.078C404.448 714.059 390.042 713.869 366.496 716.379L366.467 631.075L366.554 604.968C366.572 600.107 366.686 595.251 366.338 590.381C366.006 586.762 362.127 584.277 358.735 584.179C356.747 584.122 354.724 584.71 353.331 586.146C350.03 589.55 350.376 595 350.497 599.355C350.787 609.896 350.651 620.422 350.639 630.955L350.463 719.214C328.106 723.361 316.253 728.001 295.588 734.857C286.788 738.499 279.849 741.578 271.427 746.014Z" fill="#D7C4F4"/>
<path d="M271.427 746.014C271.522 739.133 272.529 730.491 273.151 723.53C274.144 713.125 274.903 702.698 275.427 692.259C276.322 675.831 276.304 657.18 278.106 641.259C282.17 606.462 297.065 573.821 320.687 547.948C343.826 522.019 374.214 503.631 407.919 495.163C417.295 492.739 426.153 490.855 435.883 490.37C442.652 494.864 454.936 505.377 461.632 510.783C450.006 512.645 439.676 512.615 427.6 515.354C388.369 524.253 352.864 545.884 329.294 578.53C302.787 615.245 300.139 649.085 298.791 692.26C298.378 705.497 296.525 721.421 295.588 734.857C286.788 738.499 279.849 741.578 271.427 746.014Z" fill="#FEFEFF"/>
<path d="M641.273 505.321C663.815 514.793 684.184 528.769 701.131 546.394C722.333 568.712 738.481 599.352 743.583 629.724C745.562 641.509 745.796 655.461 746.352 667.543C747.096 683.218 747.94 698.888 748.885 714.553L751.75 764.35C752.24 772.932 753.286 785.319 753.02 793.589C752.563 808.062 746.423 821.772 735.93 831.75C719.549 847.036 704.915 846.696 684.038 846.067C692.272 838.983 697.982 833.225 703.479 823.67C712.993 807.122 715.548 787.474 710.583 769.043C705.423 750.092 691.966 733.652 674.955 724.013L674.852 709.875L674.774 631.824C674.764 618.827 675.217 602.204 674.413 589.463C674.104 589.069 673.79 588.679 673.471 588.294C668.748 582.673 660.596 583.898 659.352 591.56C658.645 595.915 658.847 601.632 658.778 606.149C658.636 616.608 658.626 627.067 658.748 637.526L658.893 717.566C645.362 713.248 611.934 714.78 596.012 714.82C575.306 714.929 554.598 714.902 533.892 714.739C554.959 673.062 576.245 631.496 597.749 590.043C611.941 562.837 627.958 532.871 641.273 505.321Z" fill="url(#paint0_linear_2_2)"/>
<path d="M438.7 240.4C440.552 240.652 447.252 244.006 449.656 244.837C457.283 247.474 465.496 249.211 473.548 249.732C483.951 250.406 494.746 250.19 505.174 250.16L554.038 249.954C560.497 249.927 576.067 249.484 582.07 250.156C588.814 250.918 594.966 254.362 599.14 259.713C606.557 269.308 604.261 291.38 604.403 303.379C604.966 350.848 608.309 386.12 567.346 418.65C544.978 434.739 523.257 440.635 495.403 436.468C471.924 432.486 450.337 418.645 436.514 399.511C421.992 379.407 418.339 358.957 419.004 334.806C419.282 324.714 418.665 314.017 419.035 303.924C420.102 274.808 412.464 258.868 438.7 240.4Z" fill="#FEFEFF"/>
<path d="M490.124 381.434C492.73 381.349 495.19 382.194 497.413 383.332C504.795 387.111 511.243 387.478 519.229 385.469C523.817 384.315 528.788 381.666 533.67 382.063C538.391 382.447 539.933 386.306 538.996 390.53C538.341 393.612 536.343 394.807 533.91 396.486C510.552 409.132 467.413 395.448 490.124 381.434Z" fill="#6443A6"/>
<path d="M548.179 279.02C555.09 278.498 582.076 282.834 586.203 289.715C588.731 293.931 585.643 297.907 581.538 299.998C573.847 300.335 562.603 294.378 553.218 294.705C543.584 295.04 537.275 286.181 548.179 279.02Z" fill="#6443A6"/>
<path d="M472.94 278.668C484.044 276.888 487.214 294.457 471.446 294.694C466.07 294.774 453.661 298.668 448.471 300.823C440.694 302.111 436.621 293.354 439.896 289.553C445.683 282.837 463.934 280.191 472.94 278.668Z" fill="#6443A6"/>
<path d="M509.15 321.054C519.961 319.54 519.864 329.786 519.694 337.673C519.546 344.491 520.809 349.797 514.496 353.941C513.632 354.008 512.766 354.052 511.9 354.075C500.483 354.277 503.889 333.84 504.033 326.133C505.847 323.43 506.464 322.892 509.15 321.054Z" fill="#6443A6"/>
<path d="M460.002 306.011C471.1 305.739 471.413 315.354 469.393 324.421C468.847 326.871 466.754 328.066 464.594 329.124C463.608 329.227 462.376 329.362 461.403 329.216C459.504 328.925 457.802 327.883 456.68 326.323C452.618 320.757 453.943 310.291 460.002 306.011Z" fill="#6443A6"/>
<path d="M559.587 306.029C570.427 305.959 568.724 317.027 568.484 324.668C566.437 327.179 565.413 327.987 562.556 329.385C552.406 328.787 552.129 319.762 554.254 311.497C555.032 308.473 556.858 307.32 559.587 306.029Z" fill="#6443A6"/>
<path d="M458.952 146.69C464.395 146.206 473.33 146.469 479.062 146.473L514.971 146.505L628.151 146.5C628.418 156.403 628.052 161.792 625.651 171.782C623.531 180.599 615.428 191.125 614.307 198.984C613.796 202.561 625.326 207.775 629.101 211.663C640.726 223.636 638.555 237.505 638.499 253.011C638.442 262.088 638.476 271.165 638.603 280.241C631.738 276.784 628.058 275.119 620.475 274.174C620.194 273.484 619.762 269.358 619.618 268.35C617.404 252.938 606.387 240.243 591.441 235.879C583.977 233.708 570.883 234.334 562.66 234.325L505.813 234.319C495.601 234.345 485.316 234.752 475.127 234.264C449.614 233.044 425.145 216.838 421.809 190.185C420.489 180.256 423.265 170.218 429.499 162.378C437.081 152.833 447.038 148.123 458.952 146.69Z" fill="#FEFEFF"/>
<path d="M588.237 492.456C602.315 493.457 612.67 494.651 626.334 499.319C590.202 571.155 552.306 642.101 516.457 714.251C506.055 714.103 495.653 714.04 485.25 714.06L446.802 714.015C454.556 700.607 464.316 685.978 472.619 672.668C500.04 629.255 527.813 586.065 555.934 543.102C566.881 526.09 577.675 509.75 588.237 492.456Z" fill="#FEFEFF"/>
<path d="M489.006 730.514L580.339 730.469C579.888 743.259 580.398 758.327 580.401 771.339C580.237 795.952 580.215 820.565 580.334 845.178L560.875 845.03L469.226 845.246C475.372 816.712 479.335 787.117 484.479 758.354C486.122 749.169 487.843 739.759 489.006 730.514Z" fill="#FEFEFF"/>
<path d="M615.293 730.238C643.967 729.978 668.718 729.778 686.796 756.372C695.209 768.765 698.345 783.996 695.512 798.705C692.213 815.054 683.085 826.989 669.433 836.135C652.523 845.976 643.27 845.138 624.496 845.178L596.514 845.242C596.298 806.991 596.282 768.739 596.467 730.488L615.293 730.238Z" fill="#FEFEFF"/>
<path d="M400.89 730.54C424.826 730.404 448.763 730.425 472.699 730.602C470.608 740.759 469.033 751.877 467.225 762.166L452.915 845.025L437.75 844.94C413.773 844.791 389.795 844.82 365.819 845.029C372.904 818.893 381.701 793.389 389.611 767.527C393.081 756.183 398.257 741.832 400.89 730.54Z" fill="#FEFEFF"/>
<path d="M379.476 731.706C380.763 731.531 381.462 731.249 382.567 731.835C383.094 733.877 374.051 761.319 372.583 766.002L347.99 845.016C323.014 844.928 306.245 848.043 286.315 831.263C284.875 830.137 282.441 827.497 281.204 826.048C265.771 807.99 268.448 786.965 270.086 764.99C307.309 745.43 337.514 736.661 379.476 731.706Z" fill="#FEFEFF"/>
<path d="M552.332 444.987C554.055 445.41 553.873 448.435 554.027 450.607C554.81 461.679 559.458 471.867 565.865 480.881C546.918 495.097 526.653 511.362 508.15 526.287C499.464 519.847 489.797 511.837 481.157 505.077C471.95 497.914 462.271 490.444 453.456 482.858C463.621 472.739 467.163 458.736 468.838 445.02C470.072 445.623 471.332 446.169 472.615 446.656C496.867 455.858 528.599 455.767 552.332 444.987Z" fill="#FEFEFF"/>
<path d="M406.31 193.36C407.15 196.303 407.717 199.924 408.626 203.08C411.915 214.506 417.537 221.967 425.814 230.15C423.788 231.708 421.841 233.366 419.979 235.116C407.435 246.725 403.64 258.184 402.99 274.819L398.64 275.832C392.926 277.529 389.988 278.657 384.831 281.593C384.493 271.39 384.981 260.484 384.546 250.403C383.484 225.822 385.375 209.319 406.31 193.36Z" fill="#FEFEFF"/>
<path d="M620.304 290.17C643.324 293.387 651.767 322.518 636.478 340.044C631.767 344.454 626.299 346.826 620.011 347.881L619.907 309.2C619.898 305.564 619.595 293.088 620.304 290.17Z" fill="#FEFEFF"/>
<path d="M402.526 290.522C402.586 290.558 402.662 290.577 402.706 290.632C404.361 292.702 403.48 341.277 403.482 347.953C396.835 346.189 393.732 344.908 388.359 340.399C385.209 337.458 382.561 333.332 381.112 329.295C378.435 321.738 378.935 313.418 382.499 306.237C386.718 297.727 393.862 293.384 402.526 290.522Z" fill="#FEFEFF"/>
<path d="M199.31 391.872C200.097 390.022 201.496 388.327 203.561 388C202.32 389.842 201.443 391.407 199.31 391.872Z" fill="#D7C4F4"/>
<path d="M81.5126 467.303C82.8425 468.099 83.0045 468.236 84.1642 469.274C83.7806 473.22 82.4107 476.764 79.7136 479.727L79.4492 479.266L78.9263 479.633C76.3359 479.913 76.3959 479.958 74.6091 478.714C73.8216 477.158 73.5803 475.718 74.303 474.133C76.3691 469.603 77.078 468.402 81.5126 467.303Z" fill="#D7C4F4"/>
<path d="M518.502 58.684L519.477 59.2945C519.944 61.2481 519.527 62.1423 518.897 63.9924L517.922 62.5913C517.567 60.709 517.805 60.4352 518.502 58.684Z" fill="#D7C4F4"/>
<defs>
<linearGradient id="paint0_linear_2_2" x1="785.782" y1="766.721" x2="569.828" y2="598.519" gradientUnits="userSpaceOnUse">
<stop stop-color="#A48FDB"/>
<stop offset="1" stop-color="#D7C4F4"/>
</linearGradient>
</defs>
</svg>
