<svg width="512" height="512" viewBox="0 0 512 512" fill="none" xmlns="http://www.w3.org/2000/svg">
<path d="M70.1 416.7C70.1 426.2 80.7 433.8 83.2 442.4C85.9 451.3 81.5 464.2 86.5 471.6C91.5 479.1 104.1 478.5 111 484C117.8 489.4 121.2 502.6 129.4 505.5C137.3 508.3 147.2 499.8 156 499.8C164.8 499.8 174.7 508.2 182.6 505.5C190.8 502.6 194.2 489.4 201 484C207.9 478.6 220.5 479.1 225.5 471.6C230.5 464.2 226.1 451.3 228.8 442.4C231.4 433.8 241.9 426.2 241.9 416.7C241.9 407.2 231.3 399.6 228.8 391C226.1 382.1 230.5 369.2 225.5 361.8C220.5 354.3 207.9 354.9 201 349.4C194.2 344 190.8 330.8 182.6 327.9C174.7 325.1 164.8 333.6 156 333.6C147.2 333.6 137.3 325.2 129.4 327.9C121.2 330.8 117.8 344 111 349.4C104.1 354.8 91.5 354.3 86.5 361.8C81.5 369.2 85.9 382.1 83.2 391C80.6 399.6 70.1 407.2 70.1 416.7Z" fill="#30961E"/>
<path d="M135.4 117.2V327.6C142.1 328.7 149.3 333.6 156.1 333.6C164.9 333.6 174.7 325.1 182.7 327.9C190.9 330.8 194.3 344 201.1 349.4C208 354.8 220.7 354.3 225.7 361.8C230.7 369.2 226.3 382 229 391C231.6 399.6 242.2 407.1 242.2 416.7C242.2 426.2 231.6 433.8 229 442.4C226.4 451.3 230.7 464.2 225.7 471.6C220.7 479.1 208 478.5 201.2 484C198.7 486 196.6 489 194.5 492.3H428.9C435.9 492.3 441.6 486.1 441.6 478.5V55.8C441.6 48.2 435.9 42 428.9 42H204.6L135.4 117.2Z" fill="#E5F3E5"/>
<path d="M95.1 19.8V355.9C100.5 353.8 106.8 352.8 111 349.5C119.2 342.9 122.8 324.9 135.3 327.6V117.2L204.6 42H401.4V19.8C401.4 12.2 395.7 6 388.7 6H107.9C100.8 6.1 95.1 12.3 95.1 19.8Z" fill="#BCCDBB"/>
<path d="M204.6 103.4V42L135.3 117.2H191.9C199 117.2 204.6 111 204.6 103.4Z" fill="#D6E7D5"/>
<path d="M100.8 416.7C100.8 449.8 125.5 476.7 156 476.7C229.2 473.5 229.2 359.9 156 356.8C125.5 356.7 100.8 383.6 100.8 416.7Z" fill="#5FF094"/>
<path d="M147.4 439.3C146.2 439.3 145 438.8 144 437.9L124.9 420C119.8 415.2 126.5 406.7 131.6 411.5L147.4 426.2L180.5 395.3C185.6 390.5 192.3 399 187.2 403.8L150.8 437.8C149.8 438.9 148.6 439.3 147.4 439.3Z" fill="#30961E"/>
<path d="M156.1 351.1C189.4 351.1 216.5 380.5 216.5 416.7C213.2 503.7 99 503.7 95.7 416.7C95.7 380.5 122.8 351.1 156.1 351.1ZM156.1 471.1C183.7 471.1 206.2 446.7 206.2 416.7C203.4 344.6 108.8 344.6 106.1 416.7C106 446.7 128.5 471.1 156.1 471.1Z" fill="#231F20"/>
<path d="M73.1 435.3C62.5 422.5 62.5 410.9 73.1 398.1C75.4 394.9 77.6 392 78.4 389.3C79.3 386.4 79.1 382.5 79 378.3C78 368.4 80.2 356 90.1 352.1V19.8C90.1 9.09999 98.1 0.399994 108 0.399994H388.8C398.7 0.399994 406.7 9.09999 406.7 19.8V36.3H429C438.9 36.3 446.9 45 446.9 55.7V478.4C446.9 489.1 438.9 497.8 429 497.8H197.2C189.6 511.8 179.6 514.6 166.1 508.2C158.4 504.6 153.8 504.6 146.1 508.2C131.7 515.1 122.1 511.3 114.3 496.8C110.1 489.2 106.7 486.5 98.7 484.5C83.5 480.9 77.4 471.9 78.9 455.1C79.6 446.3 78.5 442 73.1 435.3ZM396.3 19.8C396.3 15.3 392.9 11.6 388.8 11.6H107.9C103.7 11.6 100.4 15.3 100.4 19.8V348.3C114.6 345.6 115.9 324.4 130.3 321.9V117.2C130.4 115.8 130.8 114.3 131.8 113.2L201.1 38C201.5 37.5 202.1 37.2 202.6 36.9C203.3 36.6 204 36.5 204.7 36.4H396.3V19.8ZM199.5 55.5L147.8 111.6H192C196.2 111.6 199.5 107.9 199.5 103.4V55.5ZM436.5 478.5V55.8C436.5 51.3 433.1 47.6 429 47.6H209.9V103.4C209.9 114.1 201.9 122.8 192 122.8H140.6V323.1C145.5 324.6 151.6 327.9 156.1 327.9C161 327.8 166.5 324.6 171.5 323.1C179.1 320.1 188.1 322.1 193 329.3C199.1 337.4 202 346.8 212.5 348.5C228.1 352.2 234.9 360.6 233.2 378.3C233.1 381.9 232.9 386.4 233.8 389.3C237.4 398.5 247.3 405.3 247.2 416.7C247.5 427.8 237.2 435.3 233.8 444.1C232.9 447 233.1 451.5 233.2 455C235.1 477.6 224.9 481.2 207.4 486.6H429C433.1 486.7 436.5 483 436.5 478.5ZM81.2 428.4C84 432.2 86.8 436.1 88.2 440.7C91.1 448.7 87.2 461.5 90.8 468.3C95.6 474.1 108.1 474 114.2 479.5C120.9 484.2 124.6 497.1 131.2 500.2C138.2 501.6 148.2 493.7 156.2 494.3C164.1 493.8 174.2 501.7 181.2 500.2C184.9 498.9 187.2 494.2 189.3 490.9C194.8 482 200.4 477.1 209.9 474.1C221.3 470.9 224.1 468.9 223 455.6C221.7 444.3 225.4 434.7 232.4 426.5C240.9 416.3 235.4 411.2 228.8 401.9C223.4 395.2 222.4 386.5 223 378C223.2 372.8 223.3 367.9 221.5 365.3C219.7 362.6 215.1 361.2 210.7 359.8C201.5 357.9 193.9 352 189.4 343C186.3 338 183.3 332.2 177 333.4C170 334.7 163.6 339.5 156.2 339.4C151.5 339.4 147 337.6 142.7 335.9C138.5 334.4 133.1 331.3 129 334.8C123.7 339.8 120.3 349.6 114.2 354.2C110.6 357.1 106.3 358.6 102 360C98.4 361.2 93.1 361.9 90.8 365.4C89 368.1 89.2 373 89.3 378.2C90.4 388.3 87.7 397.9 81.2 405.3C73.6 414.6 73.6 418.7 81.2 428.4Z" fill="#231F20"/>
<path d="M180.627 395.4L147.527 426.3L131.727 411.6C126.627 406.8 119.927 415.3 125.027 420.1L144.127 438C146.027 439.8 148.927 439.8 150.827 438L187.227 404C192.427 399.1 185.827 390.7 180.627 395.4Z" fill="#231F20"/>
<path d="M409.4 178.3H269.3C262.6 178.3 262.5 167.1 269.3 167.1H409.4C416.1 167.1 416.2 178.3 409.4 178.3Z" fill="#231F20"/>
<path d="M409.4 217H269.3C262.6 217 262.5 205.8 269.3 205.8H409.4C416.1 205.8 416.2 217 409.4 217Z" fill="#231F20"/>
<path d="M409.4 255.7H170.1C163.4 255.6 163.2 244.6 170.1 244.5H409.4C416.1 244.6 416.2 255.6 409.4 255.7Z" fill="#231F20"/>
<path d="M409.4 294.4H170.1C163.4 294.3 163.2 283.3 170.1 283.2H409.4C416.1 283.2 416.2 294.2 409.4 294.4Z" fill="#231F20"/>
<path d="M409.4 333H242.5C235.8 332.9 235.7 321.9 242.5 321.8H409.4C416.1 321.9 416.2 332.9 409.4 333Z" fill="#231F20"/>
<path d="M289.4 360.5H409.4C416.1 360.5 416.2 371.7 409.4 371.7H289.5C282.7 371.7 282.6 360.5 289.4 360.5Z" fill="#231F20"/>
<path d="M270.303 96.9004C270.303 98.0384 269.882 98.9785 269.041 99.7207C268.225 100.463 267.235 100.834 266.072 100.834C262.906 100.834 261.322 99.5228 261.322 96.9004C261.322 94.4512 262.782 93.2266 265.701 93.2266C268.769 93.2266 270.303 94.4512 270.303 96.9004ZM257.426 96.9004C257.426 98.0384 257.005 98.9785 256.164 99.7207C255.348 100.463 254.37 100.834 253.232 100.834C250.066 100.834 248.482 99.5228 248.482 96.9004C248.482 94.4512 249.917 93.2266 252.787 93.2266C255.88 93.2266 257.426 94.4512 257.426 96.9004ZM293.793 129C288.499 129 284.961 128.134 283.18 126.402C280.904 128.134 278.751 129 276.723 129H241.543C238.772 129 236.459 127.862 234.604 125.586C232.872 123.458 232.006 120.972 232.006 118.127V108.033H238.686V117.199C238.686 119.104 239.057 120.44 239.799 121.207C240.541 121.949 241.84 122.32 243.695 122.32H274.756C276.611 122.32 277.885 121.949 278.578 121.207C279.296 120.44 279.654 119.104 279.654 117.199V108.033H286.445V117.199C286.445 120.613 288.895 122.32 293.793 122.32V129ZM305.334 97.5312C305.334 98.8424 304.876 99.9557 303.961 100.871C303.07 101.786 301.982 102.244 300.695 102.244C297.306 102.244 295.611 100.673 295.611 97.5312C295.611 94.8841 297.219 93.5605 300.436 93.5605C303.701 93.5605 305.334 94.8841 305.334 97.5312ZM311.902 118.127C311.902 120.997 311.012 123.495 309.23 125.623C307.35 127.874 305.012 129 302.217 129H291.27V122.32C298.271 122.32 302.167 122.184 302.959 121.912C304.443 121.368 305.186 119.364 305.186 115.9C305.186 115.035 305.161 113.723 305.111 111.967C305.087 110.21 305.074 108.899 305.074 108.033H311.902V118.127ZM333.24 129C327.6 129 323.629 127.911 321.328 125.734C319.794 124.324 319.027 122.011 319.027 118.795V87.2148H325.707V115.863C325.707 118.956 326.227 120.848 327.266 121.541C327.909 121.962 329.9 122.221 333.24 122.32V129ZM366.305 129C364.103 129 362.507 128.802 361.518 128.406C360.231 127.862 359.081 126.773 358.066 125.141C356.161 128.332 353.094 129.928 348.863 129.928C347.305 129.928 345.672 129.458 343.965 128.518C342.283 127.577 341.008 126.452 340.143 125.141C339.648 127.664 336.271 128.951 330.012 129V122.32C333.723 122.32 335.912 121.949 336.58 121.207C336.926 120.836 337.1 119.129 337.1 116.086C337.1 112.029 338.052 108.788 339.957 106.363C342.06 103.667 345.09 102.318 349.049 102.318C352.661 102.318 355.506 103.753 357.584 106.623C359.439 109.171 360.404 112.326 360.479 116.086C360.503 117.496 360.528 118.399 360.553 118.795C360.701 120.403 361.295 121.417 362.334 121.838C362.829 122.061 364.152 122.221 366.305 122.32V129ZM354.43 115.9C354.43 111.2 352.549 108.85 348.789 108.85C344.88 108.85 342.926 111.348 342.926 116.346C342.926 120.972 344.88 123.285 348.789 123.285C352.549 123.285 354.43 120.824 354.43 115.9ZM403.303 89.5156C403.303 90.8021 402.845 91.903 401.93 92.8184C401.014 93.709 399.926 94.1543 398.664 94.1543C395.349 94.1543 393.691 92.6081 393.691 89.5156C393.691 86.8685 395.287 85.5449 398.479 85.5449C401.695 85.5449 403.303 86.8685 403.303 89.5156ZM419.111 115.975C419.111 117.929 418.827 119.908 418.258 121.912C417.441 124.906 416.13 126.897 414.324 127.887C412.964 128.629 410.663 129 407.422 129H390.5C386.047 129 382.843 127.194 380.889 123.582C378.291 127.194 375.285 129 371.871 129H363.855V122.32H371.277C374.395 122.32 375.953 120.7 375.953 117.459V108.07L382.559 108.033V116.605C382.559 120.415 384.736 122.32 389.09 122.32C394.582 108.986 400.742 102.318 407.57 102.318C409.327 102.318 411.059 102.826 412.766 103.84C416.996 106.388 419.111 110.433 419.111 115.975ZM408.387 108.998C406.16 108.998 403.637 110.705 400.816 114.119C398.689 116.692 396.945 119.426 395.584 122.32H408.572C411.071 122.32 412.32 120.242 412.32 116.086C412.32 111.361 411.009 108.998 408.387 108.998Z" fill="black"/>
</svg>
