<?xml version="1.0" encoding="utf-8" ?><svg xmlns="http://www.w3.org/2000/svg" xmlns:xlink="http://www.w3.org/1999/xlink" width="1024" height="1024" viewBox="0 0 1024 1024"><path fill="white" d="M0 0L1024 0L1024 1024L0 1024L0 0ZM891.766 197.577C809.153 95.9639 689.298 31.6539 558.952 19.0002C456.145 9.26176 352.896 32.3471 264.026 84.9425C241.243 98.6148 219.5 113.95 198.975 130.824C167.324 156.489 136.251 192.625 112.241 225.354C107.718 231.519 102.875 237.469 98.7287 243.899C97.4772 245.457 96.5836 246.978 95.71 248.773C94.4926 250.532 93.3064 252.291 92.1998 254.122C91.1977 255.832 90.2033 257.534 89.2947 259.297C83.9482 269.17 79.0142 279.496 73.0886 289.02C70.6008 293.445 67.7296 298.976 66.7151 303.963C64.4572 309.294 62.1757 314.579 59.635 319.784C57.7725 323.101 55.5304 326.628 54.582 330.344C50.9877 337.411 48.4487 345.197 45.8076 352.657C40.3282 368.136 35.2807 383.591 31.4715 399.572C16.5171 462.31 13.1423 518.661 22.1968 582.444C24.0345 595.39 26.7888 608.09 29.0841 620.946C29.803 623.922 30.3812 626.994 31.6045 629.809C42.5216 674.63 61.6832 717.722 84.5587 757.614C88.8141 765.035 92.9175 773.631 98.2959 780.274C104.006 789.292 110.8 800.013 118.554 807.323C123.345 814.801 129.214 823.938 136.042 829.647C138.705 833.313 141.464 836.726 144.976 839.622C150.953 850.166 192.793 888.404 204.033 897.661C207.716 900.788 213.759 907.13 218.388 908.201C229.004 918.942 253.161 933.475 266.724 941.115C285.264 951.558 304.159 961.637 323.791 969.897C378.831 993.053 446.695 1007.62 506.365 1007.96C522.409 1008.06 538.257 1007.16 554.242 1005.79C561.494 1005.17 568.998 1004.74 576.161 1003.47C580.973 1003.43 586.391 1002.18 591.138 1001.32C599.08 999.294 607.527 998.46 615.573 996.725C635.314 992.54 654.733 986.959 673.683 980.023C678.249 978.797 682.59 977.029 686.952 975.234C752.138 949.692 811.229 910.736 860.394 860.893C865.224 856.084 870.061 851.228 874.529 846.076C879.127 840.774 883.37 835.139 888.234 830.078C890.962 827.376 893.231 824.21 895.572 821.174C915.373 797.357 932.439 770.647 947.219 743.47C951.764 735.112 956.381 726.866 959.902 718.007L963.667 710.42C965.686 704.769 967.791 699.148 969.981 693.561C971.405 690.941 972.387 688.365 973.335 685.543C979.125 668.328 985.976 651.38 990.491 633.764C993.06 623.739 994.879 613.508 996.741 603.333C1009.85 533.785 1007.81 462.228 990.751 393.541C986.498 377.004 981.18 359.818 975.163 343.84C972.41 336.532 969.113 329.381 966.156 322.149C964.87 318.024 962.963 314.034 960.813 310.292C957.985 302.755 953.813 295.513 950.463 288.161C948.57 283.526 946.268 279.156 943.68 274.876C933.549 256.929 923.263 238.866 911.368 222.025C910.002 220.086 908.085 216.248 906.009 215.166C902.526 212.864 900.2 208.419 897.879 205.016C896.139 202.247 894.179 199.784 891.766 197.577Z"/><path fill="#FCD34D" d="M891.766 197.577C881.985 197.202 872.22 196.142 862.461 195.403C842.112 193.952 821.776 192.317 801.456 190.499L778.582 188.562C774.124 188.178 769.443 187.403 764.974 187.616C764.344 189.696 764.089 191.783 763.986 193.947C763.337 207.51 762.416 355.452 764.117 359.849C765.658 360.862 767.946 361.152 769.749 361.447C788.24 364.474 806.884 366.817 825.433 369.477L906.141 381.053L940.918 385.91C948.678 387.008 956.643 388.583 964.492 388.528C967.808 383.174 965.905 333.337 966.156 322.149C969.113 329.381 972.41 336.532 975.163 343.84C981.18 359.818 986.498 377.004 990.751 393.541C1007.81 462.228 1009.85 533.785 996.741 603.333C994.879 613.508 993.06 623.739 990.491 633.764C985.976 651.38 979.125 668.328 973.335 685.543C965.71 682.579 950.163 680.525 941.449 678.799C922.196 674.985 903.015 670.782 883.744 667.078C881.978 652.309 878.131 637.145 874.799 622.651C869.639 600.204 864.293 577.919 858.046 555.743C847.13 516.994 826.874 446.051 798.822 417.252C787.263 405.385 772.2 395.992 758.298 387.081C743.457 377.447 728.306 368.302 712.867 359.659C708.123 349.661 700.836 335.66 694.949 326.482C691.458 321.041 685.313 320.909 679.471 319.672C677.487 306.618 678.267 292.393 679.096 279.255C686.653 279.739 693.242 279.117 700.383 276.4C710.957 272.383 719.458 264.261 723.952 253.881C729.343 241.715 728.724 229.315 724.081 217.079C726.396 211.514 728.251 205.769 729.625 199.9C735.335 175.154 729.283 150.405 715.841 129.094C710.365 120.413 703.663 111.755 695.519 105.411C667.511 83.5918 621.149 79.7465 587.489 88.941C580.441 90.8663 573.923 94.1185 567.359 97.2581C540.667 110.026 533.911 112.348 504.143 105.691C506.696 110.717 509.416 114.835 513.166 119.049C508.008 121.044 503.517 123.417 500.116 127.938C495.445 134.149 493.808 142.963 495.012 150.575C497.395 165.635 510.691 183.284 522.85 192.054C519.946 211.035 518.366 229.908 519.712 249.096C521.205 273.598 527.442 297.577 538.076 319.701C541.416 326.579 545.503 334.219 551.461 339.216C563.015 348.908 581.453 345.682 595.229 344.25C595.195 349.278 595.187 354.306 595.204 359.334C582.385 366.232 570.27 374.524 558.012 382.36C544.465 391.02 530.283 399.476 517.637 409.427C482.633 436.971 471.622 542.55 466.369 587.107C452.348 583.903 438.27 580.95 424.142 578.251C420.926 555.472 418.422 532.477 415.569 509.64C414.523 501.271 413.972 488.69 411.496 480.884C404.403 477.695 378.747 473.435 369.203 471.406L235.447 444.265C201.649 437.283 167.806 430.521 133.919 423.98L105.768 418.324C100.738 417.322 95.2351 415.748 90.1137 415.653C85.7253 415.571 52.5777 425.013 47.2099 427.127C45.6939 427.724 44.5069 428.31 43.3088 429.417C42.649 431.444 42.8791 433.74 43.0572 435.842C43.793 444.53 45.3988 453.247 46.6149 461.884C48.4783 475.896 50.4274 489.897 52.4622 503.885L71.2426 630.899C60.5641 627.613 39.7341 621.769 29.0841 620.946C26.7888 608.09 24.0345 595.39 22.1968 582.444C13.1423 518.661 16.5171 462.31 31.4715 399.572C35.2807 383.591 40.3282 368.136 45.8076 352.657C48.4487 345.197 50.9877 337.411 54.582 330.344C55.3405 337.768 53.1445 357.317 56.5077 362.807C62.3095 364.927 69.1013 365.299 75.2164 366.12L99.4477 369.459L197.831 383.057C199.594 383.287 201.575 383.74 203.329 383.339C204.351 382.502 205.425 381.697 205.728 380.334C207.014 374.55 206.226 352.458 206.239 345.01C206.299 327.041 206.228 309.071 206.028 291.103C206.001 280.982 206.439 270.66 205.934 260.561C205.854 258.971 205.779 257.643 204.829 256.309C198.403 254.445 181.222 253.508 173.682 252.627C148.725 249.484 123.74 246.574 98.7287 243.899C102.875 237.469 107.718 231.519 112.241 225.354C136.251 192.625 167.324 156.489 198.975 130.824C219.5 113.95 241.243 98.6148 264.026 84.9425C352.896 32.3471 456.145 9.26176 558.952 19.0002C689.298 31.6539 809.153 95.9639 891.766 197.577ZM312.671 83.1822C302.284 84.2404 293.698 88.1915 287.071 96.4269C283.593 100.749 281.069 105.703 279.927 111.148C277.813 121.231 279.214 136.94 279.175 147.808C279.14 157.585 278.151 168.051 279.228 177.747C280.174 186.267 284.065 194.239 290.892 199.566C294.625 202.472 298.995 204.45 303.641 205.337C311.786 206.971 321.143 206.112 329.438 206.094L372.243 205.968C382.461 218.708 393.088 231.326 402.449 244.71L403.61 245.803C405.034 243.939 404.28 210.905 404.106 206.257C415.478 201.937 424.112 197.163 429.352 185.612C430.812 182.394 431.69 179.107 432.077 175.594C433.112 166.184 432.384 156.13 432.341 146.643C432.295 136.528 432.819 125.996 431.952 115.932C431.645 112.363 431.062 108.711 429.765 105.36C426.751 97.578 420.094 89.782 412.388 86.3913C408.479 84.6715 404.137 83.6344 399.891 83.2451C387.23 82.0841 373.881 83.0436 361.133 83.0603C345.084 83.0814 328.68 82.3536 312.671 83.1822ZM243.866 258.961C242.878 260.34 242.605 261.177 242.502 262.869C242.016 270.93 242.398 279.229 242.402 287.311L242.395 333.842L242.371 368.855C242.382 374.589 241.832 380.978 242.782 386.629C242.88 387.212 243.061 387.702 243.27 388.251C247.97 390.575 268.204 392.223 275.257 393.244C305.414 397.748 335.596 402.085 365.802 406.254C376.826 407.828 391.392 411.336 402.136 411.623C403.738 405.188 402.698 396.428 402.691 389.737L402.637 347.25L402.62 297.882C402.615 290.608 403.066 283.099 402.697 275.857C392.937 273.72 382.486 273.599 372.539 272.603L319.848 267.051C304.049 265.55 288.269 263.848 272.514 261.944C263.086 260.868 253.333 259.337 243.866 258.961Z"/><path d="M372.243 205.968L329.438 206.094C321.143 206.112 311.786 206.971 303.641 205.337C298.995 204.45 294.625 202.472 290.892 199.566C284.065 194.239 280.174 186.267 279.228 177.747C278.151 168.051 279.14 157.585 279.175 147.808C279.214 136.94 277.813 121.231 279.927 111.148C281.069 105.703 283.593 100.749 287.071 96.4269C293.698 88.1915 302.284 84.2404 312.671 83.1822C328.68 82.3536 345.084 83.0814 361.133 83.0603C373.881 83.0436 387.23 82.0841 399.891 83.2451C404.137 83.6344 408.479 84.6715 412.388 86.3913C420.094 89.782 426.751 97.578 429.765 105.36C431.062 108.711 431.645 112.363 431.952 115.932C432.819 125.996 432.295 136.528 432.341 146.643C432.384 156.13 433.112 166.184 432.077 175.594C431.69 179.107 430.812 182.394 429.352 185.612C424.112 197.163 415.478 201.937 404.106 206.257C404.28 210.905 405.034 243.939 403.61 245.803L402.449 244.71C393.088 231.326 382.461 218.708 372.243 205.968ZM312.071 89.1664C303.895 90.197 296.468 93.5085 291.336 100.22C288.36 104.111 286.523 108.686 285.663 113.485C283.825 123.75 284.987 140.744 285.011 151.914C285.03 160.353 284.235 169.502 285.406 177.831C286.429 185.112 290.022 191.441 295.981 195.794C298.934 197.951 302.145 199.087 305.736 199.659C312.168 200.683 319.082 200.199 325.577 200.166C341.71 200.084 359.485 199.024 375.398 200.473C379.569 204.725 396.796 227.663 398.271 228.613L398.462 227.625L398.125 200.707C406.06 200.146 413.913 196.385 419.185 190.369C422.472 186.63 424.743 182.108 425.781 177.239C427.762 167.79 426.468 154.636 426.469 144.793C426.47 135.437 427.151 125.723 426.32 116.424C425.552 107.823 421.646 100.546 414.989 95.0778C411.095 91.8784 407.064 90.2966 402.117 89.4806C391.528 87.7342 374.429 88.8085 363.089 88.8089L329.115 88.9041C323.481 88.9474 317.682 88.737 312.071 89.1664Z"/><path d="M29.0841 620.946C39.7341 621.769 60.5641 627.613 71.2426 630.899L52.4622 503.885C50.4274 489.897 48.4783 475.896 46.6149 461.884C45.3988 453.247 43.793 444.53 43.0572 435.842C42.8791 433.74 42.649 431.444 43.3088 429.417C44.5069 428.31 45.6939 427.724 47.2099 427.127C52.5777 425.013 85.7253 415.571 90.1137 415.653C95.2351 415.748 100.738 417.322 105.768 418.324L133.919 423.98C167.806 430.521 201.649 437.283 235.447 444.265L369.203 471.406C378.747 473.435 404.403 477.695 411.496 480.884C413.972 488.69 414.523 501.271 415.569 509.64C418.422 532.477 420.926 555.472 424.142 578.251C438.27 580.95 452.348 583.903 466.369 587.107C471.622 542.55 482.633 436.971 517.637 409.427C530.283 399.476 544.465 391.02 558.012 382.36C570.27 374.524 582.385 366.232 595.204 359.334C595.187 354.306 595.195 349.278 595.229 344.25C581.453 345.682 563.015 348.908 551.461 339.216C545.503 334.219 541.416 326.579 538.076 319.701C527.442 297.577 521.205 273.598 519.712 249.096C518.366 229.908 519.946 211.035 522.85 192.054C510.691 183.284 497.395 165.635 495.012 150.575C493.808 142.963 495.445 134.149 500.116 127.938C503.517 123.417 508.008 121.044 513.166 119.049C509.416 114.835 506.696 110.717 504.143 105.691C533.911 112.348 540.667 110.026 567.359 97.2581C573.923 94.1185 580.441 90.8663 587.489 88.941C621.149 79.7465 667.511 83.5918 695.519 105.411C703.663 111.755 710.365 120.413 715.841 129.094C729.283 150.405 735.335 175.154 729.625 199.9C728.251 205.769 726.396 211.514 724.081 217.079C728.724 229.315 729.343 241.715 723.952 253.881C719.458 264.261 710.957 272.383 700.383 276.4C693.242 279.117 686.653 279.739 679.096 279.255C678.267 292.393 677.487 306.618 679.471 319.672C685.313 320.909 691.458 321.041 694.949 326.482C700.836 335.66 708.123 349.661 712.867 359.659C728.306 368.302 743.457 377.447 758.298 387.081C772.2 395.992 787.263 405.385 798.822 417.252C826.874 446.051 847.13 516.994 858.046 555.743C864.293 577.919 869.639 600.204 874.799 622.651C878.131 637.145 881.978 652.309 883.744 667.078C903.015 670.782 922.196 674.985 941.449 678.799C950.163 680.525 965.71 682.579 973.335 685.543C972.387 688.365 971.405 690.941 969.981 693.561C959.042 690.08 946.576 688.812 935.268 686.593C918.535 683.311 901.95 679.365 885.249 675.952C886.073 681.661 886.964 687.37 887.713 693.088C903.63 696.738 919.666 700.043 935.635 703.472C944.853 705.451 954.948 706.782 963.667 710.42L959.902 718.007C951.758 714.923 941.199 713.942 932.564 712.069C917.925 708.896 903.391 704.894 888.678 702.125C888.749 708.306 889.492 715.331 887.017 721.131C882.827 730.951 861.899 754.812 854.022 764.247C847.47 772.095 841.28 780.252 834.875 788.223C830.546 793.61 825.874 798.855 821.777 804.411C838.565 808.368 855.374 812.232 872.204 816.004C879.937 817.746 887.95 819.102 895.572 821.174C893.231 824.21 890.962 827.376 888.234 830.078L442.765 725.426C444.821 738.958 446.337 752.545 448.187 766.104C448.831 766.205 449.473 766.318 450.113 766.441C456.726 767.703 463.382 769.756 469.921 771.423C483.406 774.916 496.927 778.264 510.483 781.466C529.714 785.828 548.91 790.34 568.07 795.002C576.849 797.119 586.232 798.773 594.778 801.655C596.624 802.277 597.254 803.054 598.295 804.586C598.56 806.193 598.292 807.522 597.58 808.977C594.003 816.292 524.201 843.662 511.14 849.127C500.952 853.39 490.898 858.263 480.555 862.109C470.254 860.075 460.081 856.92 449.962 854.119L401.886 840.879C372.187 832.777 341.681 826.077 312.549 816.079C312.459 816.297 312.366 816.514 312.281 816.734C311.791 817.99 311.445 819.177 310.383 820.106C305.933 823.999 285.53 826.936 278.514 828.418C268.196 830.592 257.891 832.831 247.6 835.134C241.915 836.386 235.433 838.476 229.587 838.464C224.051 838.453 217.649 835.297 212.323 833.755L146.619 814.26C138.219 811.856 127.154 807.501 118.554 807.323C110.8 800.013 104.006 789.292 98.2959 780.274C104.335 779.109 110.35 777.393 116.367 776.058C132.678 772.436 148.799 768.777 164.918 764.359C169.402 749.745 176.108 735.789 180.095 721.05C169.443 717.513 158.24 715.33 147.327 712.708C125.563 707.479 103.491 702.517 81.9296 696.562C77.2622 678.643 76.0633 658.795 72.6738 640.471C59.0259 636.745 45.1237 634.01 31.6045 629.809C30.3812 626.994 29.803 623.922 29.0841 620.946ZM612.61 91.2051C635.442 96.6205 658.81 106.884 671.648 127.584C684.411 148.161 687.716 172.399 688.753 196.125C695.208 196.335 699.982 197.071 705.628 200.508C706.224 172.373 701.409 139.177 681.38 118.101C665.915 101.826 643.792 91.5173 621.248 90.9812C618.378 90.913 615.47 90.9486 612.61 91.2051ZM597.144 96.6732C562.081 101.806 557.521 124.371 514.471 114.381C514.589 114.54 514.71 114.697 514.825 114.858C519.955 121.997 522.914 130.845 527.8 138.298C543.766 162.649 572.616 174.323 600.33 179.158C605.441 180.03 610.586 180.685 615.752 181.119C616.829 173.98 617.989 166.826 618.702 159.639C619.43 152.299 619.656 144.948 621.003 137.682L623.854 143.841C630.671 159.445 638.134 175.325 646.85 189.957C650.842 196.661 655.368 203.076 659.722 209.549C666.708 202.523 673.405 198.446 683.239 196.761C679.018 165.824 676.24 133.428 649.084 112.985C634.718 102.17 615.209 95.1321 597.144 96.6732ZM662.998 96.5806C681.178 104.698 694.683 118.302 701.771 137.048C709.839 158.382 710.669 180.633 710.495 203.13C711.777 204.603 716.43 210.903 717.953 211.1L718.189 210.88C721.23 180.363 716.866 141.83 696.809 117.612C691.353 111.024 671.904 97.1015 663.433 96.5764C663.288 96.5674 663.143 96.5792 662.998 96.5806ZM512.237 121.897C507.171 126.391 503.774 131.004 503.247 138.002C501.959 155.085 513.861 169.151 524.436 181.128L525.232 181.209C528.061 173.968 531.069 167.012 535.065 160.313C526.118 152.662 519.877 142.987 516.008 131.914C514.975 128.961 514.054 124.361 512.237 121.897ZM623.859 156.734C624.154 167.453 624.223 178.311 621.005 188.645C593.703 188.074 560.464 184.044 539.833 164.351C535.858 173.931 533.677 183.736 531.87 193.903C525.572 229.348 527.399 268.863 541.311 302.408C545.674 312.927 551.936 330.23 563.366 334.737C577.501 340.311 601.798 333.676 615.007 327.623C618.652 325.953 622.1 323.995 625.535 321.934C642.54 311.354 663.435 297.53 668.16 276.637C668.197 276.472 668.22 276.304 668.249 276.138C667.374 275.566 667.173 275.323 666.084 275.532C658.7 276.947 648.95 288.595 643.181 292.962C637.92 296.945 625.917 303.67 619.62 299.545C616.514 297.51 614.361 293.627 613.657 290.042C613.18 287.61 613.418 285.213 614.998 283.222C616.541 281.278 644.513 268.335 648.278 267.403C650.839 270.131 652.981 272.987 655.041 276.108C656.979 274.454 658.949 272.824 660.858 271.138C652.287 261.659 647.153 251.564 647.807 238.505C648.234 229.995 650.936 222.737 655.149 215.42C646.103 203.506 638.236 192.593 632.396 178.643C630.049 173.034 626.627 160.959 623.859 156.734ZM685.426 202.164C675.023 203.845 667.029 208.881 660.865 217.477C655.071 225.558 652.368 236.725 654.004 246.553C655.156 253.475 658.902 262.009 664.792 266.157C665.277 266.504 665.779 266.827 666.296 267.124C668.72 265.362 671.025 263.581 673.263 261.587C666.896 255.343 663.443 248.554 663.334 239.514C663.231 230.919 666.372 222.705 672.444 216.58C677.59 211.388 684.526 208.172 691.897 208.28C698.371 208.375 704.211 211.031 708.65 215.724C712.068 219.339 714.274 223.712 715.773 228.42C717.634 237.278 716.567 245.159 711.54 252.779C707.138 259.454 700.749 264.663 692.722 266.127C687.619 267.057 682.717 266.358 677.771 265.037L671.302 270.785C679.956 274.593 689.773 274.78 698.565 271.304C707.923 267.503 715.781 259.311 719.595 249.995C723.385 240.657 723.321 230.197 719.419 220.905C715.951 212.694 709.228 207.191 701.041 204.01C696.085 202.049 690.703 201.413 685.426 202.164ZM688.085 216.135C681.912 218.402 677.275 222.155 674.481 228.255C671.709 234.311 671.581 242.162 673.97 248.359C675.865 253.272 679.405 257.454 684.363 259.421C687.166 260.533 690.037 260.693 693.012 260.451C698.551 258.926 702.836 256.598 705.827 251.446C709.469 245.17 710.021 236.645 708.038 229.725C706.59 224.67 703.501 220.15 698.761 217.695C695.187 215.844 692.003 215.777 688.085 216.135ZM646.902 273.876C642.885 276.148 621.211 286.32 620.593 289.194C620.325 290.44 620.89 291.983 621.669 292.948C622.307 293.74 623.521 294.021 624.502 293.998C624.687 293.994 624.871 293.964 625.055 293.947C634.98 291.346 643.749 285.051 651.928 279.074C650.827 277.271 649.641 274.575 647.452 273.976C647.272 273.927 647.085 273.909 646.902 273.876ZM669.835 291.954C657.968 313.275 640.002 332.626 622.037 348.974C616.002 354.466 609.376 359.403 603.455 364.988C603.896 373.893 604.042 439.382 605.878 441.73C606.247 441.151 606.634 440.583 606.953 439.975C611.367 431.554 615.703 423.091 619.96 414.589C623.072 408.396 625.938 401.642 630.017 396.019C634.028 390.489 639.08 385.469 643.511 380.251C650.713 371.686 657.722 362.96 664.531 354.079C668.434 349.045 672.723 344.02 675.44 338.22C674.603 333.546 673.721 328.853 673.177 324.135C672.593 319.064 671.643 294.281 669.835 291.954ZM688.303 328.279C678.184 346.641 665.851 362.996 652.446 379.089C646.127 386.675 638.476 394.198 633.061 402.404C629.544 407.733 627.362 414.062 624.489 419.764C620.054 428.565 615.131 437.159 610.406 445.807C608.818 448.713 607.197 452.983 605.025 455.392C603.765 456.79 601.728 457.434 599.992 458.015C598.605 463.59 599.419 483.59 599.271 490.85C598.603 544.323 599.559 597.803 602.138 651.218C603.166 675.061 604.386 698.896 605.796 722.719C606.376 732.908 606.684 743.12 607.464 753.296C611.632 754.368 615.831 755.315 620.056 756.136C619.852 744.157 619.036 732.075 618.18 720.123C614.464 659.742 612.133 599.283 611.189 538.795C610.693 510.923 612.016 482.838 610.837 455.011C615.718 446.495 621.254 438.337 626.322 429.922C630.444 423.076 634.117 415.92 638.251 409.116C638.753 408.29 639.232 407.52 640.191 407.239C641.151 406.957 641.533 407.053 642.458 407.319C645.522 410.823 647.699 415.352 650.19 419.286C654.684 426.386 659.401 433.451 664.236 440.324C670.744 423.515 679.64 406.903 688.499 391.207C694.494 380.586 701.135 369.989 705.737 358.664C703.332 353.882 691.107 330.304 688.303 328.279ZM708.458 366.429C700.284 382.341 691.126 397.684 682.839 413.529C677.633 423.485 673.434 434.134 667.945 443.897C667.226 445.176 666.756 446.06 665.394 446.745C663.945 446.875 663.399 446.904 662.229 445.973C657.609 442.296 644.985 422.114 641.259 416.159C633.483 429.393 625.66 442.961 616.628 455.374C616.805 490.843 616.425 526.328 617.109 561.792C617.879 601.723 619.842 641.858 622.047 681.734C623.445 707.034 624.367 732.559 626.974 757.771C646.153 762.609 665.374 767.281 684.633 771.787C693.468 773.867 702.254 776.219 711.163 777.96C730.041 756.12 746.504 732.087 764.735 709.696C763.746 687.566 764.096 665.327 763.588 643.175C763.451 637.182 764.465 630.837 763.178 624.964C760.883 614.497 745.587 577.876 746.723 570.794C747.358 566.836 745.788 561.502 745.405 557.418C744.904 551.957 744.575 546.482 744.417 541.001C743.434 509.444 747.067 474.789 762.158 446.571C766.071 439.254 771.063 431.733 777.754 426.661C779.448 425.377 781.238 423.865 783.47 424.059C784.361 424.729 784.955 425.022 785.049 426.255C785.144 427.505 784.427 428.331 783.561 429.111C780.934 431.481 778.364 433.16 776.023 435.929C761.199 453.464 753.581 483.961 751.04 506.715C749.501 520.495 749.051 553.786 752.263 566.505C752.715 568.295 753.915 569.552 754.548 571.193C764.021 597.297 773.875 623.217 782.764 649.531C786.235 659.808 791.072 670.98 792.318 681.765L792.877 681.338C802.933 673.59 813.646 658.007 823.266 651.759C824.558 650.92 825.161 650.721 826.691 650.81C827.727 651.625 828.08 651.734 828.457 652.975C827.427 655.783 802.669 679.889 798.135 684.84C803.554 682.194 824.623 670.364 829.679 671.272C830.514 671.999 830.708 672.136 831.052 673.173C829.127 678.055 806.179 687.033 800.604 689.452C796.986 691.041 793.266 692.387 789.468 693.481C776.547 711.547 762.992 729.135 749.372 746.689C740.63 757.958 731.29 769.127 723.524 781.09C752.169 788.379 781.202 794.671 810.003 801.355C815.693 794.783 820.9 787.762 826.469 781.075C837.26 768.229 847.893 755.25 858.363 742.141C864.153 734.968 873.002 725.763 876.728 717.424C878.476 713.512 877.962 707.743 877.665 703.563C876.68 689.656 874.184 675.74 871.642 662.049C867.058 637.363 861.414 613.157 855.272 588.816C845.086 548.445 819.644 448.584 788.84 422.088C771.482 407.157 751.773 394.61 732.585 382.208C724.57 377.027 716 372.267 708.458 366.429ZM596.322 368.399C580.545 382.379 570.414 412.471 565.661 432.636C571.217 425.126 577.323 409.313 581.879 404.305C585.235 405.94 586.048 408.964 587.222 412.342C590.915 422.963 594.055 433.783 598.008 444.314C598.35 435.24 598.817 371.499 596.322 368.399ZM577.526 381.996C563.976 390.294 527.349 412.958 518.882 423.045C514.777 427.937 512.232 433.89 510.776 440.066C507.056 455.847 506.992 478.487 506.271 494.965C523.884 495.213 541.835 497.834 559.337 499.808C565.331 500.484 572.771 500.499 578.483 502.243C579.831 504.579 579.902 507.779 579.983 510.441C580.436 525.269 579.218 540.275 579.004 555.115C578.922 560.837 579.688 584.391 578.712 587.887C578.459 588.794 578.122 589.237 577.493 589.908C570.633 592.948 516.626 583.348 505.533 582.281C505.861 598.009 511.272 727.848 514.561 731.614C515.839 731.988 517.087 732.302 518.392 732.567L574.825 745.904C581.312 747.44 592.972 751.26 599.298 751.302C599.98 750.325 600.632 749.412 600.797 748.193C601.459 743.288 600.564 737.54 600.29 732.578L598.563 702.131C595.486 647.28 593.757 592.363 593.377 537.428L593.612 480.256C593.726 470.67 595.112 459.684 593.511 450.281C592.316 443.262 585.027 422.832 581.957 415.599C578.205 422.636 568.335 444.151 561.631 446.661C560.328 446.533 559.83 446.521 558.889 445.478C557.46 443.896 558.081 441.056 558.432 439.171C561.962 420.193 568.218 399.444 577.908 382.706L577.526 381.996ZM89.9813 422.56C79.7278 425.743 68.8336 430.231 58.1329 431.327C79.2405 436.816 100.587 440.858 121.924 445.296C163.844 454.089 205.84 462.508 247.91 470.551L337.65 489.149C348.553 491.327 359.607 494.191 370.591 495.754C380.788 493.21 391.403 488.552 401.09 484.425C363.023 477.411 325.016 470.07 287.075 462.404L143.319 433.229C131.724 430.868 120.144 428.438 108.579 425.938C103.333 424.814 98.0203 423.364 92.7329 422.524C91.8071 422.377 90.9006 422.381 89.9813 422.56ZM53.7395 438.334C56.023 461.421 60.3503 484.457 63.6553 507.42L74.3033 581.759C79.5842 617.007 85.1476 652.166 89.8023 687.508C99.9223 690.755 110.401 693.089 120.698 695.713C141.598 700.906 162.457 706.268 183.27 711.798C193.732 686.591 202.682 660.397 211.861 634.674C215.786 623.674 219.218 612.23 223.854 601.522C224.578 599.852 225.463 597.331 227.255 596.583C228.489 596.069 229.89 596.041 231.194 596.26C233.722 596.684 236.175 597.795 238.706 598.345C246.075 599.947 261.951 601.834 267.786 604.833C268.754 605.33 269.567 605.787 270.139 606.74C270.228 615.049 261.667 641.116 259.103 650.588L238.532 728.013C256.023 732.671 273.552 737.182 291.118 741.545L363.399 760.754C378.358 764.717 393.421 768.439 408.27 772.793C404.582 750.098 401.832 727.396 398.622 704.649L379.164 568.876C376.995 554.266 374.945 539.639 373.013 524.996C371.978 517.247 371.424 509.101 369.722 501.491C335.226 494.865 300.782 487.971 266.393 480.809C231.587 474.125 196.816 467.257 162.082 460.204L89.7786 445.534C77.8983 443.129 65.7664 439.77 53.7395 438.334ZM497.743 469.872C492.318 485.285 489.74 501.856 486.808 517.875C478.718 562.084 474.46 607.4 470.757 652.18C468.882 674.85 467.414 697.562 464.989 720.184C469.978 721.224 474.947 722.364 479.891 723.601C487.714 725.438 495.568 727.471 503.489 728.825C498.05 671.451 495.228 613.859 495.034 556.228C495.193 535.668 495.614 515.11 496.299 494.56C496.551 487.591 498.188 475.891 497.743 469.872ZM405.987 488.983C395.846 493.111 385.604 497.646 375.195 501.015C377.637 512.681 378.907 524.715 380.662 536.507C384.884 565.576 388.925 594.671 392.785 623.791C398.304 661.227 403.602 698.695 408.678 736.194C410.46 749.094 412.863 761.942 414.297 774.883L414.868 776.089C418.526 777.177 438.05 770.902 442.103 768.966C440.655 749.849 437.103 730.713 434.563 711.704L421.917 612.253L410.833 520.968C409.988 514.132 408.466 494.307 406.516 489.344L405.987 488.983ZM505.829 499.957L505.498 516.406C520.515 517.446 535.574 519.377 550.517 521.219C558.15 522.16 565.972 522.803 573.548 524.032C573.694 518.49 573.944 512.926 573.961 507.384C551.272 504.714 528.561 502.238 505.829 499.957ZM505.229 521.943C504.986 540.254 505.061 558.568 505.455 576.876C527.999 579.207 550.676 583.979 573.281 585.052C573.558 566.617 573.213 548.176 573.469 529.741C550.696 527.335 528.044 524.035 505.229 521.943ZM425.32 585.843C425.659 591.316 426.477 596.763 427.18 602.2C431.032 603.235 461.333 610.388 462.79 610.007C463.092 609.928 463.339 609.71 463.613 609.561L463.83 608.896C464.423 604.078 464.929 599.231 465.655 594.431C452.264 591.44 438.846 588.168 425.32 585.843ZM232.127 605.371C225.817 619.448 221.195 634.357 215.749 648.786C206.802 672.495 197.327 695.975 188.546 719.751C183.411 733.655 178.078 747.513 172.708 761.329C168.162 773.024 163.443 784.7 159.897 796.75L180.558 802.266L190.718 805.245L226.134 689.437L240.251 642.393C243.512 631.76 247.506 620.921 249.902 610.084C244.213 607.938 238.164 606.194 232.127 605.371ZM427.773 609.228C430.172 632.522 433.773 655.777 436.906 678.984C438.509 690.864 439.649 702.809 441.147 714.704C446.009 715.395 450.815 716.43 455.53 717.802C455.756 714.995 456.011 712.193 456.068 709.376C457.326 688.651 458.83 667.941 460.578 647.252C461.362 637.301 461.65 627.15 462.954 617.266C451.123 615.065 439.386 612.384 427.773 609.228ZM255.856 610.684C245.017 644.792 235.623 679.36 225.397 713.649L209.569 766.437C205.404 779.946 200.946 793.4 197.11 807.005L204.389 809.14L205.634 809.307C208.084 806.658 258.86 628.252 261.881 611.407C259.875 611.139 257.873 610.857 255.856 610.684ZM777.217 670.94C777.34 678.29 776.874 686.182 777.689 693.459C778.495 693.204 778.787 692.982 779.432 692.466C781.811 688.62 779.026 677.368 778.025 672.679C777.867 671.938 777.688 671.528 777.217 670.94ZM235.363 737.694C233.103 744.892 230.989 752.134 229.023 759.417C238.654 757.654 247.949 753.884 257.386 751.304C262.205 750.145 266.883 748.656 271.647 747.316C259.677 743.937 247.548 740.196 235.363 737.694ZM285.075 750.032C273.74 754.089 262.318 757.698 250.84 761.322C243.924 763.505 236.8 766.191 229.644 767.398C251.398 774.466 274.006 779.825 296.122 785.703L399.201 813.64C427.252 821.085 455.632 827.724 483.275 836.618L549.942 813.534C558.952 810.461 568.012 807.535 577.118 804.758L539.944 795.169C540.297 797.828 540.627 799.676 538.836 801.89C537.614 803.402 535.914 804.462 534.166 805.261C527.782 808.181 491.386 820.904 485.752 821.276C482.777 821.473 479.737 820.845 476.852 820.178C450.869 814.173 425.153 806.11 399.371 799.236C361.598 789.165 323.42 779.845 285.944 768.761C284.243 768.258 281.792 767.682 280.474 766.461C279.45 765.512 279.355 765.319 279.364 764.02C283.144 759.668 297.4 755.96 303.081 754.379C298.855 753.32 288.868 749.813 285.075 750.032ZM311.667 756.528C304.663 760.035 297.062 761.566 289.923 764.607C306.461 767.616 322.987 772.8 339.237 777.096C374.999 786.551 410.577 796.692 446.468 805.65C455.731 807.961 476.252 814.506 484.47 814.678C490.9 814.812 507.556 807.92 514.128 805.293C521.096 802.907 528.823 800.853 535.074 796.877C525.023 793.683 514.5 791.476 504.278 788.854L447.967 774.088C439.211 780.606 425.653 781.513 415.343 784.832C404.418 781.047 393.073 778.304 381.895 775.373L336.735 763.44C328.464 761.231 319.711 759.424 311.667 756.528ZM225.378 772.122L222.505 779.944C244.419 786.355 266.254 793.027 288.008 799.96C297.56 803.098 306.809 807.079 316.454 809.934C334.336 815.228 352.557 819.583 370.559 824.483L476.894 853.571L477.981 853.189C479.411 850.12 479.056 844.981 479.13 841.614C394.401 818.984 309.815 795.819 225.378 772.122ZM160.824 773.16C146.201 776.375 131.866 780.783 117.114 783.438L127.121 786.326C136.009 789.096 145.578 791.277 154.206 794.675C155.346 791.665 161.814 775.217 160.98 773.256L160.824 773.16ZM220.111 786.79L213.209 811.551C219.521 813.224 227.106 816.161 233.449 817.04C239.705 817.907 247.174 816.265 253.435 815.525L284.535 811.864C288.555 811.394 292.64 811.051 296.627 810.359C270.966 803.275 245.422 795.059 220.111 786.79ZM115.43 790.449C115.479 792.423 115.794 793.683 117.221 795.133C118.98 796.92 122.889 798.211 125.257 799.047C134.467 802.301 144.006 804.796 153.4 807.471C177.572 814.354 202.488 820.664 226.007 829.57L226.486 821.148C203.203 815.714 180.054 808.505 157.144 801.626C145.405 798.101 126.92 790.821 115.43 790.449ZM583.26 809.575C561.832 815.045 540.806 822.683 519.918 829.917C508.39 833.909 495.643 837.457 484.841 843.101C484.568 845.691 483.89 848.693 484.636 851.217L485.458 851.864L487.631 851.275C497.718 847.266 586.324 811.054 586.757 810.131C585.466 809.644 584.612 809.58 583.26 809.575ZM297.275 815.641C281.855 818.591 265.999 819.757 250.42 821.727C244.602 822.463 238.626 822.987 232.897 824.264C232.777 825.98 232.333 828.184 233.074 829.773L234.109 829.917C241.44 828.49 295.176 818.728 298.254 815.858C297.93 815.775 297.609 815.619 297.275 815.641Z"/><path fill="#FCD34D" d="M375.398 200.473C359.485 199.024 341.71 200.084 325.577 200.166C319.082 200.199 312.168 200.683 305.736 199.659C302.145 199.087 298.934 197.951 295.981 195.794C290.022 191.441 286.429 185.112 285.406 177.831C284.235 169.502 285.03 160.353 285.011 151.914C284.987 140.744 283.825 123.75 285.663 113.485C286.523 108.686 288.36 104.111 291.336 100.22C296.468 93.5085 303.895 90.197 312.071 89.1664C317.682 88.737 323.481 88.9474 329.115 88.9041L363.089 88.8089C374.429 88.8085 391.528 87.7342 402.117 89.4806C407.064 90.2966 411.095 91.8784 414.989 95.0778C421.646 100.546 425.552 107.823 426.32 116.424C427.151 125.723 426.47 135.437 426.469 144.793C426.468 154.636 427.762 167.79 425.781 177.239C424.743 182.108 422.472 186.63 419.185 190.369C413.913 196.385 406.06 200.146 398.125 200.707L398.462 227.625L398.271 228.613C396.796 227.663 379.569 204.725 375.398 200.473ZM315.396 128.423C315.406 130.145 315.208 132.066 316.027 133.619C318.741 134.555 390.8 134.605 397.46 134.094C397.498 132.379 397.751 130.457 396.978 128.889C392.069 127.428 375.777 128.365 369.653 128.377L315.396 128.423ZM315.324 156.638C315.307 158.579 315.093 160.546 315.885 162.358C317.323 163.003 319.176 162.811 320.726 162.835C337.48 163.096 354.251 162.637 371.006 162.611C379.841 162.597 388.913 163.299 397.701 162.902L397.784 156.728L315.324 156.638Z"/><path fill="#FCD34D" d="M688.753 196.125C687.716 172.399 684.411 148.161 671.648 127.584C658.81 106.884 635.442 96.6205 612.61 91.2051C615.47 90.9486 618.378 90.913 621.248 90.9812C643.792 91.5173 665.915 101.826 681.38 118.101C701.409 139.177 706.224 172.373 705.628 200.508C699.982 197.071 695.208 196.335 688.753 196.125Z"/><path fill="#0C5261" d="M514.471 114.381C557.521 124.371 562.081 101.806 597.144 96.6732C615.209 95.1321 634.718 102.17 649.084 112.985C676.24 133.428 679.018 165.824 683.239 196.761C673.405 198.446 666.708 202.523 659.722 209.549C655.368 203.076 650.842 196.661 646.85 189.957C638.134 175.325 630.671 159.445 623.854 143.841L621.003 137.682C619.656 144.948 619.43 152.299 618.702 159.639C617.989 166.826 616.829 173.98 615.752 181.119C610.586 180.685 605.441 180.03 600.33 179.158C572.616 174.323 543.766 162.649 527.8 138.298C522.914 130.845 519.955 121.997 514.825 114.858C514.71 114.697 514.589 114.54 514.471 114.381Z"/><path fill="#0C5261" d="M710.495 203.13C710.669 180.633 709.839 158.382 701.771 137.048C694.683 118.302 681.178 104.698 662.998 96.5806C663.143 96.5792 663.288 96.5674 663.433 96.5764C671.904 97.1015 691.353 111.024 696.809 117.612C716.866 141.83 721.23 180.363 718.189 210.88L717.953 211.1C716.43 210.903 711.777 204.603 710.495 203.13Z"/><path fill="#0C5261" d="M525.232 181.209L524.436 181.128C513.861 169.151 501.959 155.085 503.247 138.002C503.774 131.004 507.171 126.391 512.237 121.897C514.054 124.361 514.975 128.961 516.008 131.914C519.877 142.987 526.118 152.662 535.065 160.313C531.069 167.012 528.061 173.968 525.232 181.209Z"/><path d="M397.46 134.094C390.8 134.605 318.741 134.555 316.027 133.619C315.208 132.066 315.406 130.145 315.396 128.423L369.653 128.377C375.777 128.365 392.069 127.428 396.978 128.889C397.751 130.457 397.498 132.379 397.46 134.094Z"/><path d="M397.701 162.902C388.913 163.299 379.841 162.597 371.006 162.611C354.251 162.637 337.48 163.096 320.726 162.835C319.176 162.811 317.323 163.003 315.885 162.358C315.093 160.546 315.307 158.579 315.324 156.638L397.784 156.728L397.701 162.902Z"/><path fill="white" d="M621.005 188.645C624.223 178.311 624.154 167.453 623.859 156.734C626.627 160.959 630.049 173.034 632.396 178.643C638.236 192.593 646.103 203.506 655.149 215.42C650.936 222.737 648.234 229.995 647.807 238.505C647.153 251.564 652.287 261.659 660.858 271.138C658.949 272.824 656.979 274.454 655.041 276.108C652.981 272.987 650.839 270.131 648.278 267.403C644.513 268.335 616.541 281.278 614.998 283.222C613.418 285.213 613.18 287.61 613.657 290.042C614.361 293.627 616.514 297.51 619.62 299.545C625.917 303.67 637.92 296.945 643.181 292.962C648.95 288.595 658.7 276.947 666.084 275.532C667.173 275.323 667.374 275.566 668.249 276.138C668.22 276.304 668.197 276.472 668.16 276.637C663.435 297.53 642.54 311.354 625.535 321.934C622.1 323.995 618.652 325.953 615.007 327.623C601.798 333.676 577.501 340.311 563.366 334.737C551.936 330.23 545.674 312.927 541.311 302.408C527.399 268.863 525.572 229.348 531.87 193.903C533.677 183.736 535.858 173.931 539.833 164.351C560.464 184.044 593.703 188.074 621.005 188.645ZM602.034 199.596C598.697 200.34 594.045 201.459 592.121 204.587C591.639 205.369 591.498 205.769 591.48 206.658L592.185 207.362C599.972 207.068 606.541 205.236 614.416 206.773C616.738 207.48 620.508 209.224 622.813 208.022C623.539 207.643 623.303 207.689 623.597 206.757C622.429 204.056 619.476 202.469 616.845 201.45C612.043 199.589 607.124 199.313 602.034 199.596ZM545.13 200.142C541.576 200.727 535.729 201.696 533.536 204.746C534.004 205.761 533.667 205.509 534.644 205.914C540.98 208.54 547.84 204.585 555.335 208.791C557.181 210.195 559.282 212.494 561.618 212.592C562.191 212.074 562.538 212.001 562.621 211.172C562.84 208.958 561.384 206.558 559.97 204.962C557.289 201.935 553.538 200.327 549.538 200.067C548.113 199.975 546.551 200.011 545.13 200.142ZM568.993 216.811C568.941 228.625 567.393 239.769 562.209 250.52C560.66 253.73 555.92 260.698 555.595 263.812C555.467 265.041 556.431 266.373 557.259 267.187C562.448 272.287 573.053 274.496 579.975 275.663C581.62 274.322 583.65 272.884 584.071 270.666C584.229 269.831 583.876 269.541 583.502 268.836C579.47 266.163 570.124 266.036 564.373 263.503C569.848 251.869 577.014 234.793 572.148 221.888C571.433 219.993 570.504 218.181 568.993 216.811ZM546.582 219.051C543.688 220.973 541.996 222.685 541.249 226.177C540.704 228.728 540.978 231.493 542.477 233.686C543.764 235.57 545.967 236.9 548.243 237.149C549.19 237.253 550.171 237.205 551.122 237.168C553.825 235.418 555.75 233.527 556.514 230.292C557.12 227.733 556.786 224.865 555.304 222.656C554.097 220.855 551.95 219.246 549.752 218.964C548.718 218.832 547.617 218.966 546.582 219.051ZM605.518 218.993C602.68 220.818 600.795 222.636 599.987 226.019C599.357 228.657 599.57 231.514 601.009 233.862C602.245 235.877 604.464 237.369 606.768 237.873C607.753 238.088 608.793 238.046 609.792 238.001C612.947 235.949 614.958 234.054 615.762 230.254C616.312 227.653 616.001 224.89 614.488 222.659C613.306 220.915 611.314 219.534 609.244 219.095C608.065 218.846 606.711 218.891 605.518 218.993ZM609.835 281.235C599.132 282.34 588.448 283.559 577.671 283.524C569.961 283.499 562.069 282.473 554.412 282.715C553.019 282.759 552.35 282.912 551.292 283.803C549.711 288.08 553.634 296.2 555.45 300.116C556.965 303.386 558.633 306.305 561.13 308.943C566.205 313.704 571.736 316.801 578.915 316.519C588.165 316.155 596.92 311.047 602.965 304.248C606.759 299.98 612.569 288.678 612.234 282.919C612.179 281.974 611.957 281.928 611.395 281.233C610.912 281.214 610.301 281.114 609.835 281.235Z"/><path d="M966.156 322.149C965.905 333.337 967.808 383.174 964.492 388.528C956.643 388.583 948.678 387.008 940.918 385.91L906.141 381.053L825.433 369.477C806.884 366.817 788.24 364.474 769.749 361.447C767.946 361.152 765.658 360.862 764.117 359.849C762.416 355.452 763.337 207.51 763.986 193.947C764.089 191.783 764.344 189.696 764.974 187.616C769.443 187.403 774.124 188.178 778.582 188.562L801.456 190.499C821.776 192.317 842.112 193.952 862.461 195.403C872.22 196.142 881.985 197.202 891.766 197.577C894.179 199.784 896.139 202.247 897.879 205.016C874.828 202.42 851.698 200.873 828.584 198.975C808.934 197.361 789.281 195.331 769.625 193.878L769.247 355.365L843.585 366.171C882.467 371.56 921.474 376.538 960.235 382.72L960.166 336.855C960.132 328.426 959.108 318.551 960.813 310.292C962.963 314.034 964.87 318.024 966.156 322.149Z"/><path fill="#FCD34D" d="M897.879 205.016C900.2 208.419 902.526 212.864 906.009 215.166C905.727 215.193 905.445 215.224 905.163 215.247C899.406 215.718 886.21 213.583 879.899 212.977C856.399 210.638 832.869 208.614 809.314 206.907C801.838 206.318 790.905 204.473 783.872 204.678C782.424 204.72 782.127 205.01 780.995 205.845C779.943 208.609 779.725 340.612 781.424 347.423C782.563 348.721 785.53 348.934 787.184 349.206C817.929 354.266 849.144 357.608 880.027 361.854L922.721 367.905C929.423 368.819 936.235 370.019 942.981 370.502C944.564 370.615 946.089 370.686 947.669 370.485C949.516 368.786 949.541 367.61 949.639 365.159C950.343 347.536 949.577 328.042 949.617 310.218C949.632 303.412 948.688 294.695 950.463 288.161C953.813 295.513 957.985 302.755 960.813 310.292C959.108 318.551 960.132 328.426 960.166 336.855L960.235 382.72C921.474 376.538 882.467 371.56 843.585 366.171L769.247 355.365L769.625 193.878C789.281 195.331 808.934 197.361 828.584 198.975C851.698 200.873 874.828 202.42 897.879 205.016Z"/><path d="M614.416 206.773C606.541 205.236 599.972 207.068 592.185 207.362L591.48 206.658C591.498 205.769 591.639 205.369 592.121 204.587C594.045 201.459 598.697 200.34 602.034 199.596C607.124 199.313 612.043 199.589 616.845 201.45C619.476 202.469 622.429 204.056 623.597 206.757C623.303 207.689 623.539 207.643 622.813 208.022C620.508 209.224 616.738 207.48 614.416 206.773Z"/><path d="M555.335 208.791C547.84 204.585 540.98 208.54 534.644 205.914C533.667 205.509 534.004 205.761 533.536 204.746C535.729 201.696 541.576 200.727 545.13 200.142C546.551 200.011 548.113 199.975 549.538 200.067C553.538 200.327 557.289 201.935 559.97 204.962C561.384 206.558 562.84 208.958 562.621 211.172C562.538 212.001 562.191 212.074 561.618 212.592C559.282 212.494 557.181 210.195 555.335 208.791Z"/><path fill="#098EAD" d="M666.296 267.124C665.779 266.827 665.277 266.504 664.792 266.157C658.902 262.009 655.156 253.475 654.004 246.553C652.368 236.725 655.071 225.558 660.865 217.477C667.029 208.881 675.023 203.845 685.426 202.164C690.703 201.413 696.085 202.049 701.041 204.01C709.228 207.191 715.951 212.694 719.419 220.905C723.321 230.197 723.385 240.657 719.595 249.995C715.781 259.311 707.923 267.503 698.565 271.304C689.773 274.78 679.956 274.593 671.302 270.785L677.771 265.037C682.717 266.358 687.619 267.057 692.722 266.127C700.749 264.663 707.138 259.454 711.54 252.779C716.567 245.159 717.634 237.278 715.773 228.42C714.274 223.712 712.068 219.339 708.65 215.724C704.211 211.031 698.371 208.375 691.897 208.28C684.526 208.172 677.59 211.388 672.444 216.58C666.372 222.705 663.231 230.919 663.334 239.514C663.443 248.554 666.896 255.343 673.263 261.587C671.025 263.581 668.72 265.362 666.296 267.124Z"/><path d="M950.463 288.161C948.688 294.695 949.632 303.412 949.617 310.218C949.577 328.042 950.343 347.536 949.639 365.159C949.541 367.61 949.516 368.786 947.669 370.485C946.089 370.686 944.564 370.615 942.981 370.502C936.235 370.019 929.423 368.819 922.721 367.905L880.027 361.854C849.144 357.608 817.929 354.266 787.184 349.206C785.53 348.934 782.563 348.721 781.424 347.423C779.725 340.612 779.943 208.609 780.995 205.845C782.127 205.01 782.424 204.72 783.872 204.678C790.905 204.473 801.838 206.318 809.314 206.907C832.869 208.614 856.399 210.638 879.899 212.977C886.21 213.583 899.406 215.718 905.163 215.247C905.445 215.224 905.727 215.193 906.009 215.166C908.085 216.248 910.002 220.086 911.368 222.025C889.471 219.197 867.182 217.933 845.174 216.075C825.592 214.421 805.918 212.105 786.321 210.884L786.47 343.358C808.98 344.987 831.642 349.341 854.002 352.443C883.81 356.579 913.821 359.996 943.51 364.891C943.841 334.887 943.897 304.881 943.68 274.876C946.268 279.156 948.57 283.526 950.463 288.161Z"/><path fill="#FCD34D" d="M786.321 210.884C805.918 212.105 825.592 214.421 845.174 216.075C867.182 217.933 889.471 219.197 911.368 222.025C923.263 238.866 933.549 256.929 943.68 274.876C943.897 304.881 943.841 334.887 943.51 364.891C913.821 359.996 883.81 356.579 854.002 352.443C831.642 349.341 808.98 344.987 786.47 343.358L786.321 210.884ZM803.613 237.395C802.338 238.688 801.707 239.411 801.328 241.207C801.643 242.326 801.666 242.907 802.841 243.445C804.635 244.267 907.15 255.448 918.835 255.925C919.814 254.658 920.281 253.967 920.41 252.299C919.841 251.206 919.529 250.705 918.29 250.345C912.021 248.527 897.299 247.821 889.912 246.966L841.519 241.528C828.882 240.217 816.188 239.203 803.613 237.395ZM804.323 270.19C803.103 270.855 802.5 271.367 801.673 272.484C801.859 273.599 802.123 274.228 803.071 274.929C804.573 276.038 807.408 276.454 809.26 276.745C824.191 279.095 839.498 280.271 854.524 282.01C876.096 284.506 897.834 287.408 919.491 289.014C920.391 287.805 921.042 286.858 920.951 285.271C920.886 284.114 920.432 283.814 919.64 283.115C901.801 280.398 883.524 279.059 865.581 276.962L825.548 272.424C818.508 271.645 811.388 270.611 804.323 270.19ZM803.828 302.457C802.958 303.905 802.568 304.833 802.408 306.522C802.919 307.676 802.972 307.936 804.272 308.353C809.026 309.878 815.191 309.996 820.15 310.593L855.53 314.825L897.621 320.148C904.696 321.059 911.927 322.375 919.037 322.789C919.667 321.17 920.155 319.972 920.041 318.219C918.939 316.666 917.831 316.619 915.952 316.294C904.845 314.372 893.432 313.491 882.241 312.102C866.024 310.089 849.861 307.725 833.624 305.876C823.776 304.755 813.582 304.118 803.828 302.457Z"/><path fill="#FCD34D" d="M693.012 260.451C690.037 260.693 687.166 260.533 684.363 259.421C679.405 257.454 675.865 253.272 673.97 248.359C671.581 242.162 671.709 234.311 674.481 228.255C677.275 222.155 681.912 218.402 688.085 216.135C692.003 215.777 695.187 215.844 698.761 217.695C703.501 220.15 706.59 224.67 708.038 229.725C710.021 236.645 709.469 245.17 705.827 251.446C702.836 256.598 698.551 258.926 693.012 260.451Z"/><path d="M579.975 275.663C573.053 274.496 562.448 272.287 557.259 267.187C556.431 266.373 555.467 265.041 555.595 263.812C555.92 260.698 560.66 253.73 562.209 250.52C567.393 239.769 568.941 228.625 568.993 216.811C570.504 218.181 571.433 219.993 572.148 221.888C577.014 234.793 569.848 251.869 564.373 263.503C570.124 266.036 579.47 266.163 583.502 268.836C583.876 269.541 584.229 269.831 584.071 270.666C583.65 272.884 581.62 274.322 579.975 275.663Z"/><path d="M551.122 237.168C550.171 237.205 549.19 237.253 548.243 237.149C545.967 236.9 543.764 235.57 542.477 233.686C540.978 231.493 540.704 228.728 541.249 226.177C541.996 222.685 543.688 220.973 546.582 219.051C547.617 218.966 548.718 218.832 549.752 218.964C551.95 219.246 554.097 220.855 555.304 222.656C556.786 224.865 557.12 227.733 556.514 230.292C555.75 233.527 553.825 235.418 551.122 237.168Z"/><path d="M609.792 238.001C608.793 238.046 607.753 238.088 606.768 237.873C604.464 237.369 602.245 235.877 601.009 233.862C599.57 231.514 599.357 228.657 599.987 226.019C600.795 222.636 602.68 220.818 605.518 218.993C606.711 218.891 608.065 218.846 609.244 219.095C611.314 219.534 613.306 220.915 614.488 222.659C616.001 224.89 616.312 227.653 615.762 230.254C614.958 234.054 612.947 235.949 609.792 238.001Z"/><path d="M918.835 255.925C907.15 255.448 804.635 244.267 802.841 243.445C801.666 242.907 801.643 242.326 801.328 241.207C801.707 239.411 802.338 238.688 803.613 237.395C816.188 239.203 828.882 240.217 841.519 241.528L889.912 246.966C897.299 247.821 912.021 248.527 918.29 250.345C919.529 250.705 919.841 251.206 920.41 252.299C920.281 253.967 919.814 254.658 918.835 255.925Z"/><path d="M95.71 248.773C96.5836 246.978 97.4772 245.457 98.7287 243.899C123.74 246.574 148.725 249.484 173.682 252.627C181.222 253.508 198.403 254.445 204.829 256.309C205.779 257.643 205.854 258.971 205.934 260.561C206.439 270.66 206.001 280.982 206.028 291.103C206.228 309.071 206.299 327.041 206.239 345.01C206.226 352.458 207.014 374.55 205.728 380.334C205.425 381.697 204.351 382.502 203.329 383.339C201.575 383.74 199.594 383.287 197.831 383.057L99.4477 369.459L75.2164 366.12C69.1013 365.299 62.3095 364.927 56.5077 362.807C53.1445 357.317 55.3405 337.768 54.582 330.344C55.5304 326.628 57.7725 323.101 59.635 319.784C61.572 328.296 60.1709 348.431 60.432 358.351C65.8776 359.567 71.6953 360.012 77.2377 360.75L108.59 364.941L200.395 377.713C200.853 338.896 200.487 300.015 200.457 261.194C179.262 259.358 158.227 256.273 137.105 253.813C123.522 252.232 109.073 251.574 95.71 248.773Z"/><path fill="#FCD34D" d="M92.1998 254.122C93.3064 252.291 94.4926 250.532 95.71 248.773C109.073 251.574 123.522 252.232 137.105 253.813C158.227 256.273 179.262 259.358 200.457 261.194C200.487 300.015 200.853 338.896 200.395 377.713L108.59 364.941L77.2377 360.75C71.6953 360.012 65.8776 359.567 60.432 358.351C60.1709 348.431 61.572 328.296 59.635 319.784C62.1757 314.579 64.4572 309.294 66.7151 303.963C67.4681 307.271 67.0433 311.277 66.9954 314.675C66.8871 322.344 65.504 347.736 67.167 353.295C67.3594 353.379 67.5504 353.466 67.7444 353.546C73.5543 355.94 92.4269 357.404 99.8092 358.467L151.289 365.642C162.975 367.324 174.667 369.389 186.408 370.616C188.423 370.826 191.049 371.319 192.938 370.502C194.464 364.813 194.086 271.268 193.128 267.263C192.057 266.302 190.975 266.141 189.602 265.882C179.532 263.981 168.847 263.345 158.641 262.069C136.509 259.299 114.361 256.65 92.1998 254.122Z"/><path d="M89.2947 259.297C90.2033 257.534 91.1977 255.832 92.1998 254.122C114.361 256.65 136.509 259.299 158.641 262.069C168.847 263.345 179.532 263.981 189.602 265.882C190.975 266.141 192.057 266.302 193.128 267.263C194.086 271.268 194.464 364.813 192.938 370.502C191.049 371.319 188.423 370.826 186.408 370.616C174.667 369.389 162.975 367.324 151.289 365.642L99.8092 358.467C92.4269 357.404 73.5543 355.94 67.7444 353.546C67.5504 353.466 67.3594 353.379 67.167 353.295C65.504 347.736 66.8871 322.344 66.9954 314.675C67.0433 311.277 67.4681 307.271 66.7151 303.963C67.7296 298.976 70.6008 293.445 73.0886 289.02C72.5528 308.998 72.317 328.984 72.3815 348.969C85.4018 351.361 98.9401 352.583 112.075 354.409L187.942 365.198L187.954 271.705C177.412 269.821 166.48 269.08 155.843 267.769L89.2947 259.297Z"/><path d="M402.136 411.623C391.392 411.336 376.826 407.828 365.802 406.254C335.596 402.085 305.414 397.748 275.257 393.244C268.204 392.223 247.97 390.575 243.27 388.251C243.061 387.702 242.88 387.212 242.782 386.629C241.832 380.978 242.382 374.589 242.371 368.855L242.395 333.842L242.402 287.311C242.398 279.229 242.016 270.93 242.502 262.869C242.605 261.177 242.878 260.34 243.866 258.961C253.333 259.337 263.086 260.868 272.514 261.944C288.269 263.848 304.049 265.55 319.848 267.051L372.539 272.603C382.486 273.599 392.937 273.72 402.697 275.857C403.066 283.099 402.615 290.608 402.62 297.882L402.637 347.25L402.691 389.737C402.698 396.428 403.738 405.188 402.136 411.623ZM247.72 264.847L247.906 383.83C297.731 390.353 347.328 398.468 397.11 405.26L396.981 281.165C347.272 275.503 297.335 271.24 247.72 264.847Z"/><path fill="#FCD34D" d="M73.0886 289.02C79.0142 279.496 83.9482 269.17 89.2947 259.297L155.843 267.769C166.48 269.08 177.412 269.821 187.954 271.705L187.942 365.198L112.075 354.409C98.9401 352.583 85.4018 351.361 72.3815 348.969C72.317 328.984 72.5528 308.998 73.0886 289.02ZM83.683 277.847C83.2628 279.585 82.8673 281.002 83.1529 282.787C83.3824 283.013 83.5674 283.296 83.8414 283.465C86.1393 284.885 169.427 294.556 175.768 294.533C176.116 292.953 176.565 291.601 176.014 290.013C175.387 289.364 175.012 289.181 174.125 288.994C165.694 287.214 156.441 286.803 147.866 285.776C126.501 283.22 104.962 281.008 83.683 277.847ZM84.7593 300.954C84.6138 302.608 84.2423 304.312 84.963 305.864C92.4747 308.521 167.684 317.747 176.183 317.64C176.222 315.939 176.463 314.342 175.516 312.843C171.034 310.826 156.153 309.977 150.274 309.203C128.494 306.335 106.635 302.97 84.7593 300.954ZM84.6068 322.883C84.4921 324.726 84.1235 326.792 84.9594 328.487C85.4546 328.75 170.08 340.893 175.279 341.095C175.386 339.307 175.703 337.409 174.924 335.747C169.99 333.978 163.848 333.67 158.622 332.916L129.232 328.765C115.349 326.842 98.3183 323.316 84.6068 322.883Z"/><path fill="#FCD34D" d="M247.906 383.83L247.72 264.847C297.335 271.24 347.272 275.503 396.981 281.165L397.11 405.26C347.328 398.468 297.731 390.353 247.906 383.83ZM256.905 272.023C256.117 273.601 255.897 274.826 255.815 276.589C255.385 285.819 255.29 375.089 256.233 377.583C256.53 378.367 257.611 378.532 258.354 378.775C264.363 380.745 271.487 381.021 277.748 381.934C290.328 383.859 302.92 385.708 315.523 387.481L363.591 394.342C371.51 395.465 379.677 397.092 387.642 397.655C388.427 396.454 388.539 395.564 388.602 394.149C389.008 384.928 389.433 290.279 388.664 288.29C388.199 287.089 387.338 287.081 386.199 286.747C380.493 285.074 373.967 284.811 368.061 284.134L337.72 280.638L284.42 274.539C275.396 273.568 265.972 272.082 256.905 272.023Z"/><path d="M919.491 289.014C897.834 287.408 876.096 284.506 854.524 282.01C839.498 280.271 824.191 279.095 809.26 276.745C807.408 276.454 804.573 276.038 803.071 274.929C802.123 274.228 801.859 273.599 801.673 272.484C802.5 271.367 803.103 270.855 804.323 270.19C811.388 270.611 818.508 271.645 825.548 272.424L865.581 276.962C883.524 279.059 901.801 280.398 919.64 283.115C920.432 283.814 920.886 284.114 920.951 285.271C921.042 286.858 920.391 287.805 919.491 289.014Z"/><path d="M387.642 397.655C379.677 397.092 371.51 395.465 363.591 394.342L315.523 387.481C302.92 385.708 290.328 383.859 277.748 381.934C271.487 381.021 264.363 380.745 258.354 378.775C257.611 378.532 256.53 378.367 256.233 377.583C255.29 375.089 255.385 285.819 255.815 276.589C255.897 274.826 256.117 273.601 256.905 272.023C265.972 272.082 275.396 273.568 284.42 274.539L337.72 280.638L368.061 284.134C373.967 284.811 380.493 285.074 386.199 286.747C387.338 287.081 388.199 287.089 388.664 288.29C389.433 290.279 389.008 384.928 388.602 394.149C388.539 395.564 388.427 396.454 387.642 397.655ZM261.505 278.02L261.387 373.704C281.879 376.171 302.275 379.823 322.728 382.667C342.675 385.439 363.194 387.365 382.89 391.513L382.857 291.785L305.056 282.895C290.575 281.279 275.914 280.172 261.505 278.02Z"/><path fill="#0C5261" d="M625.055 293.947C624.871 293.964 624.687 293.994 624.502 293.998C623.521 294.021 622.307 293.74 621.669 292.948C620.89 291.983 620.325 290.44 620.593 289.194C621.211 286.32 642.885 276.148 646.902 273.876C647.085 273.909 647.272 273.927 647.452 273.976C649.641 274.575 650.827 277.271 651.928 279.074C643.749 285.051 634.98 291.346 625.055 293.947Z"/><path d="M175.768 294.533C169.427 294.556 86.1393 284.885 83.8414 283.465C83.5674 283.296 83.3824 283.013 83.1529 282.787C82.8673 281.002 83.2628 279.585 83.683 277.847C104.962 281.008 126.501 283.22 147.866 285.776C156.441 286.803 165.694 287.214 174.125 288.994C175.012 289.181 175.387 289.364 176.014 290.013C176.565 291.601 176.116 292.953 175.768 294.533Z"/><path fill="#FCD34D" d="M261.387 373.704L261.505 278.02C275.914 280.172 290.575 281.279 305.056 282.895L382.857 291.785L382.89 391.513C363.194 387.365 342.675 385.439 322.728 382.667C302.275 379.823 281.879 376.171 261.387 373.704ZM275.661 295.985C274.703 297.191 274.184 297.845 274.096 299.459C274.562 300.655 274.862 301.489 276.123 302.04C279.856 303.671 296.902 304.988 301.798 305.607C322.855 308.267 344.231 310.568 365.126 314.297C366.482 312.794 366.054 309.597 366.044 307.588C346.393 305.285 326.76 302.82 307.149 300.192C296.701 298.829 286.032 297.819 275.661 295.985ZM275.335 319.429C274.852 321.22 274.365 322.699 274.664 324.557C275.605 325.765 276.14 325.805 277.651 326.12C286.35 327.932 295.675 328.514 304.525 329.648L360.259 336.683C362.068 336.909 363.868 337.115 365.688 337.242C365.715 335.243 365.805 333.223 365.755 331.226C343.527 328.689 321.337 325.828 299.192 322.644C291.259 321.54 283.234 320.715 275.335 319.429ZM275.769 342.399C274.794 343.926 274.538 344.702 274.382 346.507C274.792 347.579 274.825 348.136 276.009 348.561C279.599 349.85 284.684 349.991 288.502 350.507L316.384 354.239L347.276 358.471C352.882 359.248 358.603 360.36 364.241 360.673C364.713 359.07 364.925 357.887 364.834 356.213C364.182 355.134 363.998 355.065 362.723 354.718C356.401 352.997 349.082 352.582 342.548 351.667L295.704 345.456C289.209 344.606 282.044 344.259 275.769 342.399Z"/><path d="M561.13 308.943C558.633 306.305 556.965 303.386 555.45 300.116C553.634 296.2 549.711 288.08 551.292 283.803C552.35 282.912 553.019 282.759 554.412 282.715C562.069 282.473 569.961 283.499 577.671 283.524C588.448 283.559 599.132 282.34 609.835 281.235C610.301 281.114 610.912 281.214 611.395 281.233C611.957 281.928 612.179 281.974 612.234 282.919C612.569 288.678 606.759 299.98 602.965 304.248C596.92 311.047 588.165 316.155 578.915 316.519C571.736 316.801 566.205 313.704 561.13 308.943ZM601.76 288.712C587.206 290.5 573.172 291.228 558.542 289.88C560.392 295.559 562.348 299.79 566.558 304.168C570.83 307.545 575.186 309.952 580.841 309.326C587.908 308.543 594.84 303.288 599.087 297.77C600.873 295.451 603.687 291.975 603.564 288.973C602.608 288.46 602.735 288.573 601.76 288.712Z"/><path fill="white" d="M558.542 289.88C573.172 291.228 587.206 290.5 601.76 288.712C602.735 288.573 602.608 288.46 603.564 288.973C603.687 291.975 600.873 295.451 599.087 297.77C594.84 303.288 587.908 308.543 580.841 309.326C575.186 309.952 570.83 307.545 566.558 304.168C562.348 299.79 560.392 295.559 558.542 289.88Z"/><path fill="white" d="M603.455 364.988C609.376 359.403 616.002 354.466 622.037 348.974C640.002 332.626 657.968 313.275 669.835 291.954C671.643 294.281 672.593 319.064 673.177 324.135C673.721 328.853 674.603 333.546 675.44 338.22C672.723 344.02 668.434 349.045 664.531 354.079C657.722 362.96 650.713 371.686 643.511 380.251C639.08 385.469 634.028 390.489 630.017 396.019C625.938 401.642 623.072 408.396 619.96 414.589C615.703 423.091 611.367 431.554 606.953 439.975C606.634 440.583 606.247 441.151 605.878 441.73C604.042 439.382 603.896 373.893 603.455 364.988Z"/><path d="M365.126 314.297C344.231 310.568 322.855 308.267 301.798 305.607C296.902 304.988 279.856 303.671 276.123 302.04C274.862 301.489 274.562 300.655 274.096 299.459C274.184 297.845 274.703 297.191 275.661 295.985C286.032 297.819 296.701 298.829 307.149 300.192C326.76 302.82 346.393 305.285 366.044 307.588C366.054 309.597 366.482 312.794 365.126 314.297Z"/><path d="M176.183 317.64C167.684 317.747 92.4747 308.521 84.963 305.864C84.2423 304.312 84.6138 302.608 84.7593 300.954C106.635 302.97 128.494 306.335 150.274 309.203C156.153 309.977 171.034 310.826 175.516 312.843C176.463 314.342 176.222 315.939 176.183 317.64Z"/><path d="M919.037 322.789C911.927 322.375 904.696 321.059 897.621 320.148L855.53 314.825L820.15 310.593C815.191 309.996 809.026 309.878 804.272 308.353C802.972 307.936 802.919 307.676 802.408 306.522C802.568 304.833 802.958 303.905 803.828 302.457C813.582 304.118 823.776 304.755 833.624 305.876C849.861 307.725 866.024 310.089 882.241 312.102C893.432 313.491 904.845 314.372 915.952 316.294C917.831 316.619 918.939 316.666 920.041 318.219C920.155 319.972 919.667 321.17 919.037 322.789Z"/><path d="M365.688 337.242C363.868 337.115 362.068 336.909 360.259 336.683L304.525 329.648C295.675 328.514 286.35 327.932 277.651 326.12C276.14 325.805 275.605 325.765 274.664 324.557C274.365 322.699 274.852 321.22 275.335 319.429C283.234 320.715 291.259 321.54 299.192 322.644C321.337 325.828 343.527 328.689 365.755 331.226C365.805 333.223 365.715 335.243 365.688 337.242Z"/><path d="M175.279 341.095C170.08 340.893 85.4546 328.75 84.9594 328.487C84.1235 326.792 84.4921 324.726 84.6068 322.883C98.3183 323.316 115.349 326.842 129.232 328.765L158.622 332.916C163.848 333.67 169.99 333.978 174.924 335.747C175.703 337.409 175.386 339.307 175.279 341.095Z"/><path fill="#098EAD" d="M607.464 753.296C606.684 743.12 606.376 732.908 605.796 722.719C604.386 698.896 603.166 675.061 602.138 651.218C599.559 597.803 598.603 544.323 599.271 490.85C599.419 483.59 598.605 463.59 599.992 458.015C601.728 457.434 603.765 456.79 605.025 455.392C607.197 452.983 608.818 448.713 610.406 445.807C615.131 437.159 620.054 428.565 624.489 419.764C627.362 414.062 629.544 407.733 633.061 402.404C638.476 394.198 646.127 386.675 652.446 379.089C665.851 362.996 678.184 346.641 688.303 328.279C691.107 330.304 703.332 353.882 705.737 358.664C701.135 369.989 694.494 380.586 688.499 391.207C679.64 406.903 670.744 423.515 664.236 440.324C659.401 433.451 654.684 426.386 650.19 419.286C647.699 415.352 645.522 410.823 642.458 407.319C641.533 407.053 641.151 406.957 640.191 407.239C639.232 407.52 638.753 408.29 638.251 409.116C634.117 415.92 630.444 423.076 626.322 429.922C621.254 438.337 615.718 446.495 610.837 455.011C612.016 482.838 610.693 510.923 611.189 538.795C612.133 599.283 614.464 659.742 618.18 720.123C619.036 732.075 619.852 744.157 620.056 756.136C615.831 755.315 611.632 754.368 607.464 753.296Z"/><path d="M364.241 360.673C358.603 360.36 352.882 359.248 347.276 358.471L316.384 354.239L288.502 350.507C284.684 349.991 279.599 349.85 276.009 348.561C274.825 348.136 274.792 347.579 274.382 346.507C274.538 344.702 274.794 343.926 275.769 342.399C282.044 344.259 289.209 344.606 295.704 345.456L342.548 351.667C349.082 352.582 356.401 352.997 362.723 354.718C363.998 355.065 364.182 355.134 364.834 356.213C364.925 357.887 364.713 359.07 364.241 360.673Z"/><path fill="#098EAD" d="M641.259 416.159C644.985 422.114 657.609 442.296 662.229 445.973C663.399 446.904 663.945 446.875 665.394 446.745C666.756 446.06 667.226 445.176 667.945 443.897C673.434 434.134 677.633 423.485 682.839 413.529C691.126 397.684 700.284 382.341 708.458 366.429C716 372.267 724.57 377.027 732.585 382.208C751.773 394.61 771.482 407.157 788.84 422.088C819.644 448.584 845.086 548.445 855.272 588.816C861.414 613.157 867.058 637.363 871.642 662.049C874.184 675.74 876.68 689.656 877.665 703.563C877.962 707.743 878.476 713.512 876.728 717.424C873.002 725.763 864.153 734.968 858.363 742.141C847.893 755.25 837.26 768.229 826.469 781.075C820.9 787.762 815.693 794.783 810.003 801.355C781.202 794.671 752.169 788.379 723.524 781.09C731.29 769.127 740.63 757.958 749.372 746.689C762.992 729.135 776.547 711.547 789.468 693.481C793.266 692.387 796.986 691.041 800.604 689.452C806.179 687.033 829.127 678.055 831.052 673.173C830.708 672.136 830.514 671.999 829.679 671.272C824.623 670.364 803.554 682.194 798.135 684.84C802.669 679.889 827.427 655.783 828.457 652.975C828.08 651.734 827.727 651.625 826.691 650.81C825.161 650.721 824.558 650.92 823.266 651.759C813.646 658.007 802.933 673.59 792.877 681.338L792.318 681.765C791.072 670.98 786.235 659.808 782.764 649.531C773.875 623.217 764.021 597.297 754.548 571.193C753.915 569.552 752.715 568.295 752.263 566.505C749.051 553.786 749.501 520.495 751.04 506.715C753.581 483.961 761.199 453.464 776.023 435.929C778.364 433.16 780.934 431.481 783.561 429.111C784.427 428.331 785.144 427.505 785.049 426.255C784.955 425.022 784.361 424.729 783.47 424.059C781.238 423.865 779.448 425.377 777.754 426.661C771.063 431.733 766.071 439.254 762.158 446.571C747.067 474.789 743.434 509.444 744.417 541.001C744.575 546.482 744.904 551.957 745.405 557.418C745.788 561.502 747.358 566.836 746.723 570.794C745.587 577.876 760.883 614.497 763.178 624.964C764.465 630.837 763.451 637.182 763.588 643.175C764.096 665.327 763.746 687.566 764.735 709.696C746.504 732.087 730.041 756.12 711.163 777.96C702.254 776.219 693.468 773.867 684.633 771.787C665.374 767.281 646.153 762.609 626.974 757.771C624.367 732.559 623.445 707.034 622.047 681.734C619.842 641.858 617.879 601.723 617.109 561.792C616.425 526.328 616.805 490.843 616.628 455.374C625.66 442.961 633.483 429.393 641.259 416.159ZM635.831 509.989C635.082 511.115 634.604 511.956 634.44 513.316C632.925 525.874 634.434 539.627 634.453 552.289C634.469 563.333 632.588 582.516 634.794 592.624C635.225 594.599 636.034 597.84 637.841 599.005C640.052 600.431 642.696 601.215 645.252 601.746C659.702 604.743 675.097 605.736 689.781 607.464C702.496 608.96 715.673 611.299 728.437 611.742C729.451 610.57 729.747 610.295 729.921 608.71C730.948 599.392 730.083 587.455 730.071 577.852C730.048 559.615 730.75 540.616 729.426 522.488C729.285 520.553 729.112 518.582 728.235 516.828C724.07 516.045 719.574 516.289 715.341 516.121C710.205 515.875 705.076 515.522 699.955 515.061L657.308 511.522C650.29 510.937 642.843 509.753 635.831 509.989Z"/><path fill="#098EAD" d="M565.661 432.636C570.414 412.471 580.545 382.379 596.322 368.399C598.817 371.499 598.35 435.24 598.008 444.314C594.055 433.783 590.915 422.963 587.222 412.342C586.048 408.964 585.235 405.94 581.879 404.305C577.323 409.313 571.217 425.126 565.661 432.636Z"/><path fill="#098EAD" d="M506.271 494.965C506.992 478.487 507.056 455.847 510.776 440.066C512.232 433.89 514.777 427.937 518.882 423.045C527.349 412.958 563.976 390.294 577.526 381.996L577.908 382.706C568.218 399.444 561.962 420.193 558.432 439.171C558.081 441.056 557.46 443.896 558.889 445.478C559.83 446.521 560.328 446.533 561.631 446.661C568.335 444.151 578.205 422.636 581.957 415.599C585.027 422.832 592.316 443.262 593.511 450.281C595.112 459.684 593.726 470.67 593.612 480.256L593.377 537.428C593.757 592.363 595.486 647.28 598.563 702.131L600.29 732.578C600.564 737.54 601.459 743.288 600.797 748.193C600.632 749.412 599.98 750.325 599.298 751.302C592.972 751.26 581.312 747.44 574.825 745.904L518.392 732.567C517.087 732.302 515.839 731.988 514.561 731.614C511.272 727.848 505.861 598.009 505.533 582.281C516.626 583.348 570.633 592.948 577.493 589.908C578.122 589.237 578.459 588.794 578.712 587.887C579.688 584.391 578.922 560.837 579.004 555.115C579.218 540.275 580.436 525.269 579.983 510.441C579.902 507.779 579.831 504.579 578.483 502.243C572.771 500.499 565.331 500.484 559.337 499.808C541.835 497.834 523.884 495.213 506.271 494.965Z"/><path fill="#098EAD" d="M58.1329 431.327C68.8336 430.231 79.7278 425.743 89.9813 422.56C90.9006 422.381 91.8071 422.377 92.7329 422.524C98.0203 423.364 103.333 424.814 108.579 425.938C120.144 428.438 131.724 430.868 143.319 433.229L287.075 462.404C325.016 470.07 363.023 477.411 401.09 484.425C391.403 488.552 380.788 493.21 370.591 495.754C359.607 494.191 348.553 491.327 337.65 489.149L247.91 470.551C205.84 462.508 163.844 454.089 121.924 445.296C100.587 440.858 79.2405 436.816 58.1329 431.327Z"/><path fill="#098EAD" d="M89.8023 687.508C85.1476 652.166 79.5842 617.007 74.3033 581.759L63.6553 507.42C60.3503 484.457 56.023 461.421 53.7395 438.334C65.7664 439.77 77.8983 443.129 89.7786 445.534L162.082 460.204C196.816 467.257 231.587 474.125 266.393 480.809C300.782 487.971 335.226 494.865 369.722 501.491C371.424 509.101 371.978 517.247 373.013 524.996C374.945 539.639 376.995 554.266 379.164 568.876L398.622 704.649C401.832 727.396 404.582 750.098 408.27 772.793C393.421 768.439 378.358 764.717 363.399 760.754L291.118 741.545C273.552 737.182 256.023 732.671 238.532 728.013L259.103 650.588C261.667 641.116 270.228 615.049 270.139 606.74C269.567 605.787 268.754 605.33 267.786 604.833C261.951 601.834 246.075 599.947 238.706 598.345C236.175 597.795 233.722 596.684 231.194 596.26C229.89 596.041 228.489 596.069 227.255 596.583C225.463 597.331 224.578 599.852 223.854 601.522C219.218 612.23 215.786 623.674 211.861 634.674C202.682 660.397 193.732 686.591 183.27 711.798C162.457 706.268 141.598 700.906 120.698 695.713C110.401 693.089 99.9223 690.755 89.8023 687.508Z"/><path fill="#098EAD" d="M464.989 720.184C467.414 697.562 468.882 674.85 470.757 652.18C474.46 607.4 478.718 562.084 486.808 517.875C489.74 501.856 492.318 485.285 497.743 469.872C498.188 475.891 496.551 487.591 496.299 494.56C495.614 515.11 495.193 535.668 495.034 556.228C495.228 613.859 498.05 671.451 503.489 728.825C495.568 727.471 487.714 725.438 479.891 723.601C474.947 722.364 469.978 721.224 464.989 720.184Z"/><path fill="#098EAD" d="M375.195 501.015C385.604 497.646 395.846 493.111 405.987 488.983L406.516 489.344C408.466 494.307 409.988 514.132 410.833 520.968L421.917 612.253L434.563 711.704C437.103 730.713 440.655 749.849 442.103 768.966C438.05 770.902 418.526 777.177 414.868 776.089L414.297 774.883C412.863 761.942 410.46 749.094 408.678 736.194C403.602 698.695 398.304 661.227 392.785 623.791C388.925 594.671 384.884 565.576 380.662 536.507C378.907 524.715 377.637 512.681 375.195 501.015Z"/><path fill="#098EAD" d="M505.498 516.406L505.829 499.957C528.561 502.238 551.272 504.714 573.961 507.384C573.944 512.926 573.694 518.49 573.548 524.032C565.972 522.803 558.15 522.16 550.517 521.219C535.574 519.377 520.515 517.446 505.498 516.406Z"/><path d="M728.437 611.742C715.673 611.299 702.496 608.96 689.781 607.464C675.097 605.736 659.702 604.743 645.252 601.746C642.696 601.215 640.052 600.431 637.841 599.005C636.034 597.84 635.225 594.599 634.794 592.624C632.588 582.516 634.469 563.333 634.453 552.289C634.434 539.627 632.925 525.874 634.44 513.316C634.604 511.956 635.082 511.115 635.831 509.989C642.843 509.753 650.29 510.937 657.308 511.522L699.955 515.061C705.076 515.522 710.205 515.875 715.341 516.121C719.574 516.289 724.07 516.045 728.235 516.828C729.112 518.582 729.285 520.553 729.426 522.488C730.75 540.616 730.048 559.615 730.071 577.852C730.083 587.455 730.948 599.392 729.921 608.71C729.747 610.295 729.451 610.57 728.437 611.742ZM639.951 515.46L639.97 531.403C657.546 533.501 675.165 535.217 692.816 536.548C703.147 537.382 713.518 538.415 723.876 538.805C723.871 533.391 723.811 527.977 723.697 522.564C710.352 520.577 696.37 520.193 682.894 519.105C668.63 517.954 654.228 516.129 639.951 515.46ZM639.908 536.948C639.888 545.209 638.193 590.881 641.265 594.691C647.677 597.885 657.432 597.878 664.577 598.745L703.683 603.476C710.535 604.301 717.819 604.721 724.553 606.178C724.415 585.669 724.653 565.061 724.073 544.565C714.356 544.18 704.62 542.995 694.929 542.168C676.574 540.581 658.233 538.841 639.908 536.948Z"/><path fill="#098EAD" d="M639.97 531.403L639.951 515.46C654.228 516.129 668.63 517.954 682.894 519.105C696.37 520.193 710.352 520.577 723.697 522.564C723.811 527.977 723.871 533.391 723.876 538.805C713.518 538.415 703.147 537.382 692.816 536.548C675.165 535.217 657.546 533.501 639.97 531.403Z"/><path fill="#098EAD" d="M505.455 576.876C505.061 558.568 504.986 540.254 505.229 521.943C528.044 524.035 550.696 527.335 573.469 529.741C573.213 548.176 573.558 566.617 573.281 585.052C550.676 583.979 527.999 579.207 505.455 576.876Z"/><path fill="#098EAD" d="M724.553 606.178C717.819 604.721 710.535 604.301 703.683 603.476L664.577 598.745C657.432 597.878 647.677 597.885 641.265 594.691C638.193 590.881 639.888 545.209 639.908 536.948C658.233 538.841 676.574 540.581 694.929 542.168C704.62 542.995 714.356 544.18 724.073 544.565C724.653 565.061 724.415 585.669 724.553 606.178Z"/><path fill="#FCD34D" d="M427.18 602.2C426.477 596.763 425.659 591.316 425.32 585.843C438.846 588.168 452.264 591.44 465.655 594.431C464.929 599.231 464.423 604.078 463.83 608.896L463.613 609.561C463.339 609.71 463.092 609.928 462.79 610.007C461.333 610.388 431.032 603.235 427.18 602.2Z"/><path fill="#098EAD" d="M159.897 796.75C163.443 784.7 168.162 773.024 172.708 761.329C178.078 747.513 183.411 733.655 188.546 719.751C197.327 695.975 206.802 672.495 215.749 648.786C221.195 634.357 225.817 619.448 232.127 605.371C238.164 606.194 244.213 607.938 249.902 610.084C247.506 620.921 243.512 631.76 240.251 642.393L226.134 689.437L190.718 805.245L180.558 802.266L159.897 796.75Z"/><path fill="#098EAD" d="M441.147 714.704C439.649 702.809 438.509 690.864 436.906 678.984C433.773 655.777 430.172 632.522 427.773 609.228C439.386 612.384 451.123 615.065 462.954 617.266C461.65 627.15 461.362 637.301 460.578 647.252C458.83 667.941 457.326 688.651 456.068 709.376C456.011 712.193 455.756 714.995 455.53 717.802C450.815 716.43 446.009 715.395 441.147 714.704Z"/><path fill="#098EAD" d="M197.11 807.005C200.946 793.4 205.404 779.946 209.569 766.437L225.397 713.649C235.623 679.36 245.017 644.792 255.856 610.684C257.873 610.857 259.875 611.139 261.881 611.407C258.86 628.252 208.084 806.658 205.634 809.307L204.389 809.14L197.11 807.005Z"/><path fill="#FCD34D" d="M31.6045 629.809C45.1237 634.01 59.0259 636.745 72.6738 640.471C76.0633 658.795 77.2622 678.643 81.9296 696.562C103.491 702.517 125.563 707.479 147.327 712.708C158.24 715.33 169.443 717.513 180.095 721.05C176.108 735.789 169.402 749.745 164.918 764.359C148.799 768.777 132.678 772.436 116.367 776.058C110.35 777.393 104.335 779.109 98.2959 780.274C92.9175 773.631 88.8141 765.035 84.5587 757.614C61.6832 717.722 42.5216 674.63 31.6045 629.809Z"/><path fill="#098EAD" d="M779.432 692.466C778.787 692.982 778.495 693.204 777.689 693.459C776.874 686.182 777.34 678.29 777.217 670.94C777.688 671.528 777.867 671.938 778.025 672.679C779.026 677.368 781.811 688.62 779.432 692.466Z"/><path fill="#FCD34D" d="M885.249 675.952C901.95 679.365 918.535 683.311 935.268 686.593C946.576 688.812 959.042 690.08 969.981 693.561C967.791 699.148 965.686 704.769 963.667 710.42C954.948 706.782 944.853 705.451 935.635 703.472C919.666 700.043 903.63 696.738 887.713 693.088C886.964 687.37 886.073 681.661 885.249 675.952Z"/><path fill="#098EAD" d="M888.678 702.125C903.391 704.894 917.925 708.896 932.564 712.069C941.199 713.942 951.758 714.923 959.902 718.007C956.381 726.866 951.764 735.112 947.219 743.47C932.439 770.647 915.373 797.357 895.572 821.174C887.95 819.102 879.937 817.746 872.204 816.004C855.374 812.232 838.565 808.368 821.777 804.411C825.874 798.855 830.546 793.61 834.875 788.223C841.28 780.252 847.47 772.095 854.022 764.247C861.899 754.812 882.827 730.951 887.017 721.131C889.492 715.331 888.749 708.306 888.678 702.125Z"/><path fill="#FCD34D" d="M118.554 807.323C127.154 807.501 138.219 811.856 146.619 814.26L212.323 833.755C217.649 835.297 224.051 838.453 229.587 838.464C235.433 838.476 241.915 836.386 247.6 835.134C257.891 832.831 268.196 830.592 278.514 828.418C285.53 826.936 305.933 823.999 310.383 820.106C311.445 819.177 311.791 817.99 312.281 816.734C312.366 816.514 312.459 816.297 312.549 816.079C341.681 826.077 372.187 832.777 401.886 840.879L449.962 854.119C460.081 856.92 470.254 860.075 480.555 862.109C490.898 858.263 500.952 853.39 511.14 849.127C524.201 843.662 594.003 816.292 597.58 808.977C598.292 807.522 598.56 806.193 598.295 804.586C597.254 803.054 596.624 802.277 594.778 801.655C586.232 798.773 576.849 797.119 568.07 795.002C548.91 790.34 529.714 785.828 510.483 781.466C496.927 778.264 483.406 774.916 469.921 771.423C463.382 769.756 456.726 767.703 450.113 766.441C449.473 766.318 448.831 766.205 448.187 766.104C446.337 752.545 444.821 738.958 442.765 725.426L888.234 830.078C883.37 835.139 879.127 840.774 874.529 846.076C870.061 851.228 865.224 856.084 860.394 860.893C811.229 910.736 752.138 949.692 686.952 975.234C677.554 971.438 663.592 969.113 653.499 966.477C623.135 958.549 592.523 951.35 562.278 943.022L213.8 850.307C187.921 843.31 161.816 837.002 136.042 829.647C129.214 823.938 123.345 814.801 118.554 807.323ZM624.61 814.7C604.49 816.805 586.029 826.809 573.277 842.514C567.21 850.019 560.286 861.103 561.39 871.225C561.925 876.13 564.748 880.129 568.622 883.048C578.088 890.181 595.193 892.911 606.705 891.307C606.845 891.287 606.983 891.258 607.123 891.233C626.725 889.137 649.48 882.013 662.433 866.19C667.497 860.005 671.13 852.129 670.324 843.968C669.533 835.971 664.604 828.657 658.433 823.727C649.158 816.318 636.275 813.572 624.61 814.7Z"/><path fill="#FCD34D" d="M229.023 759.417C230.989 752.134 233.103 744.892 235.363 737.694C247.548 740.196 259.677 743.937 271.647 747.316C266.883 748.656 262.205 750.145 257.386 751.304C247.949 753.884 238.654 757.654 229.023 759.417Z"/><path fill="#098EAD" d="M229.644 767.398C236.8 766.191 243.924 763.505 250.84 761.322C262.318 757.698 273.74 754.089 285.075 750.032C288.868 749.813 298.855 753.32 303.081 754.379C297.4 755.96 283.144 759.668 279.364 764.02C279.355 765.319 279.45 765.512 280.474 766.461C281.792 767.682 284.243 768.258 285.944 768.761C323.42 779.845 361.598 789.165 399.371 799.236C425.153 806.11 450.869 814.173 476.852 820.178C479.737 820.845 482.777 821.473 485.752 821.276C491.386 820.904 527.782 808.181 534.166 805.261C535.914 804.462 537.614 803.402 538.836 801.89C540.627 799.676 540.297 797.828 539.944 795.169L577.118 804.758C568.012 807.535 558.952 810.461 549.942 813.534L483.275 836.618C455.632 827.724 427.252 821.085 399.201 813.64L296.122 785.703C274.006 779.825 251.398 774.466 229.644 767.398Z"/><path fill="#098EAD" d="M289.923 764.607C297.062 761.566 304.663 760.035 311.667 756.528C319.711 759.424 328.464 761.231 336.735 763.44L381.895 775.373C393.073 778.304 404.418 781.047 415.343 784.832C425.653 781.513 439.211 780.606 447.967 774.088L504.278 788.854C514.5 791.476 525.023 793.683 535.074 796.877C528.823 800.853 521.096 802.907 514.128 805.293C507.556 807.92 490.9 814.812 484.47 814.678C476.252 814.506 455.731 807.961 446.468 805.65C410.577 796.692 374.999 786.551 339.237 777.096C322.987 772.8 306.461 767.616 289.923 764.607Z"/><path fill="#098EAD" d="M222.505 779.944L225.378 772.122C309.815 795.819 394.401 818.984 479.13 841.614C479.056 844.981 479.411 850.12 477.981 853.189L476.894 853.571L370.559 824.483C352.557 819.583 334.336 815.228 316.454 809.934C306.809 807.079 297.56 803.098 288.008 799.96C266.254 793.027 244.419 786.355 222.505 779.944Z"/><path fill="#098EAD" d="M117.114 783.438C131.866 780.783 146.201 776.375 160.824 773.16L160.98 773.256C161.814 775.217 155.346 791.665 154.206 794.675C145.578 791.277 136.009 789.096 127.121 786.326L117.114 783.438Z"/><path fill="#098EAD" d="M213.209 811.551L220.111 786.79C245.422 795.059 270.966 803.275 296.627 810.359C292.64 811.051 288.555 811.394 284.535 811.864L253.435 815.525C247.174 816.265 239.705 817.907 233.449 817.04C227.106 816.161 219.521 813.224 213.209 811.551Z"/><path fill="#098EAD" d="M226.007 829.57C202.488 820.664 177.572 814.354 153.4 807.471C144.006 804.796 134.467 802.301 125.257 799.047C122.889 798.211 118.98 796.92 117.221 795.133C115.794 793.683 115.479 792.423 115.43 790.449C126.92 790.821 145.405 798.101 157.144 801.626C180.054 808.505 203.203 815.714 226.486 821.148L226.007 829.57Z"/><path fill="#098EAD" d="M484.841 843.101C495.643 837.457 508.39 833.909 519.918 829.917C540.806 822.683 561.832 815.045 583.26 809.575C584.612 809.58 585.466 809.644 586.757 810.131C586.324 811.054 497.718 847.266 487.631 851.275L485.458 851.864L484.636 851.217C483.89 848.693 484.568 845.691 484.841 843.101Z"/><path d="M607.123 891.233C606.983 891.258 606.845 891.287 606.705 891.307C595.193 892.911 578.088 890.181 568.622 883.048C564.748 880.129 561.925 876.13 561.39 871.225C560.286 861.103 567.21 850.019 573.277 842.514C586.029 826.809 604.49 816.805 624.61 814.7C636.275 813.572 649.158 816.318 658.433 823.727C664.604 828.657 669.533 835.971 670.324 843.968C671.13 852.129 667.497 860.005 662.433 866.19C649.48 882.013 626.725 889.137 607.123 891.233ZM627.874 821.206C609.041 823.099 590.622 832.043 578.58 846.887C575.25 850.992 570.179 857.737 570.989 863.297C571.444 866.419 573.644 868.876 576.161 870.603C587.412 878.324 605.302 877.691 618.004 874.986C631.521 872.107 651.851 863.057 659.54 850.951C661.497 847.87 662.445 844.345 661.582 840.733C660.934 838.016 659.172 835.714 657.596 833.465C656.244 831.997 654.801 829.96 652.86 829.334C651.034 829.476 649.425 830.118 647.637 830.386C643.794 830.959 639.814 830.613 635.924 831.213C619.397 833.76 606.198 842.09 595.422 854.686C592.023 858.66 588.378 865.356 584.118 868.122L583.271 868.029C582.559 865.716 583.726 863.589 584.822 861.545C593.293 845.756 607.139 833.082 624.502 828.065C632.369 825.792 639.747 825.27 647.883 825.608C641.458 822.555 635.083 820.518 627.874 821.206ZM660.298 857.028C642.864 872.717 624.181 883.641 599.863 882.286C591.99 881.847 581.643 880.205 574.986 875.657C572.959 874.272 570.969 870.923 568.726 870.404C568.499 871.217 568.475 871.553 568.51 872.443C572.462 878.795 578.353 881.749 585.449 883.405C604.779 887.916 628.331 882.235 644.922 871.86C648.704 869.495 659.295 862.054 660.309 857.494C660.343 857.342 660.302 857.184 660.298 857.028Z"/><path fill="#098EAD" d="M232.897 824.264C238.626 822.987 244.602 822.463 250.42 821.727C265.999 819.757 281.855 818.591 297.275 815.641C297.609 815.619 297.93 815.775 298.254 815.858C295.176 818.728 241.44 828.49 234.109 829.917L233.074 829.773C232.333 828.184 232.777 825.98 232.897 824.264Z"/><path fill="#098EAD" d="M657.596 833.465C659.172 835.714 660.934 838.016 661.582 840.733C662.445 844.345 661.497 847.87 659.54 850.951C651.851 863.057 631.521 872.107 618.004 874.986C605.302 877.691 587.412 878.324 576.161 870.603C573.644 868.876 571.444 866.419 570.989 863.297C570.179 857.737 575.25 850.992 578.58 846.887C590.622 832.043 609.041 823.099 627.874 821.206C635.083 820.518 641.458 822.555 647.883 825.608C639.747 825.27 632.369 825.792 624.502 828.065C607.139 833.082 593.293 845.756 584.822 861.545C583.726 863.589 582.559 865.716 583.271 868.029L584.118 868.122C588.378 865.356 592.023 858.66 595.422 854.686C606.198 842.09 619.397 833.76 635.924 831.213C639.814 830.613 643.794 830.959 647.637 830.386C649.425 830.118 651.034 829.476 652.86 829.334C654.801 829.96 656.244 831.997 657.596 833.465Z"/><path d="M136.042 829.647C161.816 837.002 187.921 843.31 213.8 850.307L562.278 943.022C592.523 951.35 623.135 958.549 653.499 966.477C663.592 969.113 677.554 971.438 686.952 975.234C682.59 977.029 678.249 978.797 673.683 980.023C669.758 978.183 664.767 977.457 660.548 976.402L636.601 970.383L546.892 947.329C412.522 912.93 278.541 877.025 144.976 839.622C141.464 836.726 138.705 833.313 136.042 829.647Z"/><path fill="#FCD34D" d="M144.976 839.622C278.541 877.025 412.522 912.93 546.892 947.329L636.601 970.383L660.548 976.402C664.767 977.457 669.758 978.183 673.683 980.023C654.733 986.959 635.314 992.54 615.573 996.725C607.527 998.46 599.08 999.294 591.138 1001.32C587.632 999.546 583.139 998.514 579.355 997.375C569.176 994.312 558.877 991.706 548.611 988.956L443.763 961.384L297.17 921.81L243.126 907.237C231.051 903.955 216.209 899.125 204.033 897.661C192.793 888.404 150.953 850.166 144.976 839.622Z"/><path fill="#098EAD" d="M568.51 872.443C568.475 871.553 568.499 871.217 568.726 870.404C570.969 870.923 572.959 874.272 574.986 875.657C581.643 880.205 591.99 881.847 599.863 882.286C624.181 883.641 642.864 872.717 660.298 857.028C660.302 857.184 660.343 857.342 660.309 857.494C659.295 862.054 648.704 869.495 644.922 871.86C628.331 882.235 604.779 887.916 585.449 883.405C578.353 881.749 572.462 878.795 568.51 872.443Z"/><path d="M204.033 897.661C216.209 899.125 231.051 903.955 243.126 907.237L297.17 921.81L443.763 961.384L548.611 988.956C558.877 991.706 569.176 994.312 579.355 997.375C583.139 998.514 587.632 999.546 591.138 1001.32C586.391 1002.18 580.973 1003.43 576.161 1003.47C570.782 1001.18 564.1 1000.05 558.408 998.54C544.751 994.874 531.064 991.322 517.348 987.884L415.232 960.886L286.495 926.443L238.851 913.476C232.071 911.692 225.256 909.585 218.388 908.201C213.759 907.13 207.716 900.788 204.033 897.661Z"/><path fill="#FCD34D" d="M218.388 908.201C225.256 909.585 232.071 911.692 238.851 913.476L286.495 926.443L415.232 960.886L517.348 987.884C531.064 991.322 544.751 994.874 558.408 998.54C564.1 1000.05 570.782 1001.18 576.161 1003.47C568.998 1004.74 561.494 1005.17 554.242 1005.79C538.257 1007.16 522.409 1008.06 506.365 1007.96C446.695 1007.62 378.831 993.053 323.791 969.897C304.159 961.637 285.264 951.558 266.724 941.115C253.161 933.475 229.004 918.942 218.388 908.201Z"/></svg>