<svg xmlns="http://www.w3.org/2000/svg" id="Layer_1" viewBox="0 0 665 762"><defs><style>      .st0 {        fill: #818286;      }      .st1 {        fill: #00adef;      }      .st2 {        display: none;        font-family: BYekan, 'B Yekan';        font-size: 76px;      }      .st3 {        stroke: #00adef;        stroke-width: 12px;      }      .st3, .st4 {        fill: none;        stroke-linejoin: round;      }      .st4 {        stroke: #fff;        stroke-linecap: round;        stroke-width: 36px;      }      .st5 {        fill: #58585a;      }    </style></defs><polygon class="st5" points="326.6 538.2 99.1 414.1 99.1 163.6 326.6 287.7 326.6 538.2"></polygon><polygon class="st0" points="326.6 538.2 554.1 414.1 554.1 163.6 326.6 287.7 326.6 538.2"></polygon><polygon class="st1" points="554.1 163.6 326.7 37.8 99.1 163.6 326.7 287.6 554.1 163.6"></polygon><polyline class="st4" points="442.6 349 326.6 411.6 212.9 349 212.9 224.8 326.6 163.6 440.3 224.7 440.3 276.8 326.2 339.4"></polyline><polygon class="st3" points="326.9 12.5 76.6 151.6 76.6 427.7 326.6 563.2 577.3 427.7 577.3 153.6 326.9 12.5"></polygon><g><path d="M152.6,631.1c0,6.6-2.4,11.4-7.1,14.5-2.8,1.8-5.9,2.7-9.3,2.7h-10.4c-4.6,0-8.4-1.7-11.4-5.2-2.9-3.3-4.4-7.3-4.4-12v-13.8h6.3v14.5c0,3,1.1,5.4,3.3,7.3,2.1,1.8,4.6,2.7,7.6,2.7h8.6c2.6,0,5-.9,7.1-2.6,2.2-1.8,3.3-4,3.3-6.5s-1.5-3.6-4.6-4.3c-.8-.2-1.4-.3-1.7-.3h-9.3v-11.5c0-3.4,1.1-6.3,3.3-8.5,2.2-2.2,5-3.4,8.5-3.4h8l.3,6.3h-8c-2.4,0-4.1,1.1-5,3.2-.4,1-.7,3.6-.8,7.6,5.3,0,8.8.3,10.5,1,3.4,1.3,5.1,4.1,5.1,8.3Z"></path><path d="M183.7,630.3c0,4.9-1.5,9.1-4.6,12.6-3.2,3.6-7.2,5.4-12.1,5.4h-8.9l-1.1-6.9h7.5c3.2,0,6-.8,8.3-2.3,2.7-1.8,4-4.2,4-7.3v-21.4h6.9v19.8Z"></path><path d="M222.1,631.5h-4.4c0,4.9-1.6,8.9-4.9,12.1-3.3,3.2-7.4,4.8-12.3,4.8h-8.6l-.9-6.6h8.4c3.2,0,5.8-.9,7.9-2.7,2.1-1.8,3.2-4.3,3.3-7.5-5.5,0-9.6-.8-12.2-2.3-3.4-2-5.1-5.5-5.1-10.7s1.3-9.5,4-11.8c1.6-1.3,4.2-2,7.9-2,5.3,0,8.9,2.2,10.7,6.6,1,2.6,1.6,7.1,1.7,13.4h4.4v6.6ZM210.8,624.8v-6.3c0-1.9-.4-3.5-1.3-4.8-1-1.5-2.4-2.3-4.2-2.3s-3.6.7-4.3,2.2c-.5,1-.8,2.8-.8,5.2s1.2,4.6,3.5,5.4c1.3.4,3.6.7,7.1.7Z"></path><path d="M280.1,631.5h-2.6l-2.4-.4c-1.8-.3-3.2-1.4-4.3-3.3-2.1,2.9-4.6,4.3-7.6,4.3s-6.2-1.5-9.2-4.5c-2.7,3-5.8,4.5-9.5,4.5s-6.7-1.6-9.1-4.7c-1.7,1.9-4.2,3.2-7.5,3.7-1.6.2-4.4.4-8.6.4v-6.6h6.1c2.3,0,3.8-.3,4.6-.9,1.3-.9,1.9-2.6,1.9-4.9v-8.5h6.5v9.9c0,1.6.6,2.9,1.8,3.9,1.1,1,2.4,1.4,4,1.4,3.1,0,4.6-1.4,4.6-4.2v-11.1h6.5v9.8c0,1.6.6,2.9,1.7,3.9,1.1,1,2.5,1.5,4.1,1.5,3.1,0,4.6-1.4,4.6-4.2v-11.1h6.6v10.3c0,2.7,2.6,4.1,7.8,4.1v6.6ZM247.7,599.9c0,1.1-.4,2.1-1.2,2.9-.8.8-1.8,1.2-3,1.2s-2.4-.4-3.3-1.1c-1-.8-1.5-1.8-1.5-3,0-2.4,1.4-3.6,4.3-3.6s4.6,1.2,4.6,3.6ZM250,594.6c-1.3,0-2.4-.4-3.3-1.1-1-.8-1.5-1.8-1.5-3,0-2.4,1.5-3.6,4.5-3.6s2.1.3,3,.9c1,.6,1.6,1.5,1.6,2.6s-.4,2.2-1.2,3.1c-.8.8-1.8,1.2-3,1.2ZM260.7,599.9c0,1.2-.4,2.1-1.2,2.9-.8.8-1.8,1.2-3,1.2s-2.4-.4-3.3-1.1c-.9-.7-1.4-1.7-1.4-3,0-2.4,1.4-3.6,4.3-3.6s4.7,1.2,4.7,3.6Z"></path><path d="M308.9,622.4c0,6.1-3.4,9.1-10.2,9.1h-20.9v-6.6h20.9c1.8,0,2.6-1,2.6-3.1s-.3-1.7-.9-2.3l-17.3-18.3-1.1-7.5,24.5-8.9,1,6.7-17.3,6.5,13.7,15.3c1,1.1,2.2,2.8,3.7,5.3.8,1.4,1.3,2.6,1.3,3.9Z"></path><path d="M370,631.5c-2.9,0-5-.4-6.4-1.2-.7-.4-3-2.4-7-6.1-2.5,5.3-6.6,8-12.2,8s-6.7-1.2-9.1-3.6c-2.4-2.4-3.6-5.4-3.6-9.1s2.6-8.4,7.8-13.5l-1.9-2.2,4.5-4.5,20,21.3c1.8,1.9,2.9,2.9,3.4,3.2.9.6,2.5.9,4.6,1v6.7ZM350.9,619.9c0-1.6-.4-2.9-1.3-3.7l-5.4-5.3c-2.1,2-3.4,3.3-3.9,3.9-1.3,1.7-2,3.4-2,5.1s.6,3.1,1.7,4.2,2.6,1.6,4.4,1.6,3.2-.5,4.5-1.7c1.3-1.1,1.9-2.5,1.9-4.2Z"></path><path d="M391.2,620.6c0,2.9-.9,5.4-2.6,7.5-1.8,2.3-4.2,3.4-7,3.4h-14.3v-6.6h12.2c1.9,0,3.1-.4,3.9-1.1.7-.8,1.1-2.1,1.1-4v-9.2h6.7v10.1ZM377.2,644.3c0,1.1-.4,2.1-1.2,2.8-.8.7-1.8,1.1-3,1.1s-2.3-.3-3.2-1c-1-.7-1.4-1.7-1.4-2.9,0-2.5,1.4-3.7,4.2-3.7s4.6,1.2,4.6,3.7ZM390.1,644.3c0,1.1-.4,2.1-1.2,2.8-.8.7-1.8,1.1-3,1.1s-2.3-.3-3.2-1c-1-.7-1.4-1.7-1.4-2.9,0-2.5,1.4-3.7,4.2-3.7s4.6,1.2,4.6,3.7Z"></path><path d="M429.3,622.7c0,2.7-1,4.8-3,6.5-1.9,1.5-4.1,2.3-6.9,2.3h-20.7l-.9-6.6h21.2c2.5,0,3.7-.9,3.7-2.6s-.3-1.7-1-2.4l-15-16,4.5-4.5,15.1,15.9c2.1,2.2,3.1,4.7,3.1,7.6Z"></path><path d="M450.1,631.5c-5.6,0-9.6-1.1-11.9-3.3-1.5-1.4-2.3-3.7-2.3-6.9v-31.6h6.7v28.6c0,3.1.5,5,1.6,5.7.6.4,2.6.7,6,.8v6.7Z"></path><path d="M488,631.5c-6.2,0-9.6-1.5-10.4-4.4-.1-.5-.3-1.1-.5-1.9l-.4-1.6c-6,3.6-10.7,5.9-14,6.7-2.6.6-7.8,1-15.6,1.1v-6.6h5.3c4.7,0,9.3-1,13.6-2.9,1.2-.5,5.3-2.8,12.3-6.8-.7-1.7-2.3-2.8-4.5-3.4-.4,0-1.7-.2-4.1-.3-1.2,0-5.6,0-13.3-.2l-.9-6.5h16.5c8.9,0,13.5,4.6,13.6,13.9l-6.2,3.3c0,1.9,2.8,2.8,8.5,2.8v6.6Z"></path><path d="M509.5,620.6c0,2.9-.9,5.4-2.6,7.5-1.8,2.3-4.2,3.4-7,3.4h-14.3v-6.6h12.2c1.9,0,3.1-.4,3.9-1.1.7-.8,1.1-2.1,1.1-4v-9.2h6.7v10.1ZM500.5,599.7c0,1.1-.4,2.1-1.2,2.9-.8.8-1.8,1.2-3,1.2s-2.4-.3-3.3-1c-1-.8-1.4-1.8-1.4-3,0-2.4,1.4-3.7,4.3-3.7s4.6,1.2,4.6,3.7ZM513.3,599.7c0,1.1-.4,2.1-1.2,2.9-.8.8-1.8,1.2-3,1.2s-2.4-.3-3.3-1c-1-.8-1.4-1.8-1.4-3,0-2.4,1.4-3.7,4.3-3.7s4.6,1.2,4.6,3.7Z"></path><path d="M526.5,631.5h-6.5v-42.8h6.5v42.8Z"></path></g><g><path d="M73.9,728.3c0,6.6-2.4,11.4-7.1,14.5-2.8,1.8-5.9,2.7-9.3,2.7h-10.4c-4.6,0-8.4-1.7-11.4-5.2-2.9-3.3-4.4-7.3-4.4-12v-13.8h6.3v14.5c0,3,1.1,5.4,3.3,7.3,2.1,1.8,4.6,2.7,7.6,2.7h8.6c2.6,0,5-.9,7.1-2.6,2.2-1.8,3.3-4,3.3-6.5s-1.5-3.6-4.6-4.3c-.8-.2-1.4-.3-1.7-.3h-9.3v-11.5c0-3.4,1.1-6.3,3.3-8.5,2.2-2.2,5-3.4,8.5-3.4h8l.3,6.3h-8c-2.4,0-4.1,1.1-5,3.2-.4,1-.7,3.6-.8,7.6,5.3,0,8.8.3,10.5,1,3.4,1.3,5.1,4.1,5.1,8.3Z"></path><path d="M105,727.5c0,4.9-1.5,9.1-4.6,12.6-3.2,3.6-7.2,5.5-12.1,5.5h-8.8l-1.1-6.9h7.5c3.2,0,6-.8,8.3-2.3,2.6-1.8,4-4.2,4-7.3v-21.4h6.9v19.8ZM104.7,689.5c0,1.3-.4,2.4-1.3,3.3-.9.9-2,1.4-3.3,1.4-3.4,0-5.1-1.6-5.1-4.7s1.6-4,4.9-4,4.9,1.3,4.9,4Z"></path><path d="M128.4,728.6c-5.6,0-9.6-1.1-11.9-3.3-1.5-1.4-2.3-3.7-2.3-6.9v-31.6h6.7v28.6c0,3.1.5,5,1.6,5.7.6.4,2.6.7,6,.8v6.7Z"></path><path d="M166.2,728.6c-6.3-.1-9.8-1.6-10.4-4.4-.3-1.1-.6-2.3-.9-3.5-6.4,3.8-11.1,6.1-14,6.8-2.6.7-7.9,1-15.7,1v-6.6c8.6,0,14.7-.8,18.3-2.5.7-.3,5.1-2.7,13-7.1-.9-1.8-2.3-2.9-4.3-3.5-.8-.2-2.8-.3-5.9-.3h-11.7l-.9-6.6h16.5c9.1,0,13.6,4.6,13.6,13.8l-6.2,3.4c0,1.9,2.8,2.8,8.5,2.8v6.6ZM146.2,741c0,1.3-.4,2.4-1.3,3.3s-2,1.4-3.3,1.4-2.6-.4-3.6-1.2c-1-.8-1.5-2-1.5-3.3,0-2.7,1.6-4.1,4.9-4.1s4.8,1.3,4.8,3.9Z"></path><path d="M194.2,716.1c0,3.8-1,7-2.9,9.4-2.1,2.7-5,4-8.7,4s-5.4-.8-7.5-2.5c-2.2.9-5.9,1.5-11.3,1.6v-6.6c3.8,0,6-.4,6.6-1.1.2-.2.3-2,.4-5.1.2-9.2,4.2-13.8,12-13.8s6.6,1.5,8.7,4.5c1.8,2.6,2.7,5.8,2.7,9.7ZM188.3,715.7c0-4.8-1.9-7.2-5.8-7.2s-5.9,2.5-5.9,7.5,2,6.9,5.9,6.9,5.8-2.4,5.8-7.2Z"></path><path d="M261.1,728.3c0,6.6-2.4,11.4-7.1,14.5-2.8,1.8-5.9,2.7-9.3,2.7h-10.4c-4.6,0-8.4-1.7-11.4-5.2-2.9-3.3-4.4-7.3-4.4-12v-13.8h6.3v14.5c0,3,1.1,5.4,3.3,7.3,2.1,1.8,4.6,2.7,7.6,2.7h8.6c2.6,0,5-.9,7.1-2.6,2.2-1.8,3.3-4,3.3-6.5s-1.5-3.6-4.6-4.3c-.8-.2-1.4-.3-1.7-.3h-9.3v-11.5c0-3.4,1.1-6.3,3.3-8.5,2.2-2.2,5-3.4,8.5-3.4h8l.3,6.3h-8c-2.4,0-4.1,1.1-5,3.2-.4,1-.7,3.6-.8,7.6,5.3,0,8.8.3,10.5,1,3.4,1.3,5.1,4.1,5.1,8.3Z"></path><path d="M282.8,728.6c-5.6,0-9.6-1.1-11.9-3.3-1.5-1.4-2.3-3.7-2.3-6.9v-31.6h6.7v28.6c0,3.1.5,5,1.6,5.7.6.4,2.6.7,6,.8v6.7Z"></path><path d="M321.9,719.8c0,2.9-1.1,5.6-3.3,7.9-2.2,2.3-4.8,3.5-7.6,3.5s-8.1-1.6-13.7-4.9c-2.9,1.5-6.1,2.2-9.6,2.2h-7.4c0,.1,0-6.6,0-6.6h9.3c-2.4-3.2-3.7-6.3-3.7-9.2s1-5.8,3-7.8c2-2,4.6-3.1,7.8-3.1s5.5,1.2,8,3.6l-4.4-4.5,5-4.5c11.1,10.6,16.6,18.3,16.6,23.3ZM301.7,713.2c0-1.5-.6-2.8-1.7-3.7-1.1-1-2.4-1.5-4-1.5s-2.2.5-2.9,1.5c-.7.9-1,2-1,3.2,0,2.9,1.8,5,5.3,6.4,2.8-1.3,4.3-3.2,4.3-5.9ZM314.9,720.2c0-2.7-2.9-7-8.8-12.9,1.4,1.5,2,3.6,2,6.3,0,4.3-1.4,7.1-4.1,8.5,2.5,1.5,4.7,2.3,6.5,2.3,2.9,0,4.4-1.4,4.4-4.2Z"></path><path d="M353.6,727.5c0,4.9-1.5,9.1-4.6,12.6-3.2,3.6-7.2,5.4-12.1,5.4h-8.9l-1.1-6.9h7.5c3.2,0,6-.8,8.3-2.3,2.7-1.8,4-4.2,4-7.3v-21.4h6.9v19.8Z"></path><path d="M376.9,728.6c-5.6,0-9.6-1.1-11.9-3.3-1.5-1.4-2.3-3.7-2.3-6.9v-31.6h6.7v28.6c0,3.1.5,5,1.6,5.7.6.4,2.6.7,6,.8v6.7Z"></path><path d="M405.2,719.5c0,6.1-3.4,9.1-10.2,9.1h-20.9v-6.6h20.9c1.8,0,2.6-1,2.6-3.1s-.3-1.7-.9-2.3l-17.3-18.3-1.1-7.5,24.5-8.9,1,6.7-17.3,6.5,13.7,15.3c1,1.1,2.2,2.8,3.7,5.3.8,1.4,1.3,2.6,1.3,3.9Z"></path><path d="M454.9,729.5c0,4.5-1.7,8.2-5,11.4-3.4,3.1-7.3,4.7-11.7,4.7h-8.6l-.9-6.6h8.4c3.2,0,5.8-.9,7.9-2.7,2.1-1.8,3.2-4.3,3.3-7.5-5.6,0-9.6-.7-12.1-2.2-3.4-2-5-5.5-5-10.7s1.3-9.5,4-11.8c1.6-1.4,4.4-2.1,8.2-2.1s8.5,2.1,10.2,6.4c1,2.6,1.6,6.9,1.6,12.8v8.4ZM448.2,722v-6.9c0-4.4-1.7-6.5-5.2-6.5s-3.6.7-4.3,2.2c-.5,1-.8,2.8-.8,5.2s1.1,4.6,3.4,5.4c1.2.4,3.5.7,6.9.7Z"></path><path d="M543.1,728.6c-5.3,0-8.8-.9-10.6-2.6-2.3,1.7-4.4,2.6-6.5,2.6h-35.2c-2.8,0-5.1-1.1-6.9-3.4-1.7-2.1-2.6-4.6-2.6-7.5v-10.1h6.7v9.2c0,1.9.4,3.2,1.1,4,.7.8,2,1.1,3.9,1.1h31.1c1.9,0,3.1-.4,3.8-1.1.7-.8,1.1-2.1,1.1-4v-9.2h6.8v9.2c0,3.4,2.4,5.1,7.3,5.1v6.7ZM513.1,741c0,1.3-.5,2.4-1.4,3.3-.9.9-2,1.3-3.3,1.3-3.3,0-5-1.5-5-4.6s1.6-4,4.8-4,4.9,1.3,4.9,4Z"></path><path d="M600.8,728.6c-2.6,0-4.3-.2-5.2-.5-1.7-.5-3-1.5-3.9-3.1-2.1,2.9-4.6,4.3-7.7,4.3s-6.2-1.5-9.2-4.4c-2.6,2.9-5.8,4.4-9.7,4.4s-6.6-1.6-8.9-4.7c-1.5,1.9-3.9,3.1-7.5,3.6-1.6.2-4.5.3-8.7.3v-6.7h5.6c2.4,0,4.2-.3,5.1-.9,1.3-.8,1.9-2.4,1.9-4.9v-8.5h6.5v9.9c0,1.6.6,2.8,1.7,3.8s2.5,1.5,4.1,1.5c3.1,0,4.6-1.4,4.6-4.2v-11.1h6.5v9.8c0,1.6.6,2.9,1.7,3.9,1.1,1,2.4,1.5,4,1.5,3.1,0,4.6-1.4,4.6-4.2v-11.1h6.6v10.2c0,1.6.8,2.7,2.4,3.5.5.2,2.3.4,5.4.6v6.7Z"></path><path d="M629.6,719.5c0,6.1-3.4,9.1-10.2,9.1h-20.9v-6.6h20.9c1.8,0,2.6-1,2.6-3.1s-.3-1.7-.9-2.3l-17.3-18.3-1.1-7.5,24.5-8.9,1,6.7-17.3,6.5,13.7,15.3c1,1.1,2.2,2.8,3.7,5.3.8,1.4,1.3,2.6,1.3,3.9Z"></path></g><text class="st2" transform="translate(557.4 631.5)"><tspan x="0" y="0">اتحادیه کشوری</tspan></text><text class="st2"><tspan x="478.7" y="728.6">کسب و کارهای مجازی</tspan></text></svg>