<svg xmlns="http://www.w3.org/2000/svg" id="Layer_1" viewBox="0 0 1250 1360"><defs><style>      .st0 {        fill: #fae438;      }      .st1 {        fill: #b3b2b3;      }      .st2 {        font-family: Arial-BoldMT, Arial;        font-size: 123px;        font-weight: 700;      }      .st2, .st3, .st4, .st5 {        display: none;      }      .st3 {        font-family: ArabicUIDisplay-Medium, 'Arabic UI Display';        font-size: 76px;        font-weight: 500;      }      .st3, .st4, .st6, .st7 {        fill: #1f4e87;      }      .st3, .st4, .st8, .st7 {        stroke-miterlimit: 10;      }      .st3, .st4, .st7 {        stroke: #1f4e87;        stroke-width: 2px;      }      .st4 {        font-family: BNazaninBold, 'B Nazanin';        font-size: 81px;      }      .st9 {        fill: #f79422;      }      .st8 {        stroke: #231f20;      }    </style></defs><path class="st6" d="M134.4,720.9c112.9-108.1,191.9-127.4,327.4-179s353.2-195.2,358.1-343.5-90.3-169.4-171-148.4-198.4,114.5-227.4,393.5,112.9,301.6,159.7,303.2,132.2-24.4,170.9-88.9c38.7-64.5,48.5-78.8,48.5-78.8,0,0,47.8,2.7,70.2-30s29.1-64.3,29.6-67.4-64.9-3.6-64.9-3.6c0,0,8.2-13.8,39.3-28.1s75.1-35.9,83.7-55,15.8-24.2,3.6-21.1-85.8,40.9-140.9,100.6-58.2,98-111.8,142.5-92.9,50.6-154.2,25.5-64.9-97.5-65.4-138.4,5.6-164.4,43.4-252.3,99.1-147.1,152.2-143,72,62.8,50.6,139.4-128.7,159.8-175.7,181.8-168.5,53.6-295.7,132.3-130.3,158.7-130.3,158.7Z"></path><path class="st6" d="M984.6,375s69.4-59,73.8-59.5,60,68.7,60,68.7c0,0-65.4,62.3-68.6,62.6s-65.2-71.7-65.2-71.7Z"></path><text class="st3" transform="translate(271.7 1349.3)"><tspan x="0" y="0">جهت اطمینان کلیک نمایید</tspan></text><g><path class="st7" d="M323.3,1262.5h-4.2c-3.8,0-7-2.4-9.6-7.3-2.2,2.8-4,4.5-5.3,5.3-2.3,1.3-5.6,2-10,2-6.6,0-9.9-3.1-9.9-9.2s.1-1.9.3-3c.6-3.3,1.7-5,3.2-5s1.3.7,1.3,2c0,1.8.3,3,.8,3.6.9,1.3,2.8,1.9,5.9,1.9,7.3,0,11-1.4,11-4.2s-1.8-6.6-5.5-14.4l4.5-5.9c.3-.5.6-.7.6-.7.2,0,.4.4.7,1.1l6.9,18.4c1.3,3.6,3.2,5.4,5.7,5.4h3.8v10Z"></path><path class="st7" d="M351.6,1262.5h-3.8c-2,0-4-.5-5.9-1.6s-3.3-2.5-4.4-4.2c-2.3,3.9-5.7,5.9-10.1,5.9h-6.2v-10.2h4.7c3.8,0,6.5-.9,8-2.6.8-.9,1.4-2.5,1.8-4.8.3-1.7,1-2.6,1.9-2.6s1.6.9,1.9,2.6c.4,2.3.9,3.9,1.5,4.8,1.2,1.7,3.4,2.6,6.6,2.6h4.1v10.2ZM334.8,1274.3l-4.8,4.9-4.9-4.9,4.8-4.8,4.8,4.8ZM345.6,1274.3l-4.8,4.9-4.9-4.9,4.8-4.8,4.8,4.8Z"></path><path class="st7" d="M362.5,1247c0,3.9-.8,7.2-2.3,9.9-2.1,3.7-5.2,5.5-9.5,5.5h-3.8v-10.2h4.4c3.8,0,5.7-.7,5.7-2.1s-1.5-3.5-4.4-6.7c-.3-.4-.3-.8,0-1.3l4.6-6.5c.4-.6.8-.6,1.2-.2,1.2,1.3,2.2,3.1,3,5.4.7,2.2,1.1,4.2,1.1,6.1ZM358.8,1274.3l-4.8,4.9-4.9-4.9,4.8-4.8,4.8,4.8ZM369.6,1274.3l-4.8,4.9-4.9-4.9,4.8-4.8,4.8,4.8Z"></path><path class="st7" d="M390.5,1262.5h-4.7c-2.6,0-4.8-.9-6.7-2.6-2.5-2.3-3.7-5.9-3.7-10.6s-.2-8.1-.6-14.7c-.4-7.3-.9-12.2-1.3-14.5-.1-.8,0-1.3.2-1.5l6.5-5.3c.8-.6,1.2-.9,1.4-.9h0c.2,0,.2.4.2,1.1v33.3c0,3.7,2.1,5.6,6.3,5.6h2.4v10.1Z"></path><path class="st7" d="M426.4,1262.5h-3.7c-1.5,0-2.8-.5-4.1-1.6-1.2-1-2.1-2.2-2.6-3.7-1.5,4.1-4.2,6.1-8,6.1s-6.3-1.9-8.7-5.7c-1.7,3.3-4.2,4.9-7.4,4.9h-3.4v-10.1h3.4c2.3,0,3.7-.2,4.3-.6.5-.3.7-1,.6-2.2-.2-2.7.6-5.2,2.4-7.6,2-2.6,4.4-3.9,7.4-3.9s6.9,2.2,8.9,6.6l2.5,5.6c.9,1.3,2.2,2,4,2h4.7v10.1ZM412.5,1251.9c0-1.6-.6-3.4-1.7-5.4-1.3-2.3-2.6-3.4-4-3.4s-2.7,1.2-2.7,3.6.5,3.7,1.4,5.7c1.2,2.4,2.5,3.6,4.1,3.6s2.8-1.4,2.8-4.1Z"></path><path class="st7" d="M440,1247c0,3.9-.8,7.2-2.3,9.9-2.1,3.7-5.2,5.5-9.5,5.5h-3.8v-10.2h4.4c3.8,0,5.7-.7,5.7-2.1s-1.5-3.5-4.4-6.7c-.3-.4-.3-.8,0-1.3l4.6-6.5c.4-.6.8-.6,1.2-.2,1.2,1.3,2.2,3.1,3,5.4.7,2.2,1.1,4.2,1.1,6.1ZM439.7,1223.5l-5.3,5.4-5.4-5.4,5.4-5.4,5.3,5.4Z"></path><path class="st7" d="M524.8,1262.5h-6.1c-2.6,0-5.3-1.2-8.1-3.6-1.7-1.4-4.5-4.4-8.7-9-.2,4.2-2,7.6-5.5,10.2-1.3,1-4.7,1.8-9.9,2.4-4.4.5-8.6.8-12.7.8-7.4,0-12.6-.7-15.8-2.1-5-2.1-7.4-6.3-7.4-12.5s.7-5.2,2.1-7.7c1.2-2.2,2.3-3.4,3.1-3.4s1.5.6,1.5,1.7-.2,1.3-.6,2.5c-.4,1.2-.6,2.1-.6,2.8,0,4.2,2,6.9,6.1,8,1.9.5,6.5.8,13.8.8s14.8-.4,18-1.1c2.4-.5,3.6-1.5,3.6-2.8s-1.6-4.4-4.9-7.9c-3-3.3-5.7-5.7-8.3-7.3l1.9-10.2c11-4.4,21.1-8.1,30.1-11l-2.1,9c-4.7,1.5-12.1,4-22.4,7.6,4.1,3.9,8.4,8.3,13.1,13.3,3.6,3.8,6.1,6.2,7.4,7.3,2,1.5,4,2.2,6.1,2.2h6.1v10.2Z"></path><path class="st7" d="M553.2,1262.5h-3.8c-2,0-4-.5-5.9-1.6s-3.3-2.5-4.4-4.2c-2.3,3.9-5.7,5.9-10.1,5.9h-6.2v-10.2h4.7c3.8,0,6.5-.9,8-2.6.8-.9,1.4-2.5,1.8-4.8.3-1.7,1-2.6,1.9-2.6s1.6.9,1.9,2.6c.4,2.3.9,3.9,1.5,4.8,1.2,1.7,3.4,2.6,6.6,2.6h4.1v10.2ZM536.4,1274.3l-4.8,4.9-4.9-4.9,4.8-4.8,4.8,4.8ZM547.2,1274.3l-4.8,4.9-4.9-4.9,4.8-4.8,4.8,4.8Z"></path><path class="st7" d="M575,1262.5h-6.3c-1.6,0-3.2-.5-4.7-1.4-1.6-1-2.7-2.2-3.2-3.7-.8,1.4-1.9,2.6-3.3,3.5-1.5,1-3,1.5-4.5,1.5h-4.4v-10.2h4.3c3.8,0,5.7-1.8,5.7-5.4,0-13.5-.6-22.6-1.7-27.2l7.8-7.2c.4-.4.6-.3.6.2v34.1c0,3.7,1.9,5.6,5.6,5.6h4.2v10.2Z"></path><path class="st7" d="M606.6,1213.3l-1.7,9c-4.2,1.4-11.2,3.8-21,7.2,3.3,3.3,5.6,6,7.1,8.2,2,3.1,3,6.2,3,9.3,0,10.2-5.6,15.3-16.7,15.3h-4.5v-10.2h3c5.6,0,9.3-.3,11.3-.8,1.5-.4,2.3-1.1,2.3-2.2,0-1.7-1.6-4.4-4.9-7.9-3-3.3-5.7-5.7-8.3-7.3l1.9-10.2c6-2.4,15.4-5.9,28.3-10.6Z"></path><path class="st7" d="M657.3,1263.9c0,7.6-2.3,12.9-7,16-3.8,2.5-9.8,3.8-17.8,3.8s-10.6-1.7-13.6-5c-2.4-2.7-3.6-6.1-3.6-10.2s.6-5.1,1.9-9.1c1.5-4.7,3-7,4.5-7s1.6.7,1.6,2.2-.4,1.9-1.2,4.2c-.8,2.4-1.2,4.2-1.2,5.4,0,3.7,1.5,6.4,4.5,7.9,2.2,1.1,5.4,1.6,9.6,1.6s7.5-.4,10.7-1.3c4.9-1.3,7.4-3.4,7.4-6.2s-1-3.8-3-7c-1.8-2.9-3.5-4.9-4.9-6.2l4.2-8.5c.3-.6.6-.6,1,0,4.7,6.8,7.1,13.3,7.1,19.4ZM641,1239.2l-5.4,5.4-5.4-5.4,5.4-5.4,5.4,5.3Z"></path><path class="st7" d="M678.9,1262.5h-4.7c-2.6,0-4.8-.9-6.7-2.6-2.5-2.3-3.7-5.9-3.7-10.6s-.2-8.1-.6-14.7c-.4-7.3-.9-12.2-1.3-14.5-.1-.8,0-1.3.2-1.5l6.5-5.3c.8-.6,1.2-.9,1.4-.9h0c.2,0,.2.4.2,1.1v33.3c0,3.7,2.1,5.6,6.3,5.6h2.4v10.1Z"></path><path class="st7" d="M707.1,1262.5h-3.8c-2,0-4-.5-5.9-1.6-1.9-1.1-3.3-2.5-4.4-4.2-2.3,3.9-5.7,5.9-10.1,5.9h-6.2v-10.2h4.7c3.8,0,6.5-.9,8-2.6.8-.9,1.4-2.5,1.8-4.8.3-1.7,1-2.6,1.9-2.6s1.6.9,1.9,2.6c.4,2.3.9,3.9,1.5,4.8,1.2,1.7,3.4,2.6,6.6,2.6h4.1v10.2ZM694.9,1227.1l-5.4,5.4-5.4-5.4,5.4-5.4,5.4,5.4Z"></path><path class="st7" d="M735.4,1262.5h-3.8c-2,0-4-.5-5.9-1.6-1.9-1.1-3.3-2.5-4.4-4.2-2.3,3.9-5.7,5.9-10.1,5.9h-6.2v-10.2h4.7c3.8,0,6.5-.9,8-2.6.8-.9,1.4-2.5,1.8-4.8.3-1.7,1-2.6,1.9-2.6s1.6.9,1.9,2.6c.4,2.3.9,3.9,1.5,4.8,1.2,1.7,3.4,2.6,6.6,2.6h4.1v10.2ZM718.6,1274.3l-4.8,4.9-4.9-4.9,4.8-4.8,4.8,4.8ZM729.4,1274.3l-4.8,4.9-4.9-4.9,4.8-4.8,4.8,4.8Z"></path><path class="st7" d="M768.7,1262.5h-3.7c-1.5,0-2.8-.5-4.1-1.6-1.2-1-2.1-2.2-2.6-3.7-1.5,4.1-4.2,6.1-8,6.1s-6.3-1.9-8.7-5.7c-1.7,3.3-4.2,4.9-7.4,4.9h-3.4v-10.1h3.4c2.3,0,3.7-.2,4.3-.6.5-.3.7-1,.6-2.2-.2-2.7.6-5.2,2.4-7.6,2-2.6,4.4-3.9,7.4-3.9s6.9,2.2,8.9,6.6l2.5,5.6c.9,1.3,2.2,2,4,2h4.7v10.1ZM754.8,1251.9c0-1.6-.6-3.4-1.7-5.4-1.3-2.3-2.6-3.4-4-3.4s-2.7,1.2-2.7,3.6.5,3.7,1.4,5.7c1.2,2.4,2.5,3.6,4.1,3.6s2.8-1.4,2.8-4.1Z"></path><path class="st7" d="M807.7,1244.3c0,6.3-2.8,11.1-8.4,14.3-4.5,2.6-10.2,3.9-17,3.9h-15.7v-10.2h8.6v-3c0-10.5-1.2-20.5-3.6-30.2l7.4-6.8c.7,2.1,2.1,5.7,4.1,10.8.2.4.2.6.2.8,0,.2-.1.2-.4.2s-1.2-.2-2.8-.6c.3,3.8.5,7.1.5,10s-.4,8.7-1.1,14.1c2.2-2.5,4.9-4.9,8.1-7.2,4.5-3.3,8.3-5,11.2-5s3.8.6,5.5,1.9c2.2,1.6,3.3,3.9,3.3,6.9ZM801.6,1248.6c0-1.4-.8-2.6-2.3-3.6-1.4-1-2.8-1.4-4.2-1.4-4.4,0-9.2,2.9-14.5,8.7h7.3c2.7,0,5.3-.2,7.8-.6,4-.6,6-1.7,6-3.1Z"></path><path class="st7" d="M821,1253.5c0,1.9-1,4.9-3,9.2-.5,1.1-.9,1.7-1.1,1.7-.3,0-.6-1.2-.8-3.7l-3.8-41.8,7.3-6.1c.5-.4.8-.6,1-.6s.4.3.4.8v40.4Z"></path><path class="st7" d="M892.7,1262.5h-3c-2.4,0-4.6-.8-6.6-2.5-1.6-1.4-2.7-2.9-3.2-4.5-3.8,3.2-8.3,5.4-13.5,6.6-3.4.8-7.8,1.1-13.2,1.1-14.3,0-21.5-4.9-21.5-14.6s.6-5.2,1.9-7.7c1.1-2.2,2.1-3.4,2.9-3.4s1.5.6,1.5,1.7-.2,1.5-.5,2.7c-.3,1.2-.5,2.1-.5,2.7,0,3.6,2,6.1,6.1,7.4,2.7.8,6.7,1.3,12.2,1.3,10.2,0,17.9-1.9,23.1-5.8.8-.6,2-1.7,3.4-3.3,1.1-1.2,2-1.9,2.5-1.9.9,0,1.4.6,1.4,1.9s-.6,2.3-1.9,5c.8,2,3,3.1,6.7,3.1h2.4v10.2ZM857.3,1231.2l-4.8,4.8-4.8-4.8,4.8-4.8,4.8,4.8ZM868.1,1231.2l-4.9,4.8-4.8-4.8,4.8-4.8,4.9,4.8Z"></path><path class="st7" d="M929.6,1262.5h-3.6c-2.8,0-4.7.1-5.7.4-1.9.4-2.8,1.4-2.8,2.9,0,2.3,2.2,4.4,6.7,6.2l-3.4,9.3c-6.5-1.9-11.6-4.7-15.4-8.5-2.2-2.2-3.8-4.4-4.7-6.6-.2-.5-.7-2-1.6-4.4-2.5.4-4.6.6-6.3.6h-2.2v-10.2h7.6c0-7,2.8-14.4,8.5-22.2,2,2.3,3.8,5.2,5.3,8.4,1.9,3.9,2.8,7.2,2.8,10.1,0,7.4-3.3,11.6-10,12.6,1.6,3,4.3,5.5,8.3,7.6-.2-4.1.8-7.8,3.1-11.1,2.5-3.6,5.7-5.4,9.7-5.4h3.6v10.2ZM910.2,1251c0-1.3-.6-3-1.8-5.2-.9-1.7-1.8-3.1-2.6-4-2.1,2.9-3.1,6.3-3.1,10.1,1.7,0,4.2-.3,7.5-.9Z"></path><path class="st7" d="M972.6,1244l-5.1,7.3c-3.5,0-7.2,1-11,2.9-2,1-5.6,2.8-10.9,5.4-4.1,1.9-9,2.9-14.7,2.9h-3.2v-10.2h4.3c5.6,0,10.2-.4,13.6-1.2,2.8-.7,6.1-1.9,9.6-3.7-1.2-.4-3.3-1.3-6.3-2.4-3.3-1.3-5.7-1.9-7.1-1.9s-3,.7-4.6,2c-1.7,1.3-2.6,2-2.7,2-1.1,0-1.6-.6-1.6-1.8s.4-1.9,1.1-3.2c2.9-5.1,6.1-7.7,9.7-7.7s5.9,1.5,12.4,4.4c6.5,2.9,11.4,4.4,14.6,4.4s2.1.1,2.1.4c0,.2-.1.4-.2.6ZM961.8,1273l-5.4,5.4-5.4-5.4,5.4-5.4,5.3,5.4Z"></path></g><text class="st4" transform="translate(277.1 1221.5)"><tspan x="0" y="0">جهت اطمینان کلیک نمایید</tspan></text><g><path class="st8" d="M310.2,887.7c.5,10,9.6,15.1,20.2,15.1s13.2-1.1,18.5-3l2.4,10.7c-5.6,2.3-13.1,4.1-22.9,4.1-20.8,0-33.2-12.3-33.2-30.6s10.2-32.3,31.6-32.3,28.1,17.5,28.1,29.7-.3,4.9-.6,6.1h-44ZM339.9,876.7c0-4.2-2.1-14.3-14.1-14.3s-14.8,8.5-15.6,14.3h29.7Z"></path><path class="st8" d="M371.8,913.2v-82.9h19l23.9,35.6c6.3,9.7,11.4,19,15.6,28.3h.3c-1.2-11.2-1.3-21.2-1.3-33.2v-30.8h14.8v82.9h-16.9l-24.2-36.9c-6-9.6-12.1-19.7-16.8-29.3h-.4c.6,11.3.7,22,.7,34.4v31.8h-14.8Z"></path><path class="st8" d="M484.5,889.1l-7.9,24h-16.6l29.3-82.9h20.6l30.2,82.9h-17.4l-8.5-24h-29.6ZM511.2,877.3l-7.6-20.9c-1.8-5-3.3-10-4.6-14.5h-.2c-1.3,4.5-2.6,9.6-4.2,14.4l-7.3,21h24Z"></path><path class="st8" d="M632.2,878.8c-.5-11.2-1.1-24.6-1.1-36.6h-.3c-3.1,10.5-7,22.1-11.1,33.4l-13.4,36.6h-12.5l-11.9-36.2c-3.6-11.4-6.8-23-9.2-33.8h-.2c-.4,11.3-.9,25.4-1.6,37.1l-2,33.9h-15l5.5-82.9h21.9l11.7,33.2c3.1,9.5,6,19.7,8.1,28.9h.4c2.5-9,5.7-19.6,9.2-29l12.7-33.1h21.5l4.7,82.9h-15.7l-1.6-34.4Z"></path><path class="st8" d="M687,889.1l-7.9,24h-16.6l29.3-82.9h20.6l30.2,82.9h-17.4l-8.5-24h-29.6ZM713.8,877.3l-7.6-20.9c-1.8-5-3.3-10-4.6-14.5h-.2c-1.3,4.5-2.6,9.6-4.2,14.4l-7.3,21h24Z"></path><path class="st8" d="M758.4,831.4c7.7-1.1,17.2-1.8,27.3-1.8,17.5,0,29.4,3.5,37.9,10.5,8.5,6.7,13.7,16.3,13.7,29.5s-5.3,24.8-13.6,32.3c-9.3,8.1-24,12.2-42,12.2s-17.6-.5-23.3-1.2v-81.5ZM774.3,901.3c2.5.4,6.3.5,10.2.5,23.2.1,36.1-11.9,36.1-31.4.1-18.1-12.2-28.6-33.7-28.6s-10,.5-12.5,1v58.5Z"></path><path class="st8" d="M847.6,904.7c0-5.8,4-10,9.8-10s9.7,4.1,9.8,10c0,5.6-3.9,9.9-9.8,9.9s-9.8-4.3-9.8-9.9Z"></path><path class="st8" d="M900.6,836.2c0,4.5-3.4,8.4-9.1,8.4s-8.8-3.8-8.8-8.4,3.5-8.4,9-8.4,8.8,3.7,8.9,8.4ZM883.7,913.2v-59.9h15.8v59.9h-15.8Z"></path><path class="st8" d="M921,873.3c0-8.8-.1-14.6-.5-20h13.7l.5,12.2h.4c3.2-9.2,10.8-13.6,17.8-13.6s2.5,0,3.8.4v14.6c-1.5-.3-2.9-.5-5-.5-8.1,0-13.3,4.9-14.6,11.8-.2,1.3-.3,2.8-.3,4.2v30.9h-15.8v-39.8Z"></path></g><g class="st5"><path class="st8" d="M310.2,975.7c.5,10,9.6,15.1,20.2,15.1s13.2-1.1,18.5-3l2.4,10.7c-5.6,2.3-13.1,4.1-22.9,4.1-20.8,0-33.2-12.3-33.2-30.6s10.2-32.3,31.6-32.3,28.1,17.5,28.1,29.7-.3,4.9-.6,6.1h-44ZM339.9,964.8c0-4.2-2.1-14.3-14.1-14.3s-14.8,8.5-15.6,14.3h29.7Z"></path><path class="st8" d="M371.8,1001.2v-82.9h19l23.9,35.6c6.3,9.7,11.4,19,15.6,28.3h.3c-1.2-11.2-1.3-21.2-1.3-33.2v-30.8h14.8v82.9h-16.9l-24.2-36.9c-6-9.6-12.1-19.7-16.8-29.3h-.4c.6,11.3.7,22,.7,34.4v31.8h-14.8Z"></path><path class="st8" d="M484.5,977.2l-7.9,24h-16.6l29.3-82.9h20.6l30.2,82.9h-17.4l-8.5-24h-29.6ZM511.2,965.4l-7.6-20.9c-1.8-5-3.3-10-4.6-14.5h-.2c-1.3,4.5-2.6,9.6-4.2,14.4l-7.3,21h24Z"></path><path class="st8" d="M632.2,966.8c-.5-11.2-1.1-24.6-1.1-36.6h-.3c-3.1,10.5-7,22.1-11.1,33.4l-13.4,36.6h-12.5l-11.9-36.2c-3.6-11.4-6.8-23-9.2-33.8h-.2c-.4,11.3-.9,25.4-1.6,37.1l-2,33.9h-15l5.5-82.9h21.9l11.7,33.2c3.1,9.5,6,19.7,8.1,28.9h.4c2.5-9,5.7-19.6,9.2-29l12.7-33.1h21.5l4.7,82.9h-15.7l-1.6-34.4Z"></path><path class="st8" d="M687,977.2l-7.9,24h-16.6l29.3-82.9h20.6l30.2,82.9h-17.4l-8.5-24h-29.6ZM713.8,965.4l-7.6-20.9c-1.8-5-3.3-10-4.6-14.5h-.2c-1.3,4.5-2.6,9.6-4.2,14.4l-7.3,21h24Z"></path><path class="st8" d="M758.4,919.5c7.7-1.1,17.2-1.8,27.3-1.8,17.5,0,29.4,3.5,37.9,10.5,8.5,6.7,13.7,16.3,13.7,29.5s-5.3,24.8-13.6,32.3c-9.3,8.1-24,12.2-42,12.2s-17.6-.5-23.3-1.2v-81.5ZM774.3,989.3c2.5.4,6.3.5,10.2.5,23.2.1,36.1-11.9,36.1-31.4.1-18.1-12.2-28.6-33.7-28.6s-10,.5-12.5,1v58.5Z"></path><path class="st8" d="M847.6,992.8c0-5.8,4-10,9.8-10s9.7,4.1,9.8,10c0,5.6-3.9,9.9-9.8,9.9s-9.8-4.3-9.8-9.9Z"></path><path class="st8" d="M900.6,924.2c0,4.5-3.4,8.4-9.1,8.4s-8.8-3.8-8.8-8.4,3.5-8.4,9-8.4,8.8,3.7,8.9,8.4ZM883.7,1001.2v-59.9h15.8v59.9h-15.8Z"></path><path class="st8" d="M921,961.4c0-8.8-.1-14.6-.5-20h13.7l.5,12.2h.4c3.2-9.2,10.8-13.6,17.8-13.6s2.5,0,3.8.4v14.6c-1.5-.3-2.9-.5-5-.5-8.1,0-13.3,4.9-14.6,11.8-.2,1.3-.3,2.8-.3,4.2v30.9h-15.8v-39.8Z"></path></g><text class="st2" transform="translate(289 918.6)"><tspan x="0" y="0">eNAMAD.ir</tspan></text><g><g><polygon class="st0" points="246.2 1097 204.8 1123.6 217.2 1076 179.2 1044.8 228.3 1042 246.2 996.2 264 1042 313.1 1044.8 275.1 1076 287.5 1123.6 246.2 1097"></polygon><path class="st9" d="M263.9,982.4h0,0M246.2,1027.8l4.5,11.5,5.4,13.7,14.7.9,12.3.7-9.5,7.8-11.4,9.3,3.7,14.3,3.1,11.9-10.4-6.7-12.4-8-12.4,8-10.4,6.7,3.1-11.9,3.7-14.3-11.4-9.3-9.5-7.8,12.3-.7,14.7-.9,5.4-13.7,4.5-11.5M246.2,971.5c-1.5,0-3,.8-3.7,2.5l-22.2,56.9-61,3.5c-3.6.2-5.1,4.7-2.3,7l47.3,38.7-15.5,59.1c-.7,2.7,1.4,5,3.8,5s1.4-.2,2.1-.6l51.4-33,51.4,33c.7.4,1.4.6,2.1.6,2.4,0,4.5-2.3,3.8-5l-15.5-59.1,47.3-38.7c2.8-2.3,1.3-6.8-2.3-7l-61-3.5-22.2-56.9c-.7-1.7-2.2-2.5-3.7-2.5h0Z"></path></g><path class="st1" d="M635.7,974l22.2,56.9,61,3.5c3.6.2,5.1,4.7,2.3,7l-47.3,38.7,15.5,59.1c.9,3.5-2.9,6.3-6,4.3l-51.4-33-51.4,33c-3,1.9-6.9-.8-6-4.3l15.5-59.1-47.3-38.7c-2.8-2.3-1.3-6.8,2.3-7l61-3.5,22.2-56.9c1.3-3.4,6.1-3.4,7.4,0Z"></path><path class="st1" d="M442.8,974l22.2,56.9,61,3.5c3.6.2,5.1,4.7,2.3,7l-47.3,38.7,15.5,59.1c.9,3.5-2.9,6.3-6,4.3l-51.4-33-51.4,33c-3,1.9-6.9-.8-6-4.3l15.5-59.1-47.3-38.7c-2.8-2.3-1.3-6.8,2.3-7l61-3.5,22.2-56.9c1.3-3.4,6.1-3.4,7.4,0Z"></path><path class="st1" d="M828.6,974l22.2,56.9,61,3.5c3.6.2,5.1,4.7,2.3,7l-47.3,38.7,15.5,59.1c.9,3.5-2.9,6.3-6,4.3l-51.4-33-51.4,33c-3,1.9-6.9-.8-6-4.3l15.5-59.1-47.3-38.7c-2.8-2.3-1.3-6.8,2.3-7l61-3.5,22.2-56.9c1.3-3.4,6.1-3.4,7.4,0Z"></path><path class="st1" d="M1021.5,974l22.2,56.9,61,3.5c3.6.2,5.1,4.7,2.3,7l-47.3,38.7,15.5,59.1c.9,3.5-2.9,6.3-6,4.3l-51.4-33-51.4,33c-3,1.9-6.9-.8-6-4.3l15.5-59.1-47.3-38.7c-2.8-2.3-1.3-6.8,2.3-7l61-3.5,22.2-56.9c1.3-3.4,6.1-3.4,7.4,0Z"></path></g></svg>