<?xml version="1.0" encoding="UTF-8"?>
<svg id="Layer_1" xmlns="http://www.w3.org/2000/svg" version="1.1" xmlns:xlink="http://www.w3.org/1999/xlink" viewBox="0 0 512 512">
  <!-- Generator: Adobe Illustrator 29.3.1, SVG Export Plug-In . SVG Version: 2.1.0 Build 151)  -->
  <defs>
    <style>
      .st0, .st1 {
        fill: #4ea46c;
      }

      .st2, .st3 {
        fill: #c0edd0;
      }

      .st4, .st5 {
        fill: #21723d;
      }

      .st3, .st1, .st5, .st6, .st7 {
        fill-rule: evenodd;
      }

      .st8 {
        fill: #164927;
        font-family: NotoSerif-Bold, 'Noto Serif';
        font-size: 123.2px;
        font-weight: 700;
      }

      .st9 {
        fill: #373737;
      }

      .st10 {
        fill: none;
        stroke: #164927;
        stroke-linecap: round;
        stroke-linejoin: round;
        stroke-width: 15px;
      }

      .st11 {
        fill: #69c784;
      }

      .st12 {
        display: none;
      }

      .st6 {
        fill: #81c298;
      }

      .st13 {
        fill: #050819;
      }

      .st14 {
        fill: #81ffac;
      }

      .st15 {
        fill: #74c691;
      }
    </style>
  </defs>
  <g class="st12">
    <path class="st10" d="M268.1,385.8,299.8,376.1"/>
    <path class="st10" d="M322.2,91c69.7,0,126.3,56.5,126.3,126.3"/>
    <path class="st10" d="M469.5,194.8l-20.8,24.6-24.6-20.8"/>
    <path class="st10" d="M189.2,460.1c-69.7,0-126.3-56.5-126.3-126.3"/>
    <path class="st10" d="M176.9,437.4l24.6,20.8-20.8,24.6"/>
  </g>
  <g>
    <path class="st4" d="M423.6,430.3c7.8,0,14.4-5.4,16-13.1,17.3-85.6,9.1-217.2-12.2-303-3.6-14.4-16.6-24.6-31.5-24.6H128.4c1,154.7-9.4,247.7-32.4,340.7h327.6Z"/>
    <path class="st15" d="M375.1,462.8c7.5,0,14.1-5.1,15.7-12.4,20.2-88.2,29.7-203.9,29.5-344.4,0-8.9-7.3-16.2-16.2-16.2H96c-9,0-16.2,7.4-16.2,16.3.2,136.8-8.8,250-28,337.3-2.2,10.1,5.5,19.5,15.8,19.5h307.5Z"/>
    <path class="st14" d="M225.8,41h48.7v81.1h-48.7V41Z"/>
    <path class="st13" d="M433.2,112.8c-1.5-6.1-4.6-11.8-8.9-16.5-3.7-7.7-11.5-12.7-20-12.7h-123.7v-42.6c0-3.3-2.8-6.1-6.1-6.1h-48.7c-3.3,0-6.1,2.8-6.1,6.1v42.6h-123.7c-12.2,0-22.2,10.1-22.2,22.4.2,138-9.2,251-27.8,336-1.5,6.6.2,13.4,4.4,18.7,4.2,5.3,10.5,8.3,17.4,8.3h307.4c10.5,0,19.4-7.1,21.7-17.1,1.1-5,2.3-10.1,3.3-15.3h23.4c10.5,0,19.8-7.5,21.9-17.9,18.6-91.9,7.5-226.1-12.3-305.7h0ZM231.8,47.1h36.5v68.9h-36.5V47.1ZM375.1,456.7H67.7c-3.1,0-5.9-1.4-7.9-3.7s-2.7-5.4-2-8.4c18.8-85.8,28.3-199.7,28.1-338.6,0-5.6,4.5-10.2,10.1-10.2h123.7v26.4c0,3.3,2.8,6.1,6.1,6.1h48.7c3.3,0,6.1-2.8,6.1-6.1v-26.4h123.7c5.6,0,10.1,4.5,10.1,10.1.2,141.8-9.7,257.3-29.4,343.1-1.1,4.5-5.1,7.7-9.9,7.7h0ZM433.5,416.1c-1,4.7-5.1,8.1-9.9,8.2h-21c14.7-76.2,22.6-172.1,23.8-286,16.1,79.3,23.7,195.8,7.1,277.8Z"/>
  </g>
  <text class="st8" transform="translate(106.7 319.7)"><tspan x="0" y="0">IR98</tspan></text>
  <g class="st12">
    <g>
      <path class="st5" d="M463.8,336.4l5.1,125h-37.4l5.1-125h27.3ZM303.9,336.4l5.1,125h-37.4l5.1-125h27.3ZM357.2,336.4l5.1,125h-37.4l5.1-125h27.3ZM410.5,336.4l5.1,125h-37.4l5.1-125h27.3Z"/>
      <path class="st1" d="M265,460.7h210.4l10.1,24.3h-230.7l10.1-24.3ZM257.4,322.4h225.6l-10.1,23.2h-205.4l-10.1-23.2Z"/>
      <path class="st5" d="M250.2,477.1h240l5.1,15.8h-250.1l5.1-15.8ZM370.2,252.4l125.1,65.4-5.1,11.2h-240l-5.1-11.2,125.1-65.4Z"/>
    </g>
    <circle class="st0" cx="370.2" cy="293.5" r="23.3"/>
    <g>
      <path class="st6" d="M354.3,416.7h146.5c2.8,0,5.1,2.3,5.1,5.1v79.1c0,2.8-2.3,5.1-5.1,5.1h-146.5c-2.8,0-5.1-2.3-5.1-5.1v-79.1c0-2.8,2.3-5.1,5.1-5.1Z"/>
      <path class="st3" d="M389.8,452.8c6.3,0,11.5-5.2,11.5-11.5s-5.2-11.5-11.5-11.5-11.5,5.2-11.5,11.5c0,6.3,5.2,11.5,11.5,11.5Z"/>
      <path class="st1" d="M368.7,472.3c1.5-10.3,10.4-18.3,21.1-18.3s19.6,8,21.1,18.3c.1.8,0,1.5-.6,2.1-.5.6-1.2.9-2,.9h-36.9c-.8,0-1.5-.3-2-.9-.5-.6-.7-1.3-.6-2.1h0Z"/>
    </g>
    <path class="st7" d="M490.9,470.7c0,2.3-1.9,4.2-4.2,4.2h-60.1c-2.3,0-4.2-1.9-4.2-4.2s1.9-4.2,4.2-4.2h60.1c2.3,0,4.2,1.9,4.2,4.2ZM490.9,489.4c0,2.3-1.9,4.2-4.2,4.2h-118.2c-2.3,0-4.2-1.9-4.2-4.2s1.9-4.2,4.2-4.2h118.2c2.3,0,4.2,1.9,4.2,4.2ZM490.9,451.9c0,2.3-1.9,4.2-4.2,4.2h-60.1c-2.3,0-4.2-1.9-4.2-4.2s1.9-4.2,4.2-4.2h60.1c2.3,0,4.2,1.9,4.2,4.2ZM490.9,433.2c0,2.3-1.9,4.2-4.2,4.2h-60.1c-2.3,0-4.2-1.9-4.2-4.2s1.9-4.2,4.2-4.2h60.1c2.3,0,4.2,1.9,4.2,4.2ZM389.8,457c7.9,0,14.6,5.5,16.5,12.8h-33c1.9-7.4,8.6-12.8,16.5-12.8h0ZM389.8,434c4,0,7.3,3.3,7.3,7.3s-3.3,7.3-7.3,7.3-7.3-3.3-7.3-7.3,3.3-7.3,7.3-7.3ZM368.5,478.3h42.5c2.3,0,4.2-1.9,4.2-4.2,0-9.8-5.5-18.2-13.6-22.5,2.4-2.8,3.8-6.3,3.8-10.2,0-8.7-7-15.7-15.7-15.7s-15.7,7-15.7,15.7,1.4,7.5,3.8,10.2c-8.1,4.3-13.6,12.8-13.6,22.5,0,2.3,1.9,4.2,4.2,4.2h0ZM501.7,500.9v-79.1c0-.5-.4-.8-.8-.8h-146.5c-.4,0-.8.4-.8.8v79.1c0,.5.4.8.8.8h146.5c.4,0,.8-.4.8-.8h0ZM250.9,488.7l2.4-7.4h91.8v7.4h-94.1ZM267.8,464.9h77.3v8h-80.6l3.3-8ZM280.3,349.9h19.9l4.3,106.6h-28.6l4.3-106.6ZM266.6,333.1h207.1l-3.6,8.3h-199.8l-3.6-8.3ZM250.6,319.7l119.6-62.5,119.6,62.5-2.3,5h-234.6l-2.3-5ZM417.8,412.5l-2.5-62.6h16.5l-2.5,62.6h-11.4ZM386.9,349.9h19.9l2.5,62.6h-25l2.5-62.6ZM364.5,412.5l-2.5-62.6h16.5l-2.5,62.6h-11.4ZM313,456.5l-4.3-106.6h16.5l-4.3,106.6h-7.8ZM345,421.7v34.7h-15.8l4.3-106.6h19.9l2.5,62.6h-1.7c-5.1,0-9.3,4.2-9.3,9.3h0ZM462.6,412.5h-25l2.5-62.6h19.9l2.5,62.6ZM500.9,412.5h-29.8l-2.5-62.6h4.3c1.7,0,3.2-1,3.9-2.5l6.2-14.2h7.2c1.7,0,3.2-1,3.9-2.5l5.1-11.2c.9-2,0-4.4-1.9-5.5l-125.1-65.4c-1.2-.6-2.7-.6-3.9,0l-125.1,65.4c-2,1-2.8,3.4-1.9,5.5l5.1,11.2c.7,1.5,2.2,2.5,3.8,2.5h7.2l6.2,14.2c.7,1.5,2.2,2.5,3.9,2.5h4.3l-4.3,106.6h-2.5c-1.7,0-3.2,1-3.9,2.6l-5.8,13.8h-5.1c-1.8,0-3.5,1.2-4,2.9l-5.1,15.8c-.4,1.3-.2,2.7.6,3.8.8,1.1,2.1,1.7,3.4,1.7h99.9v3.7c0,5.1,4.2,9.3,9.3,9.3h146.5c5.1,0,9.3-4.2,9.3-9.3v-79.1c0-5.1-4.2-9.3-9.3-9.3h0ZM369.6,297.7c-1,0-1.9-.2-2.8-.4.7.3,1.3.8,1.8,1.4,0,0,.2.3.5.3h1.5c.3,0,.6-.3.6-.6s-.3-.6-.6-.6h-1.1ZM369.6,288c-.3,0-.6.3-.6.6s.3.6.6.6h1.1c.9,0,1.9.2,2.8.4-.7-.3-1.4-.8-1.8-1.4-.1-.2-.3-.3-.5-.3h-1.5ZM366.4,297.1c-1.2-.4-2.6-.1-3.6.6-1.9,1.4-2.3,4-1,5.9,1,1.4,2.5,2.5,4.1,3.2v.5c0,2.3,1.9,4.2,4.2,4.2s4.2-1.9,4.2-4.2v-.7c3.2-1.4,5.4-4.6,5.4-8.3s-2.4-7.2-5.9-8.5c1.2.3,2.6.2,3.7-.6,1.9-1.4,2.3-4,1-5.9,0,0,0,0,0,0-1-1.4-2.5-2.5-4.1-3.2v-.5c0-2.3-1.9-4.2-4.2-4.2s-4.2,1.9-4.2,4.2v.7c-3.2,1.4-5.4,4.6-5.4,8.3,0,3.9,2.4,7.2,5.9,8.5ZM370.2,274.4c-10.6,0-19.1,8.6-19.1,19.1s8.6,19.1,19.1,19.1,19.1-8.6,19.1-19.1-8.6-19.1-19.1-19.1ZM370.2,321.1c15.2,0,27.6-12.4,27.6-27.6s-12.4-27.6-27.6-27.6-27.6,12.4-27.6,27.6,12.4,27.6,27.6,27.6h0Z"/>
  </g>
  <g class="st12">
    <path class="st0" d="M240.2,117.8l2.1-2.1c7-7,7-18.3,0-25.3L163.3,11.3c-7-7-18.3-7-25.3,0L11.6,137.8c-7,7-7,18.3,0,25.3l39.5,39.5,189.1-84.8Z"/>
    <path class="st4" d="M14.7,166.2L166.4,14.4l18.9,18.9L33.6,185.1l-18.9-18.9Z"/>
    <rect class="st11" x="50.1" y="116.7" width="219" height="150.6" rx="34.1" ry="34.1"/>
    <rect class="st2" x="68.9" y="140.1" width="35.8" height="26.8" rx="8.5" ry="8.5"/>
    <g>
      <path class="st9" d="M30.5,188.3l16.1,16.1v43c0,12.3,10,22.3,22.3,22.3h178.8c12.3,0,22.3-10,22.3-22.3v-111.7c0-12.3-10-22.3-22.3-22.3H111.8l73.6-73.6,53.8,53.8c2,2,3.3,4.5,3.7,7.2.4,2.4,2.7,4.1,5.2,3.6,2.4-.4,4.1-2.7,3.6-5.2-.8-4.5-2.9-8.7-6.2-12l-56.9-56.9h0s0,0,0,0l-22-22.1c-8.7-8.7-22.8-8.7-31.6,0L8.4,134.6c-8.7,8.8-8.7,22.9,0,31.6l22,22ZM46.6,165.8l-13,13-12.6-12.6,25.6-25.6v25.3ZM40,185.1l6.6-6.6v13.3l-6.6-6.6ZM261.1,135.7v111.7c0,7.4-6,13.4-13.4,13.4H68.9c-7.4,0-13.4-6-13.4-13.4h0v-111.7c0-7.4,6-13.4,13.4-13.4h178.8c7.4,0,13.4,6,13.4,13.4ZM99.1,113.3h-25.3L166.4,20.7l12.6,12.6-79.9,79.9ZM14.8,140.9L141.2,14.4c5.3-5.1,13.6-5.1,18.9,0L58.6,116c-4,2.1-7.2,5.3-9.3,9.3l-34.6,34.6c-5.1-5.3-5.1-13.7,0-18.9h0Z"/>
      <path class="st9" d="M73.4,135.7c-4.9,0-8.9,4-8.9,8.9v17.9c0,4.9,4,8.9,8.9,8.9h26.8c4.9,0,8.9-4,8.9-8.9v-17.9c0-4.9-4-8.9-8.9-8.9h-26.8ZM73.4,162.5v-17.9h26.8v17.9h-26.8ZM68.9,198.2c2.5,0,4.5-2,4.5-4.5v-8.9c0-2.5-2-4.5-4.5-4.5s-4.5,2-4.5,4.5v8.9c0,2.5,2,4.5,4.5,4.5ZM86.8,180.3c-2.5,0-4.5,2-4.5,4.5v8.9c0,2.5,2,4.5,4.5,4.5s4.5-2,4.5-4.5v-8.9c0-2.5-2-4.5-4.5-4.5ZM104.7,198.2c2.5,0,4.5-2,4.5-4.5v-8.9c0-2.5-2-4.5-4.5-4.5s-4.5,2-4.5,4.5v8.9c0,2.5,2,4.5,4.5,4.5ZM122.6,198.2c2.5,0,4.5-2,4.5-4.5v-8.9c0-2.5-2-4.5-4.5-4.5s-4.5,2-4.5,4.5v8.9c0,2.5,2,4.5,4.5,4.5ZM140.4,198.2c2.5,0,4.5-2,4.5-4.5v-8.9c0-2.5-2-4.5-4.5-4.5s-4.5,2-4.5,4.5v8.9c0,2.5,2,4.5,4.5,4.5ZM176.2,198.2c2.5,0,4.5-2,4.5-4.5v-8.9c0-2.5-2-4.5-4.5-4.5s-4.5,2-4.5,4.5v8.9c0,2.5,2,4.5,4.5,4.5ZM194.1,198.2c2.5,0,4.5-2,4.5-4.5v-8.9c0-2.5-2-4.5-4.5-4.5s-4.5,2-4.5,4.5v8.9c0,2.5,2,4.5,4.5,4.5ZM212,198.2c2.5,0,4.5-2,4.5-4.5v-8.9c0-2.5-2-4.5-4.5-4.5s-4.5,2-4.5,4.5v8.9c0,2.5,2,4.5,4.5,4.5ZM229.8,198.2c2.5,0,4.5-2,4.5-4.5v-8.9c0-2.5-2-4.5-4.5-4.5s-4.5,2-4.5,4.5v8.9c0,2.5,2,4.5,4.5,4.5ZM86.8,207.2h-17.9c-2.5,0-4.5,2-4.5,4.5s2,4.5,4.5,4.5h17.9c2.5,0,4.5-2,4.5-4.5s-2-4.5-4.5-4.5ZM122.6,207.2h-17.9c-2.5,0-4.5,2-4.5,4.5s2,4.5,4.5,4.5h17.9c2.5,0,4.5-2,4.5-4.5s-2-4.5-4.5-4.5ZM86.8,225h-17.9c-2.5,0-4.5,2-4.5,4.5s2,4.5,4.5,4.5h17.9c2.5,0,4.5-2,4.5-4.5s-2-4.5-4.5-4.5ZM122.6,225h-17.9c-2.5,0-4.5,2-4.5,4.5s2,4.5,4.5,4.5h17.9c2.5,0,4.5-2,4.5-4.5s-2-4.5-4.5-4.5ZM140.4,216.1h17.9c2.5,0,4.5-2,4.5-4.5s-2-4.5-4.5-4.5h-17.9c-2.5,0-4.5,2-4.5,4.5s2,4.5,4.5,4.5Z"/>
    </g>
  </g>
</svg>