<svg id="svg28031" height="512" viewBox="0 0 16.933333 16.933334" width="512" xmlns="http://www.w3.org/2000/svg" xmlns:svg="http://www.w3.org/2000/svg"><g id="layer1" transform="translate(0 -280.067)"><path id="path11424" d="m4.497915 284.03537c1.4657909 0 2.6458299 1.18004 2.6458299 2.64583v5.29166h-5.2916699v-5.29166c0-1.46579 1.1800499-2.64583 2.64584-2.64583z" fill="#2fa9da"/><path id="path11426" d="m8.4666659 291.97286h1.5875141v4.23334h-1.5875141z" fill="#33658a"/><path id="path11428" d="m1.2696899 290.38537c-.2636705 0-.47594047-.19319-.47594047-.43305v-3.8964c0-.23986.21226997-.43305.47594047-.43305h2.9636429 2.9636429c.2636705 0 .4759404.19319.4759404.43305v3.8964c0 .23986-.2122699.43305-.4759404.43305h-2.9636429z" fill="#d19a37"/><path id="path11886" d="m1.26969 290.38537h2.963643 2.9636429c.129022 0 .2457371-.0463.3304281-.12274l-3.294071-2.78768-3.29406803 2.78769c.08469.0765.20140403.12273.33042503.12273z" fill="#e8ab3c"/><path id="path11884" d="m1.2696899 285.62287h2.9636429 2.9636429c.1290214 0 .245737.0463.3304275.12274l-3.2940704 2.78768-3.29406783-2.78768c.0846905-.0765.20140353-.12274.33042493-.12274z" fill="#ffbc42"/><path id="path11889" d="m7.1437449 286.6812-.0000039 5.29166h8.995823v-5.29166c0-1.46579-1.18004-2.64583-2.64583-2.64583h-8.997045c1.4670169 0 2.647057 1.18004 2.6470559 2.64583z" fill="#33b9ef"/><path id="path11891" d="m11.112508 280.86036h2.381239v1.5875h-2.381239z" fill="#ff6b6b"/><path id="path11893" d="m11.906197 287.47495c0 .43838-.355369.79375-.793749.79375s-.793749-.35537-.793749-.79375.355369-.79375.793749-.79375.793749.35537.793749.79375z" fill="#dbe9ee"/><path id="path3590-2" d="m3.1124699 284.74127c.3896939-.27822.8661612-.44132 1.3854462-.44132 1.3237869 0 2.3812497 1.05746 2.3812497 2.38125v5.02812h-4.7635348v-.26562c.03229-.38249-.559387-.38249-.527098 0v.52917c.0005292.14541.118142.26304.263549.26355h7.9375v3.7052h-1.058849v-2.9099c0-.35286-.5291669-.35286-.5291669 0v3.17345c-.0005292.14693.1186817.26618.265616.26562h1.5859489c.146934.00055.266184-.11869.265618-.26562v-3.96875h5.820316c.14617.00056.2651-.11738.265616-.26355v-5.29115c0-1.60779-1.302107-2.9099-2.909898-2.9099h-2.117185v-2.64635h1.851567v1.05833h-1.05885c-.352864 0-.352864.52917 0 .52917h1.324468c.146169-.00053.264109-.11945.263548-.26562v-1.58801c-.000516-.14541-.118141-.26304-.263548-.26355h-2.3828c-.14541.00051-.263035.11814-.263551.26355v5.59449c-.454586.1187-.795301.53117-.795301 1.02112 0 .58137.477481 1.05834 1.058852 1.05834.581368 0 1.058332-.47697 1.058332-1.05834 0-.48916-.339238-.90114-.792717-1.02061v-2.15542h2.117185c1.323787 0 2.380731 1.05901 2.380731 2.3828v5.0276h-8.467182v-5.02812c0-.98631-.491622-1.85593-1.2417841-2.38228h3.8865831c.382492.0323.382492-.55939 0-.5271l-5.5448811-.00053c-.641024-.00053-1.2268139.19936-1.7032549.53951-.301456.20247.01818.64997.3074749.43047zm-1.8427809.61702c-.39291102 0-.74052299.30167-.74052299.69763v3.8964c0 .39596.34761197.69763.74052299.69763h4.8689531c.3577989.005.3577989-.53422 0-.52916h-4.6214221l2.090312-1.76992.4547519.38447c.0987.0836.243396.0836.3420962 0l.4542369-.38447 1.055751.89348c.269404.22807.6115018-.17604.3420959-.40411l-.9880528-.83612.9880528-.83612c.2694059-.22807-.072692-.63218-.3420959-.40411l-1.681036 1.42265-2.717146-2.29909h4.0932889c.3577992.005.3577992-.53422 0-.52916zm-.211357.83509 2.1409559 1.81177-2.1409559 1.81075zm10.582817 1.28157c0 .29539-.233777.52917-.529166.52917-.295391 0-.529685-.23378-.529685-.52917 0-.29431.232711-.52747.530458-.52916.297.003.528393.23538.528393.52916z" font-variant-ligatures="normal" font-variant-position="normal" font-variant-caps="normal" font-variant-numeric="normal" font-variant-alternates="normal" font-feature-settings="normal" text-indent="0" text-align="start" text-decoration-line="none" text-decoration-style="solid" text-decoration-color="#000000" text-transform="none" text-orientation="mixed" white-space="normal" shape-padding="0" isolation="auto" mix-blend-mode="normal" solid-color="#000000" solid-opacity="1" vector-effect="none"/></g></svg>