<?xml version="1.0" encoding="UTF-8"?>
<svg id="Layer_1" xmlns="http://www.w3.org/2000/svg" version="1.1" xmlns:xlink="http://www.w3.org/1999/xlink" viewBox="0 0 512 512">
  <!-- Generator: Adobe Illustrator 29.3.1, SVG Export Plug-In . SVG Version: 2.1.0 Build 151)  -->
  <defs>
    <style>
      .st0, .st1 {
        fill: #4ea46c;
      }

      .st2, .st3 {
        fill: #21723d;
      }

      .st4 {
        fill: #c0edd0;
      }

      .st4, .st1, .st3, .st5, .st6 {
        fill-rule: evenodd;
      }

      .st7, .st8 {
        isolation: isolate;
      }

      .st9 {
        fill: none;
        stroke: #164927;
        stroke-linecap: round;
        stroke-linejoin: round;
        stroke-width: 15px;
      }

      .st8 {
        fill: #164927;
        font-family: NotoSerif-Bold, 'Noto Serif';
        font-size: 76px;
        font-weight: 700;
      }

      .st5 {
        fill: #81c298;
      }

      .st10 {
        fill: #050819;
      }

      .st11 {
        fill: #81ffac;
      }

      .st12 {
        fill: #74c691;
      }
    </style>
  </defs>
  <g>
    <path class="st9" d="M322.2,91c69.7,0,126.3,56.5,126.3,126.3"/>
    <path class="st9" d="M469.5,194.8l-20.8,24.6-24.6-20.8"/>
    <path class="st9" d="M189.2,460.1c-69.7,0-126.3-56.5-126.3-126.3"/>
    <path class="st9" d="M176.9,437.4l24.6,20.8-20.8,24.6"/>
  </g>
  <g>
    <path class="st2" d="M491.8,485.9c4.8,0,8.9-3.4,9.9-8.1,10.7-52.8,5.6-134-7.6-187-2.2-8.9-10.2-15.2-19.4-15.2h-165c.6,95.4-5.8,152.8-20,210.2h202.1,0Z"/>
    <path class="st12" d="M461.9,505.9c4.7,0,8.7-3.2,9.7-7.7,12.5-54.4,18.3-125.8,18.2-212.5,0-5.5-4.5-10-10-10h-190.1c-5.6,0-10,4.6-10,10.1.1,84.4-5.5,154.2-17.3,208.1-1.4,6.2,3.4,12.1,9.8,12.1h189.7Z"/>
    <path class="st11" d="M369.8,245.7h30v50h-30s0-50,0-50Z"/>
    <path class="st10" d="M497.7,290c-1-3.8-2.9-7.3-5.5-10.2-2.3-4.8-7.1-7.8-12.4-7.9h-76.3v-26.2c0-2.1-1.7-3.8-3.8-3.8h-30c-2.1,0-3.8,1.7-3.8,3.8v26.3h-76.2c-7.6,0-13.7,6.2-13.7,13.8.1,85.1-5.7,154.8-17.2,207.3-.9,4.1,0,8.3,2.7,11.5,2.6,3.3,6.5,5.1,10.7,5.1h189.7c6.5,0,12-4.4,13.4-10.6s1.4-6.3,2.1-9.5h14.5c6.5,0,12.2-4.7,13.5-11.1,11.5-56.7,4.6-139.5-7.6-188.6h0ZM373.5,249.4h22.5v42.5h-22.5s0-42.5,0-42.5ZM461.9,502.1h-189.6c-1.9,0-3.7-.9-4.9-2.3s-1.7-3.4-1.3-5.2c11.6-52.9,17.5-123.2,17.4-208.9,0-3.5,2.8-6.3,6.2-6.3h76.3v16.3c0,2.1,1.7,3.8,3.8,3.8h30c2.1,0,3.8-1.7,3.8-3.8v-16.3h76.3c3.5,0,6.3,2.8,6.3,6.3.1,87.5-6,158.7-18.1,211.7-.7,2.8-3.2,4.8-6.1,4.8h-.1ZM497.9,477.1c-.6,2.9-3.1,5-6.1,5.1h-13c9.1-47,14-106.2,14.7-176.4,10,48.9,14.6,120.8,4.4,171.4h0Z"/>
  </g>
  <g class="st7">
    <text class="st8" transform="translate(296.3 417.6)"><tspan x="0" y="0">IR98</tspan></text>
  </g>
  <g>
    <g>
      <path class="st3" d="M223.4,90l5.1,125h-37.4l5.1-125h27.3-.1ZM63.5,90l5.1,125H31.2l5.1-125h27.3-.1ZM116.8,90l5.1,125h-37.4l5.1-125h27.3-.1ZM170.1,90l5.1,125h-37.4l5.1-125h27.3-.1Z"/>
      <path class="st1" d="M24.6,214.3h210.4l10.1,24.3H14.4l10.1-24.3h.1ZM17,76h225.6l-10.1,23.2H27.1l-10.1-23.2Z"/>
      <path class="st3" d="M9.8,230.7h240l5.1,15.8H4.8l5.1-15.8h-.1ZM129.8,6l125.1,65.4-5.1,11.2H9.8l-5.1-11.2L129.8,6Z"/>
    </g>
    <circle class="st0" cx="129.8" cy="47.1" r="23.3"/>
    <g>
      <path class="st5" d="M113.9,170.3h146.5c2.8,0,5.1,2.3,5.1,5.1v79.1c0,2.8-2.3,5.1-5.1,5.1H113.9c-2.8,0-5.1-2.3-5.1-5.1v-79.1c0-2.8,2.3-5.1,5.1-5.1Z"/>
      <path class="st4" d="M149.4,206.4c6.3,0,11.5-5.2,11.5-11.5s-5.2-11.5-11.5-11.5-11.5,5.2-11.5,11.5,5.2,11.5,11.5,11.5Z"/>
      <path class="st1" d="M128.3,225.9c1.5-10.3,10.4-18.3,21.1-18.3s19.6,8,21.1,18.3c.1.8,0,1.5-.6,2.1-.5.6-1.2.9-2,.9h-36.9c-.8,0-1.5-.3-2-.9s-.7-1.3-.6-2.1h-.1Z"/>
    </g>
    <path class="st6" d="M250.5,224.3c0,2.3-1.9,4.2-4.2,4.2h-60.1c-2.3,0-4.2-1.9-4.2-4.2s1.9-4.2,4.2-4.2h60.1c2.3,0,4.2,1.9,4.2,4.2ZM250.5,243c0,2.3-1.9,4.2-4.2,4.2h-118.2c-2.3,0-4.2-1.9-4.2-4.2s1.9-4.2,4.2-4.2h118.2c2.3,0,4.2,1.9,4.2,4.2h0ZM250.5,205.5c0,2.3-1.9,4.2-4.2,4.2h-60.1c-2.3,0-4.2-1.9-4.2-4.2s1.9-4.2,4.2-4.2h60.1c2.3,0,4.2,1.9,4.2,4.2ZM250.5,186.8c0,2.3-1.9,4.2-4.2,4.2h-60.1c-2.3,0-4.2-1.9-4.2-4.2s1.9-4.2,4.2-4.2h60.1c2.3,0,4.2,1.9,4.2,4.2ZM149.4,210.6c7.9,0,14.6,5.5,16.5,12.8h-33c1.9-7.4,8.6-12.8,16.5-12.8h0ZM149.4,187.6c4,0,7.3,3.3,7.3,7.3s-3.3,7.3-7.3,7.3-7.3-3.3-7.3-7.3,3.3-7.3,7.3-7.3ZM128.1,231.9h42.5c2.3,0,4.2-1.9,4.2-4.2,0-9.8-5.5-18.2-13.6-22.5,2.4-2.8,3.8-6.3,3.8-10.2,0-8.7-7-15.7-15.7-15.7s-15.7,7-15.7,15.7,1.4,7.5,3.8,10.2c-8.1,4.3-13.6,12.8-13.6,22.5s1.9,4.2,4.2,4.2h.1ZM261.3,254.5v-79.1c0-.5-.4-.8-.8-.8H114c-.4,0-.8.4-.8.8v79.1c0,.5.4.8.8.8h146.5c.4,0,.8-.4.8-.8h0ZM10.5,242.3l2.4-7.4h91.8v7.4H10.5ZM27.4,218.5h77.3v8H24.1l3.3-8h0ZM39.9,103.5h19.9l4.3,106.6h-28.6l4.3-106.6h.1ZM26.2,86.7h207.1l-3.6,8.3H29.9l-3.6-8.3h0ZM10.2,73.3L129.8,10.8l119.6,62.5-2.3,5H12.5l-2.3-5h0ZM177.4,166.1l-2.5-62.6h16.5l-2.5,62.6h-11.5ZM146.5,103.5h19.9l2.5,62.6h-25l2.5-62.6h.1ZM124.1,166.1l-2.5-62.6h16.5l-2.5,62.6h-11.5ZM72.6,210.1l-4.3-106.6h16.5l-4.3,106.6h-7.9ZM104.6,175.3v34.7h-15.8l4.3-106.6h19.9l2.5,62.6h-1.7c-5.1,0-9.3,4.2-9.3,9.3h.1ZM222.2,166.1h-25l2.5-62.6h19.9l2.5,62.6h.1ZM260.5,166.1h-29.8l-2.5-62.6h4.3c1.7,0,3.2-1,3.9-2.5l6.2-14.2h7.2c1.7,0,3.2-1,3.9-2.5l5.1-11.2c.9-2,0-4.4-1.9-5.5L131.8,2.1c-1.2-.6-2.7-.6-3.9,0L2.8,67.5C.8,68.5,0,70.9.9,73l5.1,11.2c.7,1.5,2.2,2.5,3.8,2.5h7.2l6.2,14.2c.7,1.5,2.2,2.5,3.9,2.5h4.3l-4.3,106.6h-2.5c-1.7,0-3.2,1-3.9,2.6l-5.8,13.8h-5.1c-1.8,0-3.5,1.2-4,2.9l-5.1,15.8c-.4,1.3-.2,2.7.6,3.8.8,1.1,2.1,1.7,3.4,1.7h99.9v3.7c0,5.1,4.2,9.3,9.3,9.3h146.5c5.1,0,9.3-4.2,9.3-9.3v-79.1c0-5.1-4.2-9.3-9.3-9.3h0ZM129.2,51.3c-1,0-1.9-.2-2.8-.4.7.3,1.3.8,1.8,1.4,0,0,.2.3.5.3h1.5c.3,0,.6-.3.6-.6s-.3-.6-.6-.6h-1.1.1ZM129.2,41.6c-.3,0-.6.3-.6.6s.3.6.6.6h1.1c.9,0,1.9.2,2.8.4-.7-.3-1.4-.8-1.8-1.4-.1-.2-.3-.3-.5-.3h-1.6ZM126,50.7c-1.2-.4-2.6-.1-3.6.6-1.9,1.4-2.3,4-1,5.9,1,1.4,2.5,2.5,4.1,3.2v.5c0,2.3,1.9,4.2,4.2,4.2s4.2-1.9,4.2-4.2v-.7c3.2-1.4,5.4-4.6,5.4-8.3s-2.4-7.2-5.9-8.5c1.2.3,2.6.2,3.7-.6,1.9-1.4,2.3-4,1-5.9h0c-1-1.4-2.5-2.5-4.1-3.2v-.5c0-2.3-1.9-4.2-4.2-4.2s-4.2,1.9-4.2,4.2v.7c-3.2,1.4-5.4,4.6-5.4,8.3s2.4,7.2,5.9,8.5h-.1ZM129.8,28c-10.6,0-19.1,8.6-19.1,19.1s8.6,19.1,19.1,19.1,19.1-8.6,19.1-19.1-8.6-19.1-19.1-19.1ZM129.8,74.7c15.2,0,27.6-12.4,27.6-27.6s-12.4-27.6-27.6-27.6-27.6,12.4-27.6,27.6,12.4,27.6,27.6,27.6h0Z"/>
  </g>
</svg>