<svg id="Layer_1" enable-background="new 0 0 512 512" height="512" viewBox="0 0 512 512" width="512" xmlns="http://www.w3.org/2000/svg"><g clip-rule="evenodd" fill-rule="evenodd"><g><g><path d="m224.879 81.141h62.929c5.569 0 10.126-4.557 10.126-10.127v-44.888c0-5.57-4.557-10.126-10.126-10.126h-62.929c-5.57 0-10.126 4.557-10.126 10.126v44.887c0 5.571 4.556 10.128 10.126 10.128z" fill="#8d9ca8"/><path d="m278.699 81.141h9.109c5.57 0 10.126-4.557 10.126-10.126v-44.889c0-5.57-4.557-10.126-10.126-10.126h-9.109c5.57 0 10.126 4.556 10.126 10.126v44.888c.001 5.57-4.556 10.127-10.126 10.127z" fill="#8192a5"/><path d="m110.836 126.162h290.327c5.57 0 10.126 4.557 10.126 10.127v156.239c0 5.569-4.557 10.126-10.126 10.126h-290.327c-5.57 0-10.127-4.557-10.127-10.126v-156.239c.001-5.57 4.557-10.127 10.127-10.127z" fill="#9facba"/><path d="m163.946 126.162h184.107v176.492h-184.107z" fill="#8d9ca8"/><path d="m186.73 47.502h138.539c5.57 0 10.127 4.556 10.127 10.126v245.025h-158.792v-245.025c0-5.57 4.556-10.126 10.126-10.126z" fill="#8192a5"/><path d="m221.956 302.654h70.369v-69.404c0-5.57-4.557-10.126-10.126-10.126h-50.117c-5.57 0-10.126 4.557-10.126 10.126z" fill="#eceff1"/><path d="m221.956 302.654h9.881v-69.404c0-5.57 4.556-10.126 10.126-10.126h-9.881c-5.57 0-10.126 4.557-10.126 10.126z" fill="#d1d1d6"/></g><g><path d="m182.891 496h146.219c3.103 0 5.773-1.309 7.674-3.762 1.901-2.452 2.504-5.364 1.73-8.368-9.458-36.748-42.813-63.903-82.514-63.903s-73.056 27.155-82.514 63.903c-.773 3.005-.171 5.917 1.73 8.369 1.902 2.453 4.572 3.761 7.675 3.761z" fill="#8ac9fe"/><path d="m329.109 496c3.103 0 5.773-1.309 7.674-3.762 1.901-2.452 2.504-5.364 1.73-8.368-9.458-36.748-42.813-63.903-82.514-63.903-3.284 0-6.523.19-9.71.551 35.343 4.01 64.128 29.643 72.803 63.352.774 3.005.171 5.916-1.73 8.368s-4.571 3.762-7.674 3.762z" fill="#60b7ff"/><ellipse cx="256.001" cy="376.889" fill="#f6dccd" rx="43.078" ry="43.078" transform="matrix(.16 -.987 .987 .16 -157.028 569.213)"/><path d="m256.001 333.81c23.792 0 43.078 19.287 43.078 43.078s-19.287 43.078-43.078 43.078c-2.05 0-4.065-.146-6.038-.423 20.932-2.937 37.04-20.913 37.04-42.655 0-21.741-16.108-39.718-37.04-42.655 1.973-.276 3.988-.423 6.038-.423z" fill="#f1cbbc"/></g><g><path d="m338.181 387.691 146.219-.001c3.103 0 5.773-1.309 7.674-3.762 1.901-2.452 2.504-5.364 1.73-8.368-9.458-36.748-42.813-63.903-82.514-63.903s-73.056 27.155-82.514 63.903c-.773 3.005-.171 5.916 1.73 8.369 1.902 2.454 4.572 3.762 7.675 3.762z" fill="#8ac9fe"/><path d="m484.4 387.691c3.103 0 5.773-1.309 7.674-3.762 1.901-2.452 2.504-5.364 1.73-8.368-9.458-36.748-42.813-63.903-82.514-63.903-3.284 0-6.523.19-9.71.551 35.343 4.01 64.128 29.643 72.803 63.352.774 3.005.171 5.916-1.73 8.368s-4.571 3.762-7.674 3.762z" fill="#60b7ff"/><ellipse cx="411.291" cy="268.58" fill="#f6dccd" rx="43.078" ry="43.078" transform="matrix(.122 -.993 .993 .122 94.471 643.973)"/><path d="m411.291 225.501c23.792 0 43.078 19.287 43.078 43.078s-19.287 43.078-43.078 43.078c-2.05 0-4.065-.147-6.038-.423 20.932-2.937 37.04-20.913 37.04-42.655 0-21.741-16.108-39.718-37.04-42.655 1.973-.276 3.988-.423 6.038-.423z" fill="#f1cbbc"/></g><g><path d="m27.6 387.691 146.219-.001c3.103 0 5.773-1.309 7.674-3.762 1.901-2.452 2.503-5.364 1.73-8.368-9.458-36.748-42.813-63.903-82.513-63.903-39.701 0-73.056 27.155-82.514 63.903-.773 3.005-.171 5.916 1.73 8.369 1.9 2.454 4.571 3.762 7.674 3.762z" fill="#8ac9fe"/><path d="m173.818 387.691c3.103 0 5.773-1.309 7.674-3.762 1.901-2.452 2.503-5.364 1.73-8.368-9.458-36.748-42.813-63.903-82.513-63.903-3.284 0-6.523.19-9.71.551 35.343 4.01 64.128 29.643 72.803 63.352.774 3.005.171 5.916-1.73 8.368s-4.571 3.762-7.674 3.762z" fill="#60b7ff"/><ellipse cx="100.71" cy="268.58" fill="#f6dccd" rx="43.078" ry="43.078" transform="matrix(.122 -.993 .993 .122 -178.163 335.719)"/><path d="m100.709 225.501c23.791 0 43.078 19.287 43.078 43.078s-19.287 43.078-43.078 43.078c-2.05 0-4.065-.147-6.038-.423 20.932-2.937 37.04-20.913 37.04-42.655 0-21.741-16.108-39.718-37.04-42.655 1.973-.276 3.989-.423 6.038-.423z" fill="#f1cbbc"/></g></g><path d="m486.585 379.69c-7.837-34.779-38.761-60.022-75.268-60.031-.009 0-.009 0-.019 0s-.023 0-.023 0c-36.521.009-67.436 25.252-75.268 60.031zm-385.852-60.032c-.005 0-.019 0-.019 0-.009 0-.019 0-.019 0-36.521.009-67.44 25.252-75.273 60.031h150.583c-7.841-34.778-38.76-60.021-75.272-60.031zm-.037-15.999h.019.019c19.336-.009 35.061-15.74 35.061-35.08s-15.74-35.08-35.08-35.08c-19.35 0-35.08 15.74-35.08 35.08-.001 19.341 15.72 35.071 35.061 35.08zm8.02-169.499h59.89v160.5h-23.991c4.552-7.639 7.183-16.559 7.183-26.081 0-25.441-18.71-46.589-43.082-50.448zm175.609 96.971h-54.369v63.529h54.369zm-99.72-175.627h142.793v239.156h-27.074v-71.531c0-4.42-3.577-7.997-7.997-7.997h-70.373c-4.41 0-7.997 3.577-7.997 7.997v71.531h-29.352zm38.149-16.004h67.181v-15.5h-67.181zm120.642 94.66v160.5h24c-4.551-7.639-7.183-16.559-7.183-26.081 0-25.441 18.701-46.589 43.082-50.439v-83.98zm67.902 99.339c19.34 0 35.076 15.74 35.076 35.08 0 19.341-15.73 35.071-35.057 35.08-.009 0-.019 0-.019 0-.01 0-.01 0-.023 0-19.327-.009-35.062-15.74-35.062-35.08s15.744-35.08 35.085-35.08zm90.655 159.539c-1.516 1.69-3.676 2.65-5.95 2.65h-169.415c-2.274 0-4.434-.96-5.954-2.65-1.516-1.69-2.25-3.94-2.01-6.199 3.742-34.949 26.382-63.548 57.151-76.181h-239.538c30.759 12.633 53.4 41.232 57.141 76.181.236 2.259-.494 4.509-2 6.199-1.525 1.69-3.685 2.65-5.954 2.65h-169.419c-2.269 0-4.439-.96-5.949-2.65-1.521-1.69-2.25-3.94-2.01-6.199 3.921-36.577 28.519-66.198 61.491-77.838-12.087-9.353-19.901-23.991-19.901-40.423 0-25.441 18.7-46.589 43.082-50.439v-91.982c0-4.42 3.577-7.997 7.997-7.997h67.892v-70.66c0-4.424 3.582-8.002 8.002-8.002h30.148v-23.5c0-4.42 3.582-7.997 8.002-7.997h83.18c4.42 0 7.997 3.577 7.997 7.997v23.502h29.46c4.42 0 8.002 3.577 8.002 8.002v70.66h67.902c4.42 0 7.997 3.577 7.997 7.997v91.972c24.382 3.86 43.082 25.008 43.082 50.448 0 16.432-7.809 31.07-19.901 40.423 32.962 11.64 57.57 41.26 61.477 77.838.243 2.259-.487 4.509-2.002 6.198zm-170.658 94.962c-7.841-34.779-38.761-60.022-75.267-60.031-.01 0-.01 0-.024 0-.01 0-.019 0-.019 0-36.521.009-67.44 25.252-75.268 60.031zm-75.31-76.03h.019.024c19.326-.009 35.057-15.74 35.057-35.08 0-19.341-15.74-35.081-35.08-35.081-19.341 0-35.076 15.74-35.076 35.081-.001 19.34 15.725 35.07 35.056 35.08zm92.678 83.179c.24 2.259-.49 4.509-1.996 6.199-1.52 1.69-3.681 2.65-5.95 2.65h-169.423c-2.269 0-4.429-.96-5.95-2.65-1.52-1.69-2.25-3.94-2.01-6.199 3.921-36.577 28.529-66.198 61.491-77.847-12.092-9.343-19.901-23.981-19.901-40.413 0-28.157 22.913-51.079 51.079-51.079 28.161 0 51.084 22.922 51.084 51.079 0 16.432-7.814 31.07-19.901 40.423 32.959 11.64 57.571 41.26 61.477 77.837zm32.685-290.866v20.258h-16.003v-20.258zm0-41.242v20.249h-16.003v-20.249zm-234.694 0h-15.999v20.249h15.999zm0 41.242h-15.999v20.258h15.999zm160.721-20.743h-20.249v16.003h20.249zm-82.488 0h-20.263v16.003h20.263zm41.237 0h-20.249v16.003h20.249zm41.251-36.798h-20.249v15.998h20.249zm-82.488 0h-20.263v15.998h20.263zm41.237 0h-20.249v15.998h20.249zm-41.237-36.799h-20.263v15.999h20.263zm82.488 0h-20.249v15.999h20.249zm-41.251 0h-20.249v15.999h20.249zm-41.237-36.803h-20.263v15.999h20.263zm41.237 0h-20.249v15.999h20.249zm41.251 15.999v-15.999h-20.249v15.999z"/></g></svg>