<svg width="512" height="512" viewBox="0 0 512 512" fill="none" xmlns="http://www.w3.org/2000/svg">
<g clip-path="url(#clip0_0_1)">
<g clip-path="url(#clip1_0_1)">
<path d="M443.356 298.376C382.496 333.514 304.674 312.662 269.536 251.802C254.302 225.414 249.608 195.842 254.12 167.94H21.8C12.56 167.94 5 175.5 5 184.74V422.434C5 431.674 12.56 439.234 21.8 439.234H462.2C471.44 439.234 479 431.674 479 422.434V267.784C469.126 280.111 457.038 290.486 443.356 298.376Z" fill="#F4FFF8"/>
<path d="M112.67 377.27C154.662 377.27 188.704 343.228 188.704 301.236C188.704 259.244 154.662 225.202 112.67 225.202C70.6776 225.202 36.636 259.244 36.636 301.236C36.636 343.228 70.6776 377.27 112.67 377.27Z" fill="#C0EDD0"/>
<path d="M112.67 358.302C144.187 358.302 169.736 332.753 169.736 301.236C169.736 269.719 144.187 244.17 112.67 244.17C81.1533 244.17 55.604 269.719 55.604 301.236C55.604 332.753 81.1533 358.302 112.67 358.302Z" fill="#4EA46C"/>
<path d="M379.734 315.424C450.01 315.424 506.98 258.454 506.98 188.178C506.98 117.902 450.01 60.932 379.734 60.932C309.458 60.932 252.488 117.902 252.488 188.178C252.488 258.454 309.458 315.424 379.734 315.424Z" fill="#F45252"/>
<path d="M379.734 296.826C439.739 296.826 488.382 248.183 488.382 188.178C488.382 128.173 439.739 79.53 379.734 79.53C319.729 79.53 271.086 128.173 271.086 188.178C271.086 248.183 319.729 296.826 379.734 296.826Z" fill="#FABCBC"/>
<path d="M285.642 242.502C293.754 256.597 304.938 268.683 318.364 277.86L488.086 179.872C486.892 164.142 482.24 148.428 473.826 133.854C465.412 119.28 454.128 107.394 441.104 98.496L271.382 196.484C272.616 212.7 277.49 228.43 285.642 242.502Z" fill="#FC657E"/>
<path d="M293.65 394.7C286.282 394.7 282.728 389.284 280.132 385.33C277.702 381.624 276.672 380.472 274.974 380.472C273.276 380.472 272.248 381.624 269.816 385.33C267.222 389.284 263.666 394.7 256.3 394.7C248.934 394.7 245.382 389.284 242.788 385.328C240.36 381.624 239.332 380.472 237.638 380.472C235.942 380.472 234.914 381.624 232.484 385.328C229.89 389.284 226.336 394.7 218.97 394.7C217.644 394.7 216.372 394.173 215.434 393.236C214.497 392.298 213.97 391.026 213.97 389.7C213.97 388.374 214.497 387.102 215.434 386.164C216.372 385.227 217.644 384.7 218.97 384.7C220.666 384.7 221.694 383.548 224.124 379.844C226.718 375.888 230.272 370.472 237.638 370.472C245.004 370.472 248.556 375.888 251.15 379.844C253.578 383.548 254.606 384.7 256.302 384.7C258 384.7 259.028 383.548 261.46 379.842C264.054 375.888 267.61 370.472 274.978 370.472C282.346 370.472 285.9 375.888 288.494 379.842C290.926 383.548 291.954 384.7 293.652 384.7C294.978 384.7 296.25 385.227 297.187 386.165C298.125 387.103 298.651 388.375 298.651 389.701C298.651 391.027 298.124 392.299 297.186 393.236C296.248 394.174 294.976 394.7 293.65 394.7ZM237 232.018H217.47C216.144 232.018 214.872 231.491 213.934 230.554C212.997 229.616 212.47 228.344 212.47 227.018C212.47 225.692 212.997 224.42 213.934 223.482C214.872 222.545 216.144 222.018 217.47 222.018H237C238.326 222.018 239.598 222.545 240.536 223.482C241.473 224.42 242 225.692 242 227.018C242 228.344 241.473 229.616 240.536 230.554C239.598 231.491 238.326 232.018 237 232.018ZM244.5 260.8H217.47C216.144 260.8 214.872 260.273 213.934 259.336C212.997 258.398 212.47 257.126 212.47 255.8C212.47 254.474 212.997 253.202 213.934 252.264C214.872 251.327 216.144 250.8 217.47 250.8H244.5C245.826 250.8 247.098 251.327 248.036 252.264C248.973 253.202 249.5 254.474 249.5 255.8C249.5 257.126 248.973 258.398 248.036 259.336C247.098 260.273 245.826 260.8 244.5 260.8ZM297 318.372H217.472C216.146 318.372 214.874 317.845 213.936 316.908C212.999 315.97 212.472 314.698 212.472 313.372C212.472 312.046 212.999 310.774 213.936 309.836C214.874 308.899 216.146 308.372 217.472 308.372H297C298.326 308.372 299.598 308.899 300.536 309.836C301.473 310.774 302 312.046 302 313.372C302 314.698 301.473 315.97 300.536 316.908C299.598 317.845 298.326 318.372 297 318.372ZM411 347.154H217.47C216.144 347.154 214.872 346.627 213.934 345.69C212.997 344.752 212.47 343.48 212.47 342.154C212.47 340.828 212.997 339.556 213.934 338.618C214.872 337.681 216.144 337.154 217.47 337.154H411C412.326 337.154 413.598 337.681 414.536 338.618C415.473 339.556 416 340.828 416 342.154C416 343.48 415.473 344.752 414.536 345.69C413.598 346.627 412.326 347.154 411 347.154ZM263 289.586H217.47C216.144 289.586 214.872 289.059 213.934 288.122C212.997 287.184 212.47 285.912 212.47 284.586C212.47 283.26 212.997 281.988 213.934 281.05C214.872 280.113 216.144 279.586 217.47 279.586H263C264.326 279.586 265.598 280.113 266.536 281.05C267.473 281.988 268 283.26 268 284.586C268 285.912 267.473 287.184 266.536 288.122C265.598 289.059 264.326 289.586 263 289.586ZM119.922 332.428H99.366C98.0399 332.428 96.7682 331.901 95.8305 330.964C94.8928 330.026 94.366 328.754 94.366 327.428C94.366 326.102 94.8928 324.83 95.8305 323.892C96.7682 322.955 98.0399 322.428 99.366 322.428H119.922C124.386 322.428 128.018 318.798 128.018 314.332C128.018 309.866 124.386 306.236 119.922 306.236H105.418C95.44 306.236 87.324 298.118 87.324 288.14C87.324 278.162 95.442 270.044 105.418 270.044H128.616C129.942 270.044 131.214 270.571 132.152 271.508C133.089 272.446 133.616 273.718 133.616 275.044C133.616 276.37 133.089 277.642 132.152 278.58C131.214 279.517 129.942 280.044 128.616 280.044H105.416C100.952 280.044 97.322 283.674 97.322 288.14C97.322 292.606 100.952 296.236 105.416 296.236H119.92C129.898 296.236 138.016 304.354 138.016 314.332C138.016 324.31 129.9 332.428 119.922 332.428Z" fill="black"/>
<path d="M112.67 341.386C111.344 341.386 110.072 340.859 109.134 339.922C108.197 338.984 107.67 337.712 107.67 336.386V266.086C107.67 264.76 108.197 263.488 109.134 262.55C110.072 261.613 111.344 261.086 112.67 261.086C113.996 261.086 115.268 261.613 116.206 262.55C117.143 263.488 117.67 264.76 117.67 266.086V336.386C117.67 337.712 117.143 338.984 116.206 339.922C115.268 340.859 113.996 341.386 112.67 341.386Z" fill="black"/>
<path d="M112.67 382.272C67.988 382.272 31.634 345.92 31.634 301.236C31.634 256.552 67.986 220.2 112.67 220.2C157.354 220.2 193.706 256.552 193.706 301.236C193.706 345.92 157.352 382.272 112.67 382.272ZM112.67 230.202C73.502 230.202 41.634 262.07 41.634 301.238C41.634 340.406 73.5 372.274 112.67 372.274C151.84 372.274 183.706 340.406 183.706 301.238C183.706 262.07 151.838 230.202 112.67 230.202Z" fill="black"/>
<path d="M462.2 444.232H21.8C9.78 444.232 0 434.452 0 422.434V184.738C0 172.718 9.78 162.94 21.8 162.94H254.12C254.845 162.939 255.561 163.096 256.219 163.399C256.877 163.702 257.461 164.145 257.931 164.697C258.4 165.249 258.744 165.897 258.939 166.595C259.133 167.293 259.173 168.025 259.056 168.74C254.582 196.4 259.842 225.012 273.866 249.302C290.192 277.582 316.554 297.808 348.094 306.26C379.632 314.716 412.578 310.374 440.856 294.048C454.003 286.472 465.616 276.504 475.098 264.658C475.746 263.851 476.628 263.264 477.624 262.979C478.619 262.695 479.678 262.726 480.655 263.069C481.632 263.412 482.478 264.05 483.077 264.895C483.675 265.739 483.997 266.749 483.998 267.784V422.436C484 434.454 474.22 444.232 462.2 444.232ZM21.8 172.94C18.6718 172.943 15.6725 174.187 13.4604 176.399C11.2482 178.611 10.0037 181.61 10 184.738V422.434C10.0037 425.562 11.2482 428.561 13.4604 430.773C15.6725 432.985 18.6718 434.229 21.8 434.232H462.2C468.706 434.232 474 428.94 474 422.434V280.936C465.647 289.433 456.179 296.756 445.856 302.706C415.264 320.366 379.622 325.058 345.506 315.918C311.386 306.776 282.868 284.892 265.206 254.3C251.024 229.683 245.125 201.161 248.378 172.938L21.8 172.94Z" fill="black"/>
<path d="M379.956 320.398C334.214 320.398 289.672 296.68 265.206 254.3C228.746 191.15 250.46 110.11 313.61 73.65C376.764 37.192 457.804 58.908 494.26 122.056C511.922 152.646 516.614 188.284 507.472 222.406C498.33 256.528 476.448 285.044 445.856 302.706C425.83 314.302 403.097 320.405 379.956 320.398ZM379.528 65.958C358.137 65.9507 337.123 71.5922 318.612 82.312C260.236 116.016 240.164 190.928 273.868 249.302C296.484 288.474 337.662 310.398 379.942 310.402C401.333 310.41 422.347 304.769 440.858 294.048C469.136 277.722 489.364 251.358 497.816 219.82C506.268 188.278 501.93 155.336 485.604 127.058C462.986 87.884 421.806 65.958 379.528 65.958Z" fill="black"/>
<path d="M379.916 301.876C370.044 301.876 360.11 300.58 350.318 297.956C320.996 290.098 296.488 271.294 281.31 245.002C249.978 190.732 268.638 121.09 322.908 89.756C349.198 74.58 379.824 70.548 409.146 78.402C438.468 86.26 462.976 105.066 478.154 131.356C509.486 185.626 490.826 255.268 436.556 286.6C419.046 296.71 399.61 301.876 379.916 301.876ZM379.564 84.486C361.604 84.486 343.88 89.194 327.908 98.416C278.414 126.994 261.396 190.508 289.97 240.002C303.812 263.978 326.164 281.128 352.906 288.294C379.648 295.462 407.582 291.78 431.556 277.938C481.05 249.362 498.068 185.848 469.494 136.354C455.652 112.378 433.3 95.228 406.558 88.062C397.755 85.6947 388.68 84.4925 379.564 84.486Z" fill="black"/>
<path d="M318.364 282.862C317.357 282.862 316.373 282.558 315.542 281.99C301.428 272.346 289.912 259.9 281.31 245.002C272.706 230.102 267.688 213.906 266.394 196.864C266.322 195.925 266.517 194.984 266.957 194.151C267.397 193.318 268.064 192.626 268.88 192.156L438.6 94.168C439.416 93.6983 440.348 93.4681 441.289 93.5039C442.23 93.5396 443.142 93.8398 443.92 94.37C458.032 104.01 469.548 116.456 478.152 131.358C486.754 146.256 491.774 162.454 493.068 179.496C493.14 180.435 492.945 181.376 492.505 182.209C492.065 183.042 491.398 183.734 490.582 184.204L320.86 282.192C320.101 282.631 319.24 282.862 318.364 282.862ZM276.65 199.216C278.174 213.614 282.65 227.32 289.972 240.002C297.292 252.682 306.926 263.412 318.634 271.934L482.818 177.142C481.292 162.744 476.818 149.038 469.496 136.356C462.172 123.672 452.54 112.942 440.834 104.424L276.65 199.216ZM112.67 363.3C78.448 363.3 50.604 335.458 50.604 301.236C50.604 267.014 78.446 239.172 112.67 239.172C146.894 239.172 174.736 267.014 174.736 301.236C174.736 335.458 146.892 363.3 112.67 363.3ZM112.67 249.172C83.962 249.172 60.604 272.528 60.604 301.236C60.604 329.944 83.96 353.3 112.67 353.3C141.38 353.3 164.736 329.944 164.736 301.236C164.736 272.528 141.378 249.172 112.67 249.172Z" fill="black"/>
<path d="M339.753 221.844L335.268 224.513L336.916 226.732C338.589 229.543 338.93 232.54 337.939 235.724C336.96 238.804 335.047 241.191 332.201 242.885L324.762 247.311C320.948 249.581 317.119 249.969 313.272 248.476C309.762 247.098 306.84 244.449 304.506 240.528L299.361 231.881L304.194 229.004L310.443 239.505C311.817 241.814 313.699 243.143 316.088 243.491C318.288 243.806 320.569 243.261 322.933 241.854L329.136 238.163C330.855 237.14 331.997 235.842 332.564 234.268C333.16 232.58 332.951 230.886 331.939 229.185C331.321 228.147 329.466 228.39 326.374 229.915C325.804 230.181 323.918 231.268 320.713 233.175L317.407 228.597L336.876 217.01L339.753 221.844ZM344.679 187.53C345.18 188.371 345.294 189.236 345.023 190.125C344.752 191.014 344.205 191.703 343.381 192.193C341.107 193.546 339.401 193.265 338.261 191.349C337.195 189.559 337.692 188.051 339.751 186.826C341.971 185.505 343.613 185.74 344.679 187.53ZM335.414 193.043C335.915 193.885 336.03 194.75 335.758 195.639C335.487 196.527 334.94 197.217 334.116 197.707C331.843 199.06 330.136 198.779 328.996 196.863C327.93 195.073 328.427 193.565 330.486 192.34C332.706 191.018 334.349 191.253 335.414 193.043ZM359.894 209.858C357.917 211.059 356.392 211.857 355.319 212.254C354.293 212.404 353.136 212.353 351.847 212.102C351.053 214.271 349.895 215.809 348.373 216.714L337.954 222.915L335.077 218.081L344.046 212.743C345.389 211.944 346.16 211.122 346.36 210.276C346.549 209.412 346.233 208.291 345.413 206.912L341.465 200.279L346.326 197.386L350.273 204.019C351.222 205.613 352.212 206.442 353.244 206.506C354.041 206.541 355.299 206.047 357.017 205.025L359.894 209.858ZM363.865 171.312C362.934 171.866 361.983 172.081 361.012 171.956C359.954 171.809 359.16 171.288 358.627 170.393C357.593 168.656 358.16 167.143 360.326 165.854C361.15 165.364 361.997 165.139 362.869 165.177C363.898 165.195 364.641 165.589 365.1 166.359C365.622 167.236 365.768 168.155 365.54 169.116C365.301 170.058 364.742 170.79 363.865 171.312ZM373.874 170.593C374.374 171.434 374.491 172.322 374.223 173.258C373.962 174.164 373.403 174.873 372.543 175.384C371.63 175.928 370.674 176.133 369.674 176.001C368.674 175.869 367.907 175.355 367.375 174.46C366.331 172.706 366.847 171.21 368.924 169.975C371.18 168.632 372.829 168.838 373.874 170.593ZM364.501 176.17C364.991 176.994 365.103 177.873 364.835 178.808C364.585 179.733 364.048 180.44 363.225 180.93C362.312 181.473 361.364 181.673 360.382 181.531C359.336 181.402 358.551 180.899 358.029 180.021C356.985 178.267 357.502 176.772 359.578 175.536C361.816 174.204 363.457 174.416 364.501 176.17ZM401.545 185.072L399.692 186.175L397.771 186.918C396.326 187.463 394.818 187.293 393.249 186.408C393.01 189.387 391.798 191.527 389.614 192.827C387.322 194.19 384.444 194.425 380.978 193.53C380.344 196.864 378.702 199.32 376.053 200.897C373.403 202.474 370.542 202.637 367.47 201.386C367.066 203.517 365.785 205.48 363.628 207.273C362.607 208.123 360.574 209.454 357.531 211.265L354.654 206.431L359.085 203.794C360.75 202.803 361.737 201.937 362.047 201.195C362.566 199.989 362.314 198.527 361.292 196.808L357.632 190.658L362.358 187.846L366.625 195.016C367.307 196.162 368.287 196.851 369.565 197.085C370.769 197.314 371.943 197.088 373.089 196.406C375.291 195.095 375.795 193.438 374.602 191.433L369.824 183.403L374.577 180.574L378.812 187.691C379.494 188.837 380.456 189.537 381.699 189.791C382.959 190.035 384.162 189.816 385.308 189.135C387.546 187.803 388.068 186.134 386.875 184.129L382.096 176.1L386.876 173.255L391.287 180.667C392.449 182.618 394.909 182.475 398.669 180.238L401.545 185.072ZM396.794 138.407L383.53 154.555L382.213 152.83L395.557 136.634L396.794 138.407ZM417.652 166.796C418.877 168.854 419.039 170.94 418.138 173.052C417.353 174.95 415.903 176.527 413.791 177.784L399.665 186.191L396.789 181.357L410.914 172.951C412.758 171.853 413.318 170.696 412.594 169.478C412.199 168.816 411.521 168.347 410.557 168.072L389.735 162.354L385.594 157.472L399.632 140.427L403.18 144.861L393.328 157.27L413.928 163.593C415.42 164.063 416.661 165.131 417.652 166.796ZM449.212 156.705C446.777 158.154 444.597 158.422 442.671 157.507C445.079 161.553 446.074 165.507 445.656 169.368C445.212 173.632 443.02 176.936 439.082 179.28L432.825 183.004L429.169 178.633L435.829 174.67C437.906 173.434 439.298 171.721 440.007 169.529C440.754 167.242 440.516 165.069 439.291 163.01L430.086 147.541L434.919 144.665L439.058 151.62C440.358 153.804 442.784 153.888 446.336 151.872L449.212 156.705ZM457.688 141.006C458.924 143.083 459.356 145.275 458.983 147.582C458.592 150.02 457.385 151.842 455.362 153.046L447.44 157.76L444.563 152.926C449.63 149.911 452.391 148.135 452.847 147.597C453.686 146.564 453.36 144.794 451.869 142.288C451.496 141.661 450.913 140.723 450.121 139.473C449.347 138.213 448.773 137.269 448.4 136.642L453.342 133.702L457.688 141.006ZM462.047 161.286C462.612 162.235 462.75 163.22 462.46 164.24C462.199 165.268 461.603 166.059 460.672 166.613C458.273 168.041 456.413 167.645 455.092 165.425C453.941 163.491 454.521 161.837 456.83 160.463C459.158 159.078 460.897 159.352 462.047 161.286Z" fill="black"/>
</g>
</g>
<defs>
<clipPath id="clip0_0_1">
<rect width="512" height="512" fill="white"/>
</clipPath>
<clipPath id="clip1_0_1">
<rect width="512" height="512" fill="white" transform="translate(0 25)"/>
</clipPath>
</defs>
</svg>
