<svg xmlns="http://www.w3.org/2000/svg" version="1.1" xmlns:xlink="http://www.w3.org/1999/xlink" width="512" height="512" x="0" y="0" viewBox="0 0 64 64" style="enable-background:new 0 0 512 512" xml:space="preserve" class=""><g><path fill="#d2f5df" d="M44 7h11a3 3 0 0 1 3 3v36H44z" opacity="1" data-original="#c8cded"></path><g fill="#9da1bf"><path d="M43 12h12v2H43zM43 16h12v2H43zM43 20h12v2H43zM43 24h12v2H43z" fill="#c0edd0" opacity="1" data-original="#9da1bf" class=""></path></g><path fill="#81c298" d="M42 29h12v8H42z" opacity="1" data-original="#5e87ca" class=""></path><path fill="#97d3ad" d="M52 32v-3H42v5h8a2 2 0 0 0 2-2z" opacity="1" data-original="#78a0d4" class=""></path><rect width="42" height="60" x="2" y="2" fill="#c0edd0" rx="3" opacity="1" data-original="#e2e7f6" class=""></rect><path fill="#d2f5df" d="M5 2a3 3 0 0 0-3 3v53h33a3 3 0 0 0 3-3V2z" opacity="1" data-original="#f2f2f2" class=""></path><path fill="#21723d" d="M12 30h22v4H12z" opacity="1" data-original="#4c6cb5" class=""></path><path fill="#81c298" d="M12 30h20v2H12z" opacity="1" data-original="#5e87ca" class=""></path><path fill="#d2f5df" d="M7 37h32v2H7zM7 41h32v2H7zM7 45h32v2H7z" opacity="1" data-original="#c8cded"></path><circle cx="23" cy="11" r="5" fill="#81c298" opacity="1" data-original="#5e87ca" class=""></circle><path fill="#97d3ad" d="M18 11a4.95 4.95 0 0 0 .625 2.375A4.95 4.95 0 0 0 21 14a5 5 0 0 0 5-5 4.95 4.95 0 0 0-.625-2.375A4.95 4.95 0 0 0 23 6a5 5 0 0 0-5 5z" opacity="1" data-original="#78a0d4" class=""></path><path fill="#81c298" d="M7 50h31v8H7z" opacity="1" data-original="#5e87ca" class=""></path><path fill="#97d3ad" d="M35 53v-3H7v5h26a2 2 0 0 0 2-2z" opacity="1" data-original="#78a0d4" class=""></path><path fill="#81c298" d="M23 16a7 7 0 0 1 7 7v3H16v-3a7 7 0 0 1 7-7z" opacity="1" data-original="#5e87ca" class=""></path><path fill="#4d8c28" d="M52 62a10 10 0 1 1 10-10 10.011 10.011 0 0 1-10 10z" opacity="1" data-original="#4d8c28" class=""></path><path fill="#559b2d" d="M52 42a9.986 9.986 0 0 0-8.172 15.745H56a2 2 0 0 0 2-2V44.019A9.938 9.938 0 0 0 52 42z" opacity="1" data-original="#559b2d" class=""></path><path fill="#d2f5df" d="M50 57a1 1 0 0 1-.707-.293l-3-3 1.414-1.414 2.244 2.244 6.3-7.2 1.506 1.318-7 8a1.006 1.006 0 0 1-.72.341z" opacity="1" data-original="#f2f2f2" class=""></path><path fill="#97d3ad" d="M27.681 24v-6.194A6.991 6.991 0 0 0 16 23v1z" opacity="1" data-original="#78a0d4" class=""></path><path d="M12 35h22a1 1 0 0 0 1-1v-4a1 1 0 0 0-1-1H12a1 1 0 0 0-1 1v4a1 1 0 0 0 1 1zm1-4h20v2H13zM6.998 37h32v2h-32zM6.998 41h32v2h-32zM6.998 45h32v2h-32zM38 49H7a1 1 0 0 0-1 1v8a1 1 0 0 0 1 1h31a1 1 0 0 0 1-1v-8a1 1 0 0 0-1-1zm-1 8H8v-6h29z" fill="#000000" opacity="1" data-original="#000000" class=""></path><path d="M59 43.521V10a4 4 0 0 0-4-4H45V5a4 4 0 0 0-4-4H5a4 4 0 0 0-4 4v54a4 4 0 0 0 4 4h36a3.993 3.993 0 0 0 3.773-2.728A10.99 10.99 0 1 0 59 43.521zM55 8a2 2 0 0 1 2 2v32.214a10.949 10.949 0 0 0-12 1.307V38h9a1 1 0 0 0 1-1v-8a1 1 0 0 0-1-1h-9v-2h10v-2H45v-2h10v-2H45v-2h10v-2H45v-2h10v-2H45V8zM45 36v-6h8v6zm-4 25H5a2 2 0 0 1-2-2V5a2 2 0 0 1 2-2h36a2 2 0 0 1 2 2v40.7a10.938 10.938 0 0 0 0 12.61V59a2 2 0 0 1-2 2zm11 0a9 9 0 1 1 9-9 9.01 9.01 0 0 1-9 9z" fill="#000000" opacity="1" data-original="#000000" class=""></path><path d="M16 27h14a1 1 0 0 0 1-1v-3a8 8 0 0 0-4.463-7.165 6 6 0 1 0-7.075 0A8 8 0 0 0 15 23v3a1 1 0 0 0 1 1zm3-16a4 4 0 1 1 4 4 4 4 0 0 1-4-4zm-2 12a6 6 0 0 1 12 0v2H17zM49.949 54.537l-2.244-2.244-1.415 1.414 3 3A1 1 0 0 0 50 57h.033a1 1 0 0 0 .719-.341l7-8-1.505-1.318z" fill="#000000" opacity="1" data-original="#000000" class=""></path></g></svg>