<?xml version="1.0" encoding="UTF-8"?>
<svg id="Layer_1" xmlns="http://www.w3.org/2000/svg" viewBox="0 0 509.8 512">
  <defs>
    <style>
      .cls-1 {
        fill: #5194ca;
      }

      .cls-2 {
        fill: #50c9ff;
      }

      .cls-3 {
        fill: #295a74;
      }

      .cls-4 {
        fill: #4aa0f5;
      }

      .cls-5 {
        fill: #3da9ff;
      }

      .cls-6 {
        fill: #519bd9;
      }

      .cls-7 {
        fill: #9feaff;
      }

      .cls-8 {
        fill: #3bb4ff;
      }

      .cls-9 {
        fill: #94e0ff;
      }
    </style>
  </defs>
  <g>
    <path class="cls-9" d="M418.18,237.65c-85.07,128.26-367.31,119.87-268.39,14.85,61.86-36.39,142.79-76.45,215.95-88.93,24.03-4.1,41.05-10.18,50.08,30.22,2.42,10.84,3.63,25.1,2.36,43.85h0Z"/>
    <path class="cls-4" d="M372.51,211.57c-21.45,53.88-93.53,66.18-143,69.95-35.73-39.18,61.13-112.78,74.74-115.9s78.43,26.02,68.27,45.95h0Z"/>
    <path class="cls-1" d="M396.93,191.77c-1.86,17.77-9.09,26.86-24.42,19.8-4.5-5.09-10.78-12.4-16.97-20.19-11.27,10.49-38.75,29.46-77.99,13.21-23.67,21.41-45.99,48.75-48.04,76.93-14.2,23.17-45.9,25.69-55.36-6.52-1.33-6.87,1.39-16.75,8.7-29.97,35.9-64.83,165.23-157.34,165.23-157.34,0,0,24.24,74.3,48.84,104.07h0Z"/>
    <path class="cls-6" d="M432.9,253.95l-221.13,135.44c-.42-3.04-34.01-73.97-37.62-114.39,9.79,38.01,166.72-30.24,222.78-83.23,12.22-11.55,26.73-34.59,29.81-43.67,11.08,12.31,10.98,60.33,6.16,105.86h0Z"/>
    <path class="cls-7" d="M440.94,450.13c-52.5,22.76-129.03,48.3-186.66,57.43-47.24,7.48-86-4.11-99.45-26.62-19.43-32.52-30.2-78.66-34.02-120-7.66-83.05,7.59-95.82,28.98-108.44-6.9,8.94-11.59,19-11.48,29.8.58,56.2,227.42-19.83,279.87-44.66,28.48-13.5,44.21-20.74,53.89,15.33,20.19,14.47,10.26,79.85,12.36,106.03,5.28,58.55,6.05,69.64-43.5,91.12h0Z"/>
    <path class="cls-9" d="M484.43,359.01c-20.95,12.78-52.34,17.14-82.93,3.04,18.61-15.67,19.73-38.8,44.74-55.1,30.15-19.65,33.8-24.39,25.81-53.96,40.18,18.36,49.05,83.67,12.38,106.02Z"/>
    <ellipse class="cls-2" cx="459.42" cy="338.86" rx="20.4" ry="14.86" transform="translate(-104.06 247.27) rotate(-27.18)"/>
    <path class="cls-5" d="M259.71,201.5c-6.04,8.34-13.92,15.11-23.42,19.57-34.63,16.23-77.71-4.41-96.21-46.09s-5.44-88.62,29.17-104.85c7.86-3.68,16.16-5.48,24.52-5.53,16.51,60.74,20.18,90.18,65.95,136.91Z"/>
    <path class="cls-8" d="M259.71,201.5c-33.47,35.48-81.64,6.77-100.21-33.33-17.72-38.24-5.9-94.89,34.26-103.57,28.42-.24,57.39,19.4,71.69,51.61,13.42,30.24,10.24,63.25-5.75,85.3Z"/>
    <ellipse class="cls-5" cx="218.93" cy="141.23" rx="39.42" ry="56.58" transform="translate(-37.79 96.81) rotate(-23.01)"/>
    <path class="cls-7" d="M207.31,107.72c1.69,3.38,8.15,21.25-4.91,35.47,23.26,5.2,33.82,22.3,35.64,25.62-1.66-3.32-10.2-23.22,2.86-37.44-23.23-5.14-31.75-20.27-33.59-23.65Z"/>
  </g>
  <g>
    <path class="cls-3" d="M473.92,251.48c-7.41-26.7-18.93-30.66-36.58-24.53,1.56-26.11,2.11-67.97-8.98-80.3-1.11-1.24-3.17-.82-3.7.76-1.8,5.32-7.58,15.34-14.17,24.69-8.18-14.33-19.72-14.59-31.09-13.03-16.23-32.4-29.1-71.63-29.23-72.03-.46-1.41-2.16-1.96-3.36-1.1-.35.25-34.23,24.54-71.67,56.48-7.65-56.7-62.07-95.24-106.83-74.26-35.64,16.7-49.21,65.03-30.25,107.73,10.58,23.83,30.28,43.18,54.51,50.2-.22.31-15.7,7.97-43.9,24.56-23.05,13.6-37.6,28.65-30.05,110.53,4.41,47.73,16.92,91.8,34.33,120.92,11.35,18.99,39.44,29.91,73.82,29.9,8.92,0,18.26-.73,27.85-2.25,57.62-9.13,134.05-34.56,187.19-57.58,50.84-22.05,50.13-34.29,44.92-92.04,36.66-23.89,27.58-89.2-12.81-108.65h0ZM411.95,177.57c6.39-8.69,12.2-18.22,15.27-24.86,5.89,11.22,7.98,38.83,5.63,75.94-4.9,1.98-10.33,4.55-15.6,7.05-38.43,18.18-167.86,62.94-236.05,64.62-1.58-6.02-2.83-11.58-3.69-16.61,26.79,19.7,136.59-28.21,195.08-69.56,16.75-11.84,28.17-21.34,39.36-36.58h0ZM232.15,277.7c3.83-26.89,25.83-52.26,45.85-70.54,28.74,11.42,56.27,5.75,77.29-12.57,4.16,5.18,8.85,10.75,13.94,16.57-35.47,24.92-92.55,54.02-137.08,66.54h0ZM407.63,176.04c-3.66,4.9-7.24,9.16-10.51,12.48-4.92-6.32-10.16-14.81-15.61-25.3,12.03-1.38,20.03.72,26.12,12.81ZM188.97,220.29c-20.1-7.5-37.2-24.34-46.9-46.18-18-40.53-5.39-86.28,28.11-101.98,14.73-6.9,31.27-6.83,46.38-1.19,20.1,7.5,37.2,24.34,46.89,46.18,18,40.53,5.39,86.28-28.11,101.98-14.17,6.64-30.64,7.06-46.38,1.19h0ZM197.18,227.25c45.58,9.91,82.58-28.54,78.54-79.56,32.44-27.84,62.67-50.2,71.23-56.44,9.62,28.29,28.41,76.71,46.99,100.33-7.02,6.48-15.04,12.63-21.14,17.04-5.76-6.59-11-12.84-15.55-18.57-.79-1-2.27-1.11-3.21-.24-12.26,11.4-38.39,28.22-75.67,12.79-.78-.32-1.68-.17-2.31.4-21.79,19.71-45.23,46.9-48.51,75.95-14.93,3.89-47.24,10.61-51.28-4.4-2.5-13.32,12.72-36.5,20.9-47.29h0ZM440.07,448.15c-52.62,22.79-128.77,48.18-186.14,57.27-9.45,1.5-18.64,2.22-27.39,2.22-32.72,0-59.27-10.13-69.83-27.79-17.08-28.57-29.37-71.98-33.72-119.08-7.86-85.25,8.72-95.03,27.92-106.36,12.13-7.13,24.24-13.95,36.09-20.35-7.04,10.63-17.33,28.7-15.02,41.21.64,7.07,2.22,15.51,4.71,25.09-19.48-.08-31.23-4.11-34.89-12.01-.51-1.1-1.81-1.57-2.91-1.06-1.1.51-1.57,1.81-1.07,2.91,4.48,9.66,17.78,14.55,39.53,14.55,62.5,0,194.33-42.65,241.78-65.1,30.14-14.3,41.91-18.72,50.81,13.92,7.82,28.93,4.38,32.48-24.89,51.56-25.58,16.67-26.74,39.93-44.95,55.26-1.23,1.03-.96,2.99.49,3.66,28.22,13.01,58.86,11.17,81.97-1.43,4.91,54.6,4.86,64.99-42.49,85.52h0ZM483.29,357.16c-17.57,10.71-46.96,17.22-77.8,4.27,16.68-15.97,18.63-37.43,41.95-52.63,29.09-18.96,34.53-24.87,27.96-51.6,35.22,20.4,41.47,79.48,7.89,99.96h0Z"/>
    <path class="cls-3" d="M447.94,325.84c-5.82,4.04-9.55,9.64-10.25,15.36-.49,4.03.64,7.85,3.18,10.75.8.91,2.18,1,3.09.2.91-.8,1-2.18.2-3.09-1.73-1.97-2.47-4.51-2.12-7.32.54-4.42,3.68-9.02,8.4-12.29,11.91-8.27,27.16-4.48,25.79,6.75-.54,4.42-3.68,9.02-8.4,12.29-.99.69-1.24,2.05-.55,3.05s2.05,1.24,3.05.55c5.82-4.04,9.55-9.64,10.25-15.36.49-4.03-.64-7.85-3.18-10.75-6.19-7.05-19.41-7.11-29.46-.13h0Z"/>
    <path class="cls-3" d="M242.81,194.73c20.76-9.73,26.94-41.77,13.77-71.43-7.77-17.49-21.03-31.15-35.48-36.54-9.25-3.45-18.29-3.32-26.17.37-20.76,9.73-26.94,41.77-13.77,71.43,7.77,17.49,21.03,31.15,35.48,36.54,8.58,3.2,17.75,3.58,26.17-.37h0ZM185.16,156.78c-12.21-27.49-6.99-56.96,11.63-65.68,7.25-3.4,15.24-3.04,22.78-.23,13.37,4.99,25.71,17.78,33.01,34.22,12.21,27.49,6.99,56.96-11.63,65.68-6.78,3.18-14.66,3.26-22.78.23-13.37-4.99-25.71-17.79-33.01-34.22Z"/>
    <path class="cls-3" d="M193.51,205.1c-33.61-21.86-48.8-67.99-34.57-105.01.43-1.13-.13-2.4-1.26-2.83-1.13-.43-2.4.13-2.83,1.26-14.91,38.79.23,86.82,36.27,110.26.37.24.78.35,1.19.35,2.16,0,3.02-2.84,1.2-4.03Z"/>
    <path class="cls-3" d="M236.11,169.89c.57,1.04,1.87,1.45,2.94.89,1.06-.55,1.48-1.85.94-2.92-.43-.85-10.3-21.03,2.52-34.98,1.14-1.24.51-3.26-1.14-3.62-19.63-4.34-28.56-16-32.14-22.56-.57-1.05-1.88-1.45-2.94-.89-1.06.55-1.48,1.85-.94,2.92.09.18,8.72,18.55-4.57,33.01-1.14,1.24-.51,3.25,1.13,3.62,23.03,5.15,33.12,22.57,34.19,24.54h0ZM212.35,118.31c5.2,5.48,13.06,11.16,24.67,14.38-5.89,8.22-6.05,17.64-4.78,24.95-5.45-5.68-13.92-12.24-25.96-15.69,5.8-7.85,6.8-16.61,6.07-23.63h0Z"/>
    <path class="cls-3" d="M183.77,38.76c.36,1.16,1.59,1.8,2.74,1.44,1.16-.36,1.8-1.59,1.44-2.74-4.04-13.01-10.09-25.3-17.99-36.54-.69-.99-2.06-1.23-3.05-.53s-1.23,2.06-.53,3.05c7.63,10.86,13.49,22.74,17.39,35.32h0Z"/>
    <path class="cls-3" d="M138.84,64.23c.79.92,2.17,1.03,3.09.24.92-.79,1.03-2.17.25-3.09C102.06,14.38,29.21,1.13,2.09,2.3.89,2.36-.05,3.38,0,4.59s1.08,2.15,2.28,2.09c16.73-.72,93.62,7.24,136.56,57.55Z"/>
    <path class="cls-3" d="M118.8,109.16c2.3,0,3.03-3.1,1-4.14-20.82-10.67-56.81-16.73-95.36-1.74-1.13.44-1.69,1.71-1.25,2.84.44,1.13,1.71,1.69,2.84,1.25,37.2-14.47,71.8-8.68,91.77,1.55.32.16.66.24,1,.24Z"/>
  </g>
</svg>