<svg xmlns="http://www.w3.org/2000/svg" width="1233" height="1233" viewBox="0 0 1233 1233"><path fill="#481e8b" d="M274.91 137.564c1.675-.152 3.366-.198 5.047-.245 15.22-.427 30.566-.038 45.798-.034l87.832-.007 267.32.08 138.158-.07 42.322-.065c7.354-.009 15.24-.548 22.533.326 9.153 1.097 19.358 6.455 25.944 12.815 17.436 16.84 13.65 39.747 14.008 61.602 21.27-.135 42.891-2.978 60.656 11.291 10.01 8.041 18.137 21.957 19.392 34.813 1.182 12.128.297 25.2.302 37.422l-.053 74.542.005 233.938.05 297.769-.052 98.074c-.03 16.8.85 34.238-.42 50.965-.722 9.53-4.779 18.979-10.914 26.281-8.263 9.84-20.082 16.966-33.02 18.09l-452.834-.09-156.902.046-48.202.054c-8.384.02-17.066.533-25.415-.138-8.452-.68-17.042-3.76-24.047-8.524a54.37 54.37 0 0 1-22.453-34.736c-1.827-10.316-.818-22.014-.78-32.512l-.065-51.005.052-215.152.032-371.994.008-128.332-.053-42.588c-.021-7.726-.38-15.54-.012-23.252.494-10.333 3.212-20.09 9.344-28.525 9.015-12.401 21.521-18.591 36.42-20.84m157.471 142.882c-1.404 22.174-.29 44.633-.236 66.853.043 17.53-1.273 35.365.157 52.838 3.19 38.966 21.317 77.73 47.026 106.994 23.446 26.686 63.803 61.144 97.473 72.96 52.993-20.85 107.765-69.634 130.527-122.033a191 191 0 0 0 14.171-51.535c1.969-15.36 1.013-31.537.991-47.018l-.065-79.138c-11.852-2.697-23.503-6.865-35.205-10.191l-71.706-20.48c-6.489-1.91-32.425-11.337-37.457-10.633-27.387 8.41-54.998 15.9-82.516 23.833-20.9 6.026-41.953 12.707-63.16 17.55"/><path fill="#d7ccf2" d="M276.324 159.074c29.213-1.348 59.212-.357 88.487-.404l187.823.23 216.72.039 69.036-.06c12.81-.015 25.684-.324 38.484.1 4.543.149 8.56.768 12.62 2.987 5.918 3.237 10.512 9.32 12.116 15.872 1.885 7.709.856 17.38.849 25.386l-.073 40.255.103 150.695.043 424.18-.046 146.424c-.01 25.264.371 50.603-.08 75.86-.117 6.632-.765 11.863-4.302 17.6-5.06 8.215-12.502 13.055-21.793 15.195-42.856.895-85.957-.092-128.836-.183l-215.725.051-169.214.161c-26.797.014-53.884 1.06-80.637.02-5.322-.207-10.029-1.003-14.821-3.512-7.207-3.77-12.524-10.74-14.78-18.53-2.375-8.198-.84-43.445-.88-55.113L251.1 842.38l.37-451.829-.15-140.255c-.012-19.913-.464-39.91-.09-59.813.112-6.041.88-11.655 4.053-16.947 4.807-8.018 12.206-12.284 21.042-14.463m156.057 121.372c-1.404 22.174-.29 44.633-.236 66.853.043 17.53-1.273 35.365.157 52.838 3.19 38.966 21.317 77.73 47.026 106.994 23.446 26.686 63.803 61.144 97.473 72.96 52.993-20.85 107.765-69.634 130.527-122.033a191 191 0 0 0 14.171-51.535c1.969-15.36 1.013-31.537.991-47.018l-.065-79.138c-11.852-2.697-23.503-6.865-35.205-10.191l-71.706-20.48c-6.489-1.91-32.425-11.337-37.457-10.633-27.387 8.41-54.998 15.9-82.516 23.833-20.9 6.026-41.953 12.707-63.16 17.55"/><path fill="#481e8b" d="M577.276 216.858c3.231-.475 6.334.322 9.46 1.1 9.526 2.373 18.912 5.534 28.32 8.345l55.754 16.76c13.562 4.07 59.15 15.384 68.192 21.558 3.167 2.162 4.335 6.147 4.903 9.76 1.028 6.543.359 13.828.324 20.481l-.157 37.79c.055 73.894 4.2 113.792-42.067 176.356-25.642 34.676-60.882 63.336-99.029 83.183-7.994 4.159-16.473 9.027-25.473 10.37-12.957-1.693-24.881-9.29-36.094-15.649-54.989-31.186-107.225-84.564-124.12-146.732a202 202 0 0 1-6.437-36.04c-2.008-24.552-.75-49.889-.746-74.551.002-15.498-1.195-35.757.1-50.62.332-3.804 1.298-7.556 3.292-10.846 2.18-3.595 5.477-5.138 9.27-6.66 6.124-2.456 12.806-4.029 19.146-5.842l32.241-9.25c34.29-9.947 68.641-20.286 103.12-29.513M432.38 280.446c-1.404 22.174-.29 44.633-.236 66.853.043 17.53-1.273 35.365.157 52.838 3.19 38.966 21.317 77.73 47.026 106.994 23.446 26.686 63.803 61.144 97.473 72.96 52.993-20.85 107.765-69.634 130.527-122.033a191 191 0 0 0 14.171-51.535c1.969-15.36 1.013-31.537.991-47.018l-.065-79.138c-11.852-2.697-23.503-6.865-35.205-10.191l-71.706-20.48c-6.489-1.91-32.425-11.337-37.457-10.633-27.387 8.41-54.998 15.9-82.516 23.833-20.9 6.026-41.953 12.707-63.16 17.55"/><path fill="#481e8b" d="M575.621 269.2c2.585-.415 5.104-.24 7.657.34 14.105 3.207 28.625 8.606 42.616 12.656a1790 1790 0 0 1 42.779 12.576c6.06 1.88 12.795 3.474 18.512 6.21 3.33 1.594 5.445 3.18 6.644 6.76 2.268 6.773 1.203 76.205.636 88.126a126 126 0 0 1-1.598 15.388 142.7 142.7 0 0 1-12.666 39.937c-17.178 34.986-46.6 64.098-79.644 84.304-6.618 4.046-13.669 8.564-21.028 11.05-5.155.438-9.628-1.611-14.07-3.977-9.01-4.803-17.474-10.788-25.665-16.861-32.413-24.038-60.778-55.407-72.736-94.692a156.7 156.7 0 0 1-6.244-29.916c-1.79-17.759-.667-36.288-.691-54.166-.014-10.385-1.082-21.528-.094-31.83.286-2.994.935-6.007 2.433-8.647 1.873-3.3 4.392-4.4 7.727-5.82 12.48-5.312 26.961-8.222 40.046-12.003z"/><path fill="#d7ccf2" d="M579.117 290.808c13.442 5.155 27.704 8.493 41.523 12.501 17.54 5.089 34.952 10.723 52.386 16.166.436 12.462.149 25.023.133 37.494-.029 22.166 1.602 45.825-5.283 67.158-11.233 34.801-35.649 61.31-64.241 82.92-8.348 6.309-17.178 12.693-26.503 17.475-17.052-10.592-34.129-22.355-48.448-36.5-22.71-22.431-41.126-51.261-45.586-83.295-1.583-11.375-1.005-23.151-.992-34.62q.109-25.062-.07-50.122c9.66-3.945 20.295-6.425 30.331-9.284 22.253-6.338 44.953-12.148 66.75-19.893"/><path fill="#481e8b" d="M367.937 810.512c17.482-1.122 35.574-.176 53.118-.182 13.55-.006 33.054-1.287 46.04.776 4.912.78 9.855 3.081 14.17 5.52 8.503 4.807 15.907 14.372 18.34 23.867.996 3.885 1.423 8.09 1.633 12.086.827 15.754.061 31.812.12 47.615.053 14.024 1.354 30.047-.481 43.806-.821 6.159-2.601 11.51-5.918 16.781-6.428 10.216-15.602 15.905-27.184 18.628-7.554 1.205-15.516.79-23.154.796l-32.903-.004c-12.612-.007-29.28 1.2-41.391-.402-6.277-.83-12.258-2.806-17.64-6.177a41.63 41.63 0 0 1-18.434-25.792c-2.969-13.134-.84-36.635-.841-50.973l-.05-31.281c-.003-6.705-.31-13.58.578-20.236a41 41 0 0 1 6-16.648c6.571-10.282 16.34-15.589 27.997-18.18"/><path fill="#a893d7" d="M445.46 831.732c9.232-.165 20.063-1.218 27.253 5.785 5.938 5.785 6.34 12.547 6.456 20.318.275 18.305.109 36.646.124 54.957.009 9.839 1.23 21.777-.74 31.398-.691 3.376-2.895 6.328-5.296 8.714-2.259 2.246-4.472 3.722-7.587 4.408-8.775 1.934-19.275.885-28.237.901l-48.181.045c-9.53.005-20.56 1.248-28.124-5.723-4.32-3.982-5.549-8.627-5.844-14.32-.894-17.233-.152-34.841-.148-52.131.001-10.389-1.245-30.236.81-39.92.72-3.387 2.713-6.815 5.077-9.315 2.548-2.694 5.26-3.615 8.843-4.24 8.993-1.568 19.078-.642 28.231-.648z"/><path fill="#481e8b" d="M344.481 668.496c20.618-1.197 41.79-.29 62.458-.265l110.37-.01 291.687.101c1.994.02 4.404-.17 6.23.753 3.095 1.563 5.511 3.924 6.446 7.345.84 3.07.454 6.402-1.3 9.086-1.8 2.752-4.385 3.911-7.493 4.556-33.44.592-66.964-.07-100.415-.085l-198.477-.007-115.101-.026c-19.118.009-38.994 1.229-58.028-.132-3.267-2.15-5.586-4.04-6.552-8.033a10.16 10.16 0 0 1 1.312-7.945c2.102-3.24 5.227-4.552 8.863-5.338"/><path fill="#481e8b" d="M341.922 741.173c13.67-.518 27.489-.064 41.18-.05l78.586.02 262.016-.028c13.333.018 86.933-1.26 92.378 1.034a9.68 9.68 0 0 1 5.433 5.796 12.3 12.3 0 0 1-.544 9.385c-1.539 3.182-3.745 4.36-6.96 5.51-12.816.746-25.831.226-38.667.116l-57.035-.185-209.494-.045-115.694.172c-13.478.044-41.932 1.724-53.525-.671-1.66-1.359-3.4-2.666-4.424-4.596-1.416-2.671-1.899-5.775-.936-8.678 1.292-3.896 4.22-5.935 7.686-7.78"/><path fill="#481e8b" d="M534.81 885.09c11.91-.373 24.018.192 35.942.28l63.567.183 175.264-.317c1.967.005 4.582-.035 6.414.678 3.016 1.175 5.134 3.72 6.191 6.733.996 2.835 1.1 6.109-.402 8.78-1.835 3.269-4.878 4.756-8.362 5.652-20.912.578-41.934.232-62.86.274l-129.915-.13c-12.913-.026-83.123 1.481-89.015-.854-3.033-1.202-6.005-3.835-7.13-6.957-.824-2.283-.416-4.598.669-6.712 2.12-4.122 5.334-6.258 9.638-7.61"/><path fill="#481e8b" d="M532.808 812.843c12.476-.597 25.196-.027 37.705-.03l75.434.007 114.638.134c15.059.045 30.164-.332 45.216-.012 2.977.064 7.577-.077 10.291 1.2 2.464 1.158 4.185 3.328 5.196 5.816 1.027 2.534 1.517 5.737.327 8.298-1.42 3.055-4.073 4.979-7.138 6.16-20.145 1.144-40.978.04-61.186.025l-123.97-.043-65.977.126c-8.92.012-22.87 1.2-31.298-.658-2.52-.557-5.137-2.558-6.37-4.821-1.49-2.737-1.405-5.952-.389-8.831 1.402-3.968 3.828-5.674 7.521-7.37"/><path fill="#481e8b" d="M532.282 957.935c8.065-.684 16.536-.166 24.638-.159l48.776.047 150.85.104c2.314 1.525 4.458 3.236 5.914 5.634 1.487 2.45 2.092 5.176 1.316 7.973-1.138 4.104-4.237 6.001-7.767 7.923-11.835.932-24.208.178-36.114.161l-71.735-.122-81.431.088c-7.14.02-29.048 1.217-34.75-.424-2.582-.743-5.3-2.68-6.592-5.066-1.377-2.548-1.447-5.439-.607-8.171 1.28-4.159 3.833-5.978 7.502-7.988"/><path fill="#a893d7" d="M924.156 233.598c10.395-.045 21.725-.974 31.993.438a29.77 29.77 0 0 1 20.424 12.355c5.027 7.005 5.47 14.271 5.693 22.542.665 24.69.193 49.497.165 74.196l-.268 137.298.34 345-.11 154.305.173 47.19c.023 7.699.889 16.705-.476 24.254-1.493 8.267-6.975 14.715-13.555 19.529-2.11 1.216-4.26 2.167-6.669 2.613-11.345 2.097-36.212.649-48.935.596 5.15-7.463 9.573-16.31 10.375-25.467.854-9.748.406-19.85.429-29.641l.093-53.244-.169-181.713z"/></svg>