<svg id="filled_outline" height="512" viewBox="0 0 340 340" width="512" xmlns="http://www.w3.org/2000/svg" data-name="filled outline"><path d="m243.937 143.58-24.406 15.531a22.693 22.693 0 0 0 -10.277 15.91l-8.967 62.314a19.444 19.444 0 0 1 -5.6 11.079l-14.6 17.283v16.359h142.459l-5.528-103.864a22.654 22.654 0 0 0 -10.4-17.885 298.317 298.317 0 0 0 -31.172-17.489z" fill="#f0ffff"/><path d="m275.45 102.664v40.154l-15.536 14.9-15.977-14.138v-22.618z" fill="#ffd1bd"/><rect fill="#7388a0" height="103.679" rx="12.034" width="163.469" x="10" y="127.134"/><path d="m88.747 166.869h5.975a8.84 8.84 0 0 1 8.84 8.84v89.991a0 0 0 0 1 0 0h-23.655a0 0 0 0 1 0 0v-89.991a8.84 8.84 0 0 1 8.84-8.84z" fill="#455a77"/><path d="m293.357 240.259-67.639 18.563-3.267 23.234h70.906z" fill="#c7e2ff"/><path d="m62.484 265.7h58.5a9.653 9.653 0 0 1 9.653 9.653v6.706a0 0 0 0 1 0 0h-77.806a0 0 0 0 1 0 0v-6.706a9.653 9.653 0 0 1 9.653-9.653z" fill="#455a77"/><path d="m188.7 256.955a16.786 16.786 0 0 1 16.786 16.786v8.316a0 0 0 0 1 0 0h-33.573a0 0 0 0 1 0 0v-8.317a16.786 16.786 0 0 1 16.787-16.785z" fill="#ffd1bd"/><path d="m275.45 138.775v-36.111l-31.513 18.298v12.976z" fill="#fca490"/><path d="m228.532 27.771s-25.753 3.774-27.085 32.635c0 0-.666 22.328 27.085 27.148l56.168 5.486s21.535-8.214 21.535-35.965c0 0 .15-22.063-19.854-35.48a47.153 47.153 0 0 0 -31.559-7.595c-8.633.987-19.072 4.332-26.29 13.771z" fill="#4d5663"/><path d="m230.53 45.975s2.314 33.791 42.239 42.79a4.314 4.314 0 0 0 4.808-2.158 1.361 1.361 0 0 0 .07-.157c2.152-6.148 10.694-6.4 13.558-.548a24.045 24.045 0 0 1 2.152 10.69s0 11.323-16.206 11.323c0 0-2.215 16.358-18.588 20.412a28.335 28.335 0 0 1 -14.763-.364c-6.426-1.887-15.639-6.578-20.054-18.209a32.316 32.316 0 0 1 -1.676-6.585c-1.415-9.221-4.783-39.475 8.46-57.194z" fill="#ffd1bd"/><path d="m229.59 265.7h74.658a8.967 8.967 0 0 1 8.967 8.967v7.392a0 0 0 0 1 0 0h-92.593a0 0 0 0 1 0 0v-7.392a8.967 8.967 0 0 1 8.968-8.967z" fill="#455a77"/><path d="m10 282.056h320v24.522h-320z" fill="#ffc998"/><path d="m33.213 306.579h273.575v23.421h-273.575z" fill="#f49d70"/><path d="m313.214 256.955a16.786 16.786 0 0 1 16.786 16.785v8.316a0 0 0 0 1 0 0h-33.571a0 0 0 0 1 0 0v-8.316a16.786 16.786 0 0 1 16.785-16.785z" fill="#ffd1bd"/><g fill="#2f2635"><path d="m325.207 256.793-4.195-78.814a26.709 26.709 0 0 0 -12.234-21.041 307.526 307.526 0 0 0 -29.328-16.625v-25.885c.375-.967.679-1.87.909-2.658 13.35-1.245 17-10.251 17-15.178a28.182 28.182 0 0 0 -2.559-12.449 11.515 11.515 0 0 0 -11.052-6.451 10.977 10.977 0 0 0 -9.761 7.125.484.484 0 0 1 -.337.046c-36.356-8.194-39.031-37.863-39.13-39.172a4 4 0 0 0 -7.194-2.11c-7.5 10.032-10.043 23.651-10.566 35.645a22.585 22.585 0 0 1 -11.318-18.636c1.159-25.091 22.766-28.722 23.67-28.862a3.994 3.994 0 0 0 2.6-1.528c5.3-6.931 13.23-11.044 23.566-12.225a43.1 43.1 0 0 1 28.877 6.942 41 41 0 0 1 18.082 32.159 41 41 0 0 1 -1.955 12.868 3.987 3.987 0 0 0 -3.382 6.633 29.968 29.968 0 0 0 8.933 6.464 4 4 0 0 0 3.353-7.264 19.193 19.193 0 0 1 -2.1-1.14 47.85 47.85 0 0 0 3.148-17.537c.007-.989-.084-24.381-21.626-38.829a51.081 51.081 0 0 0 -34.24-8.247c-11.827 1.35-21.5 6.228-28.075 14.137-6.185 1.521-27.582 8.754-28.844 36.123-.2 6.811 3.662 20.939 19.264 27.908a132.235 132.235 0 0 0 1.4 15.58 36.064 36.064 0 0 0 1.89 7.4 33.732 33.732 0 0 0 22.67 20.628 32.735 32.735 0 0 0 9.225 1.333 31.728 31.728 0 0 0 7.626-.925 27.924 27.924 0 0 0 11.926-6.129v15.032l-11.645 11.169-11.868-10.5v-2.287a4 4 0 1 0 -8 0v1.894l-22.554 14.352a26.661 26.661 0 0 0 -12.083 18.712l-8.967 62.314a15.531 15.531 0 0 1 -4.448 8.8c-.087.086-.17.175-.249.269l-6.263 7.414a20.8 20.8 0 0 0 -17.455 20.493v4.317h-33.279v-2.706a13.669 13.669 0 0 0 -13.654-13.652h-13.423v-85.991a12.855 12.855 0 0 0 -12.84-12.84h-5.974a12.855 12.855 0 0 0 -12.841 12.84v51.1h-53.873a8.043 8.043 0 0 1 -8.034-8.03v-79.611a8.043 8.043 0 0 1 8.034-8.034h139.4a8.043 8.043 0 0 1 8.034 8.034v79.611a8.043 8.043 0 0 1 -8.034 8.034h-41.887a4 4 0 0 0 0 8h41.888a16.052 16.052 0 0 0 16.034-16.034v-79.611a16.052 16.052 0 0 0 -16.034-16.034h-139.401a16.052 16.052 0 0 0 -16.034 16.034v79.611a16.052 16.052 0 0 0 16.034 16.034h53.873v26.887h-13.423a13.669 13.669 0 0 0 -13.653 13.654v2.706h-38.831a4 4 0 0 0 -4 4v24.522a4 4 0 0 0 4 4h19.212v19.418a4 4 0 0 0 8 0v-19.421h265.576v19.421a4 4 0 0 0 8 0v-19.421h19.212a4 4 0 0 0 4-4v-32.839a20.76 20.76 0 0 0 -8.793-16.947zm-67.607-132.349a24.3 24.3 0 0 1 -12.674-.319c-5.878-1.726-13.676-5.867-17.443-15.792a28.066 28.066 0 0 1 -1.462-5.771c-1.1-7.2-3.638-29.06 3-45.634a53.674 53.674 0 0 0 4.2 9.079c5.481 9.422 16.639 21.695 38.669 26.66a8.27 8.27 0 0 0 9.248-4.236 5.11 5.11 0 0 0 .285-.66 3.051 3.051 0 0 1 2.8-2.093 3.5 3.5 0 0 1 3.394 1.983 20.341 20.341 0 0 1 1.744 8.931c0 .3-.138 7.323-12.206 7.323a4 4 0 0 0 -3.964 3.463 21.016 21.016 0 0 1 -1.365 4.588c-.031.067-.061.134-.088.2a20.4 20.4 0 0 1 -14.138 12.278zm-59.97 126.684a23.574 23.574 0 0 0 6.616-13.223l8.967-62.314a18.674 18.674 0 0 1 8.465-13.105l21.864-13.914 10.47 9.264-6.888 6.607-3.565-3.456a4 4 0 1 0 -5.568 5.743l6.334 6.142a4 4 0 0 0 5.553.015l10.146-9.731 11.12 9.84a4 4 0 0 0 5.468-.157l7.357-7.3a4 4 0 0 0 -5.635-5.679l-4.7 4.66-7.821-6.921 10.39-9.965a299.438 299.438 0 0 1 28.258 16.042 18.694 18.694 0 0 1 8.559 14.728l3.987 74.914a20.617 20.617 0 0 0 -20.706 8.379h-30.414v-82.723a4 4 0 0 0 -8 0v82.726h-27.429a13.851 13.851 0 0 0 -13.835 13.835v2.525h-7.139v-4.32a20.812 20.812 0 0 0 -14.284-19.731zm95.2 18.569a20.8 20.8 0 0 0 -.4 4.043v4.317h-67.807v-2.525a5.842 5.842 0 0 1 5.835-5.835zm-116.917 4.043a12.786 12.786 0 0 1 25.571 0v4.317h-25.571zm-119.082 1.611a5.66 5.66 0 0 1 5.653-5.654h17.423a4 4 0 0 0 4-4v-89.988a4.847 4.847 0 0 1 4.841-4.84h5.974a4.846 4.846 0 0 1 4.84 4.84v85.991h-4.472a4 4 0 0 0 0 8h25.895a5.66 5.66 0 0 1 5.654 5.654v2.706h-69.808zm269.169 27.228h-312v-16.522h312zm0-24.522h-25.571v-4.317a12.786 12.786 0 0 1 25.571 0z"/><path d="m220.825 260.6a4 4 0 0 0 5.287-2.012l.308-.685a51.008 51.008 0 0 0 4.4-18.046l2.562-45.08a36.144 36.144 0 0 0 -3.437-17.526 4 4 0 1 0 -7.224 3.437 28.11 28.11 0 0 1 2.673 13.636l-2.561 45.079a42.994 42.994 0 0 1 -3.714 15.224l-.308.686a4 4 0 0 0 2.014 5.287z"/><path d="m293.992 243.168a4 4 0 0 0 4 3.878h.124a4 4 0 0 0 3.876-4.119l-1.281-42.176a53.427 53.427 0 0 1 2.173-16.8l.508-1.718a4 4 0 1 0 -7.672-2.268l-.508 1.718a61.439 61.439 0 0 0 -2.5 19.315z"/><path d="m235.49 90.11a3.995 3.995 0 1 0 2.83 1.17 4.021 4.021 0 0 0 -2.83-1.17z"/><path d="m252.84 90.11a4 4 0 0 0 -2.83 6.82 3.605 3.605 0 0 0 .61.5 4.033 4.033 0 0 0 1.44.6 4.129 4.129 0 0 0 .78.08 4.014 4.014 0 0 0 2.83-1.18 4.188 4.188 0 0 0 .5-.6 4.524 4.524 0 0 0 .36-.69 4.3 4.3 0 0 0 .23-.75 4.129 4.129 0 0 0 .08-.78 3.995 3.995 0 0 0 -4-4z"/></g></svg>