<svg width="512" height="512" viewBox="0 0 512 512" fill="none" xmlns="http://www.w3.org/2000/svg">
<path d="M436.466 407.47H175.157C171.231 407.47 168.048 404.287 168.048 400.361V42.7744C168.048 38.8483 171.231 35.665 175.157 35.665H436.466C440.392 35.665 443.575 38.8483 443.575 42.7744V400.361C443.575 404.287 440.392 407.47 436.466 407.47Z" fill="#D4F4DB"/>
<path d="M190.265 400.361V42.7744C190.265 38.8483 193.448 35.665 197.374 35.665H175.157C171.231 35.665 168.048 38.8483 168.048 42.7744V400.361C168.048 404.287 171.231 407.47 175.157 407.47H197.374C193.448 407.47 190.265 404.287 190.265 400.361Z" fill="#C8FED0"/>
<path d="M405.362 438.574H144.054C140.128 438.574 136.944 435.391 136.944 431.464V73.8779C136.944 69.9518 140.128 66.7686 144.054 66.7686H405.362C409.288 66.7686 412.472 69.9518 412.472 73.8779V431.464C412.472 435.391 409.288 438.574 405.362 438.574Z" fill="#F2FFF4"/>
<path d="M159.161 431.464V73.8779C159.161 69.9518 162.344 66.7686 166.27 66.7686H144.054C140.128 66.7686 136.944 69.9518 136.944 73.8779V431.464C136.944 435.391 140.128 438.574 144.054 438.574H166.27C162.343 438.574 159.161 435.391 159.161 431.464Z" fill="#D4F4DB"/>
<path d="M136.164 477.335C173.023 477.335 202.903 447.455 202.903 410.596C202.903 373.737 173.023 343.856 136.164 343.856C99.305 343.856 69.4248 373.737 69.4248 410.596C69.4248 447.455 99.305 477.335 136.164 477.335Z" fill="#6ED5A1"/>
<path d="M127.154 439.364C122.83 439.364 118.508 437.719 115.215 434.428L100.533 419.745C96.0343 415.246 95.6957 407.868 100.112 403.289C104.61 398.624 112.039 398.575 116.6 403.135L124.641 411.176C126.029 412.564 128.28 412.564 129.668 411.176L155.362 385.482C159.86 380.983 167.237 380.645 171.817 385.061C176.482 389.559 176.533 396.987 171.97 401.55L139.093 434.427C135.802 437.717 131.477 439.364 127.154 439.364Z" fill="#FFF0AD"/>
<path d="M314.527 394.487C339.185 394.487 359.175 374.497 359.175 349.838C359.175 325.179 339.185 305.189 314.527 305.189C289.868 305.189 269.878 325.179 269.878 349.838C269.878 374.497 289.868 394.487 314.527 394.487Z" fill="#FFF0AD"/>
<path d="M147.272 476.411C143.656 477.024 139.95 477.335 136.164 477.335C99.3019 477.335 69.4248 447.458 69.4248 410.596C69.4248 373.734 99.3019 343.856 136.164 343.856C139.95 343.856 143.656 344.167 147.272 344.781C115.698 350.068 91.6416 377.519 91.6416 410.596C91.6416 443.672 115.698 471.123 147.272 476.411Z" fill="#00C27A"/>
<path d="M325.638 393.089C322.092 394.004 318.368 394.484 314.529 394.484C289.869 394.484 269.874 374.498 269.874 349.837C269.874 325.177 289.869 305.19 314.529 305.19C318.368 305.19 322.092 305.67 325.638 306.586C306.354 311.518 292.09 329.007 292.09 349.837C292.09 370.668 306.354 388.157 325.638 393.089Z" fill="#FFE177"/>
<path d="M370.644 363.739H257.401C255.715 363.739 254.977 361.611 256.3 360.566L268.123 351.232C269.024 350.521 269.024 349.154 268.123 348.442L256.3 339.108C254.977 338.064 255.715 335.936 257.401 335.936H370.644C372.296 335.936 373.054 337.993 371.797 339.065L360.76 348.485C359.928 349.194 359.928 350.479 360.76 351.189L371.797 360.609C373.054 361.682 372.296 363.739 370.644 363.739Z" fill="#67E582"/>
<path d="M278.517 360.567L290.34 351.234C291.241 350.522 291.241 349.156 290.34 348.444L278.517 339.11C277.194 338.065 277.932 335.938 279.618 335.938H257.401C255.715 335.938 254.977 338.065 256.3 339.11L268.123 348.444C269.024 349.156 269.024 350.522 268.123 351.234L256.3 360.567C254.977 361.612 255.715 363.74 257.401 363.74H279.618C277.932 363.739 277.194 361.611 278.517 360.567Z" fill="#30D772"/>
<path d="M443.574 236.771C447.256 236.771 450.239 233.788 450.239 230.106V42.7744C450.239 35.1789 444.06 29 436.465 29H175.161C167.565 29 161.386 35.1789 161.386 42.7744V60.1035H144.057C136.462 60.1035 130.283 66.2825 130.283 73.8779V141.772C130.283 145.454 133.266 148.437 136.948 148.437C140.63 148.437 143.613 145.454 143.613 141.772V73.8779C143.613 73.6291 143.808 73.4336 144.057 73.4336H405.361C405.61 73.4336 405.806 73.6291 405.806 73.8779V431.462C405.806 431.711 405.61 431.906 405.361 431.906H206.405C208.456 425.158 209.57 418.005 209.57 410.597C209.57 372.635 180.604 341.312 143.613 337.568V172.876C143.613 169.194 140.63 166.211 136.948 166.211C133.266 166.211 130.283 169.194 130.283 172.876V337.447C92.5498 340.456 62.7615 372.102 62.7615 410.596C62.7615 451.071 95.6904 484 136.166 484C164.121 484 188.469 468.288 200.862 445.236H405.361C412.957 445.236 419.136 439.057 419.136 431.462V414.133H436.465C444.06 414.133 450.239 407.954 450.239 400.358V261.21C450.239 257.528 447.256 254.545 443.574 254.545C439.893 254.545 436.909 257.528 436.909 261.21V400.358C436.909 400.607 436.714 400.803 436.465 400.803H419.136V73.8779C419.136 66.2825 412.957 60.1035 405.361 60.1035H174.716V42.7744C174.716 42.5256 174.912 42.3301 175.161 42.3301H436.465C436.714 42.3301 436.909 42.5256 436.909 42.7744V230.106C436.909 233.787 439.893 236.771 443.574 236.771ZM136.165 470.67C103.041 470.67 76.0907 443.721 76.0907 410.596C76.0907 377.47 103.04 350.521 136.165 350.521C169.29 350.521 196.24 377.47 196.24 410.596C196.239 443.721 169.29 470.67 136.165 470.67Z" fill="black"/>
<path d="M176.444 380.262C169.345 373.419 157.774 373.645 150.649 380.769L127.155 404.264L121.314 398.423C117.869 394.978 113.302 393.088 108.437 393.088C108.381 393.088 108.323 393.088 108.267 393.089C103.338 393.133 98.7385 395.112 95.3154 398.663C88.4717 405.761 88.6992 417.333 95.8219 424.457L110.505 439.141C114.947 443.582 120.86 446.028 127.155 446.028C133.45 446.028 139.363 443.581 143.807 439.139L176.683 406.262C180.169 402.776 182.064 398.143 182.02 393.214C181.975 388.286 179.995 383.686 176.444 380.262ZM167.258 396.835L134.38 429.713C132.456 431.638 129.889 432.698 127.155 432.698C124.42 432.698 121.854 431.639 119.93 429.715L105.248 415.033C103.262 413.046 103.107 409.787 104.91 407.915C105.83 406.962 107.065 406.43 108.387 406.417H108.433C109.739 406.417 110.965 406.924 111.888 407.848L119.929 415.889C123.914 419.873 130.397 419.872 134.383 415.888L160.076 390.194C162.062 388.208 165.32 388.055 167.192 389.857C168.146 390.777 168.68 392.013 168.692 393.335C168.702 394.657 168.194 395.901 167.258 396.835Z" fill="black"/>
<path d="M176.992 192.787H324.901C328.583 192.787 331.566 189.803 331.566 186.122C331.566 182.44 328.583 179.457 324.901 179.457H176.992C173.311 179.457 170.327 182.44 170.327 186.122C170.327 189.803 173.311 192.787 176.992 192.787Z" fill="black"/>
<path d="M176.992 222.554H324.901C328.583 222.554 331.566 219.57 331.566 215.889C331.566 212.207 328.583 209.224 324.901 209.224H176.992C173.311 209.224 170.327 212.207 170.327 215.889C170.327 219.57 173.311 222.554 176.992 222.554Z" fill="black"/>
<path d="M176.992 252.321H324.901C328.583 252.321 331.566 249.337 331.566 245.656C331.566 241.974 328.583 238.99 324.901 238.99H176.992C173.311 238.99 170.327 241.974 170.327 245.656C170.327 249.337 173.311 252.321 176.992 252.321Z" fill="black"/>
<path d="M172.074 275.422C172.074 279.104 175.058 282.088 178.739 282.088H365.407C369.088 282.088 372.072 279.104 372.072 275.422C372.072 271.741 369.088 268.757 365.407 268.757H178.739C175.058 268.757 172.074 271.741 172.074 275.422Z" fill="black"/>
<path d="M257.612 305.189C257.612 301.508 254.628 298.524 250.947 298.524H178.739C175.058 298.524 172.074 301.508 172.074 305.189C172.074 308.871 175.058 311.854 178.739 311.854H250.947C254.628 311.854 257.612 308.871 257.612 305.189Z" fill="black"/>
<path d="M378.565 334.794C377.328 331.44 374.219 329.272 370.645 329.272H361.542C353.448 310.698 335.131 298.525 314.53 298.525C293.925 298.525 275.606 310.698 267.51 329.272H257.402C253.81 329.272 250.605 331.552 249.426 334.947C248.248 338.34 249.351 342.116 252.17 344.342L259.134 349.839L252.17 355.336C249.351 357.562 248.248 361.338 249.426 364.731C250.604 368.125 253.81 370.406 257.402 370.406H267.511C275.607 388.978 293.925 401.15 314.529 401.15C335.131 401.15 353.446 388.978 361.54 370.406H370.645C374.22 370.406 377.329 368.238 378.566 364.882C379.802 361.528 378.843 357.86 376.125 355.541L369.443 349.839L376.125 344.136C378.845 341.815 379.802 338.148 378.565 334.794ZM271.48 357.075L272.253 356.465C274.294 354.854 275.464 352.438 275.464 349.837C275.464 347.237 274.294 344.822 272.253 343.211L271.481 342.602H357.388L356.433 343.417C354.552 345.024 353.473 347.363 353.473 349.838C353.473 352.313 354.552 354.652 356.434 356.261L357.388 357.075H271.48ZM314.53 311.855C327.706 311.855 339.616 318.58 346.477 329.272H282.575C289.438 318.58 301.351 311.855 314.53 311.855ZM314.53 387.819C301.352 387.819 289.44 381.095 282.577 370.405H346.476C339.614 381.094 327.705 387.819 314.53 387.819Z" fill="black"/>
<path d="M366.896 209.333C365.067 208.69 363.507 208.104 362.121 207.539C359.126 206.317 357.014 205.21 355.672 204.162C355.53 204.051 355.257 203.317 355.459 202.245C355.558 201.717 356.014 199.957 357.703 199.449C358.461 199.221 359.201 199.09 359.927 199.057C362.584 198.911 365.873 200.919 366.766 201.598C369.661 203.868 373.852 203.365 376.124 200.468C378.396 197.572 377.891 193.382 374.995 191.111C374.473 190.702 371.03 188.094 366.269 186.661V186.117C366.269 182.435 363.285 179.452 359.604 179.452C355.922 179.452 352.939 182.435 352.939 186.117V186.999C347.498 189.001 343.483 193.811 342.359 199.776C341.256 205.63 343.207 211.331 347.457 214.66C349.819 216.506 352.879 218.165 357.085 219.88C358.675 220.529 360.439 221.194 362.464 221.905C365.019 222.809 366.103 224.529 365.684 227.02C365.361 228.939 363.708 232.194 359.558 232.221C355.185 232.242 354.175 232.09 351.001 230.018C347.918 228.005 343.789 228.873 341.776 231.956C339.763 235.039 340.631 239.168 343.713 241.181C347.184 243.446 349.937 244.578 352.939 245.114V245.659C352.939 249.341 355.922 252.324 359.604 252.324C363.285 252.324 366.269 249.341 366.269 245.659V244.355C372.72 241.994 377.633 236.341 378.829 229.233C380.318 220.38 375.528 212.385 366.896 209.333Z" fill="black"/>
<path d="M204.475 141H199.093L199.383 143.836C199.383 147.209 198.104 150.045 195.548 152.344C193.056 154.557 190.102 155.663 186.686 155.663H177.759C173.183 155.663 169.584 153.987 166.963 150.636C164.578 147.563 163.386 143.675 163.386 138.97V128.593H169.187V141.193C169.187 143.965 170.153 146.135 172.087 147.703C173.87 149.143 176.18 149.862 179.016 149.862H186.46C188.522 149.862 190.22 149.314 191.552 148.219C192.97 147.037 193.679 145.426 193.679 143.385C193.679 142.139 191.906 141.376 188.361 141.097C187.717 141.032 185.472 141 181.626 141L181.11 135.199H204.475V141ZM237.861 141C232.92 141 229.429 139.593 227.388 136.778C226.249 139.593 223.585 141 219.396 141H202.187V135.199H219.492C221.018 135.199 221.78 134.2 221.78 132.202C221.78 131.515 221.565 130.945 221.136 130.494L206.021 114.639L204.958 108.129L226.292 100.427L227.098 106.228L211.983 111.867L228 129.592C229.805 131.611 231.223 132.954 232.254 133.62C233.779 134.608 235.648 135.135 237.861 135.199V141ZM247.175 113.672C247.175 114.811 246.777 115.777 245.982 116.572C245.209 117.367 244.264 117.765 243.146 117.765C240.203 117.765 238.731 116.4 238.731 113.672C238.731 111.373 240.128 110.224 242.921 110.224C245.757 110.224 247.175 111.373 247.175 113.672ZM252.879 131.558C252.879 134.05 252.105 136.22 250.559 138.067C248.926 140.022 246.896 141 244.468 141H234.961V135.199C241.041 135.199 244.425 135.081 245.112 134.845C246.401 134.372 247.046 132.632 247.046 129.624C247.046 128.872 247.024 127.733 246.981 126.208C246.96 124.683 246.949 123.544 246.949 122.792H252.879V131.558ZM271.409 141C266.511 141 263.062 140.055 261.064 138.164C259.732 136.939 259.066 134.931 259.066 132.138V104.713H264.867V129.592C264.867 132.277 265.318 133.921 266.221 134.522C266.779 134.888 268.509 135.113 271.409 135.199V141ZM286.91 131.558C286.91 134.05 286.137 136.22 284.59 138.067C282.957 140.022 280.927 141 278.499 141H268.992V135.199C275.072 135.199 278.456 135.081 279.144 134.845C280.433 134.372 281.077 132.632 281.077 129.624C281.077 128.872 281.056 127.733 281.013 126.208C280.991 124.683 280.98 123.544 280.98 122.792H286.91V131.558ZM280.078 151.828C280.078 152.967 279.681 153.912 278.886 154.664C278.112 155.438 277.167 155.824 276.05 155.824C273.171 155.824 271.731 154.492 271.731 151.828C271.731 149.508 273.117 148.348 275.889 148.348C278.682 148.348 280.078 149.508 280.078 151.828ZM339.182 131.493C339.182 134.415 338.193 136.757 336.217 138.519C334.262 140.28 331.812 141.161 328.869 141.161C325.883 141.161 323.455 140.141 321.586 138.1C319.76 136.123 318.847 133.62 318.847 130.591V123.501C318.181 123.458 317.783 123.437 317.654 123.437C316.15 123.437 314.883 124.027 313.852 125.209C312.842 126.391 312.337 127.733 312.337 129.237V155.663H306.633V129.946C306.633 126.229 307.61 123.308 309.565 121.181C311.585 118.946 314.442 117.829 318.138 117.829H329.9C333.768 117.829 336.399 119.236 337.796 122.051C338.72 123.963 339.182 127.11 339.182 131.493ZM333.51 130.236C333.51 127.121 333.198 125.273 332.575 124.693C331.866 124.027 329.159 123.63 324.454 123.501V131.558C324.454 132.675 324.991 133.599 326.065 134.329C327.032 134.995 328.096 135.328 329.256 135.328C332.092 135.328 333.51 133.631 333.51 130.236ZM353.297 141H347.657V103.811H353.297V141ZM384.976 141.741C384.976 145.608 383.515 148.896 380.593 151.603C377.692 154.31 374.298 155.663 370.409 155.663H362.9L362.159 149.862H369.475C372.225 149.862 374.502 149.067 376.307 147.478C378.111 145.888 379.067 143.729 379.175 141C374.341 141 370.828 140.355 368.637 139.066C365.715 137.348 364.254 134.254 364.254 129.785C364.254 124.93 365.403 121.524 367.702 119.569C369.12 118.366 371.483 117.765 374.792 117.765C379.196 117.765 382.14 119.612 383.622 123.308C384.524 125.606 384.976 129.323 384.976 134.458V141.741ZM379.175 135.199V129.237C379.175 125.456 377.66 123.565 374.631 123.565C372.783 123.565 371.537 124.188 370.893 125.435C370.441 126.337 370.216 127.83 370.216 129.914C370.216 132.363 371.193 133.932 373.148 134.619C374.201 135.006 376.21 135.199 379.175 135.199Z" fill="black"/>
</svg>
