<svg xmlns="http://www.w3.org/2000/svg" width="1028" height="1028" viewBox="0 0 1028 1028"><path fill="#4f3586" d="m212.266 293.142-39.999.05c-44.653.22-35.794-9.272-35.75-47.62l-.033-31.463c-.038-31.13 5.43-57.563 44.234-60.45l492.232-.196c45.224-.014 50.06 32.601 50.012 69.069l-.03 256.79c28.728-8.326 20.028-9.515 49.055-.411l48.84 15.46c19.99 6.17 40.238 12.306 60.027 18.998 11.326 3.829 9.293 20.911 9.272 30.302l-.084 28.752c-.078 29.645 2.092 61.292-6.188 89.984-16.954 58.746-57.227 106.803-110.313 136.617-8.38 4.437-16.472 9.025-25.656 11.439-9.358-3.229-18.078-9.104-27.097-11.439.152 40.431-1.364 65.394-49.127 64.965l-414.746.188c-35.4.117-44.81-24.236-44.687-55.164zm2.198-125.493c2.99 4.146 6.345 9.054 8.778 13.54 4.705 16.004 3.137 41.748 3.13 59.433l-.02 537.87c-.016 18.988-5.605 57.677 14.726 67.802 8.278 4.511 30.306 4.748 38.754 1.695 36.17-13.071 7.295-56.677 27.87-80.058 14.011-15.922 32.036-11.956 51.616-11.91l212.046.018c26.28 0 53.98.45 80.152-.002 9.756-8.256 3.57-11.033-3.511-19.679-27.596-33.69-42.805-76.967-46.07-120.16-.433-8.3-2.662-94.519 1.183-98.679 4.379-4.74 94.987-29.675 105.701-33.004l.016-245.377c.006-12.814.934-39.5-2.504-51.003-12.165-25.01-36.244-20.511-59.611-20.505l-398.017.01c-7.82-.003-27.8.685-34.239.01m-35.296 0c-32.662 8.254-28.547 32.367-28.548 59.707l.03 51.748h61.616l.012-54.008c.002-27.497 2.652-55.96-33.11-57.447m567.62 319.472c-9.022 2.066-22.035 6.959-31.321 9.906l-65.69 20.297c-9.98 3.016-23.904 7.734-33.855 10.007l-.018 52.075c.004 15.64-.21 30.434 1.532 45.88 9.053 80.268 59.379 137.017 130.45 169.508 4.009.714 27.245-13.256 31.712-16.133 58.426-37.623 99.965-104.762 95.944-175.645-.241-4.257-.014-9.375-.022-13.768l-.029-61.917c-2.383-1.237-5.33-2.708-7.868-3.497l-96.694-29.937c-3.588-1.104-21.586-7.346-24.14-6.776m-77.48 273.735c-12.477 11.836-20.781 9.203-36.996 9.197l-263.566-.048c-10.53-.016-21.1-.06-31.576.163-42.454.895-8.632 50.189-34.346 79.487h37.75l311.533.03c16.028.01 49.85 4.534 53.22-18.514 1.94-13.272 1-27.963 1.004-41.515-6.706-4.713-34.2-27.991-37.024-28.8"/><path fill="#fff" d="M223.242 181.189c-2.433-4.486-5.788-9.394-8.778-13.54 6.44.676 26.419-.012 34.24-.008l398.016-.011c23.367-.006 47.446-4.505 59.611 20.505l-.99.68c-5.473-.992-10.117-7.806-18.915-7.715-11.623.12-23.333.083-34.966.083l-398.462.036c-4.566.007-27.037-.639-29.756-.03"/><path fill="#dac9ff" d="m150.65 279.104-.03-51.748c.001-27.34-4.114-51.453 28.548-59.707 35.762 1.488 33.112 29.95 33.11 57.447l-.012 54.008h-61.617"/><path fill="#ecebf3" d="M223.242 181.189c2.719-.609 25.19.037 29.756.03l398.462-.036c11.633 0 23.343.037 34.966-.083 8.798-.09 13.442 6.723 18.916 7.715l.99-.68c3.437 11.504 2.51 38.19 2.503 51.003l-.016 245.377c-10.714 3.329-101.322 28.264-105.701 33.004-3.845 4.16-1.616 90.38-1.183 98.68 3.265 43.192 18.474 86.468 46.07 120.16 7.081 8.645 13.267 11.422 3.511 19.678-26.172.452-53.871.002-80.152.002l-212.046-.018c-19.58-.046-37.605-4.012-51.615 11.91-20.576 23.381 8.298 66.987-27.87 80.058-8.45 3.053-30.477 2.816-38.755-1.695-20.331-10.125-14.742-48.814-14.726-67.802l.02-537.87c.007-17.685 1.575-43.429-3.13-59.433m136.156 44.694c-54.251 5.601-93.688 54.124-88.083 108.377 5.608 54.251 54.133 93.685 108.384 88.073 54.247-5.608 93.674-54.129 88.069-108.376-5.606-54.245-54.123-93.676-108.37-88.074m271.578 44.509-107.466-.054c-6.866-.027-21.963-2.44-21.266 8.083.594 8.979 20.397 6.15 27.065 6.162l107.619.024c6.29.002 20.764 2.36 20.929-7.023.187-10.567-18.815-7.146-26.88-7.192M511.22 355.5c-12.81 1.19-11.377 14.21-1.348 14.139l141.645-.129c9.481-1.59 7.87-14.448-1.839-13.972-15.83-.173-31.665-.038-47.495-.04zm-221.72 117.455c-9.558 1.52-9.98 13.502 2.947 13.751 22.156.765 44.665.436 66.832.434l199.239-.008c12.482.004 29.777.536 41.937-.012 8.842-3.14 5.423-13.105 1.186-13.422-18.966-1.42-45.025-.737-63.595-.735l-220.032-.028c-7.047-.014-22.247-.492-28.515.02m1.433 87.233c-11.686 1.325-12.477 13.633 1.586 14.262 10.069.293 20.208.164 30.302.142l203.965.004c7.417-.638 8.262-9.324 3.28-13.201-6.952-1.892-22.7-1.225-30.536-1.223zm-1.434 85.854c-7.748 2.723-8.423 10.627-3.678 13.13 4.29 2.26 28.111 1.358 33.235 1.36l207.73-.012c5.684-1.789 9.156-10.583 2.165-13.205-6.747-2.528-84.503-1.267-98.064-1.267z"/><path fill="#4f3586" d="M379.699 422.333c-54.251 5.612-102.776-33.822-108.384-88.073-5.605-54.253 33.832-102.776 88.083-108.377 54.247-5.602 102.764 33.83 108.37 88.074 5.605 54.247-33.822 102.768-88.069 108.376m-19.795-182.088c-46.093 5.28-79.264 46.802-74.237 92.923s46.365 79.52 92.514 74.745c46.507-4.811 80.222-46.541 75.156-93.022-5.067-46.48-46.98-79.967-93.433-74.646"/><path fill="#fff" d="M378.181 407.913c-46.15 4.774-87.486-28.624-92.514-74.745s28.144-87.643 74.237-92.923c46.453-5.321 88.366 28.165 93.433 74.646 5.066 46.48-28.649 88.211-75.156 93.022m30.533-114.77c-9.355 2.308-44.963 39.216-53.51 47.084-4.12-3.885-33.43-35.875-33.288-12.852-.018 2.9 5.604 7.598 8.033 9.79 31.927 27.825 20.77 26.38 54.832-5.009l18.49-17.012c5.18-4.793 23.449-21.154 5.443-22.002"/><path fill="#4f3586" d="M529.309 284.583c-6.668-.012-26.471 2.817-27.065-6.162-.697-10.523 14.4-8.11 21.266-8.083l107.466.054c8.066.046 27.068-3.375 26.88 7.192-.164 9.382-14.638 7.025-20.928 7.023z"/><path fill="#4f3586" d="M355.204 340.227c8.547-7.868 44.155-44.776 53.51-47.085 18.006.848-.263 17.21-5.443 22.002l-18.49 17.012c-34.063 31.388-22.905 32.834-54.832 5.01-2.429-2.193-8.05-6.891-8.033-9.79-.142-23.024 29.168 8.966 33.288 12.851"/><path fill="#4f3586" d="m651.516 369.511-141.645.129c-10.029.07-11.462-12.949 1.348-14.14l90.963-.001c15.83.002 31.666-.133 47.495.04 9.71-.476 11.32 12.382 1.84 13.972"/><path fill="#4f3586" d="M600.454 487.12c-12.16.549-29.455.017-41.937.013l-199.24.008c-22.166.002-44.675.331-66.831-.434-12.927-.249-12.505-12.231-2.948-13.751 6.268-.512 21.468-.034 28.515-.02l220.032.028c18.57-.002 44.63-.685 63.595.735 4.237.317 7.656 10.282-1.186 13.422"/><path fill="#dac9ff" d="M615.922 527.331c9.95-2.273 23.875-6.991 33.856-10.007l65.689-20.297c9.286-2.947 22.299-7.84 31.322-9.906 2.554-.57 20.552 5.672 24.14 6.776l96.694 29.937c2.538.789 5.485 2.26 7.868 3.497l.029 61.917c.008 4.393-.22 9.511.022 13.768 4.021 70.883-37.518 138.022-95.944 175.645-4.467 2.877-27.703 16.847-31.713 16.133-71.07-32.49-121.396-89.24-130.45-169.508-1.74-15.446-1.527-30.24-1.531-45.88zm130.867 3.78c-8.893 2.782-84.019 25.77-86.675 30.84-2.072 3.958-.657 68.214.257 75.91 4.915 41.349 27.191 71.396 63.105 92.72 7.503 4.456 15.796 10.04 24.41 12.1 40.061-14.972 78.99-56 85.696-98.716 1.61-10.252 3.311-74.456.386-81.802-2.986-7.503-81.61-31.127-87.18-31.051"/><path fill="#4f3586" d="M747.885 742.68c-8.613-2.06-16.906-7.643-24.409-12.098-35.914-21.325-58.19-51.372-63.105-92.72-.914-7.697-2.33-71.953-.257-75.91 2.656-5.072 77.782-28.06 86.675-30.84 5.57-.076 84.193 23.548 87.179 31.05 2.925 7.347 1.225 71.551-.386 81.803-6.706 42.716-45.635 83.744-85.697 98.716M746.79 546.2c-24.586 7.49-48.551 17.43-73.219 24.48l-.044 34.755c-.004 37.237 2.865 63.672 30.76 92.43 6.587 6.79 35.387 27.677 43.6 29.267 55.86-29.059 72.963-58.96 72.957-118.756l-.022-37.696c-8.082-3.229-69.67-25.379-74.032-24.48"/><path fill="#ecebf3" d="M673.57 570.68c24.668-7.05 48.633-16.99 73.219-24.48 4.363-.899 65.95 21.251 74.032 24.48l.022 37.696c.006 59.795-17.097 89.697-72.958 118.756-8.212-1.59-37.012-22.477-43.6-29.267-27.894-28.758-30.763-55.193-30.76-92.43zm105.565 16.265c-14.21 1.877-34.34 25.487-43.483 36.358-20.803-18.51-45.873-7.227-43.182 15.462 1.395 11.767 16.343 24.712 24.804 32.34 17.66 14.893 28.98 6.087 42.849-7.829 12.671-12.713 25.497-25.244 37.83-38.289 14.584-15.418 1.181-39.688-18.818-38.042"/><path fill="#4f3586" d="m526.785 574.597-203.965-.004c-10.094.022-20.233.15-30.302-.142-14.063-.629-13.272-12.937-1.586-14.262l208.597-.016c7.837-.002 23.584-.669 30.537 1.223 4.981 3.877 4.136 12.563-3.28 13.201"/><path fill="#4f3586" d="M735.652 623.303c9.143-10.87 29.273-34.48 43.483-36.358 20-1.646 33.402 22.624 18.819 38.042-12.334 13.045-25.16 25.576-37.831 38.289-13.868 13.916-25.188 22.722-42.849 7.828-8.46-7.627-23.409-20.572-24.804-32.34-2.69-22.688 22.379-33.971 43.182-15.461m43.483-21.924c-10.276 5.134-32.184 32.364-43.483 41.335-7.66-4.401-13.427-15.834-22.767-14.86-3.498.364-7.393 7.098-6.042 10.42 1.66 4.801 6.851 9.162 10.431 12.66 5.775 5.74 14.51 18.14 23.477 11.091 15.121-13.972 29.326-29.079 43.933-43.607 7.817-7.77 6.243-17.28-5.55-17.039"/><path fill="#fff" d="M735.652 642.714c11.3-8.97 33.207-36.2 43.483-41.335 11.792-.24 13.366 9.268 5.55 17.039-14.608 14.528-28.813 29.635-43.934 43.607-8.966 7.05-17.702-5.35-23.477-11.091-3.58-3.498-8.77-7.859-10.43-12.66-1.352-3.322 2.543-10.056 6.041-10.42 9.34-.974 15.107 10.459 22.767 14.86"/><path fill="#4f3586" d="m526.785 660.521-207.73.012c-5.124-.002-28.945.9-33.235-1.36-4.745-2.503-4.07-10.407 3.678-13.13l141.388.006c13.56 0 91.317-1.26 98.064 1.267 6.99 2.622 3.52 11.416-2.165 13.205"/><path fill="#bca7e4" d="M302.824 849.655c25.714-29.298-8.108-78.592 34.346-79.487 10.476-.223 21.045-.179 31.576-.163l263.566.048c16.215.006 24.519 2.639 36.995-9.197 2.823.809 30.318 24.087 37.024 28.8-.004 13.552.936 28.243-1.003 41.515-3.372 23.048-37.193 18.524-53.221 18.514l-311.532-.03z"/></svg>