<svg xmlns="http://www.w3.org/2000/svg" width="1233" height="1233" viewBox="0 0 1233 1233"><path fill="#4f3586" d="M700.122 344.13c16.27-47.81 70.95-126 116.629-152.706 16.614-.083 7.978 16.385 6.326 25.66-4.474 25.152-3.17 49.068 2.943 73.631 13.755 55.269 63.805 85.66 79.304 150.843 16.87-32.81 51.562-60.805 84.865-75.798 16.364-6.122 7.95 22.904 7.145 29.035-4.7 35.868-3.046 73.27 12.966 106.366 17.277 35.706 36.776 52.59 46.563 95.735 19.232 102.47-55.069 195.26-154.154 215.267l.04 174.245c.056 38.2-8.218 43.818-45.413 43.415l-535.993-.08c-34.606-.105-68.46 9.265-68.456-37.247l.013-321.786c-27.408.222-80.824 9.142-80.913-31.4-.042-18.955 25.493-38.178 38.092-50.95l73.836-74.168.031-152.921c.14-54.746 15.03-47.458 66.033-47.379 70.842.11 61.219 7.846 61.21 71.646 4.435-3.292 11.934-11.08 16.12-15.25l99.516-98.465c17.592-17.464 39.788-51.272 66.96-33.601 12.183 10.422 23.651 23.352 35.025 34.837zm62.083-79.413c-36.853 57.312-69.354 108.337-59.974 181.554 1.221 9.52-17.284 12.048-17.327-4.672l-.197-.041c-10.888-11.463-100.213-103.237-105.708-104.63-16.335 9.427-46.715 44.868-61.785 59.874l-191.19 192.056c-3 3.032-13.943 13.69-15.489 16.335-10.974 9.95-33.582 30.935-42.755 42.326l-.02 311.378c.003 13.5-.014 26.991.172 40.501.286 20.735 26.976 14.688 42.603 14.84h129.489l-.041-149.687c-.458-50.223 12.364-71.088 68.862-71.066l137.624.024c75.204.42 69.344 47.023 69.344 106.064l-.019 114.665h125.708l25.318.178c24.609.05 20.411-15.2 20.356-33.636l-.055-168.617h-45.619l-77.202.012c-33.358.01-45.722 2.146-77.31-12.41-43.924-20.24-83.878-58.8-100.663-104.385l-165.152.012c-6.24-.005-13.079.219-19.319-.109-11.09-.58-11.299-13.717-.433-15.42 5.23-.818 11.119.02 16.556.042l39.459.002-.056-30.098c-.062-59.398 19.774-64.026 74.079-64.01l52.373.03c27.832-58.395 50.096-89.79 19.1-160.948-2.921-6.707-5.115-20.624 6.702-16.106 43.234 16.53 77.142 48.46 98.97 89.014 23.282 43.261 9.931 68.752-7.136 22.902-15.138-36.607-44.077-71.379-79.396-89.019 36.338 120.256-31.54 125.564-31.388 204.057.173 87.947 77.25 161.27 164.901 160.706-27.075-19.516-42.594-50.919-42.326-84.073.467-57.55 52.674-79.123 47.13-158.695-2.323-33.322-16.375-72.485 30.18-22.358 29.66 31.935 43.762 58.363 50.931 101.891 7.059-16.995 12.829-34.16 17.31-51.952 3.167-12.559 13.73.046 17.065 4.828 39.764 58.411 72.282 107.56 36.212 177.155-10.358 10.377-18.75 23.27-31.916 35.834 92.92-8.142 171.047-87.878 163.15-183.264-7.18-86.75-81.604-96.94-61.257-227.84-21.46 11.658-42.382 31.557-56.884 50.97-12.751 16.236-17.85 52.783-21.469 54.54-14.86 7.22-11.774-20.067-11.771-27.142.036-65.915-46.705-88.673-66.85-136.714-20.539-29.141-22.044-75.858-18.709-109.608-17.033 12.797-28.103 31.359-44.178 44.71m-422.668 64.898c-52.973-.197-39.99 6.678-40.003 61.253l-.002 107.865c10.223-9.225 31.971-30.697 40.005-41.245 7.88-6.146 16.436-15.74 23.641-23.111l32.913-33.207c-.01-20.417.67-44.08 0-64.241-7.863-9.75-18.897-7.509-30.213-7.403zM574.94 248.75c-7.682 2.252-23.96 20.605-30.669 27.194L303.404 516.9c-30.776 30.78-62.138 60.973-92.387 92.287-8.115 8.4-39.139 32.848-15.24 43.769 8.619 3.937 45.58 2.085 57.123 2.078-.022-4.453-.205-10.037 0-14.403 3.92-5.578 16.49-17.623 21.876-23.044l46.567-46.476 170.994-171.613c20.947-20.993 42.252-41.768 62.604-63.399 28.877-30.69 37.435-10.839 59.62 12.02l40.32 41.765c9.019 9.344 20.116 21.19 29.826 29.462-.431-20.87 5.115-38.206 10.31-58.141l-80.042-80.143c-9.556-9.442-27.04-32.657-40.034-32.313m199.791 288.79c1.896 24.688 4.403 48.825-2.875 73.037-10.651 35.444-40.241 59.659-43.051 97.566-2.392 32.222 23.718 76.788 54.386 87.172 4.511 1.53 57.284 1.727 64.918 1.084 15.552-1.31 32.86-18.685 42.019-30.401 41.736-52.884 16.895-113.318-21.308-160.805-2.635 10.07-30.168 77.568-43.05 50.685-.657-1.373-.9-8.067-.816-9.83 1.628-34.466-22.654-87.324-50.223-108.509m-269.198 63.932c-31.482 2.627-32.877 21.956-32.742 47.206l.118 31.23h108.454c-8.829-30.183-8.6-48.061-2.365-78.436zm-2.396 207.671c-35.061-.602-47.246 15.092-47.314 49.055l.007 156.04h115.36V809.143c-22.434-.351-45.534.015-68.053 0m83.189 0v205.095h113.795l.033-148.48c-.005-48.347-15.728-56.665-62.12-56.653z"/><path fill="#a286d6" d="M762.205 264.717c16.075-13.351 27.145-31.913 44.178-44.71-3.335 33.75-1.83 80.467 18.71 109.608-19.75 15.72.888 74.469-34.072 42.276-38.856-35.779-23.814-67.942-28.816-107.174"/><path fill="#fff" d="M252.9 655.035c-11.543.007-48.504 1.86-57.122-2.078-23.9-10.921 7.124-35.37 15.239-43.77 30.249-31.313 61.61-61.507 92.387-92.286l240.868-240.957c6.71-6.59 22.987-24.942 30.669-27.194 12.995-.344 30.478 22.87 40.034 32.313l80.041 80.143c-5.194 19.935-10.74 37.272-10.31 58.141-9.71-8.272-20.806-20.118-29.825-29.462l-40.32-41.765c-22.185-22.859-30.743-42.71-59.62-12.02-20.352 21.63-41.657 42.406-62.604 63.399L321.343 571.112l-46.567 46.476c-5.385 5.42-17.956 17.466-21.876 23.044-.205 4.366-.022 9.95 0 14.403"/><path fill="#dac9ff" d="m684.707 441.558.197.04c.043 16.721 18.548 14.192 17.327 4.673-9.38-73.217 23.121-124.242 59.974-181.554 5.002 39.232-10.04 71.395 28.816 107.174 34.96 32.193 14.322-26.555 34.072-42.276 20.144 48.041 66.885 70.799 66.849 136.714-.003 7.075-3.09 34.362 11.771 27.142 3.62-1.757 8.718-38.304 21.47-54.54.724 6.022-.747 13.972-.398 20.45 5.019 93.351 114.994 161.559 28.135 269.57-8.619 10.985-28.246 29.102-40.831 34.28 36.07-69.595 3.552-118.744-36.212-177.155-3.336-4.782-13.898-17.387-17.065-4.828-4.481 17.792-10.251 34.957-17.31 51.952-7.17-43.528-21.271-69.956-50.93-101.89-46.556-50.128-32.504-10.965-30.18 22.357 5.543 79.572-46.664 101.144-47.131 158.695-.268 33.154 15.25 64.557 42.326 84.073-87.651.564-164.728-72.759-164.901-160.706-.152-78.493 67.726-83.8 31.388-204.057 35.319 17.64 64.258 52.412 79.396 89.02 17.067 45.85 30.418 20.358 7.136-22.903-21.828-40.554-55.736-72.484-98.97-89.014-11.817-4.518-9.623 9.4-6.702 16.106 30.996 71.158 8.732 102.553-19.1 160.947l-52.373-.029c-54.305-.016-74.141 4.612-74.079 64.01l.056 30.098-39.459-.002c-5.437-.022-11.326-.86-16.556-.041-10.866 1.702-10.656 14.84.433 15.42 6.24.327 13.08.103 19.319.108l165.152-.012c16.785 45.585 56.74 84.145 100.663 104.386 31.588 14.555 43.952 12.419 77.31 12.41l77.202-.013-.007 131.208c-.007 22.158-.754 49.164.007 70.867H715.794l.02-114.665c0-59.041 5.859-105.645-69.345-106.064l-137.624-.024c-56.498-.022-69.32 20.843-68.862 71.066l.04 149.687H310.536l-.046-370.866c0-8.515.826-31.063.046-38.18 1.546-2.644 12.489-13.302 15.49-16.334l191.189-192.056c15.07-15.006 45.45-50.447 61.785-59.873 5.495 1.392 94.82 93.166 105.708 104.629"/><path fill="#fff" d="m299.532 498.733.002-107.865c.012-54.575-12.97-61.45 40.003-61.253l-.022 86.837c-.005 10.146-.705 31.998.022 41.036-8.034 10.548-29.782 32.02-40.005 41.245"/><path fill="#bca7e4" d="m339.537 329.615 26.34-.089c11.317-.106 22.351-2.348 30.214 7.403.67 20.161-.01 43.824 0 64.241l-32.913 33.207c-7.205 7.371-15.761 16.965-23.641 23.111-.727-9.038-.027-30.89-.022-41.036z"/><path fill="#a286d6" d="M925.182 438.93c14.502-19.412 35.425-39.31 56.884-50.969-20.347 130.9 54.076 141.09 61.258 227.84 7.896 95.386-70.23 175.122-163.151 183.264 13.166-12.564 21.558-25.457 31.916-35.834 12.585-5.178 32.212-23.295 40.83-34.28 86.86-108.011-23.115-176.219-28.134-269.57-.35-6.478 1.122-14.428.397-20.45"/><path fill="#fff" d="M890.129 765.998c-9.159 11.716-26.467 29.09-42.019 30.401-7.634.643-60.407.445-64.918-1.084-30.668-10.384-56.778-54.95-54.386-87.172 2.81-37.907 32.4-62.122 43.051-97.566 7.278-24.212 4.77-48.349 2.875-73.038 27.57 21.185 51.851 74.043 50.223 108.509-.084 1.763.16 8.457.817 9.83 12.881 26.883 40.414-40.614 43.049-50.685 38.203 47.487 63.044 107.92 21.308 160.805"/><path fill="#fff" d="m472.91 679.907-.118-31.23c-.135-25.25 1.26-44.578 32.742-47.205H579c-6.235 30.375-6.464 48.253 2.365 78.435H472.91"/><path fill="#fff" d="M267.78 647.52c9.173-11.392 31.78-32.377 42.755-42.327.78 7.116-.046 29.664-.046 38.18l.046 370.865c-15.627-.152-42.317 5.895-42.603-14.84-.186-13.51-.17-27-.171-40.5z"/><path fill="#fff" d="m455.831 1014.238-.007-156.04c.068-33.963 12.253-49.657 47.314-49.055 22.52.015 45.619-.351 68.053 0v205.095h-115.36m85.446-126.785c-6.192 4.335-12.684 54.363 5.505 54.565 9.527-6.673 5.38-35.049 5.076-47.251-.147-5.89-5.61-7.692-10.581-7.314"/><path fill="#fff" d="M586.327 1014.238V809.143l51.709-.038c46.391-.012 62.114 8.306 62.12 56.653l-.034 148.48zm25.39-126.785c-10.409 6.965-5.648 48.643-4.015 50.912 2.078 2.892 5.426 3.708 8.79 3.653 9.818-5.522 4.31-20.672 5.688-30.83 1.337-9.84 2.324-24.123-10.463-23.735"/><path fill="#a286d6" d="M841.502 812.163h45.619l.055 168.617c.055 18.435 4.253 33.686-20.356 33.636l-25.318-.178c-.76-21.703-.014-48.709-.007-70.867z"/><path fill="#4f3586" d="M546.782 942.018c-18.19-.202-11.697-50.23-5.505-54.565 4.97-.378 10.434 1.423 10.581 7.314.304 12.202 4.45 40.578-5.076 47.251"/><path fill="#4f3586" d="M616.492 942.018c-3.364.055-6.712-.761-8.79-3.653-1.633-2.269-6.394-43.947 4.015-50.912 12.787-.388 11.8 13.895 10.463 23.735-1.377 10.158 4.13 25.308-5.688 30.83"/></svg>