<svg version="1.1" id="Capa_1" xmlns="http://www.w3.org/2000/svg" xmlns:xlink="http://www.w3.org/1999/xlink" x="0px" y="0px" viewBox="0 0 512 512" style="enable-background:new 0 0 512 512;" xml:space="preserve">
<g>
	<path style="fill:#6D92AC;stroke:#000000;stroke-width:20;stroke-linecap:round;stroke-linejoin:round;stroke-miterlimit:10;" d="&#10;&#9;&#9;M291,257h-60l-5,95l-44.289,74.363l34.472,28.926l51.281-75.69c5.614-8.287,9.239-17.758,10.592-27.676L291,257z"/>
	<path style="fill:#C68A65;stroke:#000000;stroke-width:20;stroke-linecap:round;stroke-linejoin:round;stroke-miterlimit:10;" d="&#10;&#9;&#9;M216.184,455.289l-34.472-28.925L156,457.005L209.623,502l9.642-11.491C228.14,479.932,226.76,464.164,216.184,455.289z"/>
	
		<circle style="fill:#F3C9A6;stroke:#000000;stroke-width:20;stroke-linecap:round;stroke-linejoin:round;stroke-miterlimit:10;" cx="346" cy="62" r="40"/>
	<path style="fill:#6D92AC;" d="M311,257h-80v11.676c0,21.572,7.342,42.501,20.817,59.346L271,352l-10,110h45l17.18-103.077&#10;&#9;&#9;c1.867-11.2,1.812-22.637-0.161-33.818L311,257z"/>
	<path style="fill:#C68A65;stroke:#000000;stroke-width:20;stroke-linecap:round;stroke-linejoin:round;stroke-miterlimit:10;" d="&#10;&#9;&#9;M306,462l-45,0l0,40l70,0v-15C331,473.193,319.807,462,306,462z"/>
	<path style="fill:#F3C9A6;stroke:#000000;stroke-width:20;stroke-linecap:round;stroke-linejoin:round;stroke-miterlimit:10;" d="&#10;&#9;&#9;M201,175v40h20c11.046,0,20-8.954,20-20v0c0-11.046-8.954-20-20-20H201z"/>
	<path style="fill:#66E0F7;stroke:#000000;stroke-width:20;stroke-linecap:round;stroke-linejoin:round;stroke-miterlimit:10;" d="&#10;&#9;&#9;M161,175l-55.757-72.675l-0.003,0.007C99.784,94.859,90.961,90,81,90h0c-27.614,0-50,22.386-50,50v117h80v-77l29.142,29.142&#10;&#9;&#9;c3.751,3.751,8.838,5.858,14.142,5.858H201v-40H161z"/>
	<path style="fill:#66E0F7;stroke:#000000;stroke-width:20;stroke-linecap:round;stroke-linejoin:round;stroke-miterlimit:10;" d="&#10;&#9;&#9;M31,257L31,257c0,28.562,12.481,55.698,34.167,74.286L66,332v130h45V257H31z"/>
	<path style="fill:#C68A65;stroke:#000000;stroke-width:20;stroke-linecap:round;stroke-linejoin:round;stroke-miterlimit:10;" d="&#10;&#9;&#9;M111,462H66v40h70v-15C136,473.193,124.807,462,111,462z"/>
	
		<circle style="fill:#F3C9A6;stroke:#000000;stroke-width:20;stroke-linecap:round;stroke-linejoin:round;stroke-miterlimit:10;" cx="86" cy="50" r="40"/>
	<path style="fill:none;stroke:#000000;stroke-width:20;stroke-linecap:round;stroke-linejoin:round;stroke-miterlimit:10;" d="&#10;&#9;&#9;M481,232v-5c0-13.807-11.193-25-25-25h0c-13.807,0-25,11.193-25,25v275"/>
	<path style="fill:#F3C9A6;stroke:#000000;stroke-width:20;stroke-linecap:round;stroke-linejoin:round;stroke-miterlimit:10;" d="&#10;&#9;&#9;M411,177v40h20c11.046,0,20-8.954,20-20v0c0-11.046-8.954-20-20-20H411z"/>
	<path style="fill:#A0E5A5;stroke:#000000;stroke-width:20;stroke-linecap:round;stroke-linejoin:round;stroke-miterlimit:10;" d="&#10;&#9;&#9;M371,177l-39.847-72.664c-4.235-7.654-11.76-13.401-21.045-15.039h0c-27.252-4.805-53.277,13.277-58.279,40.494l-18.317,99.654&#10;&#9;&#9;C231.841,238.535,231,247.758,231,257h80l13.741-77.929l20.294,29.314c3.736,5.396,9.881,8.616,16.444,8.616H411v-40H371z"/>
	
		<line style="fill:none;stroke:#000000;stroke-width:20;stroke-linecap:round;stroke-linejoin:round;stroke-miterlimit:10;" x1="306" y1="152" x2="345.035" y2="208.384"/>
	<g>
		
			<rect x="324.033" y="352" style="fill:none;stroke:#000000;stroke-width:20;stroke-linecap:round;stroke-linejoin:round;stroke-miterlimit:10;" width="0" height="0"/>
	</g>
	<path style="fill:none;stroke:#000000;stroke-width:20;stroke-linecap:round;stroke-linejoin:round;stroke-miterlimit:10;" d="&#10;&#9;&#9;M319.861,307.211L311,257h-80v11.676c0,21.572,7.342,42.501,20.818,59.346L271,352l-10,110h45l10.936-65.613"/>
	
		<line style="fill:none;stroke:#000000;stroke-width:20;stroke-linecap:round;stroke-linejoin:round;stroke-miterlimit:10;" x1="86" y1="155" x2="140.142" y2="209.142"/>
</g>
<g>
</g>
<g>
</g>
<g>
</g>
<g>
</g>
<g>
</g>
<g>
</g>
<g>
</g>
<g>
</g>
<g>
</g>
<g>
</g>
<g>
</g>
<g>
</g>
<g>
</g>
<g>
</g>
<g>
</g>
</svg>