<?xml version="1.0" encoding="UTF-8"?>
<svg xmlns="http://www.w3.org/2000/svg" xmlns:xlink="http://www.w3.org/1999/xlink" version="1.1" width="512" height="512" x="0" y="0" viewBox="0 0 66 66" style="enable-background:new 0 0 512 512" xml:space="preserve" class="">
  <g>
    <path fill="#e9fff0" d="M61.81 12.24v6.16h-9.15v-6.16a4.58 4.58 0 0 1 4.58-4.58 4.573 4.573 0 0 1 4.57 4.58z" opacity="1" data-original="#f1f3f6" class=""/>
    <path fill="#c4e4cf" d="M58.85 7.95a4.59 4.59 0 0 0-2.96 4.28v6.16h-3.24v-6.16a4.58 4.58 0 0 1 4.58-4.58c.57.01 1.12.12 1.62.3z" opacity="1" data-original="#d5dce5" class=""/>
    <path fill="#e9fff0" d="M57.23 7.66a4.58 4.58 0 0 0-4.58 4.58V59.3a4.58 4.58 0 0 1-4.58 4.58H8.98V12.24a4.58 4.58 0 0 1 4.58-4.58z" opacity="1" data-original="#f1f3f6" class=""/>
    <path fill="#e9fff0" d="M57.23 7.66a4.58 4.58 0 0 0-4.58 4.58V59.3c0 2.52-2.05 4.58-4.58 4.58H8.98V12.24a4.58 4.58 0 0 1 4.58-4.58z" opacity="1" data-original="#f1f3f6" class=""/>
    <path fill="#323535" d="M33.53 31.87c-1.44 1.32-3.68 1.21-4.99-.23s-1.21-3.67.23-4.99c1.44-1.31 8.88-3.32 8.88-3.32s-2.68 7.23-4.12 8.54z" opacity="1" data-original="#323535" class=""/>
    <path fill="#e9fff0" d="M32.32 29.26c0 .64-.52 1.17-1.17 1.17-.64 0-1.17-.52-1.17-1.17 0-.64.52-1.16 1.17-1.16.64 0 1.17.52 1.17 1.16z" opacity="1" data-original="#f1f3f6" class=""/>
    <path fill="#4cbe73" d="M13.35 29.78h7.88c0-2.62 1.05-4.99 2.75-6.72l-5.61-5.54c-3.1 3.17-5.02 7.49-5.02 12.26z" opacity="1" data-original="#ff9a9a" class=""/>
    <path fill="#4ce280" d="M30.82 20.2v-7.88c-4.87 0-9.28 1.99-12.44 5.21l5.61 5.54a9.52 9.52 0 0 1 6.83-2.87z" opacity="1" data-original="#ffca6b" class=""/>
    <path fill="#d7ffe5" d="M48.29 29.78h-7.88c0-2.62-1.05-4.99-2.75-6.72l5.61-5.54c3.1 3.17 5.02 7.49 5.02 12.26z" opacity="1" data-original="#726ad3" class=""/>
    <path fill="#90f1b1" d="M30.82 20.2v-7.88c4.87 0 9.28 1.99 12.44 5.21l-5.61 5.54a9.538 9.538 0 0 0-6.83-2.87z" opacity="1" data-original="#b9dd53" class=""/>
    <path fill="#c4e4cf" d="M52.66 43.57V59.3c0 2.52-2.05 4.58-4.58 4.58H8.98v-9.15c0-.01 43.68.28 43.68-11.16z" opacity="1" data-original="#d5dce5" class=""/>
    <path d="M48.07 64.36H8.98a.48.48 0 0 1-.48-.48V12.24c0-2.79 2.27-5.06 5.06-5.06h43.68a.48.48 0 0 1 0 .96c-2.26 0-4.1 1.84-4.1 4.1V59.3c0 2.79-2.27 5.06-5.07 5.06zm-38.61-.97h38.61c2.26 0 4.1-1.84 4.1-4.09V12.24c0-1.68.82-3.17 2.09-4.1H13.55c-2.26 0-4.1 1.84-4.1 4.1v51.15z" fill="#064b1e" opacity="1" data-original="#000000" class=""/>
    <path d="M46.23 64.36H33.34a.48.48 0 0 1 0-.96h12.89a.48.48 0 0 1 0 .96z" fill="#064b1e" opacity="1" data-original="#000000" class=""/>
    <path fill="#e9fff0" d="M46.66 63.88H8.5a4.57 4.57 0 0 1-4.57-4.58c0-1.26.51-2.4 1.33-3.23.83-.83 1.98-1.34 3.24-1.34h38.17a4.573 4.573 0 0 0-4.58 4.57 4.564 4.564 0 0 0 4.57 4.58z" opacity="1" data-original="#f1f3f6" class=""/>
    <path d="M46.66 64.36H8.5c-2.79 0-5.06-2.27-5.06-5.06 0-1.35.52-2.62 1.47-3.57.96-.96 2.23-1.48 3.58-1.48h38.17c.27 0 .48.22.48.48s-.22.48-.48.48a4.094 4.094 0 1 0 0 8.19.48.48 0 0 1 0 .96zM8.5 55.21c-1.1 0-2.12.43-2.9 1.2a4.103 4.103 0 0 0 2.9 6.99h35.2a5.058 5.058 0 0 1 0-8.19z" fill="#064b1e" opacity="1" data-original="#000000" class=""/>
    <path fill="#ffffff" d="M10.62 58.29H9.56c-.27 0-.48-.22-.48-.48s.22-.48.48-.48h1.06c.27 0 .48.22.48.48s-.22.48-.48.48zM21.22 58.29h-8.16c-.27 0-.48-.22-.48-.48s.22-.48.48-.48h8.16a.48.48 0 0 1 0 .96z" opacity="1" data-original="#ffffff" class=""/>
    <path d="M61.81 18.88h-9.15a.48.48 0 0 1-.48-.48v-6.16c0-2.79 2.27-5.06 5.06-5.06 1.34 0 2.61.53 3.57 1.48.96.96 1.48 2.23 1.48 3.58v6.16c0 .27-.21.48-.48.48zm-8.67-.96h8.19v-5.68a4.094 4.094 0 1 0-8.19 0zM6.74 7.54c-.12 0-.24-.04-.34-.14L4.19 5.19C4 5 4 4.7 4.19 4.51s.49-.19.68 0l2.21 2.21c.19.19.19.49 0 .68-.09.1-.21.14-.34.14zM8.55 5.73a.48.48 0 0 1-.48-.48V2.12a.48.48 0 0 1 .96 0v3.13c.01.27-.21.48-.48.48zM1.81 9.35a.48.48 0 0 1 0-.96h3.13a.48.48 0 0 1 0 .96zM3.01 3.81c-.12 0-.25-.05-.34-.14l-.51-.51c-.19-.19-.19-.49 0-.68s.49-.19.68 0l.51.51c.19.19.19.49 0 .68-.09.1-.21.14-.34.14zM21.23 30.27h-7.88a.48.48 0 0 1-.48-.48c0-4.74 1.83-9.21 5.16-12.59a.483.483 0 0 1 .68 0l5.61 5.54c.19.19.19.49.01.68a9.019 9.019 0 0 0-2.61 6.38c0 .13-.05.25-.14.34a.56.56 0 0 1-.35.13zm-7.39-.97h6.92c.11-2.31 1-4.49 2.55-6.22l-4.93-4.86a16.84 16.84 0 0 0-4.54 11.08z" fill="#064b1e" opacity="1" data-original="#000000" class=""/>
    <path d="M23.98 23.55c-.13 0-.25-.05-.34-.14l-5.61-5.54a.477.477 0 0 1 0-.68c3.4-3.45 7.94-5.35 12.79-5.35a.476.476 0 0 1 .48.48v7.88c0 .27-.22.48-.48.48-2.46 0-4.76.97-6.49 2.72-.1.1-.22.15-.35.15zm-4.92-6.02 4.92 4.86a9.963 9.963 0 0 1 6.35-2.66v-6.92c-4.24.12-8.21 1.78-11.27 4.72zM40.41 30.27a.476.476 0 0 1-.48-.48c0-2.4-.93-4.66-2.61-6.38a.477.477 0 0 1 .01-.68l5.61-5.54c.09-.09.21-.14.34-.14.13 0 .25.05.34.14a17.83 17.83 0 0 1 5.16 12.59c0 .27-.22.48-.48.48zm-2.08-7.19a9.995 9.995 0 0 1 2.55 6.22h6.92c-.12-4.14-1.72-8.05-4.54-11.08z" fill="#064b1e" opacity="1" data-original="#000000" class=""/>
    <path d="M37.65 23.55c-.13 0-.25-.05-.34-.14a9.02 9.02 0 0 0-6.49-2.72.48.48 0 0 1-.48-.48v-7.88a.476.476 0 0 1 .48-.48c4.85 0 9.39 1.9 12.79 5.35.19.19.19.49 0 .68L38 23.42a.56.56 0 0 1-.35.13zm-6.35-3.82c2.38.11 4.6 1.04 6.35 2.66l4.92-4.86c-3.06-2.94-7.03-4.6-11.28-4.72z" fill="#064b1e" opacity="1" data-original="#000000" class=""/>
    <path d="M31.16 33.27h-.19c-1.07-.05-2.06-.51-2.78-1.3s-1.09-1.82-1.04-2.89.51-2.06 1.3-2.78c1.48-1.35 8.31-3.22 9.08-3.43.17-.05.36.01.48.14s.16.32.1.49c-.28.75-2.76 7.37-4.25 8.73-.75.68-1.7 1.04-2.7 1.04zm5.7-9.22c-2.44.7-6.79 2.07-7.76 2.95-.6.55-.95 1.3-.99 2.12-.04.81.24 1.59.79 2.19s1.3.95 2.11.99c.82.04 1.6-.24 2.2-.79.97-.88 2.73-5.09 3.65-7.46z" fill="#064b1e" opacity="1" data-original="#000000" class=""/>
    <path d="M31.15 30.91c-.91 0-1.65-.74-1.65-1.65s.74-1.64 1.65-1.64 1.65.74 1.65 1.64c0 .91-.74 1.65-1.65 1.65zm0-2.33a.68.68 0 1 0 .001 1.361.68.68 0 0 0-.001-1.361z" fill="#064b1e" opacity="1" data-original="#000000" class=""/>
    <path fill="#ffffff" d="M13.35 35.5h12.41v12.4H13.35z" opacity="1" data-original="#6bbeeb" class=""/>
    <path fill="#b5d5c0" d="M25.76 35.5v12.4H13.35s12.41-.29 12.41-12.4z" opacity="1" data-original="#56a7d2" class=""/>
    <path d="M25.76 48.39H13.35a.48.48 0 0 1-.48-.48V35.5c0-.27.22-.48.48-.48h12.41c.27 0 .48.22.48.48v12.4c0 .27-.22.49-.48.49zm-11.93-.97h11.44V35.98H13.83z" fill="#064b1e" opacity="1" data-original="#000000" class=""/>
    <path fill="#90f1b1" d="M22.99 46.24v1.66h-6.87v-1.66c0-1.9 1.54-3.43 3.44-3.43.95 0 1.81.38 2.43 1.01.61.61 1 1.47 1 2.42z" opacity="1" data-original="#b9dd53" class=""/>
    <path d="M22.99 48.39h-6.87a.48.48 0 0 1-.48-.48v-1.66c0-2.16 1.76-3.92 3.92-3.92 1.05 0 2.03.41 2.77 1.15a3.87 3.87 0 0 1 1.15 2.77v1.66c-.01.26-.22.48-.49.48zm-6.39-.97h5.91v-1.18c0-.79-.31-1.53-.87-2.08a2.958 2.958 0 0 0-5.05 2.08v1.18z" fill="#064b1e" opacity="1" data-original="#000000" class=""/>
    <path fill="#e9fff0" d="M21.83 38.39c-.12.12-.27.22-.43.28.14.28.22.59.22.92v1.16c0 1.14-.93 2.07-2.07 2.07-1.15 0-2.07-.93-2.07-2.07v-1.16c0-1.14.92-2.07 2.07-2.07h2.64c0 .34-.14.65-.36.87z" opacity="1" data-original="#f1f3f6" class=""/>
    <path d="M19.55 43.29c-1.41 0-2.55-1.14-2.55-2.55v-1.16c0-1.4 1.14-2.55 2.55-2.55h2.64c.27 0 .48.22.48.48 0 .45-.18.88-.5 1.21-.05.06-.11.11-.17.15.07.23.1.46.1.7v1.16a2.55 2.55 0 0 1-2.55 2.56zm0-5.29c-.87 0-1.59.71-1.59 1.58v1.16a1.586 1.586 0 0 0 3.17 0v-1.16c0-.25-.06-.48-.17-.69-.06-.12-.07-.27-.02-.4s.15-.23.28-.28c.1-.04.18-.09.25-.16l.01-.01c.01-.01.03-.03.04-.05h-1.97zM48.29 37.06H36.87a.48.48 0 0 1 0-.96h11.42a.48.48 0 0 1 0 .96zM48.29 40.65H30.3a.48.48 0 0 1 0-.96h17.99c.27 0 .48.22.48.48s-.22.48-.48.48zM48.29 44.23H45.2a.48.48 0 0 1 0-.96h3.09c.27 0 .48.22.48.48s-.22.48-.48.48zM31.9 44.23h-1.6a.48.48 0 0 1 0-.96h1.6c.27 0 .48.22.48.48s-.22.48-.48.48zM48.29 47.81H36.87c-.27 0-.48-.22-.48-.48s.22-.48.48-.48h11.42c.27 0 .48.22.48.48s-.22.48-.48.48zM31.9 47.81h-1.6c-.27 0-.48-.22-.48-.48s.22-.48.48-.48h1.6c.27 0 .48.22.48.48s-.22.48-.48.48zM48.29 51.81H13.35a.48.48 0 0 1 0-.96h34.94c.27 0 .48.22.48.48s-.22.48-.48.48zM2.62 64.36h-.18a.48.48 0 0 1 0-.96h.18c.27 0 .48.22.48.48.01.26-.21.48-.48.48zM62.96 64.36H3.92a.48.48 0 0 1 0-.96h59.04a.48.48 0 0 1 0 .96zM64.19 64.36h-.06a.48.48 0 0 1 0-.96h.06c.27 0 .48.22.48.48.01.26-.21.48-.48.48z" fill="#064b1e" opacity="1" data-original="#000000" class=""/>
    <path fill="#4cbe73" d="M62.69 45.38v16.85c0 .91-.74 1.64-1.64 1.64H35.53c-.91 0-1.64-.74-1.64-1.64V45.38c0-.91.74-1.64 1.64-1.64h25.52c.9 0 1.64.73 1.64 1.64z" opacity="1" data-original="#ff9a9a" class=""/>
    <path fill="#21723d" d="M62.69 45.38v16.85c0 .91-.74 1.65-1.65 1.65H35.53c-.91 0-1.65-.73-1.65-1.65 0 0 28.81 3.15 28.81-16.85z" opacity="1" data-original="#d86666" class=""/>
    <path fill="#4ce280" d="M43.33 47.9v2.63c0 .4-.32.71-.71.71h-4.39c-.4 0-.71-.32-.71-.71V47.9c0-.4.32-.72.71-.72h4.39c.4 0 .71.33.71.72z" opacity="1" data-original="#ffca6b" class=""/>
    <path d="M61.04 64.36H35.53c-1.17 0-2.13-.95-2.13-2.13V45.38c0-1.17.95-2.13 2.13-2.13h25.52c1.17 0 2.13.95 2.13 2.13v16.85a2.14 2.14 0 0 1-2.14 2.13zM35.53 44.22c-.64 0-1.16.52-1.16 1.16v16.85c0 .64.52 1.16 1.16 1.16h25.52c.64 0 1.16-.52 1.16-1.16V45.38c0-.64-.52-1.16-1.16-1.16z" fill="#064b1e" opacity="1" data-original="#000000" class=""/>
    <path d="M42.62 51.73h-4.39c-.66 0-1.2-.54-1.2-1.2V47.9c0-.66.54-1.2 1.2-1.2h4.39c.66 0 1.2.54 1.2 1.2v2.63c0 .67-.54 1.2-1.2 1.2zm-4.39-4.06c-.13 0-.23.11-.23.24v2.63c0 .13.1.23.23.23h4.39c.13 0 .23-.1.23-.23V47.9c0-.13-.1-.24-.23-.24h-4.39zM37.52 57.05a.48.48 0 0 1-.48-.48v-1.35a.48.48 0 0 1 .96 0v1.35c0 .26-.22.48-.48.48zM40.59 57.05a.48.48 0 0 1-.48-.48v-1.35a.48.48 0 0 1 .96 0v1.35c.01.26-.21.48-.48.48zM43.67 57.05a.48.48 0 0 1-.48-.48v-1.35c0-.27.22-.48.48-.48s.48.22.48.48v1.35c0 .26-.21.48-.48.48zM46.75 57.05a.48.48 0 0 1-.48-.48v-1.35a.48.48 0 0 1 .96 0v1.35c0 .26-.22.48-.48.48zM49.82 57.05a.48.48 0 0 1-.48-.48v-1.35a.48.48 0 0 1 .96 0v1.35c.01.26-.21.48-.48.48zM52.9 57.05a.48.48 0 0 1-.48-.48v-1.35a.48.48 0 0 1 .96 0v1.35c0 .26-.21.48-.48.48zM55.98 57.05a.48.48 0 0 1-.48-.48v-1.35a.48.48 0 0 1 .96 0v1.35c0 .26-.22.48-.48.48zM59.05 57.05a.48.48 0 0 1-.48-.48v-1.35c0-.27.22-.48.48-.48s.48.22.48.48v1.35c.01.26-.21.48-.48.48zM53.04 60.6h-6.29c-.27 0-.48-.22-.48-.48s.22-.48.48-.48h6.29c.27 0 .48.22.48.48s-.22.48-.48.48zM43.67 60.6h-6.15c-.27 0-.48-.22-.48-.48s.22-.48.48-.48h6.15a.48.48 0 0 1 0 .96z" fill="#064b1e" opacity="1" data-original="#000000" class=""/>
    <path fill="#ffffff" d="M58.63 47.14h-6.8a.48.48 0 0 1 0-.96h6.8c.27 0 .48.22.48.48s-.22.48-.48.48zM49.74 47.14h-.88a.48.48 0 0 1 0-.96h.88c.27 0 .48.22.48.48s-.22.48-.48.48z" opacity="1" data-original="#ffffff" class=""/>
  </g>
</svg>
